<svg xmlns="http://www.w3.org/2000/svg" xmlns:xlink="http://www.w3.org/1999/xlink" viewBox="0 0 668 262"><defs><style>.cls-1{opacity:0.2;}.cls-2{fill:#935497;}.cls-3{fill:#834787;}.cls-4{fill:#b282ac;opacity:0.42;}.cls-5{fill:url(#linear-gradient);}.cls-6{fill:#77447e;}.cls-6,.cls-8{opacity:0.54;}.cls-7{fill:#834891;}.cls-8{fill:#63346c;}.cls-9{fill:#c086ba;opacity:0.58;}</style><linearGradient id="linear-gradient" x1="-47.38" y1="138.29" x2="675.78" y2="137.61" gradientUnits="userSpaceOnUse"><stop offset="0.01" stop-color="#874b8d"/><stop offset="0.68" stop-color="#a262a7"/><stop offset="0.87" stop-color="#a060a5"/><stop offset="0.94" stop-color="#9a5a9e"/><stop offset="0.97" stop-color="#935497"/></linearGradient></defs><g id="Layer_11" data-name="Layer 11"><ellipse class="cls-1" cx="350.63" cy="250.89" rx="293.46" ry="10.75"/><rect class="cls-2" y="0.36" width="667.25" height="37.25" rx="15.86"/><path class="cls-3" d="M668.28,26.12s-5.17,11.5-16.26,11.5H14.54S3.4,35.75,2.21,27.45,668.28,26.12,668.28,26.12Z"/><path class="cls-4" d="M33.65,7C5.63-.22,658.7,7,658.7,7S57.68,13.25,33.65,7Z"/><path class="cls-5" d="M33.54,34.17S54.16,261.44,231.09,230.66L387.4,241.92l98.13-11.26s104.85,31.09,145-196.49Z"/><path class="cls-6" d="M520.68,227.46c-.2-2-46.75,10-131.44,1.09C309.33,220.16,241,213,188.15,161.92c-16.36-15.81-49.81-53.79-62.4-124.87L34.8,39.3a266.24,266.24,0,0,0,27.94,97.27s15.62,30.54,37.74,55.12C180.66,280.78,521.24,232.78,520.68,227.46Z"/><rect class="cls-7" x="152.53" y="228.22" width="366.46" height="22.52" rx="9.89"/><path class="cls-8" d="M630.59,33.49l-1.9,10.36S90.13,40.53,35,45.83L33.59,33.77h0Z"/><path class="cls-9" d="M510.38,192.11s47-43.26,63.76-124.48c0,0,9.44,74.91-38.79,124.48Z"/></g></svg>