<svg xmlns="http://www.w3.org/2000/svg" viewBox="0 0 663 86"><defs><style>.cls-1{fill:#c90e0e;}.cls-1,.cls-2,.cls-3,.cls-4,.cls-6,.cls-7,.cls-8{fill-rule:evenodd;}.cls-2{fill:#f60;}.cls-3{fill:#cf5f14;}.cls-4{fill:#e38a14;}.cls-5{fill:#c7ffff;}.cls-6{fill:#2c6fb7;}.cls-7{fill:#65a0c4;}.cls-8{fill:#b500a8;}</style></defs><g id="Layer_9" data-name="Layer 9"><path class="cls-1" d="M26.55,1.8,328.9,10.15c22,1.91,55,4.64,56.36,21V74s1.45,13.74-61.47,10.85c0,0-181.41-.19-297.23-2.9Z"/><path class="cls-2" d="M26.55,23.39s58.44-2.5,89-2.65c35.59-.18,150.78,3.28,195.61,10.51S352,23,331.73,18.63s-65.8-15.25-305.18-15Z"/><path class="cls-2" d="M102,50.48c0-18.15,19.28-14.85,84.37-13.4S318,76.13,323.78,84.81c0,0-89.19-8.29-171.63-9.26C122.77,75.21,102,67.47,102,50.48Z"/><path class="cls-3" d="M351.16,30.67c1.44-3.47,9.31-3.47,17.52-.07S382.34,39.54,380.9,43s-9.3,3.48-17.41.11-13.76-9-12.33-12.44Z"/><path class="cls-4" d="M353.17,31.5c1.24-3,8.05-3,15.16-.05s11.81,7.72,10.57,10.72-8,3-15.06.1S351.92,34.5,353.17,31.5Z"/><rect class="cls-5" y="0.79" width="31.37" height="83" rx="2.58"/><path class="cls-6" d="M572.09,58.63V39.36L384,34.73a56.32,56.32,0,0,0-1.19,13.46c0,6.45-.32,9.9,1.09,16Z"/><path class="cls-7" d="M571.7,43.84V39.76L384.12,34.57a7.24,7.24,0,0,0-.22,2.3A23.93,23.93,0,0,0,384,40.8Z"/><path class="cls-7" d="M657.38,30.46h0a5.61,5.61,0,0,0-4.25-2.2H576c-2.12,0-4.11,1.44-5.34,3.86l-5,9.82a12.08,12.08,0,0,0-1.07,7,12.23,12.23,0,0,0,.91,6.73l5.16,11.16c1.21,2.61,3.28,4.18,5.5,4.18h76.57a5.88,5.88,0,0,0,4.76-2.87l1.15-1.7A28.3,28.3,0,0,0,663,49.26C663.32,42.37,661.45,35.31,657.38,30.46Z"/><path class="cls-8" d="M646.69,65.21h-63c-1.83,0-3.53-1.3-4.52-3.44L575,52.6a10.06,10.06,0,0,1,.13-8.45l4.09-8.07a5.16,5.16,0,0,1,4.39-3.18H647a4.57,4.57,0,0,1,3.49,1.81h0c5.75,6.86,6.22,19,1,26.73l-.95,1.41A4.84,4.84,0,0,1,646.69,65.21Z"/></g></svg>