<svg xmlns="http://www.w3.org/2000/svg" viewBox="0 0 663 78"><defs><style>.cls-1{fill:#ed97ab;}.cls-1,.cls-2,.cls-3,.cls-4,.cls-5{fill-rule:evenodd;}.cls-2,.cls-7{fill:#c41d60;}.cls-3,.cls-6{fill:#9c0e47;}.cls-4{fill:#3f91c4;}.cls-5{fill:#4eb0ed;}</style></defs><g id="Layer_8" data-name="Layer 8"><path class="cls-1" d="M293.28,12.89C231.22,11,43.65,1.47,43.65,1.47,19.87.38,0,9.13,0,32.94H0A38,38,0,0,0,.52,39,38,38,0,0,0,0,45.06H0C0,68.87,19.87,77.62,43.65,76.53L293.28,64.71l147-3.55V17.61S350.68,14.66,293.28,12.89Z"/><path class="cls-2" d="M506.62,59.1H433.85L293.28,59,43.65,70.77C19.87,71.86,0,63.11,0,39.31H0C0,15.5,19.87,6.75,43.65,7.84c0,0,187.57,9.51,249.63,11.42,49.5,1.53,122.93.61,142.22.33,3.09-.05,71.12-.08,71.12-.08Z"/><path class="cls-3" d="M506.62,49.71H433.85l-140.57-.07L43.65,57.45C19.87,58,0,51.82,0,39.31H0C0,26.8,19.87,20.59,43.65,21.16c0,0,187.57,6.61,249.63,7.61,49.5.81,122.93.32,142.22.17,3.09,0,71.12,0,71.12,0Z"/><path class="cls-4" d="M192.69,43.61l1-9.9c.76-7.55-2.78-13.42-7.71-12.92-5.05.34-9.86,6.88-10.61,14.43l-1,9.9c-.75,7.72,2.78,13.42,7.84,13.09,5.06-.51,9.73-7.05,10.49-14.6Z"/><path class="cls-5" d="M192.69,43.61l1-9.9c.64-5.87-1.39-10.74-4.67-12.41-4.68,1.17-8.85,7.38-9.48,14.43l-1,9.89c-.64,5.88,1.39,10.74,4.67,12.42,4.68-1.34,8.85-7.38,9.48-14.43Z"/><path class="cls-4" d="M232.38,43.61l1-9.9c.75-7.55-2.79-13.42-7.71-12.92-5.06.34-9.86,6.88-10.62,14.43l-1,9.9c-.76,7.72,2.78,13.42,7.83,13.09,5.06-.51,9.74-7.05,10.49-14.6Z"/><path class="cls-5" d="M232.38,43.61l1-9.9C234,27.84,232,23,228.72,21.3c-4.68,1.17-8.85,7.38-9.48,14.43l-1,9.89c-.63,5.88,1.39,10.74,4.67,12.42,4.68-1.34,8.85-7.38,9.48-14.43Z"/><path class="cls-4" d="M272.08,43.61l1-9.9c.76-7.55-2.78-13.42-7.71-12.92-5.06.34-9.86,6.88-10.62,14.43l-1,9.9c-.76,7.72,2.78,13.42,7.83,13.09,5.06-.51,9.74-7.05,10.5-14.6Z"/><path class="cls-5" d="M272.08,43.61l1-9.9c.63-5.87-1.39-10.74-4.68-12.41-4.68,1.17-8.85,7.38-9.48,14.43l-1,9.89c-.63,5.88,1.39,10.74,4.68,12.42,4.67-1.34,8.84-7.38,9.48-14.43Z"/><path class="cls-4" d="M311.77,43.61l1-9.9c.76-7.55-2.78-13.42-7.71-12.92-5.06.34-9.86,6.88-10.62,14.43l-1,9.9c-.76,7.72,2.78,13.42,7.84,13.09,5.05-.51,9.73-7.05,10.49-14.6Z"/><path class="cls-5" d="M311.77,43.61l1-9.9c.63-5.87-1.39-10.74-4.68-12.41-4.67,1.17-8.85,7.38-9.48,14.43l-1,9.89C297,51.5,299,56.36,302.29,58c4.67-1.34,8.85-7.38,9.48-14.43Z"/><path class="cls-4" d="M351.46,43.61l1-9.9c.76-7.55-2.78-13.42-7.71-12.92-5.06.34-9.86,6.88-10.62,14.43l-1,9.9c-.76,7.72,2.78,13.42,7.84,13.09,5-.51,9.73-7.05,10.49-14.6Z"/><path class="cls-5" d="M351.46,43.61l1-9.9c.63-5.87-1.39-10.74-4.68-12.41-4.67,1.17-8.84,7.38-9.48,14.43l-1,9.89C336.67,51.5,338.69,56.36,342,58c4.68-1.34,8.85-7.38,9.48-14.43Z"/><path class="cls-6" d="M503,9.71H653.76A9.24,9.24,0,0,1,663,18.95V57.07a9.24,9.24,0,0,1-9.24,9.24H503a4,4,0,0,1-4-4V13.67a4,4,0,0,1,4-4Z"/><path class="cls-7" d="M632.31,9.71H511.23A12.13,12.13,0,0,0,499.1,21.84v7.35a12.13,12.13,0,0,1,12.13-12.13H632.31c6.7,0,17.78,2.71,29.31,12.13a45.37,45.37,0,0,0-3.72-7.35C652.2,14.2,644,9.48,632.31,9.71Z"/><rect class="cls-7" x="527.39" y="20" width="2.21" height="37.12" rx="0.36"/><rect class="cls-7" x="535.84" y="20" width="2.21" height="37.12" rx="0.36"/><rect class="cls-7" x="544.29" y="20" width="2.21" height="37.12" rx="0.36"/><rect class="cls-7" x="552.75" y="20" width="2.21" height="37.12" rx="0.36"/><rect class="cls-7" x="561.2" y="20" width="2.21" height="37.12" rx="0.36"/><rect class="cls-7" x="569.65" y="20" width="2.21" height="37.12" rx="0.36"/><rect class="cls-7" x="578.1" y="20" width="2.21" height="37.12" rx="0.36"/><rect class="cls-7" x="586.56" y="20" width="2.21" height="37.12" rx="0.36"/><rect class="cls-7" x="595.01" y="20" width="2.21" height="37.12" rx="0.36"/><rect class="cls-7" x="603.46" y="20" width="2.21" height="37.12" rx="0.36"/><rect class="cls-7" x="611.92" y="20" width="2.21" height="37.12" rx="0.36"/><rect class="cls-7" x="620.37" y="20" width="2.21" height="37.12" rx="0.36"/><rect class="cls-7" x="628.82" y="20" width="2.21" height="37.12" rx="0.36"/><path class="cls-7" d="M632.31,67.4H511.23A12.13,12.13,0,0,1,499.1,55.27V47.92a12.13,12.13,0,0,0,12.13,12.13H632.31c6.7,0,17.78-2.71,29.31-12.13a45.37,45.37,0,0,1-3.72,7.35C652.2,62.91,644,67.63,632.31,67.4Z"/></g></svg>