<svg xmlns="http://www.w3.org/2000/svg" viewBox="0 0 663 70"><defs><style>.cls-1{fill:#0e65cc;}.cls-1,.cls-2,.cls-3,.cls-4,.cls-5,.cls-6,.cls-7,.cls-8,.cls-9{fill-rule:evenodd;}.cls-2{fill:#2379f7;}.cls-3{fill:#000793;}.cls-4{fill:#1b29a8;}.cls-5{fill:#2d68d6;}.cls-6{fill:#3a76e6;}.cls-7{fill:#1f4ea6;}.cls-8{fill:#48b3ed;}.cls-9{fill:#83d2fc;}</style></defs><g id="Layer_7" data-name="Layer 7"><path class="cls-1" d="M662.75,49.26c.31-6.79,0-21.66,0-22-1.48-7.52-6.38-15.44-14-16-205-15-119.28,38.3-254.61,3.33C319.19-4.66,177.25-2.5,71,9.24,36.11,13.11-33.27,16.41,18.9,36.8c12.42,4.79,26.32,9.69,34.18,11.4C127.35,64.37,235,43,311.33,43.41c48.75.34,68.57-4.78,94,.34,10.14,2,65.86-.19,80.44,5.51,10.26,3.87,36.41,11.7,47,15,13.67,4.21,111.93,8.83,124,2C661,63.87,662.6,52.66,662.75,49.26Z"/><path class="cls-2" d="M490.17,46.55c-18.68-8.54-29-14.64-96-32C319.19-4.66,177.25-2.5,71,9.24,45.45,12.08,1.59,14.59.11,23.7c37.59,7.64,199.58,4.45,254.26,2.17,60.26-2.39,137.49-4.44,169.39,5.81,19.94,6.38,45.23,9.17,66.41,14.87Z"/><path class="cls-3" d="M321.35,3.54c-57.75-4.9-127.7-4-192.06.57C154.46,7,163.81,17.1,159.48,28,145.69,62.21,64.58,39.65,53,48.2,77.12,53.66,114.48,59,238,61.41c7.64.11,114.38,3.08,153.11-8.09,26.43-7.63,67.8-9.79,91-1.82C512,61.64,516.46,65.21,541.75,67.26c38.73,3.07,90,2,104,1,8.1-.58,17-2,17-20-93.64,1.25-139.13,1.92-161-4-34.29-9.46-76.51-15.2-116.15-13.83-20.62.68-83.16,16.51-90.11-9.23C293.1,12.65,302,4.34,321.35,3.54Z"/><path class="cls-4" d="M321.35,3.54c-57.75-4.9-127.7-4-192.06.57C154.46,7,163.81,17.1,159.48,28c38.5-.34,74.27-1.25,94.89-2.16,13.55-.46,27.91-1,42.37-1.37a11.89,11.89,0,0,1-1.25-3.3C293.1,12.65,302,4.34,321.35,3.54Z"/><path class="cls-5" d="M608.42,46.44c0,8.23-1.37,14.82-3,14.82s-3.08-6.59-3.08-14.82V33.27c0-8.24,1.37-14.82,3.08-14.82s3,6.58,3,14.82V46.44Zm-48.3,0c0,8.23-1.37,14.82-3.08,14.82S554,54.67,554,46.44V33.27c0-8.24,1.36-14.82,3.07-14.82s3.08,6.58,3.08,14.82V46.44Zm32.24,0c0,8.23-1.37,14.82-3.08,14.82s-3.08-6.59-3.08-14.82V33.27c0-8.24,1.37-14.82,3.08-14.82s3.08,6.58,3.08,14.82V46.44Zm32.23,0c0,8.23-1.36,14.82-3.07,14.82s-3.08-6.59-3.08-14.82V33.27c0-8.24,1.37-14.82,3.08-14.82s3.07,6.58,3.07,14.82V46.44Zm-48.41,0c0,8.23-1.37,14.82-3,14.82s-3.08-6.59-3.08-14.82V33.27c0-8.24,1.37-14.82,3.08-14.82s3,6.58,3,14.82V46.44Z"/><path class="cls-6" d="M608.42,46.44c0,7.68-1,13.72-2.51,14.82a55.78,55.78,0,0,1-.8-10.43V37.66c0-7.69,1-13.72,2.51-14.82a66.81,66.81,0,0,1,.8,10.43V46.44Zm-48.3,0c0,7.68-1.14,13.72-2.62,14.82a67,67,0,0,1-.8-10.43V37.66c0-7.69,1.14-13.72,2.51-14.82a54.81,54.81,0,0,1,.91,10.43V46.44Zm32.24,0c0,7.68-1.14,13.72-2.51,14.82a55,55,0,0,1-.91-10.43V37.66c0-7.69,1.14-13.72,2.5-14.82a54.74,54.74,0,0,1,.92,10.43V46.44Zm32.23,0c0,7.68-1.13,13.72-2.5,14.82a55,55,0,0,1-.91-10.43V37.66c0-7.69,1.14-13.72,2.5-14.82a54.81,54.81,0,0,1,.91,10.43V46.44Zm-48.41,0c0,7.68-1,13.72-2.51,14.82a55.86,55.86,0,0,1-.79-10.43V37.66c0-7.69,1-13.72,2.5-14.82a66.81,66.81,0,0,1,.8,10.43V46.44Z"/><path class="cls-7" d="M258,61.75c0-7.86,3.65-10,5.93-10.36,2.62-.23,3.87,2.27,3.87,4.55v5.93c-3.53,0-6.83-.12-9.8-.12Zm-78.37-1.93a8.61,8.61,0,0,1,3.08-6.61c5-4.1,6.83-1.14,6.83,2.73v4.22l-9.91-.34Zm52.29,1.48c0-6.5,3.64-9.46,5.92-9.8,2.62-.57,3.87,2.28,3.87,10L238,61.41l-6-.11Zm52.17.57c0-7.86,4.1-10.37,6.38-10.71,2.62-.34,3.42,2.5,3.42,4.78v5.81c-3.31.12-6.61.12-9.8.12Zm-78.37-1.14a9.59,9.59,0,0,1,5.92-9.23c2.85-1.25,4,1.71,4,4.44v5c-3.42-.11-6.61-.22-9.91-.22Z"/><path class="cls-8" d="M270.54,60.5a4.86,4.86,0,0,1-4.89,4.9,5,5,0,0,1-5-4.9V55.94a5,5,0,0,1,5-4.9,4.86,4.86,0,0,1,4.89,4.9V60.5Zm-78.26,0a5,5,0,0,1-9.91,0V55.94a5,5,0,0,1,9.91,0V60.5Zm52.18,0a5,5,0,0,1-9.91,0V55.94a5,5,0,0,1,9.91,0V60.5Zm52.17,0a4.9,4.9,0,1,1-9.8,0V55.94a4.9,4.9,0,1,1,9.8,0V60.5Zm-78.26,0a5,5,0,0,1-9.91,0V55.94a5,5,0,0,1,9.91,0V60.5Z"/><path class="cls-9" d="M270.54,60.5a4.86,4.86,0,0,1-4.89,4.9h-.23a4.84,4.84,0,0,1-1.14-3.08V57.76a4.93,4.93,0,0,1,4.9-4.89h.22a4.79,4.79,0,0,1,1.14,3.07V60.5Zm-78.26,0a5,5,0,0,1-5.12,4.9A4.3,4.3,0,0,1,186,62.32V57.76a4.86,4.86,0,0,1,4.9-4.89h.23a4.84,4.84,0,0,1,1.13,3.07V60.5Zm52.18,0a4.94,4.94,0,0,1-4.9,4.9h-.23a4.9,4.9,0,0,1-1.14-3.08V57.76a4.93,4.93,0,0,1,4.9-4.89h.23a4.85,4.85,0,0,1,1.14,3.07V60.5Zm52.17,0a4.86,4.86,0,0,1-4.9,4.9h-.23a4.89,4.89,0,0,1-1.13-3.08V57.76a5,5,0,0,1,5.12-4.89,4.79,4.79,0,0,1,1.14,3.07V60.5Zm-78.26,0a5,5,0,0,1-5.13,4.9,4.89,4.89,0,0,1-1.13-3.08V57.76A4.85,4.85,0,0,1,217,52.87h.23a4.79,4.79,0,0,1,1.14,3.07V60.5Z"/></g></svg>