<svg xmlns="http://www.w3.org/2000/svg" viewBox="0 0 299 286"><defs><style>.cls-1{fill:#8c009b;}.cls-2{fill:#f7f3f0;opacity:0.29;}.cls-3{fill:#d906ef;}.cls-4,.cls-5,.cls-7{fill:#fff;}.cls-4{opacity:0.4;}.cls-5{opacity:0.6;}.cls-6{opacity:0.7;}</style></defs><g id="Layer_18" data-name="Layer 18"><path class="cls-1" d="M128.7,49.12s71-42.23,71.25,1.56c0,0,2.59,24.61,13.47,41.71,0,0,6.22,5.7,8.81,17.88s6,11.14,6,11.14a45.91,45.91,0,0,1,9.32,15.8s27.21,32.13,33.17,44.57c0,0,18.65,22,27.72,60.88,0,0,.78,9.07-10.11,5.7,0,0-42.83,1.55-66,8.81,0,0-5.18,2.76-25.56,3.8s-33.51,8.29-33.51,8.29-8.31,2.42-22.85,3.45-39.93,9.59-39.93,9.59-17.36,7-16.71,1.81Z"/><path class="cls-2" d="M272.11,184.8s-7.93-10.52-12.11-18.48c0,0-45.63,3.36-61.69,18.39,0,0-44.05,19.95-71,17.36,0,0-43.07,6.12-55.27,22.4v24.24s23.83-31.61,54.23-21.25c0,0,40.42,2,78.24-20.25C204.52,207.21,263,182,272.11,184.8Z"/><path class="cls-3" d="M1.27,47.31S-8.94,6.38,49.91,17.78c0,0,18.68,5.69,38.63,1.29a153.88,153.88,0,0,0,28-7.77s37.4-25.48,40.5,0c0,0,6.74,33.59,14.86,40.5a78.25,78.25,0,0,1,20,37.22s16.24,30.66,41.8,53.46c0,0,37.66,46.9,41.8,71.64,0,0,19.69,26.47-21.76,18.87,0,0-64.43,8.63-102.25,24.7,0,0-15.55,9.84-39.38,12.95,0,0-18.31,5.18-24.88,13.47s-10.7-15.89-10-53.54c0,0-6.91-44.91-11.75-60.45,0,0-7.51,1.81-10.1-22.54L40.61,121.15s-17.36-42-24.87-50.26S1.27,47.31,1.27,47.31Z"/><path class="cls-4" d="M1.57,40.57S-2.57,23,19.54,17.78c0,0,12.09,45.94,30.74,72.19a376.25,376.25,0,0,1,26.08,52.86s19.52,24.87,18.83,52.85a123.5,123.5,0,0,1,1.73,49s-2.27,22.46,1.63,31.78c0,0-8.89,2.08-11.31,7.6,0,0-7.25-2.76-6.56-14.16,0,0-.34-50.09-3.45-56.65,0,0-2.77-21.77-13.82-40.07,0,0-3.37-14.77-9.33-20.21,0,0-12.95-18.92-16.58-38.61s.52-1.29.52-1.29-11.4-35.24-19.69-43S1.57,40.57,1.57,40.57Z"/><path class="cls-5" d="M268.09,196.8s-6.22-16.32-12.18-22.28c0,0-36,2.07-52.08,17.1,0,0-44,19.95-71,17.36,0,0-43.06,6.12-55.27,22.4v24.23s23.84-31.6,54.24-21.24c0,0,40.41,2,78.24-20.25C210.05,214.12,259,194,268.09,196.8Z"/><g class="cls-6"><ellipse class="cls-7" cx="45.13" cy="37.64" rx="14.7" ry="14.39"/><ellipse class="cls-7" cx="108.56" cy="103.23" rx="7.13" ry="6.98"/><ellipse class="cls-7" cx="216.76" cy="158.33" rx="10.93" ry="10.69"/><ellipse class="cls-7" cx="135.76" cy="161.02" rx="16.35" ry="16"/><ellipse class="cls-7" cx="142.76" cy="43.02" rx="16.35" ry="16"/><path class="cls-7" d="M95.78,89a2.42,2.42,0,0,1-.38-4.81l.22,0a2.47,2.47,0,0,1,2.85,2,2.42,2.42,0,0,1-2,2.79l-.27,0A2.69,2.69,0,0,1,95.78,89Zm-8.6-.08a2.28,2.28,0,0,1-.45,0l-.27-.05a2.42,2.42,0,0,1-2-2.84,2.47,2.47,0,0,1,2.9-1.91l.22,0a2.43,2.43,0,0,1,2,2.81A2.46,2.46,0,0,1,87.18,88.94Zm17-2.76A2.48,2.48,0,0,1,102,84.94a2.4,2.4,0,0,1,.94-3.3l.2-.1a2.49,2.49,0,0,1,3.37.89,2.38,2.38,0,0,1-.91,3.3l-.24.14A2.47,2.47,0,0,1,104.16,86.18Zm-25.29-.26a2.61,2.61,0,0,1-1.26-.33l-.23-.14a2.4,2.4,0,0,1-.85-3.32,2.51,2.51,0,0,1,3.4-.83l.19.11A2.4,2.4,0,0,1,81,84.73,2.5,2.5,0,0,1,78.87,85.92ZM111,80.69a2.55,2.55,0,0,1-1.62-.59,2.39,2.39,0,0,1-.25-3.42l.14-.16a2.51,2.51,0,0,1,3.48-.29,2.38,2.38,0,0,1,.3,3.41l-.18.21A2.51,2.51,0,0,1,111,80.69Zm-38.88-.4a2.5,2.5,0,0,1-1.91-.88,1.63,1.63,0,0,1-.17-.2,2.39,2.39,0,0,1,.36-3.41,2.51,2.51,0,0,1,3.48.36l.15.17a2.38,2.38,0,0,1-.34,3.41A2.5,2.5,0,0,1,72.13,80.29Zm43.4-7.06a2.65,2.65,0,0,1-.87-.15A2.41,2.41,0,0,1,113.22,70l.08-.21a2.49,2.49,0,0,1,3.17-1.44,2.41,2.41,0,0,1,1.47,3.11l-.09.25A2.47,2.47,0,0,1,115.53,73.23Zm-47.77-.48a2.47,2.47,0,0,1-2.33-1.61l-.09-.26a2.41,2.41,0,0,1,1.54-3.07A2.49,2.49,0,0,1,70,69.32a1.59,1.59,0,0,1,.07.2,2.4,2.4,0,0,1-1.5,3.09A2.37,2.37,0,0,1,67.76,72.75Zm49.4-8h0a2.45,2.45,0,0,1-2.45-2.44v-.22a2.48,2.48,0,0,1,4.95,0v.26A2.45,2.45,0,0,1,117.16,64.71ZM66.32,64.2h0a2.44,2.44,0,0,1-2.44-2.45v-.26a2.45,2.45,0,0,1,2.47-2.37h.05a2.45,2.45,0,0,1,2.43,2.47v.22A2.45,2.45,0,0,1,66.32,64.2Zm49.56-7.54A2.46,2.46,0,0,1,113.53,55c0-.07,0-.14-.07-.21A2.41,2.41,0,0,1,115,51.72a2.48,2.48,0,0,1,3.13,1.51l.09.26a2.4,2.4,0,0,1-1.58,3A2.25,2.25,0,0,1,115.88,56.66ZM68,55.68a2.45,2.45,0,0,1-2.31-3.28l.09-.25a2.51,2.51,0,0,1,3.21-1.38,2.42,2.42,0,0,1,1.41,3.14l-.09.2A2.47,2.47,0,0,1,68,55.68ZM111.68,49a2.48,2.48,0,0,1-1.94-.91L109.6,48a2.38,2.38,0,0,1,.37-3.41,2.51,2.51,0,0,1,3.48.36l.16.21a2.38,2.38,0,0,1-.4,3.4A2.5,2.5,0,0,1,111.68,49Zm-39.2-.8a2.5,2.5,0,0,1-1.61-.59,2.38,2.38,0,0,1-.26-3.41l.18-.21a2.51,2.51,0,0,1,3.49-.21,2.39,2.39,0,0,1,.22,3.42,1.07,1.07,0,0,0-.14.16A2.51,2.51,0,0,1,72.48,48.23Zm32.57-4.95a2.52,2.52,0,0,1-1.29-.36l-.19-.12a2.39,2.39,0,0,1-.85-3.32,2.51,2.51,0,0,1,3.4-.83l.23.14a2.39,2.39,0,0,1,.81,3.33A2.48,2.48,0,0,1,105.05,43.28Zm-25.7-.53a2.51,2.51,0,0,1-2.17-1.24,2.4,2.4,0,0,1,1-3.3l.23-.13a2.51,2.51,0,0,1,3.36,1,2.39,2.39,0,0,1-1,3.29l-.2.11A2.47,2.47,0,0,1,79.35,42.75Zm17.47-2.66a2.83,2.83,0,0,1-.5-.05l-.22,0a2.42,2.42,0,0,1-2-2.84A2.48,2.48,0,0,1,97,35.24l.27.06a2.42,2.42,0,0,1,1.93,2.85A2.46,2.46,0,0,1,96.82,40.09Zm-9.11-.19a2.45,2.45,0,0,1-2.44-2,2.42,2.42,0,0,1,2-2.77l.27,0a2.47,2.47,0,0,1,2.81,2,2.43,2.43,0,0,1-2.08,2.75l-.22,0A2.56,2.56,0,0,1,87.71,39.9Z"/><path class="cls-7" d="M94.66,81.51A1.77,1.77,0,0,1,92.9,80a1.75,1.75,0,0,1,1.48-2l.16,0a1.79,1.79,0,0,1,2.06,1.43,1.76,1.76,0,0,1-1.46,2l-.2,0Zm-6.21-.06a1.84,1.84,0,0,1-.33,0l-.19,0a1.75,1.75,0,0,1-1.41-2A1.78,1.78,0,0,1,88.61,78l.15,0a1.75,1.75,0,0,1,1.44,2A1.78,1.78,0,0,1,88.45,81.45Zm12.25-2a1.8,1.8,0,0,1-1.56-.89,1.74,1.74,0,0,1,.69-2.38l.13-.07a1.8,1.8,0,0,1,2.44.64,1.73,1.73,0,0,1-.66,2.39l-.17.09A1.79,1.79,0,0,1,100.7,79.45Zm-18.25-.18a1.88,1.88,0,0,1-.91-.24l-.16-.1a1.72,1.72,0,0,1-.61-2.4,1.81,1.81,0,0,1,2.45-.59l.13.08A1.73,1.73,0,0,1,84,78.41,1.8,1.8,0,0,1,82.45,79.27Zm23.2-3.78a1.83,1.83,0,0,1-1.17-.42,1.72,1.72,0,0,1-.18-2.47l.1-.11a1.8,1.8,0,0,1,2.51-.21,1.72,1.72,0,0,1,.22,2.46l-.13.15A1.8,1.8,0,0,1,105.65,75.49Zm-28.06-.28a1.79,1.79,0,0,1-1.38-.64l-.13-.14A1.72,1.72,0,0,1,76.35,72a1.81,1.81,0,0,1,2.51.26l.1.12a1.72,1.72,0,0,1-.24,2.46A1.78,1.78,0,0,1,77.59,75.21Zm31.32-5.1a1.76,1.76,0,0,1-1.67-2.36l.06-.15a1.79,1.79,0,0,1,2.29-1,1.74,1.74,0,0,1,1.06,2.24,1.34,1.34,0,0,1-.07.18A1.78,1.78,0,0,1,108.91,70.11Zm-34.48-.34a1.79,1.79,0,0,1-1.68-1.17l-.06-.18A1.74,1.74,0,0,1,73.8,66.2a1.81,1.81,0,0,1,2.27,1.09.58.58,0,0,0,.05.14A1.75,1.75,0,0,1,75,69.67,2.09,2.09,0,0,1,74.43,69.77ZM110.08,64h0a1.76,1.76,0,0,1-1.77-1.76V62a1.79,1.79,0,0,1,3.57,0v.19A1.77,1.77,0,0,1,110.08,64Zm-36.69-.37h0a1.76,1.76,0,0,1-1.76-1.76v-.19a1.77,1.77,0,0,1,1.79-1.71h0a1.76,1.76,0,0,1,1.75,1.78v.16A1.76,1.76,0,0,1,73.39,63.59Zm35.77-5.43A1.77,1.77,0,0,1,107.47,57a1.21,1.21,0,0,1,0-.14,1.74,1.74,0,0,1,1.11-2.22,1.81,1.81,0,0,1,2.27,1.09l.06.18a1.75,1.75,0,0,1-1.14,2.21A1.82,1.82,0,0,1,109.16,58.16Zm-34.59-.72a1.76,1.76,0,0,1-1.67-2.36L73,54.9a1.8,1.8,0,0,1,2.31-1,1.74,1.74,0,0,1,1,2.27l-.06.14A1.78,1.78,0,0,1,74.57,57.44Zm31.56-4.79a1.8,1.8,0,0,1-1.4-.66l-.1-.13a1.72,1.72,0,0,1,.26-2.45,1.81,1.81,0,0,1,2.51.26l.13.15a1.72,1.72,0,0,1-.29,2.45A1.78,1.78,0,0,1,106.13,52.65Zm-28.29-.58a1.8,1.8,0,0,1-1.17-.43,1.73,1.73,0,0,1-.18-2.46l.13-.15a1.81,1.81,0,0,1,2.52-.15,1.72,1.72,0,0,1,.16,2.46l-.11.12A1.8,1.8,0,0,1,77.84,52.07Zm23.51-3.58a1.78,1.78,0,0,1-.94-.26l-.14-.08a1.73,1.73,0,0,1-.6-2.4,1.81,1.81,0,0,1,2.45-.59l.16.1a1.72,1.72,0,0,1,.59,2.4A1.78,1.78,0,0,1,101.35,48.49ZM82.8,48.11a1.81,1.81,0,0,1-1.57-.89,1.73,1.73,0,0,1,.69-2.38l.17-.09a1.79,1.79,0,0,1,2.42.69,1.72,1.72,0,0,1-.7,2.37l-.15.08A1.78,1.78,0,0,1,82.8,48.11Zm12.6-1.92a2.19,2.19,0,0,1-.36,0l-.15,0a1.76,1.76,0,0,1-1.42-2.05,1.78,1.78,0,0,1,2.09-1.38l.2,0a1.76,1.76,0,0,1,1.39,2.07A1.78,1.78,0,0,1,95.4,46.19Zm-6.57-.13a1.77,1.77,0,0,1-1.76-1.47,1.74,1.74,0,0,1,1.48-2l.2,0a1.79,1.79,0,0,1,2,1.47,1.75,1.75,0,0,1-1.51,2l-.16,0Z"/><path class="cls-7" d="M94.66,81.7a2,2,0,0,1-.42,0l.08-.36a2,2,0,0,0,.34,0Zm-6.21-.07a2.19,2.19,0,0,1-.36,0v-.37h.06a1.36,1.36,0,0,0,.29,0Zm12.25-2a2.71,2.71,0,0,1-.41,0l.08-.36a1.84,1.84,0,0,0,.33,0Zm-18.25-.18a2,2,0,0,1-.42,0l.08-.36a2,2,0,0,0,.34,0Zm23.2-3.78a2,2,0,0,1-.42-.05l.08-.36a1.27,1.27,0,0,0,.34,0Zm-28.06-.29a2,2,0,0,1-.42,0l.08-.36a1.86,1.86,0,0,0,.34,0Zm31.32-5.09a2.71,2.71,0,0,1-.41,0l.08-.37a1.24,1.24,0,0,0,.33,0ZM74.43,70a2,2,0,0,1-.41,0l.08-.36a1.84,1.84,0,0,0,.33,0Zm35.65-5.8h0a2.57,2.57,0,0,1-.4-.05l.08-.36a1.65,1.65,0,0,0,.32,0Zm-36.69-.37h0a2.58,2.58,0,0,1-.39,0l.08-.36a1.63,1.63,0,0,0,.31,0Zm35.77-5.44a1.84,1.84,0,0,1-.41,0l.08-.36a1.84,1.84,0,0,0,.33,0Zm-34.59-.71a2.71,2.71,0,0,1-.41,0l.08-.37a1.24,1.24,0,0,0,.33,0Zm31.56-4.8a2,2,0,0,1-.42,0l.08-.36a2,2,0,0,0,.34,0Zm-28.29-.58a1.84,1.84,0,0,1-.41,0l.08-.36.33,0Zm23.51-3.57a2,2,0,0,1-.42,0l.08-.36a1.27,1.27,0,0,0,.34,0ZM82.8,48.3a2,2,0,0,1-.42,0l.08-.36a1.86,1.86,0,0,0,.34,0Zm12.6-1.92a1.72,1.72,0,0,1-.39,0l0-.37a1.48,1.48,0,0,0,.34,0Zm-6.57-.14a1.84,1.84,0,0,1-.41,0l.08-.36a1.86,1.86,0,0,0,.33,0Z"/><path class="cls-7" d="M92.34,66a.37.37,0,0,1-.36-.31.36.36,0,0,1,.3-.41h0a.36.36,0,0,1,.43.29.37.37,0,0,1-.3.42h-.1Zm-1.28,0H91a.36.36,0,0,1-.29-.42.37.37,0,0,1,.43-.29h0a.36.36,0,0,1,.29.42A.36.36,0,0,1,91.06,66Zm2.52-.41a.36.36,0,0,1-.18-.67l0,0a.37.37,0,0,1,.5.14.35.35,0,0,1-.13.49l0,0A.37.37,0,0,1,93.58,65.61Zm-3.75,0a.41.41,0,0,1-.19,0l0,0a.36.36,0,0,1-.12-.5.37.37,0,0,1,.5-.12l0,0a.34.34,0,0,1,.13.49A.38.38,0,0,1,89.83,65.58Zm4.77-.78a.38.38,0,0,1-.24-.09.36.36,0,0,1,0-.51l0,0a.38.38,0,0,1,.52,0,.34.34,0,0,1,0,.5l0,0A.35.35,0,0,1,94.6,64.8Zm-5.78-.06a.35.35,0,0,1-.28-.13l0,0a.35.35,0,0,1,0-.51.38.38,0,0,1,.52.06l0,0a.36.36,0,0,1,0,.51A.41.41,0,0,1,88.82,64.74Zm6.45-1-.13,0a.36.36,0,0,1-.21-.47v0a.37.37,0,0,1,.47-.21.36.36,0,0,1,.22.46v0A.38.38,0,0,1,95.27,63.69Zm-7.09-.07a.36.36,0,0,1-.35-.24v0a.35.35,0,0,1,.23-.46.37.37,0,0,1,.46.23v0a.36.36,0,0,1-.22.46Zm7.34-1.2h0a.36.36,0,0,1-.36-.36v0a.37.37,0,0,1,.73,0v0A.36.36,0,0,1,95.52,62.42ZM88,62.35h0a.37.37,0,0,1-.37-.37v0a.37.37,0,0,1,.37-.35h0a.37.37,0,0,1,.36.37v0A.37.37,0,0,1,88,62.35Zm7.37-1.12A.37.37,0,0,1,95,61v0a.35.35,0,0,1,.23-.46.37.37,0,0,1,.46.23l0,0a.36.36,0,0,1-.24.45Zm-7.13-.15-.13,0a.36.36,0,0,1-.21-.47v0a.38.38,0,0,1,.48-.21.36.36,0,0,1,.21.47v0A.38.38,0,0,1,88.2,61.08Zm6.5-1a.37.37,0,0,1-.29-.13l0,0a.34.34,0,0,1,.06-.5.36.36,0,0,1,.51,0l0,0a.36.36,0,0,1-.06.51A.39.39,0,0,1,94.7,60.09ZM88.88,60a.35.35,0,0,1-.24-.08.35.35,0,0,1,0-.51l0,0a.36.36,0,0,1,.51,0,.35.35,0,0,1,0,.51l0,0A.39.39,0,0,1,88.88,60Zm4.84-.73a.46.46,0,0,1-.2-.05l0,0a.36.36,0,0,1-.13-.5.38.38,0,0,1,.51-.12l0,0a.36.36,0,0,1,.12.5A.37.37,0,0,1,93.72,59.24Zm-3.82-.08a.37.37,0,0,1-.32-.18.35.35,0,0,1,.14-.49l0,0a.37.37,0,0,1,.5.14.36.36,0,0,1-.14.49h0A.31.31,0,0,1,89.9,59.16Zm2.59-.39h-.1a.36.36,0,0,1-.29-.42.36.36,0,0,1,.43-.28h0a.36.36,0,0,1-.08.72Zm-1.35,0a.37.37,0,0,1-.36-.31.36.36,0,0,1,.3-.41h0a.36.36,0,1,1,.11.71h-.09Z"/><path class="cls-7" d="M92.88,69.65a.7.7,0,0,1-.69-.58.69.69,0,0,1,.58-.78h.06a.7.7,0,0,1,.81.56.69.69,0,0,1-.57.79h-.19Zm-2.43,0h-.13l-.07,0a.69.69,0,0,1-.56-.8.7.7,0,0,1,.82-.54h.06a.69.69,0,0,1,.57.79A.71.71,0,0,1,90.45,69.63Zm4.8-.78a.69.69,0,0,1-.61-.35.68.68,0,0,1,.26-.93l.06,0a.7.7,0,0,1,1,.25.67.67,0,0,1-.26.93l-.06,0A.72.72,0,0,1,95.25,68.85Zm-7.15-.08a.73.73,0,0,1-.35-.09l-.07,0a.68.68,0,0,1-.24-.94.71.71,0,0,1,1-.23l.06,0a.69.69,0,0,1,.25.94A.72.72,0,0,1,88.1,68.77Zm9.08-1.47a.75.75,0,0,1-.46-.17.68.68,0,0,1-.07-1l0,0a.71.71,0,0,1,1-.08.67.67,0,0,1,.08,1l-.05.06A.69.69,0,0,1,97.18,67.3Zm-11-.12a.71.71,0,0,1-.54-.24l0-.06a.67.67,0,0,1,.11-1,.7.7,0,0,1,1,.1l0,0a.67.67,0,0,1-.1,1A.71.71,0,0,1,86.2,67.18Zm12.26-2a.73.73,0,0,1-.25,0,.68.68,0,0,1-.4-.88l0-.06a.69.69,0,0,1,.89-.41.68.68,0,0,1,.42.88l0,.07A.69.69,0,0,1,98.46,65.19ZM85,65.05a.69.69,0,0,1-.66-.45l0-.07a.68.68,0,0,1,.44-.87.71.71,0,0,1,.89.43l0,0a.69.69,0,0,1-.43.87A.66.66,0,0,1,85,65.05Zm14-2.27h0a.69.69,0,0,1-.69-.69V62a.7.7,0,0,1,1.4,0v.08A.7.7,0,0,1,98.92,62.78Zm-14.36-.14h0a.7.7,0,0,1-.69-.69v-.08a.7.7,0,0,1,.7-.67h0a.69.69,0,0,1,.69.7V62A.7.7,0,0,1,84.56,62.64Zm14-2.13a.7.7,0,0,1-.67-.47l0-.06a.69.69,0,0,1,.44-.87.71.71,0,0,1,.89.43l0,.07a.69.69,0,0,1-.45.87A.76.76,0,0,1,98.56,60.51ZM85,60.23a.73.73,0,0,1-.25,0,.68.68,0,0,1-.4-.88l0-.07a.7.7,0,0,1,.91-.39.67.67,0,0,1,.4.88l0,.06A.69.69,0,0,1,85,60.23Zm12.35-1.87a.71.71,0,0,1-.55-.26l0-.05a.67.67,0,0,1,.11-1,.71.71,0,0,1,1,.1l0,.06a.67.67,0,0,1-.12,1A.7.7,0,0,1,97.37,58.36ZM86.3,58.13a.75.75,0,0,1-.46-.17.67.67,0,0,1-.07-1l0-.06a.72.72,0,0,1,1-.06.67.67,0,0,1,.06,1l0,0A.69.69,0,0,1,86.3,58.13Zm9.2-1.4a.71.71,0,0,1-.37-.1l0,0a.68.68,0,0,1-.24-.94.71.71,0,0,1,1-.24l.07,0a.67.67,0,0,1,.22.94A.7.7,0,0,1,95.5,56.73Zm-7.26-.15a.71.71,0,0,1-.61-.35.67.67,0,0,1,.27-.93l.06,0a.71.71,0,0,1,1,.27.68.68,0,0,1-.27.93l-.06,0A.72.72,0,0,1,88.24,56.58Zm4.93-.75H93l-.06,0a.68.68,0,0,1-.55-.8.7.7,0,0,1,.82-.54l.07,0a.68.68,0,0,1,.55.8A.7.7,0,0,1,93.17,55.83Zm-2.57,0a.7.7,0,0,1-.69-.58.69.69,0,0,1,.58-.78h.08a.68.68,0,1,1,.2,1.35H90.6Z"/><path class="cls-7" d="M93.65,74.81a1.15,1.15,0,0,1-.18-2.28l.11,0a1.18,1.18,0,0,1,1.35.94,1.15,1.15,0,0,1-1,1.32l-.13,0Zm-4.07,0-.21,0-.13,0a1.15,1.15,0,0,1-.93-1.35,1.17,1.17,0,0,1,1.37-.9l.11,0a1.14,1.14,0,0,1,.94,1.33A1.17,1.17,0,0,1,89.58,74.77Zm8-1.31a1.16,1.16,0,0,1-1-.59A1.13,1.13,0,0,1,97,71.31l.1,0a1.18,1.18,0,0,1,1.59.43,1.12,1.12,0,0,1-.43,1.56l-.11.06A1.18,1.18,0,0,1,97.62,73.46Zm-12-.12a1.16,1.16,0,0,1-.59-.16l-.11-.06a1.15,1.15,0,0,1-.4-1.58,1.19,1.19,0,0,1,1.61-.39l.09.06a1.12,1.12,0,0,1,.41,1.56A1.16,1.16,0,0,1,85.64,73.34Zm15.22-2.48a1.15,1.15,0,0,1-.76-.28A1.12,1.12,0,0,1,100,69l.06-.08a1.18,1.18,0,0,1,1.65-.14,1.14,1.14,0,0,1,.15,1.62l-.09.09A1.16,1.16,0,0,1,100.86,70.86Zm-18.41-.18a1.2,1.2,0,0,1-.9-.42l-.08-.1a1.13,1.13,0,0,1,.17-1.61,1.19,1.19,0,0,1,1.65.17l.07.08a1.13,1.13,0,0,1-.16,1.61A1.17,1.17,0,0,1,82.45,70.68ZM103,67.33a1.23,1.23,0,0,1-.42-.07,1.15,1.15,0,0,1-.68-1.48l0-.1a1.17,1.17,0,0,1,1.5-.68,1.14,1.14,0,0,1,.7,1.47l-.05.12A1.16,1.16,0,0,1,103,67.33ZM80.39,67.1a1.17,1.17,0,0,1-1.11-.76l0-.12A1.15,1.15,0,0,1,80,64.76a1.19,1.19,0,0,1,1.49.72l0,.09A1.14,1.14,0,0,1,80.78,67,1.32,1.32,0,0,1,80.39,67.1Zm23.38-3.8h0a1.17,1.17,0,0,1-1.16-1.16V62A1.18,1.18,0,0,1,105,62v.13A1.17,1.17,0,0,1,103.77,63.3ZM79.7,63.05h0a1.15,1.15,0,0,1-1.16-1.16v-.12a1.17,1.17,0,0,1,1.17-1.12h0a1.16,1.16,0,0,1,1.15,1.17v.1A1.15,1.15,0,0,1,79.7,63.05Zm23.47-3.56a1.17,1.17,0,0,1-1.11-.79l0-.1a1.14,1.14,0,0,1,.74-1.45,1.16,1.16,0,0,1,1.48.71.56.56,0,0,1,0,.12,1.17,1.17,0,0,1-1.11,1.51ZM80.47,59a1.22,1.22,0,0,1-.41-.07,1.15,1.15,0,0,1-.68-1.48l0-.12a1.19,1.19,0,0,1,1.52-.65,1.14,1.14,0,0,1,.67,1.48l0,.1A1.17,1.17,0,0,1,80.47,59Zm20.71-3.15a1.16,1.16,0,0,1-.92-.43l-.07-.08a1.14,1.14,0,0,1,.18-1.61,1.19,1.19,0,0,1,1.65.17l.08.1a1.14,1.14,0,0,1-.19,1.61A1.25,1.25,0,0,1,101.18,55.87Zm-18.56-.38a1.15,1.15,0,0,1-.76-.28,1.12,1.12,0,0,1-.13-1.61l.09-.1a1.19,1.19,0,0,1,1.65-.1A1.13,1.13,0,0,1,83.58,55a.46.46,0,0,0-.07.07A1.16,1.16,0,0,1,82.62,55.49ZM98,53.15a1.22,1.22,0,0,1-.61-.17l-.09-.06a1.13,1.13,0,0,1-.4-1.57A1.19,1.19,0,0,1,98.55,51l.11.06A1.14,1.14,0,0,1,99,52.6,1.18,1.18,0,0,1,98,53.15ZM85.87,52.9a1.18,1.18,0,0,1-1-.59,1.13,1.13,0,0,1,.45-1.56l.11-.06a1.18,1.18,0,0,1,1.59.45,1.14,1.14,0,0,1-.46,1.56l-.1,0A1.18,1.18,0,0,1,85.87,52.9Zm8.27-1.26-.23,0-.11,0a1.15,1.15,0,0,1-.92-1.35,1.17,1.17,0,0,1,1.37-.91l.12,0a1.14,1.14,0,0,1,.92,1.35A1.17,1.17,0,0,1,94.14,51.64Zm-4.31-.09a1.15,1.15,0,0,1-.18-2.28l.13,0a1.18,1.18,0,0,1,1.33,1,1.15,1.15,0,0,1-1,1.3l-.1,0Z"/><path class="cls-7" d="M165.78,140a2.42,2.42,0,0,1-.38-4.81l.22,0a2.47,2.47,0,0,1,2.85,2,2.42,2.42,0,0,1-2,2.79l-.27,0A2.69,2.69,0,0,1,165.78,140Zm-8.6-.08a2.28,2.28,0,0,1-.45,0l-.27-.05a2.42,2.42,0,0,1-2-2.84,2.47,2.47,0,0,1,2.9-1.91l.22,0a2.43,2.43,0,0,1,2,2.81A2.46,2.46,0,0,1,157.18,139.94Zm17-2.76a2.48,2.48,0,0,1-2.16-1.24,2.4,2.4,0,0,1,.94-3.3l.2-.1a2.49,2.49,0,0,1,3.37.89,2.38,2.38,0,0,1-.91,3.3l-.24.14A2.47,2.47,0,0,1,174.16,137.18Zm-25.29-.26a2.61,2.61,0,0,1-1.26-.33l-.23-.14a2.4,2.4,0,0,1-.85-3.32,2.51,2.51,0,0,1,3.4-.83l.19.11a2.4,2.4,0,0,1,.88,3.32A2.5,2.5,0,0,1,148.87,136.92ZM181,131.69a2.55,2.55,0,0,1-1.62-.59,2.39,2.39,0,0,1-.25-3.42l.14-.16a2.51,2.51,0,0,1,3.48-.29,2.38,2.38,0,0,1,.3,3.41l-.18.21A2.51,2.51,0,0,1,181,131.69Zm-38.88-.4a2.5,2.5,0,0,1-1.91-.88,1.63,1.63,0,0,1-.17-.2,2.39,2.39,0,0,1,.36-3.41,2.51,2.51,0,0,1,3.48.36l.15.17a2.38,2.38,0,0,1-.34,3.41A2.5,2.5,0,0,1,142.13,131.29Zm43.4-7.06a2.65,2.65,0,0,1-.87-.15,2.41,2.41,0,0,1-1.44-3.12l.08-.21a2.49,2.49,0,0,1,3.17-1.44,2.41,2.41,0,0,1,1.47,3.11l-.09.25A2.47,2.47,0,0,1,185.53,124.23Zm-47.77-.48a2.47,2.47,0,0,1-2.33-1.61l-.09-.26a2.41,2.41,0,0,1,1.54-3.07,2.49,2.49,0,0,1,3.14,1.51,1.59,1.59,0,0,1,.07.2,2.4,2.4,0,0,1-1.5,3.09A2.37,2.37,0,0,1,137.76,123.75Zm49.4-8h0a2.45,2.45,0,0,1-2.45-2.44v-.22a2.48,2.48,0,0,1,4.95,0v.26A2.45,2.45,0,0,1,187.16,115.71Zm-50.84-.51h0a2.44,2.44,0,0,1-2.44-2.45v-.26a2.45,2.45,0,0,1,2.47-2.37h.05a2.45,2.45,0,0,1,2.43,2.47v.22A2.45,2.45,0,0,1,136.32,115.2Zm49.56-7.54a2.46,2.46,0,0,1-2.35-1.66c0-.07-.05-.14-.07-.21a2.41,2.41,0,0,1,1.55-3.07,2.48,2.48,0,0,1,3.13,1.51l.09.26a2.4,2.4,0,0,1-1.58,3.05A2.25,2.25,0,0,1,185.88,107.66Zm-47.93-1a2.45,2.45,0,0,1-2.31-3.28l.09-.25a2.51,2.51,0,0,1,3.21-1.38,2.42,2.42,0,0,1,1.41,3.14l-.09.2A2.47,2.47,0,0,1,138,106.68ZM181.68,100a2.48,2.48,0,0,1-1.94-.91L179.6,99a2.38,2.38,0,0,1,.37-3.41,2.51,2.51,0,0,1,3.48.36l.16.21a2.38,2.38,0,0,1-.4,3.4A2.5,2.5,0,0,1,181.68,100Zm-39.2-.8a2.5,2.5,0,0,1-1.61-.59,2.38,2.38,0,0,1-.26-3.41l.18-.21a2.51,2.51,0,0,1,3.49-.21,2.39,2.39,0,0,1,.22,3.42,1.07,1.07,0,0,0-.14.16A2.51,2.51,0,0,1,142.48,99.23Zm32.57-5a2.52,2.52,0,0,1-1.29-.36l-.19-.12a2.39,2.39,0,0,1-.85-3.32,2.51,2.51,0,0,1,3.4-.83l.23.14a2.39,2.39,0,0,1,.81,3.33A2.48,2.48,0,0,1,175.05,94.28Zm-25.7-.53a2.51,2.51,0,0,1-2.17-1.24,2.4,2.4,0,0,1,1-3.3l.23-.13a2.51,2.51,0,0,1,3.36,1,2.39,2.39,0,0,1-1,3.29l-.2.11A2.47,2.47,0,0,1,149.35,93.75Zm17.47-2.66a2.83,2.83,0,0,1-.5,0l-.22,0a2.42,2.42,0,0,1-2-2.84,2.48,2.48,0,0,1,2.9-1.92l.27.06a2.42,2.42,0,0,1,1.93,2.85A2.46,2.46,0,0,1,166.82,91.09Zm-9.11-.19a2.45,2.45,0,0,1-2.44-2,2.42,2.42,0,0,1,2-2.77l.27,0a2.47,2.47,0,0,1,2.81,2,2.43,2.43,0,0,1-2.08,2.75l-.22,0A2.56,2.56,0,0,1,157.71,90.9Z"/><path class="cls-7" d="M164.66,132.51A1.77,1.77,0,0,1,162.9,131a1.75,1.75,0,0,1,1.48-2l.16,0a1.79,1.79,0,0,1,2.06,1.43,1.76,1.76,0,0,1-1.46,2l-.2,0Zm-6.21-.06a1.84,1.84,0,0,1-.33,0l-.19,0a1.75,1.75,0,0,1-1.41-2,1.78,1.78,0,0,1,2.09-1.39l.15,0a1.75,1.75,0,0,1,1.44,2A1.78,1.78,0,0,1,158.45,132.45Zm12.25-2a1.8,1.8,0,0,1-1.56-.89,1.74,1.74,0,0,1,.69-2.38l.13-.07a1.8,1.8,0,0,1,2.44.64,1.73,1.73,0,0,1-.66,2.39l-.17.09A1.79,1.79,0,0,1,170.7,130.45Zm-18.25-.18a1.88,1.88,0,0,1-.91-.24l-.16-.1a1.72,1.72,0,0,1-.61-2.4,1.81,1.81,0,0,1,2.45-.59l.13.08a1.73,1.73,0,0,1,.64,2.39A1.8,1.8,0,0,1,152.45,130.27Zm23.2-3.78a1.83,1.83,0,0,1-1.17-.42,1.72,1.72,0,0,1-.18-2.47l.1-.11a1.8,1.8,0,0,1,2.51-.21,1.72,1.72,0,0,1,.22,2.46l-.13.15A1.8,1.8,0,0,1,175.65,126.49Zm-28.06-.28a1.79,1.79,0,0,1-1.38-.64l-.13-.14a1.72,1.72,0,0,1,.27-2.46,1.81,1.81,0,0,1,2.51.26l.1.12a1.72,1.72,0,0,1-.24,2.46A1.78,1.78,0,0,1,147.59,126.21Zm31.32-5.1a1.76,1.76,0,0,1-1.67-2.36l.06-.15a1.79,1.79,0,0,1,2.29-1,1.74,1.74,0,0,1,1.06,2.24,1.34,1.34,0,0,1-.07.18A1.78,1.78,0,0,1,178.91,121.11Zm-34.48-.34a1.79,1.79,0,0,1-1.68-1.17l-.06-.18a1.74,1.74,0,0,1,1.11-2.22,1.81,1.81,0,0,1,2.27,1.09.58.58,0,0,0,.05.14,1.75,1.75,0,0,1-1.09,2.24A2.09,2.09,0,0,1,144.43,120.77ZM180.08,115h0a1.76,1.76,0,0,1-1.77-1.76V113a1.79,1.79,0,0,1,3.57,0v.19A1.77,1.77,0,0,1,180.08,115Zm-36.69-.37h0a1.76,1.76,0,0,1-1.76-1.76v-.19a1.77,1.77,0,0,1,1.79-1.71h0a1.76,1.76,0,0,1,1.75,1.78v.16A1.76,1.76,0,0,1,143.39,114.59Zm35.77-5.43a1.77,1.77,0,0,1-1.69-1.21,1.21,1.21,0,0,1-.05-.14,1.74,1.74,0,0,1,1.11-2.22,1.81,1.81,0,0,1,2.27,1.09l.06.18a1.75,1.75,0,0,1-1.14,2.21A1.82,1.82,0,0,1,179.16,109.16Zm-34.59-.72a1.76,1.76,0,0,1-1.67-2.36l.07-.18a1.8,1.8,0,0,1,2.31-1,1.74,1.74,0,0,1,1,2.27l-.06.14A1.78,1.78,0,0,1,144.57,108.44Zm31.56-4.79a1.8,1.8,0,0,1-1.4-.66l-.1-.13a1.72,1.72,0,0,1,.26-2.45,1.81,1.81,0,0,1,2.51.26l.13.15a1.72,1.72,0,0,1-.29,2.45A1.78,1.78,0,0,1,176.13,103.65Zm-28.29-.58a1.8,1.8,0,0,1-1.17-.43,1.73,1.73,0,0,1-.18-2.46l.13-.15a1.81,1.81,0,0,1,2.52-.15,1.72,1.72,0,0,1,.16,2.46l-.11.12A1.8,1.8,0,0,1,147.84,103.07Zm23.51-3.58a1.78,1.78,0,0,1-.94-.26l-.14-.08a1.73,1.73,0,0,1-.6-2.4,1.81,1.81,0,0,1,2.45-.59l.16.1a1.72,1.72,0,0,1,.59,2.4A1.78,1.78,0,0,1,171.35,99.49Zm-18.55-.38a1.81,1.81,0,0,1-1.57-.89,1.73,1.73,0,0,1,.69-2.38l.17-.09a1.79,1.79,0,0,1,2.42.69,1.72,1.72,0,0,1-.7,2.37l-.15.08A1.78,1.78,0,0,1,152.8,99.11Zm12.6-1.92a2.19,2.19,0,0,1-.36,0l-.15,0a1.76,1.76,0,0,1-1.42-2,1.78,1.78,0,0,1,2.09-1.38l.2,0a1.76,1.76,0,0,1,1.39,2.07A1.78,1.78,0,0,1,165.4,97.19Zm-6.57-.13a1.77,1.77,0,0,1-1.76-1.47,1.74,1.74,0,0,1,1.48-2l.2,0a1.79,1.79,0,0,1,2,1.47,1.75,1.75,0,0,1-1.51,2l-.16,0Z"/><path class="cls-7" d="M164.66,132.7a2,2,0,0,1-.42,0l.08-.36a2,2,0,0,0,.34,0Zm-6.21-.07a2.19,2.19,0,0,1-.36,0v-.37h.06a1.36,1.36,0,0,0,.29,0Zm12.25-2a2.71,2.71,0,0,1-.41,0l.08-.36.33,0Zm-18.25-.18a2,2,0,0,1-.42-.05l.08-.36a2,2,0,0,0,.34,0Zm23.2-3.78a2,2,0,0,1-.42-.05l.08-.36a1.27,1.27,0,0,0,.34,0Zm-28.06-.29a2,2,0,0,1-.42,0l.08-.36a1.86,1.86,0,0,0,.34,0Zm31.32-5.09a2.71,2.71,0,0,1-.41,0l.08-.37a1.24,1.24,0,0,0,.33,0ZM144.43,121a2,2,0,0,1-.41,0l.08-.36a1.84,1.84,0,0,0,.33,0Zm35.65-5.8h0a2.57,2.57,0,0,1-.4-.05l.08-.36a1.65,1.65,0,0,0,.32,0Zm-36.69-.37h0a2.58,2.58,0,0,1-.39,0l.08-.36a1.63,1.63,0,0,0,.31,0Zm35.77-5.44a1.84,1.84,0,0,1-.41,0l.08-.36a1.84,1.84,0,0,0,.33,0Zm-34.59-.71a2.71,2.71,0,0,1-.41,0l.08-.37a1.24,1.24,0,0,0,.33,0Zm31.56-4.8a2,2,0,0,1-.42,0l.08-.36a2,2,0,0,0,.34,0Zm-28.29-.58a1.84,1.84,0,0,1-.41,0l.08-.36a1.84,1.84,0,0,0,.33,0Zm23.51-3.57a2,2,0,0,1-.42-.05l.08-.36a1.27,1.27,0,0,0,.34,0ZM152.8,99.3a2,2,0,0,1-.42,0l.08-.36a1.86,1.86,0,0,0,.34,0Zm12.6-1.92a1.72,1.72,0,0,1-.39,0l.05-.37a1.48,1.48,0,0,0,.34,0Zm-6.57-.14a1.84,1.84,0,0,1-.41,0l.08-.36a1.86,1.86,0,0,0,.33,0Z"/><path class="cls-7" d="M162.34,117a.37.37,0,0,1-.36-.31.36.36,0,0,1,.3-.41h0a.36.36,0,0,1,.43.29.37.37,0,0,1-.3.42h-.1Zm-1.28,0H161a.36.36,0,0,1-.29-.42.37.37,0,0,1,.43-.29h0a.36.36,0,0,1,.29.42A.36.36,0,0,1,161.06,117Zm2.52-.41a.36.36,0,0,1-.18-.67l0,0a.37.37,0,0,1,.5.14.35.35,0,0,1-.13.49l0,0A.37.37,0,0,1,163.58,116.61Zm-3.75,0a.41.41,0,0,1-.19,0l0,0a.36.36,0,0,1-.12-.5.37.37,0,0,1,.5-.12l0,0a.34.34,0,0,1,.13.49A.38.38,0,0,1,159.83,116.58Zm4.77-.78a.38.38,0,0,1-.24-.09.36.36,0,0,1,0-.51l0,0a.38.38,0,0,1,.52,0,.34.34,0,0,1,0,.5l0,0A.35.35,0,0,1,164.6,115.8Zm-5.78-.06a.35.35,0,0,1-.28-.13l0,0a.35.35,0,0,1,0-.51.38.38,0,0,1,.52.06l0,0a.36.36,0,0,1-.05.51A.41.41,0,0,1,158.82,115.74Zm6.45-1-.13,0a.36.36,0,0,1-.21-.47v0a.37.37,0,0,1,.47-.21.36.36,0,0,1,.22.46v0A.38.38,0,0,1,165.27,114.69Zm-7.09-.07a.36.36,0,0,1-.35-.24v0a.35.35,0,0,1,.23-.46.37.37,0,0,1,.46.23v0a.36.36,0,0,1-.22.46Zm7.34-1.2h0a.36.36,0,0,1-.36-.36v0a.37.37,0,0,1,.73,0v0A.36.36,0,0,1,165.52,113.42Zm-7.56-.07h0a.37.37,0,0,1-.37-.37v0a.37.37,0,0,1,.37-.35h0a.37.37,0,0,1,.36.37v0A.37.37,0,0,1,158,113.35Zm7.37-1.12A.37.37,0,0,1,165,112v0a.35.35,0,0,1,.23-.46.37.37,0,0,1,.46.23l0,0a.36.36,0,0,1-.24.45Zm-7.13-.15-.13,0a.36.36,0,0,1-.21-.47v0a.38.38,0,0,1,.48-.21.36.36,0,0,1,.21.47v0A.38.38,0,0,1,158.2,112.08Zm6.5-1a.37.37,0,0,1-.29-.13l0,0a.34.34,0,0,1,.06-.5.36.36,0,0,1,.51,0l0,0a.36.36,0,0,1-.06.51A.39.39,0,0,1,164.7,111.09Zm-5.82-.12a.35.35,0,0,1-.24-.08.35.35,0,0,1,0-.51l0,0a.36.36,0,0,1,.51,0,.35.35,0,0,1,0,.51l0,0A.39.39,0,0,1,158.88,111Zm4.84-.73a.46.46,0,0,1-.2,0l0,0a.36.36,0,0,1-.13-.5.38.38,0,0,1,.51-.12l0,0a.36.36,0,0,1,.12.5A.37.37,0,0,1,163.72,110.24Zm-3.82-.08a.37.37,0,0,1-.32-.18.35.35,0,0,1,.14-.49l0,0a.37.37,0,0,1,.5.14.36.36,0,0,1-.14.49h0A.31.31,0,0,1,159.9,110.16Zm2.59-.39h-.1a.36.36,0,0,1-.29-.42.36.36,0,0,1,.43-.28h0a.36.36,0,0,1-.08.72Zm-1.35,0a.37.37,0,0,1-.36-.31.36.36,0,0,1,.3-.41h0a.36.36,0,1,1,.11.71h-.09Z"/><path class="cls-7" d="M162.88,120.65a.7.7,0,0,1-.69-.58.69.69,0,0,1,.58-.78h.06a.7.7,0,0,1,.81.56.69.69,0,0,1-.57.79h-.19Zm-2.43,0h-.13l-.07,0a.69.69,0,0,1-.56-.8.7.7,0,0,1,.82-.54h.06a.69.69,0,0,1,.57.79A.71.71,0,0,1,160.45,120.63Zm4.8-.78a.69.69,0,0,1-.61-.35.68.68,0,0,1,.26-.93l.06,0a.7.7,0,0,1,.95.25.67.67,0,0,1-.26.93l-.06,0A.72.72,0,0,1,165.25,119.85Zm-7.15-.08a.73.73,0,0,1-.35-.09l-.07,0a.68.68,0,0,1-.24-.94.71.71,0,0,1,1-.23l.06,0a.69.69,0,0,1,.25.94A.72.72,0,0,1,158.1,119.77Zm9.08-1.47a.75.75,0,0,1-.46-.17.68.68,0,0,1-.07-1l0,0a.71.71,0,0,1,1-.08.67.67,0,0,1,.08,1l0,.06A.69.69,0,0,1,167.18,118.3Zm-11-.12a.71.71,0,0,1-.54-.24l0-.06a.67.67,0,0,1,.11-1,.7.7,0,0,1,1,.1l0,0a.67.67,0,0,1-.1,1A.71.71,0,0,1,156.2,118.18Zm12.26-2a.73.73,0,0,1-.25,0,.68.68,0,0,1-.4-.88l0-.06a.69.69,0,0,1,.89-.41.68.68,0,0,1,.42.88l0,.07A.69.69,0,0,1,168.46,116.19ZM155,116.05a.69.69,0,0,1-.66-.45l0-.07a.68.68,0,0,1,.44-.87.71.71,0,0,1,.89.43l0,0a.69.69,0,0,1-.43.87A.66.66,0,0,1,155,116.05Zm13.95-2.27h0a.69.69,0,0,1-.69-.69V113a.7.7,0,0,1,1.4,0v.08A.7.7,0,0,1,168.92,113.78Zm-14.36-.14h0a.7.7,0,0,1-.69-.69v-.08a.7.7,0,0,1,.7-.67h0a.69.69,0,0,1,.69.7V113A.7.7,0,0,1,154.56,113.64Zm14-2.13a.7.7,0,0,1-.67-.47l0-.06a.69.69,0,0,1,.44-.87.71.71,0,0,1,.89.43l0,.07a.69.69,0,0,1-.45.87A.76.76,0,0,1,168.56,111.51ZM155,111.23a.73.73,0,0,1-.25,0,.68.68,0,0,1-.4-.88l0-.07a.7.7,0,0,1,.91-.39.67.67,0,0,1,.4.88l0,.06A.69.69,0,0,1,155,111.23Zm12.35-1.87a.71.71,0,0,1-.55-.26l0,0a.67.67,0,0,1,.11-1,.71.71,0,0,1,1,.1l0,.06a.67.67,0,0,1-.12,1A.7.7,0,0,1,167.37,109.36Zm-11.07-.23a.75.75,0,0,1-.46-.17.67.67,0,0,1-.07-1l0-.06a.72.72,0,0,1,1-.06.67.67,0,0,1,.06,1l0,0A.69.69,0,0,1,156.3,109.13Zm9.2-1.4a.71.71,0,0,1-.37-.1l0,0a.68.68,0,0,1-.24-.94.71.71,0,0,1,1-.24l.07,0a.67.67,0,0,1,.22.94A.7.7,0,0,1,165.5,107.73Zm-7.26-.15a.71.71,0,0,1-.61-.35.67.67,0,0,1,.27-.93l.06,0a.71.71,0,0,1,.95.27.68.68,0,0,1-.27.93l-.06,0A.72.72,0,0,1,158.24,107.58Zm4.93-.75H163l-.06,0a.68.68,0,0,1-.55-.8.7.7,0,0,1,.82-.54l.07,0a.68.68,0,0,1,.55.8A.7.7,0,0,1,163.17,106.83Zm-2.57,0a.7.7,0,0,1-.69-.58.69.69,0,0,1,.58-.78h.08a.68.68,0,1,1,.2,1.35h-.17Z"/><path class="cls-7" d="M163.65,125.81a1.15,1.15,0,0,1-.18-2.28l.11,0a1.18,1.18,0,0,1,1.35.94,1.15,1.15,0,0,1-1,1.32l-.13,0Zm-4.07,0-.21,0-.13,0a1.15,1.15,0,0,1-.93-1.35,1.17,1.17,0,0,1,1.37-.9l.11,0a1.14,1.14,0,0,1,.94,1.33A1.17,1.17,0,0,1,159.58,125.77Zm8-1.31a1.16,1.16,0,0,1-1-.59,1.13,1.13,0,0,1,.44-1.56l.1,0a1.18,1.18,0,0,1,1.59.43,1.12,1.12,0,0,1-.43,1.56l-.11.06A1.18,1.18,0,0,1,167.62,124.46Zm-12-.12a1.16,1.16,0,0,1-.59-.16l-.11-.06a1.15,1.15,0,0,1-.4-1.58,1.19,1.19,0,0,1,1.61-.39l.09.06a1.12,1.12,0,0,1,.41,1.56A1.16,1.16,0,0,1,155.64,124.34Zm15.22-2.48a1.15,1.15,0,0,1-.76-.28A1.12,1.12,0,0,1,170,120l.06-.08a1.18,1.18,0,0,1,1.65-.14,1.14,1.14,0,0,1,.15,1.62l-.09.09A1.16,1.16,0,0,1,170.86,121.86Zm-18.41-.18a1.2,1.2,0,0,1-.9-.42l-.08-.1a1.13,1.13,0,0,1,.17-1.61,1.19,1.19,0,0,1,1.65.17l.07.08a1.13,1.13,0,0,1-.16,1.61A1.17,1.17,0,0,1,152.45,121.68ZM173,118.33a1.23,1.23,0,0,1-.42-.07,1.15,1.15,0,0,1-.68-1.48l0-.1a1.17,1.17,0,0,1,1.5-.68,1.14,1.14,0,0,1,.7,1.47l-.05.12A1.16,1.16,0,0,1,173,118.33Zm-22.62-.23a1.17,1.17,0,0,1-1.11-.76s0-.08,0-.12a1.15,1.15,0,0,1,.73-1.46,1.19,1.19,0,0,1,1.49.72l0,.09a1.14,1.14,0,0,1-.71,1.47A1.32,1.32,0,0,1,150.39,118.1Zm23.38-3.8h0a1.17,1.17,0,0,1-1.16-1.16V113a1.18,1.18,0,0,1,2.35,0v.13A1.17,1.17,0,0,1,173.77,114.3Zm-24.07-.25h0a1.15,1.15,0,0,1-1.16-1.16v-.12a1.17,1.17,0,0,1,1.17-1.12h0a1.16,1.16,0,0,1,1.15,1.17v.1A1.15,1.15,0,0,1,149.7,114.05Zm23.47-3.56a1.17,1.17,0,0,1-1.11-.79l0-.1a1.14,1.14,0,0,1,.74-1.45,1.16,1.16,0,0,1,1.48.71.56.56,0,0,1,0,.12,1.17,1.17,0,0,1-1.11,1.51Zm-22.7-.47a1.22,1.22,0,0,1-.41-.07,1.15,1.15,0,0,1-.68-1.48s0-.08,0-.12a1.19,1.19,0,0,1,1.52-.65,1.14,1.14,0,0,1,.67,1.48l0,.1A1.17,1.17,0,0,1,150.47,110Zm20.71-3.15a1.16,1.16,0,0,1-.92-.43l-.07-.08a1.14,1.14,0,0,1,.18-1.61,1.19,1.19,0,0,1,1.65.17l.08.1a1.14,1.14,0,0,1-.19,1.61A1.25,1.25,0,0,1,171.18,106.87Zm-18.56-.38a1.15,1.15,0,0,1-.76-.28,1.12,1.12,0,0,1-.13-1.61l.09-.1a1.19,1.19,0,0,1,1.65-.1,1.13,1.13,0,0,1,.11,1.62l-.07.07A1.16,1.16,0,0,1,152.62,106.49ZM168,104.15a1.22,1.22,0,0,1-.61-.17l-.09-.06a1.13,1.13,0,0,1-.4-1.57,1.19,1.19,0,0,1,1.61-.39l.11.06a1.14,1.14,0,0,1,.38,1.58A1.18,1.18,0,0,1,168,104.15Zm-12.17-.25a1.18,1.18,0,0,1-1-.59,1.13,1.13,0,0,1,.45-1.56l.11-.06a1.18,1.18,0,0,1,1.59.45,1.14,1.14,0,0,1-.46,1.56l-.1,0A1.18,1.18,0,0,1,155.87,103.9Zm8.27-1.26-.23,0-.11,0a1.15,1.15,0,0,1-.92-1.35,1.17,1.17,0,0,1,1.37-.91l.12,0a1.14,1.14,0,0,1,.92,1.35A1.17,1.17,0,0,1,164.14,102.64Zm-4.31-.09a1.15,1.15,0,0,1-.18-2.28l.13,0a1.18,1.18,0,0,1,1.33,1,1.15,1.15,0,0,1-1,1.3l-.1,0Z"/><path class="cls-7" d="M181.66,195a1.77,1.77,0,0,1-1.76-1.47,1.75,1.75,0,0,1,1.48-2l.16,0A1.78,1.78,0,0,1,183.6,193a1.74,1.74,0,0,1-1.46,2l-.2,0A1.32,1.32,0,0,1,181.66,195Zm-6.22-.06-.32,0-.19,0a1.75,1.75,0,0,1-1.42-2.05,1.78,1.78,0,0,1,2.09-1.38l.16,0a1.76,1.76,0,0,1,1.44,2A1.78,1.78,0,0,1,175.44,195Zm12.27-2a1.77,1.77,0,0,1-1.56-.9,1.72,1.72,0,0,1,.68-2.38l.14-.07a1.8,1.8,0,0,1,2.44.64,1.73,1.73,0,0,1-.66,2.39l-.17.09A1.75,1.75,0,0,1,187.71,193Zm-18.27-.19a1.71,1.71,0,0,1-.9-.24,1,1,0,0,1-.17-.1,1.72,1.72,0,0,1-.61-2.4,1.81,1.81,0,0,1,2.45-.59l.14.08a1.72,1.72,0,0,1,.63,2.39A1.8,1.8,0,0,1,169.44,192.78ZM192.66,189a1.83,1.83,0,0,1-1.17-.42,1.73,1.73,0,0,1-.19-2.47l.11-.12a1.81,1.81,0,0,1,2.51-.21,1.73,1.73,0,0,1,.22,2.47l-.13.15A1.8,1.8,0,0,1,192.66,189Zm-28.08-.28a1.79,1.79,0,0,1-1.38-.64l-.13-.14a1.72,1.72,0,0,1,.27-2.46,1.81,1.81,0,0,1,2.51.26l.1.12a1.72,1.72,0,0,1-.24,2.46A1.78,1.78,0,0,1,164.58,188.72Zm31.34-5.1a2,2,0,0,1-.63-.11,1.74,1.74,0,0,1-1-2.26l.06-.15a1.81,1.81,0,0,1,2.29-1,1.74,1.74,0,0,1,1.06,2.25l-.06.18A1.79,1.79,0,0,1,195.92,183.62Zm-34.5-.35a1.79,1.79,0,0,1-1.68-1.16l-.07-.19a1.74,1.74,0,0,1,1.12-2.22,1.79,1.79,0,0,1,2.26,1.09l.06.15a1.74,1.74,0,0,1-1.09,2.23A1.8,1.8,0,0,1,161.42,183.27Zm35.68-5.81h0a1.76,1.76,0,0,1-1.77-1.76v-.16a1.79,1.79,0,0,1,3.57,0v.19A1.76,1.76,0,0,1,197.1,177.46Zm-36.72-.36h0a1.78,1.78,0,0,1-1.77-1.77v-.19a1.77,1.77,0,0,1,1.78-1.72h0a1.77,1.77,0,0,1,1.75,1.79v.16A1.77,1.77,0,0,1,160.38,177.1Zm35.79-5.45a1.76,1.76,0,0,1-1.69-1.2.88.88,0,0,1,0-.15,1.74,1.74,0,0,1,1.11-2.22,1.8,1.8,0,0,1,2.27,1.09l.06.19a1.74,1.74,0,0,1-1.14,2.21A1.77,1.77,0,0,1,196.17,171.65Zm-34.61-.71a1.94,1.94,0,0,1-.63-.11,1.74,1.74,0,0,1-1-2.26,1.34,1.34,0,0,1,.07-.18,1.79,1.79,0,0,1,2.31-1,1.73,1.73,0,0,1,1,2.26l-.06.15A1.78,1.78,0,0,1,161.56,170.94Zm31.58-4.8a1.77,1.77,0,0,1-1.4-.66l-.1-.12a1.73,1.73,0,0,1,.26-2.46,1.82,1.82,0,0,1,2.52.26l.12.15a1.72,1.72,0,0,1-.29,2.45A1.78,1.78,0,0,1,193.14,166.14Zm-28.31-.58a1.85,1.85,0,0,1-1.17-.42,1.73,1.73,0,0,1-.18-2.47l.13-.15a1.81,1.81,0,0,1,2.52-.15,1.73,1.73,0,0,1,.16,2.47l-.11.11A1.8,1.8,0,0,1,164.83,165.56ZM188.35,162a1.75,1.75,0,0,1-.93-.26l-.14-.08a1.72,1.72,0,0,1-.61-2.4,1.8,1.8,0,0,1,2.45-.59,1,1,0,0,1,.17.1,1.73,1.73,0,0,1,.59,2.4A1.8,1.8,0,0,1,188.35,162Zm-18.56-.38a1.78,1.78,0,0,1-1.56-.89,1.72,1.72,0,0,1,.69-2.38l.16-.1a1.82,1.82,0,0,1,2.43.7,1.73,1.73,0,0,1-.71,2.37l-.14.08A1.84,1.84,0,0,1,169.79,161.6Zm12.62-1.92-.36,0-.16,0a1.76,1.76,0,0,1-1.42-2.05,1.8,1.8,0,0,1,2.1-1.39l.19,0a1.74,1.74,0,0,1,1.39,2.06A1.77,1.77,0,0,1,182.41,159.68Zm-6.58-.13a1.77,1.77,0,0,1-1.76-1.48,1.75,1.75,0,0,1,1.48-2l.2,0a1.78,1.78,0,0,1,2,1.48,1.75,1.75,0,0,1-1.5,2l-.16,0Z"/><path class="cls-7" d="M180.85,189.6a1.28,1.28,0,0,1-1.27-1.06,1.26,1.26,0,0,1,1.07-1.45l.11,0a1.3,1.3,0,0,1,1.49,1,1.27,1.27,0,0,1-1.06,1.46l-.14,0Zm-4.49,0a.9.9,0,0,1-.23,0l-.14,0a1.26,1.26,0,0,1-1-1.48,1.29,1.29,0,0,1,1.51-1l.11,0a1.26,1.26,0,0,1,1,1.47A1.29,1.29,0,0,1,176.36,189.55Zm8.85-1.44a1.28,1.28,0,0,1-1.12-.64,1.25,1.25,0,0,1,.49-1.72l.1-.06a1.31,1.31,0,0,1,1.76.47,1.25,1.25,0,0,1-.48,1.72l-.12.07A1.31,1.31,0,0,1,185.21,188.11ZM172,188a1.37,1.37,0,0,1-.65-.17l-.13-.07a1.26,1.26,0,0,1-.44-1.74,1.31,1.31,0,0,1,1.77-.43l.1.06a1.25,1.25,0,0,1,.46,1.73A1.29,1.29,0,0,1,172,188Zm16.75-2.73a1.27,1.27,0,0,1-.84-.31,1.24,1.24,0,0,1-.13-1.78l.07-.08a1.31,1.31,0,0,1,1.82-.15,1.25,1.25,0,0,1,.15,1.78l-.09.11A1.34,1.34,0,0,1,188.78,185.25Zm-20.26-.2a1.33,1.33,0,0,1-1-.46l-.09-.11a1.24,1.24,0,0,1,.19-1.77,1.32,1.32,0,0,1,1.82.18l.07.09a1.25,1.25,0,0,1-.17,1.78A1.32,1.32,0,0,1,168.52,185.05Zm22.62-3.68a1.42,1.42,0,0,1-.45-.08,1.26,1.26,0,0,1-.76-1.63l0-.11a1.29,1.29,0,0,1,1.65-.75,1.26,1.26,0,0,1,.77,1.62.69.69,0,0,0-.05.13A1.3,1.3,0,0,1,191.14,181.37Zm-24.9-.25a1.29,1.29,0,0,1-1.21-.84.78.78,0,0,1-.05-.14,1.25,1.25,0,0,1,.8-1.6,1.3,1.3,0,0,1,1.64.79.42.42,0,0,0,0,.1,1.26,1.26,0,0,1-.79,1.61A1.31,1.31,0,0,1,166.24,181.12Zm25.75-4.2h0a1.26,1.26,0,0,1-1.28-1.27v-.11a1.29,1.29,0,0,1,2.58,0v.13A1.28,1.28,0,0,1,192,176.92Zm-26.5-.26h0a1.27,1.27,0,0,1-1.27-1.28v-.14a1.28,1.28,0,0,1,1.29-1.23h0a1.27,1.27,0,0,1,1.26,1.29v.11A1.29,1.29,0,0,1,165.49,176.66Zm25.83-3.93a1.28,1.28,0,0,1-1.22-.87l0-.1a1.26,1.26,0,0,1,.81-1.61,1.3,1.3,0,0,1,1.63.79l.05.14a1.26,1.26,0,0,1-.83,1.59A1.34,1.34,0,0,1,191.32,172.73Zm-25-.51a1.29,1.29,0,0,1-1.21-1.71.69.69,0,0,0,.05-.13,1.3,1.3,0,0,1,1.67-.72,1.25,1.25,0,0,1,.74,1.63l0,.11A1.3,1.3,0,0,1,166.34,172.22Zm22.79-3.47a1.29,1.29,0,0,1-1-.47l-.07-.09a1.25,1.25,0,0,1,.19-1.78,1.3,1.3,0,0,1,1.81.19l.09.11a1.24,1.24,0,0,1-.21,1.77A1.33,1.33,0,0,1,189.13,168.75Zm-20.43-.42a1.31,1.31,0,0,1-.84-.3,1.24,1.24,0,0,1-.13-1.78l.09-.11a1.31,1.31,0,0,1,1.82-.11,1.25,1.25,0,0,1,.11,1.78l-.07.09A1.34,1.34,0,0,1,168.7,168.33Zm17-2.58a1.3,1.3,0,0,1-.68-.19l-.1-.05a1.26,1.26,0,0,1-.44-1.74,1.31,1.31,0,0,1,1.77-.43l.12.08a1.24,1.24,0,0,1,.43,1.73A1.3,1.3,0,0,1,185.68,165.75Zm-13.4-.27a1.32,1.32,0,0,1-1.13-.65,1.26,1.26,0,0,1,.5-1.72l.12-.06a1.29,1.29,0,0,1,1.75.5,1.24,1.24,0,0,1-.51,1.71l-.1.06A1.44,1.44,0,0,1,172.28,165.48Zm9.1-1.39-.25,0-.12,0a1.26,1.26,0,0,1-1-1.47,1.28,1.28,0,0,1,1.51-1l.14,0a1.27,1.27,0,0,1,1,1.49A1.29,1.29,0,0,1,181.38,164.09Zm-4.74-.1a1.28,1.28,0,0,1-1.27-1.06,1.25,1.25,0,0,1,1.07-1.44l.14,0a1.27,1.27,0,0,1,1.46,1.06A1.26,1.26,0,0,1,177,164l-.12,0Z"/><path class="cls-7" d="M180.85,189.73a1.53,1.53,0,0,1-.3,0l.06-.26a.93.93,0,0,0,.24,0Zm-4.49,0-.26,0v-.26h0l.21,0Zm8.85-1.44a1.53,1.53,0,0,1-.3,0L185,188a1,1,0,0,0,.24,0ZM172,188.11l-.3,0,.06-.26a1,1,0,0,0,.24,0Zm16.75-2.72a1.54,1.54,0,0,1-.3,0l.06-.26a1,1,0,0,0,.24,0Zm-20.26-.21-.3,0,.06-.26a.93.93,0,0,0,.24,0Zm22.62-3.68a1.53,1.53,0,0,1-.3,0l.06-.26a1,1,0,0,0,.24,0Zm-24.9-.25a1.53,1.53,0,0,1-.3,0L166,181l.24,0ZM192,177.06h0a1.36,1.36,0,0,1-.29,0l.06-.26.23,0Zm-26.5-.27h0a1.33,1.33,0,0,1-.28,0l.06-.26a.86.86,0,0,0,.23,0Zm25.83-3.93-.3,0,.06-.26a1,1,0,0,0,.24,0Zm-25-.51a1.53,1.53,0,0,1-.3,0l.06-.26.24,0Zm22.79-3.46-.3,0,.06-.26.24,0Zm-20.43-.42a1.53,1.53,0,0,1-.3,0l.06-.27a1,1,0,0,0,.24,0Zm17-2.58a1.54,1.54,0,0,1-.3,0l.06-.26a1,1,0,0,0,.24,0Zm-13.4-.28-.3,0,.06-.26.24,0Zm9.1-1.39a1.32,1.32,0,0,1-.28,0l0-.27.24,0Zm-4.74-.09a1.53,1.53,0,0,1-.3,0l.06-.26.24,0Z"/><path class="cls-7" d="M179.17,178.42a.26.26,0,0,1,0-.51h0a.27.27,0,0,1,.31.22.24.24,0,0,1-.22.29h-.07Zm-.92,0h-.08a.25.25,0,0,1-.21-.3.28.28,0,0,1,.31-.21h0a.25.25,0,0,1,.21.3A.26.26,0,0,1,178.25,178.41Zm1.82-.29a.27.27,0,0,1-.23-.14.25.25,0,0,1,.1-.35h0a.27.27,0,0,1,.36.09.26.26,0,0,1-.09.36h0A.2.2,0,0,1,180.07,178.12Zm-2.71,0a.23.23,0,0,1-.14,0h0a.25.25,0,0,1-.09-.36.27.27,0,0,1,.36-.09l0,0a.25.25,0,0,1,.1.35A.28.28,0,0,1,177.36,178.09Zm3.45-.56a.24.24,0,0,1-.18-.07.25.25,0,0,1,0-.36v0a.27.27,0,0,1,.37,0,.26.26,0,0,1,0,.37l0,0A.28.28,0,0,1,180.81,177.53Zm-4.18,0a.28.28,0,0,1-.2-.1l0,0a.26.26,0,0,1,.41-.33l0,0a.26.26,0,0,1,0,.37A.27.27,0,0,1,176.63,177.49Zm4.66-.76-.09,0a.26.26,0,0,1-.16-.33v0a.27.27,0,0,1,.34-.15.26.26,0,0,1,.16.33v0A.27.27,0,0,1,181.29,176.73Zm-5.12,0a.26.26,0,0,1-.25-.18v0a.25.25,0,0,1,.16-.33.26.26,0,0,1,.34.16v0a.27.27,0,0,1-.17.33Zm5.3-.87h0a.26.26,0,0,1-.26-.26v0a.27.27,0,0,1,.53,0v0A.26.26,0,0,1,181.47,175.81Zm-5.46-.05h0a.25.25,0,0,1-.26-.26v0a.26.26,0,0,1,.26-.26h0a.27.27,0,0,1,.26.27v0A.27.27,0,0,1,176,175.76Zm5.32-.81a.26.26,0,0,1-.25-.18v0a.26.26,0,0,1,.5-.17v0a.26.26,0,0,1-.17.33Zm-5.14-.11h-.1a.26.26,0,0,1-.15-.34v0a.26.26,0,0,1,.34-.15.24.24,0,0,1,.15.33v0A.26.26,0,0,1,176.19,174.84Zm4.69-.71a.25.25,0,0,1-.21-.1l0,0a.26.26,0,0,1,0-.36.28.28,0,0,1,.38,0l0,0a.27.27,0,0,1-.21.42Zm-4.21-.09a.27.27,0,0,1-.17-.06.27.27,0,0,1,0-.37l0,0a.29.29,0,0,1,.38,0,.26.26,0,0,1,0,.37h0A.25.25,0,0,1,176.67,174Zm3.5-.53a.23.23,0,0,1-.14,0h0a.24.24,0,0,1-.09-.35.25.25,0,0,1,.36-.09h0a.26.26,0,0,1,.08.36A.25.25,0,0,1,180.17,173.51Zm-2.76,0a.27.27,0,0,1-.23-.14.25.25,0,0,1,.1-.35h0a.26.26,0,0,1,.36.1.25.25,0,0,1-.1.35h0A.22.22,0,0,1,177.41,173.46Zm1.87-.29h-.07a.25.25,0,0,1-.21-.3.26.26,0,0,1,.31-.21h0a.26.26,0,0,1-.06.51Zm-1,0a.27.27,0,0,1-.27-.22.27.27,0,0,1,.22-.3h0a.28.28,0,0,1,.31.22.26.26,0,0,1-.23.29h-.06Z"/><path class="cls-7" d="M179.56,181a.49.49,0,0,1-.08-1h.05a.51.51,0,0,1,.58.41.5.5,0,0,1-.41.57h-.14Zm-1.75,0h-.15a.5.5,0,0,1-.4-.58.51.51,0,0,1,.59-.39h.05a.49.49,0,0,1-.09,1Zm3.46-.56a.5.5,0,0,1-.44-.25.48.48,0,0,1,.19-.67l0,0a.51.51,0,0,1,.69.19.48.48,0,0,1-.18.67l0,0A.57.57,0,0,1,181.27,180.45Zm-5.16,0a.47.47,0,0,1-.25-.07l-.05,0a.47.47,0,0,1-.17-.67.5.5,0,0,1,.69-.17l0,0a.49.49,0,0,1,.18.68A.52.52,0,0,1,176.11,180.4Zm6.56-1.07a.49.49,0,0,1-.38-.82l0,0a.51.51,0,0,1,.71-.06.49.49,0,0,1,.06.7l0,0A.52.52,0,0,1,182.67,179.33Zm-7.93-.08a.5.5,0,0,1-.39-.18l0,0a.48.48,0,0,1,.08-.69.51.51,0,0,1,.71.07l0,0a.5.5,0,0,1-.07.7A.54.54,0,0,1,174.74,179.25Zm8.85-1.44a.57.57,0,0,1-.18,0,.49.49,0,0,1-.29-.64l0,0a.49.49,0,0,1,.64-.29.47.47,0,0,1,.3.63l0,.05A.49.49,0,0,1,183.59,177.81Zm-9.74-.1a.5.5,0,0,1-.48-.33l0,0a.49.49,0,0,1,.32-.63.51.51,0,0,1,.64.31v0a.48.48,0,0,1-.3.63Zm10.07-1.64h0a.5.5,0,0,1-.5-.5v0a.49.49,0,0,1,.5-.49.5.5,0,0,1,.51.49v.05A.5.5,0,0,1,183.92,176.07Zm-10.37-.1h0a.5.5,0,0,1-.5-.5v-.05a.51.51,0,0,1,.5-.49h0a.51.51,0,0,1,.5.51v0A.51.51,0,0,1,173.55,176Zm10.11-1.54a.5.5,0,0,1-.48-.34v0a.5.5,0,0,1,.31-.63.51.51,0,0,1,.64.31l0,.05a.5.5,0,0,1-.32.63Zm-9.77-.2a.57.57,0,0,1-.18,0,.5.5,0,0,1-.3-.64l0-.05a.52.52,0,0,1,.66-.28.48.48,0,0,1,.28.64v0A.51.51,0,0,1,173.89,174.23Zm8.92-1.35a.53.53,0,0,1-.4-.19l0,0a.48.48,0,0,1,.08-.69.52.52,0,0,1,.71.07l0,0a.49.49,0,0,1-.08.7A.51.51,0,0,1,182.81,172.88Zm-8-.17a.52.52,0,0,1-.33-.12.49.49,0,0,1,0-.7l0,0a.51.51,0,0,1,.71,0,.48.48,0,0,1,0,.7l0,0A.52.52,0,0,1,174.81,172.71Zm6.64-1a.48.48,0,0,1-.26-.07l0,0a.48.48,0,0,1-.17-.67.5.5,0,0,1,.69-.17l.05,0a.48.48,0,0,1,.16.68A.5.5,0,0,1,181.45,171.7Zm-5.24-.11a.5.5,0,0,1-.44-.25.48.48,0,0,1,.19-.67l0,0a.52.52,0,0,1,.69.2.49.49,0,0,1-.2.67l0,0A.57.57,0,0,1,176.21,171.59Zm3.56-.54h-.14a.49.49,0,0,1-.4-.58.51.51,0,0,1,.59-.39h.05a.49.49,0,0,1-.1,1Zm-1.85,0a.49.49,0,0,1-.08-1h0a.51.51,0,0,1,.58.42.5.5,0,0,1-.43.56h-.12Z"/><path class="cls-7" d="M180.12,184.76a.83.83,0,0,1-.13-1.65h.08a.84.84,0,0,1,1,.68.82.82,0,0,1-.69.95l-.09,0Zm-2.94,0H177l-.1,0a.84.84,0,0,1-.67-1,.86.86,0,0,1,1-.66l.08,0a.83.83,0,0,1,.68,1A.84.84,0,0,1,177.18,184.73Zm5.81-.95a.84.84,0,0,1-.74-.42.82.82,0,0,1,.32-1.13l.07,0a.85.85,0,0,1,1.15.3.82.82,0,0,1-.31,1.13l-.08.05A.86.86,0,0,1,183,183.78Zm-8.65-.08a.82.82,0,0,1-.43-.12l-.08,0a.82.82,0,0,1-.29-1.14.85.85,0,0,1,1.16-.28l.07,0a.82.82,0,0,1,.3,1.13A.86.86,0,0,1,174.34,183.7Zm11-1.79a.87.87,0,0,1-.55-.2.81.81,0,0,1-.09-1.17l.05-.06a.86.86,0,0,1,1.19-.1.82.82,0,0,1,.1,1.17l-.06.07A.85.85,0,0,1,185.33,181.91Zm-13.3-.14a.85.85,0,0,1-.65-.3l-.06-.07a.81.81,0,0,1,.13-1.16.85.85,0,0,1,1.19.12l0,.06a.81.81,0,0,1-.11,1.16A.85.85,0,0,1,172,181.77Zm14.85-2.41a.8.8,0,0,1-.3-.06.82.82,0,0,1-.5-1.06l0-.07a.87.87,0,0,1,1.09-.5.83.83,0,0,1,.5,1.07l0,.08A.85.85,0,0,1,186.88,179.36Zm-16.34-.17a.84.84,0,0,1-.8-.55l0-.09a.83.83,0,0,1,.53-1.05.86.86,0,0,1,1.07.52l0,.07a.84.84,0,0,1-.52,1.06A.9.9,0,0,1,170.54,179.19Zm16.89-2.75h0a.84.84,0,0,1-.84-.83v-.08a.83.83,0,0,1,.84-.83.84.84,0,0,1,.85.83v.09A.84.84,0,0,1,187.43,176.44Zm-17.38-.17h0a.84.84,0,0,1-.84-.84v-.09a.84.84,0,0,1,.85-.81h0a.84.84,0,0,1,.83.84v.08A.83.83,0,0,1,170.05,176.27ZM187,173.69a.85.85,0,0,1-.8-.57l0-.07a.82.82,0,0,1,.53-1.05.85.85,0,0,1,1.07.52l0,.09a.83.83,0,0,1-.54,1A.84.84,0,0,1,187,173.69Zm-16.39-.34a.79.79,0,0,1-.3,0,.83.83,0,0,1-.49-1.07l0-.08a.83.83,0,0,1,1.09-.47.81.81,0,0,1,.48,1.07l0,.07A.83.83,0,0,1,170.6,173.35Zm15-2.27a.85.85,0,0,1-.67-.31l0-.06a.81.81,0,0,1,.12-1.16.85.85,0,0,1,1.19.12l.06.07a.81.81,0,0,1-.14,1.16A.84.84,0,0,1,185.56,171.08Zm-13.41-.27a.89.89,0,0,1-.55-.2.83.83,0,0,1-.09-1.17l.06-.07a.86.86,0,0,1,1.2-.07.8.8,0,0,1,.07,1.16l-.05.06A.84.84,0,0,1,172.15,170.81Zm11.14-1.7a.88.88,0,0,1-.44-.12l-.07,0a.82.82,0,0,1-.29-1.14.88.88,0,0,1,1.17-.28l.08.05a.82.82,0,0,1,.27,1.14A.85.85,0,0,1,183.29,169.11Zm-8.79-.18a.85.85,0,0,1-.74-.42.82.82,0,0,1,.33-1.13l.08,0a.85.85,0,0,1,1.15.33.82.82,0,0,1-.34,1.12l-.07,0A.86.86,0,0,1,174.5,168.93Zm6-.91h-.17l-.07,0a.82.82,0,0,1-.67-1,.84.84,0,0,1,1-.65h.09a.83.83,0,0,1,.66,1A.84.84,0,0,1,180.47,168Zm-3.11-.06a.83.83,0,0,1-.13-1.65h.09a.85.85,0,0,1,1,.7.83.83,0,0,1-.71.94h-.21Z"/><path class="cls-7" d="M114.4,209a1.35,1.35,0,0,1-.22-2.68l.13,0a1.38,1.38,0,0,1,1.59,1.11,1.35,1.35,0,0,1-1.13,1.55l-.15,0Zm-4.8,0-.25,0-.15,0a1.34,1.34,0,0,1-1.09-1.58,1.38,1.38,0,0,1,1.61-1.07l.12,0a1.36,1.36,0,0,1,1.12,1.57A1.39,1.39,0,0,1,109.6,209Zm9.47-1.54a1.38,1.38,0,0,1-1.21-.69,1.34,1.34,0,0,1,.53-1.84l.11-.06a1.39,1.39,0,0,1,1.88.5,1.33,1.33,0,0,1-.51,1.84l-.13.07A1.38,1.38,0,0,1,119.07,207.44Zm-14.1-.15a1.46,1.46,0,0,1-.7-.18l-.13-.08a1.33,1.33,0,0,1-.47-1.85,1.39,1.39,0,0,1,1.89-.46l.11.06a1.35,1.35,0,0,1,.49,1.85A1.38,1.38,0,0,1,105,207.29Zm17.92-2.91a1.42,1.42,0,0,1-.91-.33,1.34,1.34,0,0,1-.14-1.91l.08-.09a1.4,1.4,0,0,1,1.94-.16,1.32,1.32,0,0,1,.17,1.9l-.1.12A1.39,1.39,0,0,1,122.89,204.38Zm-21.68-.22a1.38,1.38,0,0,1-1.06-.49l-.1-.12a1.33,1.33,0,0,1,.21-1.9,1.42,1.42,0,0,1,1.94.2l.07.1a1.32,1.32,0,0,1-.18,1.9A1.39,1.39,0,0,1,101.21,204.16Zm24.2-3.94a1.41,1.41,0,0,1-.49-.09,1.33,1.33,0,0,1-.8-1.73l0-.12a1.39,1.39,0,0,1,1.77-.8,1.34,1.34,0,0,1,.82,1.73l0,.14A1.37,1.37,0,0,1,125.41,200.22ZM98.78,200a1.37,1.37,0,0,1-1.3-.9.58.58,0,0,1,0-.14,1.34,1.34,0,0,1,.86-1.71A1.38,1.38,0,0,1,100,198a.49.49,0,0,0,0,.11,1.34,1.34,0,0,1-.84,1.72A1.24,1.24,0,0,1,98.78,200Zm27.53-4.48h0a1.38,1.38,0,0,1-1.37-1.36V194a1.38,1.38,0,0,1,2.76,0v.15A1.36,1.36,0,0,1,126.31,195.47ZM98,195.19h0a1.37,1.37,0,0,1-1.37-1.37v-.15A1.36,1.36,0,0,1,98,192.35h0a1.36,1.36,0,0,1,1.35,1.38v.12A1.37,1.37,0,0,1,98,195.19ZM125.6,191a1.38,1.38,0,0,1-1.31-.93.76.76,0,0,0,0-.11,1.35,1.35,0,0,1,.86-1.71,1.39,1.39,0,0,1,1.75.84.88.88,0,0,1,0,.15,1.34,1.34,0,0,1-.88,1.7A1.59,1.59,0,0,1,125.6,191Zm-26.72-.55a1.44,1.44,0,0,1-.49-.08,1.34,1.34,0,0,1-.8-1.74l.06-.14a1.38,1.38,0,0,1,1.78-.77,1.35,1.35,0,0,1,.79,1.75l0,.11A1.37,1.37,0,0,1,98.88,190.43Zm24.38-3.7a1.36,1.36,0,0,1-1.08-.51l-.08-.1a1.32,1.32,0,0,1,.2-1.89,1.4,1.4,0,0,1,1.94.2l.1.11a1.36,1.36,0,0,1-1.08,2.19Zm-21.85-.45a1.39,1.39,0,0,1-.9-.33,1.33,1.33,0,0,1-.15-1.9l.11-.11a1.39,1.39,0,0,1,1.94-.12,1.32,1.32,0,0,1,.12,1.9l-.08.09A1.37,1.37,0,0,1,101.41,186.28Zm18.15-2.76a1.38,1.38,0,0,1-.72-.2l-.1-.06a1.33,1.33,0,0,1-.47-1.86,1.4,1.4,0,0,1,1.89-.46l.13.08a1.33,1.33,0,0,1,.45,1.86A1.39,1.39,0,0,1,119.56,183.52Zm-14.33-.29a1.37,1.37,0,0,1-1.2-.7,1.33,1.33,0,0,1,.53-1.83l.13-.07a1.39,1.39,0,0,1,1.87.53A1.32,1.32,0,0,1,106,183l-.11.06A1.41,1.41,0,0,1,105.23,183.23Zm9.74-1.48a1.24,1.24,0,0,1-.27,0l-.12,0a1.35,1.35,0,0,1-1.1-1.58A1.39,1.39,0,0,1,115.1,179l.15,0a1.34,1.34,0,0,1,1.07,1.59A1.37,1.37,0,0,1,115,181.75Zm-5.07-.11a1.35,1.35,0,0,1-.22-2.68l.15,0a1.38,1.38,0,0,1,1.57,1.13,1.36,1.36,0,0,1-1.16,1.54h-.13A.75.75,0,0,1,109.9,181.64Z"/><path class="cls-7" d="M113.77,204.84a1,1,0,0,1-1-.82,1,1,0,0,1,.83-1.12h.08a1,1,0,1,1,.34,1.92h-.11Zm-3.46,0h-.18l-.11,0a1,1,0,0,1-.79-1.14,1,1,0,0,1,1.17-.78l.08,0a1,1,0,0,1,.81,1.13A1,1,0,0,1,110.31,204.8Zm6.83-1.11a1,1,0,0,1-.87-.5,1,1,0,0,1,.38-1.32l.08-.05a1,1,0,0,1,1.36.36,1,1,0,0,1-.37,1.33l-.1.06A1,1,0,0,1,117.14,203.69Zm-10.18-.1a1,1,0,0,1-.5-.14l-.09,0a1,1,0,0,1-.34-1.34,1,1,0,0,1,1.36-.33l.08,0a1,1,0,0,1,.35,1.34A1,1,0,0,1,107,203.59Zm12.94-2.11a1,1,0,0,1-.65-.24,1,1,0,0,1-.11-1.37l.06-.06a1,1,0,0,1,1.4-.12,1,1,0,0,1,.12,1.37l-.07.08A1,1,0,0,1,119.9,201.48Zm-15.65-.16a1,1,0,0,1-.76-.35l-.07-.08a1,1,0,0,1,.14-1.37,1,1,0,0,1,1.4.14l.06.07a1,1,0,0,1-.13,1.37A1,1,0,0,1,104.25,201.32Zm17.47-2.84a1,1,0,0,1-.35-.06,1,1,0,0,1-.58-1.26l0-.08a1,1,0,0,1,1.27-.58,1,1,0,0,1,.6,1.25l0,.1A1,1,0,0,1,121.72,198.48Zm-19.22-.19a1,1,0,0,1-.94-.65l0-.1a1,1,0,0,1,.62-1.24,1,1,0,0,1,1.27.61l0,.08a1,1,0,0,1-.93,1.3Zm19.87-3.24h0a1,1,0,0,1-1-1V194a1,1,0,0,1,2,0v.11A1,1,0,0,1,122.37,195.05Zm-20.45-.2h0a1,1,0,0,1-1-1v-.1a1,1,0,0,1,1-1h0a1,1,0,0,1,1,1v.09A1,1,0,0,1,101.92,194.85Zm19.94-3a1,1,0,0,1-1-.68l0-.08a1,1,0,0,1,.62-1.23,1,1,0,0,1,1.27.61l0,.1a1,1,0,0,1-.63,1.23A1.18,1.18,0,0,1,121.86,191.82Zm-19.29-.4a1.12,1.12,0,0,1-.35-.06,1,1,0,0,1-.58-1.26l0-.1a1,1,0,0,1,1.29-.55,1,1,0,0,1,.57,1.26l0,.08A1,1,0,0,1,102.57,191.42Zm17.59-2.67a1,1,0,0,1-.78-.37l0-.07a1,1,0,0,1,.15-1.37,1,1,0,0,1,1.4.14l.06.09a1,1,0,0,1-.16,1.37A1,1,0,0,1,120.16,188.75Zm-15.76-.33a1,1,0,0,1-.65-.23,1,1,0,0,1-.11-1.38l.07-.08a1,1,0,0,1,1.41-.09,1,1,0,0,1,.09,1.38l-.06.06A1,1,0,0,1,104.4,188.42Zm13.1-2a1.07,1.07,0,0,1-.52-.14l-.08,0a1,1,0,0,1-.34-1.34,1,1,0,0,1,1.37-.33l.09.06a1,1,0,0,1,.33,1.34A1,1,0,0,1,117.5,186.43Zm-10.34-.21a1,1,0,0,1-.87-.5,1,1,0,0,1,.38-1.33l.09,0a1,1,0,0,1,1.36.39,1,1,0,0,1-.4,1.32l-.08,0A.94.94,0,0,1,107.16,186.22Zm7-1.07-.2,0-.09,0a1,1,0,0,1-.79-1.14,1,1,0,0,1,1.17-.77l.1,0a1,1,0,0,1,.78,1.15A1,1,0,0,1,114.19,185.15Zm-3.67-.08a1,1,0,0,1-1-.82,1,1,0,0,1,.83-1.11l.11,0a1,1,0,1,1,.29,1.93h-.25Z"/><path class="cls-7" d="M113.77,204.94l-.23,0,0-.21a.65.65,0,0,0,.19,0Zm-3.46,0h-.2v-.21h0l.16,0Zm6.83-1.11-.23,0,0-.2.19,0Zm-10.18-.1-.23,0,0-.2H107Zm12.94-2.11a.86.86,0,0,1-.23,0l0-.2.19,0Zm-15.65-.15-.23,0,0-.2.18,0Zm17.47-2.84a.85.85,0,0,1-.23,0l0-.2.19,0Zm-19.22-.2-.23,0,0-.2.19,0Zm19.87-3.23h0a.83.83,0,0,1-.22,0l0-.2.18,0ZM101.92,195h0l-.21,0,0-.2.18,0Zm19.94-3-.23,0,0-.21a.58.58,0,0,0,.19,0Zm-19.29-.4-.23,0,0-.2.18,0Zm17.59-2.67-.23,0,0-.21a.55.55,0,0,0,.18,0Zm-15.76-.33a1,1,0,0,1-.24,0l0-.2.19,0Zm13.1-2-.23,0,0-.2.19,0Zm-10.34-.21-.23,0,0-.21a.58.58,0,0,0,.19,0Zm7-1.07-.23,0,0-.2.19,0Zm-3.67-.07a.91.91,0,0,1-.23,0l0-.2.18,0Z"/><path class="cls-7" d="M112.48,196.21a.2.2,0,0,1,0-.4h0a.2.2,0,0,1,.24.16.2.2,0,0,1-.17.23h0Zm-.71,0h-.06a.21.21,0,0,1-.17-.24.21.21,0,0,1,.24-.16h0a.2.2,0,0,1,0,.4Zm1.4-.23a.2.2,0,0,1-.18-.1.2.2,0,0,1,.08-.27h0a.21.21,0,0,1,.28.07.21.21,0,0,1-.08.28h0A.16.16,0,0,1,113.17,196Zm-2.09,0-.11,0,0,0a.21.21,0,0,1-.07-.27.2.2,0,0,1,.28-.07h0a.19.19,0,0,1,.07.27A.18.18,0,0,1,111.08,196Zm2.66-.43a.19.19,0,0,1-.13-.05.2.2,0,0,1,0-.28l0,0a.2.2,0,0,1,.28,0,.2.2,0,0,1,0,.28l0,0A.18.18,0,0,1,113.74,195.52Zm-3.22,0a.21.21,0,0,1-.16-.08h0a.2.2,0,1,1,.31-.26l0,0a.2.2,0,0,1,0,.28A.24.24,0,0,1,110.52,195.49Zm3.59-.59H114a.21.21,0,0,1-.12-.26v0a.22.22,0,0,1,.26-.12.2.2,0,0,1,.12.26v0A.22.22,0,0,1,114.11,194.9Zm-4,0a.21.21,0,0,1-.2-.13v0a.2.2,0,1,1,.38-.13h0a.2.2,0,0,1-.12.26Zm4.09-.66h0A.22.22,0,0,1,114,194v0a.21.21,0,0,1,.21-.2.2.2,0,0,1,.2.2v0A.2.2,0,0,1,114.25,194.2Zm-4.21,0h0a.2.2,0,0,1-.2-.2v0a.22.22,0,0,1,.21-.2h0a.2.2,0,0,1,.2.21v0A.19.19,0,0,1,110,194.15Zm4.1-.62a.2.2,0,0,1-.19-.14v0a.21.21,0,0,1,.39-.13v0a.21.21,0,0,1-.13.25Zm-4-.08-.07,0a.19.19,0,0,1-.12-.25v0a.2.2,0,1,1,.38.14v0A.2.2,0,0,1,110.17,193.45Zm3.62-.55a.21.21,0,0,1-.16-.08h0a.19.19,0,0,1,0-.28.21.21,0,0,1,.29,0h0a.19.19,0,0,1,0,.28A.21.21,0,0,1,113.79,192.9Zm-3.24-.07a.24.24,0,0,1-.14-.05.2.2,0,0,1,0-.28l0,0a.21.21,0,1,1,.31.27h0A.18.18,0,0,1,110.55,192.83Zm2.7-.41a.2.2,0,0,1-.11,0h0a.2.2,0,0,1-.07-.27.2.2,0,0,1,.28-.07h0a.19.19,0,0,1,.07.27A.2.2,0,0,1,113.25,192.42Zm-2.13,0a.19.19,0,0,1-.18-.11A.19.19,0,0,1,111,192h0a.2.2,0,0,1,.27.08.19.19,0,0,1-.08.27h0Zm1.44-.22h-.06a.21.21,0,0,1-.16-.24.21.21,0,0,1,.24-.16h0a.19.19,0,0,1,.16.24A.2.2,0,0,1,112.56,192.16Zm-.75,0a.2.2,0,0,1-.2-.17.2.2,0,0,1,.17-.23h0a.2.2,0,0,1,.23.17.2.2,0,0,1-.17.23h0Z"/><path class="cls-7" d="M112.78,198.22a.38.38,0,0,1-.38-.32.37.37,0,0,1,.32-.43h0a.39.39,0,0,1,.45.31.37.37,0,0,1-.32.44h-.1Zm-1.36,0h-.11a.38.38,0,1,1,.15-.75h0a.39.39,0,0,1,.32.45A.4.4,0,0,1,111.42,198.21Zm2.68-.43a.38.38,0,0,1-.34-.2.37.37,0,0,1,.15-.52h0a.38.38,0,1,1,.39.66l0,0A.45.45,0,0,1,114.1,197.78Zm-4,0a.36.36,0,0,1-.2-.06l0,0a.38.38,0,0,1-.13-.52.39.39,0,0,1,.53-.13l0,0a.37.37,0,0,1,.14.52A.39.39,0,0,1,110.12,197.74Zm5.06-.83a.43.43,0,0,1-.26-.09.38.38,0,0,1,0-.54l0,0a.39.39,0,0,1,.55,0,.37.37,0,0,1,0,.54l0,0A.37.37,0,0,1,115.18,196.91Zm-6.12-.06a.41.41,0,0,1-.31-.14l0,0a.38.38,0,0,1,.06-.54.39.39,0,0,1,.54.06l0,0a.37.37,0,0,1-.06.53A.38.38,0,0,1,109.06,196.85Zm6.83-1.11a.35.35,0,0,1-.14,0,.38.38,0,0,1-.23-.49l0,0a.39.39,0,0,1,.5-.23.39.39,0,0,1,.23.49l0,0A.38.38,0,0,1,115.89,195.74Zm-7.52-.08a.4.4,0,0,1-.37-.25v0a.39.39,0,0,1,.24-.49.4.4,0,0,1,.49.24l0,0a.39.39,0,0,1-.24.49A.3.3,0,0,1,108.37,195.66Zm7.78-1.26h0a.39.39,0,0,1-.38-.39v0a.39.39,0,0,1,.77,0v0A.38.38,0,0,1,116.15,194.4Zm-8-.08h0a.4.4,0,0,1-.39-.39v0a.39.39,0,0,1,.39-.37h0a.37.37,0,0,1,.38.38v0A.39.39,0,0,1,108.14,194.32Zm7.8-1.19a.4.4,0,0,1-.37-.26v0a.38.38,0,0,1,.25-.48.39.39,0,0,1,.49.24v0a.38.38,0,0,1-.24.48ZM108.4,193a.34.34,0,0,1-.14,0,.39.39,0,0,1-.23-.49l0,0a.39.39,0,0,1,.5-.22.38.38,0,0,1,.22.5v0A.39.39,0,0,1,108.4,193Zm6.88-1a.37.37,0,0,1-.3-.15l0,0a.39.39,0,0,1,.61-.48l0,0a.38.38,0,0,1-.07.54A.41.41,0,0,1,115.28,191.93Zm-6.17-.13a.38.38,0,0,1-.25-.09.37.37,0,0,1,0-.54l0,0a.39.39,0,0,1,.55,0,.36.36,0,0,1,0,.53l0,0A.39.39,0,0,1,109.11,191.8Zm5.13-.78a.36.36,0,0,1-.2-.06h0a.38.38,0,0,1-.14-.53.41.41,0,0,1,.54-.13l0,0a.37.37,0,0,1,.13.52A.38.38,0,0,1,114.24,191Zm-4-.08a.39.39,0,0,1-.34-.2.38.38,0,0,1,.15-.52l0,0a.4.4,0,0,1,.53.15.38.38,0,0,1-.16.52l0,0A.41.41,0,0,1,110.19,190.94Zm2.75-.42h-.11a.38.38,0,1,1,.15-.75h0a.38.38,0,0,1,.3.45A.38.38,0,0,1,112.94,190.52Zm-1.43,0a.39.39,0,0,1-.39-.32.4.4,0,0,1,.33-.44h0a.39.39,0,0,1,.44.32.38.38,0,0,1-.33.43h-.09Z"/><path class="cls-7" d="M113.21,201.1a.64.64,0,0,1-.64-.54.63.63,0,0,1,.54-.73h.06a.65.65,0,0,1,.75.52.64.64,0,0,1-.53.74h-.18Zm-2.27,0h-.12l-.07,0a.63.63,0,0,1-.52-.74.65.65,0,0,1,.77-.51h0a.63.63,0,0,1,.53.74A.65.65,0,0,1,110.94,201.08Zm4.48-.73a.65.65,0,0,1-.57-.33.63.63,0,0,1,.25-.87l.05,0a.66.66,0,0,1,.89.24.62.62,0,0,1-.24.87l-.06,0A.72.72,0,0,1,115.42,200.35Zm-6.68-.07a.68.68,0,0,1-.33-.09l-.06,0a.63.63,0,0,1-.22-.88.67.67,0,0,1,.9-.22l0,0a.64.64,0,0,1,.23.88A.66.66,0,0,1,108.74,200.28Zm8.49-1.38a.66.66,0,0,1-.43-.16.63.63,0,0,1-.06-.9l0,0a.67.67,0,0,1,.92-.08.63.63,0,0,1,.08.9l0,.06A.68.68,0,0,1,117.23,198.9ZM107,198.8a.65.65,0,0,1-.51-.24l0-.05a.63.63,0,0,1,.09-.9.66.66,0,0,1,.92.1l0,0a.63.63,0,0,1-.09.9A.65.65,0,0,1,107,198.8Zm11.45-1.87a.66.66,0,0,1-.23,0,.64.64,0,0,1-.38-.82l0-.06a.66.66,0,0,1,.84-.38.64.64,0,0,1,.39.82l0,.07A.67.67,0,0,1,118.42,196.93Zm-12.61-.13a.65.65,0,0,1-.61-.42l0-.07a.64.64,0,0,1,.41-.81.67.67,0,0,1,.83.4l0,0a.64.64,0,0,1-.4.82A.78.78,0,0,1,105.81,196.8Zm13-2.12h0a.65.65,0,0,1-.65-.64V194a.65.65,0,0,1,.65-.64.66.66,0,0,1,.66.64v.07A.65.65,0,0,1,118.85,194.68Zm-13.42-.13h0a.66.66,0,0,1-.65-.65v-.07a.64.64,0,0,1,.65-.62h0a.64.64,0,0,1,.64.65v.06A.65.65,0,0,1,105.43,194.55Zm13.09-2a.65.65,0,0,1-.62-.44l0-.06a.63.63,0,0,1,.4-.81.66.66,0,0,1,.83.4l0,.07a.64.64,0,0,1-.42.81Zm-12.66-.26a1,1,0,0,1-.23,0,.66.66,0,0,1-.38-.83l0-.06a.66.66,0,0,1,.84-.37.64.64,0,0,1,.38.83l0,0A.64.64,0,0,1,105.86,192.3Zm11.55-1.76a.66.66,0,0,1-.52-.24l0,0a.63.63,0,0,1,.09-.9.67.67,0,0,1,.92.09l0,.06a.64.64,0,0,1-.11.9A.66.66,0,0,1,117.41,190.54Zm-10.35-.21a.7.7,0,0,1-.43-.15.64.64,0,0,1-.06-.91l0-.05a.68.68,0,0,1,.93-.06.64.64,0,0,1,0,.91l0,0A.63.63,0,0,1,107.06,190.33Zm8.6-1.31a.67.67,0,0,1-.34-.09l-.06,0A.65.65,0,0,1,115,188a.67.67,0,0,1,.9-.22l.06,0a.64.64,0,0,1-.34,1.18Zm-6.79-.14a.63.63,0,0,1-.32-1.19l.06,0a.66.66,0,0,1,.89.26.62.62,0,0,1-.26.86l0,0A.61.61,0,0,1,108.87,188.88Zm4.61-.7h-.19a.64.64,0,0,1-.51-.75.66.66,0,0,1,.76-.51l.07,0a.64.64,0,0,1,.51.75A.64.64,0,0,1,113.48,188.18Zm-2.4-.05a.64.64,0,0,1-.64-.53.64.64,0,0,1,.54-.74h.07a.64.64,0,1,1,.19,1.27h-.16Z"/><path class="cls-7" d="M98.55,154.38a1.76,1.76,0,0,1-1.75-1.46,1.74,1.74,0,0,1,1.47-2l.16,0a1.77,1.77,0,0,1,2,1.42,1.74,1.74,0,0,1-1.45,2l-.2,0Zm-6.19-.06-.32,0-.19,0a1.75,1.75,0,0,1-1.41-2,1.78,1.78,0,0,1,2.08-1.38l.16,0a1.73,1.73,0,0,1,1.43,2A1.76,1.76,0,0,1,92.36,154.32Zm12.21-2a1.77,1.77,0,0,1-1.55-.89,1.72,1.72,0,0,1,.68-2.37l.14-.07a1.79,1.79,0,0,1,2.42.64,1.72,1.72,0,0,1-.65,2.38l-.17.09A1.84,1.84,0,0,1,104.57,152.33Zm-18.18-.18a1.81,1.81,0,0,1-.9-.24l-.17-.1a1.73,1.73,0,0,1-.61-2.39,1.8,1.8,0,0,1,2.44-.59l.14.08a1.71,1.71,0,0,1,.63,2.38A1.78,1.78,0,0,1,86.39,152.15Zm23.1-3.76a1.78,1.78,0,0,1-1.16-.43,1.71,1.71,0,0,1-.18-2.45l.1-.12a1.81,1.81,0,0,1,2.51-.21,1.73,1.73,0,0,1,.21,2.46l-.13.14A1.8,1.8,0,0,1,109.49,148.39Zm-27.94-.29a1.77,1.77,0,0,1-1.37-.63l-.13-.15a1.7,1.7,0,0,1,.27-2.44,1.8,1.8,0,0,1,2.5.26l.1.12a1.72,1.72,0,0,1-.24,2.45A1.82,1.82,0,0,1,81.55,148.1Zm31.2-5.07a2,2,0,0,1-.63-.11,1.74,1.74,0,0,1-1-2.24l.06-.15a1.79,1.79,0,0,1,2.28-1,1.73,1.73,0,0,1,1.06,2.23l-.07.18A1.77,1.77,0,0,1,112.75,143Zm-34.34-.35a1.78,1.78,0,0,1-1.68-1.16l-.06-.18a1.73,1.73,0,0,1,1.11-2.21A1.78,1.78,0,0,1,80,140.22a.78.78,0,0,1,0,.14A1.72,1.72,0,0,1,79,142.58,1.7,1.7,0,0,1,78.41,142.68Zm35.5-5.78h0a1.75,1.75,0,0,1-1.76-1.75V135a1.78,1.78,0,0,1,3.55,0v.19A1.76,1.76,0,0,1,113.91,136.9Zm-36.54-.36h0a1.77,1.77,0,0,1-1.76-1.76v-.19a1.76,1.76,0,0,1,1.77-1.71h0a1.76,1.76,0,0,1,1.74,1.78v.16A1.77,1.77,0,0,1,77.37,136.54ZM113,131.12a1.78,1.78,0,0,1-1.69-1.2,1.21,1.21,0,0,1,0-.14,1.73,1.73,0,0,1,1.11-2.21,1.77,1.77,0,0,1,2.25,1.08,1.46,1.46,0,0,1,.07.19,1.74,1.74,0,0,1-1.14,2.19A1.76,1.76,0,0,1,113,131.12Zm-34.46-.71a1.93,1.93,0,0,1-.62-.11,1.73,1.73,0,0,1-1-2.24l.07-.18a1.79,1.79,0,0,1,2.3-1,1.73,1.73,0,0,1,1,2.25l-.06.15A1.79,1.79,0,0,1,78.54,130.41ZM110,125.64a1.8,1.8,0,0,1-1.39-.66l-.1-.13a1.7,1.7,0,0,1,.27-2.44,1.8,1.8,0,0,1,2.5.26l.12.14a1.72,1.72,0,0,1-.29,2.45A1.84,1.84,0,0,1,110,125.64Zm-28.17-.58a1.78,1.78,0,0,1-1.16-.43,1.7,1.7,0,0,1-.18-2.45l.13-.15a1.8,1.8,0,0,1,2.51-.15,1.72,1.72,0,0,1,.15,2.46l-.1.11A1.8,1.8,0,0,1,81.8,125.06Zm23.41-3.56a1.84,1.84,0,0,1-.93-.26l-.14-.08a1.72,1.72,0,0,1-.6-2.39,1.8,1.8,0,0,1,2.44-.6,1,1,0,0,0,.17.1,1.74,1.74,0,0,1,.58,2.4A1.81,1.81,0,0,1,105.21,121.5Zm-18.47-.38a1.8,1.8,0,0,1-1.56-.9,1.71,1.71,0,0,1,.69-2.36l.16-.1a1.81,1.81,0,0,1,2.42.69,1.73,1.73,0,0,1-.71,2.37l-.14.07A1.79,1.79,0,0,1,86.74,121.12Zm12.55-1.91a2.09,2.09,0,0,1-.35,0l-.16,0a1.74,1.74,0,0,1-1.41-2,1.78,1.78,0,0,1,2.08-1.38l.2,0a1.73,1.73,0,0,1,1.38,2A1.77,1.77,0,0,1,99.29,119.21Zm-6.54-.14a1.74,1.74,0,0,1-.28-3.46l.19,0a1.78,1.78,0,0,1,2,1.47,1.74,1.74,0,0,1-1.5,2l-.15,0A1.37,1.37,0,0,1,92.75,119.07Z"/><path class="cls-7" d="M97.74,149a1.27,1.27,0,0,1-1.26-1.06,1.25,1.25,0,0,1,1.06-1.44h.12a1.28,1.28,0,0,1,1.48,1,1.27,1.27,0,0,1-1,1.45L98,149Zm-4.46,0-.23,0-.14,0a1.25,1.25,0,0,1-1-1.47,1.28,1.28,0,0,1,1.5-1l.11,0a1.27,1.27,0,0,1,1,1.46A1.28,1.28,0,0,1,93.28,148.94Zm8.8-1.44a1.3,1.3,0,0,1-1.12-.64,1.25,1.25,0,0,1,.5-1.71l.1-.06a1.31,1.31,0,0,1,1.75.47,1.24,1.24,0,0,1-.48,1.71l-.12.07A1.28,1.28,0,0,1,102.08,147.5ZM89,147.37a1.33,1.33,0,0,1-.64-.17l-.13-.07a1.25,1.25,0,0,1-.43-1.73,1.31,1.31,0,0,1,1.76-.43l.1.06a1.24,1.24,0,0,1,.45,1.72A1.29,1.29,0,0,1,89,147.37Zm16.68-2.72a1.31,1.31,0,0,1-.84-.3,1.24,1.24,0,0,1-.13-1.77l.07-.09a1.31,1.31,0,0,1,1.81-.15,1.24,1.24,0,0,1,.15,1.77l-.09.11A1.27,1.27,0,0,1,105.64,144.65Zm-20.17-.2a1.29,1.29,0,0,1-1-.46l-.09-.1a1.24,1.24,0,0,1,.19-1.77,1.31,1.31,0,0,1,1.81.19l.07.09a1.23,1.23,0,0,1-.17,1.76A1.27,1.27,0,0,1,85.47,144.45ZM108,140.79a1.48,1.48,0,0,1-.46-.08,1.25,1.25,0,0,1-.74-1.62l0-.11a1.29,1.29,0,0,1,1.64-.75,1.26,1.26,0,0,1,.77,1.62.61.61,0,0,0,0,.12A1.28,1.28,0,0,1,108,140.79Zm-24.79-.25a1.27,1.27,0,0,1-1.2-.84.69.69,0,0,1,0-.13,1.26,1.26,0,0,1,.8-1.6,1.3,1.3,0,0,1,1.63.79l0,.1a1.25,1.25,0,0,1-.78,1.61A1.55,1.55,0,0,1,83.2,140.54Zm25.63-4.17h0a1.27,1.27,0,0,1-1.27-1.27V135a1.28,1.28,0,0,1,2.56,0v.14A1.27,1.27,0,0,1,108.83,136.37Zm-26.37-.27h0a1.27,1.27,0,0,1-1.27-1.27v-.14a1.27,1.27,0,0,1,1.28-1.23h0a1.27,1.27,0,0,1,1.26,1.29v.11A1.27,1.27,0,0,1,82.46,136.1Zm25.71-3.91a1.27,1.27,0,0,1-1.22-.86l0-.11a1.25,1.25,0,0,1,.8-1.59,1.29,1.29,0,0,1,1.63.78l0,.14a1.25,1.25,0,0,1-.82,1.58A1.44,1.44,0,0,1,108.17,132.19Zm-24.87-.51a1.42,1.42,0,0,1-.45-.08A1.26,1.26,0,0,1,82.1,130a.69.69,0,0,0,.05-.13,1.29,1.29,0,0,1,1.66-.71,1.24,1.24,0,0,1,.73,1.62l0,.11A1.28,1.28,0,0,1,83.3,131.68ZM106,128.23a1.29,1.29,0,0,1-1-.47l-.07-.09a1.24,1.24,0,0,1,.19-1.77,1.3,1.3,0,0,1,1.8.19l.09.11a1.26,1.26,0,0,1-1,2Zm-20.34-.41a1.26,1.26,0,0,1-.83-.31,1.24,1.24,0,0,1-.14-1.77l.1-.11a1.3,1.3,0,0,1,1.81-.11,1.25,1.25,0,0,1,.11,1.78l-.07.08A1.32,1.32,0,0,1,85.65,127.82Zm16.9-2.57a1.26,1.26,0,0,1-.67-.19l-.1-.06a1.24,1.24,0,0,1-.44-1.72,1.29,1.29,0,0,1,1.76-.43l.12.07a1.24,1.24,0,0,1,.42,1.73A1.3,1.3,0,0,1,102.55,125.25ZM89.21,125a1.29,1.29,0,0,1-1.12-.64,1.25,1.25,0,0,1,.5-1.71l.12-.07a1.3,1.3,0,0,1,1.74.5,1.25,1.25,0,0,1-.51,1.71l-.1,0A1.28,1.28,0,0,1,89.21,125Zm9.07-1.38a1.14,1.14,0,0,1-.26,0l-.11,0a1.26,1.26,0,0,1-1-1.47,1.28,1.28,0,0,1,1.5-1l.14,0a1.25,1.25,0,0,1,1,1.48A1.27,1.27,0,0,1,98.28,123.59Zm-4.73-.09a1.26,1.26,0,0,1-.2-2.5l.14,0A1.28,1.28,0,0,1,95,122a1.26,1.26,0,0,1-1.08,1.42l-.11,0Z"/><path class="cls-7" d="M97.74,149.11l-.3,0,.06-.26a1,1,0,0,0,.24,0Zm-4.46,0-.26,0v-.27h0a.75.75,0,0,0,.21,0Zm8.8-1.44-.29,0,0-.26a1,1,0,0,0,.24,0ZM89,147.5a1.36,1.36,0,0,1-.29,0l0-.26.24,0Zm16.68-2.71a1.53,1.53,0,0,1-.3,0l.06-.26.24,0Zm-20.17-.21-.3,0,.06-.26a1,1,0,0,0,.24,0ZM108,140.92a1.53,1.53,0,0,1-.3,0l.06-.26a1,1,0,0,0,.24,0Zm-24.79-.25a1.36,1.36,0,0,1-.29,0l0-.26a1,1,0,0,0,.24,0Zm25.63-4.17h0a1.36,1.36,0,0,1-.29,0l.06-.26.23,0Zm-26.37-.27h0a1.33,1.33,0,0,1-.28,0l.06-.26a.83.83,0,0,0,.22,0Zm25.71-3.91a1.53,1.53,0,0,1-.3,0l.06-.26a1,1,0,0,0,.24,0Zm-24.87-.51a1.53,1.53,0,0,1-.3,0l.06-.26.24,0ZM106,128.37a1.53,1.53,0,0,1-.3,0l.06-.26.24,0ZM85.65,128a1.36,1.36,0,0,1-.29,0l0-.26.24,0Zm16.9-2.57a1.53,1.53,0,0,1-.3,0l.06-.26a1,1,0,0,0,.24,0Zm-13.34-.28a1.36,1.36,0,0,1-.29,0l0-.26a1,1,0,0,0,.24,0Zm9.07-1.37a1.43,1.43,0,0,1-.29,0l0-.26.25,0Zm-4.73-.1a1.36,1.36,0,0,1-.29,0l0-.26a1,1,0,0,0,.24,0Z"/><path class="cls-7" d="M96.08,137.86a.28.28,0,0,1-.27-.22.27.27,0,0,1,.22-.3h0a.26.26,0,0,1,.3.21.25.25,0,0,1-.21.3h-.07Zm-.92,0h-.08a.26.26,0,0,1-.21-.3.27.27,0,0,1,.31-.21h0a.26.26,0,0,1,0,.52Zm1.81-.3a.26.26,0,0,1-.23-.13.25.25,0,0,1,.1-.35h0a.27.27,0,0,1,.36.09.26.26,0,0,1-.1.36h0A.31.31,0,0,1,97,137.55Zm-2.7,0a.37.37,0,0,1-.14,0h0a.25.25,0,0,1-.09-.36.27.27,0,0,1,.36-.09h0a.26.26,0,0,1,.1.36A.28.28,0,0,1,94.27,137.53ZM97.7,137a.23.23,0,0,1-.17-.07.25.25,0,0,1,0-.36l0,0a.27.27,0,0,1,.37,0,.25.25,0,0,1,0,.36l0,0A.25.25,0,0,1,97.7,137Zm-4.15-.05a.29.29,0,0,1-.21-.09v0a.25.25,0,0,1,0-.37.28.28,0,0,1,.37,0v0a.26.26,0,0,1,0,.37A.26.26,0,0,1,93.55,136.92Zm4.63-.75a.15.15,0,0,1-.09,0,.25.25,0,0,1-.15-.33v0a.26.26,0,1,1,.49.18v0A.26.26,0,0,1,98.18,136.17Zm-5.1,0a.27.27,0,0,1-.25-.17v0a.26.26,0,0,1,.5-.17v0a.25.25,0,0,1-.16.33Zm5.28-.86h0a.27.27,0,0,1-.27-.26v0a.27.27,0,0,1,.53,0v0A.26.26,0,0,1,98.36,135.26Zm-5.43,0h0a.27.27,0,0,1-.26-.27v0a.27.27,0,0,1,.27-.26h0a.26.26,0,0,1,.26.27v0A.26.26,0,0,1,92.93,135.21Zm5.29-.81a.27.27,0,0,1-.25-.18v0a.27.27,0,0,1,.17-.33.26.26,0,0,1,.33.16v0a.26.26,0,0,1-.17.33Zm-5.12-.1-.09,0a.26.26,0,0,1-.16-.33l0,0a.26.26,0,1,1,.49.19v0A.27.27,0,0,1,93.1,134.3Zm4.67-.71a.26.26,0,0,1-.2-.1l0,0a.26.26,0,0,1,0-.36.27.27,0,0,1,.37,0l0,0a.26.26,0,0,1,0,.36A.27.27,0,0,1,97.77,133.59Zm-4.18-.09a.3.3,0,0,1-.18-.06.26.26,0,0,1,0-.37l0,0a.26.26,0,0,1,.37,0,.25.25,0,0,1,0,.36v0A.28.28,0,0,1,93.59,133.5Zm3.47-.53a.22.22,0,0,1-.13,0h0a.24.24,0,0,1-.09-.35.25.25,0,0,1,.36-.09h0a.25.25,0,0,1,.09.36A.27.27,0,0,1,97.06,133Zm-2.74-.06a.26.26,0,0,1-.23-.13.25.25,0,0,1,.1-.35h0a.26.26,0,0,1,.25.45h0A.31.31,0,0,1,94.32,132.91Zm1.87-.28h-.08a.26.26,0,0,1-.21-.3.28.28,0,0,1,.31-.21h0a.25.25,0,0,1,.2.3A.25.25,0,0,1,96.19,132.63Zm-1,0a.26.26,0,0,1,0-.51h0a.27.27,0,0,1,.3.22.26.26,0,0,1-.22.29h-.07Z"/><path class="cls-7" d="M96.46,140.45A.49.49,0,0,1,96,140a.49.49,0,0,1,.42-.56h0a.51.51,0,0,1,.58.4.5.5,0,0,1-.41.57h-.14Zm-1.74,0h-.15a.5.5,0,0,1-.4-.58.52.52,0,0,1,.59-.39h0a.49.49,0,0,1,.4.57A.5.5,0,0,1,94.72,140.44Zm3.44-.56a.49.49,0,0,1-.43-.26.47.47,0,0,1,.19-.66l0,0a.51.51,0,0,1,.68.19.48.48,0,0,1-.18.67l0,0A.45.45,0,0,1,98.16,139.88ZM93,139.82a.54.54,0,0,1-.25-.06l0,0a.48.48,0,0,1-.17-.68.51.51,0,0,1,.69-.16l0,0a.49.49,0,0,1-.25.91Zm6.53-1.06a.5.5,0,0,1-.33-.12.47.47,0,0,1,0-.69l0,0a.51.51,0,0,1,.71-.06.48.48,0,0,1,.06.69l0,0A.52.52,0,0,1,99.56,138.76Zm-7.9-.08a.51.51,0,0,1-.39-.18l0,0a.49.49,0,0,1,.07-.69.51.51,0,0,1,.71.07l0,0a.47.47,0,0,1-.07.69A.48.48,0,0,1,91.66,138.68Zm8.81-1.43a.47.47,0,0,1-.17,0,.5.5,0,0,1-.3-.64l0,0a.51.51,0,0,1,.64-.29.49.49,0,0,1,.3.63l0,.05A.49.49,0,0,1,100.47,137.25Zm-9.69-.1a.5.5,0,0,1-.48-.33l0,0a.48.48,0,0,1,.32-.62.49.49,0,0,1,.63.3l0,.05a.49.49,0,0,1-.31.62A.45.45,0,0,1,90.78,137.15Zm10-1.63h0a.5.5,0,0,1-.5-.5v0a.51.51,0,0,1,1,0V135A.51.51,0,0,1,100.8,135.52Zm-10.32-.11h0a.49.49,0,0,1-.5-.49v-.06a.5.5,0,0,1,.5-.48h0a.51.51,0,0,1,.5.5v.05A.48.48,0,0,1,90.48,135.41Zm10.06-1.53a.5.5,0,0,1-.47-.33l0,0a.5.5,0,0,1,1-.32l0,.05a.49.49,0,0,1-.32.62A.41.41,0,0,1,100.54,133.88Zm-9.73-.2a.47.47,0,0,1-.17,0,.49.49,0,0,1-.3-.63l0-.05a.51.51,0,0,1,.65-.28.49.49,0,0,1,.29.64l0,0A.49.49,0,0,1,90.81,133.68Zm8.88-1.34a.51.51,0,0,1-.39-.19l0,0a.49.49,0,0,1,.07-.7.52.52,0,0,1,.71.08l0,0a.48.48,0,0,1-.08.69A.51.51,0,0,1,99.69,132.34Zm-8-.17a.49.49,0,0,1-.32-.12.48.48,0,0,1-.06-.69l0,0a.5.5,0,0,1,.71,0,.47.47,0,0,1,0,.69l0,0A.52.52,0,0,1,91.73,132.17Zm6.62-1a.53.53,0,0,1-.27-.08l0,0a.49.49,0,0,1-.17-.67.5.5,0,0,1,.69-.17l0,0a.47.47,0,0,1,.16.67A.5.5,0,0,1,98.35,131.17Zm-5.22-.11a.5.5,0,0,1-.44-.25.48.48,0,0,1,.19-.67l.05,0a.51.51,0,0,1,.68.2.47.47,0,0,1-.2.66l0,0A.53.53,0,0,1,93.13,131.06Zm3.54-.54h-.14a.49.49,0,0,1-.4-.57.5.5,0,0,1,.59-.39h0a.49.49,0,0,1,.4.58A.51.51,0,0,1,96.67,130.52Zm-1.85,0a.49.49,0,0,1-.49-.41.49.49,0,0,1,.42-.56h0a.49.49,0,1,1,.15,1h-.13Z"/><path class="cls-7" d="M97,144.16a.84.84,0,0,1-.83-.69.82.82,0,0,1,.7-.94l.07,0a.84.84,0,0,1,1,.68.83.83,0,0,1-.68.95H97Zm-2.93,0h-.15l-.09,0a.81.81,0,0,1-.67-1,.84.84,0,0,1,1-.65h.07a.83.83,0,0,1,.68,1A.84.84,0,0,1,94.09,144.13Zm5.78-.94a.85.85,0,0,1-.74-.42.82.82,0,0,1,.33-1.12l.06,0a.85.85,0,0,1,1.15.31.81.81,0,0,1-.31,1.12l-.08.05A.86.86,0,0,1,99.87,143.19Zm-8.61-.08a.81.81,0,0,1-.42-.12l-.08,0a.81.81,0,0,1-.29-1.13.85.85,0,0,1,1.15-.29l.07,0a.82.82,0,0,1,.3,1.13A.86.86,0,0,1,91.26,143.11Zm10.94-1.79a.83.83,0,0,1-.55-.2.8.8,0,0,1-.08-1.16l0-.05a.85.85,0,0,1,1.19-.1.81.81,0,0,1,.1,1.16l-.06.07A.84.84,0,0,1,102.2,141.32ZM89,141.19a.85.85,0,0,1-.65-.3l-.06-.07a.81.81,0,0,1,.13-1.16.85.85,0,0,1,1.18.13l.05.05A.82.82,0,0,1,89.5,141,.8.8,0,0,1,89,141.19Zm14.77-2.4a1,1,0,0,1-.3,0,.84.84,0,0,1-.49-1.07l0-.07a.86.86,0,0,1,1.08-.49.82.82,0,0,1,.5,1.06l0,.08A.85.85,0,0,1,103.74,138.79Zm-16.26-.17a.84.84,0,0,1-.79-.54l0-.09a.82.82,0,0,1,.52-1.05.86.86,0,0,1,1.07.52l0,.06a.84.84,0,0,1-.52,1.06A.86.86,0,0,1,87.48,138.62Zm16.81-2.73h0a.84.84,0,0,1-.84-.83V135a.85.85,0,0,1,1.69,0v.09A.84.84,0,0,1,104.29,135.89ZM87,135.71h0a.83.83,0,0,1-.83-.83v-.09A.84.84,0,0,1,87,134h0a.83.83,0,0,1,.82.84v.08A.83.83,0,0,1,87,135.71Zm16.87-2.56a.85.85,0,0,1-.8-.57l0-.07a.81.81,0,0,1,.52-1,.84.84,0,0,1,1.07.51l0,.09a.82.82,0,0,1-.54,1A.75.75,0,0,1,103.86,133.15Zm-16.31-.34a.79.79,0,0,1-.3-.05.81.81,0,0,1-.49-1.06l0-.09a.86.86,0,0,1,1.09-.47.82.82,0,0,1,.48,1.07l0,.07A.82.82,0,0,1,87.55,132.81Zm14.88-2.26a.85.85,0,0,1-.66-.31l0-.06a.82.82,0,0,1,.13-1.16.85.85,0,0,1,1.18.13l.06.07a.8.8,0,0,1-.14,1.15A.84.84,0,0,1,102.43,130.55Zm-13.34-.27a.87.87,0,0,1-.55-.2.83.83,0,0,1-.09-1.17l.06-.06a.85.85,0,0,1,1.19-.08.83.83,0,0,1,.08,1.17l0,.05A.85.85,0,0,1,89.09,130.28Zm11.08-1.69a.88.88,0,0,1-.44-.12l-.06,0a.81.81,0,0,1-.29-1.13.85.85,0,0,1,1.16-.28l.08,0a.81.81,0,0,1,.27,1.13A.85.85,0,0,1,100.17,128.59Zm-8.74-.18a.84.84,0,0,1-.74-.42.81.81,0,0,1,.32-1.12l.08-.05a.87.87,0,0,1,1.15.33.82.82,0,0,1-.34,1.12l-.06,0A.88.88,0,0,1,91.43,128.41Zm5.94-.9-.17,0h-.07a.83.83,0,0,1-.67-1,.84.84,0,0,1,1-.65l.09,0a.83.83,0,0,1,.66,1A.85.85,0,0,1,97.37,127.51Zm-3.1-.07a.84.84,0,0,1-.83-.69.82.82,0,0,1,.7-.94l.09,0a.85.85,0,0,1,1,.7.82.82,0,0,1-.71.93h-.21Z"/></g></g></svg>