<svg xmlns="http://www.w3.org/2000/svg" viewBox="0 0 283 214"><defs><style>.cls-1{fill:#ff4848;}.cls-2{opacity:0.7;}.cls-3{fill:#ffb6b6;}.cls-4{fill:#d65858;opacity:0.85;}.cls-5{fill:#fff;opacity:0.3;}.cls-6{fill:none;stroke:#fff;stroke-miterlimit:10;stroke-width:5px;opacity:0.6;}.cls-7{fill:#c42626;}</style></defs><g id="Layer_13" data-name="Layer 13"><path class="cls-1" d="M19.35,139.09S-12,114,7,75.46c0,0,54.06-34.34,106.59-61.6C132.84,3.85,131.74-4,143,2.94c20.16,12.36,53.15,18.57,91,53.6,0,0,25,26.32,47,51.55,0,0,9.78,35.24-29.37,61.35,0,0-103,6.26-125.75,25-5.25,4.32,13.3,6.81,17.11,12.37,4.73,6.92-32,5.46-47,1.82-69.19-16.87-84.55-27.24-84.55-49.31h0Z"/><g class="cls-2"><ellipse class="cls-3" cx="204.99" cy="49.85" rx="11.12" ry="10.89"/></g><g class="cls-2"><ellipse class="cls-3" cx="141.99" cy="141.85" rx="11.12" ry="10.89"/></g><g class="cls-2"><ellipse class="cls-3" cx="170.28" cy="26.46" rx="6.41" ry="6.28"/></g><g class="cls-2"><ellipse class="cls-3" cx="109.45" cy="112.23" rx="7.67" ry="7.5"/></g><g class="cls-2"><ellipse class="cls-3" cx="54.78" cy="167.95" rx="5.91" ry="5.79"/></g><g class="cls-2"><ellipse class="cls-3" cx="71.78" cy="82.85" rx="7.91" ry="7.74"/></g><g class="cls-2"><ellipse class="cls-3" cx="33.78" cy="80.42" rx="10.54" ry="10.31"/></g><g class="cls-2"><ellipse class="cls-3" cx="119.66" cy="25.73" rx="4.09" ry="4"/></g><g class="cls-2"><ellipse class="cls-3" cx="34.47" cy="131.22" rx="5.23" ry="5.11"/></g><g class="cls-2"><ellipse class="cls-3" cx="147.28" cy="46.85" rx="7.41" ry="7.25"/></g><g class="cls-2"><path class="cls-3" d="M185,145.35a2,2,0,0,1-1.93-1.61,1.92,1.92,0,0,1,1.62-2.19l.18,0a2,2,0,0,1,2.26,1.57,1.93,1.93,0,0,1-1.61,2.21l-.21,0A1.62,1.62,0,0,1,185,145.35Zm-6.81-.06a2.19,2.19,0,0,1-.36,0l-.21,0a1.92,1.92,0,0,1-1.55-2.25,2,2,0,0,1,2.29-1.52l.17,0a1.92,1.92,0,0,1,1.58,2.23A2,2,0,0,1,178.17,145.29Zm13.44-2.19a2,2,0,0,1-1.71-1,1.9,1.9,0,0,1,.75-2.61l.15-.08a2,2,0,0,1,2.68.7,1.91,1.91,0,0,1-.73,2.62l-.19.1A1.93,1.93,0,0,1,191.61,143.1Zm-20-.2a2,2,0,0,1-1-.27l-.18-.11a1.89,1.89,0,0,1-.67-2.63,2,2,0,0,1,2.69-.65l.15.09a1.9,1.9,0,0,1,.7,2.62A2,2,0,0,1,171.59,142.9ZM197,138.75a2,2,0,0,1-1.28-.46,1.91,1.91,0,0,1-.2-2.71.69.69,0,0,0,.11-.13,2,2,0,0,1,2.76-.23,1.9,1.9,0,0,1,.24,2.71l-.14.16A2,2,0,0,1,197,138.75Zm-30.78-.31a2,2,0,0,1-1.51-.7l-.14-.16a1.88,1.88,0,0,1,.29-2.69,2,2,0,0,1,2.76.28l.11.14a1.88,1.88,0,0,1-.26,2.69A2,2,0,0,1,166.25,138.44Zm34.37-5.59a2,2,0,0,1-.69-.12,1.91,1.91,0,0,1-1.15-2.47l.07-.17a2,2,0,0,1,2.51-1.14,1.9,1.9,0,0,1,1.16,2.46,1.18,1.18,0,0,1-.07.2A2,2,0,0,1,200.62,132.85Zm-37.83-.38a2,2,0,0,1-1.84-1.28,1.18,1.18,0,0,1-.07-.2,1.9,1.9,0,0,1,1.22-2.43,2,2,0,0,1,2.48,1.19l.06.16a1.91,1.91,0,0,1-1.19,2.45A2.17,2.17,0,0,1,162.79,132.47Zm39.11-6.37h0a1.93,1.93,0,0,1-1.94-1.93V124a2,2,0,0,1,3.92,0v.21A1.93,1.93,0,0,1,201.9,126.1Zm-40.25-.4h0a1.94,1.94,0,0,1-1.94-1.94v-.21a1.94,1.94,0,0,1,2-1.88h0a1.93,1.93,0,0,1,1.92,2v.17A1.94,1.94,0,0,1,161.65,125.7Zm39.24-6a2,2,0,0,1-1.86-1.32.75.75,0,0,1-.05-.16,1.9,1.9,0,0,1,1.22-2.43,2,2,0,0,1,2.48,1.2,1.18,1.18,0,0,1,.07.2,1.9,1.9,0,0,1-1.25,2.42A2.15,2.15,0,0,1,200.89,119.73ZM162.94,119a2.09,2.09,0,0,1-.69-.12,1.91,1.91,0,0,1-1.14-2.47l.08-.2a2,2,0,0,1,2.53-1.09,1.9,1.9,0,0,1,1.12,2.48l-.06.16A2,2,0,0,1,162.94,119Zm34.62-5.26A2,2,0,0,1,196,113l-.11-.14a1.88,1.88,0,0,1,.29-2.69,2,2,0,0,1,2.75.28l.14.17a1.89,1.89,0,0,1-.32,2.69A2,2,0,0,1,197.56,113.69Zm-31-.64a2,2,0,0,1-1.28-.46,1.89,1.89,0,0,1-.2-2.71l.14-.16a2,2,0,0,1,2.77-.16,1.89,1.89,0,0,1,.17,2.7l-.12.13A2,2,0,0,1,166.53,113.05Zm25.79-3.92a2,2,0,0,1-1-.28l-.15-.09a1.9,1.9,0,0,1-.67-2.63,2,2,0,0,1,2.69-.66,1.18,1.18,0,0,0,.19.11,1.9,1.9,0,0,1,.64,2.64A2,2,0,0,1,192.32,109.13ZM172,108.71a2,2,0,0,1-1.72-1,1.9,1.9,0,0,1,.76-2.61l.18-.1a2,2,0,0,1,2.66.76,1.89,1.89,0,0,1-.77,2.6l-.16.09A2,2,0,0,1,172,108.71Zm13.83-2.1a1.87,1.87,0,0,1-.4,0l-.17,0a1.92,1.92,0,0,1-1.55-2.25,2,2,0,0,1,2.29-1.52l.22,0a1.91,1.91,0,0,1,1.52,2.26A1.94,1.94,0,0,1,185.8,106.61Zm-7.21-.15a2,2,0,0,1-1.94-1.61,1.94,1.94,0,0,1,1.63-2.2l.22,0a2,2,0,0,1,2.22,1.62,1.92,1.92,0,0,1-1.65,2.17l-.17,0A1.67,1.67,0,0,1,178.59,106.46Z"/><path class="cls-3" d="M184.09,139.41a1.41,1.41,0,0,1-1.39-1.17,1.38,1.38,0,0,1,1.17-1.58l.12,0a1.41,1.41,0,0,1,1.63,1.13,1.37,1.37,0,0,1-1.15,1.59l-.16,0Zm-4.92,0a1.07,1.07,0,0,1-.25,0l-.16,0a1.39,1.39,0,0,1-1.12-1.62,1.41,1.41,0,0,1,1.66-1.1l.12,0a1.39,1.39,0,0,1,1.14,1.61A1.41,1.41,0,0,1,179.17,139.36Zm9.7-1.58a1.43,1.43,0,0,1-1.23-.71,1.36,1.36,0,0,1,.54-1.88l.11-.06a1.42,1.42,0,0,1,1.93.51,1.37,1.37,0,0,1-.52,1.89l-.14.07A1.42,1.42,0,0,1,188.87,137.78Zm-14.45-.15a1.4,1.4,0,0,1-.71-.19l-.14-.08a1.36,1.36,0,0,1-.48-1.89A1.43,1.43,0,0,1,175,135l.11.07a1.36,1.36,0,0,1,.5,1.89A1.4,1.4,0,0,1,174.42,137.63Zm18.37-3a1.43,1.43,0,0,1-.93-.34,1.36,1.36,0,0,1-.14-2l.08-.09a1.44,1.44,0,0,1,2-.17A1.36,1.36,0,0,1,194,134l-.1.12A1.42,1.42,0,0,1,192.79,134.64Zm-22.22-.22a1.4,1.4,0,0,1-1.09-.51l-.1-.11a1.37,1.37,0,0,1,.21-2,1.43,1.43,0,0,1,2,.21l.08.09a1.37,1.37,0,0,1-.19,1.95A1.44,1.44,0,0,1,170.57,134.42Zm24.8-4a1.41,1.41,0,0,1-.49-.09,1.37,1.37,0,0,1-.83-1.78l0-.12a1.42,1.42,0,0,1,1.81-.82,1.37,1.37,0,0,1,.84,1.77s0,.1-.05.15A1.42,1.42,0,0,1,195.37,130.38Zm-27.29-.27a1.43,1.43,0,0,1-1.34-.92.88.88,0,0,0-.05-.15,1.39,1.39,0,0,1,.88-1.76,1.43,1.43,0,0,1,1.8.87s0,.07,0,.11a1.38,1.38,0,0,1-.86,1.77A1.6,1.6,0,0,1,168.08,130.11Zm28.22-4.6h0a1.4,1.4,0,0,1-1.4-1.39V124a1.42,1.42,0,0,1,2.83,0v.15A1.39,1.39,0,0,1,196.3,125.51Zm-29.05-.29h0a1.4,1.4,0,0,1-1.4-1.4v-.15a1.4,1.4,0,0,1,1.41-1.35h0a1.4,1.4,0,0,1,1.39,1.41v.12A1.4,1.4,0,0,1,167.25,125.22Zm28.32-4.31a1.41,1.41,0,0,1-1.34-1s0-.08,0-.11a1.38,1.38,0,0,1,.88-1.76,1.43,1.43,0,0,1,1.8.86.88.88,0,0,0,0,.15,1.39,1.39,0,0,1-.91,1.75A1.61,1.61,0,0,1,195.57,120.91Zm-27.39-.56a1.41,1.41,0,0,1-.49-.09,1.37,1.37,0,0,1-.83-1.78l.06-.14a1.41,1.41,0,0,1,1.83-.79,1.37,1.37,0,0,1,.8,1.79l0,.12A1.42,1.42,0,0,1,168.18,120.35Zm25-3.8a1.4,1.4,0,0,1-1.11-.52l-.08-.1a1.36,1.36,0,0,1,.21-1.94,1.44,1.44,0,0,1,2,.2l.1.12a1.38,1.38,0,0,1-.23,2A1.43,1.43,0,0,1,193.17,116.55Zm-22.4-.46a1.46,1.46,0,0,1-.92-.33,1.36,1.36,0,0,1-.15-2l.11-.12a1.43,1.43,0,0,1,2-.12,1.36,1.36,0,0,1,.13,2l-.09.09A1.39,1.39,0,0,1,170.77,116.09Zm18.61-2.83a1.45,1.45,0,0,1-.74-.2l-.1-.07a1.37,1.37,0,0,1-.49-1.9,1.44,1.44,0,0,1,1.94-.47l.14.08a1.37,1.37,0,0,1,.46,1.91A1.43,1.43,0,0,1,189.38,113.26ZM174.7,113a1.41,1.41,0,0,1-1.24-.71,1.36,1.36,0,0,1,.55-1.88l.13-.07a1.43,1.43,0,0,1,1.92.55,1.37,1.37,0,0,1-.56,1.87l-.12.07A1.49,1.49,0,0,1,174.7,113Zm10-1.52-.29,0-.12,0a1.38,1.38,0,0,1-1.12-1.62,1.41,1.41,0,0,1,1.66-1.09l.15,0a1.38,1.38,0,0,1-.28,2.74Zm-5.21-.1a1.41,1.41,0,0,1-1.39-1.17,1.39,1.39,0,0,1,1.17-1.58l.16,0a1.41,1.41,0,0,1,1.6,1.17,1.37,1.37,0,0,1-1.19,1.57l-.12,0Z"/><path class="cls-3" d="M184.09,139.57a2.33,2.33,0,0,1-.37,0l.08-.32a1.36,1.36,0,0,0,.29,0Zm-4.92,0a1.33,1.33,0,0,1-.28,0h-.08l.06-.32H179a.82.82,0,0,0,.22,0Zm9.7-1.58a1.47,1.47,0,0,1-.36,0l.07-.32a1.55,1.55,0,0,0,.29,0Zm-14.45-.15a1.55,1.55,0,0,1-.37,0l.08-.31a1.43,1.43,0,0,0,.29,0Zm18.37-3a1.5,1.5,0,0,1-.37,0l.08-.31a1.36,1.36,0,0,0,.29,0Zm-22.22-.22a2.2,2.2,0,0,1-.36,0l.07-.32a1.43,1.43,0,0,0,.29,0Zm24.8-4a1.47,1.47,0,0,1-.36,0l.07-.31.29,0Zm-27.29-.27a2.21,2.21,0,0,1-.37,0l.08-.32a1.36,1.36,0,0,0,.29,0Zm28.22-4.6h0a1.47,1.47,0,0,1-.36,0l.08-.31a1.33,1.33,0,0,0,.28,0Zm-29.05-.29h0a1.32,1.32,0,0,1-.34,0L167,125a.86.86,0,0,0,.28,0Zm28.32-4.3a1.64,1.64,0,0,1-.37,0l.08-.31a1.43,1.43,0,0,0,.29,0Zm-27.39-.57a1.47,1.47,0,0,1-.36,0l.07-.32a1,1,0,0,0,.29,0Zm25-3.79a2.33,2.33,0,0,1-.37,0l.08-.32a1.36,1.36,0,0,0,.29,0Zm-22.4-.46a1.49,1.49,0,0,1-.36-.05l.07-.31.29,0Zm18.61-2.83a1.49,1.49,0,0,1-.36-.05l.07-.31.29,0Zm-14.68-.31a1.5,1.5,0,0,1-.37,0l.08-.31a1.36,1.36,0,0,0,.29,0Zm10-1.51a1.17,1.17,0,0,1-.32,0h0l.06-.32h.05l.25,0Zm-5.21-.11a1.47,1.47,0,0,1-.36,0l.07-.32a1.55,1.55,0,0,0,.29,0Z"/><path class="cls-3" d="M182.25,127.15a.28.28,0,0,1-.28-.24.27.27,0,0,1,.24-.32h0a.3.3,0,0,1,.34.24.29.29,0,0,1-.24.33h-.08Zm-1,0h-.08a.28.28,0,0,1-.23-.33.29.29,0,0,1,.34-.23h0a.28.28,0,0,1,0,.56Zm2-.32a.3.3,0,0,1-.26-.15.28.28,0,0,1,.12-.38l0,0a.29.29,0,0,1,.4.11.29.29,0,0,1-.11.39h0A.23.23,0,0,1,183.24,126.82Zm-3,0a.23.23,0,0,1-.14,0l0,0a.28.28,0,0,1-.1-.39.29.29,0,0,1,.4-.09h0a.27.27,0,0,1,.1.39A.29.29,0,0,1,180.26,126.79Zm3.78-.62a.3.3,0,0,1-.19-.07.28.28,0,0,1,0-.4l0,0a.3.3,0,0,1,.41,0,.29.29,0,0,1,0,.4l0,0A.26.26,0,0,1,184,126.17Zm-4.57,0a.28.28,0,0,1-.22-.11l0,0a.27.27,0,0,1,0-.4.3.3,0,0,1,.41,0v0a.28.28,0,0,1,0,.4A.28.28,0,0,1,179.47,126.13Zm5.11-.83-.11,0a.29.29,0,0,1-.17-.37v0a.3.3,0,0,1,.38-.17.27.27,0,0,1,.17.36v0A.29.29,0,0,1,184.58,125.3Zm-5.62-.06a.29.29,0,0,1-.28-.19v0a.28.28,0,0,1,.18-.36.29.29,0,0,1,.37.18v0a.28.28,0,0,1-.18.36Zm5.81-.95h0a.28.28,0,0,1-.29-.28v0a.29.29,0,0,1,.58,0v0A.28.28,0,0,1,184.77,124.29Zm-6-.06h0a.27.27,0,0,1-.28-.28v0a.28.28,0,0,1,.29-.27h0a.29.29,0,0,1,.29.29v0A.28.28,0,0,1,178.79,124.23Zm5.83-.88a.3.3,0,0,1-.28-.2v0a.28.28,0,0,1,.18-.36.28.28,0,0,1,.37.17v0a.28.28,0,0,1-.18.36Zm-5.64-.12a.16.16,0,0,1-.1,0,.27.27,0,0,1-.17-.36v0a.29.29,0,0,1,.37-.17.29.29,0,0,1,.17.37v0A.28.28,0,0,1,179,123.23Zm5.14-.78a.31.31,0,0,1-.23-.11v0a.29.29,0,0,1,0-.4.3.3,0,0,1,.41,0l0,0a.29.29,0,0,1-.23.46Zm-4.61-.1a.33.33,0,0,1-.19-.06.3.3,0,0,1,0-.41l0,0a.3.3,0,0,1,.41,0,.29.29,0,0,1,0,.41l0,0A.31.31,0,0,1,179.51,122.35Zm3.83-.58a.28.28,0,0,1-.15,0h0a.28.28,0,0,1-.1-.39.29.29,0,0,1,.4-.1h0a.29.29,0,0,1,.09.4A.3.3,0,0,1,183.34,121.77Zm-3-.06a.27.27,0,0,1-.25-.15.27.27,0,0,1,.11-.38l0,0a.31.31,0,0,1,.4.11.28.28,0,0,1-.12.39h0A.23.23,0,0,1,180.32,121.71Zm2.05-.31h-.08a.29.29,0,1,1,.11-.56h0a.29.29,0,0,1,.23.34A.3.3,0,0,1,182.37,121.4Zm-1.07,0a.29.29,0,0,1,0-.57h0a.29.29,0,0,1,.33.24.3.3,0,0,1-.25.33h-.07Z"/><path class="cls-3" d="M182.68,130a.54.54,0,0,1-.08-1.08h0a.54.54,0,1,1,.19,1.07h-.15Zm-1.92,0h-.16a.55.55,0,0,1-.44-.64.56.56,0,0,1,.65-.43h.05a.54.54,0,0,1,.44.63A.56.56,0,0,1,180.76,130Zm3.79-.62a.55.55,0,0,1-.48-.28.54.54,0,0,1,.21-.74l.05,0a.55.55,0,0,1,.75.2.54.54,0,0,1-.2.74l-.06,0A.5.5,0,0,1,184.55,129.38Zm-5.65-.06a.55.55,0,0,1-.28-.07l-.05,0a.53.53,0,0,1-.19-.75.56.56,0,0,1,.76-.18l0,0a.54.54,0,0,1,.2.74A.55.55,0,0,1,178.9,129.32Zm7.19-1.17a.58.58,0,0,1-.37-.13.53.53,0,0,1-.05-.76l0,0a.56.56,0,0,1,.78-.07.55.55,0,0,1,.07.77l0,0A.55.55,0,0,1,186.09,128.15Zm-8.7-.09a.52.52,0,0,1-.42-.19l0-.05a.52.52,0,0,1,.08-.76.56.56,0,0,1,.78.08l0,0a.53.53,0,0,1-.08.76A.55.55,0,0,1,177.39,128.06Zm9.71-1.58a.69.69,0,0,1-.2,0,.54.54,0,0,1-.32-.7l0,0a.55.55,0,0,1,1,.37l0,0A.56.56,0,0,1,187.1,126.48Zm-10.68-.1a.56.56,0,0,1-.53-.36l0-.06a.55.55,0,0,1,1-.35l0,0a.55.55,0,0,1-.34.7A.57.57,0,0,1,176.42,126.38Zm11-1.8h0a.55.55,0,0,1-.55-.55v0a.55.55,0,0,1,.55-.54.54.54,0,0,1,.55.54V124A.55.55,0,0,1,187.46,124.58Zm-11.37-.12h0a.54.54,0,0,1-.55-.54v-.06a.54.54,0,0,1,.55-.53h0a.55.55,0,0,1,.54.55v.05A.55.55,0,0,1,176.09,124.46Zm11.09-1.68a.56.56,0,0,1-.53-.37l0,0a.55.55,0,0,1,.35-.69.56.56,0,0,1,.7.34l0,.06a.53.53,0,0,1-.35.68Zm-10.72-.22a.48.48,0,0,1-.2,0,.53.53,0,0,1-.32-.69l0-.06a.56.56,0,0,1,.72-.31.54.54,0,0,1,.31.7v0A.58.58,0,0,1,176.46,122.56Zm9.78-1.49a.57.57,0,0,1-.44-.2l0,0a.54.54,0,0,1,.08-.76.56.56,0,0,1,.78.08l0,0a.53.53,0,0,1-.09.76A.6.6,0,0,1,186.24,121.07Zm-8.77-.18a.54.54,0,0,1-.42-.89l0,0a.57.57,0,0,1,.78,0,.54.54,0,0,1,0,.77l0,0A.54.54,0,0,1,177.47,120.89Zm7.28-1.1a.57.57,0,0,1-.29-.09l0,0a.54.54,0,0,1-.19-.74.56.56,0,0,1,.76-.19l0,0a.54.54,0,0,1,.19.75A.59.59,0,0,1,184.75,119.79Zm-5.74-.12a.55.55,0,0,1-.49-.28.54.54,0,0,1,.22-.74l0,0a.57.57,0,0,1,.75.22.53.53,0,0,1-.22.73l0,0A.68.68,0,0,1,179,119.67Zm3.9-.6h-.16a.54.54,0,0,1-.44-.63A.56.56,0,0,1,183,118H183a.54.54,0,0,1,.43.64A.54.54,0,0,1,182.91,119.07Zm-2,0a.55.55,0,0,1-.55-.46.53.53,0,0,1,.46-.61h.06A.54.54,0,1,1,181,119h-.13Z"/><path class="cls-3" d="M183.29,134.1a.92.92,0,0,1-.91-.76.91.91,0,0,1,.77-1l.08,0a.92.92,0,0,1,1.07.75.9.9,0,0,1-.76,1l-.1,0Zm-3.22,0-.17,0-.1,0a.92.92,0,0,1-.74-1.06.94.94,0,0,1,1.09-.72l.08,0a.91.91,0,0,1,.75,1A.92.92,0,0,1,180.07,134.07Zm6.36-1a1,1,0,0,1-.81-.46.9.9,0,0,1,.36-1.24l.07,0a.94.94,0,0,1,1.27.34.9.9,0,0,1-.35,1.24l-.08,0A1.07,1.07,0,0,1,186.43,133Zm-9.48-.09a.9.9,0,0,1-.47-.13l-.09-.05a.9.9,0,0,1-.31-1.25,1,1,0,0,1,1.27-.31l.07.05a.89.89,0,0,1,.33,1.24A.92.92,0,0,1,177,132.94ZM189,131a.91.91,0,0,1-.6-.22.9.9,0,0,1-.1-1.28l0-.06a1,1,0,0,1,1.31-.11.9.9,0,0,1,.11,1.28l-.07.08A.91.91,0,0,1,189,131Zm-14.57-.14a1,1,0,0,1-.72-.33l-.06-.08a.89.89,0,0,1,.13-1.28,1,1,0,0,1,1.31.14l0,.06a.9.9,0,0,1-.12,1.28A1,1,0,0,1,174.43,130.83Zm16.27-2.65a1,1,0,0,1-.33-.06.9.9,0,0,1-.54-1.17l0-.08a.94.94,0,0,1,1.19-.54.91.91,0,0,1,.55,1.17l0,.09A.93.93,0,0,1,190.7,128.18ZM172.79,128a.94.94,0,0,1-.88-.61l0-.09a.89.89,0,0,1,.58-1.15.93.93,0,0,1,1.18.56l0,.08a.91.91,0,0,1-.56,1.16A1.12,1.12,0,0,1,172.79,128Zm18.52-3h0a.91.91,0,0,1-.92-.91V124a.93.93,0,0,1,1.85,0v.09A.91.91,0,0,1,191.31,125Zm-19.06-.19h0a.91.91,0,0,1-.92-.92v-.09a.92.92,0,0,1,.93-.89h0a.92.92,0,0,1,.91.92v.09A.91.91,0,0,1,172.25,124.79ZM190.83,122a.92.92,0,0,1-.88-.63l0-.07a.91.91,0,0,1,.58-1.16,1,1,0,0,1,1.18.57l0,.1a.9.9,0,0,1-.59,1.14A1,1,0,0,1,190.83,122Zm-18-.37a1,1,0,0,1-.33-.06.9.9,0,0,1-.54-1.17l0-.09a.93.93,0,0,1,1.2-.52.9.9,0,0,1,.53,1.17l0,.08A.94.94,0,0,1,172.86,121.6Zm16.39-2.49a1,1,0,0,1-.73-.35l-.05-.06a.9.9,0,0,1,.14-1.28,1,1,0,0,1,1.31.14l.06.08a.89.89,0,0,1-.15,1.27A1,1,0,0,1,189.25,119.11Zm-14.69-.31a.94.94,0,0,1-.61-.22.89.89,0,0,1-.09-1.28l.06-.07a.94.94,0,0,1,1.31-.08.89.89,0,0,1,.08,1.28l-.05.06A.91.91,0,0,1,174.56,118.8ZM186.77,117a.87.87,0,0,1-.49-.14l-.07,0a.88.88,0,0,1-.31-1.24.93.93,0,0,1,1.27-.31l.09,0a.9.9,0,0,1,.3,1.25A1,1,0,0,1,186.77,117Zm-9.64-.2a.94.94,0,0,1-.81-.47.89.89,0,0,1,.36-1.23l.09,0a.93.93,0,0,1,1.25.36.89.89,0,0,1-.36,1.23l-.08,0A.92.92,0,0,1,177.13,116.75Zm6.55-1h-.19l-.08,0a.9.9,0,0,1-.73-1.06.92.92,0,0,1,1.08-.72l.1,0a.91.91,0,0,1,.73,1.07A.92.92,0,0,1,183.68,115.75Zm-3.41-.07a.9.9,0,0,1-.15-1.8h.1a.91.91,0,1,1,.28,1.79h-.23Z"/></g><g class="cls-2"><path class="cls-3" d="M155.41,95.73a1.57,1.57,0,0,1-.25-3.13l.14,0a1.61,1.61,0,0,1,1.86,1.29,1.58,1.58,0,0,1-1.32,1.82l-.17,0A1.18,1.18,0,0,1,155.41,95.73Zm-5.6,0a1.43,1.43,0,0,1-.29,0l-.18,0a1.57,1.57,0,0,1-1.27-1.84A1.6,1.6,0,0,1,150,92.53l.14,0a1.58,1.58,0,0,1-.28,3.13Zm11.05-1.8a1.63,1.63,0,0,1-1.41-.8,1.57,1.57,0,0,1,.62-2.15l.12-.07a1.64,1.64,0,0,1,2.2.58,1.56,1.56,0,0,1-.59,2.15l-.16.09A1.59,1.59,0,0,1,160.86,93.88Zm-16.46-.17a1.66,1.66,0,0,1-.81-.21l-.15-.09a1.55,1.55,0,0,1-.55-2.16,1.61,1.61,0,0,1,2.2-.54l.13.07a1.56,1.56,0,0,1,.57,2.16A1.61,1.61,0,0,1,144.4,93.71Zm20.91-3.4a1.67,1.67,0,0,1-1.05-.38,1.56,1.56,0,0,1-.16-2.23l.09-.1a1.63,1.63,0,0,1,2.27-.19,1.55,1.55,0,0,1,.19,2.22l-.12.13A1.62,1.62,0,0,1,165.31,90.31ZM140,90.05a1.58,1.58,0,0,1-1.24-.57l-.12-.13a1.57,1.57,0,0,1,.24-2.22,1.65,1.65,0,0,1,2.27.24l.09.11a1.54,1.54,0,0,1-.22,2.21A1.57,1.57,0,0,1,140,90.05Zm28.24-4.59a1.63,1.63,0,0,1-.57-.1,1.57,1.57,0,0,1-.94-2l.05-.14a1.63,1.63,0,0,1,2.07-.93,1.57,1.57,0,0,1,1,2l-.06.16A1.62,1.62,0,0,1,168.26,85.46Zm-31.08-.31a1.61,1.61,0,0,1-1.52-1.05l-.06-.17a1.56,1.56,0,0,1,1-2,1.62,1.62,0,0,1,2,1s0,.09,0,.13a1.58,1.58,0,0,1-1,2A1.7,1.7,0,0,1,137.18,85.15Zm32.14-5.24h0a1.58,1.58,0,0,1-1.59-1.59v-.14a1.61,1.61,0,0,1,3.22,0v.17A1.58,1.58,0,0,1,169.32,79.91Zm-33.08-.33h0A1.59,1.59,0,0,1,134.63,78v-.17a1.6,1.6,0,0,1,1.61-1.55h0a1.6,1.6,0,0,1,1.58,1.61V78A1.59,1.59,0,0,1,136.24,79.58Zm32.24-4.9A1.6,1.6,0,0,1,167,73.59s0-.08-.05-.13a1.56,1.56,0,0,1,1-2,1.62,1.62,0,0,1,2,1l.06.16a1.58,1.58,0,0,1-1,2A1.81,1.81,0,0,1,168.48,74.68ZM137.3,74a1.63,1.63,0,0,1-.57-.1,1.57,1.57,0,0,1-.94-2c0-.06.05-.11.07-.17a1.61,1.61,0,0,1,2.08-.89,1.56,1.56,0,0,1,.92,2l-.05.13A1.62,1.62,0,0,1,137.3,74Zm28.45-4.32a1.61,1.61,0,0,1-1.26-.6L164.4,69a1.56,1.56,0,0,1,.24-2.22,1.63,1.63,0,0,1,2.26.24l.11.13a1.56,1.56,0,0,1-.26,2.22A1.7,1.7,0,0,1,165.75,69.72Zm-25.5-.53a1.65,1.65,0,0,1-1.05-.38,1.54,1.54,0,0,1-.17-2.22l.12-.14a1.63,1.63,0,0,1,2.27-.13,1.54,1.54,0,0,1,.14,2.22l-.09.1A1.6,1.6,0,0,1,140.25,69.19ZM161.44,66a1.6,1.6,0,0,1-.84-.24l-.13-.07a1.56,1.56,0,0,1-.55-2.16,1.63,1.63,0,0,1,2.21-.54l.15.09a1.56,1.56,0,0,1,.53,2.17A1.62,1.62,0,0,1,161.44,66Zm-16.73-.35a1.61,1.61,0,0,1-1.4-.8,1.56,1.56,0,0,1,.62-2.15l.15-.08a1.63,1.63,0,0,1,2.19.62,1.56,1.56,0,0,1-.64,2.14l-.13.07A1.6,1.6,0,0,1,144.71,65.62Zm11.37-1.72a1.17,1.17,0,0,1-.32,0l-.14,0A1.58,1.58,0,0,1,154.34,62a1.62,1.62,0,0,1,1.89-1.25l.17,0a1.58,1.58,0,0,1,1.26,1.86A1.62,1.62,0,0,1,156.08,63.9Zm-5.92-.12a1.58,1.58,0,0,1-.25-3.14l.17,0A1.6,1.6,0,0,1,151.91,62a1.57,1.57,0,0,1-1.36,1.78l-.14,0Z"/><path class="cls-3" d="M154.68,90.85a1.16,1.16,0,0,1-1.15-1,1.14,1.14,0,0,1,1-1.3l.1,0a1.17,1.17,0,0,1,1.34.93,1.13,1.13,0,0,1-.95,1.31l-.13,0Zm-4,0-.21,0-.13,0a1.13,1.13,0,0,1-.92-1.33,1.16,1.16,0,0,1,1.36-.9l.1,0a1.14,1.14,0,0,1,.94,1.32A1.17,1.17,0,0,1,150.64,90.81Zm8-1.3a1.18,1.18,0,0,1-1-.58,1.13,1.13,0,0,1,.45-1.55l.09,0a1.18,1.18,0,0,1,1.59.42,1.14,1.14,0,0,1-.43,1.55l-.11.06A1.18,1.18,0,0,1,158.61,89.51Zm-11.88-.12a1.16,1.16,0,0,1-.59-.16l-.1-.06a1.13,1.13,0,0,1-.4-1.56,1.17,1.17,0,0,1,1.59-.39l.09,0a1.13,1.13,0,0,1,.42,1.56A1.18,1.18,0,0,1,146.73,89.39Zm15.1-2.46a1.15,1.15,0,0,1-.76-.28,1.11,1.11,0,0,1-.12-1.6L161,85a1.18,1.18,0,0,1,1.64-.13,1.12,1.12,0,0,1,.14,1.6.39.39,0,0,0-.08.1A1.18,1.18,0,0,1,161.83,86.93Zm-18.26-.18a1.15,1.15,0,0,1-.9-.42l-.08-.09a1.13,1.13,0,0,1,.17-1.6,1.18,1.18,0,0,1,1.64.17l.06.08a1.12,1.12,0,0,1-.15,1.6A1.21,1.21,0,0,1,143.57,86.75ZM164,83.43a1.18,1.18,0,0,1-.41-.07,1.14,1.14,0,0,1-.68-1.47l0-.09a1.17,1.17,0,0,1,1.49-.68,1.13,1.13,0,0,1,.69,1.46s0,.08,0,.11A1.17,1.17,0,0,1,164,83.43Zm-22.43-.23a1.17,1.17,0,0,1-1.1-.75s0-.08,0-.12a1.14,1.14,0,0,1,.73-1.45,1.17,1.17,0,0,1,1.47.71l0,.1a1.13,1.13,0,0,1-.7,1.45A1.32,1.32,0,0,1,141.52,83.2Zm23.19-3.77h0a1.16,1.16,0,0,1-1.15-1.15v-.1a1.16,1.16,0,0,1,2.32,0v.12A1.14,1.14,0,0,1,164.71,79.43Zm-23.87-.24h0A1.15,1.15,0,0,1,139.68,78v-.13a1.15,1.15,0,0,1,1.16-1.11h0A1.14,1.14,0,0,1,142,78v.11A1.14,1.14,0,0,1,140.84,79.19Zm23.27-3.54a1.15,1.15,0,0,1-1.1-.78l0-.1a1.13,1.13,0,0,1,.72-1.44,1.17,1.17,0,0,1,1.48.71.56.56,0,0,0,0,.12,1.13,1.13,0,0,1-.74,1.43A1.19,1.19,0,0,1,164.11,75.65Zm-22.5-.46a1.15,1.15,0,0,1-.41-.08,1.12,1.12,0,0,1-.68-1.46l0-.12a1.18,1.18,0,0,1,1.5-.65,1.14,1.14,0,0,1,.66,1.48l0,.09A1.14,1.14,0,0,1,141.61,75.19Zm20.53-3.12a1.18,1.18,0,0,1-.91-.43l-.07-.08a1.12,1.12,0,0,1,.18-1.6,1.17,1.17,0,0,1,1.63.17l.08.1a1.11,1.11,0,0,1-.19,1.59A1.15,1.15,0,0,1,162.14,72.07Zm-18.41-.38a1.15,1.15,0,0,1-.75-.28,1.11,1.11,0,0,1-.12-1.6l.08-.1a1.19,1.19,0,0,1,1.64-.1,1.12,1.12,0,0,1,.1,1.61l-.06.07A1.16,1.16,0,0,1,143.73,71.69ZM159,69.36a1.13,1.13,0,0,1-.61-.17l-.09,0a1.11,1.11,0,0,1-.39-1.56,1.17,1.17,0,0,1,1.59-.39l.11.07a1.12,1.12,0,0,1,.38,1.56A1.16,1.16,0,0,1,159,69.36ZM147,69.11a1.18,1.18,0,0,1-1-.58,1.12,1.12,0,0,1,.45-1.54l.11-.06a1.17,1.17,0,0,1,1.58.45,1.12,1.12,0,0,1-.46,1.54l-.1,0A1.14,1.14,0,0,1,147,69.11Zm8.2-1.24a.91.91,0,0,1-.23,0h-.1a1.14,1.14,0,0,1-.92-1.34,1.16,1.16,0,0,1,1.36-.9l.12,0A1.13,1.13,0,0,1,156.3,67,1.16,1.16,0,0,1,155.16,67.87Zm-4.27-.09a1.15,1.15,0,0,1-1.15-1,1.14,1.14,0,0,1,1-1.3l.13,0a1.16,1.16,0,0,1,1.32,1,1.14,1.14,0,0,1-1,1.29l-.1,0Z"/><path class="cls-3" d="M154.68,91a1,1,0,0,1-.3,0l.06-.26a1,1,0,0,0,.24,0Zm-4.05,0-.23,0h-.06l0-.26h.24Zm8-1.3a1.53,1.53,0,0,1-.3,0l.06-.26a1,1,0,0,0,.24,0Zm-11.88-.12a1.53,1.53,0,0,1-.3,0l.06-.26a1,1,0,0,0,.24,0Zm15.1-2.46a1.55,1.55,0,0,1-.31,0l.07-.26a1,1,0,0,0,.24,0Zm-18.26-.18a1,1,0,0,1-.3,0l.06-.25.24,0ZM164,83.56a1.53,1.53,0,0,1-.3,0l.06-.26a1,1,0,0,0,.24,0Zm-22.43-.22a1,1,0,0,1-.3,0l.06-.26a1,1,0,0,0,.24,0Zm23.19-3.78h0a1.43,1.43,0,0,1-.29,0l.06-.26.23,0Zm-23.87-.24h0a1.33,1.33,0,0,1-.28,0l.06-.26.23,0Zm23.27-3.54a1.53,1.53,0,0,1-.3,0l.07-.26a.85.85,0,0,0,.23,0Zm-22.5-.46a1.45,1.45,0,0,1-.3,0l.06-.26.24,0Zm20.53-3.12a1.53,1.53,0,0,1-.3,0l.06-.26a1,1,0,0,0,.24,0Zm-18.41-.38a1.53,1.53,0,0,1-.3,0l.07-.26a.85.85,0,0,0,.23,0ZM159,69.5a1,1,0,0,1-.3,0l.06-.26a1,1,0,0,0,.24,0ZM147,69.25a1,1,0,0,1-.3,0l.06-.26a1,1,0,0,0,.24,0Zm8.2-1.25-.26,0h0l.06-.26h0a.75.75,0,0,0,.21,0Zm-4.27-.09a1.55,1.55,0,0,1-.31,0l.07-.26a.93.93,0,0,0,.24,0Z"/><path class="cls-3" d="M153.17,80.78a.24.24,0,0,1,0-.47h0a.24.24,0,0,1,.28.19.24.24,0,0,1-.2.27h-.06Zm-.83,0h-.07a.23.23,0,0,1-.19-.27.24.24,0,0,1,.28-.19h0a.23.23,0,0,1,.19.27A.24.24,0,0,1,152.34,80.77ZM154,80.5a.22.22,0,0,1-.21-.12.23.23,0,0,1,.09-.32h0a.26.26,0,0,1,.33.09.24.24,0,0,1-.09.32h0A.2.2,0,0,1,154,80.5Zm-2.45,0a.27.27,0,0,1-.12,0l0,0a.23.23,0,0,1-.08-.32.24.24,0,0,1,.33-.08h0a.23.23,0,0,1,.09.32A.25.25,0,0,1,151.53,80.48Zm3.11-.51a.25.25,0,0,1-.16-.06.23.23,0,0,1,0-.33h0a.25.25,0,0,1,.34,0,.24.24,0,0,1,0,.33l0,0A.25.25,0,0,1,154.64,80Zm-3.76,0a.23.23,0,0,1-.18-.08l0,0a.23.23,0,0,1,0-.33.24.24,0,0,1,.33,0l0,0a.23.23,0,0,1,0,.33A.21.21,0,0,1,150.88,79.93Zm4.2-.68H155a.25.25,0,0,1-.14-.31v0a.24.24,0,0,1,.31-.13.23.23,0,0,1,.14.3v0A.24.24,0,0,1,155.08,79.25Zm-4.62,0a.25.25,0,0,1-.23-.15v0a.23.23,0,0,1,.15-.29.24.24,0,0,1,.31.14v0a.23.23,0,0,1-.14.3Zm4.77-.77h0a.23.23,0,0,1-.23-.24v0a.23.23,0,0,1,.23-.23.23.23,0,0,1,.24.23v0A.23.23,0,0,1,155.23,78.43Zm-4.91-.05h0a.24.24,0,0,1-.24-.24v0a.23.23,0,0,1,.24-.23h0a.24.24,0,0,1,.24.24v0A.24.24,0,0,1,150.32,78.38Zm4.79-.73a.25.25,0,0,1-.23-.16v0a.23.23,0,0,1,.15-.3.24.24,0,0,1,.3.15v0a.24.24,0,0,1-.15.3Zm-4.63-.1h-.09a.24.24,0,0,1-.14-.3v0a.24.24,0,0,1,.31-.13.23.23,0,0,1,.14.3v0A.22.22,0,0,1,150.48,77.55Zm4.22-.64a.21.21,0,0,1-.18-.09h0a.24.24,0,0,1,0-.33.25.25,0,0,1,.34,0v0a.23.23,0,0,1,0,.33A.2.2,0,0,1,154.7,76.91Zm-3.78-.08a.22.22,0,0,1-.16,0,.24.24,0,0,1,0-.33l0,0a.24.24,0,0,1,.34,0,.23.23,0,0,1,0,.33h0A.23.23,0,0,1,150.92,76.83Zm3.14-.47a.28.28,0,0,1-.12,0h0a.23.23,0,0,1-.08-.32.24.24,0,0,1,.33-.08h0a.23.23,0,0,1,.08.32A.25.25,0,0,1,154.06,76.36Zm-2.48-.06a.24.24,0,0,1-.21-.12.23.23,0,0,1,.09-.31l0,0a.24.24,0,0,1,.33.1.22.22,0,0,1-.1.31h0A.27.27,0,0,1,151.58,76.3Zm1.69-.25h-.07a.24.24,0,0,1-.19-.28.23.23,0,0,1,.28-.18h0a.24.24,0,0,1,.18.28A.24.24,0,0,1,153.27,76.05Zm-.88,0a.24.24,0,0,1,0-.47h0a.24.24,0,0,1,.27.2.23.23,0,0,1-.2.26h-.06Z"/><path class="cls-3" d="M153.52,83.13a.46.46,0,0,1-.45-.38.43.43,0,0,1,.38-.5h0a.45.45,0,1,1,.15.88h-.12Zm-1.58,0h-.13a.44.44,0,0,1-.36-.52.45.45,0,0,1,.53-.36h0a.45.45,0,0,1,.37.52A.46.46,0,0,1,151.94,83.11Zm3.12-.5a.48.48,0,0,1-.4-.23.45.45,0,0,1,.18-.61l0,0a.46.46,0,0,1,.62.17.43.43,0,0,1-.17.6l0,0A.46.46,0,0,1,155.06,82.61Zm-4.65,0a.46.46,0,0,1-.23-.06l0,0a.43.43,0,0,1-.16-.61.46.46,0,0,1,.63-.15l0,0a.43.43,0,0,1,.16.61A.44.44,0,0,1,150.41,82.56Zm5.91-1a.48.48,0,0,1-.3-.11.44.44,0,0,1-.05-.63l0,0a.46.46,0,0,1,.64,0,.43.43,0,0,1,.06.62l0,0A.46.46,0,0,1,156.32,81.6Zm-7.15-.08a.44.44,0,0,1-.35-.16l0,0a.44.44,0,0,1,.07-.63.46.46,0,0,1,.64.07l0,0a.44.44,0,0,1-.35.72Zm8-1.29a.45.45,0,0,1-.16,0,.45.45,0,0,1-.27-.57l0,0a.46.46,0,0,1,.58-.27.44.44,0,0,1,.27.57v0A.46.46,0,0,1,157.15,80.23Zm-8.78-.09a.46.46,0,0,1-.43-.3v0a.44.44,0,0,1,.28-.57.46.46,0,0,1,.58.28v0a.44.44,0,0,1-.28.56Zm9.08-1.48h0a.45.45,0,0,1-.45-.45v0a.45.45,0,0,1,.46-.44.45.45,0,0,1,.45.44v0A.45.45,0,0,1,157.45,78.66Zm-9.34-.09h0a.46.46,0,0,1-.45-.45v-.05a.46.46,0,0,1,.46-.44h0a.45.45,0,0,1,.44.46v0A.45.45,0,0,1,148.11,78.57Zm9.1-1.39a.45.45,0,0,1-.43-.3v0a.45.45,0,0,1,.28-.57.47.47,0,0,1,.58.28l0,0a.46.46,0,0,1-.29.56A.39.39,0,0,1,157.21,77.18Zm-8.8-.18a.41.41,0,0,1-.16,0,.43.43,0,0,1-.27-.57l0-.05a.46.46,0,0,1,.85.33l0,0A.45.45,0,0,1,148.41,77Zm8-1.22a.48.48,0,0,1-.36-.17l0,0a.43.43,0,0,1,.07-.62.46.46,0,0,1,.64.06l0,0a.44.44,0,0,1-.08.62A.42.42,0,0,1,156.44,75.78Zm-7.2-.15a.45.45,0,0,1-.35-.73l0,0a.47.47,0,0,1,.64,0,.44.44,0,0,1,0,.63l0,0A.45.45,0,0,1,149.24,75.63Zm6-.91a.46.46,0,0,1-.23-.06l0,0a.45.45,0,0,1-.15-.62.46.46,0,0,1,.62-.15l0,0a.44.44,0,0,1-.24.82Zm-4.72-.1a.47.47,0,0,1-.4-.22.45.45,0,0,1,.18-.61l0,0a.46.46,0,0,1,.62.17.45.45,0,0,1-.18.61l0,0A.42.42,0,0,1,150.5,74.62Zm3.21-.48h-.13a.44.44,0,0,1-.36-.52.45.45,0,0,1,.53-.35h.05a.44.44,0,0,1,.36.52A.47.47,0,0,1,153.71,74.14Zm-1.67,0a.44.44,0,0,1-.45-.37.45.45,0,0,1,.38-.51H152a.45.45,0,0,1,.51.38.43.43,0,0,1-.38.5H152Z"/><path class="cls-3" d="M154,86.49a.77.77,0,0,1-.75-.63.76.76,0,0,1,.63-.86H154a.76.76,0,0,1,.88.61.75.75,0,0,1-.62.86l-.08,0Zm-2.65,0h-.14l-.08,0a.75.75,0,0,1-.6-.87.75.75,0,0,1,.89-.59h.07a.74.74,0,0,1,.61.87A.76.76,0,0,1,151.37,86.46Zm5.23-.85a.77.77,0,0,1-.66-.38.74.74,0,0,1,.29-1l.06,0a.77.77,0,0,1,1,.27.74.74,0,0,1-.28,1l-.08,0A.69.69,0,0,1,156.6,85.61Zm-7.79-.08a.75.75,0,0,1-.38-.1l-.08-.05a.74.74,0,0,1-.26-1,.77.77,0,0,1,1-.25l.06,0a.74.74,0,0,1,.27,1A.76.76,0,0,1,148.81,85.53Zm9.9-1.61a.76.76,0,0,1-.49-.18.74.74,0,0,1-.08-1.06l0-.05a.79.79,0,0,1,1.08-.09.75.75,0,0,1,.09,1.06l-.06.06A.77.77,0,0,1,158.71,83.92Zm-12-.12a.77.77,0,0,1-.59-.28l-.06-.06a.74.74,0,0,1,.12-1,.77.77,0,0,1,1.07.11l0,.06a.73.73,0,0,1-.1,1A.78.78,0,0,1,146.74,83.8Zm13.37-2.18a.65.65,0,0,1-.27-.05.75.75,0,0,1-.45-1l0-.06a.77.77,0,0,1,1-.45.74.74,0,0,1,.45,1l0,.08A.75.75,0,0,1,160.11,81.62Zm-14.72-.15a.77.77,0,0,1-.72-.49l0-.08a.75.75,0,0,1,.48-1,.78.78,0,0,1,1,.47l0,.06a.74.74,0,0,1-.46,1A.82.82,0,0,1,145.39,81.47ZM160.61,79h0a.74.74,0,0,1-.75-.75v-.07a.76.76,0,0,1,1.52,0v.09A.75.75,0,0,1,160.61,79ZM145,78.84h0a.77.77,0,0,1-.76-.76V78a.75.75,0,0,1,.76-.73h0a.76.76,0,0,1,.75.76v.07A.76.76,0,0,1,145,78.84Zm15.27-2.32a.76.76,0,0,1-.73-.52l0-.06a.75.75,0,0,1,.48-1,.76.76,0,0,1,1,.47l0,.08a.75.75,0,0,1-.49.94A1,1,0,0,1,160.22,76.52Zm-14.77-.31a.65.65,0,0,1-.27,0,.74.74,0,0,1-.44-1l0-.07a.76.76,0,0,1,1.42.54l0,.06A.75.75,0,0,1,145.45,76.21Zm13.47-2a.77.77,0,0,1-.6-.29l0,0a.74.74,0,0,1,.11-1,.77.77,0,0,1,1.07.11l.06.07a.73.73,0,0,1-.13,1A.75.75,0,0,1,158.92,74.17Zm-12.08-.25a.76.76,0,0,1-.49-.18.74.74,0,0,1-.08-1.06l0-.06a.77.77,0,0,1,1.08-.06.74.74,0,0,1,.07,1l-.05,0A.77.77,0,0,1,146.84,73.92Zm10-1.53a.71.71,0,0,1-.4-.11l-.06,0a.74.74,0,0,1-.26-1,.78.78,0,0,1,1.05-.25l.07,0a.74.74,0,0,1,.25,1A.77.77,0,0,1,156.88,72.39ZM149,72.23a.78.78,0,0,1-.67-.38.75.75,0,0,1,.3-1l.07,0a.77.77,0,0,1,1,.3.73.73,0,0,1-.3,1l-.06,0A.71.71,0,0,1,149,72.23Zm5.38-.82a.39.39,0,0,1-.15,0h-.07a.75.75,0,0,1-.6-.87.75.75,0,0,1,.89-.59h.08a.75.75,0,0,1-.15,1.48Zm-2.8-.06a.76.76,0,0,1-.76-.63.75.75,0,0,1,.64-.85h.08a.77.77,0,0,1,.87.63.75.75,0,0,1-.65.84h-.18Z"/></g><g class="cls-2"><path class="cls-3" d="M244.63,116.73a1.7,1.7,0,0,1-.27-3.39l.16,0a1.74,1.74,0,0,1,2,1.4,1.72,1.72,0,0,1-1.43,2l-.19,0A1.27,1.27,0,0,1,244.63,116.73Zm-6.07-.06a1.72,1.72,0,0,1-.32,0l-.19,0a1.7,1.7,0,0,1-1.38-2,1.74,1.74,0,0,1,2-1.36l.16,0a1.7,1.7,0,0,1,1.4,2A1.73,1.73,0,0,1,238.56,116.67Zm12-2a1.74,1.74,0,0,1-1.53-.87,1.7,1.7,0,0,1,.67-2.33l.14-.07a1.76,1.76,0,0,1,2.38.63,1.69,1.69,0,0,1-.64,2.33l-.17.09A1.74,1.74,0,0,1,250.55,114.72Zm-17.86-.18a1.79,1.79,0,0,1-.89-.23l-.16-.1a1.69,1.69,0,0,1-.6-2.35,1.78,1.78,0,0,1,2.4-.58l.13.08a1.68,1.68,0,0,1,.62,2.34A1.73,1.73,0,0,1,232.69,114.54Zm22.7-3.69a1.77,1.77,0,0,1-1.15-.42,1.68,1.68,0,0,1-.18-2.41l.1-.12a1.78,1.78,0,0,1,2.47-.2,1.69,1.69,0,0,1,.21,2.41l-.13.14A1.74,1.74,0,0,1,255.39,110.85Zm-27.46-.28a1.77,1.77,0,0,1-1.35-.62l-.12-.15a1.68,1.68,0,0,1,.26-2.4,1.77,1.77,0,0,1,2.46.25l.1.12a1.7,1.7,0,0,1-.24,2.41A1.79,1.79,0,0,1,227.93,110.57Zm30.65-5a1.73,1.73,0,0,1-.62-.11,1.69,1.69,0,0,1-1-2.2l.05-.15a1.76,1.76,0,0,1,2.24-1,1.69,1.69,0,0,1,1,2.19l-.06.18A1.76,1.76,0,0,1,258.58,105.58Zm-33.73-.34a1.73,1.73,0,0,1-1.65-1.14,1.34,1.34,0,0,0-.07-.18,1.71,1.71,0,0,1,1.09-2.17,1.76,1.76,0,0,1,2.22,1.07l.05.14a1.73,1.73,0,0,1-1.64,2.28Zm34.88-5.68h0A1.73,1.73,0,0,1,258,97.84v-.16a1.75,1.75,0,0,1,3.5,0v.19A1.71,1.71,0,0,1,259.73,99.56Zm-35.9-.36h0a1.72,1.72,0,0,1-1.73-1.73v-.18a1.74,1.74,0,0,1,1.75-1.68h0a1.73,1.73,0,0,1,1.71,1.75v.15A1.72,1.72,0,0,1,223.83,99.2Zm35-5.32a1.74,1.74,0,0,1-1.66-1.18.58.58,0,0,1-.05-.14,1.7,1.7,0,0,1,1.09-2.17,1.75,1.75,0,0,1,2.21,1.07,1.34,1.34,0,0,1,.07.18,1.71,1.71,0,0,1-1.12,2.16A2,2,0,0,1,258.83,93.88ZM225,93.19a1.67,1.67,0,0,1-.62-.12,1.7,1.7,0,0,1-1-2.2c0-.06,0-.12.07-.17a1.77,1.77,0,0,1,2.26-1,1.7,1.7,0,0,1,1,2.21l-.06.15A1.75,1.75,0,0,1,225,93.19Zm30.88-4.7a1.75,1.75,0,0,1-1.37-.64l-.1-.12a1.69,1.69,0,0,1,.26-2.41,1.78,1.78,0,0,1,2.46.26l.12.14a1.69,1.69,0,0,1-.29,2.4A1.74,1.74,0,0,1,255.86,88.49Zm-27.68-.57a1.74,1.74,0,0,1-1.14-.41,1.68,1.68,0,0,1-.18-2.41L227,85a1.79,1.79,0,0,1,2.47-.15,1.69,1.69,0,0,1,.15,2.42l-.1.11A1.75,1.75,0,0,1,228.18,87.92Zm23-3.49a1.74,1.74,0,0,1-.92-.26l-.13-.08a1.69,1.69,0,0,1-.6-2.34,1.78,1.78,0,0,1,2.4-.59l.17.1a1.69,1.69,0,0,1,.57,2.35A1.75,1.75,0,0,1,251.18,84.43ZM233,84.05a1.74,1.74,0,0,1-1.53-.87,1.69,1.69,0,0,1,.67-2.33l.17-.09a1.77,1.77,0,0,1,2.37.68,1.7,1.7,0,0,1-.69,2.32l-.14.08A1.87,1.87,0,0,1,233,84.05Zm12.33-1.87a1.45,1.45,0,0,1-.35,0l-.15,0a1.71,1.71,0,0,1-1.39-2,1.75,1.75,0,0,1,2.05-1.35l.19,0a1.71,1.71,0,0,1,1.36,2A1.74,1.74,0,0,1,245.36,82.18Zm-6.43-.13a1.73,1.73,0,0,1-1.72-1.45,1.71,1.71,0,0,1,1.45-1.95l.19,0a1.76,1.76,0,0,1,2,1.44A1.72,1.72,0,0,1,239.36,82l-.15,0A1.33,1.33,0,0,1,238.93,82.05Z"/><path class="cls-3" d="M243.84,111.43a1.25,1.25,0,0,1-1.24-1,1.23,1.23,0,0,1,1-1.41l.11,0a1.26,1.26,0,0,1,1.46,1,1.23,1.23,0,0,1-1,1.42l-.14,0Zm-4.39,0a.83.83,0,0,1-.22,0l-.14,0a1.24,1.24,0,0,1-1-1.45,1.26,1.26,0,0,1,1.48-1l.11,0a1.23,1.23,0,0,1,1,1.43A1.25,1.25,0,0,1,239.45,111.39Zm8.66-1.41a1.26,1.26,0,0,1-1.1-.63,1.21,1.21,0,0,1,.48-1.68l.1-.06a1.28,1.28,0,0,1,1.72.46,1.22,1.22,0,0,1-.47,1.68l-.12.07A1.24,1.24,0,0,1,248.11,110Zm-12.89-.13a1.33,1.33,0,0,1-.64-.17l-.12-.07a1.22,1.22,0,0,1-.43-1.7,1.28,1.28,0,0,1,1.73-.42l.1.06a1.21,1.21,0,0,1,.44,1.69A1.25,1.25,0,0,1,235.22,109.85Zm16.38-2.67a1.3,1.3,0,0,1-.83-.3,1.23,1.23,0,0,1-.13-1.74.6.6,0,0,1,.08-.08,1.26,1.26,0,0,1,1.77-.15,1.21,1.21,0,0,1,.15,1.74l-.09.1A1.28,1.28,0,0,1,251.6,107.18Zm-19.82-.2a1.26,1.26,0,0,1-1-.45l-.09-.1a1.22,1.22,0,0,1,.19-1.74,1.27,1.27,0,0,1,1.77.18l.07.09a1.21,1.21,0,0,1-.17,1.74A1.24,1.24,0,0,1,231.78,107Zm22.12-3.6a1.41,1.41,0,0,1-.44-.08,1.23,1.23,0,0,1-.74-1.59l0-.1a1.28,1.28,0,0,1,1.62-.74,1.22,1.22,0,0,1,.75,1.58.5.5,0,0,1,0,.13A1.25,1.25,0,0,1,253.9,103.38Zm-24.34-.25a1.25,1.25,0,0,1-1.19-.82s0-.08-.05-.13a1.23,1.23,0,0,1,.79-1.56,1.26,1.26,0,0,1,1.6.77.69.69,0,0,0,0,.1,1.22,1.22,0,0,1-.77,1.57A1.23,1.23,0,0,1,229.56,103.13ZM254.73,99h0a1.25,1.25,0,0,1-1.25-1.25v-.11a1.26,1.26,0,0,1,2.52,0v.13A1.25,1.25,0,0,1,254.73,99Zm-25.91-.26h0a1.25,1.25,0,0,1-1.25-1.25v-.14a1.26,1.26,0,0,1,1.26-1.21h0a1.23,1.23,0,0,1,1.23,1.25v.12A1.25,1.25,0,0,1,228.82,98.78Zm25.26-3.84a1.26,1.26,0,0,1-1.2-.86l0-.1a1.22,1.22,0,0,1,.79-1.56,1.27,1.27,0,0,1,1.6.77s0,.08,0,.13a1.21,1.21,0,0,1-.81,1.55A1.07,1.07,0,0,1,254.08,94.94Zm-24.43-.51a1.14,1.14,0,0,1-.44-.08,1.23,1.23,0,0,1-.74-1.59.61.61,0,0,0,.05-.12,1.29,1.29,0,0,1,1.64-.71,1.23,1.23,0,0,1,.71,1.6l0,.1A1.25,1.25,0,0,1,229.65,94.43Zm22.29-3.38a1.27,1.27,0,0,1-1-.47l-.07-.09a1.21,1.21,0,0,1,.19-1.73,1.27,1.27,0,0,1,1.77.18l.09.11a1.21,1.21,0,0,1-.21,1.73A1.27,1.27,0,0,1,251.94,91.05Zm-20-.41a1.28,1.28,0,0,1-.82-.3A1.21,1.21,0,0,1,231,88.6l.09-.11a1.28,1.28,0,0,1,1.78-.11,1.23,1.23,0,0,1,.11,1.75l-.07.08A1.28,1.28,0,0,1,232,90.64Zm16.6-2.53a1.34,1.34,0,0,1-.66-.18l-.1-.06a1.22,1.22,0,0,1-.42-1.69,1.27,1.27,0,0,1,1.73-.42l.11.07a1.21,1.21,0,0,1,.42,1.69A1.27,1.27,0,0,1,248.56,88.11Zm-13.1-.27a1.27,1.27,0,0,1-1.1-.63,1.22,1.22,0,0,1,.49-1.68l.11-.06a1.29,1.29,0,0,1,1.72.48,1.23,1.23,0,0,1-.5,1.68l-.1.05A1.27,1.27,0,0,1,235.46,87.84Zm8.9-1.35-.25,0-.11,0A1.24,1.24,0,0,1,243,85a1.26,1.26,0,0,1,1.48-1l.13,0a1.22,1.22,0,0,1,1,1.45A1.25,1.25,0,0,1,244.36,86.49Zm-4.64-.1a1.23,1.23,0,0,1-.19-2.45l.14,0a1.26,1.26,0,0,1,1.43,1,1.25,1.25,0,0,1-1.07,1.4l-.11,0Z"/><path class="cls-3" d="M243.84,111.57a1.84,1.84,0,0,1-.33,0l.07-.29a1.15,1.15,0,0,0,.26,0Zm-4.39,0-.25,0h-.07l.06-.29h.06l.2,0Zm8.66-1.41a1.24,1.24,0,0,1-.33,0l.07-.28a1.09,1.09,0,0,0,.26,0ZM235.22,110a1.24,1.24,0,0,1-.33,0l.07-.28a1.09,1.09,0,0,0,.26,0Zm16.38-2.67a1.84,1.84,0,0,1-.33,0l.07-.29a1.09,1.09,0,0,0,.26,0Zm-19.82-.2a1.66,1.66,0,0,1-.32,0l.06-.29.26,0Zm22.12-3.59a1.65,1.65,0,0,1-.32,0l.07-.28a1.07,1.07,0,0,0,.25,0Zm-24.34-.25a1.24,1.24,0,0,1-.33,0l.07-.28a1.09,1.09,0,0,0,.26,0Zm25.17-4.1h0a1.17,1.17,0,0,1-.32,0l.07-.28a1.07,1.07,0,0,0,.25,0Zm-25.91-.26h0a1.15,1.15,0,0,1-.31,0l.07-.28a1.07,1.07,0,0,0,.25,0Zm25.26-3.84a1.24,1.24,0,0,1-.33,0l.07-.28a1.15,1.15,0,0,0,.26,0Zm-24.43-.5a1.65,1.65,0,0,1-.32,0l.06-.28.26,0Zm22.29-3.39a1.24,1.24,0,0,1-.33,0l.07-.28a1.09,1.09,0,0,0,.26,0Zm-20-.41a1.12,1.12,0,0,1-.32,0l.06-.28.26,0Zm16.6-2.52a1.86,1.86,0,0,1-.33,0l.07-.28.26,0ZM235.46,88a1.86,1.86,0,0,1-.33,0l.07-.28a1.15,1.15,0,0,0,.26,0Zm8.9-1.36-.28,0h0l.06-.29h0a.82.82,0,0,0,.22,0Zm-4.64-.09a1.12,1.12,0,0,1-.32,0l.07-.28a1.07,1.07,0,0,0,.25,0Z"/><path class="cls-3" d="M242.2,100.5a.26.26,0,0,1-.25-.21.24.24,0,0,1,.21-.29h0a.26.26,0,0,1,.3.21.24.24,0,0,1-.21.29h-.07Zm-.9,0h-.08a.24.24,0,0,1-.2-.29.26.26,0,0,1,.3-.21h0a.24.24,0,0,1,.21.29A.25.25,0,0,1,241.3,100.49Zm1.78-.29a.26.26,0,0,1-.23-.13.25.25,0,0,1,.1-.34h0a.27.27,0,0,1,.36.09.25.25,0,0,1-.1.35h0A.31.31,0,0,1,243.08,100.2Zm-2.65,0a.28.28,0,0,1-.13,0h0a.26.26,0,0,1-.09-.35.27.27,0,0,1,.36-.09h0a.26.26,0,0,1-.13.48Zm3.37-.55a.23.23,0,0,1-.17-.07.24.24,0,0,1,0-.35l0,0a.25.25,0,0,1,.36,0,.25.25,0,0,1,0,.36v0A.28.28,0,0,1,243.8,99.63Zm-4.08,0a.25.25,0,0,1-.2-.09l0,0a.26.26,0,0,1,0-.36.26.26,0,0,1,.36,0l0,0a.25.25,0,0,1,0,.36A.22.22,0,0,1,239.72,99.58Zm4.55-.74h-.09a.26.26,0,0,1-.15-.33v0a.26.26,0,0,1,.33-.15.25.25,0,0,1,.16.32v0A.26.26,0,0,1,244.27,98.84Zm-5,0a.24.24,0,0,1-.24-.17v0a.25.25,0,0,1,.16-.33.27.27,0,0,1,.33.16v0a.27.27,0,0,1-.16.33Zm5.18-.84h0a.26.26,0,0,1-.26-.26v0a.26.26,0,0,1,.26-.25.25.25,0,0,1,.26.25v0A.25.25,0,0,1,244.44,98Zm-5.33,0h0a.26.26,0,0,1-.26-.26v0a.26.26,0,0,1,.26-.25h0a.26.26,0,0,1,.25.26v0A.26.26,0,0,1,239.11,97.9Zm5.2-.79a.27.27,0,0,1-.25-.18v0a.24.24,0,0,1,.16-.32.26.26,0,0,1,.33.16v0a.25.25,0,0,1-.17.32Zm-5-.11h-.09a.26.26,0,0,1-.15-.33v0a.25.25,0,0,1,.33-.14.25.25,0,0,1,.15.33v0A.25.25,0,0,1,239.28,97Zm4.59-.7a.25.25,0,0,1-.2-.09l0,0a.26.26,0,0,1,0-.36.27.27,0,0,1,.37,0v0a.26.26,0,0,1,0,.36A.24.24,0,0,1,243.87,96.3Zm-4.11-.08a.27.27,0,0,1-.17-.06.25.25,0,0,1,0-.36l0,0a.26.26,0,0,1,.37,0,.25.25,0,0,1,0,.35l0,0A.25.25,0,0,1,239.76,96.22Zm3.41-.52a.22.22,0,0,1-.13,0h0a.25.25,0,1,1,.27-.43h0a.26.26,0,0,1,.09.35A.27.27,0,0,1,243.17,95.7Zm-2.69-.06a.26.26,0,0,1-.23-.13.24.24,0,0,1,.1-.34h0a.26.26,0,0,1,.36.1.25.25,0,0,1-.11.34h0A.27.27,0,0,1,240.48,95.64Zm1.83-.27h-.07a.25.25,0,1,1,.09-.5h0a.26.26,0,0,1-.05.51Zm-1,0a.26.26,0,0,1-.25-.22.25.25,0,0,1,.21-.29h0a.26.26,0,0,1,.3.21.26.26,0,0,1-.22.29h-.07Z"/><path class="cls-3" d="M242.58,103.05a.49.49,0,0,1-.48-.4.49.49,0,0,1,.41-.56h0a.48.48,0,1,1,.17,1h-.14Zm-1.71,0h-.15a.48.48,0,1,1,.19-1h0a.48.48,0,0,1,.4.56A.49.49,0,0,1,240.87,103Zm3.38-.56a.48.48,0,0,1-.24-.9l0,0a.5.5,0,0,1,.67.18.47.47,0,0,1-.18.66l0,0A.48.48,0,0,1,244.25,102.48Zm-5,0a.54.54,0,0,1-.25-.06l-.05,0a.48.48,0,0,1-.17-.66.5.5,0,0,1,.68-.17l0,0a.49.49,0,0,1,.18.67A.51.51,0,0,1,239.21,102.43Zm6.41-1a.49.49,0,0,1-.32-.12.47.47,0,0,1-.05-.68l0,0a.49.49,0,0,1,.69-.06.47.47,0,0,1,.06.68l0,0A.48.48,0,0,1,245.62,101.39Zm-7.75-.08a.49.49,0,0,1-.38-.17l0,0a.47.47,0,0,1,.07-.67.5.5,0,0,1,.7.07l0,0a.48.48,0,0,1-.07.68A.45.45,0,0,1,237.87,101.31Zm8.65-1.41-.17,0a.48.48,0,0,1-.29-.62l0,0a.49.49,0,0,1,.63-.29.47.47,0,0,1,.29.62l0,0A.49.49,0,0,1,246.52,99.9ZM237,99.81a.5.5,0,0,1-.47-.32l0-.06a.48.48,0,0,1,.31-.61.51.51,0,0,1,.63.3v0a.48.48,0,0,1-.3.62A.45.45,0,0,1,237,99.81Zm9.85-1.61h0a.49.49,0,0,1-.49-.48v0a.5.5,0,0,1,1,0v0A.48.48,0,0,1,246.85,98.2Zm-10.14-.1h0a.49.49,0,0,1-.49-.49v0a.5.5,0,0,1,.5-.47h0a.48.48,0,0,1,.48.49v0A.48.48,0,0,1,236.71,98.1Zm9.88-1.5a.5.5,0,0,1-.47-.33v0a.48.48,0,0,1,.31-.62.49.49,0,0,1,.62.3l0,.06a.47.47,0,0,1-.31.6ZM237,96.4a.51.51,0,0,1-.17,0,.47.47,0,0,1-.29-.62l0,0a.51.51,0,0,1,.64-.28.49.49,0,0,1,.28.63l0,0A.49.49,0,0,1,237,96.4Zm8.72-1.32a.49.49,0,0,1-.38-.19l0,0a.48.48,0,0,1,.07-.68.51.51,0,0,1,.7.07l0,0a.48.48,0,0,1-.08.68A.51.51,0,0,1,245.75,95.08Zm-7.81-.16a.52.52,0,0,1-.33-.12.49.49,0,0,1-.05-.68l0,0a.51.51,0,0,1,.7,0,.49.49,0,0,1,0,.69l0,0A.5.5,0,0,1,237.94,94.92Zm6.49-1a.48.48,0,0,1-.26-.07l0,0a.47.47,0,0,1-.17-.66.5.5,0,0,1,.68-.16l0,0a.49.49,0,0,1-.26.9Zm-5.12-.11a.51.51,0,0,1-.44-.24.49.49,0,0,1,.19-.66l.05,0a.5.5,0,0,1,.67.19.49.49,0,0,1-.19.66l0,0A.53.53,0,0,1,239.31,93.82Zm3.48-.53h-.14a.47.47,0,0,1-.39-.56.49.49,0,0,1,.57-.38h.06a.48.48,0,0,1-.1,1Zm-1.82,0a.49.49,0,0,1-.48-.41.48.48,0,0,1,.41-.55h0a.48.48,0,1,1,.15.95H241Z"/><path class="cls-3" d="M243.13,106.7a.84.84,0,0,1-.82-.69.81.81,0,0,1,.69-.92h.07a.82.82,0,0,1,1,.66.81.81,0,0,1-.68.93l-.09,0Zm-2.88,0-.15,0H240a.81.81,0,0,1-.65-1,.82.82,0,0,1,1-.64h.07a.8.8,0,0,1,.66.94A.82.82,0,0,1,240.25,106.67Zm5.68-.93a.83.83,0,0,1-.72-.41.8.8,0,0,1,.31-1.1l.07,0a.84.84,0,0,1,1.13.3.8.8,0,0,1-.31,1.11l-.08,0A.79.79,0,0,1,245.93,105.74Zm-8.46-.08a.94.94,0,0,1-.42-.11l-.07,0a.8.8,0,0,1-.29-1.11.85.85,0,0,1,1.14-.28l.06,0a.8.8,0,0,1,.3,1.11A.83.83,0,0,1,237.47,105.66Zm10.75-1.75a.86.86,0,0,1-.54-.2.79.79,0,0,1-.08-1.14l0,0a.84.84,0,0,1,1.17-.1.8.8,0,0,1,.1,1.14l-.06.07A.87.87,0,0,1,248.22,103.91Zm-13-.13a.83.83,0,0,1-.64-.3l-.06-.07a.79.79,0,0,1,.13-1.13.83.83,0,0,1,1.16.12l.05,0a.8.8,0,0,1-.11,1.14A.82.82,0,0,1,235.22,103.78Zm14.51-2.36a.83.83,0,0,1-.77-1.1l0-.07a.83.83,0,0,1,1.06-.48.8.8,0,0,1,.49,1l0,.08A.83.83,0,0,1,249.73,101.42Zm-16-.17a.82.82,0,0,1-.78-.53l0-.09a.81.81,0,0,1,.52-1,.83.83,0,0,1,1.05.51l0,.06a.81.81,0,0,1-.5,1A1,1,0,0,1,233.76,101.25Zm16.52-2.68h0a.81.81,0,0,1-.82-.81v-.08a.83.83,0,0,1,1.65,0v.09A.82.82,0,0,1,250.28,98.57Zm-17-.18h0a.81.81,0,0,1-.82-.81v-.09a.83.83,0,0,1,.83-.8h0a.82.82,0,0,1,.81.83v.07A.81.81,0,0,1,233.28,98.39Zm16.57-2.51a.84.84,0,0,1-.79-.56l0-.07a.81.81,0,0,1,.52-1,.83.83,0,0,1,1.05.51l0,.08a.85.85,0,0,1-.79,1.07Zm-16-.33a.83.83,0,0,1-.77-1.1l0-.08a.83.83,0,0,1,1.07-.46.79.79,0,0,1,.47,1l0,.07A.83.83,0,0,1,233.82,95.55Zm14.62-2.23a.81.81,0,0,1-.64-.3l-.05-.06a.8.8,0,0,1,.12-1.14.85.85,0,0,1,1.17.12l.05.07a.79.79,0,0,1-.13,1.14A.83.83,0,0,1,248.44,93.32Zm-13.1-.27a.83.83,0,0,1-.54-.19.79.79,0,0,1-.09-1.14l.06-.07a.83.83,0,0,1,1.17-.07.79.79,0,0,1,.07,1.14l0,0A.8.8,0,0,1,235.34,93.05Zm10.89-1.65a.82.82,0,0,1-.43-.12l-.07,0a.8.8,0,0,1-.28-1.11.85.85,0,0,1,1.14-.28l.07.05a.79.79,0,0,1,.27,1.11A.81.81,0,0,1,246.23,91.4Zm-8.6-.18a.83.83,0,0,1-.72-.41.81.81,0,0,1,.32-1.11l.08,0a.84.84,0,0,1,1.12.32.8.8,0,0,1-.33,1.1l-.06,0A.86.86,0,0,1,237.63,91.22Zm5.84-.89h-.16l-.07,0a.81.81,0,0,1-.66-1,.84.84,0,0,1,1-.64l.09,0a.8.8,0,0,1,.64,1A.82.82,0,0,1,243.47,90.33Zm-3-.06a.81.81,0,0,1-.13-1.61h.09a.82.82,0,0,1,.94.68.81.81,0,0,1-.7.92h-.2Z"/></g><g class="cls-2"><path class="cls-3" d="M100.77,176.73a2.2,2.2,0,0,1-.35-4.38l.2,0a2.25,2.25,0,0,1,2.59,1.81,2.2,2.2,0,0,1-1.84,2.54l-.24,0A2.17,2.17,0,0,1,100.77,176.73Zm-7.84-.07a1.81,1.81,0,0,1-.4,0l-.25,0A2.21,2.21,0,0,1,90.5,174a2.24,2.24,0,0,1,2.63-1.74l.2,0a2.21,2.21,0,0,1,1.81,2.57A2.23,2.23,0,0,1,92.93,176.66Zm15.46-2.52a2.24,2.24,0,0,1-2-1.13,2.18,2.18,0,0,1,.86-3l.18-.09a2.27,2.27,0,0,1,3.07.81,2.18,2.18,0,0,1-.83,3l-.21.12A2.31,2.31,0,0,1,108.39,174.14Zm-23-.23a2.22,2.22,0,0,1-1.14-.31l-.22-.12a2.18,2.18,0,0,1-.77-3,2.28,2.28,0,0,1,3.09-.76l.18.11a2.17,2.17,0,0,1,.8,3A2.26,2.26,0,0,1,85.37,173.91Zm29.26-4.77a2.28,2.28,0,0,1-1.48-.53,2.18,2.18,0,0,1-.23-3.11l.13-.15a2.28,2.28,0,0,1,3.17-.26,2.15,2.15,0,0,1,.27,3.1,1.46,1.46,0,0,1-.16.19A2.24,2.24,0,0,1,114.63,169.14Zm-35.4-.35a2.27,2.27,0,0,1-1.73-.8l-.16-.19a2.18,2.18,0,0,1,.33-3.1,2.28,2.28,0,0,1,3.17.33l.13.15a2.18,2.18,0,0,1-.3,3.1A2.28,2.28,0,0,1,79.23,168.79Zm39.51-6.43a2.44,2.44,0,0,1-.79-.14,2.19,2.19,0,0,1-1.31-2.84l.07-.19a2.27,2.27,0,0,1,2.89-1.31,2.19,2.19,0,0,1,1.34,2.83l-.09.22A2.25,2.25,0,0,1,118.74,162.36Zm-43.48-.44a2.23,2.23,0,0,1-2.12-1.47l-.09-.23a2.2,2.2,0,0,1,1.41-2.8,2.27,2.27,0,0,1,2.86,1.38l.06.18a2.24,2.24,0,0,1-2.12,2.94Zm45-7.32h0a2.23,2.23,0,0,1-2.23-2.22v-.2a2.26,2.26,0,0,1,4.51,0v.24A2.22,2.22,0,0,1,120.22,154.6ZM74,154.14h0a2.24,2.24,0,0,1-2.23-2.23v-.24A2.23,2.23,0,0,1,74,149.51h0a2.22,2.22,0,0,1,2.21,2.25v.2A2.23,2.23,0,0,1,74,154.14Zm45.11-6.86a2.25,2.25,0,0,1-2.14-1.52l-.06-.19a2.19,2.19,0,0,1,1.4-2.79,2.33,2.33,0,0,1,2.94,1.61,2.2,2.2,0,0,1-1.44,2.78A2.43,2.43,0,0,1,119.06,147.28Zm-43.63-.9a2.5,2.5,0,0,1-.8-.14,2.19,2.19,0,0,1-1.31-2.84l.09-.23a2.28,2.28,0,0,1,2.92-1.26,2.2,2.2,0,0,1,1.28,2.86l-.07.18A2.25,2.25,0,0,1,75.43,146.38Zm39.8-6a2.25,2.25,0,0,1-1.76-.83l-.13-.16a2.17,2.17,0,0,1,.34-3.1,2.28,2.28,0,0,1,3.16.33l.16.19a2.18,2.18,0,0,1-.37,3.1A2.27,2.27,0,0,1,115.23,140.33Zm-35.68-.73a2.28,2.28,0,0,1-1.47-.54,2.18,2.18,0,0,1-.23-3.11l.17-.18a2.27,2.27,0,0,1,3.17-.19,2.16,2.16,0,0,1,.2,3.11l-.13.14A2.24,2.24,0,0,1,79.55,139.6Zm29.65-4.51a2.32,2.32,0,0,1-1.18-.33l-.17-.1a2.18,2.18,0,0,1-.77-3,2.28,2.28,0,0,1,3.09-.75l.21.13a2.18,2.18,0,0,1,.74,3A2.24,2.24,0,0,1,109.2,135.09Zm-23.4-.48a2.25,2.25,0,0,1-2-1.13,2.18,2.18,0,0,1,.86-3l.22-.12a2.27,2.27,0,0,1,3,.88,2.18,2.18,0,0,1-.89,3l-.18.1A2.28,2.28,0,0,1,85.8,134.61Zm15.91-2.42a2.49,2.49,0,0,1-.46-.05l-.19,0a2.22,2.22,0,0,1-1.79-2.58,2.25,2.25,0,0,1,2.64-1.75l.24,0a2.2,2.2,0,0,1,1.76,2.6A2.25,2.25,0,0,1,101.71,132.19ZM93.42,132a2.25,2.25,0,0,1-2.23-1.86,2.22,2.22,0,0,1,1.88-2.52l.24,0a2.25,2.25,0,0,1,2.56,1.86A2.22,2.22,0,0,1,94,132l-.2,0Z"/><path class="cls-3" d="M99.74,169.89a1.59,1.59,0,0,1-.25-3.16l.14,0a1.63,1.63,0,0,1,1.88,1.3,1.6,1.6,0,0,1-1.33,1.84l-.18,0A1.14,1.14,0,0,1,99.74,169.89Zm-5.65,0a1.53,1.53,0,0,1-.3,0l-.17,0a1.6,1.6,0,0,1-1.29-1.86,1.61,1.61,0,0,1,1.9-1.26l.15,0a1.59,1.59,0,0,1-.29,3.16ZM105.24,168a1.63,1.63,0,0,1-1.42-.81,1.56,1.56,0,0,1,.63-2.16l.12-.07a1.64,1.64,0,0,1,2.22.58,1.57,1.57,0,0,1-.6,2.17l-.15.09A1.66,1.66,0,0,1,105.24,168Zm-16.61-.16a1.78,1.78,0,0,1-.83-.22l-.15-.09a1.57,1.57,0,0,1-.55-2.19,1.65,1.65,0,0,1,2.23-.54l.12.07a1.58,1.58,0,0,1,.58,2.18A1.65,1.65,0,0,1,88.63,167.86Zm21.11-3.44a1.66,1.66,0,0,1-1.06-.39,1.57,1.57,0,0,1-.17-2.24l.1-.11a1.65,1.65,0,0,1,2.29-.19,1.57,1.57,0,0,1,.19,2.24l-.12.14A1.64,1.64,0,0,1,109.74,164.42Zm-25.54-.26a1.63,1.63,0,0,1-1.25-.58l-.12-.13a1.57,1.57,0,0,1,.25-2.24,1.64,1.64,0,0,1,2.28.24l.09.11a1.56,1.56,0,0,1-.22,2.24A1.64,1.64,0,0,1,84.2,164.16Zm28.52-4.64a1.69,1.69,0,0,1-.58-.1,1.58,1.58,0,0,1-.94-2l0-.14a1.63,1.63,0,0,1,2.08-.94,1.57,1.57,0,0,1,1,2l-.06.16A1.63,1.63,0,0,1,112.72,159.52Zm-31.39-.32a1.61,1.61,0,0,1-1.53-1.06l-.06-.16a1.58,1.58,0,0,1,1-2,1.64,1.64,0,0,1,2.07,1l0,.13a1.58,1.58,0,0,1-1,2A1.76,1.76,0,0,1,81.33,159.2Zm32.45-5.28h0a1.61,1.61,0,0,1-1.61-1.6v-.15a1.63,1.63,0,0,1,3.25,0v.17A1.61,1.61,0,0,1,113.78,153.92Zm-33.4-.33h0A1.62,1.62,0,0,1,78.76,152v-.18a1.61,1.61,0,0,1,1.63-1.55h0A1.59,1.59,0,0,1,82,151.87V152A1.61,1.61,0,0,1,80.38,153.59Zm32.56-5a1.61,1.61,0,0,1-1.54-1.09.5.5,0,0,0-.05-.13,1.59,1.59,0,0,1,1-2,1.63,1.63,0,0,1,2.06,1l.06.17a1.59,1.59,0,0,1-1,2A1.79,1.79,0,0,1,112.94,148.63ZM81.46,148a1.66,1.66,0,0,1-.58-.11,1.57,1.57,0,0,1-.94-2l.06-.16a1.64,1.64,0,0,1,2.1-.91,1.59,1.59,0,0,1,.93,2.06l0,.14A1.65,1.65,0,0,1,81.46,148Zm28.72-4.37a1.61,1.61,0,0,1-1.27-.6l-.09-.11a1.56,1.56,0,0,1,.24-2.24,1.65,1.65,0,0,1,2.28.24l.12.13a1.58,1.58,0,0,1-.27,2.24A1.64,1.64,0,0,1,110.18,143.62Zm-25.75-.53a1.64,1.64,0,0,1-1.06-.38,1.58,1.58,0,0,1-.17-2.25l.12-.13a1.66,1.66,0,0,1,2.3-.14,1.57,1.57,0,0,1,.14,2.24.52.52,0,0,1-.1.11A1.61,1.61,0,0,1,84.43,143.09Zm21.4-3.25a1.66,1.66,0,0,1-.85-.24l-.13-.07a1.58,1.58,0,0,1-.55-2.19,1.65,1.65,0,0,1,2.23-.54l.15.09a1.57,1.57,0,0,1,.54,2.19A1.64,1.64,0,0,1,105.83,139.84Zm-16.89-.35a1.63,1.63,0,0,1-1.42-.81,1.57,1.57,0,0,1,.63-2.17l.15-.08a1.65,1.65,0,0,1,2.21.63,1.57,1.57,0,0,1-.65,2.16l-.13.07A1.6,1.6,0,0,1,88.94,139.49Zm11.48-1.74a1.24,1.24,0,0,1-.33,0l-.14,0a1.6,1.6,0,0,1-1.29-1.87,1.63,1.63,0,0,1,1.91-1.26l.17,0a1.58,1.58,0,0,1,1.27,1.87A1.62,1.62,0,0,1,100.42,137.75Zm-6-.13a1.59,1.59,0,0,1-.26-3.16l.18,0a1.62,1.62,0,0,1,1.85,1.34,1.59,1.59,0,0,1-1.37,1.8l-.15,0A1.06,1.06,0,0,1,94.44,137.62Z"/><path class="cls-3" d="M99.74,170.08a1.51,1.51,0,0,1-.42-.05l.09-.36a1.24,1.24,0,0,0,.33,0ZM94.09,170a1.84,1.84,0,0,1-.33,0l-.09,0,.07-.37.09,0,.26,0Zm11.15-1.82a2,2,0,0,1-.42-.05l.09-.36a1.86,1.86,0,0,0,.33,0ZM88.63,168a1.54,1.54,0,0,1-.43,0l.09-.36a1.27,1.27,0,0,0,.34,0Zm21.11-3.44a1.51,1.51,0,0,1-.42,0l.09-.36a1.24,1.24,0,0,0,.33,0Zm-25.54-.25a2,2,0,0,1-.42,0l.09-.37a1.24,1.24,0,0,0,.33,0Zm28.52-4.64a2,2,0,0,1-.43-.05l.09-.36a1.87,1.87,0,0,0,.34,0Zm-31.39-.32a2,2,0,0,1-.42,0L81,159a1.86,1.86,0,0,0,.33,0Zm32.45-5.28h0a1.84,1.84,0,0,1-.41-.05l.09-.36a1.66,1.66,0,0,0,.32,0Zm-33.4-.34h0a1.83,1.83,0,0,1-.4-.05l.09-.36a1.65,1.65,0,0,0,.32,0Zm32.56-5a2,2,0,0,1-.42,0l.09-.36a1.24,1.24,0,0,0,.33,0Zm-31.48-.65a1.54,1.54,0,0,1-.43,0l.09-.36a1.27,1.27,0,0,0,.34,0Zm28.72-4.36a2,2,0,0,1-.42-.05l.09-.36a1.86,1.86,0,0,0,.33,0Zm-25.75-.53a2,2,0,0,1-.42-.05l.09-.36a1.86,1.86,0,0,0,.33,0Zm21.4-3.25a2,2,0,0,1-.42-.05l.09-.37a1.24,1.24,0,0,0,.33,0Zm-16.89-.35a2,2,0,0,1-.42-.05l.09-.36.33,0Zm11.48-1.75a2.1,2.1,0,0,1-.36,0H100l.08-.37h0a1.43,1.43,0,0,0,.29,0Zm-6-.12a2,2,0,0,1-.43-.05l.09-.36a1.86,1.86,0,0,0,.34,0Z"/><path class="cls-3" d="M97.63,155.81a.34.34,0,0,1-.33-.28.33.33,0,0,1,.28-.37h0a.33.33,0,0,1,.38.27.32.32,0,0,1-.27.38h-.09Zm-1.16,0h-.1a.33.33,0,1,1,.13-.65h0a.33.33,0,0,1,.27.38A.33.33,0,0,1,96.47,155.8Zm2.29-.38a.35.35,0,0,1-.29-.16.33.33,0,0,1,.13-.45h0a.33.33,0,0,1,.45.12.32.32,0,0,1-.12.44l0,0A.33.33,0,0,1,98.76,155.42Zm-3.42,0a.41.41,0,0,1-.17,0h0a.32.32,0,0,1-.11-.45.34.34,0,0,1,.46-.12l0,0a.32.32,0,0,1,.12.45A.34.34,0,0,1,95.34,155.39Zm4.35-.71a.37.37,0,0,1-.22-.08.32.32,0,0,1,0-.46l0,0a.33.33,0,0,1,.47,0,.32.32,0,0,1,0,.46l0,0A.34.34,0,0,1,99.69,154.68Zm-5.26-.05a.35.35,0,0,1-.26-.12l0,0a.32.32,0,0,1,0-.46.34.34,0,0,1,.47,0l0,0a.31.31,0,0,1,0,.46A.32.32,0,0,1,94.43,154.63Zm5.87-1a.25.25,0,0,1-.12,0,.32.32,0,0,1-.19-.42v0a.34.34,0,0,1,.63.23v0A.34.34,0,0,1,100.3,153.67Zm-6.46-.06a.32.32,0,0,1-.31-.22l0,0a.33.33,0,0,1,.21-.41.34.34,0,0,1,.43.2v0a.33.33,0,0,1-.21.42Zm6.68-1.09h0a.33.33,0,0,1-.33-.33v0a.34.34,0,0,1,.67,0v0A.33.33,0,0,1,100.52,152.52Zm-6.87-.07h0a.33.33,0,0,1-.33-.33v0a.34.34,0,0,1,.34-.32h0a.34.34,0,0,1,.33.34v0A.32.32,0,0,1,93.65,152.45Zm6.7-1a.35.35,0,0,1-.32-.22v0a.34.34,0,0,1,.21-.42.34.34,0,0,1,.43.21v0a.33.33,0,0,1-.22.42Zm-6.48-.13-.12,0a.34.34,0,0,1-.2-.42l0,0a.34.34,0,0,1,.43-.19.33.33,0,0,1,.19.43v0A.34.34,0,0,1,93.87,151.3Zm5.91-.9a.32.32,0,0,1-.26-.12l0,0a.32.32,0,0,1,0-.46.34.34,0,0,1,.47.05l0,0a.32.32,0,0,1-.05.46A.33.33,0,0,1,99.78,150.4Zm-5.3-.11a.35.35,0,0,1-.22-.08.32.32,0,0,1,0-.46l0,0a.34.34,0,0,1,.47,0,.33.33,0,0,1,0,.47l0,0A.34.34,0,0,1,94.48,150.29Zm4.4-.67a.34.34,0,0,1-.17-.05h0A.33.33,0,1,1,99,149h0a.32.32,0,0,1,.11.45A.32.32,0,0,1,98.88,149.62Zm-3.47-.07a.32.32,0,0,1-.29-.17.31.31,0,0,1,.12-.44l0,0a.33.33,0,0,1,.45.13.32.32,0,0,1-.13.44l0,0A.32.32,0,0,1,95.41,149.55Zm2.36-.36h-.1a.33.33,0,0,1-.26-.39.34.34,0,0,1,.39-.26h0a.33.33,0,0,1,.26.39A.33.33,0,0,1,97.77,149.19Zm-1.23,0a.33.33,0,0,1-.33-.27.33.33,0,0,1,.28-.38h0a.33.33,0,0,1,.38.27.34.34,0,0,1-.28.38h-.08Z"/><path class="cls-3" d="M98.12,159.1a.63.63,0,0,1-.62-.53.62.62,0,0,1,.52-.71h.06a.65.65,0,0,1,.74.51.64.64,0,0,1-.53.72h-.17Zm-2.21,0H95.8l-.07,0a.63.63,0,0,1-.51-.73.65.65,0,0,1,.75-.49h0a.63.63,0,0,1,.52.73A.64.64,0,0,1,95.91,159.08Zm4.37-.71a.65.65,0,0,1-.56-.32.62.62,0,0,1,.24-.85l.05,0a.64.64,0,0,1,.87.23.61.61,0,0,1-.23.85l-.06,0A.71.71,0,0,1,100.28,158.37Zm-6.51-.07a.62.62,0,0,1-.32-.09l-.06,0a.6.6,0,0,1-.21-.85.64.64,0,0,1,.87-.22l0,0a.61.61,0,0,1,.22.85A.64.64,0,0,1,93.77,158.3ZM102,157a.66.66,0,0,1-.42-.15.61.61,0,0,1-.06-.87l0-.05a.65.65,0,0,1,.9-.07.62.62,0,0,1,.08.88l0,.05A.64.64,0,0,1,102,157Zm-10-.1a.64.64,0,0,1-.49-.22l0-.06a.61.61,0,0,1,.09-.87.65.65,0,0,1,.9.09l0,.05a.6.6,0,0,1-.08.87A.62.62,0,0,1,92,156.85ZM103.2,155a.57.57,0,0,1-.22,0,.61.61,0,0,1-.37-.8l0-.06a.63.63,0,0,1,.81-.37.62.62,0,0,1,.38.8l0,.07A.66.66,0,0,1,103.2,155Zm-12.28-.13a.63.63,0,0,1-.6-.41l0-.07a.61.61,0,0,1,.39-.79.64.64,0,0,1,.81.39l0,.05a.62.62,0,0,1-.39.8A.76.76,0,0,1,90.92,154.91Zm12.7-2.06h0a.64.64,0,0,1-.63-.63v-.06a.64.64,0,0,1,1.28,0v.07A.63.63,0,0,1,103.62,152.85Zm-13.07-.13h0a.64.64,0,0,1-.63-.63V152a.63.63,0,0,1,.64-.61h0a.64.64,0,0,1,.63.63v.06A.63.63,0,0,1,90.55,152.72Zm12.74-1.94a.62.62,0,0,1-.6-.43l0,0a.62.62,0,0,1,.4-.79.63.63,0,0,1,.8.39l0,.06a.64.64,0,0,1-.41.79A.69.69,0,0,1,103.29,150.78ZM91,150.53a.64.64,0,0,1-.23-.05.62.62,0,0,1-.37-.8l0-.06a.64.64,0,0,1,.82-.36.62.62,0,0,1,.36.81l0,.05A.63.63,0,0,1,91,150.53Zm11.24-1.71a.63.63,0,0,1-.5-.24l0,0a.61.61,0,0,1,.09-.88.64.64,0,0,1,.89.1l0,.05a.6.6,0,0,1-.11.87A.62.62,0,0,1,102.21,148.82Zm-10.08-.21a.65.65,0,0,1-.41-.15.61.61,0,0,1-.07-.88l0-.05a.65.65,0,0,1,.9-.06.62.62,0,0,1,.05.88l0,0A.64.64,0,0,1,92.13,148.61Zm8.38-1.27a.61.61,0,0,1-.34-.1l0,0a.61.61,0,0,1-.21-.85.64.64,0,0,1,.87-.21l.06,0a.62.62,0,0,1,.21.86A.65.65,0,0,1,100.51,147.34Zm-6.61-.14a.64.64,0,0,1-.56-.32.62.62,0,0,1,.25-.85l.06,0a.65.65,0,0,1,.86.25.61.61,0,0,1-.25.84l-.05,0A.71.71,0,0,1,93.9,147.2Zm4.49-.68-.13,0h-.05a.62.62,0,0,1-.51-.72.65.65,0,0,1,.75-.5l.07,0A.61.61,0,0,1,99,146,.63.63,0,0,1,98.39,146.52Zm-2.34-.05a.62.62,0,0,1-.1-1.24H96a.63.63,0,0,1,.72.53.62.62,0,0,1-.54.7h-.15Z"/><path class="cls-3" d="M98.83,163.79a1,1,0,0,1-.17-2.07h.1a1,1,0,1,1,.35,2l-.11,0Zm-3.71,0-.19,0-.12,0A1,1,0,0,1,94,162.5a1.07,1.07,0,0,1,1.25-.83l.1,0a1,1,0,0,1,.86,1.21A1.08,1.08,0,0,1,95.12,163.76Zm7.32-1.19a1.06,1.06,0,0,1-.93-.54,1,1,0,0,1,.4-1.42l.09,0a1.07,1.07,0,0,1,1.45.38,1,1,0,0,1-.39,1.43l-.1.05A1.13,1.13,0,0,1,102.44,162.57Zm-10.9-.11a1,1,0,0,1-.54-.15l-.1-.06a1,1,0,0,1-.37-1.43,1.07,1.07,0,0,1,1.46-.35l.09,0a1.05,1.05,0,0,1,.38,1.43A1.09,1.09,0,0,1,91.54,162.46Zm13.85-2.26a1.07,1.07,0,0,1-.7-.25,1,1,0,0,1-.11-1.48l.06-.06a1.08,1.08,0,0,1,1.51-.13,1,1,0,0,1,.13,1.47l-.08.09A1.07,1.07,0,0,1,105.39,160.2ZM88.63,160a1.06,1.06,0,0,1-.82-.38l-.08-.09a1,1,0,0,1,.16-1.46,1.07,1.07,0,0,1,1.5.15l.06.07a1,1,0,0,1-.14,1.47A1.09,1.09,0,0,1,88.63,160Zm18.71-3a1.06,1.06,0,0,1-.38-.07,1,1,0,0,1-.62-1.34l0-.09a1.06,1.06,0,0,1,1.36-.62,1,1,0,0,1,.64,1.34l0,.1A1.07,1.07,0,0,1,107.34,157Zm-20.59-.21a1.08,1.08,0,0,1-1-.69.56.56,0,0,0,0-.12,1,1,0,0,1,.67-1.32,1.07,1.07,0,0,1,1.35.65l0,.09a1,1,0,0,1-.64,1.33A1.13,1.13,0,0,1,86.75,156.78ZM108,153.31h0a1.05,1.05,0,0,1-1.06-1.05v-.09a1.07,1.07,0,0,1,2.14,0v.11A1.06,1.06,0,0,1,108,153.31Zm-21.91-.22h0a1,1,0,0,1-1-1.05v-.12a1.06,1.06,0,0,1,1.07-1h0a1.06,1.06,0,0,1,1,1.07v.09A1,1,0,0,1,86.13,153.09Zm21.36-3.24a1.05,1.05,0,0,1-1-.72l0-.09a1,1,0,0,1,.66-1.32,1.07,1.07,0,0,1,1.36.65l0,.11a1,1,0,0,1-.68,1.31A1,1,0,0,1,107.49,149.85Zm-20.66-.43a1.06,1.06,0,0,1-.38-.07,1,1,0,0,1-.62-1.34.49.49,0,0,0,0-.11,1.08,1.08,0,0,1,1.39-.59,1,1,0,0,1,.6,1.35l0,.09A1.08,1.08,0,0,1,86.83,149.42Zm18.85-2.86a1.08,1.08,0,0,1-.84-.4l-.06-.07a1,1,0,0,1,.16-1.47,1.08,1.08,0,0,1,1.5.16l.07.09a1,1,0,0,1-.17,1.46A1.1,1.1,0,0,1,105.68,146.56Zm-16.9-.35a1.07,1.07,0,0,1-.69-.25,1,1,0,0,1-.11-1.48l.07-.08a1.07,1.07,0,0,1,1.51-.09,1,1,0,0,1,.09,1.47l-.06.07A1.07,1.07,0,0,1,88.78,146.21Zm14-2.13a1.06,1.06,0,0,1-.56-.16l-.08,0a1,1,0,0,1-.36-1.43,1.08,1.08,0,0,1,1.46-.36l.1.06a1,1,0,0,1,.35,1.44A1.07,1.07,0,0,1,102.82,144.08Zm-11.08-.23a1.09,1.09,0,0,1-.93-.54,1,1,0,0,1,.41-1.42l.1,0a1.08,1.08,0,0,1,1.45.41,1,1,0,0,1-.42,1.42l-.09,0A1.07,1.07,0,0,1,91.74,143.85Zm7.53-1.15a.75.75,0,0,1-.21,0l-.09,0a1,1,0,0,1-.85-1.22,1.06,1.06,0,0,1,1.25-.83l.11,0a1,1,0,0,1,.84,1.23A1.07,1.07,0,0,1,99.27,142.7Zm-3.92-.08a1,1,0,0,1-1-.88,1,1,0,0,1,.88-1.19l.12,0a1.07,1.07,0,0,1,1.21.88,1,1,0,0,1-.9,1.18l-.09,0Z"/></g><g class="cls-2"><path class="cls-3" d="M63,126.77a1.52,1.52,0,0,1-1.5-1.26,1.49,1.49,0,0,1,1.26-1.7l.13,0A1.52,1.52,0,0,1,64.69,125a1.5,1.5,0,0,1-1.25,1.72l-.16,0Zm-5.29-.06a1.37,1.37,0,0,1-.28,0l-.16,0a1.49,1.49,0,0,1-1.21-1.74,1.52,1.52,0,0,1,1.78-1.18l.14,0a1.49,1.49,0,0,1-.27,2.95ZM68.18,125a1.53,1.53,0,0,1-1.33-.76,1.46,1.46,0,0,1,.59-2l.11-.07a1.55,1.55,0,0,1,2.08.55,1.47,1.47,0,0,1-.56,2l-.15.08A1.51,1.51,0,0,1,68.18,125Zm-15.54-.15a1.54,1.54,0,0,1-.77-.21l-.14-.08a1.46,1.46,0,0,1-.52-2,1.53,1.53,0,0,1,2.08-.51l.12.07a1.45,1.45,0,0,1,.54,2A1.51,1.51,0,0,1,52.64,124.86Zm19.75-3.22a1.55,1.55,0,0,1-1-.36,1.46,1.46,0,0,1-.16-2.1l.09-.1a1.54,1.54,0,0,1,2.14-.18,1.47,1.47,0,0,1,.19,2.1l-.12.13A1.52,1.52,0,0,1,72.39,121.64ZM48.5,121.4a1.51,1.51,0,0,1-1.17-.54l-.11-.13a1.46,1.46,0,0,1,.23-2.09,1.53,1.53,0,0,1,2.13.22l.09.11a1.46,1.46,0,0,1-.2,2.09A1.55,1.55,0,0,1,48.5,121.4Zm26.67-4.34a1.42,1.42,0,0,1-.53-.1,1.47,1.47,0,0,1-.89-1.91l0-.13a1.52,1.52,0,0,1,2-.88,1.48,1.48,0,0,1,.91,1.9l-.06.16A1.53,1.53,0,0,1,75.17,117.06Zm-29.35-.3a1.52,1.52,0,0,1-1.44-1,.88.88,0,0,1-.05-.15,1.48,1.48,0,0,1,1-1.89,1.51,1.51,0,0,1,1.92.93l0,.12a1.49,1.49,0,0,1-.93,1.9A1.45,1.45,0,0,1,45.82,116.76Zm30.35-4.94h0a1.51,1.51,0,0,1-1.51-1.5v-.14a1.52,1.52,0,0,1,3,0v.17A1.5,1.5,0,0,1,76.17,111.82Zm-31.24-.31h0a1.51,1.51,0,0,1-1.5-1.51v-.16a1.51,1.51,0,0,1,1.52-1.46h0a1.51,1.51,0,0,1,1.49,1.52V110A1.51,1.51,0,0,1,44.93,111.51Zm30.46-4.63a1.53,1.53,0,0,1-1.45-1s0-.08,0-.12a1.48,1.48,0,0,1,.95-1.89,1.53,1.53,0,0,1,1.93.93.75.75,0,0,1,0,.16,1.47,1.47,0,0,1-1,1.87A1.6,1.6,0,0,1,75.39,106.88Zm-29.46-.61a1.7,1.7,0,0,1-.54-.09,1.48,1.48,0,0,1-.88-1.92l.06-.16a1.53,1.53,0,0,1,2-.84,1.47,1.47,0,0,1,.86,1.92l0,.13A1.52,1.52,0,0,1,45.93,106.27Zm26.87-4.08a1.54,1.54,0,0,1-1.19-.56l-.08-.11a1.46,1.46,0,0,1,.22-2.09,1.54,1.54,0,0,1,2.14.22l.1.13a1.46,1.46,0,0,1-.24,2.09A1.6,1.6,0,0,1,72.8,102.19Zm-24.08-.5a1.56,1.56,0,0,1-1-.36,1.48,1.48,0,0,1-.16-2.1l.12-.12A1.53,1.53,0,0,1,49.82,99a1.47,1.47,0,0,1,.14,2.1l-.09.1A1.53,1.53,0,0,1,48.72,101.69Zm20-3a1.52,1.52,0,0,1-.79-.22l-.12-.07a1.47,1.47,0,0,1-.52-2,1.54,1.54,0,0,1,2.09-.51l.14.08a1.47,1.47,0,0,1,.5,2A1.53,1.53,0,0,1,68.73,98.65Zm-15.8-.33a1.5,1.5,0,0,1-1.32-.76,1.47,1.47,0,0,1,.58-2l.14-.08a1.54,1.54,0,0,1,2.07.59,1.48,1.48,0,0,1-.6,2l-.12.06A1.55,1.55,0,0,1,52.93,98.32Zm10.74-1.63a1.53,1.53,0,0,1-.3,0l-.14,0A1.5,1.5,0,0,1,62,94.89a1.53,1.53,0,0,1,1.78-1.18l.16,0a1.48,1.48,0,0,1,1.19,1.75A1.51,1.51,0,0,1,63.67,96.69Zm-5.6-.11a1.51,1.51,0,0,1-1.5-1.26,1.5,1.5,0,0,1,1.27-1.7l.16,0a1.49,1.49,0,1,1,.45,2.94l-.14,0Z"/><path class="cls-3" d="M62.35,122.15a1.1,1.1,0,0,1-1.09-.91,1.09,1.09,0,0,1,.91-1.23h.1a1.09,1.09,0,0,1,1.27.88,1.08,1.08,0,0,1-.9,1.24h-.12Zm-3.82,0-.2,0-.12,0a1.07,1.07,0,0,1-.87-1.26,1.1,1.1,0,0,1,1.29-.85l.09,0a1.07,1.07,0,0,1-.19,2.13Zm7.53-1.23a1.09,1.09,0,0,1-1-.54,1.07,1.07,0,0,1,.42-1.47l.09,0a1.1,1.1,0,0,1,1.49.39,1.06,1.06,0,0,1-.4,1.47l-.11.06A1.12,1.12,0,0,1,66.06,120.88Zm-11.22-.11a1.08,1.08,0,0,1-.55-.15l-.11-.06a1,1,0,0,1-.37-1.47,1.11,1.11,0,0,1,1.5-.37l.09,0a1.07,1.07,0,0,1,.39,1.47A1.11,1.11,0,0,1,54.84,120.77Zm14.26-2.32a1.14,1.14,0,0,1-.72-.26,1.06,1.06,0,0,1-.11-1.52l.06-.07a1.12,1.12,0,0,1,1.55-.13A1.07,1.07,0,0,1,70,118l-.08.09A1.12,1.12,0,0,1,69.1,118.45Zm-17.25-.17a1.09,1.09,0,0,1-.84-.4l-.08-.09a1.06,1.06,0,0,1,.16-1.51,1.13,1.13,0,0,1,1.55.16l.06.08a1.06,1.06,0,0,1-.15,1.51A1.13,1.13,0,0,1,51.85,118.28Zm19.25-3.14a1.09,1.09,0,0,1-1-1.45l0-.09a1.11,1.11,0,0,1,1.41-.64,1.06,1.06,0,0,1,.65,1.38l0,.11A1.09,1.09,0,0,1,71.1,115.14Zm-21.18-.21a1.09,1.09,0,0,1-1-.72s0-.07,0-.11a1.07,1.07,0,0,1,.69-1.36,1.11,1.11,0,0,1,1.39.67l0,.09a1.07,1.07,0,0,1-.67,1.37A1.13,1.13,0,0,1,49.92,114.93Zm21.9-3.57h0a1.08,1.08,0,0,1-1.08-1.08v-.1a1.1,1.1,0,0,1,2.19,0v.12A1.08,1.08,0,0,1,71.82,111.36Zm-22.54-.22h0a1.09,1.09,0,0,1-1.08-1.09v-.12a1.09,1.09,0,0,1,1.1-1.05h0a1.07,1.07,0,0,1,1.07,1.1v.1A1.08,1.08,0,0,1,49.28,111.14Zm22-3.35a1.08,1.08,0,0,1-1-.74l0-.09a1.06,1.06,0,0,1,.68-1.36,1.1,1.1,0,0,1,1.39.67.56.56,0,0,1,0,.12,1.06,1.06,0,0,1-.7,1.35A1,1,0,0,1,71.26,107.79ZM50,107.36a1.34,1.34,0,0,1-.39-.07A1.07,1.07,0,0,1,49,105.9a1.17,1.17,0,0,0,.05-.11,1.11,1.11,0,0,1,1.42-.61,1.07,1.07,0,0,1,.62,1.39l0,.09A1.11,1.11,0,0,1,50,107.36Zm19.39-3a1.11,1.11,0,0,1-.86-.41l-.06-.07a1.05,1.05,0,0,1,.17-1.51,1.11,1.11,0,0,1,1.54.16l.07.09a1.05,1.05,0,0,1-.18,1.51A1.14,1.14,0,0,1,69.39,104.41ZM52,104.05a1.1,1.1,0,0,1-.72-.26,1,1,0,0,1-.11-1.51l.08-.09a1.11,1.11,0,0,1,1.55-.1,1.06,1.06,0,0,1,.09,1.52l-.06.07A1.09,1.09,0,0,1,52,104.05Zm14.45-2.19a1.21,1.21,0,0,1-.58-.16l-.08,0a1.07,1.07,0,0,1-.38-1.48,1.11,1.11,0,0,1,1.51-.36l.1.06a1,1,0,0,1,.36,1.47A1.11,1.11,0,0,1,66.46,101.86Zm-11.41-.24a1.1,1.1,0,0,1-.95-.55,1.05,1.05,0,0,1,.42-1.46l.1-.06a1.12,1.12,0,0,1,1.49.43,1.07,1.07,0,0,1-.43,1.46l-.09,0A1,1,0,0,1,55.05,101.62Zm7.75-1.18a.86.86,0,0,1-.22,0l-.09,0a1.06,1.06,0,0,1-.87-1.25,1.09,1.09,0,0,1,1.28-.86l.12,0a1.08,1.08,0,0,1,.86,1.26A1.1,1.1,0,0,1,62.8,100.44Zm-4-.08a1.09,1.09,0,0,1-1.08-.9,1.08,1.08,0,0,1,.91-1.23l.12,0a1.1,1.1,0,0,1,1.25.9,1.08,1.08,0,0,1-.93,1.22l-.09,0Z"/><path class="cls-3" d="M62.35,122.27a1.36,1.36,0,0,1-.29,0l.06-.24.23,0Zm-3.82,0-.22,0h-.06l0-.25h.23ZM66.06,121a1.43,1.43,0,0,1-.29,0l.06-.25a.91.91,0,0,0,.23,0Zm-11.22-.11a.86.86,0,0,1-.28,0l.06-.24a.78.78,0,0,0,.22,0Zm14.26-2.32a1.45,1.45,0,0,1-.29,0l.06-.24.23,0Zm-17.25-.18a1.33,1.33,0,0,1-.28,0l.06-.25a.83.83,0,0,0,.22,0Zm19.25-3.13a1.33,1.33,0,0,1-.28,0l.06-.25a.83.83,0,0,0,.22,0Zm-21.18-.21a1.35,1.35,0,0,1-.29,0l.06-.24a.86.86,0,0,0,.23,0Zm21.9-3.57h0a1.24,1.24,0,0,1-.27,0l.06-.25a.78.78,0,0,0,.22,0Zm-22.54-.23h0a1.24,1.24,0,0,1-.27,0l.06-.24.21,0Zm22-3.34a1.43,1.43,0,0,1-.29,0l.06-.25a.91.91,0,0,0,.23,0ZM50,107.48a1.43,1.43,0,0,1-.29,0l.06-.25a.91.91,0,0,0,.23,0Zm19.39-2.94a.9.9,0,0,1-.28,0l.06-.24a.82.82,0,0,0,.22,0ZM52,104.18a1.43,1.43,0,0,1-.29,0l.06-.25a.91.91,0,0,0,.23,0ZM66.46,102a1.36,1.36,0,0,1-.29,0l.06-.25a.85.85,0,0,0,.23,0Zm-11.41-.23a.9.9,0,0,1-.28,0l.06-.24a.83.83,0,0,0,.22,0Zm7.75-1.18a1,1,0,0,1-.24,0h0l0-.25h0l.19,0Zm-4-.08a.9.9,0,0,1-.28,0l.06-.24a.82.82,0,0,0,.22,0Z"/><path class="cls-3" d="M60.92,112.64a.22.22,0,0,1,0-.44h0a.24.24,0,0,1,.27.18.22.22,0,0,1-.19.25h-.06Zm-.79,0h-.06a.23.23,0,0,1-.18-.26.21.21,0,0,1,.26-.17h0a.22.22,0,0,1,0,.44Zm1.55-.25a.23.23,0,0,1-.11-.42h0a.23.23,0,0,1,.31.09.23.23,0,0,1-.08.3h0A.2.2,0,0,1,61.68,112.38Zm-2.31,0-.11,0h0a.22.22,0,0,1-.08-.3.23.23,0,0,1,.31-.08h0a.23.23,0,0,1,.08.31A.22.22,0,0,1,59.37,112.35Zm2.94-.47a.24.24,0,0,1-.15-.06.22.22,0,0,1,0-.31h0a.22.22,0,0,1,.32,0,.21.21,0,0,1,0,.31l0,0A.23.23,0,0,1,62.31,111.88Zm-3.55,0a.21.21,0,0,1-.17-.08l0,0a.22.22,0,0,1,0-.31.23.23,0,0,1,.32,0v0a.21.21,0,0,1,0,.31A.24.24,0,0,1,58.76,111.84Zm4-.64-.08,0a.22.22,0,0,1-.13-.28v0a.21.21,0,0,1,.29-.13.21.21,0,0,1,.13.28v0A.23.23,0,0,1,62.72,111.2Zm-4.36,0a.21.21,0,0,1-.21-.15v0a.22.22,0,0,1,.14-.28.23.23,0,0,1,.29.14v0a.21.21,0,0,1-.13.28Zm4.51-.73h0a.21.21,0,0,1-.22-.23v0a.22.22,0,0,1,.22-.22.22.22,0,0,1,.23.22v0A.22.22,0,0,1,62.87,110.42Zm-4.64,0h0a.22.22,0,0,1-.23-.22v0a.23.23,0,0,1,.23-.21h0a.22.22,0,0,1,.23.22v0A.24.24,0,0,1,58.23,110.37Zm4.53-.69a.23.23,0,0,1-.22-.15v0a.23.23,0,0,1,.15-.28.22.22,0,0,1,.28.14v0a.22.22,0,0,1-.14.28Zm-4.38-.09H58.3a.21.21,0,0,1-.13-.29v0a.23.23,0,0,1,.29-.13.24.24,0,0,1,.13.29v0A.22.22,0,0,1,58.38,109.59Zm4-.6a.23.23,0,0,1-.18-.09h0a.22.22,0,0,1,.35-.28l0,0a.21.21,0,0,1,0,.31A.24.24,0,0,1,62.37,109Zm-3.58-.08a.3.3,0,0,1-.15,0,.22.22,0,0,1,0-.31l0,0a.23.23,0,0,1,.32,0,.22.22,0,0,1,0,.31l0,0A.21.21,0,0,1,58.79,108.91Zm3-.45a.24.24,0,0,1-.12,0h0a.23.23,0,0,1-.08-.31.24.24,0,0,1,.31-.07h0a.22.22,0,0,1,.08.3A.23.23,0,0,1,61.77,108.46Zm-2.35,0a.23.23,0,0,1-.2-.11.22.22,0,0,1,.09-.3h0a.24.24,0,0,1,.31.08.22.22,0,0,1-.09.3h0A.23.23,0,0,1,59.42,108.41Zm1.59-.24H61a.23.23,0,0,1-.18-.26.21.21,0,0,1,.26-.17h0a.23.23,0,0,1,.18.26A.23.23,0,0,1,61,108.17Zm-.83,0a.22.22,0,0,1,0-.44h0a.22.22,0,0,1,.26.19.22.22,0,0,1-.19.25h-.06Z"/><path class="cls-3" d="M61.25,114.86a.43.43,0,0,1-.42-.36.42.42,0,0,1,.36-.48h0a.42.42,0,1,1,.15.83h-.12Zm-1.49,0h-.13a.43.43,0,0,1-.34-.49.44.44,0,0,1,.51-.34h0a.42.42,0,0,1,.35.49A.43.43,0,0,1,59.76,114.84Zm3-.48a.43.43,0,0,1-.38-.21.41.41,0,0,1,.17-.57l0,0a.42.42,0,1,1,.43.73l0,0A.41.41,0,0,1,62.71,114.36Zm-4.39,0a.43.43,0,0,1-.22-.06l0,0a.42.42,0,0,1-.15-.58.43.43,0,0,1,.59-.14l0,0a.41.41,0,0,1,.16.57A.43.43,0,0,1,58.32,114.32Zm5.58-.91a.46.46,0,0,1-.29-.1.42.42,0,0,1,0-.59l0,0a.44.44,0,0,1,.61,0,.41.41,0,0,1,0,.59l0,0A.43.43,0,0,1,63.9,113.41Zm-6.75-.07a.41.41,0,0,1-.33-.15l0,0a.41.41,0,0,1,.06-.59.44.44,0,0,1,.6.07l0,0a.42.42,0,0,1-.06.59A.46.46,0,0,1,57.15,113.34Zm7.53-1.22a.4.4,0,0,1-.15,0,.42.42,0,0,1-.25-.54v0a.44.44,0,0,1,.55-.25.42.42,0,0,1,.26.54l0,0A.44.44,0,0,1,64.68,112.12ZM56.39,112a.43.43,0,0,1-.41-.28v0a.41.41,0,0,1,.27-.53.42.42,0,0,1,.54.26v0a.42.42,0,0,1-.26.54A.34.34,0,0,1,56.39,112ZM65,110.64h0a.43.43,0,0,1-.43-.43v0a.42.42,0,0,1,.43-.42.42.42,0,0,1,.43.42v0A.42.42,0,0,1,65,110.64Zm-8.82-.09h0a.42.42,0,0,1-.42-.43v0a.42.42,0,0,1,.43-.41h0a.42.42,0,0,1,.42.43v0A.44.44,0,0,1,56.14,110.55Zm8.6-1.31a.43.43,0,0,1-.41-.29v0a.42.42,0,0,1,.27-.54.43.43,0,0,1,.54.27l0,0a.42.42,0,0,1-.28.53A.27.27,0,0,1,64.74,109.24Zm-8.32-.17a.4.4,0,0,1-.15,0,.42.42,0,0,1-.25-.54l0,0a.43.43,0,0,1,.8.3l0,0A.42.42,0,0,1,56.42,109.07ZM64,107.92a.46.46,0,0,1-.34-.16l0,0a.42.42,0,0,1,.06-.59.44.44,0,0,1,.61.06l0,0a.43.43,0,0,1-.07.59A.46.46,0,0,1,64,107.92Zm-6.8-.14a.48.48,0,0,1-.28-.1.43.43,0,0,1,0-.6l0,0a.44.44,0,0,1,.61,0,.41.41,0,0,1,0,.59l0,0A.41.41,0,0,1,57.21,107.78Zm5.65-.86a.43.43,0,0,1-.22-.06l0,0a.41.41,0,0,1-.14-.58.43.43,0,0,1,.59-.14l0,0a.42.42,0,0,1,.14.58A.43.43,0,0,1,62.86,106.92Zm-4.46-.09a.44.44,0,0,1-.38-.22.42.42,0,0,1,.17-.57l0,0a.43.43,0,0,1,.58.16.41.41,0,0,1-.17.57l0,0A.42.42,0,0,1,58.4,106.83Zm3-.46h-.12a.41.41,0,0,1-.34-.49.43.43,0,0,1,.5-.34h.05a.42.42,0,0,1,.33.5A.43.43,0,0,1,61.43,106.37Zm-1.58,0a.42.42,0,0,1-.07-.83h0a.44.44,0,0,1,.49.35.43.43,0,0,1-.36.48h-.11Z"/><path class="cls-3" d="M61.73,118a.71.71,0,0,1-.71-.59.7.7,0,0,1,.6-.81h.06a.71.71,0,0,1,.83.58.71.71,0,0,1-.59.81h-.19Zm-2.51,0H59a.71.71,0,0,1-.57-.83.72.72,0,0,1,.85-.55h.06a.7.7,0,0,1-.13,1.39Zm4.94-.8a.71.71,0,0,1-.62-.36.69.69,0,0,1,.27-1l.06,0a.73.73,0,0,1,1,.26.69.69,0,0,1-.27,1l-.06,0A.8.8,0,0,1,64.16,117.2Zm-7.36-.07a.78.78,0,0,1-.36-.1l-.07,0a.69.69,0,0,1-.24-1,.72.72,0,0,1,1-.24l.06,0a.71.71,0,0,1,.26,1A.75.75,0,0,1,56.8,117.13Zm9.36-1.53a.68.68,0,0,1-.47-.17.69.69,0,0,1-.08-1l0,0a.74.74,0,0,1,1-.08.7.7,0,0,1,.09,1l-.06.06A.71.71,0,0,1,66.16,115.6Zm-11.32-.11a.72.72,0,0,1-.55-.26l0-.06a.69.69,0,0,1,.11-1,.73.73,0,0,1,1,.11l0,0a.71.71,0,0,1-.56,1.15Zm12.63-2.06a.73.73,0,0,1-.25,0,.7.7,0,0,1-.42-.91l0-.06a.74.74,0,0,1,.93-.42.72.72,0,0,1,.43.91l0,.07A.72.72,0,0,1,67.47,113.43Zm-13.9-.14a.73.73,0,0,1-.68-.47l0-.07a.69.69,0,0,1,.45-.89.72.72,0,0,1,.91.44l0,0a.7.7,0,0,1-.44.9A.67.67,0,0,1,53.57,113.29ZM68,111h0a.7.7,0,0,1-.71-.71v-.06a.72.72,0,0,1,1.44,0v.07A.72.72,0,0,1,68,111Zm-14.8-.14h0a.73.73,0,0,1-.71-.72V110a.71.71,0,0,1,.72-.69h0a.7.7,0,0,1,.7.71v.07A.71.71,0,0,1,53.15,110.81Zm14.43-2.2a.72.72,0,0,1-.69-.48l0-.06a.7.7,0,0,1,.45-.9.73.73,0,0,1,.91.44l0,.08a.7.7,0,0,1-.46.89A.83.83,0,0,1,67.58,108.61Zm-13.95-.28a.8.8,0,0,1-.26,0,.7.7,0,0,1-.42-.91l0-.07a.73.73,0,0,1,.93-.4.69.69,0,0,1,.41.91l0,.06A.72.72,0,0,1,53.63,108.33Zm12.72-1.94a.73.73,0,0,1-.56-.26l0,0a.71.71,0,0,1,.1-1,.75.75,0,0,1,1,.11l0,.06a.7.7,0,0,1-.12,1A.74.74,0,0,1,66.35,106.39ZM55,106.16a.73.73,0,0,1-.47-.17.7.7,0,0,1-.08-1l.05-.06a.74.74,0,0,1,1-.06.69.69,0,0,1,.06,1l0,0A.72.72,0,0,1,55,106.16Zm9.47-1.44a.75.75,0,0,1-.37-.11l-.06,0a.69.69,0,0,1-.24-1,.73.73,0,0,1,1-.24l.06,0a.7.7,0,0,1,.24,1A.72.72,0,0,1,64.42,104.72Zm-7.48-.16a.71.71,0,0,1-.62-.36.7.7,0,0,1,.27-1l.07,0a.73.73,0,0,1,1,.27.7.7,0,0,1-.29,1l-.06,0A.73.73,0,0,1,56.94,104.56Zm5.09-.77-.15,0h-.06a.7.7,0,0,1-.57-.82.72.72,0,0,1,.84-.56h.08a.71.71,0,0,1,.56.84A.72.72,0,0,1,62,103.79Zm-2.65-.05a.71.71,0,0,1-.11-1.41h.07a.72.72,0,0,1,.82.6.71.71,0,0,1-.6.8h-.18Z"/></g><g class="cls-2"><path class="cls-3" d="M108.56,79.73a1.82,1.82,0,0,1-1.81-1.51,1.79,1.79,0,0,1,1.52-2.06l.17,0a1.84,1.84,0,0,1,2.12,1.47,1.81,1.81,0,0,1-1.51,2.08l-.2,0A1.42,1.42,0,0,1,108.56,79.73Zm-6.4-.06a1.84,1.84,0,0,1-.33,0l-.2,0a1.81,1.81,0,0,1-1.46-2.11,1.83,1.83,0,0,1,2.15-1.43l.16,0A1.81,1.81,0,0,1,104,78.19,1.84,1.84,0,0,1,102.16,79.67Zm12.62-2a1.86,1.86,0,0,1-1.6-.92,1.78,1.78,0,0,1,.7-2.45l.15-.08a1.86,1.86,0,0,1,2.51.66,1.79,1.79,0,0,1-.68,2.46l-.18.1A1.91,1.91,0,0,1,114.78,77.62ZM96,77.43a1.83,1.83,0,0,1-.93-.25l-.18-.1a1.78,1.78,0,0,1-.63-2.47A1.87,1.87,0,0,1,96.77,74l.14.08a1.79,1.79,0,0,1,.66,2.47A1.86,1.86,0,0,1,96,77.43Zm23.9-3.9a1.86,1.86,0,0,1-1.2-.43,1.77,1.77,0,0,1-.19-2.54l.1-.12a1.88,1.88,0,0,1,2.6-.22,1.79,1.79,0,0,1,.22,2.54l-.14.15A1.84,1.84,0,0,1,119.88,73.53ZM91,73.24a1.85,1.85,0,0,1-1.42-.65s-.09-.1-.13-.16a1.77,1.77,0,0,1,.27-2.53,1.88,1.88,0,0,1,2.59.27l.11.13a1.78,1.78,0,0,1-.25,2.53A1.84,1.84,0,0,1,91,73.24ZM123.24,68a2.05,2.05,0,0,1-.64-.11,1.8,1.8,0,0,1-1.08-2.32l.06-.16a1.86,1.86,0,0,1,2.36-1.07,1.79,1.79,0,0,1,1.1,2.31,1.07,1.07,0,0,0-.07.19A1.84,1.84,0,0,1,123.24,68Zm-35.52-.36A1.82,1.82,0,0,1,86,66.43a1.07,1.07,0,0,1-.07-.19A1.79,1.79,0,0,1,87.07,64a1.85,1.85,0,0,1,2.33,1.12.88.88,0,0,1,0,.15,1.79,1.79,0,0,1-1.11,2.3A2,2,0,0,1,87.72,67.63Zm36.73-6h0a1.82,1.82,0,0,1-1.83-1.81v-.17a1.84,1.84,0,0,1,3.68,0v.2A1.82,1.82,0,0,1,124.45,61.65Zm-37.8-.38h0a1.81,1.81,0,0,1-1.82-1.82v-.19a1.83,1.83,0,0,1,1.84-1.77h0a1.83,1.83,0,0,1,1.8,1.84v.16A1.82,1.82,0,0,1,86.65,61.27Zm36.85-5.6a1.83,1.83,0,0,1-1.74-1.24l-.06-.15A1.81,1.81,0,0,1,122.85,52a1.86,1.86,0,0,1,2.34,1.13l.06.19a1.79,1.79,0,0,1-1.17,2.27A2,2,0,0,1,123.5,55.67Zm-35.64-.73a1.87,1.87,0,0,1-.65-.12,1.79,1.79,0,0,1-1.07-2.32l.07-.18a1.85,1.85,0,0,1,2.38-1,1.78,1.78,0,0,1,1,2.33l-.06.15A1.85,1.85,0,0,1,87.86,54.94ZM120.38,50a1.87,1.87,0,0,1-1.45-.69l-.1-.12a1.76,1.76,0,0,1,.28-2.53,1.85,1.85,0,0,1,2.58.27l.13.15a1.78,1.78,0,0,1-.3,2.53A1.87,1.87,0,0,1,120.38,50Zm-29.15-.6A1.87,1.87,0,0,1,90,49a1.77,1.77,0,0,1-.19-2.54l.13-.15a1.87,1.87,0,0,1,2.6-.16,1.78,1.78,0,0,1,.16,2.54l-.11.12A1.85,1.85,0,0,1,91.23,49.4Zm24.22-3.69a1.85,1.85,0,0,1-1-.26l-.14-.09a1.77,1.77,0,0,1-.63-2.47,1.85,1.85,0,0,1,2.52-.61l.18.1a1.79,1.79,0,0,1,.6,2.48A1.85,1.85,0,0,1,115.45,45.71Zm-19.11-.39a1.83,1.83,0,0,1-1.61-.92A1.77,1.77,0,0,1,95.44,42l.17-.1a1.87,1.87,0,0,1,2.5.72A1.78,1.78,0,0,1,97.38,45l-.15.08A1.79,1.79,0,0,1,96.34,45.32Zm13-2a2.21,2.21,0,0,1-.37,0l-.16,0a1.8,1.8,0,0,1-1.46-2.11,1.83,1.83,0,0,1,2.15-1.43l.2,0a1.8,1.8,0,0,1,1.44,2.12A1.84,1.84,0,0,1,109.33,43.35Zm-6.78-.14a1.83,1.83,0,0,1-1.81-1.52,1.8,1.8,0,0,1,1.53-2.06l.2,0a1.83,1.83,0,0,1,2.09,1.52,1.81,1.81,0,0,1-1.55,2l-.16,0A1.53,1.53,0,0,1,102.55,43.21Z"/><path class="cls-3" d="M107.72,74.15a1.33,1.33,0,0,1-1.31-1.1,1.31,1.31,0,0,1,1.1-1.49h.12a1.31,1.31,0,0,1,1.53,1.06,1.29,1.29,0,0,1-1.08,1.5l-.15,0Zm-4.62-.05-.24,0-.14,0a1.29,1.29,0,0,1-1-1.52,1.33,1.33,0,0,1,1.55-1l.12,0A1.31,1.31,0,0,1,104.41,73,1.33,1.33,0,0,1,103.1,74.1Zm9.11-1.48a1.31,1.31,0,0,1-1.15-.67,1.27,1.27,0,0,1,.5-1.76l.11-.06a1.34,1.34,0,0,1,1.81.48,1.27,1.27,0,0,1-.49,1.77l-.13.07A1.37,1.37,0,0,1,112.21,72.62Zm-13.57-.14A1.35,1.35,0,0,1,98,72.3l-.13-.07a1.29,1.29,0,0,1-.45-1.78A1.34,1.34,0,0,1,99.21,70l.11.06a1.29,1.29,0,0,1,.47,1.78A1.34,1.34,0,0,1,98.64,72.48Zm17.25-2.81a1.36,1.36,0,0,1-.87-.31,1.29,1.29,0,0,1-.13-1.84l.07-.08a1.35,1.35,0,0,1,1.87-.16,1.26,1.26,0,0,1,.16,1.83l-.09.11A1.35,1.35,0,0,1,115.89,69.67ZM95,69.46A1.33,1.33,0,0,1,94,69l-.09-.11a1.28,1.28,0,0,1,.2-1.83,1.35,1.35,0,0,1,1.86.19l.08.1a1.26,1.26,0,0,1-.18,1.82A1.35,1.35,0,0,1,95,69.46Zm23.29-3.79a1.33,1.33,0,0,1-.47-.08,1.3,1.3,0,0,1-.77-1.68l0-.11a1.33,1.33,0,0,1,1.7-.77,1.29,1.29,0,0,1,.79,1.67.69.69,0,0,1,0,.13A1.32,1.32,0,0,1,118.32,65.67Zm-25.64-.26a1.33,1.33,0,0,1-1.25-.86l-.05-.14a1.3,1.3,0,0,1,.83-1.65,1.34,1.34,0,0,1,1.69.81l0,.11a1.29,1.29,0,0,1-.8,1.66A1.41,1.41,0,0,1,92.68,65.41Zm26.51-4.31h0a1.33,1.33,0,0,1-1.32-1.31v-.12a1.33,1.33,0,0,1,2.66,0v.14A1.32,1.32,0,0,1,119.19,61.1Zm-27.28-.28h0a1.3,1.3,0,0,1-1.31-1.31v-.14a1.32,1.32,0,0,1,1.33-1.27h0a1.31,1.31,0,0,1,1.3,1.32v.12A1.32,1.32,0,0,1,91.91,60.82Zm26.6-4a1.32,1.32,0,0,1-1.26-.9.42.42,0,0,1,0-.1,1.29,1.29,0,0,1,.83-1.65,1.33,1.33,0,0,1,1.68.81s0,.09,0,.14a1.28,1.28,0,0,1-.85,1.63A1.22,1.22,0,0,1,118.51,56.78Zm-25.73-.53a1.6,1.6,0,0,1-.47-.08,1.3,1.3,0,0,1-.77-1.68.69.69,0,0,0,0-.13,1.34,1.34,0,0,1,1.72-.74,1.29,1.29,0,0,1,.76,1.68l0,.11A1.33,1.33,0,0,1,92.78,56.25Zm23.47-3.56a1.32,1.32,0,0,1-1-.5l-.08-.09a1.28,1.28,0,0,1,.2-1.83,1.35,1.35,0,0,1,1.87.2l.09.11a1.27,1.27,0,0,1-.22,1.82A1.32,1.32,0,0,1,116.25,52.69Zm-21-.44a1.35,1.35,0,0,1-.87-.31,1.28,1.28,0,0,1-.14-1.84l.1-.11a1.35,1.35,0,0,1,1.87-.11,1.28,1.28,0,0,1,.12,1.83l-.08.09A1.32,1.32,0,0,1,95.22,52.25Zm17.48-2.66a1.37,1.37,0,0,1-.7-.19l-.1-.06a1.28,1.28,0,0,1-.45-1.78,1.34,1.34,0,0,1,1.82-.45l.12.08a1.28,1.28,0,0,1,.44,1.79A1.35,1.35,0,0,1,112.7,49.59Zm-13.8-.28a1.32,1.32,0,0,1-1.16-.67,1.27,1.27,0,0,1,.51-1.76l.13-.07a1.33,1.33,0,0,1,1.8.51,1.29,1.29,0,0,1-.53,1.77l-.1,0A1.29,1.29,0,0,1,98.9,49.31Zm9.38-1.43a1.23,1.23,0,0,1-.27,0l-.12,0a1.31,1.31,0,0,1-1-1.53,1.33,1.33,0,0,1,1.55-1l.15,0a1.3,1.3,0,0,1-.26,2.57Zm-4.89-.1a1.3,1.3,0,0,1-.21-2.58l.15,0a1.32,1.32,0,0,1,1.5,1.1,1.29,1.29,0,0,1-1.11,1.47l-.12,0Z"/><path class="cls-3" d="M107.72,74.3a1.32,1.32,0,0,1-.34,0l.07-.3a1.24,1.24,0,0,0,.27,0Zm-4.62,0a1.1,1.1,0,0,1-.26,0h-.08l.06-.3h.07l.21,0Zm9.11-1.48a1.32,1.32,0,0,1-.34,0l.07-.3a.84.84,0,0,0,.27,0Zm-13.57-.14a1.32,1.32,0,0,1-.34,0l.07-.29a1.24,1.24,0,0,0,.27,0Zm17.25-2.81a1.32,1.32,0,0,1-.34,0l.07-.29a1.24,1.24,0,0,0,.27,0ZM95,69.61a1.34,1.34,0,0,1-.35,0l.07-.29a1.27,1.27,0,0,0,.28,0Zm23.29-3.79a1.27,1.27,0,0,1-.34,0l.07-.29a1.24,1.24,0,0,0,.27,0Zm-25.64-.25a2,2,0,0,1-.34,0l.07-.3a1.24,1.24,0,0,0,.27,0Zm26.51-4.32h0a1.24,1.24,0,0,1-.33,0l.07-.3a1.09,1.09,0,0,0,.26,0ZM91.91,61h0l-.33,0,.08-.3a1.07,1.07,0,0,0,.25,0Zm26.6-4a1.34,1.34,0,0,1-.35,0l.07-.29a1.33,1.33,0,0,0,.28,0ZM92.78,56.4a1.32,1.32,0,0,1-.34,0l.07-.29a1.24,1.24,0,0,0,.27,0Zm23.47-3.56a2,2,0,0,1-.34,0l.07-.3a1.24,1.24,0,0,0,.27,0Zm-21-.44a1.34,1.34,0,0,1-.35,0l.07-.29a1.27,1.27,0,0,0,.28,0Zm17.47-2.65a2,2,0,0,1-.34,0l.07-.3a1.24,1.24,0,0,0,.27,0ZM98.9,49.46a1.27,1.27,0,0,1-.34,0l.07-.29.27,0ZM108.28,48a1.53,1.53,0,0,1-.3,0h0l.06-.3h0l.24,0Zm-4.89-.1a2.09,2.09,0,0,1-.35,0l.08-.3a1.18,1.18,0,0,0,.27,0Z"/><path class="cls-3" d="M106,62.64a.27.27,0,0,1-.27-.23.26.26,0,0,1,.22-.3h0a.27.27,0,0,1,.31.22.26.26,0,0,1-.22.31H106Zm-1,0H105a.26.26,0,1,1,.1-.52h0a.28.28,0,0,1,.23.31A.28.28,0,0,1,105.05,62.63Zm1.87-.3a.27.27,0,0,1-.13-.51h0a.27.27,0,0,1,.37.1.27.27,0,0,1-.1.37h0A.37.37,0,0,1,106.92,62.33Zm-2.79,0a.23.23,0,0,1-.14,0h0a.27.27,0,0,1-.09-.37.28.28,0,0,1,.38-.09h0a.26.26,0,0,1,.09.37A.28.28,0,0,1,104.13,62.3Zm3.55-.58a.27.27,0,0,1-.21-.44l0,0a.27.27,0,0,1,.38,0,.26.26,0,0,1,0,.37l0,0A.29.29,0,0,1,107.68,61.72Zm-4.3,0a.3.3,0,0,1-.21-.1l0,0a.28.28,0,0,1,0-.38.28.28,0,0,1,.39,0v0a.27.27,0,0,1-.21.44Zm4.8-.78-.1,0a.27.27,0,0,1-.16-.35v0a.27.27,0,0,1,.35-.16.26.26,0,0,1,.17.34v0A.29.29,0,0,1,108.18,60.9Zm-5.28-.06a.28.28,0,0,1-.26-.18v0a.26.26,0,0,1,.17-.34.27.27,0,0,1,.35.16v0a.27.27,0,0,1-.17.34Zm5.46-.89h0a.26.26,0,0,1-.27-.27v0a.27.27,0,0,1,.54,0v0A.26.26,0,0,1,108.36,60Zm-5.62-.05h0a.28.28,0,0,1-.27-.27v0a.26.26,0,0,1,.27-.26h0a.27.27,0,0,1,.27.27v0A.28.28,0,0,1,102.74,59.9Zm5.48-.84a.27.27,0,0,1-.26-.18v0a.27.27,0,0,1,.17-.34.28.28,0,0,1,.35.17v0a.27.27,0,0,1-.18.34Zm-5.3-.1-.09,0a.26.26,0,0,1-.16-.35v0a.27.27,0,0,1,.35-.16.28.28,0,0,1,.16.35v0A.28.28,0,0,1,102.92,59Zm4.83-.74a.25.25,0,0,1-.21-.1l0,0a.28.28,0,0,1,0-.38.29.29,0,0,1,.39,0l0,0a.26.26,0,0,1,0,.37A.27.27,0,0,1,107.75,58.22Zm-4.33-.09a.32.32,0,0,1-.18-.06.27.27,0,0,1,0-.38l0,0a.28.28,0,0,1,.38,0,.27.27,0,0,1,0,.38l0,0A.27.27,0,0,1,103.42,58.13Zm3.6-.54a.33.33,0,0,1-.14,0l0,0a.26.26,0,0,1-.1-.36.29.29,0,0,1,.38-.1l0,0a.26.26,0,0,1,.09.37A.28.28,0,0,1,107,57.59Zm-2.84-.06a.28.28,0,0,1-.24-.14.27.27,0,0,1,.11-.36l0,0a.27.27,0,0,1,.37.11.25.25,0,0,1-.1.36h0A.2.2,0,0,1,104.18,57.53Zm1.93-.3H106a.26.26,0,0,1-.21-.31.26.26,0,0,1,.32-.21h0a.27.27,0,0,1,.21.32A.27.27,0,0,1,106.11,57.23Zm-1,0a.26.26,0,0,1-.27-.22.26.26,0,0,1,.22-.31h0a.27.27,0,0,1,.31.22.27.27,0,0,1-.23.31h-.06Z"/><path class="cls-3" d="M106.4,65.33a.52.52,0,0,1-.51-.43.5.5,0,0,1,.43-.58h.05a.51.51,0,1,1,.17,1h-.14Zm-1.81,0h-.15a.51.51,0,0,1-.41-.59.52.52,0,0,1,.61-.41h0a.51.51,0,0,1-.09,1Zm3.57-.58a.53.53,0,0,1-.46-.26.5.5,0,0,1,.2-.69l0,0a.53.53,0,0,1,.71.19.5.5,0,0,1-.19.7l0,0A.47.47,0,0,1,108.16,64.73Zm-5.31,0a.68.68,0,0,1-.27-.07l0,0a.51.51,0,0,1-.17-.7.52.52,0,0,1,.71-.17l0,0a.5.5,0,0,1,.19.69A.53.53,0,0,1,102.85,64.68Zm6.75-1.1a.52.52,0,0,1-.4-.84l0,0a.54.54,0,0,1,.74-.06.51.51,0,0,1,.06.72l0,0A.51.51,0,0,1,109.6,63.58Zm-8.17-.09a.52.52,0,0,1-.4-.18l0,0a.51.51,0,0,1,.08-.72.52.52,0,0,1,.73.08l0,0a.5.5,0,0,1-.07.72A.49.49,0,0,1,101.43,63.49ZM110.55,62l-.19,0a.51.51,0,0,1-.3-.66l0,0a.52.52,0,0,1,.66-.3.5.5,0,0,1,.31.65l0,0A.5.5,0,0,1,110.55,62Zm-10-.1a.5.5,0,0,1-.48-.34l0,0a.5.5,0,0,1,.32-.65.52.52,0,0,1,.66.32v0a.5.5,0,0,1-.31.65Zm10.38-1.69h0a.51.51,0,0,1-.51-.51v-.05a.52.52,0,0,1,1,0v.06A.51.51,0,0,1,110.89,60.22Zm-10.68-.11h0a.51.51,0,0,1-.52-.51v-.06a.52.52,0,0,1,.52-.49h0a.5.5,0,0,1,.51.51v0A.51.51,0,0,1,100.21,60.11Zm10.41-1.58a.52.52,0,0,1-.49-.35l0,0a.52.52,0,0,1,.33-.65.53.53,0,0,1,.66.32v0a.51.51,0,0,1-.33.65Zm-10.07-.21a.57.57,0,0,1-.18,0,.5.5,0,0,1-.3-.65l0-.06a.52.52,0,0,1,.67-.29.51.51,0,0,1,.3.66l0,0A.52.52,0,0,1,100.55,58.32Zm9.19-1.39a.53.53,0,0,1-.41-.19l0,0a.51.51,0,0,1,.08-.72.53.53,0,0,1,.73.08l0,0a.5.5,0,0,1-.08.72A.56.56,0,0,1,109.74,56.93Zm-8.23-.17a.54.54,0,0,1-.34-.12.51.51,0,0,1-.06-.72l0,0a.53.53,0,0,1,.73-.05.5.5,0,0,1,.05.72l0,0A.51.51,0,0,1,101.51,56.76Zm6.84-1a.57.57,0,0,1-.28-.08l0,0a.51.51,0,0,1-.17-.7.52.52,0,0,1,.71-.17l.05,0a.51.51,0,0,1,.17.7A.54.54,0,0,1,108.35,55.72Zm-5.4-.11a.55.55,0,0,1-.46-.26.5.5,0,0,1,.2-.69l0,0a.52.52,0,0,1,.71.2.5.5,0,0,1-.21.69l0,0A.47.47,0,0,1,103,55.61Zm3.67-.56h-.15a.52.52,0,0,1-.42-.59.53.53,0,0,1,.61-.41h.06a.51.51,0,0,1-.1,1Zm-1.92,0a.52.52,0,0,1-.51-.43.51.51,0,0,1,.43-.58h.06a.52.52,0,0,1,.59.43.51.51,0,0,1-.44.58h-.13Z"/><path class="cls-3" d="M107,69.16a.85.85,0,0,1-.14-1.69h.08a.85.85,0,1,1,.29,1.68H107Zm-3,0h-.15l-.1,0a.85.85,0,0,1-.69-1,.87.87,0,0,1,1-.67h.08a.85.85,0,0,1-.16,1.69Zm6-1a.88.88,0,0,1-.76-.44.85.85,0,0,1,.34-1.16l.06,0a.87.87,0,0,1,1.19.31.85.85,0,0,1-.32,1.17l-.08,0A.84.84,0,0,1,109.92,68.16Zm-8.9-.09a.88.88,0,0,1-.44-.12l-.09,0a.84.84,0,0,1-.29-1.17.87.87,0,0,1,1.19-.3l.07,0a.85.85,0,0,1,.31,1.17A.87.87,0,0,1,101,68.07Zm11.32-1.84a.86.86,0,0,1-.57-.21.83.83,0,0,1-.09-1.2l0-.06a.88.88,0,0,1,1.22-.1.84.84,0,0,1,.11,1.2l-.06.07A.88.88,0,0,1,112.34,66.23Zm-13.69-.14a.91.91,0,0,1-.68-.31l-.06-.07a.85.85,0,0,1,.13-1.2.88.88,0,0,1,1.23.13l0,0a.85.85,0,0,1-.12,1.2A.83.83,0,0,1,98.65,66.09Zm15.28-2.49a.84.84,0,0,1-.31-.05.85.85,0,0,1-.51-1.1l0-.07a.89.89,0,0,1,1.12-.51.85.85,0,0,1,.52,1.09l0,.09A.87.87,0,0,1,113.93,63.6Zm-16.82-.17a.85.85,0,0,1-.82-.56.36.36,0,0,0,0-.09.86.86,0,0,1,.55-1.09.87.87,0,0,1,1.1.54l0,.07a.84.84,0,0,1-.53,1.08A.77.77,0,0,1,97.11,63.43ZM114.5,60.6h0a.86.86,0,0,1-.86-.86v-.08a.87.87,0,0,1,1.74,0v.1A.86.86,0,0,1,114.5,60.6Zm-17.9-.18h0a.85.85,0,0,1-.86-.86v-.09a.86.86,0,0,1,.87-.84h0a.86.86,0,0,1,.85.87v.08A.85.85,0,0,1,96.6,60.42Zm17.45-2.65a.87.87,0,0,1-.83-.59l0-.07a.84.84,0,0,1,.54-1.08.89.89,0,0,1,1.11.53l0,.09a.85.85,0,0,1-.56,1.08A.84.84,0,0,1,114.05,57.77Zm-16.88-.35a1,1,0,0,1-.3-.05.85.85,0,0,1-.51-1.1l0-.09a.88.88,0,0,1,1.13-.49A.86.86,0,0,1,98,56.8l0,.07A.87.87,0,0,1,97.17,57.42Zm15.4-2.34a.87.87,0,0,1-.68-.32l0-.06a.84.84,0,0,1,.13-1.2.87.87,0,0,1,1.22.13l.06.07a.84.84,0,0,1-.14,1.2A.9.9,0,0,1,112.57,55.08Zm-13.8-.28a.89.89,0,0,1-.57-.21.84.84,0,0,1-.09-1.2l.06-.07a.88.88,0,0,1,1.23-.08.85.85,0,0,1,.08,1.21l0,0A.87.87,0,0,1,98.77,54.8Zm11.47-1.75a.93.93,0,0,1-.46-.12l-.07,0a.84.84,0,0,1-.29-1.17.86.86,0,0,1,1.19-.29l.09,0a.84.84,0,0,1,.28,1.17A.87.87,0,0,1,110.24,53.05Zm-9-.18a.87.87,0,0,1-.76-.44.84.84,0,0,1,.33-1.16l.08,0a.89.89,0,0,1,1.19.33.85.85,0,0,1-.35,1.16l-.07,0A.91.91,0,0,1,101.19,52.87Zm6.15-.94h-.18l-.07,0a.85.85,0,0,1-.69-1,.86.86,0,0,1,1-.67l.09,0a.84.84,0,0,1,.68,1A.87.87,0,0,1,107.34,51.93Zm-3.21-.06a.85.85,0,0,1-.13-1.7h.09a.86.86,0,1,1,.26,1.69h-.22Z"/></g><g class="cls-2"><path class="cls-3" d="M54.92,75.73a1.15,1.15,0,0,1-.18-2.29l.1,0a1.18,1.18,0,0,1,1.36,1,1.15,1.15,0,0,1-1,1.33l-.13,0Zm-4.1,0h-.21l-.13,0a1.15,1.15,0,1,1,.44-2.26H51a1.15,1.15,0,0,1-.21,2.29Zm8.09-1.31a1.21,1.21,0,0,1-1-.59,1.16,1.16,0,0,1,.46-1.58l.09,0a1.21,1.21,0,0,1,1.61.43,1.15,1.15,0,0,1-.44,1.58l-.11.06A1.19,1.19,0,0,1,58.91,74.38Zm-12.06-.13a1.26,1.26,0,0,1-.59-.15L46.15,74a1.14,1.14,0,0,1-.41-1.58,1.19,1.19,0,0,1,1.62-.4l.09.06a1.13,1.13,0,0,1,.42,1.58A1.19,1.19,0,0,1,46.85,74.25Zm15.33-2.49a1.18,1.18,0,0,1-.77-.28,1.14,1.14,0,0,1-.12-1.63l.07-.08A1.2,1.2,0,0,1,63,69.63a1.14,1.14,0,0,1,.14,1.63l-.09.1A1.19,1.19,0,0,1,62.18,71.76Zm-18.54-.19a1.19,1.19,0,0,1-.91-.42l-.08-.1a1.13,1.13,0,0,1,.18-1.62,1.19,1.19,0,0,1,1.65.17l.07.08a1.13,1.13,0,0,1-.16,1.63A1.16,1.16,0,0,1,43.64,71.57Zm20.7-3.36a1.25,1.25,0,0,1-.42-.08,1.16,1.16,0,0,1-.69-1.49l0-.1a1.2,1.2,0,0,1,1.52-.68,1.15,1.15,0,0,1,.7,1.48l0,.12A1.18,1.18,0,0,1,64.34,68.21ZM41.56,68a1.18,1.18,0,0,1-1.11-.77.65.65,0,0,1,0-.13,1.14,1.14,0,0,1,.73-1.46,1.19,1.19,0,0,1,1.5.72l0,.1A1.14,1.14,0,0,1,42,67.91,1.34,1.34,0,0,1,41.56,68Zm23.55-3.84h0A1.18,1.18,0,0,1,63.93,63v-.11a1.18,1.18,0,0,1,2.36,0V63A1.16,1.16,0,0,1,65.11,64.14ZM40.87,63.9h0a1.18,1.18,0,0,1-1.17-1.17V62.6a1.17,1.17,0,0,1,1.18-1.13h0a1.16,1.16,0,0,1,1.15,1.18v.11A1.17,1.17,0,0,1,40.87,63.9ZM64.5,60.3a1.18,1.18,0,0,1-1.12-.79l0-.1A1.14,1.14,0,0,1,64.09,58a1.17,1.17,0,0,1,1.49.72l0,.12a1.16,1.16,0,0,1-.76,1.46A1.14,1.14,0,0,1,64.5,60.3Zm-22.85-.47a1.23,1.23,0,0,1-.42-.07,1.15,1.15,0,0,1-.68-1.49l0-.12a1.18,1.18,0,0,1,1.53-.65A1.14,1.14,0,0,1,42.79,59l0,.1A1.16,1.16,0,0,1,41.65,59.83ZM62.5,56.67a1.2,1.2,0,0,1-.93-.44l-.06-.08a1.15,1.15,0,0,1,.17-1.63,1.2,1.2,0,0,1,1.66.18l.08.1a1.13,1.13,0,0,1-.19,1.62A1.17,1.17,0,0,1,62.5,56.67Zm-18.69-.39A1.18,1.18,0,0,1,43,56a1.14,1.14,0,0,1-.12-1.63l.08-.09a1.19,1.19,0,0,1,1.67-.1,1.13,1.13,0,0,1,.1,1.62.27.27,0,0,1-.07.08A1.16,1.16,0,0,1,43.81,56.28Zm15.53-2.36a1.19,1.19,0,0,1-.62-.17l-.09-.06a1.13,1.13,0,0,1-.4-1.58,1.19,1.19,0,0,1,1.62-.39l.11.06a1.15,1.15,0,0,1,.39,1.59A1.18,1.18,0,0,1,59.34,53.92Zm-12.26-.25a1.21,1.21,0,0,1-1-.59,1.15,1.15,0,0,1,.46-1.57l.11-.06a1.18,1.18,0,0,1,1.6.45,1.15,1.15,0,0,1-.47,1.57l-.09.05A1.19,1.19,0,0,1,47.08,53.67Zm8.33-1.27-.23,0-.11,0A1.15,1.15,0,0,1,54.14,51a1.18,1.18,0,0,1,1.38-.92l.13,0a1.15,1.15,0,0,1,.92,1.36A1.19,1.19,0,0,1,55.41,52.4Zm-4.34-.09A1.15,1.15,0,0,1,50.89,50L51,50a1.18,1.18,0,0,1,1.34,1,1.16,1.16,0,0,1-1,1.31l-.1,0Z"/><path class="cls-3" d="M54.39,72.15a.83.83,0,0,1-.14-1.65l.08,0a.86.86,0,0,1,1,.69.83.83,0,0,1-.7,1h-.22Zm-3,0h-.15l-.09,0a.84.84,0,0,1-.68-1,.85.85,0,0,1,1-.66h.07a.84.84,0,0,1,.69,1A.85.85,0,0,1,51.42,72.12Zm5.85-1a.87.87,0,0,1-.75-.42.83.83,0,0,1,.33-1.14l.06,0a.87.87,0,0,1,1.17.3A.83.83,0,0,1,57.76,71l-.08,0A.77.77,0,0,1,57.27,71.17Zm-8.71-.09a.86.86,0,0,1-.43-.11l-.08,0a.82.82,0,0,1-.29-1.14.87.87,0,0,1,1.17-.29l.07,0a.83.83,0,0,1,.3,1.14A.85.85,0,0,1,48.56,71.08Zm11.06-1.8a.83.83,0,0,1-.55-.2A.82.82,0,0,1,59,67.9l.05-.05a.86.86,0,0,1,1.2-.1.82.82,0,0,1,.1,1.17l-.06.07A.87.87,0,0,1,59.62,69.28Zm-13.38-.13a.86.86,0,0,1-.65-.31l-.06-.07a.82.82,0,0,1,.12-1.17.86.86,0,0,1,1.2.13l0,0A.83.83,0,0,1,46.79,69,.86.86,0,0,1,46.24,69.15Zm14.94-2.43a.8.8,0,0,1-.3-.06.83.83,0,0,1-.5-1.07l0-.07A.87.87,0,0,1,61.5,65,.83.83,0,0,1,62,66.09l0,.09A.86.86,0,0,1,61.18,66.72Zm-16.44-.17a.84.84,0,0,1-.8-.55l0-.09a.83.83,0,0,1,.53-1.06.86.86,0,0,1,1.08.52l0,.07A.82.82,0,0,1,45,66.5.74.74,0,0,1,44.74,66.55Zm17-2.77h0a.83.83,0,0,1-.84-.84v-.07a.85.85,0,0,1,1.7,0V63A.83.83,0,0,1,61.74,63.78Zm-17.49-.17h0a.85.85,0,0,1-.85-.84v-.09a.84.84,0,0,1,.85-.82h0a.85.85,0,0,1,.84.85v.08A.85.85,0,0,1,44.25,63.61ZM61.3,61a.86.86,0,0,1-.81-.58l0-.07a.82.82,0,0,1,.53-1,.85.85,0,0,1,1.08.52l0,.08a.83.83,0,0,1-.54,1A.86.86,0,0,1,61.3,61Zm-16.49-.34a.8.8,0,0,1-.3-.06.82.82,0,0,1-.5-1.07l0-.09A.86.86,0,0,1,45.15,59a.83.83,0,0,1,.48,1.08l0,.07A.85.85,0,0,1,44.81,60.68Zm15-2.29a.83.83,0,0,1-.66-.32l0,0a.82.82,0,0,1,.13-1.18.86.86,0,0,1,1.19.13l.06.07a.82.82,0,0,1-.14,1.17A.85.85,0,0,1,59.85,58.39Zm-13.48-.28a.84.84,0,0,1-.56-.2.81.81,0,0,1-.09-1.17l.06-.07A.87.87,0,0,1,47,56.59a.83.83,0,0,1,.07,1.18l-.05,0A.85.85,0,0,1,46.37,58.11Zm11.2-1.7a.88.88,0,0,1-.44-.12l-.07,0a.83.83,0,0,1-.29-1.15.87.87,0,0,1,1.17-.28l.08,0A.81.81,0,0,1,58.3,56,.85.85,0,0,1,57.57,56.41Zm-8.84-.18A.88.88,0,0,1,48,55.8a.83.83,0,0,1,.33-1.13l.08-.05a.87.87,0,0,1,1.16.33.83.83,0,0,1-.34,1.13l-.07,0A.87.87,0,0,1,48.73,56.23Zm6-.92h-.17l-.08,0a.83.83,0,0,1-.67-1,.84.84,0,0,1,1-.66h.09a.83.83,0,0,1,.66,1A.84.84,0,0,1,54.74,55.31Zm-3.13-.06a.83.83,0,0,1-.14-1.66h.1a.85.85,0,0,1,1,.7.84.84,0,0,1-.71.95h-.21Z"/><path class="cls-3" d="M54.39,72.25a.91.91,0,0,1-.23,0l.05-.19a.55.55,0,0,0,.18,0Zm-3,0h-.21l0-.19h.18Zm5.85-1a.91.91,0,0,1-.23,0l.05-.19a.55.55,0,0,0,.18,0Zm-8.71-.09-.22,0,0-.19.17,0Zm11.06-1.8-.22,0,.05-.19a.5.5,0,0,0,.17,0Zm-13.38-.13-.22,0,0-.19.17,0Zm14.94-2.43a.83.83,0,0,1-.22,0l0-.19.17,0Zm-16.44-.17a.83.83,0,0,1-.22,0l0-.19a.47.47,0,0,0,.17,0Zm17-2.77h0l-.21,0,0-.19.16,0Zm-17.49-.17h0a.76.76,0,0,1-.21,0l0-.19.17,0Zm17-2.6a.82.82,0,0,1-.22,0l.05-.19.17,0Zm-16.49-.34a.78.78,0,0,1-.22,0l0-.19.18,0Zm15-2.28-.22,0,0-.19a.52.52,0,0,0,.17,0Zm-13.48-.28-.22,0,0-.2.18,0Zm11.2-1.7a.83.83,0,0,1-.22,0l0-.19.17,0Zm-8.84-.19a.78.78,0,0,1-.22,0l0-.19.18,0Zm6-.91-.19,0h0l0-.2h.18Zm-3.13-.06a.91.91,0,0,1-.23,0l0-.19.18,0Z"/><path class="cls-3" d="M53.28,64.77a.16.16,0,0,1-.17-.14.18.18,0,0,1,.14-.2h0a.17.17,0,1,1,.06.34h0Zm-.61,0h-.05a.17.17,0,0,1-.14-.2.19.19,0,0,1,.21-.14h0a.16.16,0,0,1,.14.2A.17.17,0,0,1,52.67,64.77Zm1.2-.2a.16.16,0,0,1-.15-.09.16.16,0,0,1,.07-.23h0a.18.18,0,0,1,.24.07.16.16,0,0,1-.07.23h0Zm-1.79,0a.15.15,0,0,1-.09,0h0a.16.16,0,0,1-.06-.23.17.17,0,0,1,.24-.06h0a.17.17,0,0,1-.09.32Zm2.28-.37a.19.19,0,0,1-.12,0,.16.16,0,0,1,0-.24h0a.17.17,0,0,1,.24,0,.16.16,0,0,1,0,.24h0A.16.16,0,0,1,54.36,64.18Zm-2.76,0a.17.17,0,0,1-.13-.07h0a.17.17,0,0,1,0-.24.18.18,0,0,1,.25,0h0a.18.18,0,0,1,0,.25A.21.21,0,0,1,51.6,64.16Zm3.08-.51h-.06a.18.18,0,0,1-.11-.22h0a.18.18,0,0,1,.33.12h0A.16.16,0,0,1,54.68,63.65Zm-3.39,0a.16.16,0,0,1-.16-.11v0a.17.17,0,0,1,.33-.11h0a.18.18,0,0,1-.11.22Zm3.5-.57h0a.18.18,0,0,1-.17-.17v0a.18.18,0,0,1,.17-.17.18.18,0,0,1,.18.17v0A.17.17,0,0,1,54.79,63.05Zm-3.6,0h0a.16.16,0,0,1-.17-.17v0a.18.18,0,0,1,.17-.17h0a.19.19,0,0,1,.17.18v0A.17.17,0,0,1,51.19,63Zm3.51-.53a.16.16,0,0,1-.16-.12h0a.17.17,0,0,1,.33-.11v0a.16.16,0,0,1-.11.21Zm-3.39-.07h-.06a.17.17,0,0,1-.11-.22v0a.18.18,0,0,1,.33.13h0A.17.17,0,0,1,51.31,62.41Zm3.1-.47a.17.17,0,0,1-.14-.06v0a.17.17,0,0,1,0-.24.18.18,0,0,1,.25,0h0a.16.16,0,0,1,0,.24A.14.14,0,0,1,54.41,61.94Zm-2.78-.06a.19.19,0,0,1-.12,0,.16.16,0,0,1,0-.24h0a.17.17,0,0,1,.25,0,.16.16,0,0,1,0,.24h0A.16.16,0,0,1,51.63,61.88Zm2.31-.35-.1,0h0a.18.18,0,0,1-.06-.24.18.18,0,0,1,.24,0h0a.18.18,0,0,1,.06.24A.21.21,0,0,1,53.94,61.53Zm-1.83,0a.18.18,0,0,1-.15-.08.17.17,0,0,1,.07-.24h0a.18.18,0,0,1,.23.07.17.17,0,0,1-.07.24h0A.15.15,0,0,1,52.11,61.49Zm1.24-.18H53.3a.18.18,0,0,1-.14-.2.19.19,0,0,1,.21-.14h0a.17.17,0,0,1,.13.2A.17.17,0,0,1,53.35,61.31Zm-.64,0a.17.17,0,0,1,0-.34h0a.19.19,0,0,1,.2.14.17.17,0,0,1-.15.2h0Z"/><path class="cls-3" d="M53.54,66.5a.34.34,0,0,1-.33-.28.32.32,0,0,1,.28-.37h0a.33.33,0,0,1,.11.65h-.09Zm-1.16,0h-.1a.32.32,0,0,1-.26-.38.33.33,0,0,1,.39-.26h0a.33.33,0,0,1,.27.38A.34.34,0,0,1,52.38,66.49Zm2.29-.38a.37.37,0,0,1-.3-.16.33.33,0,0,1,.13-.45h0a.33.33,0,0,1,.45.12.32.32,0,0,1-.12.44l0,0A.32.32,0,0,1,54.67,66.11Zm-3.41,0a.34.34,0,0,1-.17,0h0a.32.32,0,0,1-.11-.45.32.32,0,0,1,.45-.11h0a.33.33,0,0,1,.12.45A.36.36,0,0,1,51.26,66.08Zm4.33-.71a.3.3,0,0,1-.22-.08.32.32,0,0,1,0-.46v0a.35.35,0,0,1,.47,0,.32.32,0,0,1,0,.46l0,0A.32.32,0,0,1,55.59,65.37Zm-5.24-.05a.35.35,0,0,1-.26-.12l0,0a.32.32,0,0,1,0-.45.33.33,0,0,1,.47,0l0,0a.32.32,0,0,1-.26.53Zm5.85-.95-.12,0a.32.32,0,0,1-.19-.42v0a.33.33,0,0,1,.42-.19.32.32,0,0,1,.2.42v0A.34.34,0,0,1,56.2,64.37Zm-6.44-.06a.34.34,0,0,1-.31-.22v0a.32.32,0,0,1,.21-.41.33.33,0,0,1,.42.2v0a.33.33,0,0,1-.2.42Zm6.66-1.09h0a.33.33,0,0,1-.33-.33v0a.34.34,0,0,1,.67,0v0A.32.32,0,0,1,56.42,63.22Zm-6.85-.07h0a.32.32,0,0,1-.33-.33v0a.32.32,0,0,1,.33-.32h0a.32.32,0,0,1,.32.33v0A.32.32,0,0,1,49.57,63.15Zm6.67-1a.32.32,0,0,1-.31-.23v0a.33.33,0,0,1,.21-.42.34.34,0,0,1,.42.21v0a.32.32,0,0,1-.21.41ZM49.79,62l-.12,0a.33.33,0,0,1-.19-.43v0a.33.33,0,0,1,.43-.18.32.32,0,0,1,.19.42v0A.34.34,0,0,1,49.79,62Zm5.89-.9a.32.32,0,0,1-.26-.12l0,0a.3.3,0,0,1,.05-.45.33.33,0,0,1,.47.05l0,0a.32.32,0,0,1-.06.46A.31.31,0,0,1,55.68,61.11ZM50.4,61a.3.3,0,0,1-.22-.08.32.32,0,0,1,0-.46l0,0a.33.33,0,0,1,.47,0,.32.32,0,0,1,0,.46l0,0A.34.34,0,0,1,50.4,61Zm4.39-.66a.41.41,0,0,1-.18-.05l0,0a.33.33,0,0,1-.12-.45.35.35,0,0,1,.46-.11l0,0a.32.32,0,0,1,.11.45A.33.33,0,0,1,54.79,60.34Zm-3.47-.08A.35.35,0,0,1,51,60.1a.33.33,0,0,1,.13-.45h0a.33.33,0,0,1,.45.13.32.32,0,0,1-.13.44h0A.35.35,0,0,1,51.32,60.26Zm2.36-.35h-.1a.32.32,0,0,1-.26-.38.34.34,0,0,1,.39-.26h0a.33.33,0,0,1-.06.65Zm-1.23,0a.33.33,0,0,1-.33-.27.34.34,0,0,1,.28-.38h0a.33.33,0,0,1,.38.27.32.32,0,0,1-.28.37h-.08Z"/><path class="cls-3" d="M53.91,69a.55.55,0,0,1-.09-1.09h0a.56.56,0,0,1,.64.45.55.55,0,0,1-.45.63h-.15Zm-1.95,0H51.8a.55.55,0,0,1-.44-.64.56.56,0,0,1,.65-.44h.05a.55.55,0,0,1,.45.64A.56.56,0,0,1,52,68.94Zm3.84-.63a.55.55,0,0,1-.49-.28.54.54,0,0,1,.21-.74l0,0a.56.56,0,0,1,.76.2.54.54,0,0,1-.21.74l0,0A.54.54,0,0,1,55.8,68.31Zm-5.71,0a.6.6,0,0,1-.29-.08l0,0a.54.54,0,0,1-.19-.75.57.57,0,0,1,.77-.19l0,0a.54.54,0,0,1,.2.75A.57.57,0,0,1,50.09,68.26Zm7.25-1.19a.53.53,0,0,1-.36-.13.54.54,0,0,1-.06-.77l0,0a.57.57,0,0,1,.79-.06.53.53,0,0,1,.07.77l0,0A.56.56,0,0,1,57.34,67.07ZM48.57,67a.57.57,0,0,1-.44-.2l0-.05a.54.54,0,0,1,.08-.77.56.56,0,0,1,.78.08l0,0a.54.54,0,0,1-.08.77A.58.58,0,0,1,48.57,67Zm9.8-1.6a.64.64,0,0,1-.2,0,.55.55,0,0,1-.33-.71l0,0a.57.57,0,0,1,.72-.33.54.54,0,0,1,.33.7l0,.06A.56.56,0,0,1,58.37,65.39Zm-10.79-.11a.56.56,0,0,1-.53-.36l0-.06a.54.54,0,0,1,.35-.69.56.56,0,0,1,.71.34l0,0a.55.55,0,0,1-.34.7Zm11.15-1.81h0a.56.56,0,0,1-.56-.55v-.05a.56.56,0,0,1,1.12,0v.05A.55.55,0,0,1,58.73,63.47Zm-11.48-.12h0a.54.54,0,0,1-.55-.55v-.06a.55.55,0,0,1,.55-.54h0a.55.55,0,0,1,.54.56v.05A.55.55,0,0,1,47.25,63.35Zm11.19-1.7a.57.57,0,0,1-.53-.38v0a.54.54,0,0,1,.35-.7.56.56,0,0,1,.7.35l0,0a.54.54,0,0,1-.35.69A.57.57,0,0,1,58.44,61.65Zm-10.82-.22a.51.51,0,0,1-.2,0,.54.54,0,0,1-.32-.7l0-.06a.56.56,0,0,1,.72-.31.55.55,0,0,1,.32.71l0,0A.55.55,0,0,1,47.62,61.43Zm9.87-1.5a.54.54,0,0,1-.43-.21l0,0a.54.54,0,0,1,.09-.77.56.56,0,0,1,.78.09l0,0a.54.54,0,0,1-.09.77A.55.55,0,0,1,57.49,59.93Zm-8.85-.18a.58.58,0,0,1-.36-.14.54.54,0,0,1-.06-.77l0,0a.57.57,0,0,1,.79,0,.54.54,0,0,1,.05.77l0,0A.59.59,0,0,1,48.64,59.75ZM56,58.63a.6.6,0,0,1-.29-.08l-.05,0a.54.54,0,0,1-.19-.75.58.58,0,0,1,.77-.19l0,0a.53.53,0,0,1,.18.75A.54.54,0,0,1,56,58.63Zm-5.81-.12a.55.55,0,0,1-.27-1l0,0a.57.57,0,0,1,.76.21.53.53,0,0,1-.22.74l0,0A.55.55,0,0,1,50.19,58.51Zm4-.6H54a.55.55,0,0,1-.44-.64.56.56,0,0,1,.65-.44l.06,0a.55.55,0,0,1,.44.64A.57.57,0,0,1,54.14,57.91Zm-2.06,0a.57.57,0,0,1-.55-.46.55.55,0,0,1,.47-.63h.06a.55.55,0,0,1,.63.46.54.54,0,0,1-.47.62h-.14Z"/></g><path class="cls-4" d="M19,140.4s54.15-89.34,91-125.24c0,0-74.71,75.64-96.57,118.06Z"/><path class="cls-4" d="M251.67,169.44s-67.87-115.89-113-165c0,0,97,109.24,120.19,159.49Z"/><path class="cls-5" d="M225.67,138.37S180.53,51.73,135.38,2.58c0,0,83.51,101.56,106.67,151.81Z"/><path class="cls-6" d="M124.46,174.78s2.19-13.47,73.54-21.12a280.36,280.36,0,0,1,43-1.45"/><path class="cls-6" d="M17.79,143.83s3.28,28,34.22,35.32,71,13.47,71,13.47"/><path class="cls-6" d="M21.43,65.2s-11.65,30.94,9.11,59"/><path class="cls-6" d="M242.19,152.23s14.77-12.7,19.89-21.35,10.11-31.65,10.11-31.65"/><path class="cls-7" d="M143,206.81l.73-20.75s-17.84,6.19-18.57,10.56c0,0,2.18,2.18,8.92,4.55S143,206.81,143,206.81Z"/><path class="cls-5" d="M123.64,196.44,130.47,22S128.83,164.49,123.64,196.44Z"/></g></svg>