<svg xmlns="http://www.w3.org/2000/svg" width="441.15" height="610.82" viewBox="0 0 441.15 610.82">
  <defs>
    <style>
      .fb325d0b-b2e1-4f0b-a8c4-a4ec57d1e1c0 {
        fill: #20ed0f;
      }
    </style>
  </defs>
  <g id="bf2c43ea-7562-4055-b420-c7541b8ccd15" data-name="Layer 16">
    <path class="fb325d0b-b2e1-4f0b-a8c4-a4ec57d1e1c0" d="M430.7,530.3l-.73-.15L409.26,471.7c2.92-2.15,7.94-6.86,8.67-14.18.43-4.28-.53-10.69-7.5-17.09a11.79,11.79,0,0,0-5.71-3.49l-22.36-6A60.6,60.6,0,0,0,379,403.12a22.13,22.13,0,0,0-6.33-9.19,33.61,33.61,0,0,0-2.88-2.22c-8.24-14.6-22.46-23.76-41.3-26.56-7.1-1.06-13.6-2.19-19.43-3.38l-.65-12.33a28.06,28.06,0,0,0,1.88-2.53,9.93,9.93,0,0,0,1.61-4.64c0-.12.17-2,.3-4.72a64,64,0,0,0,4.88-5.42c5.05-6.29,11-7.38,18.45-8.75,7.81-1.44,17.52-3.23,23.61-12.76a62.2,62.2,0,0,0,3.11-5.42l12.6,4.8a9.88,9.88,0,0,0,3.56.66,10,10,0,0,0,5.68-18.23,62.61,62.61,0,0,0-13.27-7,46.25,46.25,0,0,1,5.34-4.15c5.63-4,15-10.62,11.88-23.22-1.67-6.66-5.22-10-8.16-11.82,1-1,2.09-2,3-2.85,5.78-5.39,13.69-12.78,14.64-23.25.83-9-1.08-13.63-3.1-17.57-.1-.18-.2-.39-.3-.58.68-.56,1.68-1.29,2.42-1.82,5.17-3.75,14.79-10.72,12.4-25A24.63,24.63,0,0,0,402.18,162,12.49,12.49,0,0,0,409.4,157a13.45,13.45,0,0,0,.23-14.47l6.87-7.17a10,10,0,0,0-7.21-16.92h-.49c-9.13.45-17.17,4.36-22.07,10.73-.28.35-.54.72-.79,1.09A24.3,24.3,0,0,0,384,117.76c-4-9-11.69-12.29-17.1-14.12a16.49,16.49,0,0,0,1.47-13.22,18.64,18.64,0,0,0-1.65-3.94l2.43-1.55a10,10,0,0,0-8.93-17.78,63.59,63.59,0,0,0-10.49,5.2c0-7-1.69-15.7-10-22.45-.7-.57-1.4-1.12-2.09-1.62a18.91,18.91,0,0,0,4.11-17.23c-.11-.44-.24-.88-.38-1.31l11.28-8.32A10,10,0,0,0,350.34,4a32,32,0,0,0-11.58-2.12c-12.81,0-24.72,7-30.44,17.87l-.83-.53a22.82,22.82,0,0,0-11.84-3.61c-6,0-10.12,2.74-13.15,4.74-1.9,1.26-2.85,1.83-3.75,2-.57-.63-1.41-1.81-2.06-2.72-3.58-5-9.57-13.43-23.11-14.4-.92-.06-1.85-.1-2.75-.1-11.25,0-18.32,5-23,8.37-.42.3-.9.65-1.37,1-2.73-4.72-8.37-12.7-24.24-12.7-17.7,0-23.58,11.24-27.1,18-1.11,2.13-2.27,4.34-3.28,5.17h-.4A41.83,41.83,0,0,1,164,23.65a70.33,70.33,0,0,0-15.78-2.25,36.64,36.64,0,0,0-20.6,6.14c-10.39,6.9-13.28,15.14-14.37,21.51q-3-2.09-6.13-3.89A10,10,0,0,0,92.5,51.45a15.71,15.71,0,0,0-6,3.8,17.66,17.66,0,0,0-2,2.48c-11.81,2.74-18.89,8.11-23.12,13.72a15.34,15.34,0,0,0-6-5.1A13.88,13.88,0,0,0,49.47,65a15.39,15.39,0,0,0-11.25,5.06l-.93-.34a10.28,10.28,0,0,0-3.41-.59,9.92,9.92,0,0,0-4.42,1,10,10,0,0,0-5.11,5.94,21.54,21.54,0,0,0,10.32,25.32,20.1,20.1,0,0,0,4.55,1.71,26.66,26.66,0,0,0-3.32,8.69,20.11,20.11,0,0,0,.68,11,42.91,42.91,0,0,0-11.23,3.92A10,10,0,0,0,31,145.61l1.71-.19c-5.07,4.61-10,10.43-10.81,19.07-.94,10.24,3.41,16.57,6.29,20.76,2.17,3.17,2.87,4.37,2.87,6.51,0,1.63-1.75,3.7-4.64,6.91-4.35,4.83-10.32,11.45-10.32,21.74,0,14,11.46,18.07,16.35,19.8.74.25,1.71.6,2.44.9a25.64,25.64,0,0,1-.86,4.35c-.23.91-.47,1.86-.68,2.85a59.65,59.65,0,0,0-12.06,8.51A29.51,29.51,0,0,0,13,271.21a29.55,29.55,0,0,0-4.09,4.13c-7.89,9.77-8.18,24.06-.67,33.24A10,10,0,0,0,16,312.26l.75,0a10,10,0,0,0,7.86-4.88l5.91-10a20.63,20.63,0,0,0,2.36.16H33a20.75,20.75,0,0,0,17.55-9.77A17.25,17.25,0,0,0,53.19,277a37.33,37.33,0,0,0,5.07.7c-.12.56-.24,1.11-.35,1.58-1.33,6-4.45,20,9.07,26a26.69,26.69,0,0,0,11,2.38,36.34,36.34,0,0,0,5.53-.48c0,1.18-.16,2.93-.28,4.21-.41,4.1-1.1,11.19,2.42,17.27a43,43,0,0,0-4.75,18.77A10,10,0,0,0,100,351.61l5.59-12.53c.45,0,.9,0,1.36,0,6.63,0,11.66-2.42,15-4l.18-.08a120.61,120.61,0,0,0,1.51,12.42,10,10,0,0,0,3.28,5.84c-.66,6.26-1.28,11.94-1.5,13.8-1.57,5.48-11.07,39.24-14.57,65.5l-37,4a12.55,12.55,0,0,0-5.64,2.05,11.52,11.52,0,0,0-1.37.85c-1.52,1.12-9.1,7.2-9.09,16.71,0,3.91,1.32,9.49,7.3,14.65L38.84,542.66a10,10,0,0,0-.27,16.57l22.64,15.82a10.31,10.31,0,0,0,1.36.8l28.06,13.61a10.25,10.25,0,0,0,3.6,1l19,10.56a9.39,9.39,0,0,0,1.36.64h0a9.59,9.59,0,0,0,1.29.39h0a10.18,10.18,0,0,0,2.21.24,9.93,9.93,0,0,0,1.79-.16h0c.2,0,.39-.08.58-.12l15-3.72a13.48,13.48,0,0,0,9-7.73l35.4-6.11a174.54,174.54,0,0,0,64.13,23.79l.6.14a9.79,9.79,0,0,0,1.95.22A152.88,152.88,0,0,0,263,610c.92,0,1.84,0,2.77,0h1c12.3,0,20.25-2.54,25-8A16.86,16.86,0,0,0,296,590.76c1.41-5.61,1.58-14.06-2.12-19.39-.08-.1-.15-.21-.23-.32-.3-1.53-.66-3-1.07-4.33l15.6-1.24a10.72,10.72,0,0,0,5.38,5.08c20.87,12.55,41.35,18.91,60.88,18.91,1.76,0,3.52-.06,5.25-.16,4,.55,7.95.93,11.74,1.13,1.34.08,2.62.11,3.81.11,3.71,0,15,0,19.26-8.69,1.44-3,2.29-7.4-.54-13,.69-5.16.24-11.52-2.75-15.79l11.16-.78a11.6,11.6,0,0,0,5.93-2.15l1.21-.1a10,10,0,0,0,1.22-19.76ZM294.43,515.13,266.29,518l-2.08-7.3a12.62,12.62,0,0,0-1-2.41c.21-6.69.4-13,.56-18.81l23.69-2.6Zm-97,1.4a13.18,13.18,0,0,0-7.38,9.39l-26,2.68,9.12-29.15,24.28-2.67C197.56,502.35,197.56,509.1,197.46,516.53Z"/>
  </g>
</svg>
