<svg xmlns="http://www.w3.org/2000/svg" width="628.22" height="538.9" viewBox="0 0 628.22 538.9">
  <defs>
    <style>
      .a1dc0094-36e8-4743-ac48-6ed3d32ab75c {
        fill: #20ed0f;
      }
    </style>
  </defs>
  <g id="a494972f-6b07-42a7-921e-0fb97e7452f1" data-name="Layer 3">
    <path class="a1dc0094-36e8-4743-ac48-6ed3d32ab75c" d="M626.6,474.46c-1.12-8-6.33-14.18-13.12-16.24a22.29,22.29,0,0,0,.46-9.49c-1.56-9.84-7.64-16.71-16.67-18.86a24.67,24.67,0,0,0-5.62-.66,25.92,25.92,0,0,0-3.06.19c-.9-11.36-11.74-20.93-23.76-20.93-9.17,0-17.07,5.36-21.7,14.7-1.11,2.24-2.25,4.32-3.45,6.28a29.87,29.87,0,0,0-8.75-2.36c-1-.12-2-.21-3.13-.27-.49-1-1-2.3-1.46-3.29a54,54,0,0,0-5.88-11c-13.62-18.31-26.5-33.11-54.2-40.66A108.54,108.54,0,0,0,461.58,356c1.09-5.75.32-13.9-6.48-21.38a398,398,0,0,0-.77-40.24,40.73,40.73,0,0,0-.46-6.07,382.41,382.41,0,0,0-16.08-84.09c17.24-14.59,27.11-31.75,28.62-49.81.15-1.62.22-3.25.22-5a59.47,59.47,0,0,0-3.32-19.54l-.06-.2c-.68-2-1.48-4-2.39-5.92-4.28-9.29-10.9-18.1-19.65-26.16a117.9,117.9,0,0,0-11.42-9.21c7-37.65-11.39-73.73-43.21-82.45A54.8,54.8,0,0,0,372.11,4C344.6,4,319.06,24.08,307.8,53.73c-1.44,0-2.89,0-4.33,0-4.11,0-8.25.09-12.38.27C280.46,22.64,254.22,1.2,225.69,1.2a54.41,54.41,0,0,0-14.48,2c-16.8,4.59-30.32,16.72-38.09,34.15-7.46,16.74-8.68,36.49-3.43,55.61.08.33.18.65.27,1-19.43,16.1-29.65,35.17-29.65,55.51,0,22,12.47,43.11,35.32,59.91-.1.32-.21.64-.31,1-16.83,54.39-17.35,106.34-16.7,127.29-5.2,4.59-8,9.73-8.47,15.32a18.17,18.17,0,0,0,1.46,8.68A105.81,105.81,0,0,0,147.47,376c-.15.76-.3,1.53-.43,2.3-18.15,8.3-28.25,20.5-39.28,35.33a45.85,45.85,0,0,0-4.69,8.38c-.38.79-.87,1.85-1.29,2.64A24.16,24.16,0,0,0,93,428.15a31.1,31.1,0,0,0-4.28,2.69c-1.27-2-2.47-4.22-3.64-6.58-4.63-9.35-12.54-14.71-21.7-14.71-12,0-22.86,9.57-23.77,20.94a23.68,23.68,0,0,0-3-.19,24.27,24.27,0,0,0-5.63.66c-9,2.14-15.1,9-16.66,18.86a22.25,22.25,0,0,0,.46,9.48c-6.79,2.07-12,8.27-13.13,16.24C0,486.71,7,500.42,26,505.88c3.59,1,9,3.07,15.34,5.42C54.06,516.06,71,522.4,88.4,526.38c2.46,4,6.74,7,12.41,8.44l.67.14A197.24,197.24,0,0,0,132,537.7c9.6,0,17.07-1.06,22.83-3.23,18.23-6.88,25.89-18.39,31.62-28.67,1.82-2.18,13.83-8.85,48.39-14.56a474.13,474.13,0,0,1,74.9-6,406.26,406.26,0,0,1,53.83,3.45c6.17.83,11.91,1.57,17.26,2.26,39.3,5.05,55.57,7.15,71.9,22.44,16,15,30.32,20.82,51.05,20.82h0c6.57,0,13.46-.5,23.15-1.36a10,10,0,0,0,8.5-6.5l0-.11c18.88-3.85,37.51-10.81,51.46-16,6.3-2.36,11.74-4.39,15.34-5.43C621.24,499.33,628.18,485.62,626.6,474.46Z"/>
  </g>
</svg>
