<svg xmlns="http://www.w3.org/2000/svg" viewBox="0 0 183 90"><defs><style>.cls-1{fill:#b1f964;}.cls-1,.cls-3{stroke:#147c5b;}.cls-1,.cls-2,.cls-3{stroke-miterlimit:10;}.cls-2{fill:#61e570;stroke:#115642;}.cls-3{fill:#e0ffbd;}.cls-4{fill:#fdfefe;}</style></defs><g id="Layer_25" data-name="Layer 25"><path class="cls-1" d="M109.92,13.26l-2.34,33.56s34.8,35.92,72.18,8.17c0,0,4.85-20.34-28.3-21.55-.34-1.18-.5-15.46-.44-19.33Z"/><path class="cls-2" d="M150.51,14.61a70.52,70.52,0,0,1-40.4,0,2.4,2.4,0,0,1-2.53-2.25v-9a2.4,2.4,0,0,1,2.53-2.25,107.43,107.43,0,0,0,40.4,0,2.41,2.41,0,0,1,2.54,2.25v9A2.41,2.41,0,0,1,150.51,14.61Z"/><path class="cls-3" d="M107,45.84S144.44,78.32,179.76,55c3.12-.09,3.12,13.05-1,14.06,0,0-28.05,16.16-72.73-11.12C103.91,57.93,103.91,44.8,107,45.84Z"/><path class="cls-4" d="M148.32,37.35c-2.68-1.72-5.25-3.5-7.88-5a18.51,18.51,0,0,0-3.93-1.73,3.16,3.16,0,0,0-1.55-.09,1,1,0,0,0-.69.67.94.94,0,0,0,0,.93,3,3,0,0,0,1.12,1.07,19.59,19.59,0,0,0,3.95,1.71C142.19,35.83,145.24,36.54,148.32,37.35Zm0,0a31.37,31.37,0,0,1-9.57-.17,15.57,15.57,0,0,1-4.83-1.53,5.73,5.73,0,0,1-2.28-2.09,3.83,3.83,0,0,1-.49-1.84,4.73,4.73,0,0,1,.11-.93,7.86,7.86,0,0,1,.27-.82c.13-.25.28-.5.42-.74a6.75,6.75,0,0,1,.62-.7,3.89,3.89,0,0,1,1.67-.87,5.72,5.72,0,0,1,3.08.24,15.28,15.28,0,0,1,4.41,2.51A31.64,31.64,0,0,1,148.32,37.35Z"/><path class="cls-4" d="M148.72,37.78c-3.14.48-6.24.86-9.21,1.49a18.6,18.6,0,0,0-4.08,1.32,3.14,3.14,0,0,0-1.22,1,1,1,0,0,0-.07,1c.16.47.29.58.59.71a3.05,3.05,0,0,0,1.55.05,19.12,19.12,0,0,0,4.09-1.34C143.14,40.71,145.88,39.21,148.72,37.78Zm0,0A31.5,31.5,0,0,1,141.46,44a15.37,15.37,0,0,1-4.63,2.06,5.61,5.61,0,0,1-3.09,0,3.67,3.67,0,0,1-1.59-1,5.63,5.63,0,0,1-.54-.77c-.13-.26-.23-.53-.33-.79s-.13-.56-.18-.84a5.76,5.76,0,0,1,0-.93,4,4,0,0,1,.67-1.76A5.76,5.76,0,0,1,134.22,38a15.61,15.61,0,0,1,5-1.06A31.08,31.08,0,0,1,148.72,37.78Z"/><path class="cls-4" d="M148.78,37.67a31.27,31.27,0,0,1,2.75-9.17,15.31,15.31,0,0,1,2.81-4.22,5.65,5.65,0,0,1,2.64-1.6,3.79,3.79,0,0,1,1.89,0,6.45,6.45,0,0,1,.86.35l.71.47c.21.2.42.39.61.61a4.81,4.81,0,0,1,.52.78,3.74,3.74,0,0,1,.39,1.86,5.79,5.79,0,0,1-1.09,2.89,15.78,15.78,0,0,1-3.62,3.55A31.55,31.55,0,0,1,148.78,37.67Zm0,0c2.38-2.11,4.78-4.11,6.94-6.24a18.71,18.71,0,0,0,2.75-3.31,3,3,0,0,0,.53-1.46,1,1,0,0,0-.45-.81,1,1,0,0,0-.92-.28,3,3,0,0,0-1.34.77,17.66,17.66,0,0,0-2.73,3.32C151.88,32.18,150.39,34.93,148.78,37.67Z"/><path class="cls-4" d="M148.09,37.59a31.52,31.52,0,0,1,7.24-6.26A15.22,15.22,0,0,1,160,29.26a5.69,5.69,0,0,1,3.08.07,3.77,3.77,0,0,1,1.58,1,7.44,7.44,0,0,1,.54.75c.12.26.24.52.35.79s.14.55.19.83a4.92,4.92,0,0,1,0,.94,3.74,3.74,0,0,1-.67,1.78,5.65,5.65,0,0,1-2.47,1.86,15.53,15.53,0,0,1-5,1A31.43,31.43,0,0,1,148.09,37.59Zm0,0c3.14-.51,6.24-.91,9.21-1.54a19.43,19.43,0,0,0,4.09-1.32,3.18,3.18,0,0,0,1.23-.95,1,1,0,0,0,0-.93,1,1,0,0,0-.62-.74,3.16,3.16,0,0,0-1.55-.06,18,18,0,0,0-4.08,1.34C153.65,34.62,150.92,36.14,148.09,37.59Z"/><ellipse class="cls-4" cx="148.74" cy="37.3" rx="1.69" ry="1.41"/><path class="cls-1" d="M6.5,27.18,4.1,61.37S39.55,98,77.63,69.69c0,0,4.93-20.72-28.82-21.95-.36-1.2-.52-15.75-.46-19.69Z"/><path class="cls-2" d="M47.83,28.56a71.85,71.85,0,0,1-41.14,0A2.46,2.46,0,0,1,4.1,26.27V17.15a2.46,2.46,0,0,1,2.59-2.3,109.26,109.26,0,0,0,41.14,0,2.46,2.46,0,0,1,2.59,2.3v9.12A2.46,2.46,0,0,1,47.83,28.56Z"/><path class="cls-3" d="M3.55,60.37s38.1,33.08,74.08,9.32C80.8,69.6,80.8,83,76.57,84c0,0-28.57,16.46-74.08-11.32C.37,72.69.37,59.31,3.55,60.37Z"/><path class="cls-4" d="M45.82,51.38c-2.71-1.77-5.33-3.58-8-5.12a18.3,18.3,0,0,0-4-1.76,3.1,3.1,0,0,0-1.59-.1,1,1,0,0,0-.72.7,1,1,0,0,0,0,1,3,3,0,0,0,1.15,1.1,19.27,19.27,0,0,0,4,1.74C39.58,49.85,42.69,50.56,45.82,51.38Zm0,0a32.5,32.5,0,0,1-9.74-.2,16.1,16.1,0,0,1-4.91-1.56,5.74,5.74,0,0,1-2.31-2.12,3.66,3.66,0,0,1-.49-1.86,4.83,4.83,0,0,1,.1-.94c.08-.29.18-.55.28-.83s.28-.5.43-.75a5.86,5.86,0,0,1,.62-.7,3.84,3.84,0,0,1,1.69-.89,5.87,5.87,0,0,1,3.12.24,15.82,15.82,0,0,1,4.49,2.55A31.9,31.9,0,0,1,45.82,51.38Z"/><path class="cls-4" d="M46.24,51.81c-3.21.48-6.37.87-9.39,1.5a19.43,19.43,0,0,0-4.17,1.34,3.2,3.2,0,0,0-1.25,1,1,1,0,0,0-.07,1,1,1,0,0,0,.62.74,3.1,3.1,0,0,0,1.59,0,19.33,19.33,0,0,0,4.17-1.37C40.56,54.81,43.35,53.28,46.24,51.81Zm0,0a32.44,32.44,0,0,1-7.41,6.33,15.89,15.89,0,0,1-4.71,2.09,5.66,5.66,0,0,1-3.13,0,3.61,3.61,0,0,1-1.61-1.06,5.15,5.15,0,0,1-.55-.77c-.13-.27-.23-.53-.33-.8a8.64,8.64,0,0,1-.19-.85,5.9,5.9,0,0,1,0-.94A3.78,3.78,0,0,1,29,54a5.81,5.81,0,0,1,2.5-1.9,15.84,15.84,0,0,1,5-1.08A32.6,32.6,0,0,1,46.24,51.81Z"/><path class="cls-4" d="M46.29,51.7a32.47,32.47,0,0,1,2.82-9.32A15.54,15.54,0,0,1,52,38.08a5.73,5.73,0,0,1,2.67-1.62,3.86,3.86,0,0,1,1.91,0,7.52,7.52,0,0,1,.87.35c.24.16.49.31.72.48s.43.4.62.61a4.22,4.22,0,0,1,.52.8,3.7,3.7,0,0,1,.4,1.88,5.76,5.76,0,0,1-1.11,2.93,15.91,15.91,0,0,1-3.68,3.61A32.09,32.09,0,0,1,46.29,51.7Zm0,0c2.43-2.14,4.88-4.17,7.09-6.33A19.52,19.52,0,0,0,56.19,42a3.11,3.11,0,0,0,.54-1.5,1,1,0,0,0-.47-.85,1,1,0,0,0-1-.29,3.22,3.22,0,0,0-1.38.79,19.16,19.16,0,0,0-2.78,3.39C49.44,46.1,47.92,48.9,46.29,51.7Z"/><path class="cls-4" d="M45.59,51.62A32.41,32.41,0,0,1,53,45.26a15.59,15.59,0,0,1,4.72-2.09,5.77,5.77,0,0,1,3.13.06,3.88,3.88,0,0,1,1.6,1.05A7,7,0,0,1,63,45c.12.26.24.52.34.79a8.08,8.08,0,0,1,.2.85,5,5,0,0,1,0,1,3.76,3.76,0,0,1-.68,1.8,5.78,5.78,0,0,1-2.5,1.88,16.12,16.12,0,0,1-5,1.08A32.61,32.61,0,0,1,45.59,51.62Zm0,0c3.2-.51,6.36-.91,9.38-1.55a19.7,19.7,0,0,0,4.18-1.34,3.16,3.16,0,0,0,1.26-1,1,1,0,0,0,.06-1,1,1,0,0,0-.65-.76A3.18,3.18,0,0,0,58.23,46a18.56,18.56,0,0,0-4.16,1.37C51.25,48.58,48.47,50.13,45.59,51.62Z"/><ellipse class="cls-4" cx="46.25" cy="51.32" rx="1.72" ry="1.43"/></g></svg>