<svg xmlns="http://www.w3.org/2000/svg" viewBox="0 0 183 90"><defs><style>.cls-1{fill:#8652a1;}.cls-1,.cls-4,.cls-5{stroke:#5f2c84;}.cls-1,.cls-2,.cls-3,.cls-4,.cls-5,.cls-6{stroke-miterlimit:10;}.cls-2{fill:#f280b3;stroke:#e2549e;}.cls-3{fill:#f4d44a;stroke:#8e6126;}.cls-4{fill:#703a96;}.cls-5{fill:#9367ac;}.cls-6{fill:#f5f2a4;stroke:#a57b4c;}.cls-7{fill:#fff;}</style></defs><g id="Layer_26" data-name="Layer 26"><path class="cls-1" d="M8.73,41.81S1.64,52.25,2.65,69L47.26,85.68l29.4-10.45s7.09-11.49-5.07-18.8C61.34,50.27,42,40.76,42,40.76Z"/><path class="cls-2" d="M48.15,19.34S47,36.8,49.31,42.25s9.52,7.68,9.52,7.68c9.28,7.64-19.54,16.44-52-1l1-31.69Z"/><path class="cls-3" d="M48,30.26a68,68,0,0,1-42.12,0A2.61,2.61,0,0,1,3.26,27.7V17.55A2.6,2.6,0,0,1,5.91,15,103.22,103.22,0,0,0,48,15a2.59,2.59,0,0,1,2.64,2.55V27.7A2.6,2.6,0,0,1,48,30.26Z"/><path class="cls-4" d="M32.41,61.39c4.09-5,15.75-16.18,32.6-8.06,0,0-15.78-20.52-39.64,1.49A8.84,8.84,0,0,0,22.44,60c-.25,1.81.24,3.69,3.15,4A7.73,7.73,0,0,0,32.41,61.39Z"/><path class="cls-5" d="M31.65,59.26c3.77-5,16.5-15.73,32.05-7.62,0,0-16.54-21-38.54,1a9.09,9.09,0,0,0-2.71,5.2c-.23,1.81.22,3.69,2.91,4A6.87,6.87,0,0,0,31.65,59.26Z"/><ellipse class="cls-6" cx="42.45" cy="44.56" rx="5.99" ry="3.58"/><ellipse class="cls-7" cx="42.45" cy="43.53" rx="3.31" ry="1.73"/><path class="cls-3" d="M2.62,63.47C4.24,67.55,53.22,95,78.93,70.72c2.11,1,3.16,8.43-1.05,11.6-3.16,2.11-33.07,18.5-75.74-9.49C0,72.83-.62,62.53,2.62,63.47Z"/><path class="cls-1" d="M112.56,27.08s-6.91,10.16-5.92,26.43L150,69.77l28.6-10.17s6.91-11.18-4.93-18.29c-10-6-28.78-15.24-28.78-15.24Z"/><path class="cls-2" d="M150.91,5.22s-1.13,17,1.12,22.3S161.3,35,161.3,35c9,7.43-19,16-50.59-1l1-30.83Z"/><path class="cls-3" d="M150.79,15.84a66,66,0,0,1-41,0,2.53,2.53,0,0,1-2.57-2.48V3.49A2.53,2.53,0,0,1,109.81,1a100.31,100.31,0,0,0,41,0,2.54,2.54,0,0,1,2.58,2.49v9.87A2.53,2.53,0,0,1,150.79,15.84Z"/><path class="cls-4" d="M135.6,46.14c4-4.84,15.31-15.74,31.72-7.85,0,0-15.36-20-38.57,1.45a8.69,8.69,0,0,0-2.86,5.06c-.24,1.76.23,3.59,3.07,3.94A7.56,7.56,0,0,0,135.6,46.14Z"/><path class="cls-5" d="M134.86,44.07c3.67-4.84,16-15.32,31.18-7.42,0,0-16.09-20.39-37.5,1a8.84,8.84,0,0,0-2.63,5.06c-.23,1.76.21,3.59,2.82,3.94A6.72,6.72,0,0,0,134.86,44.07Z"/><ellipse class="cls-6" cx="145.36" cy="29.76" rx="5.82" ry="3.48"/><ellipse class="cls-7" cx="145.36" cy="28.76" rx="3.22" ry="1.68"/><path class="cls-3" d="M106.61,48.16c1.58,4,49.23,30.71,74.25,7.05,2,1,3.07,8.21-1,11.29-3.08,2-32.18,18-73.7-9.24C104,57.26,103.45,47.25,106.61,48.16Z"/></g></svg>