<svg xmlns="http://www.w3.org/2000/svg" viewBox="0 0 183 88"><defs><style>.cls-1{fill:#facacc;stroke:#8a181b;}.cls-1,.cls-2{stroke-miterlimit:10;}.cls-2{fill:#e1434a;stroke:#89181a;}.cls-3{fill:#7f143b;}</style></defs><g id="Layer_24" data-name="Layer 24"><path class="cls-1" d="M107.22,44.59S144.51,77,179.74,53.72c3.1-.09,3.1,13-1,14,0,0-28,16.12-72.52-11.08C104.11,56.65,104.11,43.55,107.22,44.59Z"/><path class="cls-2" d="M109.55,12.11l-2.34,33.46s8.35,12.09,28.18,13.1c0,0,16.7,5.3,15.13-45.71Z"/><path class="cls-3" d="M133.4,60.18c-5-26.2,42.82-41.81,45.84-5.54C179.24,54.64,163.63,72.27,133.4,60.18Z"/><path class="cls-3" d="M150,13.46a70.42,70.42,0,0,1-40.27,0,2.4,2.4,0,0,1-2.53-2.25V2.28A2.4,2.4,0,0,1,109.74,0,106.74,106.74,0,0,0,150,0a2.4,2.4,0,0,1,2.53,2.25v8.93A2.4,2.4,0,0,1,150,13.46Z"/><ellipse class="cls-1" cx="163.04" cy="32.18" rx="13.53" ry="5.58" transform="translate(-2.53 17.93) rotate(-6.25)"/><ellipse class="cls-1" cx="135.92" cy="38.9" rx="14.29" ry="6.2" transform="translate(-5.43 36.12) rotate(-14.84)"/><ellipse class="cls-3" cx="160.15" cy="32.47" rx="7.05" ry="2.52" transform="translate(-3.24 30.04) rotate(-10.61)"/><ellipse class="cls-3" cx="140" cy="37.51" rx="7.05" ry="2.52" transform="translate(-4.51 26.42) rotate(-10.61)"/><path class="cls-2" d="M6.52,26.36,4.13,60.51S12.66,72.84,32.9,73.87c0,0,17,5.41,15.44-46.65Z"/><path class="cls-3" d="M30.87,75.41c-5.14-26.73,43.7-42.67,46.78-5.65C77.65,69.76,61.71,87.75,30.87,75.41Z"/><path class="cls-1" d="M3.58,59.51s38.06,33.05,74,9.31c3.17-.09,3.17,13.28-1.06,14.31,0,0-28.54,16.45-74-11.31C.41,71.82.41,58.45,3.58,59.51Z"/><path class="cls-3" d="M47.82,27.73a71.71,71.71,0,0,1-41.1,0,2.46,2.46,0,0,1-2.59-2.29V16.33A2.46,2.46,0,0,1,6.72,14a109.05,109.05,0,0,0,41.1,0,2.45,2.45,0,0,1,2.58,2.3v9.11A2.45,2.45,0,0,1,47.82,27.73Z"/><ellipse class="cls-1" cx="60.55" cy="46.84" rx="13.81" ry="5.7" transform="translate(-4.74 6.87) rotate(-6.25)"/><ellipse class="cls-1" cx="32.88" cy="53.7" rx="14.58" ry="6.33" transform="matrix(0.97, -0.26, 0.26, 0.97, -12.66, 10.22)"/><ellipse class="cls-3" cx="57.6" cy="47.14" rx="7.2" ry="2.57" transform="translate(-7.69 11.41) rotate(-10.61)"/><ellipse class="cls-3" cx="37.04" cy="52.28" rx="7.2" ry="2.57" transform="translate(-8.99 7.71) rotate(-10.61)"/></g></svg>