<svg xmlns="http://www.w3.org/2000/svg" xmlns:xlink="http://www.w3.org/1999/xlink" viewBox="0 0 140 56"><defs><style>.cls-1{fill:none;}.cls-2{fill:#fff;}.cls-3{fill:#0071bc;}.cls-4{fill:#29abe2;}.cls-5{clip-path:url(#clip-path);}.cls-6{opacity:0.36;}.cls-7{fill:#1787ba;}.cls-8{fill:#39ccff;}.cls-9{clip-path:url(#clip-path-2);}.cls-10{opacity:0.26;}.cls-11{opacity:0.75;}.cls-12{opacity:0.15;}.cls-13{fill:#e6f0ff;}</style><clipPath id="clip-path"><path class="cls-1" d="M117.14,50.51H25c-3.7,0-5.55-2.52-7.1-6.4-.23-.58-5.8-15.75-6-16.33L6.73,15.05a6.84,6.84,0,0,1,5.88-9.37h114a7.08,7.08,0,0,1,4.47,1.58,6.75,6.75,0,0,1,2.12,7.28L126.8,35c-.15.49-2.38,8.56-2.56,9C123,47.36,120.85,50.51,117.14,50.51Z"/></clipPath><clipPath id="clip-path-2"><path class="cls-1" d="M117.14,50.56H25c-3.7,0-5.55-2.53-7.1-6.4-.23-.59-5.8-15.75-6-16.34L6.73,15.09a6.84,6.84,0,0,1,5.88-9.37h114a7.08,7.08,0,0,1,4.47,1.58,6.76,6.76,0,0,1,2.12,7.28L126.8,35.08c-.15.5-2.38,8.56-2.56,9C123,47.4,120.85,50.56,117.14,50.56Z"/></clipPath></defs><g id="Layer_2" data-name="Layer 2"><path class="cls-2" d="M117.14,55.34H25c-7.76,0-10.48-6.82-11.5-9.39-.12-.31-.93-2.5-3.3-8.92L7.44,29.6,2.33,16.9v0A11.73,11.73,0,0,1,3.38,6.26a11.28,11.28,0,0,1,9-5.22L13,1H126.62a11.88,11.88,0,0,1,7.45,2.63A11.59,11.59,0,0,1,137.74,16l-6.41,20.5-.75,2.67c-1.58,5.66-1.76,6.26-1.9,6.64C125.57,54.1,120.12,55.34,117.14,55.34Zm-106-41.95L16.24,26.1l0,0,2.81,7.62c1.36,3.7,3.06,8.3,3.22,8.72,1.35,3.4,2.09,3.4,2.69,3.4h92.16c1.23,0,2.23-2.23,2.63-3.28.21-.68,1.17-4.09,1.68-6,.6-2.14.76-2.7.83-2.91l6.41-20.53a2,2,0,0,0-.57-2.18,2.37,2.37,0,0,0-1.5-.53H12.85a1.89,1.89,0,0,0-1.5.89A2.21,2.21,0,0,0,11.13,13.39ZM119.81,42.5v0Z"/><path class="cls-3" d="M117.14,50.77c-6.55,0-13.1.12-19.65.38-3.27.13-6.55.3-9.83.47l-9.82.5c-6.55.31-13.11.57-19.66.63s-13.1,0-19.65-.13c-1.64,0-3.28-.1-4.91-.15s-3.28-.1-4.92-.17l-2.45-.1-1.23,0-.74-.06c-.25,0-.5-.08-.75-.12a7.07,7.07,0,0,1-2.84-1.23,8.5,8.5,0,0,1-2-2.14,13.73,13.73,0,0,1-1.27-2.38c-.34-.8-.66-1.61-.9-2.38L15,39.18q-1.56-4.66-3.21-9.3c-.28-.77-.53-1.55-.83-2.31L10,25.28c-.6-1.52-1.2-3-1.82-4.56s-1.23-3-1.86-4.55l-.24-.57L6,15.32,5.87,15c-.07-.22-.16-.43-.21-.65l-.14-.68a8.14,8.14,0,0,1,0-2.74,8.54,8.54,0,0,1,1-2.57A8.47,8.47,0,0,1,8.38,6.27,7.57,7.57,0,0,1,10.86,5l.68-.18c.23,0,.47-.07.7-.11s.47,0,.71-.06h.61c3.28-.08,6.56-.21,9.83-.31l9.83-.35,4.91-.16,4.92-.14c6.55-.17,13.1-.26,19.65-.36l9.83-.14L82.35,3C88.9,2.94,95.46,2.94,102,3c3.27,0,6.55,0,9.82.09s6.56.09,9.83.16l4.91.13a9.54,9.54,0,0,1,3.16.62,9.08,9.08,0,0,1,2.74,1.64,8.63,8.63,0,0,1,2,2.55,8.67,8.67,0,0,1,.67,6.12,6.91,6.91,0,0,1-.22.74l-.21.58-.42,1.16L130.84,26l-1.71,4.61-1.67,4.63-.76,2.32L126,39.88l-.73,2.35-.37,1.17-.19.59a5.81,5.81,0,0,1-.23.6,12.92,12.92,0,0,1-2.71,4.22,6.76,6.76,0,0,1-2.09,1.45A6.28,6.28,0,0,1,117.14,50.77Zm0-.51a5.73,5.73,0,0,0,2.28-.49,6.12,6.12,0,0,0,1.91-1.36,12,12,0,0,0,2.42-4.09c.06-.19.14-.38.19-.55l.15-.59L124.4,42c.21-.79.4-1.58.6-2.38l1.16-4.8,1.25-4.75,1.23-4.77,2.43-9.53.31-1.19.15-.59c0-.15.07-.3.08-.45a5.17,5.17,0,0,0-.06-1.8,4.9,4.9,0,0,0-.65-1.6,4.47,4.47,0,0,0-1.13-1.2,4.9,4.9,0,0,0-1.52-.75,5.23,5.23,0,0,0-1.68-.2l-4.91.14c-3.27.07-6.55.11-9.83.15s-6.55.07-9.82.1c-6.55,0-13.11,0-19.66-.06L72.53,8.2,62.7,8.06C56.15,8,49.6,7.87,43.05,7.7l-4.92-.14-4.91-.17-9.83-.34c-3.27-.1-6.55-.23-9.83-.31l-.61,0a4.52,4.52,0,0,0-.52,0l-.52,0-.5.11a5.6,5.6,0,0,0-1.89.87A6.26,6.26,0,0,0,8.07,9.31a6.6,6.6,0,0,0-.83,2,6.15,6.15,0,0,0-.1,2.14l.09.53c0,.18.11.35.16.52l.07.26.11.29.23.57c.59,1.52,1.2,3.05,1.81,4.57s1.22,3,1.83,4.55L12.38,27c.32.75.59,1.52.89,2.29q1.77,4.57,3.61,9.13L18.74,43a22.49,22.49,0,0,0,1,2.15A11.84,11.84,0,0,0,20.92,47a5.71,5.71,0,0,0,1.45,1.31,4.17,4.17,0,0,0,1.69.56c.16,0,.31,0,.47,0H25l1.23,0,2.45-.1c1.64-.07,3.28-.11,4.92-.16s3.27-.12,4.91-.15q9.82-.25,19.65-.14c6.55.07,13.11.32,19.66.63l9.82.51c3.28.17,6.56.34,9.83.46Q107.32,50.28,117.14,50.26Z"/><path class="cls-4" d="M117.14,50.51H25c-3.7,0-5.55-2.52-7.1-6.4-.23-.58-5.8-15.75-6-16.33L6.73,15.05a6.84,6.84,0,0,1,5.88-9.37h114a7.08,7.08,0,0,1,4.47,1.58,6.75,6.75,0,0,1,2.12,7.28L126.8,35c-.15.49-2.38,8.56-2.56,9C123,47.36,120.85,50.51,117.14,50.51Z"/><g class="cls-5"><g class="cls-6"><path class="cls-7" d="M9.35,44.63a4.85,4.85,0,0,1,4.9-4.85c13.25.13,26.18,3.94,60.6.47,25.83-2.61,44.53-16.42,51.79-22.74q3.83-3.32,6.74-6.19a4.86,4.86,0,0,1,8.11,4.62L124.26,46.58a4.47,4.47,0,0,1-.44,1.17l-.57,1a4.86,4.86,0,0,1-4.18,2.56L24.2,53.16a4.88,4.88,0,0,1-3.56-1.46L10.73,48c-.89-.91.87,1.93.87.66Z"/></g></g><path class="cls-8" d="M117.14,50.56H25c-3.7,0-5.55-2.53-7.1-6.4-.23-.59-5.8-15.75-6-16.34L7.46,16.92a15.33,15.33,0,0,1-1.13-5.34c-.11-4.95,2.43-5.66,6.28-5.86h114a7.08,7.08,0,0,1,4.47,1.58,6.76,6.76,0,0,1,2.12,7.28L126.8,35.08c-.15.5-2.38,8.56-2.56,9C123,47.4,120.85,50.56,117.14,50.56Z"/><g class="cls-9"><g class="cls-6"><path class="cls-7" d="M9.35,44.68a4.86,4.86,0,0,1,4.9-4.86c13.25.13,26.18,4,60.6.47,25.83-2.6,44.53-16.42,51.79-22.73q3.83-3.33,6.74-6.2A4.86,4.86,0,0,1,141.49,16L124.26,46.63a4.47,4.47,0,0,1-.44,1.17l-.57,1.05a4.85,4.85,0,0,1-4.18,2.55L24.2,53.2a4.87,4.87,0,0,1-3.56-1.45l-9.91-3.67c-.89-.91.87,1.93.87.66Z"/></g></g><g class="cls-10"><path d="M23.46,50.39q9.67,0,19.35-.42l4.84-.21,4.83-.25L62.16,49c3.22-.15,6.45-.34,9.67-.46s6.45-.23,9.68-.32l4.83-.1,4.84-.06c3.22,0,6.45-.08,9.67-.1s6.45,0,9.68,0l4.84,0h.43l.35,0a2.72,2.72,0,0,0,.61-.15,3,3,0,0,0,1.08-.7,10.15,10.15,0,0,0,2-3.25l.21-.5,0,0,0-.07.08-.27.35-1.14.69-2.31,2.78-9.27.72-2.34.13-.4.11-.3.2-.56.41-1.14,1.63-4.55,1.65-4.55.42-1.14.2-.54.08-.23.07-.2a4.7,4.7,0,0,0,.17-.83,4.8,4.8,0,0,0,0-.85,5.05,5.05,0,0,0-1.26-3.15,4.53,4.53,0,0,0-3-1.52l-9.6-.35c-12.9-.49-25.79-.79-38.69-.63s-25.8,1-38.7,1.3q-9.67.25-19.35.14l-4.81-.08a9.18,9.18,0,0,0-1.94.14,3.59,3.59,0,0,0-1.34.53A4.46,4.46,0,0,0,9.6,11.85a6.86,6.86,0,0,0,0,1.92c0,.16,0,.32.07.48l.06.24.07.29L10.08,16l2.25,9.42c.75,3.14,1.5,6.29,2.28,9.42,0,.09.05.2.08.27s.05.18.08.27l.19.57.38,1.15.78,2.29c.52,1.52,1.07,3,1.6,4.56.27.77.53,1.53.83,2.26a11.51,11.51,0,0,0,1.07,2.1,4.85,4.85,0,0,0,1.64,1.58A4.4,4.4,0,0,0,23.46,50.39Zm0,.5A4.8,4.8,0,0,1,21,50.3a5.61,5.61,0,0,1-1.84-1.72,21.3,21.3,0,0,1-2.09-4.43q-.9-2.24-1.84-4.47l-.93-2.23-.47-1.12-.24-.56-.12-.3-.1-.31c-1-3-2.11-6.1-3.18-9.14L7,16.88l-.4-1.15-.1-.29-.11-.34c-.06-.23-.13-.46-.18-.7A10.74,10.74,0,0,1,6,11.51a9,9,0,0,1,.66-3A7.58,7.58,0,0,1,8.49,5.88,6.34,6.34,0,0,1,10,4.9a8.35,8.35,0,0,1,1.51-.55A14,14,0,0,1,14.34,4l4.86-.09q9.68-.12,19.35.14c12.9.33,25.8,1.17,38.7,1.29s25.79-.15,38.69-.64l4.84-.17,2.42-.09,1.21,0,.6,0h.69a8.16,8.16,0,0,1,3,.65,8.3,8.3,0,0,1,2.58,1.75,9.11,9.11,0,0,1,2.59,5.52,8.65,8.65,0,0,1-.24,3.12l-.1.37-.11.35-.2.6-.37,1.15-1.48,4.61L129.9,27l-.37,1.15-.19.57-.09.28-.05.18-.63,2.3-2.52,9.34-.64,2.34-.33,1.19-.09.3-.07.22-.08.24-.24.62a19.85,19.85,0,0,1-1.16,2.5,11.66,11.66,0,0,1-1.82,2.5,8.35,8.35,0,0,1-2.91,2,9,9,0,0,1-1.72.47c-.28,0-.57.07-.85.09l-.41,0h-.36l-4.84,0c-3.23,0-6.45,0-9.68,0s-6.45,0-9.67-.09l-4.84-.07-4.83-.1c-3.23-.08-6.45-.18-9.68-.32s-6.45-.3-9.67-.45l-9.68-.52-4.83-.25c-1.62-.07-3.23-.16-4.84-.22Q33.14,50.92,23.46,50.89Z"/></g><g class="cls-11"><path class="cls-2" d="M19.11,46.54C17.9,44,16.85,41.4,15.85,38.8S14,33.54,13.11,30.89q-.64-2-1.26-4l-.63-2-.31-1-.16-.49c0-.14-.11-.31-.17-.48a31.65,31.65,0,0,1-1.19-4.18,22.1,22.1,0,0,1-.53-4.43,11.2,11.2,0,0,1,.23-2.4,6.18,6.18,0,0,1,1.14-2.51A4.47,4.47,0,0,1,12.86,7.8a6.29,6.29,0,0,1,.72-.11l.65,0,1,0c1.38,0,2.78-.12,4.17-.14l4.18-.06c1.39,0,2.79,0,4.18,0s2.79,0,4.18,0c2.79,0,5.58.13,8.36.15,5.56,0,11.14-.11,16.72-.09l16.72,0,8.36,0,8.37,0c5.57,0,11.15,0,16.72.1h0a.09.09,0,0,1,0,.18l-33.44.69-16.72.34L48.71,9l-4.17.08c-.7,0-1.4,0-2.09,0h-2.1c-2.78,0-5.57.08-8.36.12s-5.57.06-8.36.09l-8.36.06h-1a4.31,4.31,0,0,0-1,.08,3,3,0,0,0-1.71,1,4.5,4.5,0,0,0-.85,1.84,8.84,8.84,0,0,0-.24,2,20.66,20.66,0,0,0,.39,4.14,35.65,35.65,0,0,0,1,4c.83,2.66,1.61,5.33,2.44,8C15.92,35.85,17.5,41.2,19.11,46.54Z"/></g><g class="cls-12"><path class="cls-2" d="M16.43,34.38l-2.94-11a25.43,25.43,0,0,1-.85-6.5h0a5.22,5.22,0,0,1,5.22-5.22L97.75,9h0l-35,4.1a137.59,137.59,0,0,0-25.85,7h0L30.69,23A38.48,38.48,0,0,0,19,31.6l-2.56,2.78Z"/></g></g><g id="Layer_4" data-name="Layer 4"><path class="cls-13" d="M50.9,38a23.08,23.08,0,0,1-11.84-.29c1.16-5,1.24-15.12-.24-22.36C45,13.81,53,14.1,54,20.07c.46,2.85-1.28,5.15-3.85,6.27,2.64.43,4.74,1.58,5.36,4.53C56.3,34.65,54.05,37.13,50.9,38ZM44.18,20.36c.24,1.48.39,3.17.51,4.86,2.17-.32,3.84-1.19,4-2.66C48.77,20.76,47.06,19.75,44.18,20.36Zm.66,8.5c.08,1.83.08,3.56,0,4.89,3.61.33,5.25-.93,5-2.7C49.66,29.54,47.91,28.68,44.84,28.86Z"/><path class="cls-13" d="M65.54,39a9.48,9.48,0,0,0,.19-1,7.73,7.73,0,0,1-3.14,1c-2.37.25-6.33-1.33-6.41-4.57-.08-3.6,3.38-5.33,6.45-5.4A6.86,6.86,0,0,1,66,29.9c-.66-5.47-3.41-4.43-3.06-1.8a25.13,25.13,0,0,0-5.64.65C56.41,24.5,60,20.32,66,22.59c6.6,2.49,3.57,12,4.23,16.27A40.24,40.24,0,0,0,65.54,39Zm-2.37-6.58c-1,.32-2,1.26-1.59,2.23s1.78,1,2.64.75c1.2-.43,2-1.62,1.67-2.34S64.1,32.13,63.17,32.46Z"/><path class="cls-13" d="M78.62,38.83c-2.64.21-6.21-.76-7.14-5.11-1.09-5.15,1.59-10.41,5.63-11a6.21,6.21,0,0,1,7.07,4.89A29.05,29.05,0,0,0,79.05,29c-.08-1-.5-2-1.51-1.84s-2,1.87-1.91,3.92c.08,2.27,1.05,3.6,2.26,3.53,1-.07,1.7-.9,1.74-2.19,0,0,2.76-.33,5.67-.4C85.15,36.63,82.08,38.58,78.62,38.83Z"/><path class="cls-13" d="M95.2,39.83c-.35-3.31-1.82-6.33-3.76-7.3.07,2.23.23,4.28.42,6a39.53,39.53,0,0,0-6,.61,105.23,105.23,0,0,0-.08-26.06s3.1-.54,6.4-1a160,160,0,0,0-.77,16.74c1.9-.8,3.34-3.1,3.65-6.48a29.09,29.09,0,0,0,6.17.57A10.81,10.81,0,0,1,95.32,31a9.92,9.92,0,0,1,6.1,7.12A23,23,0,0,0,95.2,39.83Z"/></g></svg>