<svg xmlns="http://www.w3.org/2000/svg" viewBox="0 0 360 512"><defs><style>.cls-1{opacity:0.4;}.cls-2{fill:#957453;}.cls-2,.cls-3{stroke:#603917;}.cls-2,.cls-3,.cls-4,.cls-5,.cls-6,.cls-7{stroke-miterlimit:10;}.cls-2,.cls-3,.cls-4,.cls-5,.cls-6{stroke-width:2px;}.cls-3{fill:#c49a6c;}.cls-4{fill:#142a35;stroke:#0a202c;}.cls-5,.cls-7{fill:#f8cfba;stroke:#93614c;}.cls-6{fill:#f9e4ea;stroke:#ed8aa6;}.cls-8{fill:#e0b7a4;}.cls-9{fill:#93614c;}.cls-10{opacity:0.49;}.cls-11{fill:#9b1010;}.cls-12{fill:#1f2335;}.cls-13{fill:#ff9a99;opacity:0.29;}.cls-14{fill:#1d2647;}.cls-15{fill:#fff;opacity:0.85;}.cls-16{fill:#38505b;}</style></defs><g id="Layer_23" data-name="Layer 23"><path class="cls-1" d="M56.35,484.51l23.18,11.24,38.36.4,33.72-5.82s28.46,20.4,67,21.53c.71,0,1.42,0,2.14.05,39.62.42-4.22-33.73-4.22-33.73l42.57-3.37s31.62,19.11,65.76,20.94-19-29.37-19-29.37l49.32-4-76.4-15.88L37.65,471.44Z"/><path class="cls-2" d="M108.75,498.42l27.79-88.83H125.77L93.48,503.94l13.08-3.24A3.21,3.21,0,0,0,108.75,498.42Z"/><path class="cls-2" d="M70,465.23,63.79,478.4a2.44,2.44,0,0,1-1.89,1.47L51.41,481l8.81-21.77Z"/><path class="cls-3" d="M59.62,390.09l-27.89,76.4a3,3,0,0,0,1,3.49l18.65,11,7.86-19.44a2,2,0,0,1,2.85-1.21L79,470.22A2.92,2.92,0,0,1,80,473.58L74.65,490.7a2.92,2.92,0,0,0,1.12,3.38l17.71,9.86,31.33-92.71a2.8,2.8,0,0,0-1.46-3.6l-61.25-19A2.05,2.05,0,0,0,59.62,390.09Z"/><path class="cls-2" d="M340.14,461.72l-26.36-81.41a1.31,1.31,0,0,1,1.44-1.69l14.71,1.84a1.34,1.34,0,0,1,1.09.86l27.44,77.46a1.31,1.31,0,0,1-1.16,1.73Z"/><path class="cls-3" d="M318.77,396l21.82,65.56-35-5.93a1.31,1.31,0,0,1-1-.74l-8-16.87a1.37,1.37,0,0,0-1-.74l-16.95-2.08a1.31,1.31,0,0,0-1.45,1.65l4.37,15L259,447.26a1.33,1.33,0,0,1-1-1l-11-44.9a1.3,1.3,0,0,1,1.2-1.61l69.26-4.63A1.32,1.32,0,0,1,318.77,396Z"/><path class="cls-2" d="M54.05,378.14s-9.83,7.26,0,14.5l56.75,23.65a12.29,12.29,0,0,0,6.11.88l223.68-24.52s10.36-6,.88-14.51L115.54,404.75Z"/><path class="cls-3" d="M340.11,380.24,117.69,405.58a13.06,13.06,0,0,1-6.51-.93l-55.84-23.4a2.08,2.08,0,0,1,.59-4l198.69-21.71a19,19,0,0,1,7,.54l78.68,21.2A1.5,1.5,0,0,1,340.11,380.24Z"/><path class="cls-4" d="M106,21.09c-15,10-4.16,22.48-15,26-3.31,1.07-35.95-4.39-43,15-2.76,7.58,1,10-3,13s-13,4-15,14,10,10,7,20-18,14-19,25,8,13,8,23-13,14-13,25,14,7,16,15-6,15,2,22,14,2,18,7-6,18,3,22,13-3,18,4-5,20,8,24,17-8,25-2,2,9,14,15,50-4,50-4l68,2s12,2,24-13,29-7,36-18,4-15,10-22,16-9,14-17-8-4-9-11,16-14,17-25-4-10-3-17,15-8,13-20-20-14-23-22,6-17,2-26-15-7-18-12,6-6,4-13-9-1-15-4,4-18-7-27-16-3-23-6,6-14-4-20-12,4-21,4-8-14-22-15-18,10-25,9-3-12-19-12-14,14-22,19S121,11.09,106,21.09Z"/><path class="cls-5" d="M337.25,477.6c-2.76-3.19-11.78-13-22.63-18a7.13,7.13,0,0,1-4.07-6.36c-.32-17.36-3-76.6-4.16-79.44-.52-1.3-.37-9.82-5.05-13.68-4-3-34.5-27.85-74-42l1-24-1,24,24,10-2-38s0-41-25.24-51.26c0,0-16.76-5.3-18.26-14a2.21,2.21,0,0,0-.15-.5l-4.85-16.5h-43l-2,13c-.8,4.75-5.73,17.58-17.14,19.23-11.92,1.71-27,8.73-28,44.39-.33,4.66-2.74,27.06-2.83,27.38-1.47,5-10.53,37.57-13,60-.14,1.25-6.87,5.46-8,6-3.21,1.53-10.84,3.52-16,5-7,2,1.5,4,1.5,4a116.92,116.92,0,0,0,25.68,2A16.12,16.12,0,0,1,92,391a1.87,1.87,0,0,0-1.66,1.58c-.12,1.13.87,2.36,6.49,1.48,0,0,12.35-.75,15.55-7.71h0a3.39,3.39,0,0,0,.54-1c2.8-8.15,27.16-86.15,27.16-86.15s2.62,7.74,2,13.85-35.43,64.05,19.46,75.08c0,0,7.8,4.65,8.39,8.75.89,6.24,1.78,61.82-1.58,88.65a12.19,12.19,0,0,0,7,12.65c12.2,5.55,35.59,13.68,56.55,6.7,0,0,4.41-.74,4.41-4.72a5.67,5.67,0,0,0-1.24-3.4c-2.63-3.45-11.27-14.08-22.08-19.95a7.26,7.26,0,0,1-3.87-6.7c.77-17.71,2.73-78.82,2.28-81.95-2-14-5-25,6-20s27.29,9.39,42,13A24.67,24.67,0,0,0,264,382c1.57,0,3.75.48,4.25,2.94,1.24,6,5.42,59.68,3.77,85.84a11.81,11.81,0,0,0,7.56,11.81c12.14,4.64,35.25,11.11,55.09,3.1,0,0,4.22-1,4-4.83A5.57,5.57,0,0,0,337.25,477.6ZM228.34,276.11c.19,5.71.15,12.17,0,19"/><path class="cls-6" d="M143.43,238.2c6.7,28,62.82,38.57,73.45-2.37,4.48,2.6,11.34,3.86,13,6.25-.06-.1-.48,57.81-2.06,73.92a3.76,3.76,0,0,0,2.32,3.84c12.11,5,61.72,25.9,69.87,39.8,0,0-30.38,1-36,22.31,0,0-35.59-5.1-52.05-14.25,0,0,.38,13.8-.14,21.39a.45.45,0,0,1-.88.1c-2.24-7.41-11.59-26.65-44,3.7a9,9,0,0,0-5.3-4.15c-3.5-.8-28-2.83-30.5-27.34-1.81-17.45,4.55-34.25,8.37-42.48A21.54,21.54,0,0,0,141.25,307c-2.33-17-8.86-60.66-14.59-62.45C132.31,240.27,140.29,240.32,143.43,238.2Z"/><path class="cls-7" d="M98.84,139.83c-29-12-20,41,10.44,33.3C98.84,151.83,98.84,139.83,98.84,139.83Z"/><path class="cls-8" d="M101,152c-6.2-9.17-19.2.83,1.4,6.18,0,0-7.6,4.65.4,10.65"/><path class="cls-9" d="M101,152a10.31,10.31,0,0,0-2.38-2.24,7.4,7.4,0,0,0-3-1.13,4.58,4.58,0,0,0-3,.58,2,2,0,0,0-.93,2.37,5.17,5.17,0,0,0,1.86,2.32,16,16,0,0,0,2.74,1.64,38.32,38.32,0,0,0,6.14,2.2l1,.28-.85.54a8.59,8.59,0,0,0-2.26,2.12,4.52,4.52,0,0,0-.92,2.87,6.11,6.11,0,0,0,1.11,2.91c.32.42.68.83,1,1.24l1.2,1.13-1.33-1c-.4-.38-.81-.76-1.18-1.18a5.9,5.9,0,0,1-1.42-3.07,5.14,5.14,0,0,1,.87-3.34,8.59,8.59,0,0,1,2.42-2.46l.13.82A35.22,35.22,0,0,1,96,156.45a18.14,18.14,0,0,1-2.91-1.78A5.81,5.81,0,0,1,91,151.83a2.8,2.8,0,0,1,.1-1.91,3,3,0,0,1,1.29-1.36,5.12,5.12,0,0,1,3.44-.5A8,8,0,0,1,101,152Z"/><path class="cls-7" d="M260.84,139.83c26-10,17,37-9,33C262.28,151.53,260.84,139.83,260.84,139.83Z"/><path class="cls-8" d="M258.84,151.83c6.2-9.17,19.6.65-1,6,0,0,5.78,5-2.22,11"/><path class="cls-9" d="M258.84,151.83a8,8,0,0,1,5.25-4,5.52,5.52,0,0,1,3.46.36,3.19,3.19,0,0,1,1.4,1.23,2.72,2.72,0,0,1,.31,1.91,5.41,5.41,0,0,1-2,2.92,15.77,15.77,0,0,1-2.91,1.8,33.16,33.16,0,0,1-6.36,2.17l.18-.77a6.81,6.81,0,0,1,1.82,2.95,5.73,5.73,0,0,1,0,3.43,7.65,7.65,0,0,1-1.75,2.86,13.77,13.77,0,0,1-2.54,2.1,16.65,16.65,0,0,0,2.28-2.32,8.27,8.27,0,0,0,1.45-2.81,5,5,0,0,0-.13-3,6.46,6.46,0,0,0-1.68-2.51l-.6-.55.79-.23a37.05,37.05,0,0,0,6.14-2.2,15.1,15.1,0,0,0,2.74-1.65,4.73,4.73,0,0,0,1.77-2.36,2.05,2.05,0,0,0-1.18-2.27,5,5,0,0,0-3-.47,7.5,7.5,0,0,0-3,1.14A10,10,0,0,0,258.84,151.83Z"/><path class="cls-7" d="M261.84,135.83c0,45.29-42,78.84-71,80-50,2-93-34.71-93-80a82,82,0,1,1,164,0Z"/><g class="cls-10"><path class="cls-11" d="M173,175.27a5.93,5.93,0,0,1,.3,3,7.27,7.27,0,0,1-1.07,2.85,6.38,6.38,0,0,1-2.19,2.16,5.39,5.39,0,0,1-2.91.8c.7-.77,1.37-1.33,1.91-2a14.46,14.46,0,0,0,1.51-2A41.11,41.11,0,0,0,173,175.27Z"/><path class="cls-11" d="M216.64,174.33a41.82,41.82,0,0,0,1.28,5.11,13.51,13.51,0,0,0,1,2.24c.38.77.91,1.45,1.43,2.34a5.21,5.21,0,0,1-2.66-1.35A6.22,6.22,0,0,1,216,180.1a6.9,6.9,0,0,1-.36-3A5.81,5.81,0,0,1,216.64,174.33Z"/><path class="cls-11" d="M216.82,179.37a15.32,15.32,0,0,1-4.21,4.69,24.58,24.58,0,0,1-5.58,3.05,34.8,34.8,0,0,1-25-.09,26.36,26.36,0,0,1-10.27-7.19,34.79,34.79,0,0,0,10.8,5.72,40.93,40.93,0,0,0,23.91.09A22.11,22.11,0,0,0,216.82,179.37Z"/></g><path class="cls-12" d="M188.84,163.83a16.4,16.4,0,0,1,2.52-5.71,10.74,10.74,0,0,1,2.23-2.4,6,6,0,0,1,3.31-1.33,5.45,5.45,0,0,1,3.44,1.15,9.68,9.68,0,0,1,2.21,2.47,17.38,17.38,0,0,1,2.29,5.82c-1.19-1.7-2.28-3.41-3.54-4.88s-2.78-2.64-4.31-2.56-3.11,1.31-4.42,2.71A46,46,0,0,0,188.84,163.83Z"/><ellipse class="cls-13" cx="239.76" cy="161.9" rx="12.11" ry="15.4" transform="translate(-49.2 175.96) rotate(-36.82)"/><ellipse class="cls-13" cx="148.76" cy="162.9" rx="15.4" ry="12.11" transform="translate(-70.8 184.37) rotate(-53.18)"/><ellipse class="cls-14" cx="167.75" cy="135.46" rx="9.1" ry="13" transform="translate(-25.18 39.19) rotate(-12.4)"/><ellipse class="cls-14" cx="220.75" cy="135.46" rx="13" ry="9.1" transform="translate(36.22 317.2) rotate(-76.1)"/><g class="cls-10"><path class="cls-11" d="M188.84,195.83a9.08,9.08,0,0,0,6.5,1.61,23.62,23.62,0,0,0,3.4-.65c.56-.19,1.16-.31,1.75-.49a16.66,16.66,0,0,1,1.85-.47,14.88,14.88,0,0,1-1.4,1.35c-.51.38-1.06.73-1.62,1.07a10.37,10.37,0,0,1-3.79,1.18,7.43,7.43,0,0,1-4-.68A5.17,5.17,0,0,1,188.84,195.83Z"/></g><ellipse class="cls-15" cx="169.54" cy="129.03" rx="3.46" ry="4.99" transform="translate(-35.62 71.55) rotate(-21.62)"/><ellipse class="cls-15" cx="224.63" cy="129.03" rx="3.46" ry="4.99" transform="translate(-31.74 91.85) rotate(-21.62)"/><path class="cls-12" d="M165.7,111.32a12.81,12.81,0,0,0-2.27-.07,16.21,16.21,0,0,0-2.38.33,14.32,14.32,0,0,0-4.53,1.78,15.57,15.57,0,0,0-3.82,3.21,19.5,19.5,0,0,0-1.56,2c-.47.71-.86,1.48-1.3,2.23.32-.8.61-1.63,1-2.42a19.88,19.88,0,0,1,1.28-2.29,16.65,16.65,0,0,1,3.56-4,16.42,16.42,0,0,1,4.75-2.71,18.57,18.57,0,0,1,2.67-.77,14.46,14.46,0,0,1,2.89-.31Z"/><path class="cls-12" d="M219.7,108.34a14.57,14.57,0,0,1,2.9.31,19,19,0,0,1,2.67.77,16.69,16.69,0,0,1,8.3,6.7,20,20,0,0,1,1.29,2.29c.37.79.65,1.62,1,2.42-.44-.75-.83-1.52-1.31-2.23a19.41,19.41,0,0,0-1.55-2,15.57,15.57,0,0,0-3.82-3.21,14.41,14.41,0,0,0-4.53-1.78,16.21,16.21,0,0,0-2.38-.33,12.92,12.92,0,0,0-2.28.07Z"/><path class="cls-4" d="M289.84,100.4c1-8.49,13.2-5.31,9.14-15.92s-19.3-3.19-23.36-10.62,7.11-18,0-23.35-12.19,5.31-16.25,2.13-1-15.92-8.12-18S239.06,43.08,233,39.9s1-10.61-6.1-13.8-18.27,9.56-22.34,7.43-1-8.49-7.11-7.43c-2.89.51-7.07,10.48-6.88,8.49.28-3-11.54-15.08-21-4-5.41,6.33-4.63-11.5-13.37-11.5s-3.88,12-11.65,13-20.39-12-27.18-8,0,19-10.68,23-29.13-9-35-3,1.94,19-1.94,23-18.45-2-21.36,8,6.79,15,4.85,22-12.62,8-11.65,18,19.42,9,21.36,14-10.68,7-4.85,16,19.42,2,19.42,2-1-13,11.65-14,12.62,12,12.62,12,9.71-8,8.74-15-5.83-15,0-20,11.65,2,15.53-2-5.82-16,2.92-21,14.56,3,18.45,0,1.94-17,9.71-18,6.79,2,10.68,0,1-5,5.82-6,6.8,5,12.63,3a8.28,8.28,0,0,0,3.93-3.32c1,2.17,2.37,4.26,4.17,4.73,4.06,1.06,5.08-4.25,7.11-4.25s1,4.25,5.07,4.25,6.1-5.31,11.17-2.13-2,9.56,3.05,12.74S229.92,76,233,80.23s-2,7.43,2,12.74,12.18,4.24,14.22,9.55-6.1,5.31-3.05,10.61,11.17,4.25,11.17,8.5-1.7,4-5.08,8.49c-6.52,8.69,3.9,18.34,7.11,15.92,0,0,.87-17.86,13.17-11.45,8.38,4.37,4.52,14.24,6,17,1.3,2.43,1.14,4,5.2.81s1-14.85,1-14.85,2,4.24,8.12,4.24S303,134.36,303,122.69,288.82,108.89,289.84,100.4Z"/><path class="cls-16" d="M99.84,204.7a13.51,13.51,0,0,0,8.67,7.17,9.86,9.86,0,0,1,3,1.28,5.37,5.37,0,0,1,2,2.91c.59,2.21.28,4.26.63,6A5.31,5.31,0,0,0,117,226a5.14,5.14,0,0,0,2.44.64,7.21,7.21,0,0,0,2.6-.54c1.76-.67,3.45-1.83,5.47-2.46a8.15,8.15,0,0,1,3.1-.35,4.2,4.2,0,0,1,2.75,1.27,4.36,4.36,0,0,0-2.76-.72,8,8,0,0,0-2.75.72c-1.73.76-3.27,2.07-5.19,3a8.11,8.11,0,0,1-3.18.86,7,7,0,0,1-3.33-.71,7.3,7.3,0,0,1-2.63-2.15,6.83,6.83,0,0,1-.89-1.5,8.43,8.43,0,0,1-.47-1.64c-.34-2.18-.06-4.2-.49-5.87a3.44,3.44,0,0,0-1.22-2,9.43,9.43,0,0,0-2.44-1.22,13.1,13.1,0,0,1-5.22-3.35A12,12,0,0,1,99.84,204.7Z"/><path class="cls-16" d="M138,26.52a43.9,43.9,0,0,1,10.88-5.7,19.12,19.12,0,0,1,12.52-.07,14.49,14.49,0,0,1,2.9,1.5,17.8,17.8,0,0,1,2.44,2.08,12.63,12.63,0,0,0,4.48,3.42,4.07,4.07,0,0,0,2.53.11c.8-.2,1.63-1,2.85-1.2a4,4,0,0,1,3.12.95,11,11,0,0,1,2.1,2.27,13.74,13.74,0,0,0-2.4-1.81,3.38,3.38,0,0,0-2.62-.45c-.81.2-1.47,1-2.58,1.47a5.32,5.32,0,0,1-3.45.15,8.33,8.33,0,0,1-3-1.5c-.87-.65-1.63-1.37-2.37-2a17.64,17.64,0,0,0-2.22-1.83,12.25,12.25,0,0,0-2.51-1.25,15.84,15.84,0,0,0-5.61-1,22.89,22.89,0,0,0-5.79.71A81.36,81.36,0,0,0,138,26.52Z"/><path class="cls-16" d="M70.11,180.05a18.73,18.73,0,0,0,4.34,10.79,17.75,17.75,0,0,0,4.37,3.78,55.19,55.19,0,0,0,5.25,2.71,36.55,36.55,0,0,1,5.36,2.94,13.31,13.31,0,0,1,4.33,4.64,17.65,17.65,0,0,1,1.79,6c.27,2,.36,4.06.53,6a21.68,21.68,0,0,0,1,5.61,8.31,8.31,0,0,0,3.17,4.2,24,24,0,0,0,5.3,2.22,19.87,19.87,0,0,1,2.88,1.22,10.21,10.21,0,0,1,2.57,2,16.78,16.78,0,0,1,3,5.46,30.86,30.86,0,0,0,2.3,5.42,6.94,6.94,0,0,0,4.25,3.54,5.55,5.55,0,0,0,2.86-.05,4.37,4.37,0,0,0,1.3-.64,4,4,0,0,0,1-1.11,3.93,3.93,0,0,1-.87,1.23,4.88,4.88,0,0,1-1.3.81,6,6,0,0,1-3.06.28,6.13,6.13,0,0,1-2.86-1.25,10.2,10.2,0,0,1-2.12-2.28c-2.32-3.44-3-7.67-5.61-10.33a11.54,11.54,0,0,0-4.87-2.62,24.43,24.43,0,0,1-5.76-2.29,10.09,10.09,0,0,1-4-5.12,23.76,23.76,0,0,1-1.16-6.12c-.16-2-.23-4-.48-5.92a16,16,0,0,0-1.52-5.4,11.44,11.44,0,0,0-3.67-4.11,41.6,41.6,0,0,0-5-3,50.41,50.41,0,0,1-5.26-3,18.34,18.34,0,0,1-8-15.66Z"/><path class="cls-16" d="M56.18,215.34A15.06,15.06,0,0,0,58,219.08a14.91,14.91,0,0,0,5.9,5,15.2,15.2,0,0,0,4,1.19,7.15,7.15,0,0,1-4.46.29,9.86,9.86,0,0,1-6.79-5.81A7.22,7.22,0,0,1,56.18,215.34Z"/><path class="cls-16" d="M247.15,266.66a12.72,12.72,0,0,0,8.83-3.4c2.28-2.16,3.75-5.33,6.77-7.55a12.23,12.23,0,0,1,5-1.92c1.73-.26,3.39-.38,5-.59a11.29,11.29,0,0,0,4.44-1.56,5.43,5.43,0,0,0,2.71-3.8,4.47,4.47,0,0,1-.47,2.52,6.74,6.74,0,0,1-1.65,2.07,11.07,11.07,0,0,1-4.73,2.3c-3.35.79-6.76.81-9.18,2.61s-4.11,4.85-6.9,7.09A11.38,11.38,0,0,1,247.15,266.66Z"/><path class="cls-16" d="M59.44,119.46a7.65,7.65,0,0,0,7-4.43,7.49,7.49,0,0,0,.66-2,6.23,6.23,0,0,0,0-2.11,19.55,19.55,0,0,0-1.61-4.07,8.37,8.37,0,0,1-.67-4.65,10.07,10.07,0,0,1,1.79-4.37,9.7,9.7,0,0,1,8.24-4.24,17.09,17.09,0,0,1,4.53,1.11,14.82,14.82,0,0,0,2,.56,6.87,6.87,0,0,0,2,.06,8.49,8.49,0,0,0,6.27-4.57,8,8,0,0,0,1-3.82,8.3,8.3,0,0,0-1.16-3.83,14.54,14.54,0,0,1-.93-2.21,5.31,5.31,0,0,1-.17-2.67,4.85,4.85,0,0,1,1.26-2.46,6.78,6.78,0,0,1,2.19-1.46,11.77,11.77,0,0,1,4.8-.76,14.7,14.7,0,0,1,2.38.27c.81.17,1.5.38,2.22.56a28.15,28.15,0,0,0,4.23.82,11.58,11.58,0,0,0,2,0,6.39,6.39,0,0,0,1.84-.49,4.63,4.63,0,0,0,1.44-1.12,5,5,0,0,0,.87-1.65,16.3,16.3,0,0,0,.52-4.19,15.83,15.83,0,0,1,.67-4.67,6.55,6.55,0,0,1,1.31-2.19,6,6,0,0,1,2.13-1.43,9.83,9.83,0,0,1,4.78-.36c1.53.19,3,.5,4.43.72a12.94,12.94,0,0,0,4.25.07A7.93,7.93,0,0,0,133.46,58a26.84,26.84,0,0,0,3.07-3.14,25.39,25.39,0,0,1,3.14-3.26,11.16,11.16,0,0,1,4-2.17A5.46,5.46,0,0,1,148,50a5.28,5.28,0,0,0-4.28-.23A11,11,0,0,0,140,52c-2.15,2-3.61,4.67-5.91,6.74A9,9,0,0,1,130,61a14.28,14.28,0,0,1-4.65.1c-1.52-.16-3-.44-4.43-.58a8.25,8.25,0,0,0-4,.37,4.31,4.31,0,0,0-1.53,1.08,4.85,4.85,0,0,0-.92,1.65,14.91,14.91,0,0,0-.5,4.17,17.54,17.54,0,0,1-.53,4.67,6.91,6.91,0,0,1-1.17,2.29,6.66,6.66,0,0,1-2,1.64,9.27,9.27,0,0,1-4.87.71,28.61,28.61,0,0,1-4.55-.85c-.73-.18-1.48-.39-2.12-.52a11.91,11.91,0,0,0-2.06-.22,9.94,9.94,0,0,0-4,.63,4.91,4.91,0,0,0-1.52,1,2.85,2.85,0,0,0-.75,1.46c-.26,1.11.26,2.33.91,3.65a10.31,10.31,0,0,1,1.34,4.67,9.69,9.69,0,0,1-1.25,4.74A10.29,10.29,0,0,1,83.57,97a8.63,8.63,0,0,1-2.49-.12,16.84,16.84,0,0,1-2.25-.65,15.29,15.29,0,0,0-4.1-1.15c-5.4-.48-10.7,6-8.34,11.35a20,20,0,0,1,1.44,4.31,7.13,7.13,0,0,1-.07,2.35,7.84,7.84,0,0,1-.82,2.16,8.55,8.55,0,0,1-3.15,3.25A7,7,0,0,1,59.44,119.46Z"/><path class="cls-16" d="M80.52,132.57a16.52,16.52,0,0,0,4.4-1.78,6.23,6.23,0,0,0,3-3.34,3.55,3.55,0,0,0-.16-2.16,6.08,6.08,0,0,0-1.33-1.82c-.55-.56-1.15-1.1-1.68-1.75a7.42,7.42,0,0,1-1.21-2.25,8.37,8.37,0,0,1,1.21-7.32,7.31,7.31,0,0,1,1.9-1.78,10,10,0,0,1,4.84-1.48,30.49,30.49,0,0,1,4.89.13,25,25,0,0,0,4.63.12,11.47,11.47,0,0,0,4.25-1.21,4.85,4.85,0,0,0,2.58-3,4.71,4.71,0,0,0,0-2,8.68,8.68,0,0,0-.74-2c-.67-1.35-1.59-2.65-2.36-4.16a10.43,10.43,0,0,1-.92-2.46,6.12,6.12,0,0,1,.06-2.82A5.5,5.5,0,0,1,105.38,89a6.79,6.79,0,0,1,2.35-1.46,13.09,13.09,0,0,1,5.1-.72,17.37,17.37,0,0,1,2.51.28c.83.15,1.57.32,2.35.44a18.92,18.92,0,0,0,4.53.33A5.81,5.81,0,0,0,126,86.45a5.28,5.28,0,0,0,1.44-3.71,33.18,33.18,0,0,0-.4-4.63,13.89,13.89,0,0,1,.09-5.09,7,7,0,0,1,1.22-2.44,6.53,6.53,0,0,1,2.11-1.73,10.83,10.83,0,0,1,5-.95,24.72,24.72,0,0,1,4.89.66,29.7,29.7,0,0,0,4.62.77,10.24,10.24,0,0,0,4.46-.5,5.44,5.44,0,0,0,3.1-2.93,36.89,36.89,0,0,1,1.91-4.44,6.68,6.68,0,0,1,4-2.8c3.23-.8,6.48-.06,9.53.8a29.27,29.27,0,0,0-4.72-.72,12.76,12.76,0,0,0-4.66.43,6,6,0,0,0-3.53,2.69,38.12,38.12,0,0,0-1.67,4.44,6.47,6.47,0,0,1-3.57,3.58,11.56,11.56,0,0,1-4.95.71,30.81,30.81,0,0,1-4.84-.66,24.26,24.26,0,0,0-4.61-.5,9.32,9.32,0,0,0-4.25.91,5.15,5.15,0,0,0-1.55,1.3l-.3.41-.23.45a5.23,5.23,0,0,0-.35,1,12.19,12.19,0,0,0,0,4.43,33,33,0,0,1,.46,4.9,7.12,7.12,0,0,1-2,5,7.67,7.67,0,0,1-4.93,2,21.19,21.19,0,0,1-5-.31c-.8-.12-1.63-.29-2.37-.42a15.46,15.46,0,0,0-2.25-.23,11,11,0,0,0-4.32.55A4,4,0,0,0,105.77,92a5.44,5.44,0,0,0,.69,3.94c.66,1.35,1.58,2.68,2.32,4.19a10.4,10.4,0,0,1,.87,2.48,6.28,6.28,0,0,1-.07,2.76,5.94,5.94,0,0,1-1.34,2.45,7.53,7.53,0,0,1-2.13,1.62,12.75,12.75,0,0,1-4.92,1.35,15.14,15.14,0,0,1-2.52,0c-.81-.06-1.61-.15-2.4-.24a30.83,30.83,0,0,0-4.67-.26,8.8,8.8,0,0,0-4.25,1.15,7,7,0,0,0-2.84,7.76,6.57,6.57,0,0,0,.95,2c.44.61,1,1.16,1.55,1.77a6.9,6.9,0,0,1,1.38,2.1,4.16,4.16,0,0,1,.07,2.54,4.84,4.84,0,0,1-1.39,2.06,9.69,9.69,0,0,1-2,1.39A16.48,16.48,0,0,1,80.52,132.57Z"/><path class="cls-16" d="M49.17,174.57a13.05,13.05,0,0,0,3.7,13.33c3.6,3.23,8.88,3.83,12.95,7.31a10.73,10.73,0,0,1,2.47,3.13,14.92,14.92,0,0,1,1.31,3.71,62,62,0,0,1,.89,7.49,18.82,18.82,0,0,0,1.76,6.8,7,7,0,0,0,4.94,4c1.11.26,2.33.36,3.61.56a8.89,8.89,0,0,1,3.89,1.39,6.44,6.44,0,0,1,2.44,3.53,10.42,10.42,0,0,1,.25,4.07c-.33,2.7-1.51,5-2.23,7.27a9.77,9.77,0,0,0-.2,6.73,9.66,9.66,0,0,0,4.49,5.06,8.14,8.14,0,0,0,3.31.94,15,15,0,0,0,3.57-.28c1.21-.2,2.44-.46,3.7-.6a15,15,0,0,1,1.9-.08,7.58,7.58,0,0,1,1.91.34,7,7,0,0,1,3.17,2.07,3.67,3.67,0,0,1,.79,3.54,3.52,3.52,0,0,0-1-3.34,6.74,6.74,0,0,0-3.1-1.76,8.22,8.22,0,0,0-3.56,0c-1.2.2-2.39.53-3.61.81a16,16,0,0,1-3.81.47,9.42,9.42,0,0,1-3.84-.92,10.89,10.89,0,0,1-5.36-5.66,9.71,9.71,0,0,1-.73-4,15.4,15.4,0,0,1,.71-3.87c.74-2.44,1.8-4.69,2-7a8.69,8.69,0,0,0-.23-3.31,4.39,4.39,0,0,0-1.71-2.47,7.07,7.07,0,0,0-3.07-1c-1.17-.18-2.43-.26-3.74-.56A8.65,8.65,0,0,1,73,220.47a10,10,0,0,1-2.5-3.24,20.36,20.36,0,0,1-1.9-7.52,60.57,60.57,0,0,0-.72-7.3,10.83,10.83,0,0,0-3.12-6c-3.42-3.2-8.79-4.11-12.57-7.74A13.32,13.32,0,0,1,49.17,174.57Z"/><path class="cls-16" d="M36.78,180.77c.06,1.18.07,2.26.16,3.32s.2,2.09.37,3.12.39,2,.66,3.07.59,2.06.91,3.2a7.55,7.55,0,0,1-2.36-2.6A10.18,10.18,0,0,1,35.38,184,7.45,7.45,0,0,1,36.78,180.77Z"/><path class="cls-16" d="M37.61,158.88a5.89,5.89,0,0,1-.57-2.63,8.09,8.09,0,0,1,1.73-5,5.81,5.81,0,0,1,2.09-1.7,24.28,24.28,0,0,1-.72,2.46l-.77,2.24-.79,2.23C38.29,157.27,38,158,37.61,158.88Z"/><path class="cls-16" d="M226.1,229.54a17.91,17.91,0,0,1,5.22-6.17c2.12-1.69,4.36-3.19,6.39-4.84a13.3,13.3,0,0,0,4.53-5.89,15,15,0,0,0,.37-1.77,16.92,16.92,0,0,0,.08-1.91,15.84,15.84,0,0,1,.35-4.25,7.74,7.74,0,0,1,2.48-3.79,12.74,12.74,0,0,1,3.73-2.19c2.67-1,5.32-1.38,7.73-2.27a12.31,12.31,0,0,0,7.85-12.19,12,12,0,0,1-1.16,8,12.68,12.68,0,0,1-2.54,3.34,12.46,12.46,0,0,1-3.56,2.31c-2.57,1.14-5.28,1.57-7.61,2.57s-4.44,2.54-5,4.76a14.66,14.66,0,0,0-.32,3.74c0,.68,0,1.38-.11,2.11a13.4,13.4,0,0,1-.5,2.15,14.32,14.32,0,0,1-5.36,6.51c-2.22,1.63-4.56,2.93-6.77,4.41A20.24,20.24,0,0,0,226.1,229.54Z"/><path class="cls-16" d="M278.61,176.3a4.64,4.64,0,0,1,2.24,2.52,7.72,7.72,0,0,1,.39,3.47,12.2,12.2,0,0,1-.88,3.39,16.12,16.12,0,0,1-1.77,3,41.32,41.32,0,0,0-3.62,5.43,8.83,8.83,0,0,0-.87,2.86,16,16,0,0,0,.1,3.14,14.48,14.48,0,0,1-.06,3.59,7.87,7.87,0,0,1-1.57,3.43,13.91,13.91,0,0,1-5.82,4c-2.15.88-4.31,1.36-6.36,2.15a13,13,0,0,0-5.5,3.49,11.73,11.73,0,0,1,5.1-4.39c2-1,4.2-1.75,6.13-2.67a13.23,13.23,0,0,0,4.94-3.72,6,6,0,0,0,1.15-2.62,12.22,12.22,0,0,0,0-3.08,18.06,18.06,0,0,1,0-3.54,10.24,10.24,0,0,1,1.13-3.48,35.42,35.42,0,0,1,4-5.52,16.59,16.59,0,0,0,1.84-2.62,10.88,10.88,0,0,0,1.09-3,7.17,7.17,0,0,0,.05-3.16A4.66,4.66,0,0,0,278.61,176.3Z"/><path class="cls-16" d="M245,245.73a18.55,18.55,0,0,1,6.31-3,59.25,59.25,0,0,0,6.52-2.13,11.33,11.33,0,0,0,2.71-1.71,7.71,7.71,0,0,0,1.8-2.48c.85-1.92,1-4.3,2.07-6.65a11.41,11.41,0,0,1,5.37-5.18,38.6,38.6,0,0,1,6.69-2.4,26.06,26.06,0,0,0,6.28-2.53,9.16,9.16,0,0,0,4.34-5,7.3,7.3,0,0,1-1.28,3.28,11.29,11.29,0,0,1-2.51,2.56,23.72,23.72,0,0,1-6.35,3.21,43.62,43.62,0,0,0-6.29,2.59,9.68,9.68,0,0,0-4.44,4.34c-.91,1.88-1.09,4.27-2.17,6.59a9.47,9.47,0,0,1-2.37,3,11.8,11.8,0,0,1-3.26,1.82C253.88,243.66,249.17,243.47,245,245.73Z"/><path class="cls-16" d="M291.55,190.42c1.94-1.12,4-2.24,5.23-3.95s1.64-4,.48-5.5c-.56-.8-1.45-1.52-2.16-2.62a6.89,6.89,0,0,1-1-3.69,11.81,11.81,0,0,1,2.61-6.74,36.69,36.69,0,0,1,5-4.81,18.6,18.6,0,0,0,4.25-4.78,11.66,11.66,0,0,0,1.27-6.16,44.68,44.68,0,0,0-.89-6.63,30.12,30.12,0,0,1,1.87,6.54,12,12,0,0,1-.86,6.95c-2.14,4.45-6.51,6.8-9,10.1A10.13,10.13,0,0,0,296,174.7a5.11,5.11,0,0,0,.64,2.74c.47.82,1.3,1.61,2,2.68a5.05,5.05,0,0,1,.64,3.76,6.86,6.86,0,0,1-1.68,3.21A14.29,14.29,0,0,1,291.55,190.42Z"/><path class="cls-16" d="M311.83,187.16a13.88,13.88,0,0,1-3.84,12.1,56.88,56.88,0,0,1-5,4,7.38,7.38,0,0,0-3.13,4.52c-.3,1.79.36,3.8.76,6a12.94,12.94,0,0,1,.16,3.41,11.29,11.29,0,0,1-.8,3.31,12.27,12.27,0,0,1-9.82,7.89,12.89,12.89,0,0,0,8.35-8.41,11,11,0,0,0,.25-5.84c-.39-2-1.21-4.14-.87-6.62a7.53,7.53,0,0,1,1.46-3.33,12.59,12.59,0,0,1,2.47-2.38c1.78-1.31,3.61-2.36,5.13-3.66A14.94,14.94,0,0,0,311.83,187.16Z"/><path class="cls-16" d="M214.85,63.32a14.5,14.5,0,0,1,10-.22,15.24,15.24,0,0,1,4.56,2.49,15.94,15.94,0,0,1,3.44,3.91,22,22,0,0,0,2.94,3.82A5.46,5.46,0,0,0,239.64,75a6.31,6.31,0,0,0,2.08-.61,13.13,13.13,0,0,1,1.27-.47,7.1,7.1,0,0,1,1.45-.25,7.85,7.85,0,0,1,5.33,1.77,8.62,8.62,0,0,1,3,4.69,6.64,6.64,0,0,1,0,2.91,8.84,8.84,0,0,1-1,2.59,20.43,20.43,0,0,0-2.21,4.25c-.37,1.39-.2,3,.83,3.67s2.7.4,4.36.15a8.84,8.84,0,0,1,2.68-.08,6.83,6.83,0,0,1,2.53,1,8.06,8.06,0,0,1,3.06,4.2,7.65,7.65,0,0,1,.3,2.56,6.23,6.23,0,0,1-.78,2.4,5.93,5.93,0,0,0,.48-2.41,7.72,7.72,0,0,0-.5-2.38,7.3,7.3,0,0,0-3.08-3.53,5.63,5.63,0,0,0-2.15-.71A7.75,7.75,0,0,0,255,95a19.17,19.17,0,0,1-2.56.45,4.59,4.59,0,0,1-2.88-.58,4,4,0,0,1-1.73-2.52,6.35,6.35,0,0,1,0-2.88,21.11,21.11,0,0,1,2.24-4.72,5.65,5.65,0,0,0,.73-4.16A6.73,6.73,0,0,0,248.53,77a5.89,5.89,0,0,0-4-1.38,6,6,0,0,0-2.11.56,7.81,7.81,0,0,1-2.74.71,7.26,7.26,0,0,1-5.11-2.29,21,21,0,0,1-3-4.24,15.37,15.37,0,0,0-3-3.77A14.42,14.42,0,0,0,224.53,64,14.79,14.79,0,0,0,214.85,63.32Z"/><path class="cls-16" d="M271.1,120.26a7.49,7.49,0,0,1,3.33-.08,10.11,10.11,0,0,1,5.74,3.27,7.51,7.51,0,0,1,1.61,2.91c-1-.59-1.8-1.19-2.65-1.73s-1.69-1.07-2.55-1.56-1.73-.95-2.63-1.4S272.11,120.79,271.1,120.26Z"/><path class="cls-16" d="M276.7,106.05a6.34,6.34,0,0,1,2.46.77,8.66,8.66,0,0,1,3.5,3.56,6.09,6.09,0,0,1,.71,2.47,15.08,15.08,0,0,1-2-1.51c-.59-.52-1.14-1-1.67-1.6s-1.05-1.1-1.56-1.69A16.48,16.48,0,0,1,276.7,106.05Z"/><path class="cls-16" d="M247.11,61.48c4.18,1.65,8.72,1.42,13.06,3.4a13,13,0,0,1,3,1.91,9.48,9.48,0,0,1,2.3,2.86,7.24,7.24,0,0,1,.79,3.71,17.35,17.35,0,0,1-.64,3.48,12.79,12.79,0,0,0-.59,3,4.86,4.86,0,0,0,.6,2.65,2.45,2.45,0,0,0,2.07,1.15,13.48,13.48,0,0,0,3.07-.48,8.42,8.42,0,0,1,3.6-.23,6.14,6.14,0,0,1,3.17,1.77,6.91,6.91,0,0,1,1.73,3,5.42,5.42,0,0,1-.22,3.38,5.91,5.91,0,0,0-2.17-5.71,5.07,5.07,0,0,0-2.72-1.2,7.56,7.56,0,0,0-3,.45,12.12,12.12,0,0,1-3.49.72,4.29,4.29,0,0,1-3.61-1.85c-1.54-2.38-1-5.18-.37-7.26a15.34,15.34,0,0,0,.62-3.07,5.57,5.57,0,0,0-.54-2.78,10,10,0,0,0-4.3-4.21C255.77,64.23,251,63.89,247.11,61.48Z"/><path class="cls-16" d="M206.8,57.82A13.63,13.63,0,0,1,212.45,54a17.56,17.56,0,0,1,13.64.56,13.75,13.75,0,0,1,5.31,4.31A24.62,24.62,0,0,0,225.51,56a24,24,0,0,0-12.61-.53A24.57,24.57,0,0,0,206.8,57.82Z"/><path class="cls-16" d="M185.8,31.87a42.24,42.24,0,0,1,5.65-5,24.8,24.8,0,0,1,3.29-2,16.56,16.56,0,0,1,3.7-1.3,12.19,12.19,0,0,1,4-.14,15.25,15.25,0,0,1,3.8,1.12,24.25,24.25,0,0,0,3.38,1.25,6.43,6.43,0,0,0,3.23,0c2.16-.54,4.14-2,6.19-3.46a32.67,32.67,0,0,1,3.3-2,9.94,9.94,0,0,1,3.89-1.12,8.77,8.77,0,0,1,4,.69,18.73,18.73,0,0,1,3.37,1.89A30,30,0,0,0,240,25.62c-2.5-.44-4.73-1.85-6.9-3s-4.45-2.19-6.7-1.86-4.25,1.67-6.23,3.13-4.08,3.12-6.81,3.86a8.49,8.49,0,0,1-4.19-.06,24,24,0,0,1-3.64-1.4,13.11,13.11,0,0,0-3.33-1.13,11.79,11.79,0,0,0-3.46-.06A19.75,19.75,0,0,0,192,27.68,67.81,67.81,0,0,0,185.8,31.87Z"/><path class="cls-16" d="M178.65,18.42a9.23,9.23,0,0,1,2.53-.61,14.79,14.79,0,0,1,2.49,0,13.71,13.71,0,0,1,2.45.38,9.29,9.29,0,0,1,2.42,1,9.48,9.48,0,0,1-2.53.6,13.81,13.81,0,0,1-2.49,0,14.7,14.7,0,0,1-2.45-.39A9.61,9.61,0,0,1,178.65,18.42Z"/><path class="cls-16" d="M16.35,108.15A16,16,0,0,1,21,105.44a20.68,20.68,0,0,1,5.26-1.3,20.41,20.41,0,0,1,5.41.12,15.76,15.76,0,0,1,5.12,1.65c-1.8,0-3.52-.11-5.23-.09s-3.4.13-5.08.31-3.36.45-5,.8S18.09,107.71,16.35,108.15Z"/><path class="cls-16" d="M79.12,36.78A13.34,13.34,0,0,1,82.56,38a18.83,18.83,0,0,1,3.07,1.88,19.08,19.08,0,0,1,2.69,2.39,13.77,13.77,0,0,1,2.13,3,23.12,23.12,0,0,1-3.14-1.75c-1-.64-1.94-1.3-2.87-2S82.6,40,81.71,39.28A25.3,25.3,0,0,1,79.12,36.78Z"/><path class="cls-16" d="M290.89,66.42a18,18,0,0,1,3-3.66,24.85,24.85,0,0,1,3.72-2.91,24.16,24.16,0,0,1,4.21-2.14,17.23,17.23,0,0,1,4.59-1.18c-1.29.94-2.59,1.75-3.88,2.57l-3.84,2.44L294.86,64C293.58,64.81,292.29,65.64,290.89,66.42Z"/><path class="cls-16" d="M298.66,244.28a21.51,21.51,0,0,1,5.61.26,28.65,28.65,0,0,1,5.44,1.49,28.11,28.11,0,0,1,5,2.51,21.63,21.63,0,0,1,4.36,3.56c-1.75-.71-3.41-1.46-5.09-2.17s-3.34-1.39-5-2-3.38-1.26-5.1-1.84S300.43,244.92,298.66,244.28Z"/><path class="cls-16" d="M78.4,272.51c-1.12,1.61-2.17,3.17-3.13,4.78a46.46,46.46,0,0,0-2.55,5,47.39,47.39,0,0,0-2,5.22c-.56,1.79-1,3.62-1.46,5.53a17,17,0,0,1-.06-5.87A22,22,0,0,1,74,276.4,17,17,0,0,1,78.4,272.51Z"/><path class="cls-16" d="M29.68,210.36c-3.5,2.64-7.46,4.63-10.91,7.25A23.93,23.93,0,0,0,14.09,222a16.65,16.65,0,0,0-2.93,5.51,11.74,11.74,0,0,0-.52,3,8.75,8.75,0,0,0,.3,3,8.09,8.09,0,0,0,3.36,4.71,8.34,8.34,0,0,0,5.57,1.43A8.55,8.55,0,0,0,25,237a7.12,7.12,0,0,0,1.55-2.4,4.87,4.87,0,0,0,.28-2.67,2.79,2.79,0,0,0-1.42-1.92,6.83,6.83,0,0,0-2.74-.71,22.65,22.65,0,0,0-12.2,2.48,15.79,15.79,0,0,0-8,9.35,13.9,13.9,0,0,0,1.72,12.32,12.34,12.34,0,0,1-2.85-5.91,15.73,15.73,0,0,1,3.16-12.73,18.16,18.16,0,0,1,5.16-4.4,23.76,23.76,0,0,1,13.11-3,8.26,8.26,0,0,1,3.55.92,4.79,4.79,0,0,1,2.38,3.18,7.89,7.89,0,0,1-2.29,6.87,10.55,10.55,0,0,1-6.38,3.14,10.11,10.11,0,0,1-6.86-1.82,9.85,9.85,0,0,1-4-5.82A10.5,10.5,0,0,1,9,230.4a13,13,0,0,1,.71-3.4,15.93,15.93,0,0,1,1.43-3.11,17.45,17.45,0,0,1,2-2.77,24.93,24.93,0,0,1,5.12-4.31C21.94,214.41,25.93,212.62,29.68,210.36Z"/><path class="cls-16" d="M250.61,31.8a30.61,30.61,0,0,1,16.26-20.5,7.63,7.63,0,0,1,3.61-.71A8.29,8.29,0,0,1,274,11.74a12.81,12.81,0,0,1,5,5,9.12,9.12,0,0,1,.64,7.2,7.86,7.86,0,0,1-2,3.19,7.25,7.25,0,0,1-3.41,1.73,9.32,9.32,0,0,1-7.06-1.7,9,9,0,0,1-2.51-2.71,10.63,10.63,0,0,1-1.3-3.39,14.59,14.59,0,0,1,.46-7,17.89,17.89,0,0,1,3.26-6.1A21.83,21.83,0,0,1,278.39.63a20.53,20.53,0,0,1,13.21.83,21.53,21.53,0,0,0-23.31,7.42,17.18,17.18,0,0,0-2.82,5.64,12.81,12.81,0,0,0-.28,6.14,9.21,9.21,0,0,0,1.09,2.78,7.09,7.09,0,0,0,2,2.12,7.35,7.35,0,0,0,5.53,1.33,5.21,5.21,0,0,0,2.45-1.22,5.78,5.78,0,0,0,1.51-2.37,7.28,7.28,0,0,0-.47-5.7,10.91,10.91,0,0,0-4.21-4.34,6.86,6.86,0,0,0-2.76-1,6,6,0,0,0-2.86.49,30.2,30.2,0,0,0-10.34,7.68A32,32,0,0,0,250.61,31.8Z"/><path class="cls-16" d="M315.74,133.43a13.06,13.06,0,0,1,1.29-9.12,19.77,19.77,0,0,1,6.29-7.07,15.91,15.91,0,0,1,9.17-2.93,9.77,9.77,0,0,1,4.86,1.46,6,6,0,0,1,2.95,4.47A3.4,3.4,0,0,1,339,123.1a3.55,3.55,0,0,1-1.48.62,4.58,4.58,0,0,1-1.48,0,6.2,6.2,0,0,1-2.5-1,5.94,5.94,0,0,1-1-.91,9.59,9.59,0,0,1-.79-1,10.13,10.13,0,0,1-1.61-4.75,11.9,11.9,0,0,1,.59-4.89,11.66,11.66,0,0,1,2.45-4.21,14,14,0,0,1,3.77-3,18.72,18.72,0,0,1,9-2.11,25,25,0,0,0-4.48,1,17.31,17.31,0,0,0-4.06,2,12.08,12.08,0,0,0-5.23,6.79,9.68,9.68,0,0,0,1.1,8.11,10.09,10.09,0,0,0,.63.8,4.23,4.23,0,0,0,.72.61,4.37,4.37,0,0,0,1.72.71,1.91,1.91,0,0,0,1.45-.26,1.41,1.41,0,0,0,.51-1.19,3.16,3.16,0,0,0-.61-1.61,4.57,4.57,0,0,0-.61-.7c-.24-.21-.53-.41-.79-.61a8.05,8.05,0,0,0-3.88-1.21,14.81,14.81,0,0,0-8.25,2.34,19.83,19.83,0,0,0-6.28,6.25A13.21,13.21,0,0,0,315.74,133.43Z"/><path class="cls-16" d="M19.76,58.85a10.22,10.22,0,0,0,2.81,9.66A8.31,8.31,0,0,0,27,70.77a9.48,9.48,0,0,0,4.92-.51,8.21,8.21,0,0,0,2.15-1.19,7.7,7.7,0,0,0,1.7-1.72,8.19,8.19,0,0,0,1.47-4.55A8.48,8.48,0,0,0,36,58.19a4.49,4.49,0,0,0-1.49-1.61,2.53,2.53,0,0,0-1.88-.25,3.82,3.82,0,0,0-1.85,1,4.34,4.34,0,0,0-1.1,1.89,9.38,9.38,0,0,0,0,4.82,15.06,15.06,0,0,0,5.44,8.37c5.37,4.33,13.93,3.91,19.3-1a15.47,15.47,0,0,1-9.56,4.91,15,15,0,0,1-10.66-2.7,16.32,16.32,0,0,1-6.36-9.17,11.11,11.11,0,0,1-.06-5.84,6.26,6.26,0,0,1,1.58-2.73,5.84,5.84,0,0,1,2.81-1.56,4.57,4.57,0,0,1,3.32.5,6.48,6.48,0,0,1,2.15,2.29,10.07,10.07,0,0,1,1.41,5.7,9.92,9.92,0,0,1-1.94,5.51,9.75,9.75,0,0,1-4.74,3.35,10.73,10.73,0,0,1-5.7.32,9.29,9.29,0,0,1-4.87-2.86A10.43,10.43,0,0,1,19.76,58.85Z"/></g></svg>