<?xml version="1.0" encoding="utf-8"?>
<!-- Generator: Adobe Illustrator 25.2.3, SVG Export Plug-In . SVG Version: 6.00 Build 0)  -->
<svg version="1.1" id="Layer_1" xmlns="http://www.w3.org/2000/svg" xmlns:xlink="http://www.w3.org/1999/xlink" x="0px" y="0px"
	 viewBox="0 0 1600 900" style="enable-background:new 0 0 1600 900;" xml:space="preserve">
<style type="text/css">
	.st0{clip-path:url(#SVGID_2_);}
	.st1{fill:#75B4E2;}
	.st2{opacity:0.58;fill:#659DCE;enable-background:new    ;}
	.st3{fill:#56C5DC;}
	.st4{fill:url(#SVGID_3_);}
	.st5{fill:url(#SVGID_4_);}
	.st6{fill:#4988B7;}
	.st7{opacity:0.82;}
	.st8{opacity:0.51;fill:none;stroke:#FFFFFF;stroke-miterlimit:10;enable-background:new    ;}
	.st9{opacity:0.51;fill:none;stroke:#FCFDFF;stroke-miterlimit:10;enable-background:new    ;}
	.st10{opacity:0.36;fill:#469397;enable-background:new    ;}
	.st11{opacity:0.67;fill:#97D4D6;enable-background:new    ;}
</style>
<g id="Layer_3">
	<g>
		<defs>
			<rect id="SVGID_1_" width="1600" height="900"/>
		</defs>
		<clipPath id="SVGID_2_">
			<use xlink:href="#SVGID_1_"  style="overflow:visible;"/>
		</clipPath>
		<g class="st0">
			<rect x="-244" y="-417" class="st1" width="2075.7" height="978.3"/>
			<rect x="610.5" y="36.7" class="st2" width="205.8" height="114.4"/>
			<polygon class="st3" points="238.1,36.7 412.7,36.7 412.5,150.4 237.7,151.8 			"/>
			<polygon class="st2" points="-159.6,151.8 55.1,151.8 53,264.1 -159.1,265.3 			"/>
			<path class="st3" d="M1038.7-66.2c0,34,0,68,0,101.9l178.7,0.2l-1.6-102.2L1038.7-66.2z"/>
			<polygon class="st2" points="817.7,266.5 818.6,385.6 1041.4,385.6 1041.4,265.4 			"/>
			
				<linearGradient id="SVGID_3_" gradientUnits="userSpaceOnUse" x1="-299.05" y1="101.925" x2="1842.1099" y2="101.925" gradientTransform="matrix(1 0 0 -1 0 900)">
				<stop  offset="0" style="stop-color:#72BED3"/>
				<stop  offset="1" style="stop-color:#7DC8D5"/>
			</linearGradient>
			<rect x="-299" y="588.8" class="st4" width="2141.2" height="418.5"/>
			
				<linearGradient id="SVGID_4_" gradientUnits="userSpaceOnUse" x1="-448.3315" y1="244.8434" x2="1846.67" y2="244.8434" gradientTransform="matrix(1 0 0 -1 0 900)">
				<stop  offset="0" style="stop-color:#66B7BF"/>
				<stop  offset="1" style="stop-color:#6EB7BB"/>
			</linearGradient>
			<path class="st5" d="M-448.3,562.5c0.9-15.7,391.7-2.1,1339,0.2c394.3,0.9,723.2-0.5,956-2l-4.5,194.5
				C-15.7,625.6-449.3,579.1-448.3,562.5z"/>
			<rect x="-254.5" y="547" class="st6" width="2210.8" height="38"/>
			<g class="st7">
				<polyline class="st8" points="63.1,-394.5 48.8,583.6 -254.5,744 				"/>
				<polyline class="st8" points="238.1,-394.5 238.1,583.6 -28.1,787.7 				"/>
				<polyline class="st8" points="412.7,-394.5 412.7,585.6 238.1,826.5 				"/>
				<polyline class="st8" points="611.5,-394.5 607.7,591.6 536.5,812 				"/>
				<polyline class="st8" points="814.8,-394.5 818.6,583.6 814.8,826.5 				"/>
				<polyline class="st8" points="1036.4,-394.5 1043.3,583.6 1130.6,826.5 				"/>
				<polyline class="st8" points="1215.8,-394.5 1215.8,583.6 1442.5,812 				"/>
				<polyline class="st8" points="1403.5,-394.5 1419.7,591.6 1726.3,826.5 				"/>
				<line class="st9" x1="-219.3" y1="35.8" x2="1834.4" y2="35.8"/>
				<line class="st9" x1="-212.1" y1="151.1" x2="1841.7" y2="151.1"/>
				<line class="st9" x1="-219.3" y1="265.4" x2="1834.4" y2="265.4"/>
				<line class="st9" x1="-219.3" y1="385.6" x2="1834.4" y2="385.6"/>
				<line class="st9" x1="-219.3" y1="492.6" x2="1834.4" y2="492.6"/>
				<line class="st9" x1="1828.1" y1="585.6" x2="-225.7" y2="585.6"/>
				<line class="st9" x1="-218.9" y1="632.9" x2="1834.9" y2="632.9"/>
				<line class="st9" x1="-224.5" y1="700.2" x2="1829.3" y2="700.2"/>
			</g>
			<polygon class="st10" points="83.2,700.6 330.7,700.6 285.2,761.6 6,761.6 			"/>
			<polygon class="st11" points="817.8,633.1 816.7,700.6 1085.4,700.6 1060.9,632.6 			"/>
			<polygon class="st11" points="1331.9,700.6 1392.4,761.6 1641.9,761.9 1561.5,700.2 			"/>
		</g>
	</g>
</g>
</svg>
