<?xml version="1.0" encoding="utf-8"?>
<!-- Generator: Adobe Illustrator 25.2.3, SVG Export Plug-In . SVG Version: 6.00 Build 0)  -->
<svg version="1.1" id="Layer_1" xmlns="http://www.w3.org/2000/svg" xmlns:xlink="http://www.w3.org/1999/xlink" x="0px" y="0px"
	 viewBox="0 0 1600 900" style="enable-background:new 0 0 1600 900;" xml:space="preserve">
<style type="text/css">
	.st0{clip-path:url(#SVGID_2_);}
	.st1{fill:#935397;}
	.st2{fill:#834787;}
	.st3{opacity:0.58;fill:#C187BB;enable-background:new    ;}
	.st4{opacity:0.42;fill:#B383AE;enable-background:new    ;}
	.st5{fill:url(#SVGID_3_);}
	.st6{opacity:0.54;fill:#77437E;enable-background:new    ;}
	.st7{opacity:0.54;fill:#63346C;enable-background:new    ;}
	.st8{fill:#834D8B;}
	.st9{fill:#76B3E1;}
	.st10{opacity:0.58;fill:#4988B7;enable-background:new    ;}
	.st11{opacity:0.58;fill:#659CCD;enable-background:new    ;}
	.st12{fill:#55C4DA;}
	.st13{fill:#558DB7;}
	.st14{opacity:0.58;fill:#558DB7;enable-background:new    ;}
	.st15{fill:url(#SVGID_4_);}
	.st16{fill:url(#SVGID_5_);}
	.st17{opacity:0.82;}
	.st18{opacity:0.51;fill:none;stroke:#FFFFFF;stroke-miterlimit:10;enable-background:new    ;}
	.st19{opacity:0.51;fill:none;stroke:#FCFDFF;stroke-miterlimit:10;enable-background:new    ;}
	.st20{fill:#6A72B5;}
	.st21{fill:#545FA9;}
	.st22{fill:#7E80BC;}
	.st23{fill:#B9BABD;}
	.st24{fill:#5464A9;}
	.st25{fill:#D9A268;}
	.st26{opacity:0.3;fill:#232423;enable-background:new    ;}
	.st27{fill:#E0B575;}
	.st28{fill:#D6DEE6;}
	.st29{fill:#A69984;}
	.st30{fill:url(#SVGID_6_);}
	.st31{fill:url(#SVGID_7_);}
	.st32{fill:#D2D6DE;}
	.st33{fill:#898E95;}
	.st34{fill:#E6E6E2;}
	.st35{fill:url(#SVGID_8_);}
	.st36{fill:#BDBEB9;}
	.st37{fill:#D8DAD0;}
	.st38{fill:#456E72;}
	.st39{fill:#4E8083;}
	.st40{fill:#EFF1F1;}
	.st41{fill:#DCDCE5;}
	.st42{fill:#CCD6DE;}
	.st43{fill:#C7C1B1;}
	.st44{fill:#B39F53;}
	.st45{fill:#E8D584;}
	.st46{fill:#EFE4C9;}
	.st47{opacity:0.53;fill:#DD735B;enable-background:new    ;}
	.st48{opacity:0.3;fill:#151515;enable-background:new    ;}
	.st49{fill:#8D8F97;}
	.st50{opacity:0.36;fill:#479296;enable-background:new    ;}
	.st51{opacity:0.67;fill:#96D2D4;enable-background:new    ;}
	.st52{fill:#4862AA;}
	.st53{fill:#C48DBE;}
	.st54{fill:#9953A0;}
	.st55{fill:#425DA6;}
	.st56{fill:#25515D;}
	.st57{fill:#16353A;}
	.st58{fill:#DBB9D5;}
	.st59{opacity:0.2;fill:#232423;enable-background:new    ;}
	.st60{fill:#A2ACB6;}
	.st61{fill:#B7BFCB;}
	.st62{fill:#CAD0D6;}
	.st63{fill:#9B887B;}
	.st64{fill:#8E7E70;}
	.st65{fill:#CCCCD4;}
	.st66{fill:#4A4B4B;}
	.st67{fill:none;stroke:#37424C;stroke-width:0.75;stroke-miterlimit:10;}
	.st68{fill:none;stroke:#FFFFFF;stroke-miterlimit:10;}
</style>
<g id="Layer_6">
	<g>
		<defs>
			<rect id="SVGID_1_" width="1600" height="900"/>
		</defs>
		<clipPath id="SVGID_2_">
			<use xlink:href="#SVGID_1_"  style="overflow:visible;"/>
		</clipPath>
		<g class="st0">
			<path class="st1" d="M305.6,511.2h713.1c8.8,0,15.9,7.1,15.9,15.9v9.9c0,8.8-7.1,15.9-15.9,15.9H305.6c-8.8,0-15.9-7.1-15.9-15.9
				v-9.9C289.8,518.3,296.9,511.2,305.6,511.2z"/>
			<path class="st2" d="M1035.8,540c0,0-5.8,12.8-18.2,12.8H306c0,0-12.4-2.1-13.8-11.3S1035.8,540,1035.8,540z"/>
			<path class="st3" d="M859.5,725.3c0,0,52.5-48.3,71.2-139c0,0,10.5,83.6-43.3,139H859.5z"/>
			<path class="st4" d="M372,518.7c-31.3-8.1,697.7,0,697.7,0S398.8,525.6,372,518.7z"/>
			
				<linearGradient id="SVGID_3_" gradientUnits="userSpaceOnUse" x1="236.89" y1="234.7705" x2="1044.16" y2="235.5305" gradientTransform="matrix(1 0 0 -1 0 900)">
				<stop  offset="1.000000e-02" style="stop-color:#874B8E"/>
				<stop  offset="0.68" style="stop-color:#A362A7"/>
				<stop  offset="0.87" style="stop-color:#A160A5"/>
				<stop  offset="0.94" style="stop-color:#9A5A9E"/>
				<stop  offset="0.97" style="stop-color:#935397"/>
			</linearGradient>
			<path class="st5" d="M327.2,549c0,0,23,253.7,220.5,219.3l174.5,12.6l109.5-12.6c0,0,117,34.7,161.9-219.3H327.2z"/>
			<path class="st6" d="M871.1,765.8c-0.2-2.2-52.2,11.2-146.7,1.2c-89.2-9.4-165.5-17.4-224.5-74.4c-18.3-17.7-55.6-60-69.7-139.4
				l-101.5,2.5c3.4,37.9,13.9,74.7,31.2,108.6c0,0,17.4,34.1,42.1,61.5C491.5,825.4,871.7,771.8,871.1,765.8z"/>
			<path class="st7" d="M994.8,548.2l-2.1,11.6c0,0-601.2-3.7-662.7,2.2l-1.6-13.5l0,0L994.8,548.2z"/>
			<path class="st8" d="M477.9,766.7H865c6.1,0,11,4.9,11,11v3.2c0,6.1-4.9,11-11,11H477.9c-6.1,0-11-4.9-11-11v-3.2
				C466.9,771.6,471.8,766.7,477.9,766.7z"/>
			<rect x="-28.3" y="-59.2" class="st9" width="1656.5" height="780.7"/>
			<rect x="-82.2" y="694.5" class="st10" width="1764.3" height="28.2"/>
			<rect x="709.5" y="302.8" class="st11" width="164.2" height="91.3"/>
			<polygon class="st12" points="412.3,302.8 551.7,302.8 551.5,393.6 412,394.7 			"/>
			<polygon class="st11" points="270.8,142.1 268.9,220.8 412,220.8 412,142.5 			"/>
			<polygon class="st11" points="94.9,394.7 266.3,394.7 264.6,484.4 95.3,485.3 			"/>
			<polygon class="st12" points="551.7,143.9 552,220.7 707.2,220.7 707.2,143.4 			"/>
			<path class="st12" d="M1051.2,220.8c0,27.1,0,54.2,0,81.3l142.6,0.2l-1.3-81.6L1051.2,220.8z"/>
			<polygon class="st11" points="874.8,486.2 875.5,581.3 1057.3,581.3 1057.3,485.4 			"/>
			<polygon class="st13" points="1193.8,54.7 1193.8,143.9 1345.4,143.9 1346.3,53.6 			"/>
			<polygon class="st12" points="1513.2,221.7 1513.6,302.8 1686.2,302.1 1686.6,220.7 			"/>
			<polygon class="st14" points="874,-41.3 875.5,52.1 1049.4,53.6 1049.4,-41.3 			"/>
			<path class="st11" d="M-23-42h1646v777.1c-9.1-22.6-228.6-540.2-782.8-620.8C347,42.6,10.1,378.1-23,412.3V-42z"/>
			
				<linearGradient id="SVGID_4_" gradientUnits="userSpaceOnUse" x1="-16.38" y1="-10.465" x2="1692.36" y2="-10.465" gradientTransform="matrix(1 0 0 -1 0 900)">
				<stop  offset="0" style="stop-color:#72BDD2"/>
				<stop  offset="1" style="stop-color:#7DC6D3"/>
			</linearGradient>
			<rect x="-16.4" y="743.5" class="st15" width="1708.7" height="334"/>
			
				<linearGradient id="SVGID_5_" gradientUnits="userSpaceOnUse" x1="-135.5111" y1="103.5818" x2="1695.96" y2="103.5818" gradientTransform="matrix(1 0 0 -1 0 900)">
				<stop  offset="0" style="stop-color:#67B6BE"/>
				<stop  offset="1" style="stop-color:#6EB6BA"/>
			</linearGradient>
			<path class="st16" d="M-135.5,722.5c0.7-12.5,312.6-1.7,1068.6,0.1c314.7,0.8,577.1-0.3,762.9-1.6l-3.6,155.2
				C209.7,772.8-136.2,735.7-135.5,722.5z"/>
			<g class="st17">
				<polyline class="st18" points="92.8,-41.3 96.6,740.9 -2.1,778.7 				"/>
				<polyline class="st18" points="272.6,-41.3 261.2,739.3 19.2,867.3 				"/>
				<polyline class="st18" points="412.3,-41.3 412.3,739.3 199.9,902.2 				"/>
				<polyline class="st18" points="551.7,-41.3 551.7,740.9 412.3,933.2 				"/>
				<polyline class="st18" points="710.2,-41.3 707.2,745.7 650.4,921.6 				"/>
				<polyline class="st18" points="872.5,-41.3 875.5,739.3 872.5,933.2 				"/>
				<polyline class="st18" points="1049.4,-41.3 1054.9,739.3 1124.6,933.2 				"/>
				<polyline class="st18" points="1192.6,-41.3 1192.6,739.3 1373.4,921.6 				"/>
				<polyline class="st18" points="1342.3,-41.3 1355.3,745.7 1599.9,933.2 				"/>
				<polyline class="st18" points="1513.6,-41.3 1513.6,745.7 1730.9,881.3 				"/>
				<line class="st19" x1="-22.4" y1="141.3" x2="1622.4" y2="146.6"/>
				<line class="st19" x1="-22.4" y1="49.4" x2="1622.4" y2="54.7"/>
				<line class="st19" x1="-19.5" y1="302.1" x2="1619.5" y2="302.1"/>
				<line class="st19" x1="-19.5" y1="220.8" x2="1619.5" y2="220.8"/>
				<line class="st19" x1="-19.5" y1="394.1" x2="1619.5" y2="394.1"/>
				<line class="st19" x1="-19.5" y1="485.4" x2="1619.5" y2="485.4"/>
				<line class="st19" x1="-19.5" y1="581.3" x2="1619.5" y2="581.3"/>
				<line class="st19" x1="-19.5" y1="666.7" x2="1619.5" y2="666.7"/>
				<line class="st19" x1="1619.5" y1="740.9" x2="-19.5" y2="740.9"/>
				<line class="st19" x1="-19.5" y1="778.7" x2="1619.5" y2="778.7"/>
				<line class="st19" x1="-19.5" y1="832.3" x2="1619.5" y2="832.3"/>
			</g>
			<path class="st20" d="M192,149.3l-6.5,65.7c0,5.5,6.9,7.3,21.5,6.6c17.1,0,15.3,0.2,15.3,0.2s9.9,2,7.7-10.4s-4.7-61.6-4.7-61.6
				L192,149.3z"/>
			<path class="st21" d="M225.3,149.8l4.3,58.7c0,0,4.7,14.5-8.3,13.4c0.8-29.4-1.9-72.6-1.9-72.6L225.3,149.8z"/>
			<path class="st22" d="M196.5,149.4l-2.1,72c0,0-11.3,1.8-8.5-10.8l6.1-61.3L196.5,149.4z"/>
			<path class="st23" d="M200.1,172.7h14.9c2.4,0,4.3,1.9,4.3,4.3v20.1c0,2.4-1.9,4.3-4.3,4.3h-14.9c-2.4,0-4.3-1.9-4.3-4.3v-20.1
				C195.8,174.7,197.8,172.7,200.1,172.7z"/>
			<path class="st24" d="M192,149.3c0-19.5,30-25.8,33.3,0.5L192,149.3z"/>
			<path class="st25" d="M177.7,218.4h149.2c3.4,0,6.1,2.7,6.1,6.1v1.7c0,3.4-2.7,6.1-6.1,6.1H177.7c-3.4,0-6.1-2.7-6.1-6.1v-1.7
				C171.5,221.2,174.3,218.4,177.7,218.4z"/>
			<path class="st26" d="M171.2,218.4H319c3.8,0,6.8,3,6.8,6.8v2.3c0,3.8-3,6.8-6.8,6.8H171.2c-3.8,0-6.8-3-6.8-6.8v-2.3
				C164.4,221.5,167.5,218.4,171.2,218.4z"/>
			<path class="st27" d="M187,218.4h149.2c3.4,0,6.1,2.7,6.1,6.1v1.7c0,3.4-2.7,6.1-6.1,6.1H187c-3.4,0-6.1-2.7-6.1-6.1v-1.7
				C180.9,221.2,183.6,218.4,187,218.4z"/>
			<rect x="127.4" y="18.9" class="st28" width="423.5" height="26"/>
			<rect x="127.4" y="18.9" class="st29" width="50.8" height="26"/>
			<rect x="500.9" y="18.9" class="st29" width="50.8" height="26"/>
			
				<linearGradient id="SVGID_6_" gradientUnits="userSpaceOnUse" x1="293" y1="729.205" x2="333.1555" y2="729.205" gradientTransform="matrix(1 0 0 -1 0 900)">
				<stop  offset="3.000000e-02" style="stop-color:#E92B28"/>
				<stop  offset="1" style="stop-color:#A31E24"/>
			</linearGradient>
			<path class="st30" d="M293,145.6l7.4-10.5c0,0,10.1-5.7,10.9-8.8c3.6-1.2,7.2-2.3,10.9-3.1c0,0,8.3,6.6,9.2,11.1s3.1,5,0,6.8
				s-4.3,7.9,1.6,15.3c0.2,0.4,0,61.7,0,61.7h-32.6l0.4-55.7c0,0,7.4-4.2,3.1-8.2S298.3,160.1,293,145.6z"/>
			
				<linearGradient id="SVGID_7_" gradientUnits="userSpaceOnUse" x1="293" y1="773.61" x2="311.38" y2="773.61" gradientTransform="matrix(1 0 0 -1 0 900)">
				<stop  offset="5.000000e-02" style="stop-color:#605F5E"/>
				<stop  offset="1" style="stop-color:#414242"/>
			</linearGradient>
			<path class="st31" d="M300.4,135.1c0,0,10.5-4.4,10.9-8.8l-8.3-8.8c0,0-9.2,1.4-10.1,8.8L300.4,135.1z"/>
			<path class="st32" d="M315.6,166h2.3c4.6,0,8.4,3.7,8.4,8.4v25c0,4.6-3.7,8.4-8.4,8.4h-2.3c-4.6,0-8.4-3.7-8.4-8.4v-25
				C307.3,169.7,311,166,315.6,166z"/>
			<path class="st33" d="M303.1,117.6l-10.1,8.8C291.2,124,299,117.1,303.1,117.6z"/>
			<polygon class="st34" points="1325.4,292 1325.4,312.3 1338.6,312.3 1338.6,306.7 1342,306.7 1342,294.7 1338.6,294.3 
				1338.6,292 			"/>
			
				<linearGradient id="SVGID_8_" gradientUnits="userSpaceOnUse" x1="1314.4835" y1="623.1622" x2="1346.2274" y2="623.1622" gradientTransform="matrix(1 0 0 -1 0 900)">
				<stop  offset="0" style="stop-color:#D8DAD0"/>
				<stop  offset="0.98" style="stop-color:#E6E6E2"/>
			</linearGradient>
			<path class="st35" d="M1325.4,292h13.2l7.6-25.6c0,0,1.5-4.1-7.6-4.5s-21.1,0-21.1,0c-1,0.7-1.8,1.7-2.4,2.8
				c-1.6,3.3-0.1,7,2.4,12.1C1319.5,281,1322.1,286.2,1325.4,292z"/>
			<polygon class="st36" points="1338.6,294.3 1342,294.7 1342,306.7 1338.6,306.7 			"/>
			<path class="st37" d="M1325.4,292c0,0,1.8,18.9,13.2,20.3h-13.2V292z"/>
			<path class="st36" d="M1325.4,312.3c0,0,11.6,0,13.2,0v1.6h-13.2L1325.4,312.3z"/>
			<path class="st38" d="M1314.5,266.7l31.6-0.3c0.5-4.4-3.6-4.8-6.7-4.7s-21.1,0.1-21.1,0.1S1314.8,261.9,1314.5,266.7z"/>
			<path class="st39" d="M1346.1,266.4c0,0,1.3-5.3-6.7-4.7l-7.6,0.1c0,0-2.2,4.8-5.3,4.8L1346.1,266.4z"/>
			<polygon class="st39" points="1325.4,292 1338.6,292 1339.5,289 1323.9,289.3 			"/>
			<path class="st38" d="M1323.9,289.3c0,0,8.6,3,11.7,2.6l-10.2,0.1L1323.9,289.3z"/>
			<path class="st40" d="M1494.8,338.9c-0.5,0.9-1.5,1.5-2.6,1.3c-27.7-2.5-55.7-0.6-83.2-5h-0.1c-90.5,0.3-218.8,5.3-218.8,5.3
				s4.4,49.5,55.6,72.4h184.1c33.4-3.1,63.3-60.5,66.4-72.4C1496.5,339.8,1496,339.3,1494.8,338.9z"/>
			<path class="st41" d="M1245.4,412.7h185c1.8,0,3.2,1.4,3.2,3.2v0.9c0,1.8-1.4,3.2-3.2,3.2h-185c-1.8,0-3.2-1.4-3.2-3.2v-0.9
				C1242.2,414.2,1243.6,412.7,1245.4,412.7z"/>
			<ellipse class="st42" cx="1344.6" cy="340.4" rx="153.1" ry="5.1"/>
			<path class="st32" d="M1190.2,340.4c0,0,6.9,55.7,55.6,72.4c41.4,0,61.2-0.1,61.2-0.1S1227.6,420,1190.2,340.4z"/>
			<path class="st43" d="M753,116.3h200c2.1,0,3.8,1.7,3.8,3.8v1c0,2.1-1.7,3.8-3.8,3.8H753c-2.1,0-3.8-1.7-3.8-3.8v-1
				C749.2,118,750.9,116.3,753,116.3z"/>
			<path class="st44" d="M783.6,125.4v155.9c0,0,12.8-9.4,35.4-2.5s31.3-2,38-3s16.9-2,24.6,2.5c7.2-2,18.5-5.4,25.2-2
				c7.7,2,11.8,0,11.8,0v-151C918.6,125.3,849.3,112.3,783.6,125.4z"/>
			<path class="st45" d="M785.5,112.2v162.5c0,0,12.8-9.8,35.4-2.6s31.3-2,38-3.1s17-2,24.7,2.6c7.2-2.1,18.5-5.6,25.2-2.1
				c7.7,2.1,11.8,0,11.8,0V112.2C920.5,112.2,851.2,98.7,785.5,112.2z"/>
			<path class="st46" d="M920.5,257.6h-135v22.1c0,0,16.8-9.5,36.5-2.2c11.6,4.1,24.5,3.1,35.3-2.8c8.6-3.3,18.2-2.6,26.3,1.9
				c0,0,14.4-6,27.5-1.5c6.1,1.5,9.4-0.5,9.4-0.5v-14.8"/>
			<circle class="st47" cx="805.1" cy="129.9" r="7.1"/>
			<circle class="st47" cx="854.1" cy="184.5" r="6.9"/>
			<circle class="st47" cx="853" cy="226.2" r="6.9"/>
			<circle class="st47" cx="903.7" cy="184.9" r="6.9"/>
			<circle class="st47" cx="854.9" cy="144.7" r="6.9"/>
			<circle class="st47" cx="904.5" cy="129.9" r="6.9"/>
			<circle class="st47" cx="802" cy="184.5" r="6.9"/>
			<circle class="st47" cx="896.8" cy="240.8" r="7.7"/>
			<circle class="st47" cx="800.2" cy="240.8" r="7.1"/>
			<circle class="st48" cx="746.2" cy="122.8" r="21.1"/>
			<circle class="st49" cx="749.2" cy="121.1" r="21.1"/>
			<circle class="st48" cx="953.6" cy="123.7" r="21.1"/>
			<circle class="st49" cx="956.6" cy="121.9" r="21.1"/>
			<polygon class="st50" points="288.7,832.7 486.2,832.7 449.8,881.3 227.1,881.3 			"/>
			<polygon class="st51" points="874.9,778.8 874,832.7 1088.4,832.7 1068.9,778.4 			"/>
			<polygon class="st51" points="1285.2,832.7 1333.5,881.3 1532.6,881.6 1468.4,832.3 			"/>
			<polygon class="st50" points="42.2,832.3 84.7,832.7 185.8,779.4 46.1,779.4 			"/>
			<polygon class="st52" points="252.3,148.5 270.1,148.5 268.6,164.5 254.5,164.5 			"/>
			<path class="st53" d="M254.6,164.5c-14.8,17.9-20.2,40.5-5.3,53.7h25.3c0,0,14.5-14.3,5.6-39c-9.3-15.4-11.5-14.7-11.5-14.7
				L254.6,164.5z"/>
			<path class="st54" d="M261.2,164.5h-6.7c0,0-28.6,30-5.3,53.7h25.3C274.5,218.3,228.1,203.8,261.2,164.5z"/>
			<path class="st55" d="M252.3,148.5h4.9c-0.4,3.1,0.2,6.3,1.8,9.1c2.1,3.5,5.6,6,9.6,6.9c-14.1,0-14.2-0.6-14.2-0.6L252.3,148.5z"
				/>
			<polygon class="st56" points="252.3,148.5 270.1,148.5 269.8,152 252.8,152 			"/>
			<path class="st57" d="M252.3,148.5c0,0,12.7,3.9,17.5,3.5h-17L252.3,148.5z"/>
			<path class="st58" d="M248.9,188.6c0,0,22.4,1.2,26.9,0c-0.3,9.1-0.8,18.4-0.8,18.4s-22.8,2-24.5,0L248.9,188.6z"/>
			<polygon class="st59" points="1180.2,735.5 1232.9,776.4 1487.9,776.4 1415.8,738.6 			"/>
			<path class="st60" d="M1203.3,440.8l29.7-5.9c-1,98.9-1.9,197.8-2.9,296.7l-29.4-8.4L1203.3,440.8z"/>
			<rect x="1230.1" y="431.3" class="st61" width="240.2" height="300.2"/>
			<path class="st62" d="M1230.4,417.7h247.5c4.2,0,7.5,3.4,7.5,7.5v2.1c0,4.2-3.4,7.5-7.5,7.5h-247.5c-4.2,0-7.5-3.4-7.5-7.5v-2.1
				C1222.9,421.1,1226.3,417.7,1230.4,417.7z"/>
			<rect x="1247.8" y="450.3" class="st32" width="202.2" height="252.7"/>
			<polygon class="st63" points="1272.4,731.5 1261,770.4 1239.1,770.4 1239.1,731.5 			"/>
			<polygon class="st64" points="1239.1,770.4 1230.1,765.1 1230.1,731.5 1239.1,731.5 			"/>
			<polygon class="st63" points="1211.5,726.2 1211.5,751 1224.1,751 1227.2,731.5 			"/>
			<polygon class="st64" points="1204.3,748 1211.5,751 1211.5,726.2 1204.3,723.1 			"/>
			<polygon class="st64" points="1431,731.5 1445.1,770.4 1433.2,766 1420.1,731.5 			"/>
			<polygon class="st64" points="1387.7,731.5 1398.2,755.2 1387.7,749.6 1379.3,731.5 			"/>
			<polygon class="st63" points="1387.7,731.5 1398.2,755.2 1414.3,755.2 1414.3,731.5 			"/>
			<polygon class="st63" points="1431,731.5 1445.1,770.4 1465.5,770.4 1465.5,731.5 			"/>
			<polygon class="st65" points="1248.1,449.7 1450.3,702.4 1248.1,702.4 			"/>
			<circle class="st66" cx="1370.4" cy="572.6" r="8.9"/>
			<circle class="st66" cx="1330.7" cy="572.6" r="8.9"/>
			<line class="st67" x1="1350.2" y1="450.3" x2="1350.2" y2="703"/>
			<path class="st61" d="M1231.5,417.7c-10.2-0.6-11.9,15.4-1.4,17.1c-18.3,4.2-26.8,5.9-26.8,5.9s-8.6-10.2,1.9-14.5
				S1231.5,417.7,1231.5,417.7z"/>
		</g>
	</g>
	<rect class="st68" width="1600" height="900"/>
</g>
</svg>
