<svg xmlns="http://www.w3.org/2000/svg" viewBox="0 0 320 158"><defs><style>.cls-1{fill:#4c433d;}</style></defs><g id="Layer_12" data-name="Layer 12"><path class="cls-1" d="M21.87,42.71l1.21,1.77c1.79,2.62,3.62,5.35,4.18,8.48s-.48,6.77-3.28,8.27a25.66,25.66,0,0,0,16.18-.15A4.51,4.51,0,0,0,43,59a3.72,3.72,0,0,0,.24-1.93c-.25-2.66-1.75-5-2.53-7.58s-.51-5.86,1.81-7.18a14.5,14.5,0,0,1,2.84-.92c3.05-1,5.26-3.76,6.37-6.78a31.79,31.79,0,0,0,1.42-9.48c0,.26-13.4.17-14.83.63C32,27.82,26,37.67,21.87,42.71Z"/><path class="cls-1" d="M140.59,96.48s-7.13-3.44-8.91,22.8a55.16,55.16,0,0,0-.24,6.1c.49,6.25,8.25-38.26,24.76-24.89,18.87,15.29,17.91-11.34-8.88-15.7"/><path class="cls-1" d="M209.71,114.16S226.2,80.08,232,94.3s-23.63,22.82-3.12,25,7.13-40.1,16.05-25,15.65,1.16,3.81-7.92S210.6,76.09,209.71,114.16Z"/><path class="cls-1" d="M155.31,123.23s-14.27,3.13-7.14,16.5S178.14,135,155.31,123.23Z"/><path class="cls-1" d="M138.81,126.4c3.22,0,3.22-5,0-5s-3.22,5,0,5Z"/><path class="cls-1" d="M138.81,126.4c3.22,0,3.22-5,0-5s-3.22,5,0,5Z"/><path class="cls-1" d="M158.87,119.05c3.22,0,3.23-5,0-5s-3.22,5,0,5Z"/><path class="cls-1" d="M233.12,132.42c3.21,0,3.22-5,0-5s-3.23,5,0,5Z"/><path class="cls-1" d="M237.13,133.09c3.22,0,3.22-5,0-5s-3.22,5,0,5Z"/><path class="cls-1" d="M295.43,73.74A191.74,191.74,0,0,1,295,97.83a2.52,2.52,0,0,0,2.5,2.5,2.55,2.55,0,0,0,2.5-2.5,191.74,191.74,0,0,0,.44-24.09c-.14-3.2-5.14-3.22-5,0Z"/><path class="cls-1" d="M294.57,61.15a50.86,50.86,0,0,0-7.12,29.31A2.55,2.55,0,0,0,290,93a2.52,2.52,0,0,0,2.5-2.5,46.19,46.19,0,0,1,6.43-26.79c1.66-2.76-2.66-5.28-4.31-2.52Z"/><path class="cls-1" d="M293,79.13l-4.73,13.36A2.52,2.52,0,0,0,290,95.56a2.55,2.55,0,0,0,3.07-1.74l4.73-13.36a2.52,2.52,0,0,0-1.74-3.08A2.57,2.57,0,0,0,293,79.13Z"/><path class="cls-1" d="M33.13,16c3.22,0,3.23-5,0-5s-3.22,5,0,5Z"/><path class="cls-1" d="M33.91,16.65l5,3a2.6,2.6,0,0,0,1.93.25,2.53,2.53,0,0,0,1.49-1.15,2.5,2.5,0,0,0,.25-1.93,2.59,2.59,0,0,0-1.15-1.49l-5-3a2.5,2.5,0,0,0-3.67,2.83,2.63,2.63,0,0,0,1.15,1.49Z"/><path class="cls-1" d="M43.17,23.07c3.21,0,3.22-5,0-5s-3.23,5,0,5Z"/></g></svg>