<svg xmlns="http://www.w3.org/2000/svg" viewBox="0 0 320 158"><defs><style>.cls-1{fill:#4c433d;}</style></defs><g id="Layer_11" data-name="Layer 11"><path class="cls-1" d="M89.89,127.53c-2.89-2.07-7.42.38-8.11,3.88s1.61,7,4.66,8.87,6.72,2.3,10.26,2.61c4.82.42,10.91-.15,12.61-4.67,1.91-5.09-3.57-9.69-8.29-12.38.94-2.94,4.91-3.3,8-2.89s6.83.72,8.53-1.85c1.41-2.14.3-5.23-1.78-6.73s-4.78-1.78-7.35-1.77c-.26-2.39,3.07-3.18,4.92-4.72,6.83-5.68-5.16-15.66-11.29-12.11S92.23,120.85,89.89,127.53Z"/><path class="cls-1" d="M15.19,86.25a18,18,0,0,0,3,6.38c1.54,1.8,4.07,3,6.32,2.21,2.34-4.14-.83-10.47,2.76-13.59,2.87-2.5,7.66-.19,9.3,3.24s1.29,7.42,1.63,11.21a29.52,29.52,0,0,0,5.15,14.12c.5.72,1.41,1.49,2.13,1a1.73,1.73,0,0,0,.54-1.28c.77-7.16-1.24-14.3-3.22-21.22C40.75,81.11,40.17,67,30.28,67.58c-4.24.23-8,3.87-11.15,6.31C12,79.46,15.19,78.78,15.19,86.25Z"/><path class="cls-1" d="M157.27,119s2.72-17.62,14.31-21.19,1.79,17.84,18.28,23.19,10.26,24.52-8.91,16-15.61,9.81-15.61,9.81S152.77,153.58,157.27,119Z"/><path class="cls-1" d="M193.88,103.62s-10.26,8.47,0,12.93S193.88,103.62,193.88,103.62Z"/><path class="cls-1" d="M293.76,15.78S287.52.2,290.64,28.28s16.05-8.41,16.05-8.41l7.58,19s3.56-19.33-14.27-28.8-27,16.59-27,16.59Z"/><path class="cls-1" d="M294.2,53.28c3.22,0,3.23-5,0-5s-3.22,5,0,5Z"/><path class="cls-1" d="M310.26,47.26c3.21,0,3.22-5,0-5s-3.23,5,0,5Z"/><path class="cls-1" d="M275.79,42.07a51.91,51.91,0,0,0,9.35,26.18,2.57,2.57,0,0,0,3.42.89,2.51,2.51,0,0,0,.9-3.42,47,47,0,0,1-8.67-23.65,2.57,2.57,0,0,0-2.5-2.5,2.51,2.51,0,0,0-2.5,2.5Z"/><path class="cls-1" d="M173.8,152.49l36.1-4.16a2.57,2.57,0,0,0,2.5-2.5,2.52,2.52,0,0,0-2.5-2.5l-36.1,4.16a2.57,2.57,0,0,0-2.5,2.5,2.52,2.52,0,0,0,2.5,2.5Z"/></g></svg>