<svg xmlns="http://www.w3.org/2000/svg" viewBox="0 0 144 158"><defs><style>.cls-1{fill:#0043a5;}.cls-1,.cls-2,.cls-3,.cls-4,.cls-5{fill-rule:evenodd;}.cls-2{fill:#3799ba;}.cls-3{fill:#6ef9f5;}.cls-4{fill:#e6ffff;}.cls-5{fill:#4a82f4;}</style></defs><g id="Layer_10" data-name="Layer 10"><path class="cls-1" d="M4.36,108.06c.41-.58.82-1.12,1.21-1.64,12.79-19,58-80,70.55-96.16C89.66-7.15,109.66.85,117.42,10c13.88,16.42-3.51,38.17-3.51,38.17l-11.19-6.56c9.06-12.64,10.34-19.57,6.25-26C105,9.32,94.3,8.75,86.64,20c-5.92,8.67-48.95,66.11-64.85,88.46-11.74,16.48-8.46,20.8,1.9,27,6.61,3.93,11.3-3.79,20.8-16.11l8,17s-16.18,16.09-31.71,8.79C9.9,140-8.42,126,4.36,108.06Z"/><polygon class="cls-2" points="52.51 130.29 81.66 151.22 139.83 69.21 110.75 48.16 52.51 130.29"/><path class="cls-3" d="M107.34,52.22l34.89,24.61,2.26-8.27L112,45.57ZM50.16,131.09,88.38,158l2.25-8.26L55,124.49Zm6.4-8.74L91.45,147l2.2-8.43L61.24,115.7Zm6.3-8.79,38.21,26.94,2.25-8.27L67.64,107Zm6.4-8.74L104,129.37l2.3-8.38L73.94,98.17ZM75.55,96l38.22,27L116,114.7,80.34,89.43ZM82,87.29l34.78,24.55,2.31-8.38L86.63,80.64Zm6.3-8.8,38.21,27,2.14-8.32L93,71.9Zm6.4-8.73,34.78,24.55,2.31-8.38L99.33,63.1Zm6.29-8.8,38.33,27,2.25-8.26L105.73,54.37Z"/><path class="cls-4" d="M52.89,127.25l36.86,26,.88-3.48L55,124.49ZM110,48.5l33.42,23.61,1.05-3.55L112,45.57Zm-6.41,8.74,36.87,26,1-3.54L105.73,54.37ZM97.32,66l33.37,23.44,1.05-3.54L99.33,63.1ZM91,74.66l36.7,26.05.93-3.59L93,71.9Zm-6.29,8.79,33.43,23.61.93-3.6L86.63,80.64Zm-6.4,8.74,36.81,26.11.93-3.6L80.34,89.43ZM72,101l33.42,23.61.93-3.6L73.94,98.17Zm-6.41,8.74,36.81,26.11.93-3.6L67.64,107Zm-6.29,8.8,33.43,23.6.93-3.6L61.24,115.7Z"/><path class="cls-1" d="M38.69,133.88c0-.09,71.63-94.61,74.28-94.37a6.78,6.78,0,0,1,.52.47c2.87,3.22.6,8.27-1.56,11.36L61.6,123.69c-.85,1.29-4.69,6.94-9.08,12.6C49.63,140,39.38,137.81,38.69,133.88Z"/><path class="cls-5" d="M23.86,141c11,3.27,20.21-3.89,23.19-6.6a13.78,13.78,0,0,0,2.76-3c4-5.68,7.25-10.28,10.81-15.41C87,77.87,99.65,60.83,113,39.51c0,0,9-13.89,1.27-25.58C108.06,4.64,91.8-.4,79.14,16c-11.74,15.18-54,72.54-66,90.44-.37.48-.75,1-1.14,1.54C.07,124.86,13.16,137.77,23.86,141Zm-2.81-29a14.47,14.47,0,0,0,1.63-2.55c.75-.85,1.51-1.77,2.29-2.8,15.54-20.51,55.12-75,60.66-83.2,7.17-10.56,17.1-10.09,20.73-4.24,3.74,6-.36,11.06-8.76,22.84a36.64,36.64,0,0,0-3.2,4.08l-40.68,59c-3.51,5-7.12,10.34-11.36,16.26-6.41,8.31-9.92,12.05-15.78,10.5C19.93,130.11,13.05,121.93,21.05,112Z"/></g></svg>