<svg xmlns="http://www.w3.org/2000/svg" width="422" height="593" viewBox="0 0 422 593">
  <defs>
    <style>
      .ae58505f-c4af-47ed-bf6b-1460a9ae5346 {
        opacity: 0.25;
      }

      .fbd2c1d9-14d9-4352-b62a-2a8e5be19a93 {
        fill: #142a35;
        stroke: #0a202c;
      }

      .a0350df2-4fda-45ca-a8ce-edbb43761b57, .a33ce06f-6ca7-4f71-8cd6-c6175d84cc25, .a37872ff-d5ec-400c-84c6-09856d391432, .a41c0065-0e8a-498d-97e1-98742bb5974e, .b13b8801-fbe4-4b5f-afaa-fb8472cc51f8, .beef088e-77b1-47b5-9018-5483ed7630a2, .e09f6b05-945f-4e26-b9c2-47ecffa56561, .e9d66f51-0a41-4f46-ab75-99cd348b5e09, .ed958801-1c0c-4a8a-a2c1-9c79a80abe0d, .efe8f79b-ff0c-446c-af87-d21cb9d7e9e6, .f10f6bd1-2650-4518-996e-ccbbf0e1a5d8, .f721a027-2010-46c0-bb37-0c038ace60d2, .fbd2c1d9-14d9-4352-b62a-2a8e5be19a93 {
        stroke-miterlimit: 10;
      }

      .a0350df2-4fda-45ca-a8ce-edbb43761b57, .a33ce06f-6ca7-4f71-8cd6-c6175d84cc25, .a37872ff-d5ec-400c-84c6-09856d391432, .a41c0065-0e8a-498d-97e1-98742bb5974e, .b13b8801-fbe4-4b5f-afaa-fb8472cc51f8, .e09f6b05-945f-4e26-b9c2-47ecffa56561, .e9d66f51-0a41-4f46-ab75-99cd348b5e09, .ed958801-1c0c-4a8a-a2c1-9c79a80abe0d, .efe8f79b-ff0c-446c-af87-d21cb9d7e9e6, .f721a027-2010-46c0-bb37-0c038ace60d2, .fbd2c1d9-14d9-4352-b62a-2a8e5be19a93 {
        stroke-width: 2px;
      }

      .ed958801-1c0c-4a8a-a2c1-9c79a80abe0d {
        fill: #957453;
      }

      .e09f6b05-945f-4e26-b9c2-47ecffa56561, .ed958801-1c0c-4a8a-a2c1-9c79a80abe0d {
        stroke: #603917;
      }

      .e09f6b05-945f-4e26-b9c2-47ecffa56561 {
        fill: #c49a6c;
      }

      .efe8f79b-ff0c-446c-af87-d21cb9d7e9e6, .f10f6bd1-2650-4518-996e-ccbbf0e1a5d8 {
        fill: #f8cfba;
        stroke: #93614c;
      }

      .f721a027-2010-46c0-bb37-0c038ace60d2 {
        fill: #f9e4ea;
        stroke: #ed8aa6;
      }

      .beef088e-77b1-47b5-9018-5483ed7630a2 {
        fill: #d4eadc;
        stroke: #000;
      }

      .a33ce06f-6ca7-4f71-8cd6-c6175d84cc25 {
        fill: #b56528;
        stroke: #68441a;
      }

      .b13b8801-fbe4-4b5f-afaa-fb8472cc51f8 {
        fill: #f7e9cb;
        stroke: #8e6b3d;
      }

      .a0350df2-4fda-45ca-a8ce-edbb43761b57, .a0af8561-04eb-464f-98fc-a1de8a79b70e {
        fill: #f0e818;
      }

      .a0350df2-4fda-45ca-a8ce-edbb43761b57, .a41c0065-0e8a-498d-97e1-98742bb5974e {
        stroke: #8b4d21;
      }

      .a2874ce8-ff2c-431c-bf48-7daabf54219c {
        fill: #60381c;
      }

      .a37872ff-d5ec-400c-84c6-09856d391432 {
        fill: #f9bd13;
      }

      .a37872ff-d5ec-400c-84c6-09856d391432, .e9d66f51-0a41-4f46-ab75-99cd348b5e09 {
        stroke: #8b4a20;
      }

      .e9d66f51-0a41-4f46-ab75-99cd348b5e09, .ea840950-2d39-412d-912f-09bb757218a3 {
        fill: #d7a529;
      }

      .a2082fe2-d3af-4977-aa56-bf2cd802eab7 {
        fill: #8b4a20;
      }

      .a41c0065-0e8a-498d-97e1-98742bb5974e, .b5b4d7ad-21d0-4245-bb8e-e99d4e8c7128 {
        fill: #db7d2e;
      }

      .fa802287-3a4e-4c61-bd0b-25c62bf00fd5 {
        fill: #8b4d21;
      }

      .b075f48c-8d8c-4fad-b6dc-9a0405e763c5, .b5a6b220-1dee-4967-a032-0d7c80240b0d {
        fill: #fff;
      }

      .aaeb378c-430c-4d44-bcde-0e696ef2ce43 {
        fill: #754d24;
        opacity: 0.44;
      }

      .b048faea-6baf-4d46-904b-4840b960241c {
        fill: none;
        stroke: #62587d;
      }

      .ff952fe6-2390-44d9-b9b8-4f5185a4abe2 {
        fill: #e0b7a4;
      }

      .aa78b663-a0e6-4deb-bd34-d77318e6c87b {
        fill: #93614c;
      }

      .bce70215-5840-4745-8ae3-69f3f21213c4 {
        opacity: 0.49;
      }

      .a832dd50-b9d9-451e-81d8-63a269b96bf2 {
        fill: #9b1010;
      }

      .b5eb9477-4c3f-47cc-a9ce-92b42fe564bc {
        fill: #1f2335;
      }

      .b88d230a-37fd-4bf4-8d07-dcbfef590245 {
        fill: #ff9a99;
        opacity: 0.29;
      }

      .bfb03708-9afd-4865-9c5c-863d59cbbedf {
        fill: #1d2647;
      }

      .b5a6b220-1dee-4967-a032-0d7c80240b0d {
        opacity: 0.85;
      }

      .e5580931-a0b8-4c6a-b114-af61a2a94a51 {
        fill: #38505b;
      }

      .e6b4aa91-59db-4231-b7e2-f96bcfc438a6 {
        fill: #cba288;
      }
    </style>
  </defs>
  <g id="a9f6468a-4f15-49f5-b480-e3d578414430" data-name="Layer 16">
    <g>
      <path class="ae58505f-c4af-47ed-bf6b-1460a9ae5346" d="M57.46,557l28.06,13.61,46.43.48,40.82-7s34.44,24.69,81.09,26.06l2.58.06c48,.51-5.1-40.82-5.1-40.82l51.53-4.08s38.26,23.13,79.59,25.34-23-35.55-23-35.55l59.7-4.82L326.72,511,34.83,541.2Z"/>
      <g>
        <path class="fbd2c1d9-14d9-4352-b62a-2a8e5be19a93" d="M123.7,26c-17.26,11.46-4.78,25.77-17.26,29.8C102.63,57.06,65.07,50.8,57,73c-3.17,8.68,1.15,11.46-3.45,14.9s-15,4.58-17.27,16,11.51,11.47,8.06,22.93-20.72,16-21.87,28.65,9.21,14.91,9.21,26.37-15,16.05-15,28.65,16.11,8,18.41,17.2S28.18,245,37.39,253s16.11,2.3,20.71,8-6.9,20.63,3.45,25.21,15-3.43,20.72,4.59-5.75,22.92,9.21,27.51S111,309.15,120.25,316s2.3,10.31,16.11,17.19,57.55-4.58,57.55-4.58l78.26,2.29S286,333.22,299.79,316s33.38-8,41.43-20.64,4.61-17.19,11.51-25.21,18.42-10.32,16.12-19.49-9.21-4.58-10.36-12.61,18.41-16,19.56-28.65-4.6-11.46-3.45-19.49,17.26-9.17,15-22.92-23-16.05-26.47-25.22,6.91-19.49,2.3-29.8-17.26-8-20.71-13.76,6.9-6.87,4.6-14.9S338.92,82.2,332,78.76s4.6-20.63-8.06-30.95-18.41-3.44-26.47-6.88,6.9-16-4.6-22.92-13.82,4.58-24.17,4.58-9.21-16-25.32-17.19-20.72,11.46-28.78,10.31S211.17,2,192.76,2,176.64,18,167.44,23.74,141,14.57,123.7,26Z"/>
        <path class="ed958801-1c0c-4a8a-a2c1-9c79a80abe0d" d="M126.23,576.1l32-102.19H145.81L108.67,582.45l15-3.72A3.74,3.74,0,0,0,126.23,576.1Z"/>
        <path class="ed958801-1c0c-4a8a-a2c1-9c79a80abe0d" d="M81.65,537.92,74.5,553.07a2.79,2.79,0,0,1-2.17,1.69L60.26,556l10.13-25Z"/>
        <path class="e09f6b05-945f-4e26-b9c2-47ecffa56561" d="M69.71,451.48,37.62,539.37a3.4,3.4,0,0,0,1.19,4L60.26,556l9.05-22.37a2.27,2.27,0,0,1,3.27-1.39L92,543.66a3.36,3.36,0,0,1,1.24,3.86L87,567.22a3.37,3.37,0,0,0,1.29,3.89l20.38,11.34,36-106.66c.58-1.72-.22-3.68-1.68-4.14L72.56,449.77A2.37,2.37,0,0,0,69.71,451.48Z"/>
        <path class="ed958801-1c0c-4a8a-a2c1-9c79a80abe0d" d="M392.42,533.88,362.1,440.23a1.51,1.51,0,0,1,1.65-2l16.93,2.12a1.52,1.52,0,0,1,1.25,1l31.57,89.1a1.51,1.51,0,0,1-1.34,2Z"/>
        <path class="e09f6b05-945f-4e26-b9c2-47ecffa56561" d="M367.84,458.32l25.09,75.42-40.23-6.82a1.51,1.51,0,0,1-1.13-.85l-9.21-19.4a1.51,1.51,0,0,0-1.2-.86l-19.49-2.4a1.51,1.51,0,0,0-1.66,1.91l5,17.29-25.94-5.37a1.52,1.52,0,0,1-1.17-1.12l-12.7-51.66a1.51,1.51,0,0,1,1.38-1.85l79.68-5.32A1.53,1.53,0,0,1,367.84,458.32Z"/>
        <path class="ed958801-1c0c-4a8a-a2c1-9c79a80abe0d" d="M63.31,437.73s-11.32,8.35,0,16.68l65.29,27.21a14.16,14.16,0,0,0,7,1l257.32-28.2s11.93-7,1-16.7L134,468.34Z"/>
        <path class="e09f6b05-945f-4e26-b9c2-47ecffa56561" d="M392.38,440.15,136.51,469.29a15.07,15.07,0,0,1-7.48-1.06L64.78,441.31a2.39,2.39,0,0,1,.69-4.59l228.57-25a21.85,21.85,0,0,1,8.09.63l90.52,24.39A1.73,1.73,0,0,1,392.38,440.15Z"/>
        <g>
          <path class="efe8f79b-ff0c-446c-af87-d21cb9d7e9e6" d="M389.81,549.3c-3.18-3.66-13.57-14.89-26-20.65a8.16,8.16,0,0,1-4.7-7.29c-.36-19.9-3.46-87.8-4.78-91.05-.6-1.5-.43-11.25-5.81-15.69-4.61-3.43-39.71-31.92-85.17-48.14L264.46,339l-1.15,27.51L290.93,378l-2.3-43.56s0-47-29.05-58.75c0,0-19.29-6.08-21-16.08a2.47,2.47,0,0,0-.17-.57l-5.58-18.91H183.32L181,255c-.92,5.44-6.59,20.16-19.72,22-13.72,2-31.05,10-32.26,50.89-.39,5.33-3.16,31-3.26,31.38-1.69,5.76-12.12,43.06-15,68.77-.15,1.43-7.9,6.26-9.2,6.88-3.7,1.75-12.48,4-18.42,5.73-8,2.29,1.73,4.58,1.73,4.58a135.17,135.17,0,0,0,29.56,2.29,18.76,18.76,0,0,1-7,2.46,2.15,2.15,0,0,0-1.92,1.81c-.13,1.29,1,2.71,7.47,1.7,0,0,14.22-.87,17.89-8.84h0a4.31,4.31,0,0,0,.62-1.16c3.21-9.34,31.25-98.75,31.25-98.75s3,8.88,2.27,15.88S124.3,434,187.48,446.69c0,0,9,5.33,9.65,10,1,7.15,2.05,70.85-1.82,101.61a14,14,0,0,0,8.1,14.5c14,6.36,41,15.68,65.08,7.68,0,0,5.07-.84,5.07-5.42a6.44,6.44,0,0,0-1.42-3.88c-3-4-13-16.15-25.42-22.88a8.34,8.34,0,0,1-4.45-7.68c.89-20.3,3.14-90.34,2.62-93.93-2.3-16.05-5.75-28.66,6.91-22.93s31.41,10.77,48.34,14.91a28.08,28.08,0,0,0,5.35,1c1.8,0,4.31.55,4.9,3.36,1.42,6.87,6.23,68.42,4.33,98.4a13.56,13.56,0,0,0,8.7,13.54c14,5.31,40.57,12.73,63.41,3.55,0,0,4.86-1.11,4.58-5.53A6.3,6.3,0,0,0,389.81,549.3Zm-125.35-231c.22,6.55.17,14,0,21.78"/>
          <path class="f721a027-2010-46c0-bb37-0c038ace60d2" d="M166.73,274.89c7.72,32.15,72.31,44.2,84.54-2.72,5.16,3,13,4.43,15,7.17-.07-.12-3.66,65.86-5.47,84.33-.19,1.9,4,4.08,5.76,4.8,13.94,5.68,71,29.69,80.41,45.62,0,0-42.95-1.73-49.45,22.75,0,0-33-3-51.91-13.51,0,0-1.43,14.16-2,22.87a.52.52,0,0,1-1,.11c-2.58-8.49-13.14-33.34-50.47,1.45,0,0-.42.59-4.44-.32s-32.18-3.24-35.1-31.34c-2.08-20,5.23-39.25,9.62-48.69a24.34,24.34,0,0,0,2.06-13.66c-2.68-19.46-10.19-69.53-16.78-71.58C153.94,277.27,163.13,277.32,166.73,274.89Z"/>
        </g>
        <path class="beef088e-77b1-47b5-9018-5483ed7630a2" d="M318.63,501.6l6.4,18.89h13.44a1.51,1.51,0,0,0,1.45-2l-6.06-17.87a1.52,1.52,0,0,0-1.45-1H320.08A1.51,1.51,0,0,0,318.63,501.6Z"/>
        <path class="a33ce06f-6ca7-4f71-8cd6-c6175d84cc25" d="M195.38,518.14l-2.67,39.59s9.53,14.3,32.18,15.49c0,0,19.07,6.27,17.28-54.07Z"/>
        <path class="b13b8801-fbe4-4b5f-afaa-fb8472cc51f8" d="M246,518.26a86.45,86.45,0,0,1-48.55,13.82,3,3,0,0,1-3.84-1.9l-3.13-11a3,3,0,0,1,2.26-3.63,131.6,131.6,0,0,0,48.56-13.83,3,3,0,0,1,3.83,1.9l3.13,11A3,3,0,0,1,246,518.26Z"/>
        <ellipse class="a0350df2-4fda-45ca-a8ce-edbb43761b57" cx="247.9" cy="535.34" rx="15.45" ry="7.17" transform="translate(-268.26 249.65) rotate(-36.19)"/>
        <ellipse class="a0350df2-4fda-45ca-a8ce-edbb43761b57" cx="215.66" cy="542.8" rx="7.08" ry="16.31" transform="translate(-363.27 620.08) rotate(-75.94)"/>
        <ellipse class="a2874ce8-ff2c-431c-bf48-7daabf54219c" cx="220.43" cy="544.03" rx="5.65" ry="10.92" transform="translate(-360.86 625.64) rotate(-75.94)"/>
        <ellipse class="a2874ce8-ff2c-431c-bf48-7daabf54219c" cx="243.44" cy="539.43" rx="10.92" ry="5.65" transform="translate(-262.91 233.08) rotate(-34.54)"/>
        <ellipse class="a0350df2-4fda-45ca-a8ce-edbb43761b57" cx="234.7" cy="546.96" rx="8.05" ry="6.9"/>
        <path class="a37872ff-d5ec-400c-84c6-09856d391432" d="M223.77,574c-5.75-29.91,47.74-47.74,51.19-6.32C275,567.67,258.28,587.8,223.77,574Z"/>
        <path class="b13b8801-fbe4-4b5f-afaa-fb8472cc51f8" d="M192.09,555.75s42.58,38,82.8,10.71c3.55-.1,3.55,15.28-1.18,16.46,0,0-31.94,18.93-82.81-13C188.54,569.91,188.54,554.53,192.09,555.75Z"/>
        <path class="a33ce06f-6ca7-4f71-8cd6-c6175d84cc25" d="M312.72,500.7l-2.67,38.21s9.53,13.8,32.18,15c0,0,19.07,6,17.28-52.19Z"/>
        <path class="b13b8801-fbe4-4b5f-afaa-fb8472cc51f8" d="M358.64,509.19a92.61,92.61,0,0,1-48.83-7.76,2.88,2.88,0,0,1-2.67-3l1.6-10.06a2.89,2.89,0,0,1,3.48-2A140.72,140.72,0,0,0,361,494.06a2.88,2.88,0,0,1,2.67,3l-1.6,10.07A2.87,2.87,0,0,1,358.64,509.19Z"/>
        <g>
          <path class="ea840950-2d39-412d-912f-09bb757218a3" d="M130,335.29s-13.81-66.73,33.36-65.58l67.87,1.15s54.07-24.16,59.83,58.67c0,0-1.15,8.06-25.31,12.66C265.76,342.19,162.22,357.14,130,335.29Z"/>
          <path class="a2082fe2-d3af-4977-aa56-bf2cd802eab7" d="M130,335.29a112.52,112.52,0,0,1-2.07-19.12,88.42,88.42,0,0,1,.27-9.63A67.15,67.15,0,0,1,129.6,297c1.37-6.27,3.81-12.48,8-17.51a29.47,29.47,0,0,1,7.47-6.28c.72-.38,1.46-.73,2.19-1.09.38-.17.73-.39,1.12-.52l1.15-.41c.78-.25,1.53-.58,2.33-.77l2.38-.55a16.35,16.35,0,0,1,2.41-.39l2.43-.3c1.62,0,3.25-.11,4.86-.1l9.62.11,19.23.22,38.46.57-.38.08a46.9,46.9,0,0,1,12.48-3.11,42.08,42.08,0,0,1,12.86.53,34.66,34.66,0,0,1,11.93,4.92,38.29,38.29,0,0,1,9.4,8.82c5.2,6.89,8.47,15,10.57,23.17a140.56,140.56,0,0,1,3.87,25.1v.11l0,.08a4.34,4.34,0,0,1-.26.85c-.1.25-.23.45-.34.68a8.57,8.57,0,0,1-.81,1.19l-.45.55-.49.5a10,10,0,0,1-1,.94,23.67,23.67,0,0,1-4.53,3,53.71,53.71,0,0,1-9.91,3.8c-1.71.43-3.39.92-5.12,1.26l-2.59.54c-.87.2-1.77.27-2.62.4q-5.19.68-10.39,1.24-20.8,2.24-41.72,2.95a327.84,327.84,0,0,1-41.81-1,148.43,148.43,0,0,1-20.64-3.35C142.52,341.49,135.82,339.16,130,335.29Zm0,0c5.9,3.73,12.62,5.88,19.37,7.44a147.62,147.62,0,0,0,20.62,3,347.06,347.06,0,0,0,41.68.49c13.9-.58,27.76-1.78,41.58-3.34q5.19-.58,10.35-1.27c.87-.13,1.72-.2,2.54-.39l2.53-.54c1.68-.33,3.34-.83,5-1.25a53,53,0,0,0,9.55-3.69,22.54,22.54,0,0,0,4.18-2.75,9,9,0,0,0,.9-.84l.42-.43.38-.46a7.37,7.37,0,0,0,.65-1c.07-.17.19-.33.24-.49a2.81,2.81,0,0,0,.14-.4v.2a138.9,138.9,0,0,0-3.89-24.73A64.54,64.54,0,0,0,276,282.4a36.39,36.39,0,0,0-8.89-8.4,32.46,32.46,0,0,0-11.26-4.69,43.33,43.33,0,0,0-24.22,2.38l-.21.08h-.17L192.77,271l-19.23-.43-9.62-.21c-1.59,0-3.16,0-4.75.05l-2.35.27a15.24,15.24,0,0,0-2.33.35l-2.31.51c-.76.17-1.49.48-2.24.72l-1.11.38a11.57,11.57,0,0,0-1.07.48c-.71.35-1.43.67-2.12,1a28.68,28.68,0,0,0-7.25,6,40.27,40.27,0,0,0-8.08,17,68,68,0,0,0-1.54,9.44,87.21,87.21,0,0,0-.42,9.57A115.83,115.83,0,0,0,130,335.29Z"/>
        </g>
        <path class="e9d66f51-0a41-4f46-ab75-99cd348b5e09" d="M162.22,306.53s-5.75,18.4,2.3,46c0,0-18.4,20.71-23,40.27s4.61,36.81,4.61,47.16A29.75,29.75,0,0,1,143,453.75a3.52,3.52,0,0,0,1,4.45c6,4.55,22.51,13.18,43.57-7.87,1.15-1.15,27.61-26.46,42.56-21.86,0,0,10.36,2.3,11.51,14.95,0,0,18.4,15,52.92-6.9,0,0,29.91-25.31,46-21.86,0,0,17.26,3.45,16.11,20.71,0,0,14.95-62.12-39.12-70.17s-55.21-17.26-55.21-17.26,3.45-38-3.46-48.32"/>
        <g>
          <path class="b5b4d7ad-21d0-4245-bb8e-e99d4e8c7128" d="M124,316.3s11.24,15.25,36,15.25l3,15.37s-26.65-1.21-39-11C124,335.91,120.66,316.3,124,316.3Z"/>
          <path class="fa802287-3a4e-4c61-bd0b-25c62bf00fd5" d="M124,316.3a37.77,37.77,0,0,0,7.64,6.47c.7.45,1.39.91,2.13,1.3s1.43.84,2.19,1.18,1.49.75,2.25,1.08l2.3.95c.76.31,1.57.53,2.35.81l1.18.39,1.2.31,2.4.62,2.44.44,1.23.22c.4.06.82.08,1.23.13l2.47.26c1.64.13,3.3.11,5,.18l.75,0,.14.7c1.08,5.12,2.09,10.24,3.13,15.36l.25,1.25-1.27-.07c-3.48-.17-6.88-.59-10.29-1.09a94.85,94.85,0,0,1-10.15-2,67.67,67.67,0,0,1-9.87-3.21,38.21,38.21,0,0,1-9-5.21l-.2-.16,0-.22c-.48-3.36-.85-6.73-1-10.12-.09-1.7-.14-3.4-.06-5.1a14.34,14.34,0,0,1,.31-2.53,4.87,4.87,0,0,1,.41-1.22A1.12,1.12,0,0,1,124,316.3Zm0,0a1.08,1.08,0,0,0-.88.79,5.41,5.41,0,0,0-.3,1.2,21,21,0,0,0-.12,2.51c0,1.68.18,3.36.37,5,.39,3.34.93,6.67,1.54,10l-.23-.38a38.61,38.61,0,0,0,8.87,4.69A72.23,72.23,0,0,0,143,343c3.29.78,6.64,1.37,10,1.86s6.75.83,10.1,1l-1,1.19c-1-5.13-2-10.26-3-15.39l.89.73c-1.7-.1-3.41-.12-5.11-.29l-2.53-.32c-.43-.06-.85-.1-1.27-.18l-1.25-.26-2.5-.53-2.46-.72c-.41-.12-.82-.23-1.22-.36l-1.2-.45c-.79-.32-1.6-.58-2.37-.94a43.26,43.26,0,0,1-8.81-5.07A34.05,34.05,0,0,1,124,316.3Z"/>
        </g>
        <g>
          <path class="b5b4d7ad-21d0-4245-bb8e-e99d4e8c7128" d="M290.34,310.1S287.64,324,263.73,329l-.15,14.4s21.21-.2,28.87-11.84C292.45,331.58,294.31,309.71,290.34,310.1Z"/>
          <path class="fa802287-3a4e-4c61-bd0b-25c62bf00fd5" d="M290.34,310.1a18.55,18.55,0,0,1-3.92,7.6,28.17,28.17,0,0,1-6.48,5.74,40.77,40.77,0,0,1-7.72,4c-1.36.5-2.74,1-4.11,1.42l-4.2,1.07.71-.86c0,4.8,0,9.6-.06,14.4l-1-1a60,60,0,0,0,7.86-.81,50.39,50.39,0,0,0,7.68-1.9,33,33,0,0,0,7.1-3.28,21.07,21.07,0,0,0,5.63-5.26l-.11.34c.36-3.69.61-7.41.72-11.12a54.44,54.44,0,0,0-.11-5.57,16.67,16.67,0,0,0-.42-2.73,5.07,5.07,0,0,0-.49-1.28A1.2,1.2,0,0,0,290.34,310.1Zm0,0a1.27,1.27,0,0,1,1.2.65,4.86,4.86,0,0,1,.63,1.27,16.48,16.48,0,0,1,.64,2.76,55.39,55.39,0,0,1,.5,5.61c.09,1.87.09,3.75.06,5.62s-.09,3.75-.21,5.63v.18l-.1.15a22.08,22.08,0,0,1-5.9,5.9,34.82,34.82,0,0,1-7.43,3.64,48.94,48.94,0,0,1-8,2,54.14,54.14,0,0,1-8.17.86l-1,0,0-1c.06-4.8.12-9.6.24-14.4l0-.71.69-.16,4.11-1c1.34-.41,2.69-.79,4-1.23a43.58,43.58,0,0,0,7.63-3.52,30.82,30.82,0,0,0,6.6-5.17,22.67,22.67,0,0,0,2.6-3.34A15.63,15.63,0,0,0,290.34,310.1Z"/>
        </g>
        <path class="a41c0065-0e8a-498d-97e1-98742bb5974e" d="M142.42,456.36a.75.75,0,0,0-.54,1.3c5.12,4.85,22.9,17.71,48-7.33,0,0,41.41-40.27,50.62-6.91l1.06,3.2a.81.81,0,0,0,.32.41c2.35,1.52,22.65,13.33,56.13-9.36a.31.31,0,0,0,.09-.07c2.28-2.15,56.43-44.09,57.42,0a.76.76,0,0,0,1.3.53c3.93-3.86,10.4-22.76,3.39-41.29a12.22,12.22,0,0,0-3.52-5.16c-4.64-4-16.89-10.82-32.21-2.31-20.71,11.51-30.1,21.26-49.47,24.16C252,417,231.73,398.3,211.69,402,182,407.51,157.58,456.07,142.42,456.36Z"/>
        <g>
          <path class="b5b4d7ad-21d0-4245-bb8e-e99d4e8c7128" d="M261,352.84c-32.32,3.88-62.42,4.08-95.25,2.15a2.82,2.82,0,0,1-2.64-2.51l-.6-5.35a2.21,2.21,0,0,1,2.36-2.43,432.47,432.47,0,0,0,95.89-3.27,2.36,2.36,0,0,1,2.7,2.33v6.31A2.79,2.79,0,0,1,261,352.84Z"/>
          <path class="fa802287-3a4e-4c61-bd0b-25c62bf00fd5" d="M261,352.94a539.65,539.65,0,0,1-54.66,3.73c-9.14.09-18.28-.05-27.42-.37l-6.85-.28-3.42-.17-1.71-.08-.86,0-.44,0a3.23,3.23,0,0,1-.53-.08,3.57,3.57,0,0,1-2.74-3l-.4-3.42-.2-1.7a4.27,4.27,0,0,1,0-1,2.89,2.89,0,0,1,.38-1.1,3,3,0,0,1,1.8-1.38,3.31,3.31,0,0,1,1.11-.08l.85.05a469.84,469.84,0,0,0,54.64.41q6.83-.27,13.64-.77t13.64-1.06l6.81-.68,3.4-.39,1.7-.19.85-.1a2.64,2.64,0,0,1,.93,0,2.59,2.59,0,0,1,2.17,2.66l0,3.42,0,1.71a9.36,9.36,0,0,1-.09,1.74A2.92,2.92,0,0,1,261,352.94Zm0-.2a2.67,2.67,0,0,0,2.26-2.08,9.3,9.3,0,0,0,.05-1.68l0-1.71,0-3.42a2.14,2.14,0,0,0-1.82-2.17,6.3,6.3,0,0,0-1.62.16l-1.69.26-3.39.54-6.79,1c-4.53.61-9.07,1.19-13.62,1.65s-9.11.82-13.68,1.12a384.9,384.9,0,0,1-54.86-.81l-.85-.07a1.85,1.85,0,0,0-.59,0,1.42,1.42,0,0,0-.85.65,1.17,1.17,0,0,0-.19.51,2.65,2.65,0,0,0,0,.66l.17,1.7.37,3.39a2.09,2.09,0,0,0,1.59,1.77,1.54,1.54,0,0,0,.31.05l.42,0,.85,0,1.71.1,3.41.21L179,355c9.11.42,18.23.66,27.35.67A423,423,0,0,0,261,352.74Z"/>
        </g>
        <g>
          <path class="a2082fe2-d3af-4977-aa56-bf2cd802eab7" d="M245.05,356a57.85,57.85,0,0,0,3.57,9.5,52.87,52.87,0,0,0,5.09,8.63,51.81,51.81,0,0,0,6.54,7.58c1.17,1.21,2.49,2.26,3.77,3.36.62.59,1.33,1,2,1.57s1.35,1,2,1.57c-.78-.35-1.56-.72-2.33-1.1a20.65,20.65,0,0,1-2.27-1.23,34.89,34.89,0,0,1-4.24-3,36.69,36.69,0,0,1-3.84-3.54c-.62-.61-1.13-1.32-1.7-2l-.83-1c-.27-.34-.51-.7-.77-1.06-.48-.72-1-1.42-1.45-2.17l-1.31-2.26-1.14-2.34c-.38-.79-.67-1.61-1-2.41A31.79,31.79,0,0,1,245.05,356Z"/>
          <path class="a2082fe2-d3af-4977-aa56-bf2cd802eab7" d="M258.85,367.5c4.56,1.21,9,2.69,13.47,4.27s8.82,3.33,13.15,5.18,8.6,3.88,12.74,6.18a67.18,67.18,0,0,1,6.06,3.7,19.17,19.17,0,0,1,5.2,4.83,23.41,23.41,0,0,0-5.72-4c-2-1.13-4.14-2.15-6.25-3.15q-6.35-3-12.82-5.73l-12.93-5.57C267.44,371.36,263.13,369.49,258.85,367.5Z"/>
          <path class="a2082fe2-d3af-4977-aa56-bf2cd802eab7" d="M260,354.84c1.75,1,3.36,2.05,5,3.1l4.84,3.18c3.22,2.12,6.44,4.17,9.73,6.38a23.6,23.6,0,0,1-5.64-1.85,38,38,0,0,1-5.19-2.86,40.89,40.89,0,0,1-4.69-3.61A30.24,30.24,0,0,1,260,354.84Z"/>
          <path class="a2082fe2-d3af-4977-aa56-bf2cd802eab7" d="M223.19,359.44c.58,1.81,1.05,3.58,1.52,5.36s.93,3.53,1.43,5.26,1,3.47,1.63,5.15a28.71,28.71,0,0,0,2.32,4.94,12.13,12.13,0,0,1-3.73-4.28,23.75,23.75,0,0,1-2.15-5.26,30.88,30.88,0,0,1-1-5.54A24.65,24.65,0,0,1,223.19,359.44Z"/>
          <path class="a2082fe2-d3af-4977-aa56-bf2cd802eab7" d="M212.84,359.44a25.23,25.23,0,0,1,.9,5.37,32.84,32.84,0,0,1-.08,5.43,22.34,22.34,0,0,1-1.17,5.37,8.65,8.65,0,0,1-3.1,4.54,14.88,14.88,0,0,0,1.6-4.95c.3-1.7.51-3.42.68-5.16l.51-5.26C212.35,363,212.53,361.25,212.84,359.44Z"/>
          <path class="a2082fe2-d3af-4977-aa56-bf2cd802eab7" d="M189.83,376.7c-.18,2.87-.27,5.7-.28,8.51a80.38,80.38,0,0,0,.41,8.38,52.78,52.78,0,0,0,1.59,8.18,40.28,40.28,0,0,0,3.37,7.71,21.81,21.81,0,0,1-4.84-7.19,33.65,33.65,0,0,1-2.1-8.48,42.68,42.68,0,0,1,0-8.68A35.66,35.66,0,0,1,189.83,376.7Z"/>
          <path class="a2082fe2-d3af-4977-aa56-bf2cd802eab7" d="M169.12,358.29c-1.74,2.65-3.32,5.35-4.77,8.1a83.9,83.9,0,0,0-3.92,8.45,74.73,74.73,0,0,0-3,8.8c-.89,3-1.44,6.05-2.11,9.17a39,39,0,0,1,.59-9.52,47.12,47.12,0,0,1,1.08-4.67c.22-.77.5-1.52.75-2.28s.53-1.51.84-2.25c.59-1.48,1.29-2.93,2-4.36s1.53-2.8,2.43-4.13A36.29,36.29,0,0,1,169.12,358.29Z"/>
          <path class="a2082fe2-d3af-4977-aa56-bf2cd802eab7" d="M154.17,427.32a31,31,0,0,1,.78,6.44,37.23,37.23,0,0,1-.4,6.49,24.05,24.05,0,0,1-1.8,6.33,13.71,13.71,0,0,1-1.73,2.86,7.13,7.13,0,0,1-2.6,2,13,13,0,0,0,2.87-5.45,30.73,30.73,0,0,0,.74-3c.22-1,.41-2,.55-3.08.34-2.06.56-4.15.81-6.25S153.86,429.47,154.17,427.32Z"/>
          <path class="a2082fe2-d3af-4977-aa56-bf2cd802eab7" d="M262.31,327.23a37.13,37.13,0,0,1-10.63,4.41,79.24,79.24,0,0,1-11.31,2.19c-1.9.25-3.81.39-5.72.55s-3.83.2-5.74.24-3.83,0-5.74-.07-3.83-.22-5.73-.41c1.9-.25,3.8-.41,5.7-.57s3.79-.37,5.68-.51c3.78-.39,7.56-.71,11.3-1.21s7.5-1,11.21-1.72A67.05,67.05,0,0,0,262.31,327.23Z"/>
          <path class="a2082fe2-d3af-4977-aa56-bf2cd802eab7" d="M262.31,331.83a37.13,37.13,0,0,1-10.63,4.41,79.24,79.24,0,0,1-11.31,2.19c-1.9.25-3.81.39-5.72.56s-3.83.19-5.74.23-3.83,0-5.74-.07-3.83-.22-5.73-.41c1.9-.25,3.8-.41,5.7-.57s3.79-.37,5.68-.51c3.78-.39,7.56-.71,11.3-1.21s7.5-1,11.21-1.72A66.06,66.06,0,0,0,262.31,331.83Z"/>
          <path class="a2082fe2-d3af-4977-aa56-bf2cd802eab7" d="M258.74,303.13c-7.31,2.72-15.11,3.92-22.84,4.78a209.16,209.16,0,0,1-23.34,1.14c-3.89,0-7.78-.15-11.68-.25s-7.77-.44-11.65-.72-7.74-.73-11.61-1.16-7.71-1-11.55-1.6c3.89.14,7.76.42,11.64.63l11.62.57c3.88.1,7.75.3,11.62.39s7.74.21,11.61.14c7.75.08,15.49-.18,23.21-.69,3.86-.25,7.71-.64,11.55-1.1A83.79,83.79,0,0,0,258.74,303.13Z"/>
          <path class="a2082fe2-d3af-4977-aa56-bf2cd802eab7" d="M262.19,307.73c-7.31,2.72-15.1,3.92-22.83,4.78A209.46,209.46,0,0,1,216,313.65c-3.89,0-7.78-.15-11.67-.25s-7.78-.43-11.66-.72-7.74-.73-11.61-1.16-7.71-1-11.55-1.6c3.89.15,7.76.42,11.64.63l11.62.57c3.88.1,7.75.3,11.62.39s7.74.21,11.62.15c7.74.07,15.48-.19,23.2-.7,3.86-.25,7.71-.63,11.55-1.1A83.79,83.79,0,0,0,262.19,307.73Z"/>
        </g>
        <path class="a0350df2-4fda-45ca-a8ce-edbb43761b57" d="M196.05,333.49c1,5.65-1.43,10.54-5.53,10.93s-8.25-3.88-9.29-9.53,3.36-3.23,7.45-3.62S195,327.84,196.05,333.49Z"/>
        <path class="a0350df2-4fda-45ca-a8ce-edbb43761b57" d="M174.81,337.66c7.44,2.77,12.31,8.16,10.87,12s-8.64,4.76-16.09,2-2.4-5.08-1-8.95S167.37,334.89,174.81,337.66Z"/>
        <path class="a0350df2-4fda-45ca-a8ce-edbb43761b57" d="M212.2,346.61c-6.68,4.29-13.91,4.95-16.14,1.48s1.38-9.77,8.06-14.06,5.51,1.12,7.74,4.6S218.88,342.32,212.2,346.61Z"/>
        <path class="a0350df2-4fda-45ca-a8ce-edbb43761b57" d="M174.68,362.7c4-6.86,10.13-10.74,13.7-8.66s3.22,9.33-.78,16.19-5.42,1.51-9-.57S170.68,369.57,174.68,362.7Z"/>
        <path class="a0350df2-4fda-45ca-a8ce-edbb43761b57" d="M196.61,366.77c-4.32-5.06-5.29-11.33-2.15-14S203.65,352,208,357s-.79,5.12-3.93,7.8S200.94,371.82,196.61,366.77Z"/>
        <circle class="a41c0065-0e8a-498d-97e1-98742bb5974e" cx="189.83" cy="349.09" r="8.05"/>
        <g>
          <path class="a0af8561-04eb-464f-98fc-a1de8a79b70e" d="M187.53,334.57a7.13,7.13,0,0,1,2.3,7.43"/>
          <path class="fa802287-3a4e-4c61-bd0b-25c62bf00fd5" d="M187.53,334.57a3.59,3.59,0,0,1,2,1.09,4.75,4.75,0,0,1,1.17,2,4.85,4.85,0,0,1,.12,2.3,4.06,4.06,0,0,1-1,2c-.27-.76-.39-1.41-.56-2s-.32-1.18-.47-1.74-.35-1.12-.56-1.71Z"/>
        </g>
        <g>
          <path class="a0af8561-04eb-464f-98fc-a1de8a79b70e" d="M172,347.05s4.32-2.28,10.57.86"/>
          <path class="fa802287-3a4e-4c61-bd0b-25c62bf00fd5" d="M172,347.05a5.2,5.2,0,0,1,2.54-1.49,8,8,0,0,1,2.93-.23,8.21,8.21,0,0,1,2.8.81,6.7,6.7,0,0,1,2.3,1.77,27.47,27.47,0,0,1-2.76-.27c-.87-.13-1.71-.22-2.55-.33s-1.67-.15-2.53-.19S173,347,172,347.05Z"/>
        </g>
        <g>
          <path class="a0af8561-04eb-464f-98fc-a1de8a79b70e" d="M197.66,345.91s2.92-3.91,9.92-3.76"/>
          <path class="fa802287-3a4e-4c61-bd0b-25c62bf00fd5" d="M197.66,345.91a5.19,5.19,0,0,1,1.65-2.43,8,8,0,0,1,2.55-1.47,8.61,8.61,0,0,1,2.88-.47,6.88,6.88,0,0,1,2.84.61,27.26,27.26,0,0,1-2.62,1c-.84.25-1.64.53-2.44.79s-1.57.58-2.37.91S198.55,345.48,197.66,345.91Z"/>
        </g>
        <g>
          <path class="a0af8561-04eb-464f-98fc-a1de8a79b70e" d="M196.27,354.33a7.53,7.53,0,0,0,6.67,6"/>
          <path class="fa802287-3a4e-4c61-bd0b-25c62bf00fd5" d="M196.27,354.33a28.27,28.27,0,0,0,3,3.37,13.45,13.45,0,0,0,1.65,1.29c.59.45,1.27.8,2,1.33a4.5,4.5,0,0,1-2.62.12,5.24,5.24,0,0,1-2.38-1.26,5.51,5.51,0,0,1-1.5-2.23A4.42,4.42,0,0,1,196.27,354.33Z"/>
        </g>
        <g>
          <path class="a0af8561-04eb-464f-98fc-a1de8a79b70e" d="M185.73,356.07s1.22,4.72-3.27,10.08"/>
          <path class="fa802287-3a4e-4c61-bd0b-25c62bf00fd5" d="M185.73,356.07a5.1,5.1,0,0,1,.86,2.8,8.2,8.2,0,0,1-.44,2.91,8.4,8.4,0,0,1-1.44,2.54,6.8,6.8,0,0,1-2.25,1.83,27.79,27.79,0,0,1,.9-2.63c.32-.81.6-1.61.9-2.4s.53-1.59.77-2.42S185.5,357,185.73,356.07Z"/>
        </g>
        <g>
          <path class="b5b4d7ad-21d0-4245-bb8e-e99d4e8c7128" d="M234.7,246.7s8.05,10.36-10.36,21.86c0,0,19.56,4.6,18.41,25.31C258.85,292.72,280.71,259.36,234.7,246.7Z"/>
          <path class="fa802287-3a4e-4c61-bd0b-25c62bf00fd5" d="M234.7,246.7a10.52,10.52,0,0,1,1.94,6.45,13.23,13.23,0,0,1-2.06,6.53,21.46,21.46,0,0,1-2,2.82c-.79.84-1.57,1.69-2.41,2.47s-1.74,1.51-2.65,2.19l-2.81,2-.21-1.26a28.59,28.59,0,0,1,8,3.51,24.41,24.41,0,0,1,6.47,5.9l.67.88c.23.29.39.63.59.94.36.64.78,1.26,1.09,1.93l.88,2a15.29,15.29,0,0,1,.65,2.12,25.49,25.49,0,0,1,.79,4.34,16,16,0,0,1,.09,2.19v2.2l-1-1a17.27,17.27,0,0,0,7.86-3A24.81,24.81,0,0,0,256.8,284a24.42,24.42,0,0,0,3.91-7.67,17.77,17.77,0,0,0-3.31-16.24,29.75,29.75,0,0,0-6.48-5.92A62.59,62.59,0,0,0,234.7,246.7Zm0,0a58.21,58.21,0,0,1,16.79,6.59,30.35,30.35,0,0,1,7,5.92,19.78,19.78,0,0,1,4.2,8.26,19.5,19.5,0,0,1-.22,9.33,25.07,25.07,0,0,1-4.1,8.34,26.86,26.86,0,0,1-6.72,6.43,18.62,18.62,0,0,1-8.81,3.28l-1,.1v-3.19a14,14,0,0,0-.07-2.05,23.66,23.66,0,0,0-.71-4l-.26-1a4.79,4.79,0,0,0-.32-1l-.77-1.88c-.27-.63-.65-1.19-1-1.79-.18-.29-.32-.6-.52-.87l-.61-.82a23.63,23.63,0,0,0-5.92-5.62,27.68,27.68,0,0,0-7.43-3.53l-1.47-.43L224,268l2.79-1.83c.92-.63,1.77-1.35,2.65-2s1.63-1.5,2.42-2.27a22.4,22.4,0,0,0,2.06-2.6,12.59,12.59,0,0,0,2.3-6.13A10.7,10.7,0,0,0,234.7,246.7Z"/>
        </g>
        <g>
          <circle class="a0af8561-04eb-464f-98fc-a1de8a79b70e" cx="220.89" cy="278.92" r="11.5"/>
          <path class="fa802287-3a4e-4c61-bd0b-25c62bf00fd5" d="M232.4,278.92a12,12,0,0,1-11.51,12,12,12,0,0,1-11.51-7.23,12,12,0,0,1,0-9.54,12,12,0,0,1,11.52-7.24,12,12,0,0,1,11.51,12Zm0,0a11.58,11.58,0,0,0-.92-4.39,10.95,10.95,0,0,0-10.59-6.62,11,11,0,0,0,0,22,10.95,10.95,0,0,0,10.59-6.62A11.57,11.57,0,0,0,232.4,278.92Z"/>
        </g>
        <circle class="b075f48c-8d8c-4fad-b6dc-9a0405e763c5" cx="225.49" cy="275.46" r="3.45"/>
        <circle class="b075f48c-8d8c-4fad-b6dc-9a0405e763c5" cx="191.77" cy="347.49" r="3.45"/>
        <path class="aaeb378c-430c-4d44-bcde-0e696ef2ce43" d="M181.42,408.55a13.44,13.44,0,0,0-6.58-.91,29.51,29.51,0,0,0-16.55,6.45,13.86,13.86,0,0,0-3.81,4.42,6.71,6.71,0,0,0-.37,5.58,7.83,7.83,0,0,0,5.18,4,24.62,24.62,0,0,0,6.86.62l9,0c-1.13,2.88-4,5-4.72,8-1,4,2.23,8.08,6.25,9.55s8.54.92,12.74,0a21.75,21.75,0,0,0,7.86-3c2.3-1.59,4.05-4.12,4-6.82,0-1.39-.54-2.77-.28-4.13a5.76,5.76,0,0,1,3.77-3.9,27.49,27.49,0,0,1,5.66-1.17,24.84,24.84,0,0,0,10.74-4.15c1.69-1.24,3.27-3.29,2.42-5.15a4.75,4.75,0,0,0-1.76-1.8,17.35,17.35,0,0,0-6.49-2.6c-2.18-.38-4.88-.64-5.74-2.59a8.48,8.48,0,0,1-.27-3.11c-.15-3.69-3.66-6.71-7.48-7.42-2.55-.48-5.77.29-6.51,2.66-.59,1.88.67,4-.16,5.83a4,4,0,0,1-4.18,1.91,8.75,8.75,0,0,1-4.34-2.18,6.53,6.53,0,0,0-2.48-1.55c-1-.24-2.2.21-2.37,1.15"/>
        <path class="aaeb378c-430c-4d44-bcde-0e696ef2ce43" d="M292.44,379.43a10.83,10.83,0,0,0-4.32,1.44,22.4,22.4,0,0,0-8.67,8.28,8.7,8.7,0,0,0-1.26,3.47,3.45,3.45,0,0,0,1.17,3.08,5.35,5.35,0,0,0,4.23.63,19.61,19.61,0,0,0,4.42-1.68l5.57-2.64c0,1.87-1.2,3.84-.92,5.66.37,2.41,3.41,3.65,6.28,3.26s5.54-2,7.91-3.74a16.79,16.79,0,0,0,4.14-3.9c1-1.52,1.48-3.38.75-4.8a9.68,9.68,0,0,1-1.21-2.11,3.67,3.67,0,0,1,1.37-3.18,20.82,20.82,0,0,1,3.23-2.28,19.1,19.1,0,0,0,5.63-5.35c.74-1.16,1.21-2.71.21-3.46a3.09,3.09,0,0,0-1.54-.44,13,13,0,0,0-4.69.52c-1.45.43-3.2,1.08-4.22.3a4.43,4.43,0,0,1-.94-1.58c-1-1.93-4-2.51-6.51-1.77-1.71.49-3.52,1.85-3.38,3.32.1,1.18,1.42,2,1.36,3.15a3,3,0,0,1-2.12,2.25,6.65,6.65,0,0,1-3.25.11,4.59,4.59,0,0,0-1.92-.11c-.66.16-1.32.76-1.19,1.31"/>
        <path class="aaeb378c-430c-4d44-bcde-0e696ef2ce43" d="M157,269.11a12,12,0,0,0-4.07,1.56,8.24,8.24,0,0,0-3.16,3.58,5.28,5.28,0,0,0,.14,4.54,9.63,9.63,0,0,0,2.72,2.89l4,3.21c-2.06,1.51-4.47,1.91-6.42,3.63a8.2,8.2,0,0,0-2.36,8.6c1,2.43,3.31,3.69,5.68,4.58a10.59,10.59,0,0,0,5.12.83,8.41,8.41,0,0,0,5.44-3.1,26,26,0,0,1,2.09-2.84,4.55,4.55,0,0,1,3.78-1.23,11.41,11.41,0,0,1,3.15,1.26,12,12,0,0,0,7,1.12c1.42-.22,3.23-1,3.85-2.55a3.55,3.55,0,0,0,.18-1.83,8.26,8.26,0,0,0-1.49-4.07"/>
        <path class="aaeb378c-430c-4d44-bcde-0e696ef2ce43" d="M266.28,587.48a9.53,9.53,0,0,0,1.83-3.15,6.23,6.23,0,0,0,.07-3.91,4.5,4.5,0,0,0-2.71-2.75,9.15,9.15,0,0,0-3.49-.33l-4.55.16c.51-2,1.9-3.58,2.22-5.69a6.54,6.54,0,0,0-3.37-6.6c-2.07-1-4.35-.51-6.46.21a9.44,9.44,0,0,0-3.92,2.23,6.64,6.64,0,0,0-1.87,4.84,17.68,17.68,0,0,1,.23,2.89,3.69,3.69,0,0,1-1.83,2.78,10.3,10.3,0,0,1-2.85.91,10.93,10.93,0,0,0-5.35,3.07,3.83,3.83,0,0,0-1.12,3.65A3,3,0,0,0,234,587a7.47,7.47,0,0,0,3.35,1.72"/>
        <g>
          <path class="b5b4d7ad-21d0-4245-bb8e-e99d4e8c7128" d="M181.78,246.7s-4.6,16.11,34.51,21.86c0,0-20.71,18.41-15,31.06,0,0-39.11-1.15-41.41-23C159.92,276.62,156.47,255.91,181.78,246.7Z"/>
          <path class="fa802287-3a4e-4c61-bd0b-25c62bf00fd5" d="M181.78,246.7a9.56,9.56,0,0,0,.78,5.41,12.8,12.8,0,0,0,1.39,2.37,13.51,13.51,0,0,0,1.77,2.09,30.74,30.74,0,0,0,9.26,5.85,67.52,67.52,0,0,0,10.53,3.35l2.7.6,1.35.31,1.37.22,5.47.89L218,268l-1.17,1.11a84.8,84.8,0,0,0-6.17,6.53,58.89,58.89,0,0,0-5.28,7.23,30.48,30.48,0,0,0-3.58,8,12.66,12.66,0,0,0,.44,8.28l.66,1.44-1.57-.06a79.9,79.9,0,0,1-11.48-1.32,73.41,73.41,0,0,1-11.17-2.92,42.54,42.54,0,0,1-10.41-5.18,27.19,27.19,0,0,1-4.41-3.9,18.43,18.43,0,0,1-4.66-10.73,23.41,23.41,0,0,1,.17-5.86,26.83,26.83,0,0,1,4-10.85,29.1,29.1,0,0,1,8.14-8.11c.81-.51,1.56-1.12,2.42-1.55l2.54-1.32a19.09,19.09,0,0,1,2.67-1.13C180.05,247.39,180.92,247.05,181.78,246.7Zm0,0c-.9.39-1.78.79-2.64,1.19a22.56,22.56,0,0,0-2.51,1.25l-2.46,1.42a26.72,26.72,0,0,0-2.32,1.62,28.73,28.73,0,0,0-7.61,8.2,25.67,25.67,0,0,0-3.59,10.48,22.58,22.58,0,0,0,0,5.51,18.28,18.28,0,0,0,1.47,5.25,19.82,19.82,0,0,0,3,4.52,25.6,25.6,0,0,0,4.15,3.61,41,41,0,0,0,10,4.86,84.8,84.8,0,0,0,22.1,4l-.92,1.38a14.47,14.47,0,0,1-.47-9.55,31.38,31.38,0,0,1,3.86-8.51,59,59,0,0,1,5.5-7.41,66.64,66.64,0,0,1,6.44-6.58l.41,1.36-5.52-1-1.38-.26-1.36-.34-2.73-.68a68.11,68.11,0,0,1-10.62-3.69,30.9,30.9,0,0,1-9.24-6.39,14.3,14.3,0,0,1-1.74-2.22,14.46,14.46,0,0,1-1.32-2.49A9.79,9.79,0,0,1,181.78,246.7Z"/>
        </g>
        <g>
          <path class="b048faea-6baf-4d46-904b-4840b960241c" d="M189.5,401.74a169.29,169.29,0,0,0-16.13-14.14"/>
          <path class="b048faea-6baf-4d46-904b-4840b960241c" d="M186.89,404.36a169.92,169.92,0,0,0-15.78-13.83"/>
          <path class="b048faea-6baf-4d46-904b-4840b960241c" d="M166.58,396.4a162,162,0,0,1,15.09,13.22"/>
          <path class="b048faea-6baf-4d46-904b-4840b960241c" d="M184.28,407a165.25,165.25,0,0,0-15.44-13.52"/>
          <path class="b048faea-6baf-4d46-904b-4840b960241c" d="M164.32,399.34a158.53,158.53,0,0,1,14.74,12.91"/>
        </g>
        <g>
          <path class="b048faea-6baf-4d46-904b-4840b960241c" d="M183.05,413.88a53.19,53.19,0,0,1,10.25-15.14"/>
          <path class="b048faea-6baf-4d46-904b-4840b960241c" d="M179.67,412.36a57.32,57.32,0,0,1,11-16.2"/>
          <path class="b048faea-6baf-4d46-904b-4840b960241c" d="M185.3,391a64.26,64.26,0,0,0-12.39,18.31"/>
          <path class="b048faea-6baf-4d46-904b-4840b960241c" d="M176.29,410.84A60.75,60.75,0,0,1,188,393.59"/>
          <path class="b048faea-6baf-4d46-904b-4840b960241c" d="M182.64,388.44a68,68,0,0,0-13.11,19.37"/>
        </g>
        <g>
          <path class="b048faea-6baf-4d46-904b-4840b960241c" d="M257.26,315.17a123.34,123.34,0,0,0-21.12-13.25"/>
          <path class="b048faea-6baf-4d46-904b-4840b960241c" d="M255,318.09a119.75,119.75,0,0,0-20.48-12.85"/>
          <path class="b048faea-6baf-4d46-904b-4840b960241c" d="M231.21,311.88a112.33,112.33,0,0,1,19.22,12.06"/>
          <path class="b048faea-6baf-4d46-904b-4840b960241c" d="M252.7,321a115.68,115.68,0,0,0-19.85-12.46"/>
          <path class="b048faea-6baf-4d46-904b-4840b960241c" d="M229.57,315.21a108.08,108.08,0,0,1,18.58,11.65"/>
        </g>
        <g>
          <path class="b048faea-6baf-4d46-904b-4840b960241c" d="M246.57,334a143.36,143.36,0,0,1,13.26-22"/>
          <path class="b048faea-6baf-4d46-904b-4840b960241c" d="M243.24,332.39a146.61,146.61,0,0,1,13.6-22.58"/>
          <path class="b048faea-6baf-4d46-904b-4840b960241c" d="M250.85,305.44a154.93,154.93,0,0,0-14.28,23.71"/>
          <path class="b048faea-6baf-4d46-904b-4840b960241c" d="M239.9,330.77a152.26,152.26,0,0,1,13.94-23.15"/>
          <path class="b048faea-6baf-4d46-904b-4840b960241c" d="M247.86,303.25a159,159,0,0,0-14.62,24.28"/>
        </g>
        <g>
          <line class="b048faea-6baf-4d46-904b-4840b960241c" x1="165.5" y1="304.17" x2="149.87" y2="282.04"/>
          <line class="b048faea-6baf-4d46-904b-4840b960241c" x1="162.47" y1="306.31" x2="146.84" y2="284.18"/>
          <line class="b048faea-6baf-4d46-904b-4840b960241c" x1="140.79" y1="288.45" x2="156.42" y2="310.58"/>
          <line class="b048faea-6baf-4d46-904b-4840b960241c" x1="159.45" y1="308.44" x2="143.81" y2="286.32"/>
          <line class="b048faea-6baf-4d46-904b-4840b960241c" x1="137.76" y1="290.59" x2="153.39" y2="312.72"/>
        </g>
        <g>
          <path class="b048faea-6baf-4d46-904b-4840b960241c" d="M144.89,310.87q9-10.5,18.62-20.4"/>
          <path class="b048faea-6baf-4d46-904b-4840b960241c" d="M142.07,308.47q9-10.61,18.79-20.58"/>
          <path class="b048faea-6baf-4d46-904b-4840b960241c" d="M155.55,282.71q-9.9,10.16-19.11,20.94"/>
          <path class="b048faea-6baf-4d46-904b-4840b960241c" d="M139.25,306.06q9.13-10.69,18.95-20.76"/>
          <path class="b048faea-6baf-4d46-904b-4840b960241c" d="M152.9,280.12q-10,10.25-19.28,21.13"/>
        </g>
        <g>
          <path class="b048faea-6baf-4d46-904b-4840b960241c" d="M351.63,406.69a137.48,137.48,0,0,0-18.49-19.11"/>
          <path class="b048faea-6baf-4d46-904b-4840b960241c" d="M348.73,409a133.34,133.34,0,0,0-18-18.58"/>
          <path class="b048faea-6baf-4d46-904b-4840b960241c" d="M325.94,396.06a125.15,125.15,0,0,1,17,17.54"/>
          <path class="b048faea-6baf-4d46-904b-4840b960241c" d="M345.82,411.3a129.27,129.27,0,0,0-17.48-18.07"/>
          <path class="b048faea-6baf-4d46-904b-4840b960241c" d="M323.54,398.88a121.71,121.71,0,0,1,16.48,17"/>
        </g>
        <g>
          <path class="b048faea-6baf-4d46-904b-4840b960241c" d="M347.16,389.74A128.24,128.24,0,0,0,323.75,403"/>
          <path class="b048faea-6baf-4d46-904b-4840b960241c" d="M348.63,393.14A124.73,124.73,0,0,0,325.9,406"/>
          <path class="b048faea-6baf-4d46-904b-4840b960241c" d="M330.2,412a116.46,116.46,0,0,1,21.39-12.09"/>
          <path class="b048faea-6baf-4d46-904b-4840b960241c" d="M350.11,396.54A121.35,121.35,0,0,0,328.05,409"/>
          <path class="b048faea-6baf-4d46-904b-4840b960241c" d="M332.36,415a113.45,113.45,0,0,1,20.7-11.7"/>
        </g>
        <ellipse class="a0350df2-4fda-45ca-a8ce-edbb43761b57" cx="365.24" cy="516.93" rx="15.45" ry="7.17" transform="translate(-234.76 315.38) rotate(-36.19)"/>
        <ellipse class="a0350df2-4fda-45ca-a8ce-edbb43761b57" cx="333" cy="524.39" rx="7.08" ry="16.31" transform="translate(-256.6 719.97) rotate(-75.94)"/>
        <ellipse class="a2874ce8-ff2c-431c-bf48-7daabf54219c" cx="337.77" cy="525.62" rx="5.65" ry="10.92" transform="translate(-254.18 725.53) rotate(-75.94)"/>
        <ellipse class="a2874ce8-ff2c-431c-bf48-7daabf54219c" cx="360.78" cy="521.02" rx="10.92" ry="5.65" transform="translate(-231.8 296.36) rotate(-34.54)"/>
        <ellipse class="a0350df2-4fda-45ca-a8ce-edbb43761b57" cx="352.04" cy="528.55" rx="8.05" ry="6.9"/>
        <path class="a37872ff-d5ec-400c-84c6-09856d391432" d="M340,555.59c-5.75-29.91,48.89-47.74,52.34-6.33C392.3,549.26,374.47,569.39,340,555.59Z"/>
        <path class="b13b8801-fbe4-4b5f-afaa-fb8472cc51f8" d="M309.43,537.79s42.58,37,82.8,10.42c3.55-.1,3.55,14.85-1.18,16,0,0-31.94,18.4-82.81-12.66C305.88,551.56,305.88,536.61,309.43,537.79Z"/>
        <path class="aaeb378c-430c-4d44-bcde-0e696ef2ce43" d="M363.45,558.57a9.65,9.65,0,0,0,2.51-2.65,6.31,6.31,0,0,0,1-3.8,4.47,4.47,0,0,0-2-3.29c-1-.66.06-1.44-1.09-1.67-1.49-.29.89-2.21-.6-2.5,1-1.87-3.43-.88-2.64-2.87a6.56,6.56,0,0,0-1.78-7.19c-1.8-1.41-4.12-1.49-6.34-1.27a9.75,9.75,0,0,0-4.33,1.28,6.67,6.67,0,0,0-2.92,4.29c-.17,1,.42,3.33-.43,2.86s-2.13-1.2-2.42,2.3c-.08,1-2,.22-3,.24-2,0-1.05,2.31-2.9,3.55-1,.68-5.1.15-4.93,1.51a3.13,3.13,0,0,0,.62,1.41,7.56,7.56,0,0,0,2.87,2.44"/>
        <g>
          <path class="f10f6bd1-2650-4518-996e-ccbbf0e1a5d8" d="M115.42,162.13c-33.38-13.75-23,47,12,38.18C115.42,175.89,115.42,162.13,115.42,162.13Z"/>
          <g>
            <path class="ff952fe6-2390-44d9-b9b8-4f5185a4abe2" d="M118,176.09c-7.14-10.52-22.1.95,1.61,7.08,0,0-8.75,5.33.46,12.21"/>
            <path class="aa78b663-a0e6-4deb-bd34-d77318e6c87b" d="M118,176.09a11.71,11.71,0,0,0-2.72-2.59,8.55,8.55,0,0,0-3.42-1.32,5.33,5.33,0,0,0-3.44.66,2.34,2.34,0,0,0-1.11,2.78,5.83,5.83,0,0,0,2.16,2.72,19.42,19.42,0,0,0,3.18,1.88,42.13,42.13,0,0,0,7.07,2.52l1,.26-.84.54a10.17,10.17,0,0,0-2.61,2.46,5.2,5.2,0,0,0-1.05,3.32,6.93,6.93,0,0,0,1.29,3.35c.38.49.8,1,1.21,1.42l1.39,1.29-1.52-1.15c-.45-.43-.92-.88-1.34-1.35a6.74,6.74,0,0,1-1.62-3.51,5.88,5.88,0,0,1,1-3.8,9.69,9.69,0,0,1,2.78-2.78l.12.8a42.48,42.48,0,0,1-7.28-2.47,19.69,19.69,0,0,1-3.33-2,6.77,6.77,0,0,1-2.43-3.21,3.13,3.13,0,0,1,.11-2.15,3.49,3.49,0,0,1,1.45-1.54,6,6,0,0,1,3.92-.57A9.24,9.24,0,0,1,118,176.09Z"/>
          </g>
          <path class="f10f6bd1-2650-4518-996e-ccbbf0e1a5d8" d="M301.86,162.13c29.93-11.46,19.57,42.41-10.35,37.83C303.52,175.54,301.86,162.13,301.86,162.13Z"/>
          <g>
            <path class="ff952fe6-2390-44d9-b9b8-4f5185a4abe2" d="M299.56,175.89c7.14-10.51,22.56.75-1.15,6.88,0,0,6.66,5.73-2.55,12.61"/>
            <path class="aa78b663-a0e6-4deb-bd34-d77318e6c87b" d="M299.56,175.89a9.3,9.3,0,0,1,6.06-4.5,6.39,6.39,0,0,1,3.94.42,3.55,3.55,0,0,1,1.58,1.4,3,3,0,0,1,.34,2.14,6.18,6.18,0,0,1-2.34,3.3,17.63,17.63,0,0,1-3.32,2.06,41.88,41.88,0,0,1-7.3,2.48l.18-.76a7.73,7.73,0,0,1,2.09,3.35,6.49,6.49,0,0,1,0,3.9,8.63,8.63,0,0,1-2,3.27,16.4,16.4,0,0,1-2.9,2.43,19.44,19.44,0,0,0,2.64-2.65,9.15,9.15,0,0,0,1.69-3.22,5.77,5.77,0,0,0-.13-3.49,7.56,7.56,0,0,0-1.94-2.92l-.59-.55.77-.21a40.28,40.28,0,0,0,7.08-2.53,16.58,16.58,0,0,0,3.18-1.89,5.38,5.38,0,0,0,2.06-2.75,2.43,2.43,0,0,0-1.41-2.68,5.71,5.71,0,0,0-3.5-.52,8.5,8.5,0,0,0-3.42,1.32A11.41,11.41,0,0,0,299.56,175.89Z"/>
          </g>
          <path class="f10f6bd1-2650-4518-996e-ccbbf0e1a5d8" d="M303,157.55c0,51.91-48.36,90.37-81.71,91.7-57.54,2.29-107-39.79-107-91.7s42.25-94,94.37-94S303,105.64,303,157.55Z"/>
          <g class="bce70215-5840-4745-8ae3-69f3f21213c4">
            <path class="a832dd50-b9d9-451e-81d8-63a269b96bf2" d="M200.75,202.76a7,7,0,0,1,.22,3.39,8.3,8.3,0,0,1-1.24,3.22,7.36,7.36,0,0,1-2.47,2.46,6.39,6.39,0,0,1-3.26,1c.82-.82,1.62-1.45,2.27-2.22a14.52,14.52,0,0,0,1.78-2.31A35.72,35.72,0,0,0,200.75,202.76Z"/>
            <path class="a832dd50-b9d9-451e-81d8-63a269b96bf2" d="M251,201.68a33.9,33.9,0,0,0,1.33,5.91,13.45,13.45,0,0,0,1.19,2.59c.46.88,1.1,1.64,1.73,2.6a6.17,6.17,0,0,1-3-1.61,7.39,7.39,0,0,1-1.85-2.91,8.56,8.56,0,0,1-.45-3.39A6.92,6.92,0,0,1,251,201.68Z"/>
            <path class="a832dd50-b9d9-451e-81d8-63a269b96bf2" d="M251.2,207.46a17.44,17.44,0,0,1-4.89,5.31,28.24,28.24,0,0,1-6.43,3.45,40.53,40.53,0,0,1-28.62-.1A30.73,30.73,0,0,1,199.39,208a39.16,39.16,0,0,0,12.4,6.67,46.83,46.83,0,0,0,27.57.11C243.78,213.32,248.1,211.15,251.2,207.46Z"/>
          </g>
          <path class="b5eb9477-4c3f-47cc-a9ce-92b42fe564bc" d="M219,189.64a19.4,19.4,0,0,1,3-6.48,12.84,12.84,0,0,1,2.56-2.71,7,7,0,0,1,3.72-1.48,6.25,6.25,0,0,1,3.87,1.28,11.28,11.28,0,0,1,2.53,2.79,20.85,20.85,0,0,1,2.73,6.6,60.09,60.09,0,0,0-4-5.67c-1.43-1.67-3.2-3.12-5.05-3a5.29,5.29,0,0,0-2.72,1,14.53,14.53,0,0,0-2.46,2.15A48.87,48.87,0,0,0,219,189.64Z"/>
          <ellipse class="b88d230a-37fd-4bf4-8d07-dcbfef590245" cx="277.6" cy="187.43" rx="13.92" ry="17.67" transform="translate(-56.81 206.52) rotate(-37.29)"/>
          <ellipse class="b88d230a-37fd-4bf4-8d07-dcbfef590245" cx="172.87" cy="188.58" rx="17.67" ry="13.92" transform="translate(-81.89 211.84) rotate(-52.71)"/>
          <ellipse class="bfb03708-9afd-4865-9c5c-863d59cbbedf" cx="194.73" cy="157.13" rx="10.48" ry="14.9" transform="translate(-29.48 46.06) rotate(-12.55)"/>
          <ellipse class="bfb03708-9afd-4865-9c5c-863d59cbbedf" cx="255.72" cy="157.13" rx="14.9" ry="10.48" transform="translate(41.17 367.01) rotate(-75.94)"/>
          <g class="bce70215-5840-4745-8ae3-69f3f21213c4">
            <path class="a832dd50-b9d9-451e-81d8-63a269b96bf2" d="M219,226.32a9.86,9.86,0,0,0,3.66,1.78,11,11,0,0,0,3.84.21,24.67,24.67,0,0,0,3.94-.77c.65-.23,1.33-.4,2-.61a20.47,20.47,0,0,1,2.09-.61,19.46,19.46,0,0,1-1.65,1.49c-.59.42-1.23.81-1.87,1.18a12.11,12.11,0,0,1-4.33,1.31,8.54,8.54,0,0,1-4.58-.74A6,6,0,0,1,219,226.32Z"/>
          </g>
          <ellipse class="b5a6b220-1dee-4967-a032-0d7c80240b0d" cx="196.79" cy="149.76" rx="3.98" ry="5.72" transform="translate(-41.6 84.01) rotate(-21.85)"/>
          <ellipse class="b5a6b220-1dee-4967-a032-0d7c80240b0d" cx="260.19" cy="149.76" rx="3.98" ry="5.72" transform="translate(-37.05 107.61) rotate(-21.85)"/>
          <g>
            <path class="b5eb9477-4c3f-47cc-a9ce-92b42fe564bc" d="M192.39,129.24a14.52,14.52,0,0,0-2.66-.05,17.49,17.49,0,0,0-2.76.4,17,17,0,0,0-5.22,2.11,9.52,9.52,0,0,0-1.19.8,9.62,9.62,0,0,0-1.14.88l-1.08,1-1,1.09a22.87,22.87,0,0,0-1.78,2.34c-.53.83-1,1.71-1.48,2.58.39-.92.72-1.86,1.16-2.76a22.71,22.71,0,0,1,1.5-2.62l.87-1.25,1-1.15a10.21,10.21,0,0,1,1.08-1.1,11.31,11.31,0,0,1,1.17-1,19,19,0,0,1,5.44-3,21,21,0,0,1,3.06-.85,17.58,17.58,0,0,1,3.27-.33Z"/>
            <path class="b5eb9477-4c3f-47cc-a9ce-92b42fe564bc" d="M254.54,126.25a17.77,17.77,0,0,1,3.28.33,21.19,21.19,0,0,1,3.05.85,19.16,19.16,0,0,1,5.45,3,12.34,12.34,0,0,1,1.16,1,9.44,9.44,0,0,1,1.09,1.1l1,1.15.86,1.25a22.78,22.78,0,0,1,1.51,2.62c.43.9.77,1.84,1.15,2.76-.5-.87-.94-1.75-1.48-2.58a21.43,21.43,0,0,0-1.77-2.34l-1-1.09-1.08-1a8.77,8.77,0,0,0-1.13-.88,10.31,10.31,0,0,0-1.19-.8,17.65,17.65,0,0,0-8-2.51,14.52,14.52,0,0,0-2.66.05Z"/>
          </g>
        </g>
        <g>
          <path class="fbd2c1d9-14d9-4352-b62a-2a8e5be19a93" d="M335.24,116.94c1.17-9.74,15.19-6.09,10.52-18.25S323.55,95,318.87,86.52s8.19-20.68,0-26.76-14,6.08-18.7,2.43S299,43.94,290.82,41.51s-14,9.73-21,6.08,1.17-12.16-7-15.81-21,10.95-25.71,8.51-1.17-9.73-8.18-8.51c-3.34.58-8.14,12-7.93,9.72.33-3.46-13.27-17.28-24.16-4.58-6.23,7.26-5.33-13.18-15.38-13.18S176.94,37.49,168,38.64s-23.47-13.76-31.29-9.17,0,21.78-12.3,26.36S90.89,45.52,84.18,52.39,86.42,74.17,82,78.76s-21.23-2.3-24.59,9.17,7.83,17.19,5.59,25.21-14.53,9.17-13.41,20.64,22.35,10.31,24.59,16-12.3,8-5.59,18.34,22.35,2.3,22.35,2.3-1.12-14.91,13.41-16.05,14.53,13.75,14.53,13.75S130,159,128.88,151s-6.7-17.19,0-22.92,13.41,2.29,17.88-2.3-6.7-18.34,3.36-24.07,16.76,3.44,21.23,0,2.23-19.48,11.17-20.63,7.83,2.29,12.3,0,1.11-5.73,6.7-6.88,7.82,5.73,14.53,3.44a9.57,9.57,0,0,0,4.53-3.8c1.13,2.49,2.72,4.87,4.79,5.41,4.68,1.22,5.85-4.86,8.19-4.86s1.16,4.86,5.84,4.86,7-6.08,12.86-2.43-2.34,10.95,3.5,14.6,10.52-2.43,14,2.43-2.34,8.52,2.33,14.6,14,4.87,16.37,11-7,6.08-3.51,12.17,12.86,4.86,12.86,9.73-2,4.58-5.85,9.73c-7.51,10,4.49,21,8.18,18.25,0,0,1-20.47,15.16-13.12,9.65,5,5.2,16.32,6.9,19.48,1.5,2.79,1.32,4.59,6,.94s1.17-17,1.17-17,2.34,4.86,9.35,4.86,11.69-8.51,11.69-21.9S334.07,126.67,335.24,116.94Z"/>
          <path class="e5580931-a0b8-4c6a-b114-af61a2a94a51" d="M116.57,236.49a15.41,15.41,0,0,0,9.94,8.33,11.36,11.36,0,0,1,3.38,1.46,6.05,6.05,0,0,1,2.25,3.27c.67,2.51.31,4.85.72,6.91a6.51,6.51,0,0,0,6.28,5.35,8.68,8.68,0,0,0,3-.65c2-.79,4-2.13,6.27-2.86a9.42,9.42,0,0,1,3.54-.43,5,5,0,0,1,3.16,1.42,4.93,4.93,0,0,0-3.18-.86,9.07,9.07,0,0,0-3.19.79c-2,.86-3.79,2.35-6,3.37a9.21,9.21,0,0,1-3.6,1,8,8,0,0,1-3.77-.79,8.5,8.5,0,0,1-3-2.41,9,9,0,0,1-1-1.69,9.52,9.52,0,0,1-.54-1.86c-.4-2.47-.07-4.8-.57-6.76a4.18,4.18,0,0,0-1.47-2.36,11.3,11.3,0,0,0-2.85-1.4,16,16,0,0,1-3.22-1.53,14.66,14.66,0,0,1-2.77-2.25A13.92,13.92,0,0,1,116.57,236.49Z"/>
          <path class="e5580931-a0b8-4c6a-b114-af61a2a94a51" d="M160.46,32.26A52.51,52.51,0,0,1,173,25.83a22.18,22.18,0,0,1,14.33-.06,16.15,16.15,0,0,1,3.3,1.71,19,19,0,0,1,2.8,2.36c1.66,1.67,3.21,3.25,5.22,3.93a4.87,4.87,0,0,0,3,.12c.94-.26,1.89-1.17,3.25-1.4a4.62,4.62,0,0,1,3.56,1,12.91,12.91,0,0,1,2.44,2.57A15.36,15.36,0,0,0,208.14,34a3.92,3.92,0,0,0-3-.55c-1,.23-1.75,1.12-3,1.66a6,6,0,0,1-3.89.16,9.55,9.55,0,0,1-3.38-1.71,35.19,35.19,0,0,1-2.71-2.35,18.63,18.63,0,0,0-2.58-2.11,15,15,0,0,0-2.91-1.46,18.59,18.59,0,0,0-6.51-1.14,25.82,25.82,0,0,0-6.69.83C169,28.43,164.76,30.43,160.46,32.26Z"/>
          <path class="e5580931-a0b8-4c6a-b114-af61a2a94a51" d="M82.35,208.24a21.44,21.44,0,0,0,5,12.42,20.52,20.52,0,0,0,5,4.36,63.71,63.71,0,0,0,6,3.13,42.89,42.89,0,0,1,6.14,3.36,15.06,15.06,0,0,1,4.93,5.28,19.68,19.68,0,0,1,2,6.88c.32,2.33.42,4.64.62,6.9a24.93,24.93,0,0,0,1.17,6.48,9.65,9.65,0,0,0,3.73,4.87,27.47,27.47,0,0,0,6.12,2.54,22.74,22.74,0,0,1,3.29,1.38,11.4,11.4,0,0,1,2.93,2.25,19,19,0,0,1,3.45,6.21,35.35,35.35,0,0,0,2.68,6.22,8,8,0,0,0,4.95,4.05,6.44,6.44,0,0,0,3.29-.08,5,5,0,0,0,1.5-.74,4.41,4.41,0,0,0,1.11-1.28,4.64,4.64,0,0,1-1,1.4,5.33,5.33,0,0,1-1.5.91,7.11,7.11,0,0,1-6.75-1.12,11.53,11.53,0,0,1-2.42-2.61,36.91,36.91,0,0,1-3.07-6.25,18.25,18.25,0,0,0-3.36-5.64,13.39,13.39,0,0,0-5.65-3,29.07,29.07,0,0,1-6.58-2.61,11.43,11.43,0,0,1-4.54-5.79,26.9,26.9,0,0,1-1.34-7c-.18-2.31-.27-4.59-.55-6.8a18.57,18.57,0,0,0-1.78-6.25,13.28,13.28,0,0,0-4.27-4.75,47.51,47.51,0,0,0-5.83-3.39,56,56,0,0,1-6-3.43,20.73,20.73,0,0,1-5.08-4.85A21.06,21.06,0,0,1,82.35,208.24Z"/>
          <path class="e5580931-a0b8-4c6a-b114-af61a2a94a51" d="M66.33,248.69a15.74,15.74,0,0,0,2,4.34,15.94,15.94,0,0,0,11.46,7.1,8.48,8.48,0,0,1-5.09.22A11.13,11.13,0,0,1,70,258a11.32,11.32,0,0,1-3.1-4.21A8.36,8.36,0,0,1,66.33,248.69Z"/>
          <path class="e5580931-a0b8-4c6a-b114-af61a2a94a51" d="M286.11,307.51a14.52,14.52,0,0,0,10.23-3.8c2.67-2.48,4.38-6.13,7.81-8.63a13.94,13.94,0,0,1,5.74-2.18c2-.31,3.89-.44,5.74-.71a12.75,12.75,0,0,0,5.13-1.83,6.23,6.23,0,0,0,3.08-4.42,5.18,5.18,0,0,1-.58,2.87,8,8,0,0,1-1.91,2.34,13,13,0,0,1-5.43,2.58c-3.84.87-7.78.89-10.62,3s-4.76,5.6-7.94,8.17A13.24,13.24,0,0,1,286.11,307.51Z"/>
          <g>
            <path class="e5580931-a0b8-4c6a-b114-af61a2a94a51" d="M70.08,138.78a8.8,8.8,0,0,0,8.12-5.05,8.64,8.64,0,0,0,.77-2.35,7.14,7.14,0,0,0,0-2.44,22.78,22.78,0,0,0-1.84-4.69,9.5,9.5,0,0,1-.74-5.3,11.51,11.51,0,0,1,2.09-5,12.14,12.14,0,0,1,4-3.55,9.92,9.92,0,0,1,5.33-1.23A19.42,19.42,0,0,1,93,110.49a20.52,20.52,0,0,0,2.37.65,8.53,8.53,0,0,0,2.31.07,10,10,0,0,0,7.35-5.3,9.23,9.23,0,0,0,1.14-4.47A9.74,9.74,0,0,0,104.78,97a16.18,16.18,0,0,1-1.07-2.52,6.05,6.05,0,0,1-.18-3A5.63,5.63,0,0,1,105,88.71a8.13,8.13,0,0,1,2.48-1.61,13.55,13.55,0,0,1,5.45-.84,16.56,16.56,0,0,1,2.71.32c.92.2,1.71.43,2.54.64a31.71,31.71,0,0,0,4.89,1,12.61,12.61,0,0,0,2.38,0,7.4,7.4,0,0,0,2.17-.58,5.56,5.56,0,0,0,1.71-1.34,6.3,6.3,0,0,0,1-2,18.8,18.8,0,0,0,.58-4.85,17.61,17.61,0,0,1,.76-5.33,7.28,7.28,0,0,1,1.5-2.46,6.71,6.71,0,0,1,2.42-1.59,11.25,11.25,0,0,1,5.43-.39c1.74.23,3.42.58,5.09.82a15.06,15.06,0,0,0,4.92.05,9.38,9.38,0,0,0,4.31-2.14,30.35,30.35,0,0,0,3.53-3.63A29.38,29.38,0,0,1,162.44,61,12.94,12.94,0,0,1,167,58.55a6.22,6.22,0,0,1,5,.58,6.1,6.1,0,0,0-4.93-.29,12.51,12.51,0,0,0-4.29,2.6c-2.5,2.26-4.19,5.34-6.83,7.7a10.35,10.35,0,0,1-4.72,2.51,16.08,16.08,0,0,1-5.31.09c-1.73-.2-3.42-.51-5.09-.67a9.65,9.65,0,0,0-4.7.42,5.19,5.19,0,0,0-1.81,1.26,5.58,5.58,0,0,0-1.1,1.93,16.47,16.47,0,0,0-.61,4.81,20.3,20.3,0,0,1-.61,5.33,8.18,8.18,0,0,1-1.33,2.57,7.31,7.31,0,0,1-2.3,1.83,9.23,9.23,0,0,1-2.76.79,14.88,14.88,0,0,1-2.75,0,32.49,32.49,0,0,1-5.2-1c-.83-.2-1.69-.44-2.45-.6a16,16,0,0,0-2.39-.25,11.75,11.75,0,0,0-4.64.73,5.94,5.94,0,0,0-1.82,1.15,3.43,3.43,0,0,0-.92,1.74c-.32,1.33.29,2.77,1,4.29a17.12,17.12,0,0,1,1.06,2.48,9.18,9.18,0,0,1,.46,2.8,11,11,0,0,1-1.41,5.37,11.73,11.73,0,0,1-8.76,6.15,10.15,10.15,0,0,1-2.81-.12,18.81,18.81,0,0,1-2.58-.74,18.51,18.51,0,0,0-4.74-1.33,9.68,9.68,0,0,0-8.26,4,10.24,10.24,0,0,0-2,4.37,8.43,8.43,0,0,0,.54,4.77,23.25,23.25,0,0,1,1.67,4.93,7.72,7.72,0,0,1-.07,2.67,9.25,9.25,0,0,1-.93,2.48,9.8,9.8,0,0,1-3.61,3.73A8.09,8.09,0,0,1,70.08,138.78Z"/>
            <g>
              <path class="e5580931-a0b8-4c6a-b114-af61a2a94a51" d="M94.33,153.82a19.49,19.49,0,0,0,5.08-2,10.62,10.62,0,0,0,2.14-1.63,4.88,4.88,0,0,0,1.37-2.2,4.07,4.07,0,0,0-.17-2.51,6.9,6.9,0,0,0-1.54-2.1c-.63-.65-1.32-1.27-1.93-2a8.42,8.42,0,0,1-1.36-2.56,9.46,9.46,0,0,1,1.41-8.34,8.27,8.27,0,0,1,2.17-2,11.53,11.53,0,0,1,5.52-1.66,37.26,37.26,0,0,1,5.61.16,28.3,28.3,0,0,0,5.34.14,13,13,0,0,0,4.93-1.39,5.68,5.68,0,0,0,3-3.5,5.54,5.54,0,0,0,0-2.33,10.08,10.08,0,0,0-.87-2.36c-.78-1.56-1.84-3-2.71-4.77a11.08,11.08,0,0,1-1-2.81,6.55,6.55,0,0,1,.08-3.17,6,6,0,0,1,1.65-2.75,7.48,7.48,0,0,1,2.66-1.63,15.1,15.1,0,0,1,5.8-.81,19.71,19.71,0,0,1,2.87.33c.94.17,1.79.36,2.69.5a21.77,21.77,0,0,0,5.24.37,6.83,6.83,0,0,0,4.42-1.71,6.12,6.12,0,0,0,1.7-4.35,37.35,37.35,0,0,0-.47-5.34,15.36,15.36,0,0,1,.12-5.8,7.27,7.27,0,0,1,.56-1.44,6.42,6.42,0,0,1,.37-.68l.45-.63a7.59,7.59,0,0,1,2.41-1.93,12.35,12.35,0,0,1,5.74-1.07,28.07,28.07,0,0,1,5.59.75,34.9,34.9,0,0,0,5.32.87,12.08,12.08,0,0,0,5.17-.59,6.32,6.32,0,0,0,3.59-3.42c.76-1.58,1.14-3.45,2.2-5.09a7.67,7.67,0,0,1,4.6-3.2,15.22,15.22,0,0,1,5.54-.25,34.1,34.1,0,0,1,5.4,1.14,34.49,34.49,0,0,0-5.42-.84,14.86,14.86,0,0,0-5.37.46,7,7,0,0,0-4.11,3.09c-.9,1.51-1.2,3.33-1.94,5.09a7.34,7.34,0,0,1-4.07,4.06,9.92,9.92,0,0,1-2.81.71,16,16,0,0,1-2.85.1,36.38,36.38,0,0,1-5.54-.76,27.6,27.6,0,0,0-5.32-.59,10.93,10.93,0,0,0-5,1,6.21,6.21,0,0,0-1.83,1.5l-.35.49c-.11.16-.18.35-.28.53a6,6,0,0,0-.42,1.12,14,14,0,0,0,0,5.13,38.55,38.55,0,0,1,.53,5.61,8,8,0,0,1-2.21,5.63,8.73,8.73,0,0,1-5.58,2.29,24.55,24.55,0,0,1-5.71-.35c-.91-.14-1.86-.34-2.72-.48a19,19,0,0,0-2.6-.28,13.13,13.13,0,0,0-5,.63,4.74,4.74,0,0,0-3.17,3.09,6.36,6.36,0,0,0,.79,4.61c.77,1.56,1.83,3.08,2.68,4.81a12.16,12.16,0,0,1,1,2.81,7.15,7.15,0,0,1-.08,3.12,6.74,6.74,0,0,1-1.51,2.75,8.5,8.5,0,0,1-2.42,1.83,14.57,14.57,0,0,1-5.6,1.54,18.44,18.44,0,0,1-2.88,0c-.93-.07-1.85-.17-2.76-.27a36.23,36.23,0,0,0-5.38-.29,10.23,10.23,0,0,0-4.94,1.34c-2.94,1.7-4.24,5.68-3.31,9A7.7,7.7,0,0,0,100,140.8c.52.7,1.17,1.34,1.8,2a7.72,7.72,0,0,1,1.58,2.39,4.61,4.61,0,0,1,.09,2.89,5.47,5.47,0,0,1-1.59,2.35,11,11,0,0,1-2.29,1.6A19.49,19.49,0,0,1,94.33,153.82Z"/>
              <path class="e5580931-a0b8-4c6a-b114-af61a2a94a51" d="M58.25,202a15,15,0,0,0,4.22,15.34c4.16,3.72,10.23,4.43,14.86,8.4a12.16,12.16,0,0,1,2.82,3.55,16.93,16.93,0,0,1,1.49,4.23,72.15,72.15,0,0,1,1,8.59,21.75,21.75,0,0,0,2,7.85,8.19,8.19,0,0,0,5.79,4.62c1.29.29,2.7.4,4.16.62a10.38,10.38,0,0,1,4.4,1.58,7.2,7.2,0,0,1,2.75,4,11.69,11.69,0,0,1,.29,4.62c-.38,3.07-1.73,5.68-2.56,8.32a15.34,15.34,0,0,0-.81,4,9.44,9.44,0,0,0,.62,3.85,11.16,11.16,0,0,0,5.25,5.83,9.71,9.71,0,0,0,3.84,1.06,18.11,18.11,0,0,0,4.12-.34c1.39-.24,2.8-.54,4.24-.7a15.84,15.84,0,0,1,2.18-.1,8.81,8.81,0,0,1,2.18.38,8,8,0,0,1,3.64,2.35,4.16,4.16,0,0,1,.93,4,4,4,0,0,0-1.15-3.84,7.83,7.83,0,0,0-5.6-2.29,16.29,16.29,0,0,0-2.08.21c-1.38.22-2.74.59-4.15.91a18.37,18.37,0,0,1-4.35.53,10.91,10.91,0,0,1-4.38-1A12.45,12.45,0,0,1,97.89,282a11,11,0,0,1-.84-4.5,16.94,16.94,0,0,1,.81-4.41c.85-2.79,2.08-5.38,2.34-8a10.14,10.14,0,0,0-.25-3.86,5.3,5.3,0,0,0-2-2.91,8.4,8.4,0,0,0-3.59-1.22c-1.35-.21-2.8-.31-4.29-.63a9.76,9.76,0,0,1-4.23-2A11.2,11.2,0,0,1,83,250.82a23.2,23.2,0,0,1-2.19-8.59,68.33,68.33,0,0,0-.84-8.38,12.45,12.45,0,0,0-3.64-7c-4-3.69-10.14-4.7-14.48-8.83A15.22,15.22,0,0,1,58.25,202Z"/>
              <path class="e5580931-a0b8-4c6a-b114-af61a2a94a51" d="M44,209.06c0,1.34,0,2.58.07,3.81a30.73,30.73,0,0,0,.4,3.6,31.45,31.45,0,0,0,.79,3.53c.33,1.18.74,2.36,1.16,3.63a8.89,8.89,0,0,1-2.6-3,12,12,0,0,1-1.3-7.85A9,9,0,0,1,44,209.06Z"/>
              <path class="e5580931-a0b8-4c6a-b114-af61a2a94a51" d="M45,184a7.2,7.2,0,0,1-.54-3,9.71,9.71,0,0,1,2-5.67,7.06,7.06,0,0,1,2.3-2c-.28,1-.62,1.89-.93,2.77l-.92,2.57L46,181.23C45.64,182.11,45.36,183,45,184Z"/>
              <path class="e5580931-a0b8-4c6a-b114-af61a2a94a51" d="M261.88,265a21.19,21.19,0,0,1,6.05-7c2.45-1.93,5-3.62,7.39-5.52a15.35,15.35,0,0,0,5.27-6.79,16.06,16.06,0,0,0,.44-2.06,19.62,19.62,0,0,0,.09-2.2,18.62,18.62,0,0,1,.4-4.85,8.73,8.73,0,0,1,2.82-4.28,14.61,14.61,0,0,1,4.25-2.48c3-1.14,6.09-1.58,8.87-2.61a14.1,14.1,0,0,0,9-14.09,13.91,13.91,0,0,1-1.41,9.14,14.54,14.54,0,0,1-2.93,3.79,14.18,14.18,0,0,1-4.07,2.6c-2.94,1.29-6.05,1.78-8.75,2.93s-5.18,2.92-5.85,5.53a17,17,0,0,0-.38,4.33,19.94,19.94,0,0,1-.12,2.41,14.65,14.65,0,0,1-.57,2.44,13.18,13.18,0,0,1-2.55,4.23,19.6,19.6,0,0,1-1.7,1.71c-.61.51-1.23,1-1.86,1.48-2.54,1.86-5.23,3.37-7.76,5.08A22.6,22.6,0,0,0,261.88,265Z"/>
              <path class="e5580931-a0b8-4c6a-b114-af61a2a94a51" d="M322.31,203.94a5.29,5.29,0,0,1,2.55,2.9,8.86,8.86,0,0,1,.41,4,13.39,13.39,0,0,1-1,3.86,18.66,18.66,0,0,1-2,3.41A45.93,45.93,0,0,0,318,224.3a10.18,10.18,0,0,0-1,3.33,18,18,0,0,0,.11,3.64,15.58,15.58,0,0,1-.07,4.08,8.77,8.77,0,0,1-1.79,3.87,16,16,0,0,1-6.63,4.54c-2.46,1-4.93,1.57-7.29,2.49a14.65,14.65,0,0,0-6.29,4.07,13.45,13.45,0,0,1,5.9-5c2.33-1.15,4.81-2,7.05-3a15.31,15.31,0,0,0,5.76-4.27,7,7,0,0,0,1.36-3.05,13.8,13.8,0,0,0,0-3.58,19.83,19.83,0,0,1-.06-4,11.38,11.38,0,0,1,1.28-4,39.9,39.9,0,0,1,4.63-6.32,18.84,18.84,0,0,0,2.11-3,12.64,12.64,0,0,0,1.24-3.44,8.33,8.33,0,0,0,0-3.65A5.34,5.34,0,0,0,322.31,203.94Z"/>
              <path class="e5580931-a0b8-4c6a-b114-af61a2a94a51" d="M283.67,283.52a21.6,21.6,0,0,1,7.28-3.41,68.82,68.82,0,0,0,7.52-2.4,13.66,13.66,0,0,0,3.16-2,9,9,0,0,0,2.12-2.89c1-2.23,1.2-5,2.39-7.64a13.17,13.17,0,0,1,6.12-5.87,44.27,44.27,0,0,1,7.66-2.76,29.54,29.54,0,0,0,7.23-2.95,10.47,10.47,0,0,0,5-5.83,8.56,8.56,0,0,1-1.5,3.75,13.12,13.12,0,0,1-2.91,2.9,27.79,27.79,0,0,1-7.3,3.62,49.2,49.2,0,0,0-7.26,2.95,11.25,11.25,0,0,0-5.18,5c-1.07,2.19-1.27,4.94-2.5,7.58a10.73,10.73,0,0,1-2.69,3.43,13.61,13.61,0,0,1-3.71,2.07C293.84,281.06,288.4,280.88,283.67,283.52Z"/>
              <path class="e5580931-a0b8-4c6a-b114-af61a2a94a51" d="M337.21,220.12c2.24-1.25,4.58-2.51,6.07-4.47s2-4.62.61-6.41c-.66-.94-1.68-1.77-2.47-3a7.68,7.68,0,0,1-1.17-4.16,13.33,13.33,0,0,1,3-7.65,43.67,43.67,0,0,1,5.68-5.49,21.51,21.51,0,0,0,4.9-5.53,13.32,13.32,0,0,0,1.44-7.12,49.91,49.91,0,0,0-1.1-7.6,35.38,35.38,0,0,1,2.08,7.51,13.75,13.75,0,0,1-1,7.92,21.46,21.46,0,0,1-5,6.23,43.38,43.38,0,0,0-5.36,5.3,11.7,11.7,0,0,0-2.68,6.47,5.91,5.91,0,0,0,.77,3.2c.57,1,1.53,1.86,2.29,3.08a5.66,5.66,0,0,1,.74,4.23,7.74,7.74,0,0,1-1.91,3.66A16.62,16.62,0,0,1,337.21,220.12Z"/>
              <path class="e5580931-a0b8-4c6a-b114-af61a2a94a51" d="M360.55,216.39A15.92,15.92,0,0,1,356,230.18a68.74,68.74,0,0,1-5.79,4.59c-1.85,1.44-3.36,3.17-3.66,5.27s.42,4.41.88,6.88a15.21,15.21,0,0,1,.2,3.88,13.35,13.35,0,0,1-.91,3.76,14.94,14.94,0,0,1-4.42,6.13,13.08,13.08,0,0,1-6.76,2.95,14.77,14.77,0,0,0,9.71-9.6,13.92,13.92,0,0,0,.63-3.37,13,13,0,0,0-.31-3.39c-.24-1.15-.56-2.33-.8-3.58a11.62,11.62,0,0,1-.19-4,8.39,8.39,0,0,1,1.66-3.75,13.76,13.76,0,0,1,2.81-2.7c2-1.51,4.14-2.71,5.89-4.23A17,17,0,0,0,360.55,216.39Z"/>
              <path class="e5580931-a0b8-4c6a-b114-af61a2a94a51" d="M248.93,74.43a16.88,16.88,0,0,1,11.5-.19,17.66,17.66,0,0,1,5.21,2.85,18.79,18.79,0,0,1,3.93,4.48A25.16,25.16,0,0,0,273,86a6.45,6.45,0,0,0,4.51,2,7.14,7.14,0,0,0,2.44-.69,14.75,14.75,0,0,1,1.43-.54,7.61,7.61,0,0,1,1.64-.28,8.8,8.8,0,0,1,6,2,9.72,9.72,0,0,1,3.45,5.29,7.36,7.36,0,0,1,.06,3.27,9.78,9.78,0,0,1-1.13,2.94c-1,1.76-2.14,3.3-2.56,4.92s-.23,3.52,1,4.34,3.19.46,5.08.17a10.37,10.37,0,0,1,3.06-.1,7.58,7.58,0,0,1,2.88,1.13,9.26,9.26,0,0,1,2.18,2.1,9.9,9.9,0,0,1,1.35,2.65,8.87,8.87,0,0,1,.37,2.93,7.15,7.15,0,0,1-.88,2.77,6.89,6.89,0,0,0,.57-2.78,8.26,8.26,0,0,0-.56-2.74,9.45,9.45,0,0,0-1.44-2.36,8.34,8.34,0,0,0-2.11-1.74,6.68,6.68,0,0,0-2.51-.82,9.25,9.25,0,0,0-2.68.25,22.71,22.71,0,0,1-2.92.51,5.14,5.14,0,0,1-3.24-.66,4.43,4.43,0,0,1-1.94-2.82,7.41,7.41,0,0,1,.06-3.25c.53-2.15,1.76-3.75,2.58-5.39a6.49,6.49,0,0,0,.85-4.87A7.87,7.87,0,0,0,287.77,90a6.94,6.94,0,0,0-4.67-1.6,6.37,6.37,0,0,0-1.21.2c-.4.12-.82.28-1.27.46a8.51,8.51,0,0,1-3.1.8,8.23,8.23,0,0,1-5.77-2.59,24.14,24.14,0,0,1-3.49-4.84,17.64,17.64,0,0,0-3.46-4.32,16.8,16.8,0,0,0-4.72-2.94A17.16,17.16,0,0,0,248.93,74.43Z"/>
              <path class="e5580931-a0b8-4c6a-b114-af61a2a94a51" d="M313.68,139.71a9.13,9.13,0,0,1,3.79,0,12,12,0,0,1,3.57,1.34,11.88,11.88,0,0,1,3,2.38A9.15,9.15,0,0,1,326,146.7c-1.06-.72-2-1.43-3-2.08s-1.94-1.26-2.94-1.82-2-1.1-3.06-1.59S314.84,140.25,313.68,139.71Z"/>
              <path class="e5580931-a0b8-4c6a-b114-af61a2a94a51" d="M320.12,123.42a7.4,7.4,0,0,1,2.75,1,10.75,10.75,0,0,1,4,4.06,7.68,7.68,0,0,1,.92,2.77,21.21,21.21,0,0,1-2.17-1.81c-.66-.62-1.29-1.23-1.9-1.86s-1.23-1.27-1.83-1.94A21.38,21.38,0,0,1,320.12,123.42Z"/>
              <path class="e5580931-a0b8-4c6a-b114-af61a2a94a51" d="M286.07,72.32c4.78,2,10,1.73,14.95,4a14.31,14.31,0,0,1,3.41,2.18,10.64,10.64,0,0,1,2.63,3.23,8.33,8.33,0,0,1,.9,4.19,18.64,18.64,0,0,1-.74,4,14.89,14.89,0,0,0-.68,3.54,5.54,5.54,0,0,0,.73,3.12,3,3,0,0,0,2.5,1.36,15,15,0,0,0,3.55-.56,9.79,9.79,0,0,1,4.1-.29A7.07,7.07,0,0,1,321,99a7.92,7.92,0,0,1,2,3.46,6.16,6.16,0,0,1-.2,3.87,6.76,6.76,0,0,0-2.47-6.6,5.86,5.86,0,0,0-3.15-1.41,8.74,8.74,0,0,0-3.5.5,14.12,14.12,0,0,1-4,.8,4.82,4.82,0,0,1-4-2c-1.74-2.68-1.09-5.84-.41-8.23a17.3,17.3,0,0,0,.72-3.56,6.66,6.66,0,0,0-.65-3.25,11.59,11.59,0,0,0-5-4.87C296,75.38,290.52,75,286.07,72.32Z"/>
              <path class="e5580931-a0b8-4c6a-b114-af61a2a94a51" d="M239.67,68.14a16.15,16.15,0,0,1,6.54-4.3,20.56,20.56,0,0,1,15.61.64A16.13,16.13,0,0,1,268,69.32a26.49,26.49,0,0,0-6.74-3.39A26,26,0,0,0,254,64.62a26.3,26.3,0,0,0-7.33.7A26.84,26.84,0,0,0,239.67,68.14Z"/>
              <path class="e5580931-a0b8-4c6a-b114-af61a2a94a51" d="M215.5,38.39a52.4,52.4,0,0,1,6.55-5.69,28.66,28.66,0,0,1,3.79-2.25A19.06,19.06,0,0,1,230.07,29a14.28,14.28,0,0,1,4.57-.15A17.48,17.48,0,0,1,239,30.13a30.1,30.1,0,0,0,3.9,1.44,7.72,7.72,0,0,0,3.79,0c2.53-.64,4.81-2.36,7.18-4a32.33,32.33,0,0,1,3.78-2.32A11.11,11.11,0,0,1,262.05,24a10,10,0,0,1,4.52.76,22,22,0,0,1,3.88,2.14c2.39,1.63,4.66,3.38,7.4,4.34-2.88-.52-5.4-2.18-7.91-3.5s-5.13-2.55-7.75-2.19-5,1.93-7.25,3.6-4.69,3.56-7.79,4.4a9.67,9.67,0,0,1-4.75-.07,27.23,27.23,0,0,1-4.16-1.59,15.62,15.62,0,0,0-3.87-1.3,13.94,13.94,0,0,0-4-.05,22.67,22.67,0,0,0-7.76,3c-1.24.71-2.43,1.49-3.61,2.31S216.65,37.53,215.5,38.39Z"/>
              <path class="e5580931-a0b8-4c6a-b114-af61a2a94a51" d="M207.28,23a11.66,11.66,0,0,1,2.9-.58,19.32,19.32,0,0,1,5.68.4,11.65,11.65,0,0,1,2.79,1,11.66,11.66,0,0,1-2.9.58,18.21,18.21,0,0,1-2.86,0,18.11,18.11,0,0,1-2.82-.42A11.61,11.61,0,0,1,207.28,23Z"/>
              <path class="e5580931-a0b8-4c6a-b114-af61a2a94a51" d="M20.48,125.83a19.36,19.36,0,0,1,5.38-3,24.92,24.92,0,0,1,6-1.45,24.35,24.35,0,0,1,6.21.11,19.34,19.34,0,0,1,5.9,1.77c-2.06-.11-4-.22-6-.22s-3.92.13-5.87.33a58.09,58.09,0,0,0-5.81,1C24.38,124.73,22.46,125.27,20.48,125.83Z"/>
              <path class="e5580931-a0b8-4c6a-b114-af61a2a94a51" d="M92.72,44a16.77,16.77,0,0,1,3.9,1.47,25.3,25.3,0,0,1,3.51,2.17,24.25,24.25,0,0,1,3.1,2.72,16.8,16.8,0,0,1,2.53,3.3,32.87,32.87,0,0,1-3.53-2.1c-1.13-.75-2.22-1.52-3.29-2.31s-2.13-1.62-3.17-2.48A31.41,31.41,0,0,1,92.72,44Z"/>
              <path class="e5580931-a0b8-4c6a-b114-af61a2a94a51" d="M336.46,78A22,22,0,0,1,340,73.88a31.16,31.16,0,0,1,4.29-3.3,30.48,30.48,0,0,1,4.82-2.48,21.41,21.41,0,0,1,5.22-1.45c-1.51,1-3,1.93-4.52,2.85l-4.44,2.77L341,75.11C339.49,76.07,338,77.05,336.46,78Z"/>
              <path class="e5580931-a0b8-4c6a-b114-af61a2a94a51" d="M345.39,281.85a26.67,26.67,0,0,1,6.43.42,34.16,34.16,0,0,1,12,4.58,25.67,25.67,0,0,1,5.08,4l-5.8-2.59c-1.92-.83-3.84-1.64-5.79-2.37s-3.9-1.42-5.89-2.08Z"/>
              <path class="e5580931-a0b8-4c6a-b114-af61a2a94a51" d="M91.89,314.21c-1.32,1.81-2.57,3.58-3.69,5.42a48.93,48.93,0,0,0-3,5.69,48.17,48.17,0,0,0-2.23,6c-.62,2.06-1.11,4.17-1.56,6.36a20.7,20.7,0,0,1,0-6.71,26.92,26.92,0,0,1,1.93-6.49,26.45,26.45,0,0,1,3.54-5.77A20.89,20.89,0,0,1,91.89,314.21Z"/>
              <path class="e5580931-a0b8-4c6a-b114-af61a2a94a51" d="M35.83,243c-4,3-8.6,5.26-12.59,8.24a28,28,0,0,0-5.42,5,19,19,0,0,0-3.42,6.35,13.7,13.7,0,0,0-.62,3.51,10.3,10.3,0,0,0,.35,3.46A9.33,9.33,0,0,0,18,275a9.7,9.7,0,0,0,6.5,1.66,9.94,9.94,0,0,0,6-3,8.16,8.16,0,0,0,1.82-2.79,5.65,5.65,0,0,0,.32-3.15,3.37,3.37,0,0,0-1.69-2.3,8.18,8.18,0,0,0-3.22-.83,26.28,26.28,0,0,0-14.09,2.87,18.26,18.26,0,0,0-9.2,10.8,16,16,0,0,0,2.05,14.16,14.12,14.12,0,0,1-3.23-6.79A17.92,17.92,0,0,1,3.55,278,18.19,18.19,0,0,1,7,271.08a21,21,0,0,1,5.94-5,27.33,27.33,0,0,1,15-3.38,9.33,9.33,0,0,1,4,1,5.34,5.34,0,0,1,2.66,3.56A8.81,8.81,0,0,1,32,275.05a11.91,11.91,0,0,1-7.23,3.54,11.45,11.45,0,0,1-7.78-2A11.21,11.21,0,0,1,12.43,270a12.09,12.09,0,0,1-.32-4,15.33,15.33,0,0,1,.81-3.87,18.21,18.21,0,0,1,1.63-3.56,19.6,19.6,0,0,1,2.27-3.16,29,29,0,0,1,5.86-4.94C27,247.66,31.53,245.59,35.83,243Z"/>
              <path class="e5580931-a0b8-4c6a-b114-af61a2a94a51" d="M290.1,38.31a35.14,35.14,0,0,1,18.77-23.4,8.74,8.74,0,0,1,4.09-.8,9.69,9.69,0,0,1,3.94,1.32,14.35,14.35,0,0,1,5.71,5.67,10.31,10.31,0,0,1,.73,8.16,8.76,8.76,0,0,1-2.3,3.59,8,8,0,0,1-3.85,1.93,10.78,10.78,0,0,1-10.84-5,12,12,0,0,1-1.48-3.85,16.6,16.6,0,0,1,.53-8,20.6,20.6,0,0,1,3.73-7,25.16,25.16,0,0,1,13-8.34,23.7,23.7,0,0,1,15.14.89c-9.74-3.25-20.93.59-26.9,8.41a20,20,0,0,0-3.28,6.51,14.81,14.81,0,0,0-.36,7.11A11,11,0,0,0,308,28.8a8.46,8.46,0,0,0,2.34,2.47,8.65,8.65,0,0,0,6.47,1.55,6,6,0,0,0,2.89-1.42,6.75,6.75,0,0,0,1.79-2.78,8.49,8.49,0,0,0-.55-6.65,12.76,12.76,0,0,0-4.91-5,8.14,8.14,0,0,0-3.22-1.16,7.11,7.11,0,0,0-3.35.57,31.39,31.39,0,0,0-6.4,3.76,37,37,0,0,0-13,18.2Z"/>
              <path class="e5580931-a0b8-4c6a-b114-af61a2a94a51" d="M365.05,154.8a15,15,0,0,1,1.56-10.44,22.7,22.7,0,0,1,7.24-8,19.31,19.31,0,0,1,4.95-2.43,16.06,16.06,0,0,1,5.53-.87,11.16,11.16,0,0,1,5.51,1.65,6.67,6.67,0,0,1,3.32,5,3.69,3.69,0,0,1-1.46,3.15,3.82,3.82,0,0,1-1.64.69,5.62,5.62,0,0,1-1.64,0,7.15,7.15,0,0,1-2.82-1.18,6.57,6.57,0,0,1-1.16-1,10.83,10.83,0,0,1-.89-1.16,11.27,11.27,0,0,1-1.85-5.39,13.79,13.79,0,0,1,3.45-10.37,16.36,16.36,0,0,1,4.31-3.38,21.66,21.66,0,0,1,10.35-2.47,27.21,27.21,0,0,0-5.16,1.09,20.18,20.18,0,0,0-4.69,2.22,13.88,13.88,0,0,0-6.11,7.81,11.13,11.13,0,0,0,1.26,9.42c.21.34.5.61.74.93a5.8,5.8,0,0,0,.84.72,5.17,5.17,0,0,0,2,.84,2.36,2.36,0,0,0,1.79-.33,1.78,1.78,0,0,0,.65-1.48,4,4,0,0,0-.73-1.93,5.85,5.85,0,0,0-.74-.83c-.28-.24-.62-.47-.92-.71a9.61,9.61,0,0,0-4.54-1.4,17.16,17.16,0,0,0-9.54,2.72,22.66,22.66,0,0,0-7.24,7.21A15.2,15.2,0,0,0,365.05,154.8Z"/>
              <path class="e5580931-a0b8-4c6a-b114-af61a2a94a51" d="M24.41,69.32A11.68,11.68,0,0,0,27.6,80.45a9.64,9.64,0,0,0,5.13,2.63,11.1,11.1,0,0,0,5.71-.58A10,10,0,0,0,41,81.13a8.74,8.74,0,0,0,2-2,9.36,9.36,0,0,0,1.73-5.29,9.77,9.77,0,0,0-1.39-5.37,5.33,5.33,0,0,0-1.78-1.89,3.1,3.1,0,0,0-2.27-.29A4.53,4.53,0,0,0,37,67.5a5.29,5.29,0,0,0-1.3,2.23,11,11,0,0,0,.05,5.61A17.34,17.34,0,0,0,42.12,85c6.25,5,16.12,4.41,22.25-1.21a17.79,17.79,0,0,1-11,5.55A17.26,17.26,0,0,1,41.2,86.24a18.57,18.57,0,0,1-7.27-10.45,12.62,12.62,0,0,1-.08-6.63,7.25,7.25,0,0,1,1.78-3.07,6.52,6.52,0,0,1,3.15-1.75,5,5,0,0,1,3.71.54,7.28,7.28,0,0,1,2.44,2.57,11.41,11.41,0,0,1,1.62,6.46,11.28,11.28,0,0,1-2.21,6.26A11.06,11.06,0,0,1,39,84a12.24,12.24,0,0,1-6.49.4,10.78,10.78,0,0,1-5.57-3.23A11.89,11.89,0,0,1,24.41,69.32Z"/>
            </g>
          </g>
        </g>
      </g>
      <g>
        <path class="e6b4aa91-59db-4231-b7e2-f96bcfc438a6" d="M125.37,364.48s16.31.93,11.18,17.25,7,2.33-5.12,16.31-16.08,7.22-16.08,7.22Z"/>
        <path class="e6b4aa91-59db-4231-b7e2-f96bcfc438a6" d="M137,417.62s-15.38,3.27-16.32,14,4.2,12.12,8.16,9.79S137,417.62,137,417.62Z"/>
        <path class="e6b4aa91-59db-4231-b7e2-f96bcfc438a6" d="M198.09,461.44s5.59-8.86,14-9.79,5.6,6.06,6.06,9.79,1.33,7.93-2.83,13.52-8.36,3.26-10.69,9.79-6.52,0-6.52,0Z"/>
        <path class="e6b4aa91-59db-4231-b7e2-f96bcfc438a6" d="M236.78,435.8s-3.73-1.33-5.13,6.56S234.91,454,236.78,454s5.13-2.41,5.13-2.41v-6.72S237.24,439.53,236.78,435.8Z"/>
        <path class="e6b4aa91-59db-4231-b7e2-f96bcfc438a6" d="M310.9,447s1.86-7,7.46-8.86-1.9,8.55-1.9,18.15,4.69,7.49,1,12.62.33,11.62-2.71,14-.08-5.56-.08-5.56Z"/>
        <path class="e6b4aa91-59db-4231-b7e2-f96bcfc438a6" d="M353.78,454s-12.58,4.68-10.72,15.63,4.2,16,7.46,16a7.54,7.54,0,0,1,5.13,2Z"/>
      </g>
    </g>
  </g>
</svg>
