<svg xmlns="http://www.w3.org/2000/svg" viewBox="0 0 213 190"><defs><style>.cls-1,.cls-3{fill:#dbe35e;}.cls-2{fill:#3caf28;}.cls-3{stroke:#3caf28;}.cls-3,.cls-7,.cls-8{stroke-miterlimit:10;}.cls-4{fill:#c2c628;}.cls-5{fill:#898c20;}.cls-6{opacity:0.54;}.cls-11,.cls-7{fill:#f1e91a;}.cls-7{stroke:#db961d;}.cls-8{fill:#dd7d2e;stroke:#8c4c1c;}.cls-9{fill:#f1e91d;}.cls-10{fill:#8c4c1c;}.cls-12{fill:#db961d;}.cls-13{fill:#fff;}</style></defs><g id="Layer_43" data-name="Layer 43"><path class="cls-1" d="M8.78,77s-12-58,29-57l59,1s47-21,52,51c0,0-1,7-22,11C126.78,83,36.78,96,8.78,77Z"/><path class="cls-2" d="M8.78,77a98.48,98.48,0,0,1-1.7-16.61A77.92,77.92,0,0,1,7.33,52a58.05,58.05,0,0,1,1.24-8.28,35,35,0,0,1,7-15.13A25.72,25.72,0,0,1,22,23.21c.63-.32,1.27-.62,1.9-.93a11.71,11.71,0,0,1,1.95-.79c.67-.22,1.32-.5,2-.66l2-.47A13.63,13.63,0,0,1,32,20l2.1-.25c1.4,0,2.81-.08,4.2-.08l8.36.13,16.72.25,33.43.51-.17,0A40.36,40.36,0,0,1,107.36,18a36,36,0,0,1,11.06.45,29.6,29.6,0,0,1,10.24,4.23,32.91,32.91,0,0,1,8.08,7.58,55.88,55.88,0,0,1,9.13,20A122.08,122.08,0,0,1,149.21,72v.1a5.67,5.67,0,0,1-1.15,2.18,8.37,8.37,0,0,1-.79.88,8,8,0,0,1-.86.79,20.28,20.28,0,0,1-3.87,2.53A46.59,46.59,0,0,1,134,81.72c-1.48.36-2.94.79-4.44,1.09a43.09,43.09,0,0,1-4.49.8c-3,.4-6,.75-9,1.08-12,1.3-24.13,2.24-36.24,2.67a282.23,282.23,0,0,1-36.32-.76,129.18,129.18,0,0,1-17.93-2.85A53.4,53.4,0,0,1,8.78,77Zm0,0A53.26,53.26,0,0,0,25.6,83.56a130.52,130.52,0,0,0,17.93,2.66,302.5,302.5,0,0,0,36.26.54C91.88,86.29,103.94,85.31,116,84q4.5-.51,9-1.11A41.59,41.59,0,0,0,129.4,82c1.47-.29,2.92-.72,4.38-1.09a45.6,45.6,0,0,0,8.37-3.24,19.34,19.34,0,0,0,3.71-2.44,7,7,0,0,0,.8-.74,6.13,6.13,0,0,0,.72-.82,5.09,5.09,0,0,0,1-1.78V72A120.54,120.54,0,0,0,145,50.46a56.46,56.46,0,0,0-9-19.66,32.16,32.16,0,0,0-7.83-7.39,28.29,28.29,0,0,0-9.91-4.13A38.06,38.06,0,0,0,97,21.37l-.09,0h-.08l-33.44-.63-16.71-.31-8.36-.16c-1.39,0-2.77.05-4.15.06l-2.06.24a13.76,13.76,0,0,0-2,.32l-2,.45c-.68.16-1.31.43-2,.64a11.73,11.73,0,0,0-1.91.77c-.62.3-1.25.59-1.86.9a25.18,25.18,0,0,0-6.33,5.25,35,35,0,0,0-7,14.88A58.51,58.51,0,0,0,7.6,52a77.14,77.14,0,0,0-.35,8.33A99.56,99.56,0,0,0,8.78,77Z"/><path class="cls-3" d="M36.78,52s-5,16,2,40c0,0-16,18-20,35s4,32,4,41A25.79,25.79,0,0,1,20,180a3.07,3.07,0,0,0,.88,3.87c5.22,4,19.57,11.46,37.87-6.85,1-1,24-23,37-19,0,0,9,2,10,13,0,0,16,13,46-6,0,0,26-22,40-19,0,0,15,3,14,18,0,0,13-54-34-61s-48-15-48-15,3-33-3-42"/><path class="cls-4" d="M2.78,59s10,14,32,14L37.5,87.11S13.78,86,2.78,77C2.78,77-.22,59,2.78,59Z"/><path class="cls-5" d="M2.78,59a32.83,32.83,0,0,0,6.66,6,41.61,41.61,0,0,0,7.87,4.27c.67.32,1.4.52,2.09.78a18.17,18.17,0,0,0,2.13.68l2.16.59,2.2.42c1.45.34,2.95.4,4.43.6s3,.13,4.46.2l.37,0,.07.34L38,87l.12.61-.63,0c-3.08-.16-6.11-.54-9.15-1s-6-1-9-1.82c-.74-.17-1.48-.39-2.22-.61s-1.48-.4-2.2-.67l-2.19-.74-2.13-.87a34.1,34.1,0,0,1-8-4.66l-.09-.07V77c-.47-3.07-.83-6.15-1-9.25-.09-1.55-.15-3.1-.1-4.65a15,15,0,0,1,.23-2.32,4.69,4.69,0,0,1,.34-1.12A1,1,0,0,1,2.78,59Zm0,0a1,1,0,0,0-.8.73,4.76,4.76,0,0,0-.28,1.11,17.92,17.92,0,0,0-.15,2.31c0,1.54.12,3.09.27,4.62.31,3.08.75,6.14,1.26,9.18L3,76.76a34,34,0,0,0,7.88,4.4,66.58,66.58,0,0,0,8.66,2.76c2.94.74,5.94,1.28,8.94,1.74s6,.76,9.06,1L37,87.2,34.35,73.08l.43.36c-1.51-.09-3-.09-4.54-.24a42.86,42.86,0,0,1-4.5-.68L23.52,72l-2.18-.64a17.58,17.58,0,0,1-2.15-.74c-.71-.28-1.43-.5-2.12-.83a38,38,0,0,1-7.83-4.54A31.37,31.37,0,0,1,2.78,59Z"/><path class="cls-4" d="M148.16,55.1S145.81,67.18,125,71.55l-.13,12.52s18.44-.18,25.09-10.3C150,73.77,151.6,54.76,148.16,55.1Z"/><path class="cls-5" d="M148.16,55.1a16.3,16.3,0,0,1-3.51,6.52A24.74,24.74,0,0,1,139,66.51a37.06,37.06,0,0,1-6.69,3.36c-1.18.42-2.37.81-3.56,1.2l-3.63.91.35-.43-.08,12.52-.5-.49a53.64,53.64,0,0,0,6.9-.72,41.87,41.87,0,0,0,6.73-1.66,29.1,29.1,0,0,0,6.23-2.94,18.54,18.54,0,0,0,4.95-4.68l-.05.16c.29-3.22.46-6.46.5-9.69A46.14,46.14,0,0,0,150,59.2a14.81,14.81,0,0,0-.41-2.38,4.46,4.46,0,0,0-.45-1.11A1.05,1.05,0,0,0,148.16,55.1Zm0,0a1.07,1.07,0,0,1,1,.58,4.14,4.14,0,0,1,.53,1.1,14,14,0,0,1,.51,2.4,44,44,0,0,1,.36,4.87c.09,3.25,0,6.5-.24,9.75v.09l0,.07a18.84,18.84,0,0,1-5.06,5,29.58,29.58,0,0,1-6.41,3.09,44,44,0,0,1-6.86,1.76,47.34,47.34,0,0,1-7,.74h-.5v-.5l.18-12.52V71.2l.34-.08,3.59-.87c1.17-.36,2.35-.71,3.51-1.1A36.09,36.09,0,0,0,138.68,66a26.19,26.19,0,0,0,5.72-4.61A16.86,16.86,0,0,0,148.16,55.1Z"/><path class="cls-4" d="M122.65,92.26c-28.09,3.37-54.26,3.54-82.8,1.86a2.45,2.45,0,0,1-2.29-2.18L37,87.29a1.91,1.91,0,0,1,2.05-2.11,375.86,375.86,0,0,0,83.35-2.85,2.05,2.05,0,0,1,2.34,2v5.49A2.44,2.44,0,0,1,122.65,92.26Z"/><path class="cls-5" d="M122.65,92.31q-11.82,1.44-23.71,2.18t-23.8.91q-11.91.09-23.82-.38c-4-.17-7.88-.3-12-.61A2.8,2.8,0,0,1,37.2,92l-.35-3-.16-1.48A2.46,2.46,0,0,1,37,85.92a2.31,2.31,0,0,1,1.39-1.06,2.65,2.65,0,0,1,.87-.07l.75,0q11.85.84,23.76.94t23.77-.51q11.87-.57,23.72-1.77l5.91-.64,2.95-.36,1.48-.19a6.32,6.32,0,0,1,1.52-.09,2.17,2.17,0,0,1,1.82,2.22l0,3V88.9a8.42,8.42,0,0,1-.07,1.5A2.52,2.52,0,0,1,122.65,92.31Zm0-.1a2.39,2.39,0,0,0,2-1.84,8,8,0,0,0,.06-1.47V87.41l0-3a1.94,1.94,0,0,0-1.65-2,6,6,0,0,0-1.44.13l-1.47.22-3,.43-5.9.79q-11.82,1.53-23.73,2.24t-23.83.5q-11.93-.19-23.81-1.13l-.75-.06a2,2,0,0,0-.6,0,1.54,1.54,0,0,0-.92.7,1.62,1.62,0,0,0-.18,1.19L37.61,89l.32,3a2.11,2.11,0,0,0,1.6,1.77c.38.08.95.07,1.42.11l1.48.09,3,.17,6,.29q11.88.52,23.79.53t23.79-.62Q110.81,93.59,122.64,92.21Z"/><g class="cls-6"><path class="cls-2" d="M108.78,95a53.89,53.89,0,0,0,3.2,8.22,47.92,47.92,0,0,0,4.44,7.47,45.34,45.34,0,0,0,5.65,6.58c1,1.06,2.14,2,3.24,2.95a20.92,20.92,0,0,0,1.73,1.38c.58.46,1.16.92,1.74,1.4q-1-.43-2-.93a16.41,16.41,0,0,1-2-1,28.7,28.7,0,0,1-3.72-2.58,30.41,30.41,0,0,1-3.35-3.07c-.55-.52-1-1.15-1.49-1.72a18.49,18.49,0,0,1-1.4-1.8c-.42-.63-.88-1.24-1.26-1.9s-.78-1.3-1.14-2a37.41,37.41,0,0,1-1.84-4.15A26.6,26.6,0,0,1,108.78,95Z"/></g><g class="cls-6"><path class="cls-2" d="M120.78,105c4,1,7.89,2.27,11.75,3.63s7.67,2.86,11.44,4.47,7.48,3.39,11.07,5.4a59.64,59.64,0,0,1,5.26,3.26,16.76,16.76,0,0,1,4.48,4.24,20.87,20.87,0,0,0-5-3.41c-1.78-1-3.61-1.84-5.45-2.7-3.69-1.71-7.41-3.35-11.15-4.95L132,110.06C128.22,108.43,124.48,106.78,120.78,105Z"/></g><g class="cls-6"><path class="cls-2" d="M121.78,94c1.56.81,3,1.72,4.4,2.62l4.22,2.73c2.79,1.84,5.56,3.64,8.38,5.65a18.92,18.92,0,0,1-4.95-1.51A31.55,31.55,0,0,1,129.3,101a31.08,31.08,0,0,1-4.07-3.17A23.48,23.48,0,0,1,121.78,94Z"/></g><g class="cls-6"><path class="cls-2" d="M89.78,98c.56,1.57,1,3.1,1.42,4.64l1.27,4.56c.44,1.5.85,3,1.39,4.47A28.36,28.36,0,0,0,95.78,116a10.16,10.16,0,0,1-3.34-3.67,20,20,0,0,1-1.89-4.58,25.11,25.11,0,0,1-.88-4.84A19.71,19.71,0,0,1,89.78,98Z"/></g><g class="cls-6"><path class="cls-2" d="M80.78,98a19.86,19.86,0,0,1,.89,4.67,27.68,27.68,0,0,1,0,4.73,18.64,18.64,0,0,1-1,4.68,7.33,7.33,0,0,1-2.8,3.92,13.41,13.41,0,0,0,1.3-4.33c.24-1.47.41-3,.56-4.47l.47-4.55C80.28,101.1,80.47,99.57,80.78,98Z"/></g><g class="cls-6"><path class="cls-2" d="M60.78,113c-.1,2.51-.15,5-.14,7.41s.12,4.87.39,7.27a48.58,48.58,0,0,0,1.35,7.08,36.69,36.69,0,0,0,2.83,6.74,18.31,18.31,0,0,1-4.3-6.22A29,29,0,0,1,59,127.89a36.13,36.13,0,0,1,.05-7.57A29.25,29.25,0,0,1,60.78,113Z"/></g><g class="cls-6"><path class="cls-2" d="M42.78,97c-1.47,2.34-2.81,4.7-4.06,7.1a74.71,74.71,0,0,0-3.37,7.34,72.12,72.12,0,0,0-2.63,7.62c-.79,2.59-1.3,5.24-1.94,7.94a32.5,32.5,0,0,1,.42-8.29,40.56,40.56,0,0,1,.92-4.07c.19-.68.44-1.33.65-2s.46-1.32.73-2c.52-1.3,1.12-2.55,1.74-3.8s1.35-2.44,2.14-3.58A30.77,30.77,0,0,1,42.78,97Z"/></g><g class="cls-6"><path class="cls-2" d="M29.78,157a24.24,24.24,0,0,1,.78,5.61,30.76,30.76,0,0,1-.31,5.66,20.08,20.08,0,0,1-1.6,5.51,11.27,11.27,0,0,1-1.55,2.49A5.79,5.79,0,0,1,24.78,178a11.42,11.42,0,0,0,2.41-4.77A41.7,41.7,0,0,0,28.27,168C28.84,164.37,29.15,160.73,29.78,157Z"/></g><g class="cls-6"><path class="cls-2" d="M123.78,70a35.76,35.76,0,0,1-9.3,3.55,74.28,74.28,0,0,1-9.81,1.82c-1.64.23-3.3.35-5,.5s-3.31.2-5,.26l-5,.06c-1.66-.07-3.32-.09-5-.19l9.92-.63c3.29-.3,6.58-.55,9.85-1s6.53-.92,9.76-1.58c1.62-.32,3.21-.72,4.8-1.16A31.91,31.91,0,0,0,123.78,70Z"/></g><g class="cls-6"><path class="cls-2" d="M123.78,74a35.76,35.76,0,0,1-9.3,3.55,74.28,74.28,0,0,1-9.81,1.82c-1.64.23-3.3.35-5,.5s-3.31.2-5,.26l-5,.06c-1.66-.07-3.32-.09-5-.19l9.92-.63c3.29-.3,6.58-.55,9.85-1s6.53-.92,9.76-1.58c1.62-.32,3.21-.72,4.8-1.16A31.91,31.91,0,0,0,123.78,74Z"/></g><g class="cls-6"><path class="cls-2" d="M120.68,49c-6.39,2.24-13.16,3.15-19.87,3.87s-13.5.92-20.27.91c-3.38,0-6.76-.14-10.13-.22s-6.76-.32-10.13-.55l-10.09-.89c-3.36-.41-6.71-.78-10.06-1.22,3.37.21,6.73.49,10.1.73l10.1.61,10.11.41c3.37.05,6.74.19,10.11.13,6.74.09,13.47-.18,20.19-.68,3.36-.22,6.71-.61,10.05-1.07A69.39,69.39,0,0,0,120.68,49Z"/></g><g class="cls-6"><path class="cls-2" d="M123.68,53c-6.39,2.24-13.16,3.15-19.87,3.87s-13.5.92-20.27.91c-3.38,0-6.76-.14-10.13-.22s-6.76-.32-10.13-.55l-10.09-.89c-3.36-.41-6.71-.78-10.06-1.22,3.37.21,6.73.49,10.1.73l10.1.61,10.11.41c3.37.05,6.74.19,10.11.13,6.74.09,13.47-.18,20.19-.68,3.36-.22,6.71-.61,10.05-1.07A69.39,69.39,0,0,0,123.68,53Z"/></g><path class="cls-7" d="M66.19,71.68c.91,6.84-1.25,12.77-4.8,13.24s-7.18-4.7-8.08-11.54,2.92-3.92,6.48-4.39S65.29,64.84,66.19,71.68Z"/><path class="cls-7" d="M47.73,79.06c6.47,2.41,10.7,7.09,9.44,10.45s-7.51,4.14-14,1.73-2.09-4.41-.84-7.78S41.26,76.65,47.73,79.06Z"/><path class="cls-7" d="M80.23,86.84c-5.81,3.73-12.09,4.3-14,1.28s1.2-8.49,7-12.22,4.78,1,6.72,4S86,83.11,80.23,86.84Z"/><path class="cls-7" d="M47.61,100.83c3.48-6,8.81-9.34,11.91-7.53s2.8,8.11-.67,14.07-4.71,1.31-7.81-.5S44.14,106.79,47.61,100.83Z"/><path class="cls-7" d="M68,105.9c-4.49-5.24-5.92-11.39-3.19-13.72s8.58,0,13.07,5.27-.32,4.88-3,7.21S72.49,111.15,68,105.9Z"/><circle class="cls-8" cx="60.78" cy="88.99" r="7"/><path class="cls-9" d="M58.78,73s3,3,2,9"/><path class="cls-10" d="M58.78,73a5.15,5.15,0,0,1,1.62,1.85,8.43,8.43,0,0,1,.86,2.32,9.31,9.31,0,0,1,.11,2.47A7.72,7.72,0,0,1,60.78,82c-.09-.81-.11-1.59-.19-2.36s-.18-1.53-.31-2.27A17,17,0,0,0,58.78,73Z"/><path class="cls-9" d="M45.26,87.22s3.75-2,9.19.75"/><path class="cls-10" d="M45.26,87.22a5.17,5.17,0,0,1,2.24-1A8.25,8.25,0,0,1,50,86.09a8.79,8.79,0,0,1,2.38.62A7.42,7.42,0,0,1,54.45,88c-.81-.16-1.56-.37-2.32-.52s-1.51-.28-2.26-.37A16.68,16.68,0,0,0,45.26,87.22Z"/><path class="cls-9" d="M67.59,86.23s2.54-3.4,8.62-3.27"/><path class="cls-10" d="M67.59,86.23a5.22,5.22,0,0,1,1.59-1.87,8.35,8.35,0,0,1,2.18-1.17,8.79,8.79,0,0,1,2.43-.47,7.61,7.61,0,0,1,2.42.24c-.79.21-1.56.35-2.31.53a21.57,21.57,0,0,0-2.2.64A16.48,16.48,0,0,0,67.59,86.23Z"/><path class="cls-9" d="M66.38,93.55a6.55,6.55,0,0,0,5.8,5.21"/><path class="cls-10" d="M66.38,93.55a11.54,11.54,0,0,0,2.37,3.2,7.7,7.7,0,0,0,1.57,1.12c.57.34,1.2.58,1.86.89A4.72,4.72,0,0,1,70,98.59a4.85,4.85,0,0,1-1.93-1.1,5.29,5.29,0,0,1-1.3-1.81A4.48,4.48,0,0,1,66.38,93.55Z"/><path class="cls-9" d="M57.22,95.06s1.06,4.1-2.84,8.77"/><path class="cls-10" d="M57.22,95.06a5.22,5.22,0,0,1,.46,2.41,8,8,0,0,1-.45,2.43,8.48,8.48,0,0,1-1.15,2.19,8,8,0,0,1-1.7,1.74c.33-.75.71-1.44,1-2.14s.62-1.4.88-2.12A16.51,16.51,0,0,0,57.22,95.06Z"/><path class="cls-4" d="M53.78,0s-4,14,30,19c0,0-18,16-13,27,0,0-34-1-36-20C34.78,26,31.78,8,53.78,0Z"/><path class="cls-5" d="M53.78,0a8.4,8.4,0,0,0,.63,4.72A12,12,0,0,0,55.6,6.8a13.53,13.53,0,0,0,1.54,1.84,26.77,26.77,0,0,0,8,5.18,58.08,58.08,0,0,0,9.17,3l2.36.54,1.17.27,1.19.2,4.77.8.79.13-.58.55A69.26,69.26,0,0,0,78.63,25,53.6,53.6,0,0,0,74,31.29a26.64,26.64,0,0,0-3.16,7.07,11.25,11.25,0,0,0,.39,7.43l.33.73-.79,0a71.56,71.56,0,0,1-9.92-1.14,63.58,63.58,0,0,1-9.67-2.5,36.8,36.8,0,0,1-9-4.45,23.56,23.56,0,0,1-3.79-3.34,17,17,0,0,1-2.75-4.25,18.27,18.27,0,0,1-1.14-9.93A23.12,23.12,0,0,1,38,11.51a25.1,25.1,0,0,1,7-7.06A23.19,23.19,0,0,1,47,3.09l2.2-1.17a18.07,18.07,0,0,1,2.29-1Zm0,0L51.5,1a18.86,18.86,0,0,0-2.22,1.07L47.13,3.27c-.73.4-1.36.94-2,1.4a25.11,25.11,0,0,0-6.71,7.11A22.5,22.5,0,0,0,35.18,21a19.69,19.69,0,0,0,0,4.85,16.18,16.18,0,0,0,1.27,4.66,17.05,17.05,0,0,0,2.66,4,22.28,22.28,0,0,0,3.66,3.19A35.7,35.7,0,0,0,51.49,42,72.89,72.89,0,0,0,70.8,45.51l-.46.69a12.3,12.3,0,0,1-.41-8.07,27.42,27.42,0,0,1,3.3-7.31A53.12,53.12,0,0,1,78,24.41a63.49,63.49,0,0,1,5.54-5.71l.21.68-4.79-.87-1.2-.22L76.56,18l-2.37-.58A58.81,58.81,0,0,1,65,14.28a26.76,26.76,0,0,1-8-5.46,11.12,11.12,0,0,1-1.52-1.9,11.16,11.16,0,0,1-1.16-2.15A8.43,8.43,0,0,1,53.78,0Z"/><path class="cls-4" d="M99.78,0s7,9-9,19c0,0,17,4,16,22C120.78,40,139.78,11,99.78,0Z"/><path class="cls-5" d="M99.78,0a9.19,9.19,0,0,1,1.62,5.6,11.43,11.43,0,0,1-1.84,5.6,19.85,19.85,0,0,1-1.75,2.42c-.69.71-1.37,1.44-2.1,2.1S94.2,17,93.4,17.58L91,19.28l-.1-.61a25.06,25.06,0,0,1,6.85,3,21,21,0,0,1,5.51,5.09,18.52,18.52,0,0,1,3.28,6.75,21.08,21.08,0,0,1,.68,3.71,11.78,11.78,0,0,1,.07,1.88l0,1.88-.52-.51a15.47,15.47,0,0,0,7-2.65,22,22,0,0,0,5.54-5.23,21.16,21.16,0,0,0,3.43-6.8,16.17,16.17,0,0,0,.28-7.54,16.28,16.28,0,0,0-3.28-6.84A26.32,26.32,0,0,0,114,6.31,53.36,53.36,0,0,0,99.78,0Zm0,0a51.37,51.37,0,0,1,14.5,5.89,26.42,26.42,0,0,1,6,5.16,16.8,16.8,0,0,1,3.56,7.07,16.58,16.58,0,0,1-.22,8,22,22,0,0,1-3.53,7.12,23,23,0,0,1-5.75,5.5,15.86,15.86,0,0,1-7.48,2.8l-.52,0V39.15a12.18,12.18,0,0,0-.07-1.81,20.29,20.29,0,0,0-.62-3.55,17.76,17.76,0,0,0-3.09-6.47,20.88,20.88,0,0,0-5.25-4.93,24.24,24.24,0,0,0-6.56-3.07l-.71-.2.61-.41L93,17.09c.8-.56,1.53-1.2,2.3-1.79s1.41-1.34,2.1-2A18.75,18.75,0,0,0,99.21,11a10.9,10.9,0,0,0,2-5.4A9.21,9.21,0,0,0,99.78,0Z"/><circle class="cls-11" cx="87.78" cy="27.99" r="10"/><path class="cls-12" d="M97.78,28a10.26,10.26,0,0,1-10,10.25,10.25,10.25,0,1,1,0-20.5A10.26,10.26,0,0,1,97.78,28Zm0,0a9.72,9.72,0,0,0-10-9.74,9.75,9.75,0,0,0,0,19.5,9.73,9.73,0,0,0,10-9.76Z"/><circle class="cls-13" cx="91.78" cy="24.99" r="3"/><circle class="cls-13" cx="62.47" cy="87.6" r="3"/></g></svg>