<svg xmlns="http://www.w3.org/2000/svg" xmlns:xlink="http://www.w3.org/1999/xlink" viewBox="0 0 207 236"><defs><style>.cls-1{fill:#d397d1;}.cls-1,.cls-2{stroke:#9f54a3;}.cls-1,.cls-10,.cls-2,.cls-5,.cls-8,.cls-9{stroke-miterlimit:10;}.cls-1,.cls-2,.cls-5,.cls-8{stroke-width:2px;}.cls-2{fill:#b364b5;}.cls-3{fill:#9f54a3;}.cls-4{fill:#f87fb6;}.cls-5{fill:none;stroke:#e2529e;}.cls-6{fill:#e2529e;}.cls-7{fill:#7e143a;opacity:0.15;}.cls-8{fill:#f4d34a;stroke:#8e6024;}.cls-9{stroke:#6d440d;fill:url(#linear-gradient);}.cls-10{stroke:#43115e;fill:url(#radial-gradient);}.cls-11,.cls-12{fill:#fff;}.cls-11{opacity:0.13;}.cls-12{opacity:0.26;}.cls-13{opacity:0.21;}</style><linearGradient id="linear-gradient" x1="59.48" y1="56.38" x2="83.49" y2="56.38" gradientUnits="userSpaceOnUse"><stop offset="0.01" stop-color="#bb9846"/><stop offset="0.52" stop-color="#faeb22"/><stop offset="1" stop-color="#ccae3c"/></linearGradient><radialGradient id="radial-gradient" cx="71.48" cy="56.38" r="8.9" gradientUnits="userSpaceOnUse"><stop offset="0.33" stop-color="#b516ca"/><stop offset="1" stop-color="#662d91"/></radialGradient></defs><g id="Layer_44" data-name="Layer 44"><ellipse class="cls-1" cx="73.5" cy="194.13" rx="31.17" ry="27.02" transform="matrix(0, -1, 1, 0, -120.92, 266.87)"/><ellipse class="cls-1" cx="173.14" cy="178.62" rx="31.17" ry="27.02" transform="translate(-6.16 351.05) rotate(-89.77)"/><path class="cls-2" d="M193.26,198.11s-14.59,11.13-40.65.53c0,0-7,4.15-3.61,7.83,2.24,2.45,3.37,0,5.62,1.24s2.23,6.12,5.61,6.13,3.39-3.65,5.64-2.42,1.09,7.34,5.6,7.36,5.65-6.09,7.9-6.08,5.62,3.69,7.87,2.47,1.15-4.88,2.28-6.1,6.75,1.25,6.76-1.19-1.11-3.68-1.11-4.9,4.52-2.42,3.4-4.87S193.26,198.11,193.26,198.11Z"/><path class="cls-3" d="M73,184.35c.49,2.84.79,5.69,1,8.54s.37,5.7.47,8.55.11,5.7,0,8.56-.2,5.72-.53,8.58c-.5-2.84-.8-5.69-1-8.53s-.37-5.7-.47-8.55-.1-5.71,0-8.57S72.64,187.22,73,184.35Z"/><path class="cls-3" d="M85.32,195.4a40.87,40.87,0,0,1-.39,5.66q-.36,2.79-.93,5.54c-.38,1.83-.84,3.65-1.36,5.45a40.37,40.37,0,0,1-1.91,5.33,39.24,39.24,0,0,1,.38-5.65q.36-2.79.93-5.54t1.37-5.45A41,41,0,0,1,85.32,195.4Z"/><path class="cls-3" d="M60.56,192.86a52.2,52.2,0,0,1,2.14,5.95c.61,2,1.12,4,1.6,6.06s.86,4.09,1.17,6.17a50.37,50.37,0,0,1,.62,6.29,48.62,48.62,0,0,1-2.14-6c-.62-2-1.12-4-1.6-6.07s-.86-4.09-1.17-6.16A48.55,48.55,0,0,1,60.56,192.86Z"/><path class="cls-3" d="M53.76,202.61a12.52,12.52,0,0,1,1.84,2.46,20.05,20.05,0,0,1,1.32,2.67,21.39,21.39,0,0,1,.92,2.84,12.61,12.61,0,0,1,.38,3,12.52,12.52,0,0,1-1.84-2.46,20,20,0,0,1-1.31-2.67,21.39,21.39,0,0,1-.92-2.84A13.13,13.13,0,0,1,53.76,202.61Z"/><path class="cls-3" d="M92.05,201.54a14.69,14.69,0,0,1-.1,3.26,24.5,24.5,0,0,1-.65,3.11,24.86,24.86,0,0,1-1.06,3,14.48,14.48,0,0,1-1.62,2.84,14.2,14.2,0,0,1,.1-3.27,25.25,25.25,0,0,1,.65-3.11,23.71,23.71,0,0,1,1.07-3A14.14,14.14,0,0,1,92.05,201.54Z"/><path class="cls-3" d="M177.11,169.52c.3,2.77.42,5.53.46,8.28s0,5.51-.09,8.26-.27,5.49-.54,8.24-.57,5.48-1.09,8.22c-.31-2.77-.43-5.53-.47-8.28s0-5.51.1-8.26.27-5.49.53-8.24S176.59,172.26,177.11,169.52Z"/><path class="cls-3" d="M183.83,176.88a47.72,47.72,0,0,1-.1,6.22c-.14,2.06-.35,4.1-.65,6.14s-.65,4.06-1.08,6.08a49.24,49.24,0,0,1-1.64,6,47.57,47.57,0,0,1,.09-6.21c.15-2.06.36-4.11.65-6.14s.66-4.06,1.09-6.08A49.9,49.9,0,0,1,183.83,176.88Z"/><path class="cls-3" d="M192.83,178.14a41.63,41.63,0,0,1-1,5.72q-.65,2.82-1.5,5.56c-.57,1.84-1.21,3.64-1.92,5.43a41.13,41.13,0,0,1-2.46,5.26,41.65,41.65,0,0,1,1-5.72c.43-1.88.92-3.73,1.5-5.56s1.21-3.64,1.92-5.43A43.15,43.15,0,0,1,192.83,178.14Z"/><path class="cls-3" d="M165.81,179.26a44.57,44.57,0,0,1,1.86,5.66q.78,2.87,1.33,5.77c.37,1.93.66,3.89.88,5.85a43.57,43.57,0,0,1,.34,6,43.72,43.72,0,0,1-1.87-5.67c-.51-1.91-1-3.83-1.32-5.77s-.66-3.89-.88-5.85A43.51,43.51,0,0,1,165.81,179.26Z"/><path class="cls-3" d="M153.44,175.54a54.3,54.3,0,0,1,2.95,5.85c.9,2,1.68,4,2.44,6.05s1.43,4.1,2,6.19a52.52,52.52,0,0,1,1.5,6.39,52.61,52.61,0,0,1-3-5.85c-.9-2-1.68-4-2.44-6s-1.42-4.1-2-6.19A54.43,54.43,0,0,1,153.44,175.54Z"/><path class="cls-2" d="M54.27,215.54s16.23,9.76,42.55-3.2c0,0,7.66,3.5,4.47,7.48-2.13,2.65-3.53.32-5.77,1.75s-1.8,6.31-5.33,6.63-3.87-3.33-6.11-1.89-.51,7.42-5.21,7.85-6.45-5.56-8.8-5.34-5.55,4.19-8,3.19-1.63-4.77-2.92-5.88-7,1.87-7.17-.57.84-3.76.73-5-4.93-2-4-4.55S54.27,215.54,54.27,215.54Z"/><path class="cls-4" d="M30.45,99.44s-43,33.94-5,111.94c6.68,3.84,11.31,2.32,14.73-2.32,2.08-2,4.66-2.89,8.25-.82,14.57,8.39,17.16,3.12,21.2.23,4.58-3.28,12.43-2.8,17.83,0,11.85,6.14,14.83,2.7,19-.08,6-4,21,1.61,16-6,7.69.57,18,5,25,1,4.11-3.83,8.67-6.47,15-4,13.1,5.11,16.22-4.31,22-6,10.79-3.14,25,11,20-21-3-42-43-39-85.08-72.59C119.4,99.79,52.94,106.87,30.45,99.44Z"/><path class="cls-5" d="M30.45,99.44s-43,33.94-5,111.94c6.68,3.84,11.31,2.32,14.73-2.32,2.08-2,4.66-2.89,8.25-.82,14.57,8.39,17.16,3.12,21.2.23,4.58-3.28,12.43-2.8,17.83,0,11.85,6.14,14.83,2.7,19-.08,6-4,21,1.61,16-6,7.69.57,18,5,25,1,4.11-3.83,8.67-6.47,15-4,13.1,5.11,16.22-4.31,22-6,10.79-3.14,25,11,20-21-3-42-43-39-85.08-72.59C119.4,99.79,52.94,106.87,30.45,99.44Z"/><path class="cls-6" d="M183.48,191.38a89.75,89.75,0,0,0-3.44-13.7l-.55-1.67c-.19-.56-.44-1.09-.65-1.64-.46-1.08-.87-2.17-1.36-3.24L175.92,168c-.51-1.05-1.17-2-1.75-3a59.07,59.07,0,0,0-19.73-19.41c-7.89-5-16.7-8.53-25.05-13.12a63.15,63.15,0,0,1-6.08-3.82l-1.41-1.13-.7-.56-.66-.62-1.31-1.25L118,123.69a20.42,20.42,0,0,1-4.56-13.31,20.62,20.62,0,0,0,5.31,12.67l1.19,1.26,1.32,1.14.65.56.71.52,1.41,1a65,65,0,0,0,6.06,3.51c4.18,2.13,8.49,4.05,12.78,6.07a124,124,0,0,1,12.6,6.74,64.91,64.91,0,0,1,11.29,8.89,53.65,53.65,0,0,1,8.71,11.41c.56,1.06,1.2,2.08,1.69,3.17l1.48,3.27c.45,1.11.82,2.25,1.23,3.37.2.56.42,1.11.59,1.68l.47,1.73A78.5,78.5,0,0,1,183.48,191.38Z"/><path class="cls-6" d="M156.69,196.32c-1-2-1.68-4.17-2.56-6.23s-1.78-4.12-2.78-6.11a75.53,75.53,0,0,0-6.9-11.42,61.65,61.65,0,0,0-8.91-9.83c-3.34-2.95-6.79-5.89-10.12-8.9a195.3,195.3,0,0,1-19-19.23,62.44,62.44,0,0,1-7.7-11.19A23.42,23.42,0,0,1,96.41,117a11.52,11.52,0,0,1-.09-3.42,8.24,8.24,0,0,1,1.16-3.17,9.28,9.28,0,0,0-.56,6.49,22.68,22.68,0,0,0,2.6,6.08,68.42,68.42,0,0,0,8,10.65,250.06,250.06,0,0,0,19.21,18.75l10.08,9a59.64,59.64,0,0,1,8.92,10.32,68,68,0,0,1,6.52,11.92q1.32,3.13,2.38,6.35c.35,1.07.69,2.14,1,3.22A29.06,29.06,0,0,0,156.69,196.32Z"/><path class="cls-6" d="M119.48,201.38a89.82,89.82,0,0,0-1.75-12.46,81.06,81.06,0,0,0-3.42-12c-2.92-7.78-7.31-15-14-20a84.49,84.49,0,0,1-9.09-9,48.9,48.9,0,0,1-7-10.7,31.57,31.57,0,0,1-3.11-12.41,30.07,30.07,0,0,1,2.4-12.42,31.56,31.56,0,0,0-1.41,12.36,32,32,0,0,0,3.52,11.78,50.29,50.29,0,0,0,7.08,10.14,84.39,84.39,0,0,0,8.94,8.69,50.3,50.3,0,0,1,4.73,4.34,39,39,0,0,1,4,5.11,51,51,0,0,1,5.47,11.57A75.1,75.1,0,0,1,119.48,201.38Z"/><path class="cls-6" d="M101.48,208.38c-.8-4.19-1.76-8.34-2.91-12.43s-2.42-8.14-3.88-12.12a106.87,106.87,0,0,0-5-11.61c-1-1.87-2-3.71-3.1-5.51l-3.39-5.4c-2.25-3.62-4.51-7.26-6.55-11.05a56.05,56.05,0,0,1-4.93-12,31,31,0,0,1-.78-12.93,33.47,33.47,0,0,1,4.59-12,35.51,35.51,0,0,0-3.61,12.1,31.46,31.46,0,0,0,1.31,12.38,58.77,58.77,0,0,0,5.08,11.49c2,3.7,4.31,7.29,6.58,10.9l3.37,5.45c1.11,1.85,2.16,3.73,3.11,5.67a94.79,94.79,0,0,1,4.83,11.95A116.72,116.72,0,0,1,101.48,208.38Z"/><path class="cls-6" d="M66.48,208.38a168.32,168.32,0,0,1-4.59-23,204.8,204.8,0,0,1-1.69-23.48,167.94,167.94,0,0,1,1.28-23.51,131,131,0,0,1,5-23c-.35,1.93-.71,3.85-1.1,5.77-.18.95-.39,1.91-.55,2.87l-.4,2.9c-.26,1.93-.6,3.85-.82,5.78L63,138.52a221.26,221.26,0,0,0-.83,23.32c.09,7.78.53,15.56,1.24,23.32.39,3.88.79,7.76,1.31,11.63S65.83,204.52,66.48,208.38Z"/><path class="cls-6" d="M36.48,208.38a191.38,191.38,0,0,1-.07-23.95A227.72,227.72,0,0,1,39,160.57a178.72,178.72,0,0,1,5.62-23.35,109.78,109.78,0,0,1,9.86-21.84,154.12,154.12,0,0,0-8.37,22.3Q43,149.16,41,160.91c-1.3,7.83-2.26,15.72-3,23.63-.36,4-.68,7.93-.91,11.9S36.61,204.39,36.48,208.38Z"/><path class="cls-6" d="M105.93,108.71a48.79,48.79,0,0,0,4.13,11.94A45.43,45.43,0,0,0,117,131a27,27,0,0,0,2.14,2.27,23.09,23.09,0,0,0,2.28,2.14l2.39,2c.85.61,1.72,1.19,2.57,1.8l1.29.91c.43.3.91.52,1.36.8l2.74,1.58a10.51,10.51,0,0,0,1.41.74l1.44.68c1,.45,1.91.93,2.87,1.41-1-.28-2-.58-3.08-.9l-1.54-.48a8.81,8.81,0,0,1-1.51-.56l-3-1.32c-.49-.23-1-.43-1.46-.7l-1.39-.84c-.93-.56-1.88-1.1-2.77-1.71l-2.59-2a20.89,20.89,0,0,1-2.42-2.19,24,24,0,0,1-2.27-2.35,38.57,38.57,0,0,1-6.85-11A33.72,33.72,0,0,1,105.93,108.71Z"/><path class="cls-6" d="M119.56,107.65a48.93,48.93,0,0,0,7.2,10.38,45.86,45.86,0,0,0,9.48,8.12,24.25,24.25,0,0,0,2.67,1.61,21.54,21.54,0,0,0,2.78,1.44l2.85,1.31c1,.36,2,.68,3,1l1.48.53c.5.17,1,.25,1.53.4l3.06.78a10.3,10.3,0,0,0,1.56.33l1.57.26c1,.18,2.09.38,3.15.59q-1.6,0-3.21,0l-1.62,0a10.68,10.68,0,0,1-1.6-.13l-3.21-.48a14.3,14.3,0,0,1-1.59-.28l-1.57-.43c-1-.29-2.1-.55-3.13-.89l-3-1.22a23.33,23.33,0,0,1-2.92-1.45,27.33,27.33,0,0,1-2.82-1.65,38.61,38.61,0,0,1-9.58-8.8A33.69,33.69,0,0,1,119.56,107.65Z"/><path class="cls-6" d="M43.65,114.26c-1.53,3.15-3,6.31-4.38,9.53s-2.73,6.42-4,9.66-2.48,6.5-3.58,9.8-2.19,6.6-3.09,9.95a134.06,134.06,0,0,0-4.17,20.37,81.89,81.89,0,0,0,.06,20.81A61.33,61.33,0,0,1,22.8,184a76,76,0,0,1,.07-10.56A99.83,99.83,0,0,1,24.25,163c.64-3.47,1.49-6.89,2.41-10.29a150.51,150.51,0,0,1,7.17-19.81A139.74,139.74,0,0,1,43.65,114.26Z"/><path class="cls-6" d="M89.84,112.31a64.09,64.09,0,0,0,2.09,11.44,56.12,56.12,0,0,0,4.15,10.72l.63,1.29c.22.43.48.83.72,1.25.5.82,1,1.65,1.48,2.46a56.83,56.83,0,0,0,3.41,4.63c.63.73,1.18,1.52,1.87,2.2l2,2.09a21.08,21.08,0,0,0,2.12,2c.72.65,1.44,1.32,2.16,2a38.46,38.46,0,0,1-9.33-7.25,43.05,43.05,0,0,1-3.81-4.6c-.57-.82-1.06-1.69-1.6-2.54-.25-.43-.54-.84-.76-1.28l-.68-1.34a42.93,42.93,0,0,1-3.88-11.26A37.47,37.47,0,0,1,89.84,112.31Z"/><path class="cls-6" d="M31.61,110.86c-1.75,2.83-3.31,5.71-4.75,8.65a95,95,0,0,0-3.86,9,86.14,86.14,0,0,0-2.94,9.32c-.88,3.16-1.44,6.38-2.11,9.65a43.41,43.41,0,0,1,.58-10c.22-1.66.67-3.27,1-4.91.2-.81.5-1.6.74-2.4s.5-1.6.81-2.38c.59-1.57,1.26-3.11,2-4.63s1.51-3,2.4-4.4A38.87,38.87,0,0,1,31.61,110.86Z"/><path class="cls-4" d="M1.48,31.38c2.68-7.38,15-18,30-17,15,47,70,39,70,0,22,3,24.19,9.38,25.5,13.5,0,0-15,46-9,58,0,0,9,10,4,16-2,9-60.86,22.68-99,3,0,0-8,0-1-17C22,87.88,29,39.88,1.48,31.38Z"/><path class="cls-5" d="M1.48,31.38c2.68-7.38,15-18,30-17,15,47,70,39,70,0,22,3,24.19,9.38,25.5,13.5,0,0-15,46-9,58,0,0,9,10,4,16-2,9-60.86,22.68-99,3,0,0-8,0-1-17C22,87.88,29,39.88,1.48,31.38Z"/><path class="cls-7" d="M90.48,16.8c1.07,12.67-8.19,29.8-14.72,34L71.5,48.69l-4,2c-8.68-4.06-24.18-21.62-25-35.7-5-8.2-28-3.65-29,8.2,0,0,3.89,0,4.16,3.26.37,4.44,6.92,1.75,10.47,3.74s.74,8.88,4.39,12,9,.15,11.41,1.45,3.57,5.08,5.57,6.9c2.15,2.61,8.36,2.88,13.93,2.16L59.49,54.6V66.45l12,5.93,12-5.91V54.62L78,51.93c5.14.31,11.41-.46,13.07-3.27,1.46-1.82,2-5.29,3.84-6.68s6.73.67,9.41-2.44-.52-8.92,2.23-11,8.57-.41,8.34-4.38c-.17-2.86,3.09-3.3,3.09-3.3C115.74,10.45,95.48,7.69,90.48,16.8Z"/><path class="cls-8" d="M17.64,19c-.27-3.53-4.16-3.58-4.16-3.58,1-13,24-18,29-9,.86,16.75,19,38,27,40-6,2-17,3-20-1-2-2-3.14-6.16-5.57-7.58s-7.77,1.82-11.41-1.58-.83-11-4.39-13.15S18,23.83,17.64,19Z"/><path class="cls-8" d="M114.93,16.42c-.17-3.14,3.09-3.62,3.09-3.62C115.74,1.42,95.48-1.62,90.48,8.38c1.15,14.9-9.57,35.42-16.07,38.09,5.27,1.09,14.62.74,16.7-3.13,1.46-2,2-5.79,3.84-7.32s6.73.73,9.41-2.68-.52-9.79,2.23-12.11S115.16,20.77,114.93,16.42Z"/><polygon class="cls-9" points="83.48 62.89 71.47 69.38 59.48 62.87 59.49 49.87 71.5 43.38 83.49 49.89 83.48 62.89"/><polygon class="cls-10" points="79.72 61.15 71.47 65.9 63.24 61.13 63.25 51.62 71.49 46.87 79.73 51.63 79.72 61.15"/><polygon class="cls-11" points="64.48 52.38 71.48 48.38 71.48 56.38 64.48 52.38"/><polygon class="cls-12" points="64.48 60.38 71.48 56.38 71.48 64.38 64.48 60.38"/><polygon class="cls-13" points="71.48 56.38 78.48 52.38 78.48 60.38 71.48 56.38"/><path class="cls-7" d="M24.48,105.63a87.55,87.55,0,0,0,39.75,9.18S39,118.41,41.73,207.9c1.9-1.14-7.84,9.86-16.25,3.48C24.69,210.78-9.52,149.88,24.48,105.63Z"/><path class="cls-7" d="M72,114.94s22.81-.56,28.14-2.56c0,0-5,12,25.15,40S156.69,198,156.69,198s-4.21.42-8.21,5.42-26-1-26-1,2.82,4.06-.09,4-10.94-.5-14.42,1.23a64.39,64.39,0,0,0-5.9,3.48c-.59.26-1.59-28.74-15.59-47.74S65.55,128.5,72,114.94Z"/><path class="cls-7" d="M113.48,107.38s-6.33,20,31.84,32c0,0,35.16,11,38.66,53.52,0,0,3.5-46.5-31-58,0,0-31.5-10.5-34-29Z"/><path class="cls-7" d="M101.48,56.38c1.33,7.46,3,57-25,59l18.85-3C102.48,111.38,104.48,88.38,101.48,56.38Z"/><path class="cls-7" d="M36.83,56.38c-1.33,7.46-3,57,25,59l-18.85-3C35.83,111.38,33.83,88.38,36.83,56.38Z"/></g></svg>