<svg xmlns="http://www.w3.org/2000/svg" viewBox="0 0 223 210"><defs><style>.cls-1{fill:#e1424a;stroke:#891010;stroke-width:2px;}.cls-1,.cls-8{stroke-miterlimit:10;}.cls-2{fill:#20e0ad;}.cls-3{fill:#147d96;}.cls-4,.cls-8{fill:#ffcbcc;}.cls-5{fill:#891212;}.cls-6,.cls-7{fill:#7e143a;}.cls-7{opacity:0.31;}.cls-8{stroke:#891212;}</style></defs><g id="Layer_42" data-name="Layer 42"><path class="cls-1" d="M2.86,84.72s-7-71,46-75.76l15-3.44c5.38,19.5,44.22,18.35,45.83,2.86,26.17.34,56.08,2.25,62,70.5,0,0-1.07,8-23.69,12.62C148,91.5,33,106.52,2.86,84.72Z"/><path class="cls-1" d="M45.08,46.61s-6.76,21.71.78,48.11c0,0-15.86,15.68-20.17,34.38S30,164.3,30,174.2a29.06,29.06,0,0,1-3,13.18,3.41,3.41,0,0,0,.94,4.25c5.62,4.35,26.17,24.23,45.88,4.09,1-1.05,17.37-12.82,33.63-12.18a29.12,29.12,0,0,1,3.22.37c3.44.52,6.31,2.29,8.15,9.81,0,0,25.69,10.9,58-10,0,0,12.34-20.33,27-18.18.75.11,1.5.17,2.26.22,4.06.26,12.88,2.15,9.77,15,0,0,21.62-58.5-29-66.2s-48-21.8-48-21.8S142,49.91,135.54,40"/><path class="cls-2" d="M216.43,208.48h-.05"/><path class="cls-3" d="M216.15,203.74h0"/><line class="cls-3" x1="215.32" y1="190.26" x2="215.72" y2="197"/><circle class="cls-4" cx="12.36" cy="79.22" r="4.5"/><circle class="cls-4" cx="33.36" cy="84.22" r="4.5"/><circle class="cls-4" cx="24.36" cy="61.22" r="4.5"/><circle class="cls-4" cx="17.43" cy="38.35" r="4.5"/><circle class="cls-4" cx="39.36" cy="42.22" r="4.5"/><circle class="cls-4" cx="35.36" cy="22.22" r="4.5"/><circle class="cls-4" cx="56.36" cy="24.22" r="4.5"/><circle class="cls-4" cx="61.36" cy="51.22" r="4.5"/><circle class="cls-4" cx="96.36" cy="52.22" r="4.5"/><circle class="cls-4" cx="130.36" cy="50.22" r="4.5"/><circle class="cls-4" cx="148.36" cy="30.22" r="4.5"/><circle class="cls-4" cx="147.36" cy="54.22" r="4.5"/><circle class="cls-4" cx="163.45" cy="65.33" r="4.5"/><circle class="cls-4" cx="148.45" cy="79.34" r="4.5"/><circle class="cls-4" cx="113.36" cy="66.22" r="4.5"/><circle class="cls-4" cx="77.36" cy="66.22" r="4.5"/><circle class="cls-4" cx="49.36" cy="65.22" r="4.5"/><circle class="cls-4" cx="62.36" cy="82.22" r="4.5"/><circle class="cls-4" cx="41.36" cy="109.22" r="4.5"/><circle class="cls-4" cx="71.36" cy="111.22" r="4.5"/><circle class="cls-4" cx="99.36" cy="111.22" r="4.5"/><circle class="cls-4" cx="122.36" cy="110.22" r="4.5"/><circle class="cls-4" cx="145.36" cy="109.22" r="4.5"/><circle class="cls-4" cx="137.36" cy="131.22" r="4.5"/><circle class="cls-4" cx="111.36" cy="133.22" r="4.5"/><circle class="cls-4" cx="82.36" cy="133.22" r="4.5"/><circle class="cls-4" cx="52.36" cy="133.22" r="4.5"/><circle class="cls-4" cx="29.36" cy="133.22" r="4.5"/><circle class="cls-4" cx="42.36" cy="153.22" r="4.5"/><circle class="cls-4" cx="69.36" cy="153.22" r="4.5"/><circle class="cls-4" cx="101.36" cy="153.22" r="4.5"/><circle class="cls-4" cx="127.36" cy="152.22" r="4.5"/><circle class="cls-4" cx="158.36" cy="149.22" r="4.5"/><circle class="cls-4" cx="167.36" cy="127.22" r="4.5"/><circle class="cls-4" cx="198.36" cy="124.22" r="4.5"/><circle class="cls-4" cx="191.36" cy="144.22" r="4.5"/><circle class="cls-4" cx="214.36" cy="152.22" r="4.5"/><circle class="cls-4" cx="179.36" cy="169.22" r="4.5"/><circle class="cls-4" cx="147.36" cy="178.22" r="4.5"/><circle class="cls-4" cx="118.36" cy="176.22" r="4.5"/><circle class="cls-4" cx="87.36" cy="172.22" r="4.5"/><circle class="cls-4" cx="60.36" cy="179.22" r="4.5"/><circle class="cls-4" cx="36.36" cy="179.22" r="4.5"/><circle class="cls-4" cx="97.36" cy="82.22" r="4.5"/><circle class="cls-4" cx="132.36" cy="79.22" r="4.5"/><path class="cls-5" d="M122.62,97.3a59.8,59.8,0,0,0,3.36,9,52.11,52.11,0,0,0,4.76,8.23,49.09,49.09,0,0,0,6.1,7.26c1.1,1.16,2.32,2.18,3.53,3.24.58.57,1.25,1,1.88,1.52s1.27,1,1.91,1.52a33.54,33.54,0,0,1-8.37-5.12,36.11,36.11,0,0,1-3.6-3.4c-.59-.59-1.06-1.27-1.6-1.9l-.78-1-.71-1a44.79,44.79,0,0,1-2.58-4.24l-1.06-2.24c-.34-.75-.62-1.53-.91-2.3A30,30,0,0,1,122.62,97.3Z"/><path class="cls-5" d="M109.89,154.9a32.7,32.7,0,0,1,7.61,5.23,40.07,40.07,0,0,1,6.14,7,43.82,43.82,0,0,1,2.42,4c.35.69.65,1.42,1,2.12l.48,1.07.37,1.11a28.88,28.88,0,0,1,1.69,9.08,61,61,0,0,0-3.14-8.5,49.16,49.16,0,0,0-4.44-7.75,64.57,64.57,0,0,0-5.59-7A83.24,83.24,0,0,0,109.89,154.9Z"/><path class="cls-5" d="M137.69,111.6c4.29,1.15,8.49,2.56,12.65,4.07s8.27,3.18,12.33,5,8.06,3.72,11.93,5.92a65.34,65.34,0,0,1,5.66,3.55,18.24,18.24,0,0,1,4.82,4.61,22.06,22.06,0,0,0-5.35-3.78c-1.91-1.07-3.88-2-5.86-3-4-1.89-8-3.71-12-5.47l-12.11-5.34C145.72,115.33,141.69,113.53,137.69,111.6Z"/><path class="cls-5" d="M133.39,92.9a53.58,53.58,0,0,0,5.32,6.73,34.88,34.88,0,0,0,3.06,2.9,29,29,0,0,0,3.35,2.52,33.44,33.44,0,0,0,7.47,3.79,27.08,27.08,0,0,0,4.06,1.11,15.06,15.06,0,0,0,2.1.26,4.87,4.87,0,0,0,2.1-.26,4.32,4.32,0,0,1-2.06.81,12.81,12.81,0,0,1-2.23.17,20,20,0,0,1-4.42-.6,25.69,25.69,0,0,1-8.13-3.61,27.59,27.59,0,0,1-6.49-6.08A25.81,25.81,0,0,1,133.39,92.9Z"/><path class="cls-5" d="M104.31,95.1c.8,3,1.65,5.94,2.57,8.85.47,1.45.94,2.9,1.47,4.32l.79,2.13.87,2.1c.27.71.61,1.38.92,2.07l.47,1,.53,1c.35.67.65,1.36,1,2s.78,1.29,1.16,1.94a39.17,39.17,0,0,0,5.78,7,23.21,23.21,0,0,1-7.06-6.12,38.23,38.23,0,0,1-4.69-8.15,49.66,49.66,0,0,1-2.79-8.93A43,43,0,0,1,104.31,95.1Z"/><path class="cls-5" d="M96.64,95.1a38.47,38.47,0,0,1,1,7.77,43.14,43.14,0,0,1-.43,7.86A28.14,28.14,0,0,1,95,118.36a12.3,12.3,0,0,1-5.24,5.89,16.67,16.67,0,0,0,3.79-6.48,43.21,43.21,0,0,0,1.69-7.34c.4-2.5.63-5,.84-7.59Z"/><path class="cls-5" d="M75.65,131.05a81.77,81.77,0,0,0-5.24,12.25,62,62,0,0,0-2.9,12.83,42.07,42.07,0,0,0-.29,6.54c0,1.1.11,2.18.19,3.27s.25,2.17.47,3.25a44.63,44.63,0,0,0,4.31,12.49,32.63,32.63,0,0,1-5.84-12.17,38.18,38.18,0,0,1-.82-13.6,50.82,50.82,0,0,1,1.25-6.71A53.54,53.54,0,0,1,69,142.76,48.19,48.19,0,0,1,75.65,131.05Z"/><path class="cls-5" d="M58.54,94.55a104.64,104.64,0,0,0-6.28,9.5,92.24,92.24,0,0,0-5.11,10.06c-.82,1.7-1.42,3.48-2.12,5.23s-1.25,3.55-1.73,5.37a108.9,108.9,0,0,0-2.53,11.09,46.67,46.67,0,0,1,1-11.47,57.74,57.74,0,0,1,1.45-5.61c.66-1.81,1.27-3.65,2.08-5.41s1.66-3.49,2.56-5.19l1.48-2.49c.51-.82,1.06-1.62,1.59-2.42A46.43,46.43,0,0,1,58.54,94.55Z"/><path class="cls-5" d="M70.92,96.2c-1.62,2.56-3.08,5.15-4.44,7.79a81.16,81.16,0,0,0-3.64,8.08,76.69,76.69,0,0,0-2.82,8.4c-.83,2.85-1.37,5.77-2,8.73a36.82,36.82,0,0,1,.5-9.07,42.27,42.27,0,0,1,1-4.46c.2-.74.47-1.46.7-2.18s.49-1.45.78-2.15c.55-1.42,1.2-2.81,1.87-4.18s1.44-2.68,2.29-4A34.16,34.16,0,0,1,70.92,96.2Z"/><path class="cls-5" d="M39.69,168.8a28.37,28.37,0,0,1,.78,6.14,34.81,34.81,0,0,1-.35,6.2,23.19,23.19,0,0,1-1.69,6.06,12.52,12.52,0,0,1-1.64,2.74,6.63,6.63,0,0,1-2.48,2A12.4,12.4,0,0,0,37,186.65a44.8,44.8,0,0,0,1.18-5.8C38.75,176.9,39.07,172.89,39.69,168.8Z"/><path class="cls-6" d="M137.51,98c-30.82,3.72-59.54,3.93-90.85,2.1a2.7,2.7,0,0,1-2.52-2.4l-.56-5.12a2.1,2.1,0,0,1,2.25-2.32,411.38,411.38,0,0,0,91.46-3.18,2.25,2.25,0,0,1,2.57,2.23v6A2.68,2.68,0,0,1,137.51,98Z"/><path class="cls-7" d="M33.36,94.16c.5-1.44-7.5-29.44,11.5-48.44-1.73,2.49-5,43,1,49Z"/><path class="cls-7" d="M148.61,92.16c-.5-1.44,7.5-29.44-11.5-48.44,1.72,2.49,5,43-1,49Z"/><path class="cls-7" d="M43.86,97.72S25.31,117.18,24.58,137s12.59,33,1.93,52.88c0,0,24.35,27.45,46.35,7.17,0,0-36.24-57.24-5.62-95.76Z"/><path class="cls-7" d="M111.86,96.72s18.13,41.7,55.25,47.42a24.12,24.12,0,0,1,16.44,10.45c2.92,4.41,4.54,10.07,1.53,16.56,0,0-8.19,22.13-45.71,25.85.15.52-12.56-28.41-24.51-39.28-8-7.24-29-39-19-58Z"/><path class="cls-7" d="M55.09,7.53s5.77,18.19,18.77,19.19c0,0-11,2-9,6s6,6,5,9-4.59,16.87,4,14c3-1,10-2,18-11,0,0,1,1,4,0,0,0,10,11,17,9s4-8,4-10,0-9,5-12c0,0,6-4-11-7,0,0,9-11,8-15L113.36,8c2.52.92-27.55,32.8-50.5-.28Z"/><path class="cls-4" d="M56.84,4.34s2.81-4.72,6.39-1.95c4.76,18,40.48,26.27,47.62,2.76,2.38-1.38,4-.53,5,2.22,0,0-3.82,19.91-28.82,18.52S57.27,5.15,57.27,5.15"/><path class="cls-5" d="M56.84,4.34a6.69,6.69,0,0,1,2.74-2.66,3.45,3.45,0,0,1,2-.27,4.33,4.33,0,0,1,1.82.8l.06,0,0,.08a18,18,0,0,0,3.63,6.54,26,26,0,0,0,5.68,4.89,32.35,32.35,0,0,0,14.06,4.86,24.79,24.79,0,0,0,14.35-2.54,17.53,17.53,0,0,0,5.49-4.71,20.74,20.74,0,0,0,3.28-6.5L110,4.5l.33-.18a5.74,5.74,0,0,1,1.83-.72,3.4,3.4,0,0,1,2.22.29A4.19,4.19,0,0,1,116,5.34,8.52,8.52,0,0,1,116.8,7l.1.27-.06.25a24.23,24.23,0,0,1-4.28,8.91A25.47,25.47,0,0,1,105.24,23,30.26,30.26,0,0,1,96,26.25c-.8.18-1.62.2-2.42.3s-1.62.2-2.43.2l-2.42,0a19.52,19.52,0,0,1-2.42-.12,36.83,36.83,0,0,1-18.11-6.12,28.53,28.53,0,0,1-6.8-6.76,25.67,25.67,0,0,1-4.15-8.56,27.38,27.38,0,0,0,4.57,8.24,28.13,28.13,0,0,0,6.93,6.27,35.82,35.82,0,0,0,17.67,5.4,22.65,22.65,0,0,0,2.33,0l2.33,0c.78,0,1.54-.15,2.31-.22s1.55-.12,2.3-.3a28.39,28.39,0,0,0,8.61-3.12A23.44,23.44,0,0,0,111,15.32a24.51,24.51,0,0,0,2.34-3.91,21.88,21.88,0,0,0,1.51-4.23l0,.52a3.7,3.7,0,0,0-1.4-2.06,1.42,1.42,0,0,0-1-.13,4.12,4.12,0,0,0-1.21.48l.43-.56a22.28,22.28,0,0,1-3.65,7.08,19.6,19.6,0,0,1-6.1,5.14,25.39,25.39,0,0,1-15.39,2.5,33.55,33.55,0,0,1-14.49-5.47C67.86,11.78,64.27,7.52,63,2.44l.08.12a3.85,3.85,0,0,0-1.62-.8,3.14,3.14,0,0,0-1.79.14A6.63,6.63,0,0,0,56.84,4.34Z"/><path class="cls-4" d="M114,37c-2.19,7.26,4.26,15.16-4.83,12.29S94.51,38.24,96.7,31,108,20.17,117.13,23,116.23,29.77,114,37Z"/><path class="cls-5" d="M114,37a14.18,14.18,0,0,0-.37,5.23c.14,1.75.59,3.45.71,5.23a4.21,4.21,0,0,1-.12,1.36,1.66,1.66,0,0,1-.92,1.1,5,5,0,0,1-2.75.07,22.4,22.4,0,0,1-5.09-1.7,20.32,20.32,0,0,1-4.54-3,16.63,16.63,0,0,1-3.6-4.14A14.41,14.41,0,0,1,95.41,36a12.33,12.33,0,0,1,.47-5.65,12.07,12.07,0,0,1,3-4.79,14.2,14.2,0,0,1,4.74-3,19.07,19.07,0,0,1,10.77-.69,21.07,21.07,0,0,1,2.59.7,12.43,12.43,0,0,1,2.48,1.1,4.39,4.39,0,0,1,1.09.89,2.12,2.12,0,0,1,.51,1.36A4.48,4.48,0,0,1,120,28.4c-1.08,1.41-2.33,2.64-3.4,4A15.25,15.25,0,0,0,114,37Zm0,0c1-3.42,3.68-6,5.72-8.78a4,4,0,0,0,.91-2.29,2.27,2.27,0,0,0-1.47-1.72,10.88,10.88,0,0,0-2.4-.86,20.2,20.2,0,0,0-2.53-.5,18.05,18.05,0,0,0-9.94,1.29A11.56,11.56,0,0,0,97.77,31a11.73,11.73,0,0,0,1.07,9.39A18.24,18.24,0,0,0,106,47.43a22.54,22.54,0,0,0,4.76,2,4.59,4.59,0,0,0,2.45.14c.76-.25,1-1.21.93-2,0-1.74-.4-3.48-.51-5.24A14.19,14.19,0,0,1,114,37Z"/><path class="cls-8" d="M72.18,38.88c2.23,7.24-4.17,15.18,4.91,12.26S91.71,40,89.48,32.73,78.08,22,69,24.91,70,31.63,72.18,38.88Z"/><path class="cls-5" d="M107.86,34.52a5.18,5.18,0,0,0-1.91-.77,18.9,18.9,0,0,0-1.88-.33c-.65-.09-1.31-.19-2-.31a12.06,12.06,0,0,1-2.2-.59,5.37,5.37,0,0,1,2.15-1,6.17,6.17,0,0,1,2.35-.1,5.14,5.14,0,0,1,2.29.91A2.61,2.61,0,0,1,107.86,34.52Z"/><path class="cls-5" d="M79.86,36.31a2.84,2.84,0,0,1,.94-2.39,4.71,4.71,0,0,1,2.33-1.2,6,6,0,0,1,2.5,0,5.24,5.24,0,0,1,2.23,1,16.38,16.38,0,0,1-2.28.53c-.72.12-1.4.23-2,.37a11.4,11.4,0,0,0-1.84.52A6.09,6.09,0,0,0,79.86,36.31Z"/><ellipse class="cls-6" cx="93" cy="31.86" rx="7.54" ry="7.7"/></g></svg>