<svg xmlns="http://www.w3.org/2000/svg" viewBox="0 0 119 56"><defs><style>.cls-1{fill:#5858db;}.cls-2{fill:#fff;opacity:0.4;}</style></defs><g id="Layer_37" data-name="Layer 37"><path class="cls-1" d="M1,22.35,4.64,51.92A3.71,3.71,0,0,0,8.3,55.5,3.62,3.62,0,0,0,12,51.92V26.2c.14-1.39,1.23-2.65,3.07-3.76l0,30.65a1.61,1.61,0,1,0,3.22,0l0-32.19c.89-.34,1.85-.66,2.89-1l0,33.16a1.62,1.62,0,1,0,3.23,0l0-34c.92-.21,1.89-.42,2.89-.61l0,34.61a1.62,1.62,0,1,0,3.23,0l0-35.17c.94-.15,1.9-.29,2.89-.42l0,35.59a1.62,1.62,0,1,0,3.23,0l0-36c.94-.11,1.91-.2,2.89-.3l0,36.29a1.62,1.62,0,1,0,3.23,0l0-36.56c.95-.07,1.92-.14,2.89-.19l0,36.75a1.62,1.62,0,1,0,3.23,0l0-36.93,2.89-.11,0,37a1.62,1.62,0,1,0,3.23,0L55,16l2.89,0,0,37.16a1.62,1.62,0,1,0,3.23,0l0-37.16L64,16l0,37.13a1.62,1.62,0,1,0,3.23,0l0-37,2.89.11,0,36.93a1.62,1.62,0,1,0,3.23,0l0-36.76,2.89.2,0,36.56a1.62,1.62,0,1,0,3.23,0l0-36.29,2.89.29.05,36a1.61,1.61,0,1,0,3.22,0l0-35.6c1,.13,2,.27,2.9.42l0,35.18a1.61,1.61,0,1,0,3.22,0l0-34.62c1,.2,2,.4,2.9.62l0,34a1.61,1.61,0,1,0,3.22,0l0-33.17c1,.31,2,.63,2.89,1l0,32.2a1.61,1.61,0,1,0,3.22,0l0-30.66c1.85,1.11,3,2.37,3.1,3.77V51.92a3.62,3.62,0,0,0,3.66,3.58,3.7,3.7,0,0,0,3.65-3.58L118,22.35C121.87-6.32-3-7.25,1,22.35Z"/><path class="cls-2" d="M118,23l.08-.68C121.87-6.32-3-7.25,1,22.35l.08.59C5.58-2.54,113.33-1.77,118,23Z"/></g></svg>