<svg xmlns="http://www.w3.org/2000/svg" viewBox="0 0 141 56"><defs><style>.cls-1{fill:#e203e8;}.cls-2{fill:#fff;opacity:0.4;}</style></defs><g id="Layer_36" data-name="Layer 36"><path class="cls-1" d="M5.06,51.23A4.43,4.43,0,0,0,9.42,55.5a4.32,4.32,0,0,0,4.37-4.27V20.56a4.28,4.28,0,0,1,3.67-4.2l0,36.26a1.93,1.93,0,1,0,3.85,0l0-36.33h3.45l0,36.33a1.93,1.93,0,1,0,3.85,0l0-36.33h3.45l0,36.33a1.93,1.93,0,1,0,3.85,0l0-36.33h3.45l0,36.33a1.93,1.93,0,1,0,3.85,0l0-36.33h3.45l0,36.33a1.93,1.93,0,1,0,3.85,0l0-36.33H54l0,36.33a1.93,1.93,0,1,0,3.85,0l0-36.33h3.45l0,36.33a1.93,1.93,0,1,0,3.85,0l0-36.33h3.45l0,36.33a1.93,1.93,0,1,0,3.85,0l0-36.33h3.45l0,36.33a1.93,1.93,0,1,0,3.85,0l0-36.33h3.45l0,36.33a1.93,1.93,0,1,0,3.85,0l0-36.33h3.45l.05,36.33a1.92,1.92,0,1,0,3.84,0l0-36.33h3.45l0,36.33a1.93,1.93,0,1,0,3.85,0l0-36.33h3.46l0,36.33a1.93,1.93,0,1,0,3.85,0l0-36.33h3.46l0,36.33a1.93,1.93,0,1,0,3.85,0l0-36.33h3.45l0,36.33a1.93,1.93,0,1,0,3.85,0l0-36.27a4.29,4.29,0,0,1,3.69,4.21V51.23a4.32,4.32,0,0,0,4.37,4.27,4.43,4.43,0,0,0,4.36-4.27L140.32,16c1.49-11.12-5.19-14.37-7.76-15.2A5.24,5.24,0,0,0,130.9.5H10.1A5.24,5.24,0,0,0,8.44.76C5.87,1.59-.81,4.84.68,16Z"/><path class="cls-2" d="M8.44,5.67a5.24,5.24,0,0,1,1.66-.26H130.9a5.24,5.24,0,0,1,1.66.26,11.33,11.33,0,0,1,7.82,9.73c1.17-10.64-5.29-13.81-7.82-14.63A5.52,5.52,0,0,0,130.9.52H10.1A5.52,5.52,0,0,0,8.44.77c-2.53.82-9,4-7.82,14.63A11.33,11.33,0,0,1,8.44,5.67Z"/></g></svg>