<svg xmlns="http://www.w3.org/2000/svg" viewBox="0 0 119 56"><defs><style>.cls-1{fill:#ea2880;}.cls-2{fill:#fff;opacity:0.4;}</style></defs><g id="Layer_27" data-name="Layer 27"><path class="cls-1" d="M17,27.93V51.25a3.37,3.37,0,0,0,2.46,3.33,3.27,3.27,0,0,0,4.07-3.17V28.08A3.38,3.38,0,0,1,26,24.76a3.27,3.27,0,0,1,4.08,3.17V51.25a3.37,3.37,0,0,0,2.46,3.33,3.27,3.27,0,0,0,4.07-3.17V28.08a3.38,3.38,0,0,1,2.46-3.32,3.27,3.27,0,0,1,4.08,3.17V51.25a3.37,3.37,0,0,0,2.45,3.33,3.28,3.28,0,0,0,4.08-3.17V28.08a3.37,3.37,0,0,1,2.46-3.32,3.28,3.28,0,0,1,4.08,3.17V51.25a3.37,3.37,0,0,0,2.45,3.33,3.6,3.6,0,0,0,1.6,0,3.37,3.37,0,0,0,2.45-3.33V27.93a3.28,3.28,0,0,1,4.08-3.17,3.37,3.37,0,0,1,2.46,3.32V51.41a3.28,3.28,0,0,0,4.08,3.17,3.37,3.37,0,0,0,2.45-3.33V27.93a3.27,3.27,0,0,1,4.08-3.17,3.38,3.38,0,0,1,2.46,3.32V51.41a3.27,3.27,0,0,0,4.07,3.17,3.37,3.37,0,0,0,2.46-3.33V27.93A3.27,3.27,0,0,1,93,24.76a3.38,3.38,0,0,1,2.46,3.32V51.41a3.27,3.27,0,0,0,4.07,3.17A3.37,3.37,0,0,0,102,51.25V27.93A3.27,3.27,0,0,1,106,24.76a3.37,3.37,0,0,1,2.45,3.32V51.41a3.27,3.27,0,0,0,3.27,3.26A3.34,3.34,0,0,0,115,51.41l3.28-27C119.79-.54,98.38-1.42,87.41,4.07c-18.55,9.27-36.71,9.55-55.82,0C20.62-1.42-.79-.54.69,24.41L4,51.41a3.34,3.34,0,0,0,3.27,3.26,3.27,3.27,0,0,0,3.27-3.26V28.08A3.37,3.37,0,0,1,13,24.76,3.27,3.27,0,0,1,17,27.93Z"/><path class="cls-2" d="M31.59,8.22c19.11,9.56,37.27,9.28,55.82,0,10.27-5.14,29.69-4.69,30.91,15.87,1.27-24.63-20-25.49-30.91-20-18.55,9.27-36.71,9.55-55.82,0C20.67-1.4-.59-.54.68,24.09,1.9,3.53,21.32,3.08,31.59,8.22Z"/></g></svg>