<?xml version="1.0" encoding="utf-8"?>
<!-- Generator: Adobe Illustrator 25.2.3, SVG Export Plug-In . SVG Version: 6.00 Build 0)  -->
<svg version="1.1" id="Layer_1" xmlns="http://www.w3.org/2000/svg" xmlns:xlink="http://www.w3.org/1999/xlink" x="0px" y="0px"
	 viewBox="0 0 1600 900" style="enable-background:new 0 0 1600 900;" xml:space="preserve">
<style type="text/css">
	.st0{clip-path:url(#SVGID_2_);}
	.st1{fill:url(#SVGID_3_);}
	.st2{fill:#EAEAEA;}
	.st3{opacity:0.6;fill:#DBD2DB;enable-background:new    ;}
	.st4{fill:none;stroke:#9B9B9B;stroke-miterlimit:10;}
	.st5{opacity:0.3;enable-background:new    ;}
</style>
<g id="Layer_10">
	<g>
		<defs>
			<rect id="SVGID_1_" width="1600" height="900"/>
		</defs>
		<clipPath id="SVGID_2_">
			<use xlink:href="#SVGID_1_"  style="overflow:visible;"/>
		</clipPath>
		<g class="st0">
			
				<linearGradient id="SVGID_3_" gradientUnits="userSpaceOnUse" x1="806.3701" y1="-92.36" x2="793.6201" y2="993.2" gradientTransform="matrix(1 0 0 -1 0 900)">
				<stop  offset="0.26" style="stop-color:#FFFFFF"/>
				<stop  offset="0.98" style="stop-color:#BFBB8A"/>
			</linearGradient>
			<rect class="st1" width="1600" height="900"/>
			<rect x="-16" y="705.2" class="st2" width="1632" height="209.8"/>
			<path class="st3" d="M575.9,812.3c0,0,153.8,0.1,153.8,0S741,891,741,891H563L575.9,812.3z"/>
			<polygon class="st3" points="729.7,812.2 887.6,812.4 861.3,762.8 722.8,762.8 			"/>
			<polygon class="st3" points="843.4,729.1 860.6,762.6 1004.4,762.6 971.2,729.6 			"/>
			<polygon class="st3" points="1076.2,729.1 1139.3,762.6 1322.4,762.6 1239,731 			"/>
			<polygon class="st3" points="887.6,812.3 929,891 1131,891 1053,812.4 			"/>
			<polygon class="st3" points="1052.9,812.3 1233.5,813.4 1137.2,762.6 1004.2,762.4 			"/>
			<polygon class="st3" points="1233.5,813.4 1380,891 1664,891 1460,813 			"/>
			<polygon class="st3" points="1239,730.4 1415,731 1338,707 1178,707 			"/>
			<polygon class="st3" points="831,705 843,729 718,728 715,704.4 			"/>
			<polygon class="st3" points="1033,706 1076,730 971,729 948,706 			"/>
			<polygon class="st3" points="586.5,762.8 445,763 413.1,811.2 577.1,812.3 			"/>
			<polygon class="st3" points="586.5,762.6 722.8,762.6 718,728 593,728.3 			"/>
			<polygon class="st3" points="299.7,762.6 444.2,762.6 467.2,728 334.1,728.3 			"/>
			<polygon class="st3" points="412.1,811.2 361,891 164,891 248.1,811 			"/>
			<polyline class="st3" points="78,811 247.8,811.2 298.5,763.5 164.9,763.5 80,812.3 			"/>
			<polygon class="st3" points="17,762 166,763 231.2,727.1 99,727 			"/>
			<polyline class="st3" points="231.2,727.1 335,727.9 360.5,702.6 269.8,704.5 231.2,729.1 			"/>
			<polygon class="st3" points="597.1,704.1 593,728.3 468.5,727.8 482.8,702 			"/>
			<polygon class="st3" points="1324.1,762.4 1460,813 1685,813 1522,763 			"/>
			<line class="st4" x1="274.5" y1="703.5" x2="0.5" y2="853.5"/>
			<line class="st4" x1="154.5" y1="703.5" x2="0.5" y2="768.5"/>
			<line class="st4" x1="34.5" y1="703.5" x2="0.5" y2="718.5"/>
			<line class="st4" x1="360.5" y1="703.5" x2="128.9" y2="924.9"/>
			<line class="st4" x1="482.5" y1="704.5" x2="318.6" y2="956.1"/>
			<line class="st4" x1="546.3" y1="973.8" x2="597.1" y2="704.9"/>
			<line class="st4" x1="715" y1="704.9" x2="755.5" y2="995"/>
			<line class="st4" x1="831.7" y1="706.9" x2="974.3" y2="975.8"/>
			<line class="st4" x1="948.8" y1="706.9" x2="1201.4" y2="962.6"/>
			<line class="st4" x1="1033.7" y1="706.9" x2="1486.5" y2="947.9"/>
			<line class="st4" x1="1176.8" y1="706.9" x2="1600.5" y2="866.5"/>
			<line class="st4" x1="1336.8" y1="706.9" x2="1600.5" y2="786.5"/>
			<line class="st4" x1="1496.8" y1="706.9" x2="1600.5" y2="738.5"/>
			<line class="st4" x1="0" y1="811.2" x2="1600" y2="813.4"/>
			<line class="st4" x1="0" y1="891.3" x2="1600" y2="891.3"/>
			<line class="st4" x1="0" y1="762.8" x2="1600" y2="762.8"/>
			<line class="st4" x1="0" y1="726.6" x2="1600" y2="731.6"/>
			<line class="st4" x1="0" y1="702.8" x2="1600" y2="707.8"/>
			<rect class="st5" width="1600" height="900"/>
		</g>
	</g>
</g>
</svg>
