<svg xmlns="http://www.w3.org/2000/svg" viewBox="0 0 576 473"><defs><style>.cls-1{fill:#f5ceb9;stroke:#a87552;stroke-miterlimit:10;stroke-width:0.75px;}.cls-2{fill:#f4a16a;opacity:0.58;}</style></defs><g id="Layer_19" data-name="Layer 19"><path class="cls-1" d="M481.35,451.06S460,329,471.29,307.47,510.76,270,523.64,243s19.13-50.78,48.14-77.15c12.29-11.17-9.75-23.9-23.62-20-26.69,7.56-42.32,42.11-48.38,43C484.7,192.51,520.48,40.23,492.25,39c-16.32-.69-23.5,42.14-26.77,61.73-4.62,27.73-10,38.91-14.19,38.2-6.6-1.13-5.05-29.29-5.43-61.69S443.82.32,427,0c-20.91-.39-19.56,51.46-21.25,75.23-1.43,20.19-4.13,56.3-5.88,56.15s-10.29-35.72-13-61.28-9.92-55.43-22.45-53c-17.17,3.28-12.53,39.1-12.57,59.18s4.67,64.43.88,67.63-29.42-66-45.89-58.66-2.17,36.59,7.54,62.75,14.15,56.46,26.3,95.16,26.16,51.85,28.86,65.46-7.4,151.7-7.4,151.7,67.51,31.73,119.24-9.22"/><path class="cls-2" d="M473.58,204.53c-37.16,12.39-51.43,67.6-51.43,67.6s29.37-62.64,51.43-67.6"/><path class="cls-2" d="M458.62,180.19s-53.37,5-83.87-2.09c23.66,10.37,67.83,10.87,83.87,2.09"/><path class="cls-2" d="M362.12,290.27c9.71,20.5,34.24,25.93,55.36,22.17,13.33-2.38-46.72,3.11-55.36-22.17"/><path class="cls-1" d="M94,451.06s21.4-122,10-143.59S64.62,270,51.74,243,32.6,192.22,3.6,165.85c-12.29-11.17,9.75-23.9,23.62-20,26.68,7.56,42.32,42.11,48.38,43C90.68,192.51,54.9,40.23,83.13,39c16.32-.69,23.5,42.14,26.77,61.73,4.62,27.73,10,38.91,14.18,38.2,6.61-1.13,5-29.29,5.44-61.69s2-77,18.87-77.28c20.91-.39,19.55,51.46,21.24,75.23,1.43,20.19,4.14,56.3,5.88,56.15s10.3-35.72,13-61.28,9.91-55.43,22.45-53c17.17,3.28,12.53,39.1,12.56,59.18s-4.67,64.43-.88,67.63,29.43-66,45.89-58.66S270.74,121.8,261,148s-14.15,56.46-26.31,95.16S208.57,295,205.87,308.58s7.39,151.7,7.39,151.7S145.76,492,94,451.06"/><path class="cls-2" d="M101.79,204.53c37.17,12.39,51.44,67.6,51.44,67.6s-29.38-62.64-51.44-67.6"/><path class="cls-2" d="M116.75,180.19s53.38,5,83.87-2.09C177,188.47,132.8,189,116.75,180.19"/><path class="cls-2" d="M213.26,290.27c-9.71,20.5-34.25,25.93-55.36,22.17-13.33-2.38,46.72,3.11,55.36-22.17"/></g></svg>