<svg xmlns="http://www.w3.org/2000/svg" viewBox="0 0 568 401"><defs><style>.cls-1{fill:#5fe8ff;}.cls-1,.cls-11{opacity:0.42;}.cls-10,.cls-2,.cls-3,.cls-4,.cls-5,.cls-6,.cls-7,.cls-8,.cls-9{fill:#fff;}.cls-2{opacity:0.69;}.cls-3{opacity:0.71;}.cls-4{opacity:0.81;}.cls-5{opacity:0.74;}.cls-6{opacity:0.76;}.cls-7{opacity:0.79;}.cls-8{opacity:0.86;}.cls-9{opacity:0.57;}.cls-10{opacity:0.75;}.cls-11{fill:#94c7d3;}</style></defs><g id="Layer_22" data-name="Layer 22"><path class="cls-1" d="M300,117.5a130.18,130.18,0,0,0,21.1,32.7,5,5,0,0,0,2.11,1.56c1.47.41,1.39-1.18,1.25-2.6v0c-.25-2.68,2.13-2.75,4.26-.21,2.33,2.76,4.58,5.81,7.12,7.94,3.24,2.72,6.6,3.64,8.63,2.36a3.78,3.78,0,0,0,1.47-4,18.66,18.66,0,0,0-2.12-5.49c-1.13-2.14-2.36-4.24-3.69-6.28a11.5,11.5,0,0,1-1.9-3.76c-.22-1.25.38-1.9.33-3-.06-1.32-1-3-1.26-4.49-.19-1-.12-1.78-.28-2.72a20.33,20.33,0,0,0-2.21-5.4l-6.88-13.16a78.33,78.33,0,0,0-6.85-11.44,40.37,40.37,0,0,0-10.64-9.52,20,20,0,0,0-5.83-2.7c-3.32-.72-4.51,1.4-6.54,3.23a6.48,6.48,0,0,0-2.14,3,19.55,19.55,0,0,0-.45,7,43.56,43.56,0,0,0,2.12,8.76,73.69,73.69,0,0,0,3.46,8.87c2.32,4.76,3.77,8.29,5.62,13"/><path class="cls-1" d="M512.16,174.26c-9.25,8.88,8.3,8,2.26,19.12a5,5,0,0,0-.75,2.52c.1,1.52,1.57.9,2.86.29l.05,0c2.44-1.14,3.3,1.08,1.64,3.94-1.82,3.13-3.93,6.28-5.08,9.39-1.47,4-1.2,7.44.7,8.91,1,.76,2.45,1,4.25,0a18.57,18.57,0,0,0,4.45-3.85c1.63-1.78,3.2-3.65,4.66-5.59a11.42,11.42,0,0,1,2.91-3.06c1.09-.62,1.91-.28,3-.71,1.22-.5.55-1.6,1.82-2.37.84-.51,0-1.74.86-2.21,1.49-.83,1-2.24,2.34-3.74,3.35-3.64,6.06-9.79,9.42-13.43,3-3.26,7.77-9.25,10.7-12.54s6-4.57,7.88-7.34a12.57,12.57,0,0,0,2-7c-.44-3.37-2.49-5.07-4.89-6.37-1.06-.57-5-3.1-6.38-3.54-3.17-1-13-2.44-15.17-1.4-3.12,1.54-10.12,3.79-13.13,6-2,1.5-10.29,8.26-12.2,10.22-3.7,3.79-1.17,10.21-5,13.53"/><path class="cls-1" d="M347.35,39.54a102.84,102.84,0,0,0,.59,32.72,4.14,4.14,0,0,0,.88,2c.92,1,1.61-.23,2.18-1.3l0,0c1.08-2,2.92-1,3.35,1.74A51.77,51.77,0,0,0,356,83.54c1.18,3.39,3.31,5.53,5.46,5.52a3.4,3.4,0,0,0,3-2.2,14.87,14.87,0,0,0,1-4.86,59.48,59.48,0,0,0,.16-6.12,9.09,9.09,0,0,1,.33-3.53c.43-1,1.19-1.19,1.7-2s.7-2.58,1.17-3.76c.3-.77.74-1.32,1.07-2.07a15.87,15.87,0,0,0,.87-4.84l1-12.45A60.91,60.91,0,0,0,372,36a32.25,32.25,0,0,0-3.61-11.51A16.36,16.36,0,0,0,365.21,20c-2.18-2-4.1-1-6.51-.6a6.12,6.12,0,0,0-3.06,1.21A16.6,16.6,0,0,0,352,25.39a35.35,35.35,0,0,0-2.53,7.2,56.5,56.5,0,0,0-1.56,7.87c-.49,4.43-1.06,7.59-1.87,11.75"/><path class="cls-1" d="M403,30.87a143.24,143.24,0,0,0,.81,45.43,5.78,5.78,0,0,0,1.21,2.85c1.27,1.31,2.22-.32,3-1.81l0,0c1.49-2.82,4-1.42,4.63,2.41.64,4.17,1,8.59,2.3,12.26,1.63,4.7,4.56,7.68,7.54,7.66a4.66,4.66,0,0,0,4.16-3.05,20.9,20.9,0,0,0,1.36-6.75c.21-2.81.29-5.66.22-8.5a12.65,12.65,0,0,1,.46-4.9c.59-1.37,1.65-1.65,2.34-2.81.8-1.35,1-3.59,1.61-5.22.43-1.08,1-1.84,1.49-2.88a22.52,22.52,0,0,0,1.21-6.71l1.36-17.29A84.47,84.47,0,0,0,437,25.94a44.88,44.88,0,0,0-5-16,23,23,0,0,0-4.37-6.28c-3-2.76-6.52-2.77-9.85-2.21a8.69,8.69,0,0,0-4.32,1.7c-1.67,1.35-3,3.76-4.3,6.25-1.85,3.68-2.11,7.59-3.32,11.8a78.74,78.74,0,0,0-2.16,10.92c-.68,6.15-1.46,10.55-2.58,16.33"/><path class="cls-1" d="M465.93,67.9a146.82,146.82,0,0,0-4.33,44.67,5.74,5.74,0,0,0,.83,2.92c1.06,1.43,2.14-.07,3.05-1.45l0,0c1.73-2.6,4-1,4.12,2.86.13,4.17,0,8.54.79,12.29,1,4.78,3.46,8,6.28,8.32,1.46.16,3.08-.52,4.28-2.54a21,21,0,0,0,2-6.48c.52-2.73.91-5.52,1.16-8.31a12.87,12.87,0,0,1,1-4.76c.71-1.28,1.74-1.43,2.53-2.5.91-1.24,1.32-3.42,2.11-4.95.52-1,1.19-1.7,1.73-2.66a23,23,0,0,0,1.9-6.46L496.68,82a86.7,86.7,0,0,0,2-15.24,45.25,45.25,0,0,0-2.92-16.22,22.67,22.67,0,0,0-3.43-6.63c-2.54-3-5.86-3.43-9.08-3.24a8.11,8.11,0,0,0-4.27,1.2c-1.74,1.15-3.31,3.36-4.77,5.67-2.17,3.41-2.85,7.21-4.48,11.21a80.31,80.31,0,0,0-3.26,10.49c-1.34,6-2.57,10.19-4.28,15.74"/><path class="cls-1" d="M268.79,116.35a130.45,130.45,0,0,1-19.41,33.73,5.09,5.09,0,0,1-2,1.66c-1.44.49-1.44-1.1-1.37-2.53v-.05c.11-2.69-2.27-2.64-4.27,0-2.18,2.88-4.28,6-6.71,8.3-3.1,2.88-6.4,4-8.49,2.79a3.79,3.79,0,0,1-1.68-3.91,18.66,18.66,0,0,1,1.84-5.59c1-2.19,2.15-4.36,3.37-6.46a11.58,11.58,0,0,0,1.71-3.85c.15-1.26-.48-1.88-.49-3,0-1.33.8-3.07,1-4.54.15-1,0-1.79.14-2.74a20.26,20.26,0,0,1,1.94-5.51l6.2-13.49a76.61,76.61,0,0,1,6.27-11.77,40.09,40.09,0,0,1,10.14-10,19.84,19.84,0,0,1,5.69-3c3.27-.9,4.56,1.16,6.69,2.88a6.63,6.63,0,0,1,2.29,2.91,19.7,19.7,0,0,1,.8,7,43.06,43.06,0,0,1-1.67,8.86,70.8,70.8,0,0,1-3,9c-2.07,4.88-3.34,8.47-4.95,13.24"/><path class="cls-1" d="M55.84,173c9.25,8.88-8.3,8-2.26,19.12a5.07,5.07,0,0,1,.75,2.52c-.1,1.52-1.57.9-2.86.3l0,0c-2.44-1.13-3.3,1.08-1.64,3.95,1.82,3.12,3.93,6.27,5.08,9.38,1.47,4,1.2,7.44-.7,8.92-1,.76-2.45,1-4.25,0a18.57,18.57,0,0,1-4.45-3.85c-1.63-1.77-3.2-3.65-4.66-5.59a11.57,11.57,0,0,0-2.91-3.06c-1.09-.62-1.91-.28-3-.71-1.22-.5-.55-1.6-1.82-2.37-.84-.51,0-1.73-.86-2.2-1.49-.84-1-2.25-2.34-3.75-3.35-3.64-6.06-9.79-9.42-13.43-3-3.26-7.77-9.25-10.7-12.54s-6-4.56-7.88-7.34a12.52,12.52,0,0,1-2-7C.29,152,2.34,150.29,4.74,149c1.06-.57,5-3.09,6.38-3.54,3.17-1,13.05-2.44,15.17-1.4,3.12,1.55,10.12,3.79,13.13,6,2,1.5,10.29,8.27,12.2,10.22,3.7,3.79,1.17,10.22,5,13.54"/><path class="cls-1" d="M221.81,41.15a102.78,102.78,0,0,1-4,32.48,4.13,4.13,0,0,1-1.09,2c-1,.84-1.57-.4-2-1.53v0c-.86-2.13-2.81-1.32-3.52,1.38A53.13,53.13,0,0,1,208.55,84c-1.53,3.24-3.87,5.15-6,4.9a3.35,3.35,0,0,1-2.77-2.5,14.9,14.9,0,0,1-.46-4.94,59.88,59.88,0,0,1,.48-6.1,9.05,9.05,0,0,0,0-3.55c-.32-1-1.06-1.3-1.47-2.19s-.43-2.64-.77-3.86c-.22-.8-.6-1.39-.85-2.17a16.09,16.09,0,0,1-.36-4.9l.33-12.49a60.27,60.27,0,0,1,1-11.17A31.94,31.94,0,0,1,202.49,24a16.9,16.9,0,0,1,3.62-4.16c2.38-1.75,4.18-.56,6.54.09a6.16,6.16,0,0,1,2.92,1.52,16.6,16.6,0,0,1,3.14,5.19A34.4,34.4,0,0,1,220.47,34a55.42,55.42,0,0,1,.73,8c0,4.46.25,7.66.62,11.89"/><path class="cls-1" d="M165.16,29.31a143.24,143.24,0,0,1-.81,45.43,5.7,5.7,0,0,1-1.21,2.84c-1.28,1.32-2.23-.31-3-1.8l0,0c-1.49-2.82-4-1.42-4.63,2.41-.64,4.17-1,8.59-2.3,12.26-1.63,4.7-4.56,7.68-7.54,7.66a4.67,4.67,0,0,1-4.16-3,20.39,20.39,0,0,1-1.36-6.75,83,83,0,0,1-.22-8.5,12.92,12.92,0,0,0-.46-4.91c-.59-1.36-1.65-1.64-2.34-2.8-.81-1.35-1-3.59-1.62-5.22-.42-1.08-1-1.85-1.48-2.88a22.21,22.21,0,0,1-1.21-6.71l-1.36-17.3a84.35,84.35,0,0,1-.27-15.56,45,45,0,0,1,5-16,23.08,23.08,0,0,1,4.37-6.27c3-2.76,6.51-2.77,9.85-2.21a8.69,8.69,0,0,1,4.32,1.7c1.67,1.35,3,3.76,4.3,6.25,1.85,3.68,2.11,7.59,3.32,11.8a78.74,78.74,0,0,1,2.16,10.92c.68,6.15,1.46,10.54,2.58,16.33"/><path class="cls-1" d="M98.85,68a153.72,153.72,0,0,1,4.36,44.66,5.79,5.79,0,0,1-.77,2.91c-1,1.42-2-.08-2.92-1.46l0,0c-1.66-2.6-3.8-1-3.9,2.85-.11,4.16,0,8.53-.69,12.27-1,4.77-3.26,8-5.94,8.28-1.39.15-2.94-.53-4.1-2.56a22.13,22.13,0,0,1-2-6.48c-.51-2.74-.9-5.52-1.15-8.31a13.75,13.75,0,0,0-1-4.77c-.68-1.28-1.67-1.44-2.43-2.52s-1.28-3.42-2-4.95c-.5-1-1.13-1.7-1.66-2.67a23.68,23.68,0,0,1-1.84-6.46L69.62,81.91a90.62,90.62,0,0,1-2-15.24,47.06,47.06,0,0,1,2.69-16.2,23.08,23.08,0,0,1,3.24-6.6c2.4-3,5.56-3.4,8.63-3.2a7.53,7.53,0,0,1,4.08,1.23c1.67,1.16,3.17,3.37,4.58,5.69,2.08,3.42,2.76,7.23,4.32,11.23a84.74,84.74,0,0,1,3.18,10.5c1.3,6,2.5,10.19,4.15,15.75"/><path class="cls-1" d="M87.81,182.68c3-3.74,4.5-8.7,6.63-13.15s5.42-8.78,9.84-9.42c9.85-1.42,17,15.75,26.52,12.47,5.93-2,7.52-10.42,10.15-16.8,3.08-7.45,9.15-13.57,16.32-14.75a16,16,0,0,1,17.42,11.21c.65,2.18.89,4.53,1.87,6.54,2.72,5.55,9.7,6,15,4s10.35-5.49,15.93-5.47c6.05,0,11.86,4.82,13.75,11.35,2.67,9.2-2,19.38-.12,28.81,1.77,8.64,9,16.59,6.34,25-.73,2.33-2.2,4.35-2.55,6.79-.52,3.6,1.49,6.95,2.66,10.34A21.61,21.61,0,0,1,226,257.33c-3.09,5.08-8.82,8.06-14.17,6.94-3.25-.69-6.39-2.76-9.66-2.19-5,.88-7.48,7.13-10,12.14-2.27,4.57-5.34,8.8-9.41,11.26s-9.28,2.91-13.25.23c-6.29-4.27-7.24-14-8-22.26s-3.26-18.14-10.33-20.3-13.59,5-18.87,11-13.83,11.33-19.55,5.95c-6.83-6.43-2-21.8-9.46-27.22-4.81-3.49-11.22,0-16.81-1.3-4.46-1-8.18-5.39-8.92-10.49s1.53-10.61,5.47-13.21c2.77-1.83,6.71-3,7.16-6.6s-2.93-5.89-5.16-8.4-2.39-8.37.74-8.2"/><path class="cls-1" d="M347.62,169.46c3-3.63,4.42-8.43,6.52-12.74s5.35-8.52,9.7-9.14c9.71-1.37,16.78,15.28,26.14,12.09,5.84-2,7.41-10.1,10-16.28,3-7.23,9-13.16,16.08-14.31A15.77,15.77,0,0,1,433.23,140c.65,2.11.88,4.4,1.85,6.34,2.67,5.38,9.56,5.79,14.8,3.92s10.2-5.32,15.7-5.3c6,0,11.69,4.67,13.55,11,2.63,8.92-2,18.79-.12,27.93,1.75,8.38,8.84,16.09,6.25,24.19-.72,2.25-2.17,4.22-2.51,6.58-.51,3.49,1.46,6.74,2.62,10a20.66,20.66,0,0,1-1.55,17.19c-3,4.93-8.7,7.81-14,6.73-3.21-.66-6.3-2.67-9.52-2.12-4.93.85-7.38,6.91-9.84,11.77-2.24,4.43-5.26,8.52-9.27,10.91s-9.15,2.83-13.06.22c-6.2-4.14-7.14-13.53-7.9-21.57s-3.2-17.59-10.18-19.68-13.39,4.86-18.6,10.62-13.62,11-19.26,5.77c-6.73-6.23-2-21.14-9.32-26.39-4.74-3.39-11.06,0-16.57-1.26-4.4-1-8.06-5.22-8.79-10.17s1.51-10.28,5.39-12.8c2.73-1.78,6.61-2.9,7.05-6.41s-2.88-5.71-5.08-8.13-2.36-8.12.73-7.95"/><path class="cls-2" d="M545.32,148.08c-9.38,1.58-20,7.94-23.6,15.75-.82.4-.8,2.37-.91,3-.3,2,2.28,2.81,4.07,1.44,6.3-4.81,10.26-11.43,23.23-13.76.7-.13,5.68.06,6.36,0C568.47,154.31,554.18,146.67,545.32,148.08Z"/><path class="cls-3" d="M477.5,50.62c-2.21,3.54-3.45,13.32-4.57,22.69a1.75,1.75,0,0,0,3.14,1.49c2.25-6.39,2.41-13.63,7.23-16.81a4.82,4.82,0,0,0,1.13-1c1.84-2.25,5-4.06,5.14-7s-2.2-6.27-5.09-5.82A8.68,8.68,0,0,0,477.5,50.62Z"/><path class="cls-3" d="M410.25,13.42C408,17,406.8,26.74,405.68,36.11a1.76,1.76,0,0,0,3.14,1.5c2.25-6.4,2.41-13.64,7.23-16.82a4.82,4.82,0,0,0,1.13-1c1.84-2.25,5-4.05,5.14-7s-2.2-6.27-5.09-5.82A8.69,8.69,0,0,0,410.25,13.42Z"/><path class="cls-4" d="M351.09,31.31c-1.31,4.05.58,13.74,2.48,23,0,2,3.36,2.42,4.06.47.39-6.79-1.87-13.74,2.53-18.24a5.27,5.27,0,0,0,.94-1.33c1.32-2.7,4.29-5.39,3.47-8.22s-4.61-5.31-7.74-4S350.84,27.36,351.09,31.31Z"/><path class="cls-5" d="M153.63,11.77c2.71,3.17,5.37,12.66,7.86,21.77a1.75,1.75,0,0,1-2.87,1.94c-3.17-6-4.4-13.13-9.64-15.56a5.17,5.17,0,0,1-1.27-.86c-2.15-1.95-5.53-3.27-6.11-6.14s1.25-6.53,4.18-6.51A8.66,8.66,0,0,1,153.63,11.77Z"/><path class="cls-6" d="M213.94,31.91c1.62,3.84,1.28,13.69.89,23.13a1.75,1.75,0,0,1-3.33,1c-1.2-6.67-.2-13.85-4.46-17.75a5,5,0,0,1-.95-1.2c-1.46-2.51-4.28-4.8-4-7.71s3.17-5.84,6-4.93A8.66,8.66,0,0,1,213.94,31.91Z"/><path class="cls-4" d="M242.51,111.71c4.42-8.21,13.32-16.77,21.18-18.85.61-.68,2.29-.36,2.9-.35,1.79,0,1.66,2.47-.1,3.88-6.18,4.94-13.13,7.5-19.36,18.82-.34.61-1.81,5.13-2.09,5.73C240.25,133.5,238.4,119.47,242.51,111.71Z"/><path class="cls-7" d="M86.11,55.55c2.71,3.17,5.37,12.66,7.87,21.77a1.75,1.75,0,0,1-2.88,1.94c-3.17-6-4.4-13.14-9.64-15.57a5.13,5.13,0,0,1-1.27-.85c-2.15-2-5.53-3.27-6.11-6.15s1.25-6.52,4.18-6.5A8.65,8.65,0,0,1,86.11,55.55Z"/><path class="cls-6" d="M20.64,149.79C29.9,150.86,41.15,156,46,162.49c.85.32,1.18,2,1.4,2.57.63,1.67-1.69,2.45-3.65,1.34-6.87-3.91-11.82-9.42-24.64-11-.7-.08-5.44.22-6.1.18C-.45,155.75,11.91,148.84,20.64,149.79Z"/><path class="cls-8" d="M314.64,96.23c3.45,2.63,6.83,11.94,10,20.89,1.14,1.69-1.94,4-3.68,2.82-4-5.49-5.58-12.7-12.27-13.87a5.27,5.27,0,0,1-1.62-.56c-2.74-1.49-7.06-2-7.79-4.86s1.6-7.23,5.34-8S312.75,92.76,314.64,96.23Z"/><path class="cls-9" d="M102.54,156.13c5.3-1.56,18.53-.63,31.18.33,2.73-.21,3.61,2.92,1.05,3.73-9.07.95-18.64-.56-24.24,3.91a6.86,6.86,0,0,1-1.69,1c-3.5,1.46-6.8,4.45-10.69,3.92s-7.6-3.82-6.15-6.84S97.21,156.24,102.54,156.13Z"/><path class="cls-10" d="M83.56,202.22c9.27,1.08,20.51,6.17,25.35,12.71.86.31,1.18,2,1.4,2.56.63,1.67-1.69,2.46-3.64,1.35-6.88-3.92-11.82-9.43-24.65-11-.7-.09-5.43.21-6.1.18C62.48,208.19,74.83,201.28,83.56,202.22Z"/><path class="cls-9" d="M340,171.6c4.28-3.77,17.23-6.85,29.65-9.7,2.48-1.17,4.78,2.63,2.74,4.53-8.14,4.18-17.9,5.33-21.09,13a7.2,7.2,0,0,1-1.14,1.84c-2.63,3-4.35,8-8.27,8.59s-9-2.52-9-6.93S335,173.47,340,171.6Z"/><path class="cls-10" d="M450.74,211.8c7.31-5.79,18.87-10.14,26.91-9,.83-.38,2.24.58,2.8.83,1.63.73.54,2.93-1.63,3.53-7.62,2.09-15,1.69-25.22,9.63-.55.43-3.69,4-4.19,4.44C440.05,230.92,443.9,217.3,450.74,211.8Z"/><path class="cls-1" d="M516.17,243.89c-11.77,21.35-27.38,32.11-43.95,51.54-28.92,28.53-15.67,2.94-10.87-7.94s-1.87-17.19-1.87-17.19-9.47-20.71,23.87-14.74,15.44-14.06,18.6-25.27S526.51,215.55,516.17,243.89Z"/><path class="cls-1" d="M38.4,217.53S50.78,250.43,68.28,268c0,0,31.38,28.72,33.91,38.2,0,0,6.33,19,2.1,64.22S116.89,398,116.89,398s1-21.46,6.56-22.72,7.2,4.64,12.29-9.25-7.84-21.83-.93-24.9,1.21-43.92-7.7-55c-17.32-21.63-61-28.18-55.62-42.2s-13.81-17-9.59-1.51S38.4,217.53,38.4,217.53Z"/><path class="cls-1" d="M331.38,222s8.07,40.92,19.94,57.57c0,0,7.77,14.25,12.12,20.18,0,0,5.62,19.23-.32,64.26s11.55,28.08,11.55,28.08,1.8-21.41,7.41-22.47,7,4.92,12.64-8.77-7-22.11,0-24.92,4.45-27.88-4-39.32c-16.49-22.27-33.14-33.2-27.23-47s-13.16-17.54-9.53-1.87S331.38,222,331.38,222Z"/><ellipse class="cls-1" cx="387.42" cy="263.86" rx="7.72" ry="8.89"/><circle class="cls-1" cx="408.48" cy="382.02" r="6.32"/><circle class="cls-11" cx="498.68" cy="200.01" r="6.32"/><circle class="cls-1" cx="461.35" cy="135.73" r="6.32"/><ellipse class="cls-1" cx="405.78" cy="346.57" rx="5.26" ry="6.2"/><ellipse class="cls-1" cx="398.78" cy="282.51" rx="5.26" ry="6.2"/><ellipse class="cls-1" cx="143.3" cy="282.09" rx="7.72" ry="8.89"/><ellipse class="cls-1" cx="85.52" cy="247.72" rx="7.72" ry="8.89"/><ellipse class="cls-1" cx="232.52" cy="185.84" rx="7.72" ry="8.89"/><circle class="cls-1" cx="120.31" cy="389.97" r="6.32"/><ellipse class="cls-1" cx="205.02" cy="279.07" rx="5.26" ry="6.2"/></g></svg>