<?xml version="1.0" encoding="utf-8"?>
<!-- Generator: Adobe Illustrator 25.2.3, SVG Export Plug-In . SVG Version: 6.00 Build 0)  -->
<svg version="1.1" id="Layer_1" xmlns="http://www.w3.org/2000/svg" xmlns:xlink="http://www.w3.org/1999/xlink" x="0px" y="0px"
	 viewBox="0 0 1600 900" style="enable-background:new 0 0 1600 900;" xml:space="preserve">
<style type="text/css">
	.st0{clip-path:url(#SVGID_2_);}
	.st1{fill:#003189;}
	.st2{fill:#EC008C;}
	.st3{fill:#F400F4;}
	.st4{fill:#7AC943;}
	.st5{fill:#A62CA2;}
	.st6{fill:#29ABE2;}
	.st7{fill:#FF9CC2;}
	.st8{fill:#FBBE00;}
	.st9{fill:#581600;}
	.st10{fill:#2BE21B;}
	.st11{fill:#FFF6ED;}
	.st12{fill:#2C275B;}
	.st13{fill:#0AE9EF;}
	.st14{fill:#FFFFFF;}
	.st15{fill:#EF5925;}
	.st16{fill:#E7412B;}
	.st17{fill:#FF00C9;}
	.st18{fill:#FF9D00;}
	.st19{fill:#E63D11;}
	.st20{fill:#DCF23B;}
	.st21{fill:#FDEBDB;}
	.st22{fill:#14DEE2;}
	.st23{fill:#D40075;}
	.st24{fill:#260000;}
	.st25{fill:#F8AF00;}
	.st26{fill:#E84F35;}
	.st27{fill:#FFCD00;}
	.st28{fill:#4E3F87;}
	.st29{fill:#312782;}
	.st30{fill:#89D1F5;}
</style>
<g id="Layer_9">
	<g>
		<defs>
			<rect id="SVGID_1_" width="1600" height="900"/>
		</defs>
		<clipPath id="SVGID_2_">
			<use xlink:href="#SVGID_1_"  style="overflow:visible;"/>
		</clipPath>
		<g class="st0">
			<rect class="st1" width="1600" height="900"/>
			<path class="st2" d="M919.7,763.2c6.6,0,13.3-5.3,13.5-12.2c0.3-7-6.1-11.6-12.6-11.6s-13.3,5.3-13.5,12.2
				C906.8,758.6,913.1,763.2,919.7,763.2L919.7,763.2z"/>
			<path class="st3" d="M1193.5,125.2c6,0,12-4.8,12.2-11s-5.5-10.5-11.4-10.5s-12,4.8-12.2,11
				C1181.8,121.1,1187.6,125.2,1193.5,125.2z"/>
			<path class="st4" d="M457.6,368c6,0,12-4.8,12.2-11s-5.5-10.5-11.4-10.5s-12,4.8-12.2,11S451.7,368,457.6,368z"/>
			<path class="st4" d="M1369.9,226.2c6,0,12-4.8,12.2-11c0.2-6.4-5.5-10.5-11.4-10.5s-12,4.8-12.2,11
				C1358.2,222,1363.9,226.2,1369.9,226.2z"/>
			<path class="st5" d="M918.5,283.2c6,0,12-4.8,12.2-11s-5.5-10.5-11.4-10.5s-12,4.8-12.2,11S912.6,283.2,918.5,283.2z"/>
			<path class="st3" d="M1370.7,387.5c6,0,12-4.8,12.2-11s-5.5-10.5-11.4-10.5s-12,4.8-12.2,11S1364.8,387.5,1370.7,387.5
				L1370.7,387.5z"/>
			<path class="st4" d="M764.2,741.7c6,0,12-4.8,12.2-11s-5.5-10.5-11.4-10.5s-12,4.8-12.2,11S758.2,741.7,764.2,741.7L764.2,741.7z
				"/>
			<path class="st4" d="M426.4,751.1c6,0,12-4.8,12.2-11s-5.5-10.5-11.4-10.5s-12,4.8-12.2,11S420.5,751.1,426.4,751.1L426.4,751.1z
				"/>
			<path class="st4" d="M432.4,407.1c2.9,0,5.3-2.1,5.6-5c0.1-2.9-2.5-4.8-5.2-4.8c-2.9,0-5.3,2.1-5.6,5
				C427.1,405.2,429.7,407.1,432.4,407.1L432.4,407.1z"/>
			<path class="st3" d="M1181.8,334.1c6,0,12-4.8,12.2-11s-5.5-10.5-11.4-10.5s-12,4.8-12.2,11S1175.9,334.1,1181.8,334.1z"/>
			<path class="st2" d="M1156.6,373.1c2.9,0,5.3-2.1,5.6-5c0.1-2.9-2.5-4.8-5.2-4.8c-2.9,0-5.3,2.1-5.6,5
				C1151.3,371.2,1153.9,373.1,1156.6,373.1z"/>
			<path class="st5" d="M245.6,376.2c2.9,0,5.3-2.1,5.6-5c0.1-2.9-2.5-4.8-5.2-4.8c-2.9,0-5.3,2.1-5.6,5
				C240.3,374.3,242.9,376.2,245.6,376.2z"/>
			<path class="st4" d="M235.9,607.4c2.9,0,5.3-2.1,5.6-5c0.1-2.9-2.5-4.8-5.2-4.8c-2.9,0-5.3,2.1-5.6,5
				C230.6,605.5,233.2,607.4,235.9,607.4z"/>
			<path class="st2" d="M230.3,298.8c-0.2,2.9,1.8,5.4,4.6,5.9c2.9,0.3,5-2.2,5.1-4.9c0.2-2.9-1.8-5.4-4.6-5.9
				C232.5,293.6,230.4,296.1,230.3,298.8L230.3,298.8z"/>
			<path class="st4" d="M842.1,460.3c2.9,0,5.3-2.1,5.6-5c0.1-2.9-2.5-4.8-5.2-4.8c-2.9,0-5.3,2.1-5.6,5
				C836.8,458.4,839.4,460.3,842.1,460.3L842.1,460.3z"/>
			<path class="st4" d="M580.2,484.5c2.9,0,5.3-2.1,5.6-5c0.1-2.9-2.5-4.8-5.2-4.8c-2.9,0-5.3,2.1-5.6,5
				C574.9,482.6,577.5,484.5,580.2,484.5L580.2,484.5z"/>
			<path class="st4" d="M929.8,323.4c2.9,0,5.3-2.1,5.6-5c0.1-2.9-2.5-4.8-5.2-4.8c-2.9,0-5.3,2.1-5.6,5
				C924.4,321.5,927.1,323.4,929.8,323.4z"/>
			<path class="st2" d="M474.4,775.6c2.9,0,5.3-2.1,5.6-5c0.1-2.9-2.5-4.8-5.2-4.8c-2.9,0-5.3,2.1-5.6,5
				C469,773.7,471.7,775.6,474.4,775.6z"/>
			<path class="st2" d="M531.4,98.3c2.9,0,5.3-2.1,5.6-5c0.1-2.9-2.5-4.8-5.2-4.8c-2.9,0-5.3,2.1-5.6,5
				C526.1,96.4,528.7,98.3,531.4,98.3z"/>
			<path class="st5" d="M728.6,717.4c2.9,0,5.3-2.1,5.6-5c0.1-2.9-2.5-4.8-5.2-4.8c-2.9,0-5.3,2.1-5.6,5
				C723.3,715.5,725.9,717.4,728.6,717.4z"/>
			<path class="st4" d="M1326.6,278.3c-6,0.8-11.3,6.2-10.8,12.4s6.8,9.7,12.6,9s11.3-6.2,10.8-12.4S1332.5,277.6,1326.6,278.3
				L1326.6,278.3z"/>
			<path class="st5" d="M1346.6,303.3c-2.7,0.3-5.2,2.8-4.9,5.7s3.1,4.5,5.8,4.1s5.2-2.8,4.9-5.7S1349.3,303,1346.6,303.3z"/>
			<path class="st4" d="M1319.8,359.9c-2.9,0.3-5,2.8-4.9,5.7c0.3,2.9,3.1,4.5,5.8,4.1c2.9-0.3,5-2.8,4.9-5.7
				C1325.3,361.2,1322.4,359.6,1319.8,359.9z"/>
			<path class="st2" d="M365,98.6c4.7-3.7,6.5-11.2,2.8-16.2s-10.8-4.9-15.4-1.2s-6.5,11.2-2.8,16.2S360.4,102.3,365,98.6L365,98.6z
				"/>
			<path class="st4" d="M335,87.5c2.3-1.8,2.8-5,1.3-7.4c-1.7-2.3-4.9-2.2-7.1-0.6s-3,5.1-1.3,7.4S332.9,89.2,335,87.5z"/>
			<path class="st5" d="M1290.3,75.2c3.1,1.6,7.5,0.7,9.3-2.5s-0.1-6.9-3.2-8.5s-7.5-0.7-9.3,2.5
				C1285.3,69.9,1287.2,73.6,1290.3,75.2z"/>
			<path class="st5" d="M1051.9,185.6c2.9,0,5.3-2.1,5.6-5c0.1-2.9-2.5-4.8-5.2-4.8c-2.9,0-5.3,2.1-5.6,5
				C1046.6,183.7,1049.2,185.6,1051.9,185.6L1051.9,185.6z"/>
			<path class="st4" d="M654.8,229.7c3.9,0,7.8-3.1,8-7.1s-3.6-6.8-7.4-6.8s-7.8,3.1-8,7.1S651,229.7,654.8,229.7L654.8,229.7z"/>
			<path class="st4" d="M663.6,256.7c2.9,0,5.3-2.1,5.6-5c0.1-2.9-2.5-4.8-5.2-4.8c-2.9,0-5.3,2.1-5.6,5
				C658.2,254.8,660.9,256.7,663.6,256.7z"/>
			<path class="st6" d="M590.7,524c3.6,0,7.2-2.9,7.3-6.6s-3.3-6.3-6.8-6.3s-7.2,2.9-7.3,6.6S587.1,524,590.7,524z"/>
			<path class="st4" d="M224.6,431.2c3.6,0,7.2-2.9,7.3-6.6s-3.3-6.3-6.9-6.3s-7.2,2.9-7.3,6.6S221,431.2,224.6,431.2z"/>
			<path class="st4" d="M1332.3,144.3c2.9,0,5.3-2.1,5.6-5c0.1-2.9-2.5-4.8-5.2-4.8c-2.9,0-5.3,2.1-5.6,5
				C1327,142.4,1329.6,144.3,1332.3,144.3z"/>
			<path class="st4" d="M1217.5,85.2c2.9,0,5.3-2.1,5.6-5c0.1-2.9-2.5-4.8-5.2-4.8c-2.9,0-5.3,2.1-5.6,5
				C1212.2,83.3,1214.8,85.2,1217.5,85.2L1217.5,85.2z"/>
			<path class="st4" d="M1036.8,159.2c6,0,12-4.8,12.2-11c0.2-6.4-5.5-10.5-11.4-10.5s-12,4.8-12.2,11
				C1025.2,155.1,1030.9,159.2,1036.8,159.2z"/>
			<path class="st4" d="M321.8,186c3.6-16.1,4.5-29.6,8.9-45c3.4,9.9,12.5,43.9,12.5,43.9s35.1,3,44.9,4.1
				c-15.3,6.8-46.2,13.9-46.2,13.9s-4,22.4-9.4,42.1c-3.9-13.5-6.9-27.3-9-41.2c0,0-29.5-2.7-47.4-8.1
				C291.3,192.2,303.9,189.5,321.8,186z"/>
			<path class="st2" d="M258.4,225.4c1.5-6.6,1.8-12,3.6-18.3c1.4,4,5.1,17.9,5.1,17.9s14.3,1.2,18.3,1.7
				c-6.2,2.8-18.8,5.7-18.8,5.7s-1.6,9.1-3.8,17.1c-1.6-5.5-2.8-11.1-3.6-16.8c0,0-12-1.1-19.4-3.3
				C246,227.9,251.1,226.8,258.4,225.4z"/>
			<path class="st4" d="M485.8,63c1.5-6.6,1.8-12,3.6-18.3c1.4,4,5.1,17.9,5.1,17.9s14.3,1.2,18.3,1.7C506.6,67,494,70,494,70
				s-1.6,9.1-3.8,17.2c-1.6-5.5-2.8-11.1-3.6-16.8c0,0-12-1.2-19.3-3.4C473.4,65.6,478.5,64.5,485.8,63z"/>
			<path class="st4" d="M564.5,233.5c1.1-4.9,1.4-9,2.7-13.7c1,3,3.8,13.4,3.8,13.4s10.7,0.9,13.7,1.3c-4.7,2.1-14.1,4.3-14.1,4.3
				s-1.2,6.8-2.9,12.9c-1.2-4.1-2.1-8.3-2.7-12.6c0,0-9-0.8-14.5-2.5C555.3,235.4,559.1,234.6,564.5,233.5z"/>
			<path class="st5" d="M847,82c1.5-6.6,1.8-12,3.6-18.3c1.4,4,5.1,17.9,5.1,17.9s14.3,1.2,18.3,1.7c-6.2,2.8-18.8,5.7-18.8,5.7
				s-1.6,9.1-3.8,17.2c-1.6-5.5-2.8-11.1-3.7-16.8c0,0-12-1.1-19.3-3.3C834.6,84.5,839.7,83.4,847,82z"/>
			<path class="st2" d="M1068.5,752.5c2.3-10.5,2.9-19.3,5.8-29.3c2.2,6.4,8.2,28.6,8.2,28.6s22.9,1.9,29.3,2.7
				c-10,4.4-30.1,9.1-30.1,9.1s-2.6,14.6-6.1,27.4c-2.5-8.8-4.5-17.8-5.8-26.8c0,0-19.3-1.8-30.9-5.3
				C1048.6,756.5,1056.8,754.8,1068.5,752.5z"/>
			<path class="st4" d="M1143.4,818.3c2.3-10.5,2.9-19.3,5.8-29.3c2.2,6.4,8.2,28.6,8.2,28.6s22.9,1.9,29.3,2.7
				c-10,4.4-30.1,9.1-30.1,9.1s-2.6,14.6-6.1,27.4c-2.5-8.8-4.5-17.8-5.8-26.8c0,0-19.3-1.8-30.9-5.3
				C1123.5,822.4,1131.7,820.6,1143.4,818.3z"/>
			<path class="st4" d="M1286.8,662.4c1.9-8.5,2.3-15.5,4.7-23.7c1.8,5.2,6.6,23.1,6.6,23.1s18.5,1.6,23.6,2.2
				c-8,3.6-24.3,7.3-24.3,7.3s-2.1,11.8-5,22.2c-2-7.1-3.6-14.4-4.7-21.7c0,0-15.6-1.4-25-4.2
				C1270.8,665.7,1277.4,664.3,1286.8,662.4z"/>
			<path class="st4" d="M415.6,812.5c3.3-10.2,4.7-18.8,8.5-28.5c1.6,6.6,5.4,29.1,5.4,29.1s22.4,4,28.7,5.4
				c-10.3,3.4-30.6,6.2-30.6,6.2s-4,14.2-8.6,26.5c-1.7-8.9-2.8-18-3.3-27.1c0,0-18.9-3.5-30.1-8.1
				C395.6,814.6,403.9,813.7,415.6,812.5z"/>
			<path class="st4" d="M245.4,144.5c2.2-10,2.8-18.3,5.5-27.9c2.1,6.1,7.8,27.3,7.8,27.3s21.8,1.8,27.9,2.6
				c-9.5,4.2-28.7,8.7-28.7,8.7s-2.5,13.9-5.8,26.1c-2.4-8.4-4.3-16.9-5.6-25.6c0,0-18.3-1.7-29.5-5
				C226.5,148.4,234.3,146.7,245.4,144.5z"/>
			<path class="st4" d="M1226.8,249.9c0.4-4.7-0.4-9.6-1.1-14.2c-0.4-2.7-0.7-5.3-1.2-8c7-1.9,14-3.8,21-5.6c0.8-0.3,1.3-1,1.5-1.8
				c0.1-1-0.4-2-1.4-2.5c-4.3-2.3-8.7-4.3-13.3-5.9c-2.6-1-5.3-2-7.9-3c0.2-2.6,0.3-5.2,0.4-7.8c0.4-5.2,0.4-10.3,0-15.5
				c-0.2-1.3-1.4-2.2-2.7-2c-0.6,0.1-1.1,0.4-1.4,0.8c-4.7,5.8-9.1,11.8-14.5,17c-7.5,0.1-14.9-0.7-22.4-0.9c-2.3-0.1-3.6,2.4-1.8,4
				c5.3,4.8,10.1,10.1,15.2,14.9c-4.7,5.7-9.2,11.6-13.6,17.6c-0.8,1-0.6,2.5,0.5,3.3c0.6,0.5,1.4,0.6,2.2,0.3
				c7.5-2.2,14.8-4.7,22-7.7c4.6,6.1,9.2,12.2,14.2,18C1223.8,252.3,1226.6,252.1,1226.8,249.9z M1208.4,228
				c-5.5,2.1-11.1,4.3-16.7,6.2c3.4-4.6,6.9-9.1,10.7-13.4c0.8-1,0.6-2.4-0.3-3.3c-4.3-3.9-8.3-8.1-12.4-12.2
				c6,0.3,11.9,0.8,17.9,0.6c0.6,0,1.2-0.3,1.5-0.8l0,0c4.1-4,8-8.4,11.5-13c0,2.7-0.1,5.5-0.3,8.2c-0.1,3.3-0.3,6.5-0.5,9.7
				c-0.1,1,0.4,2,1.4,2.5c3.1,1.1,6.1,2.3,9.1,3.5c2.6,1,5.3,2.1,7.9,3.2c-5.7,1.5-11.4,3-17.1,4.6c-1,0.4-1.6,1.4-1.5,2.4
				c0.5,3.2,1,6.4,1.4,9.7c0.3,2.3,0.6,4.6,0.8,6.9c-3.7-4.6-7.2-9.3-10.8-14C1210.4,228,1209.3,227.6,1208.4,228z"/>
			<path class="st2" d="M796.7,151.3c1.6-1.4,2.7-3.3,2.9-5.4l0.3-9.5c0-1.9,1-2.2,2.2-0.8l6.3,7.6c1.4,1.5,3.5,2.1,5.5,1.7l9.7-2.4
				c1.8-0.4,2.3,0.3,1.1,1.8l-5.5,6.7c-1.2,1.4-1.1,3.6,0.2,4.9l7.2,7c1.3,1.3,0.9,2.1-0.9,1.8l-10.3-1.6c-2-0.2-3.9,0.8-5,2.5
				l-5.7,9c-1,1.6-1.8,1.4-1.8-0.5l-0.2-10.9c0-1.9-1.5-3.4-3.4-3.5l-9.7-0.5c-1.8-0.1-2.1-1-0.6-2.1L796.7,151.3z"/>
			<path class="st3" d="M667.5,150.4c1.3-1.1,2.2-2.7,2.3-4.4l0.3-7.8c0-1.5,0.8-1.8,1.8-0.6l5.1,6.2c1.1,1.2,2.8,1.7,4.5,1.4
				l7.9-1.9c1.5-0.4,1.9,0.3,0.9,1.4l-4.5,5.5c-1,1.2-0.9,2.9,0.2,4l5.9,5.7c1.1,1.1,0.8,1.7-0.7,1.5l-8.4-1.3
				c-1.6-0.1-3.2,0.6-4.1,2l-4.6,7.4c-0.8,1.3-1.4,1.1-1.4-0.4l-0.2-8.9c0-1.5-1.2-2.8-2.8-2.9l-7.9-0.4c-1.5-0.1-1.8-0.8-0.5-1.7
				L667.5,150.4z"/>
			<path class="st6" d="M613.4,786.9c8.1-8.9,10.9-23.1,5-33.8c-2.8-5.1-7.7-8.8-13.4-10.1c-5.3-1-10.9,0-15.6,2.8
				c-9.7,5.5-16.9,18.3-10.5,28.8c3,4.7,8.2,7.7,13.8,7.8c6.3,0.1,12.2-3.2,15.3-8.6c1.8-3.1,2.3-6.9,1.4-10.3
				c-1.2-3.6-4.3-6.1-8.1-6.5c-4.2-0.5-8.2,1.7-10.1,5.5c-1.8,3.5-0.9,7.9,2.3,10.3c1.8,1.5,5.8-2.2,3.6-3.9c-1.9-1.4-2.5-4-1.3-6.1
				c0.4-0.6,1-1.1,1.7-1.2c1.3-0.2,2.6,0,3.8,0.6c4.6,2.2,4.3,8.7,1.8,12c-3.1,4-8.8,4.9-13.4,3c-5-2.1-8.3-6.9-8.4-12.2
				c0-2.5,0.6-5,1.7-7.3c1.1-2.1,2.5-4,4.2-5.5c3.5-3.2,8.1-5,12.9-4.8c5.4,0.2,10.1,3.6,13,8c3.2,4.9,3.8,11,3,16.7
				c-0.8,4.9-2.9,9.4-6.2,13.1c-0.7,0.8-1.3,2.3-0.1,3S612.6,787.8,613.4,786.9L613.4,786.9z"/>
			<path class="st5" d="M652.3,797.3c-11.7,6-20,19.4-18.1,32.7c0.9,6.3,4.5,11.9,9.8,15.4c5.1,3.1,11.1,4.2,17,3.2
				c12.1-1.8,24.3-12.1,21.8-25.4c-1.3-6-5.4-11-11.1-13.3c-6.4-2.5-13.7-1.4-19,2.9c-3,2.5-5,6.1-5.4,10c-0.2,4.1,2.1,7.9,5.7,9.7
				c4.1,2.1,9,1.4,12.4-1.7c3.2-2.9,3.9-7.7,1.6-11.4c-1.3-2.3-6.7,0-5.2,2.6c1.4,2.2,1,5.1-1,6.8c-0.6,0.5-1.4,0.7-2.2,0.6
				c-1.4-0.3-2.7-1-3.7-2.1c-3.8-4-1.1-10.5,2.8-12.9c4.7-2.9,10.9-1.6,14.8,2.1c4.3,4,5.8,10.2,3.9,15.8c-1,2.6-2.5,4.9-4.6,6.8
				c-1.9,1.7-4.1,3.1-6.4,4c-4.8,1.9-10.2,1.9-15-0.1c-5.5-2.3-8.9-7.6-10.2-13.2c-1.4-6.2,0.3-12.7,3.4-18.1
				c2.6-4.7,6.6-8.5,11.3-11c1-0.5,2.2-1.9,1.3-3S653.5,796.6,652.3,797.3L652.3,797.3z"/>
			<path class="st3" d="M375.3,563.4c14.4,4.8,32,0.8,41.4-11.5c4.4-5.8,6.2-13.3,4.7-20.5c-1.4-6.6-5.7-12.5-11.1-16.5
				c-11.3-8.4-29.6-10.1-38.5,2.6c-4,5.8-4.5,13.4-1.9,19.9c3.1,7.3,9.9,12.4,17.8,13.3c4.5,0.5,9-0.9,12.6-3.7
				c3.5-3.2,4.8-8.1,3.4-12.6c-1.6-5-6.1-8.6-11.4-8.8c-5-0.3-9.5,3-10.6,7.9c-0.8,2.9,5.4,5.5,6.4,2.2c0.7-2.9,3.4-4.9,6.3-4.6
				c0.9,0.1,1.7,0.6,2.2,1.3c0.9,1.4,1.4,3,1.3,4.7c-0.2,6.4-7.8,9.4-12.9,8.1c-6.2-1.6-10.1-7.6-10.2-13.9
				c-0.1-6.8,3.7-13,9.8-15.9c2.9-1.3,6.1-1.9,9.2-1.7c2.9,0.2,5.8,0.8,8.5,2c5.5,2.4,9.9,6.8,12.1,12.4c2.5,6.3,1,13.5-2.6,19
				c-4,6.2-10.7,10-17.6,11.9c-6,1.6-12.3,1.4-18.2-0.5c-1.3-0.4-3.3-0.3-3.5,1.4S373.9,562.9,375.3,563.4L375.3,563.4z"/>
			<path class="st2" d="M316.7,685.5c-5.3,5.5-7.2,14.4-3.7,21.3c1.7,3.3,4.7,5.6,8.3,6.5c3.4,0.7,6.8,0.2,9.9-1.5
				c6.2-3.3,11-11.2,7.1-18c-1.8-3-5.1-5-8.6-5.2c-4-0.2-7.7,1.8-9.8,5.2c-1.2,2-1.5,4.3-1,6.5c0.7,2.3,2.6,3.9,5,4.2
				c2.6,0.4,5.2-0.9,6.5-3.3c1.2-2.2,0.7-4.9-1.3-6.5c-1.1-1-3.7,1.3-2.4,2.4c1.2,0.9,1.5,2.6,0.7,3.9c-0.2,0.4-0.6,0.7-1.1,0.7
				c-0.8,0.1-1.7,0-2.4-0.4c-2.9-1.4-2.6-5.6-0.9-7.6c2.1-2.4,5.6-3.1,8.5-1.7c3.1,1.4,5.1,4.5,5.1,7.9c0,1.6-0.5,3.2-1.2,4.6
				c-0.7,1.3-1.6,2.5-2.7,3.4c-2.3,2-5.2,3-8.2,2.8c-3.4-0.4-6.4-2.3-8.1-5.3c-1.8-3.2-2.4-7-1.6-10.5c0.6-3.1,2-5.9,4.1-8.1
				c0.5-0.5,0.8-1.4,0.1-1.9C318.2,684.6,317.3,684.8,316.7,685.5L316.7,685.5z"/>
			<path class="st6" d="M409.3,449.9c-5.3,5.5-7.2,14.4-3.7,21.3c1.7,3.3,4.7,5.7,8.3,6.5c3.4,0.7,6.8,0.2,9.9-1.5
				c6.2-3.3,11-11.2,7.1-18c-1.8-3-5.1-5-8.6-5.1c-4-0.2-7.7,1.8-9.8,5.2c-1.2,2-1.5,4.3-1,6.5c0.7,2.3,2.6,3.9,5,4.2
				c2.6,0.4,5.2-0.9,6.5-3.3c1.2-2.2,0.7-4.9-1.3-6.5c-1.1-1-3.7,1.3-2.3,2.4c1.2,0.9,1.5,2.6,0.7,3.9c-0.2,0.4-0.6,0.7-1.1,0.7
				c-0.8,0.1-1.7,0-2.4-0.4c-2.8-1.4-2.6-5.5-0.9-7.6c2.1-2.4,5.6-3,8.5-1.6c3.1,1.4,5.1,4.5,5.1,7.9c0,1.6-0.4,3.2-1.2,4.5
				c-0.7,1.3-1.6,2.5-2.7,3.4c-2.3,2-5.2,3-8.2,2.8c-3.4-0.4-6.4-2.3-8.1-5.3c-1.8-3.2-2.4-7-1.6-10.5c0.6-3.1,2-5.9,4.1-8.1
				c0.5-0.5,0.8-1.4,0.1-1.9C410.8,449,409.9,449.3,409.3,449.9L409.3,449.9z"/>
			<path class="st2" d="M247.4,510.5c-2.1-1.3-5.2-0.9-7.2,0.3c-0.5,0.3-1,0.7-1.4,1.1c-0.5-0.6-1-1.3-1.3-2
				c-0.7-1.4-0.9-3.1-0.6-4.6c0-0.2,0.1-0.4,0.2-0.6c1.7,1.3,3.9,2.1,6.1,2.1c2.5,0,6.2-1.3,5.2-4.5c-0.9-2.6-4.5-2.8-6.7-2.5
				c-1.4,0.2-2.8,0.7-4.1,1.3c-1.1-1.8-1.6-4-1.4-6.2c0.5,0.3,1.1,0.5,1.6,0.7c3.2,1.3,7.2,1.5,10.1-0.7c2-1.5,2.6-4.3,0.7-6.1
				c-2.4-2.3-6.6-2.2-9.5-1.1c-1.7,0.7-3.2,1.9-4.2,3.4c-1.1-0.9-1.9-2-2.5-3.2c-0.5-1.1-3.3-0.3-2.8,0.8c0.9,2,2.4,3.7,4.2,4.9
				c-0.8,2.9-0.5,6,1.1,8.6c0.2,0.3,0.3,0.5,0.5,0.7c-0.4,0.5-0.7,1.1-0.9,1.7c-1,3.2-0.1,6.7,2.3,9c0.2,0.2,0.4,0.4,0.7,0.6
				c-1.7,4.4,0.6,10.8,3.3,14.1c0.7,0.9,3.4-0.1,2.6-1.2c-2.3-2.9-3.5-6.5-3.5-10.2c0-0.5,0.1-1,0.1-1.4c2.2,0.6,4.5,0.3,6.5-0.7
				c1-0.4,1.9-1.2,2.2-2.3C248.6,511.6,248.1,510.8,247.4,510.5z M237.5,491.2c1.6-2.1,4.5-2.9,7-2c2.1,0.6,3.2,2.9,1.6,4.5
				c-0.9,0.8-2.1,1.1-3.3,1c-1.8-0.2-3.5-0.7-5-1.6c-0.3-0.2-0.7-0.4-1-0.6C237,492,237.2,491.6,237.5,491.2L237.5,491.2z
				 M238.9,502.4c1.6-0.9,4.6-1.6,6.2-0.2c0.3,0.3,0.5,0.7,0.6,1.2c0,0.2,0,0.4,0,0.6c0,0.2-0.1,0.2-0.2,0.4
				c0.2-0.2-0.1,0.1-0.1,0.1l0,0l-0.1,0h-0.1H245l-0.3,0.1c-0.6,0.1-1.3,0.1-1.9,0c-1.5-0.2-3-1-4.1-2.1L238.9,502.4z M245.3,513.1
				c-0.2,0.1-0.5,0.3-0.7,0.3c-1.3,0.6-2.8,0.5-4.1-0.2c0.2-0.4,0.5-0.7,0.8-1c0.3-0.3,0.7-0.5,1.1-0.6c0.4-0.2,0.9-0.2,1.4-0.1
				c0.8,0,1.5,0.4,1.9,1c-0.1-0.1,0,0.2,0,0.1c0,0,0,0.1,0,0.1c0,0.1-0.1,0.2,0,0C245.5,513.1,245.6,513,245.3,513.1L245.3,513.1z"
				/>
			<path class="st2" d="M433.5,647.5c-2.1-1.3-5.2-0.9-7.2,0.3c-0.5,0.3-1,0.7-1.4,1.1c-0.5-0.6-1-1.3-1.3-2
				c-0.7-1.4-0.9-3.1-0.6-4.6c0-0.2,0.1-0.4,0.2-0.6c1.7,1.3,3.9,2.1,6.1,2.1c2.5,0,6.2-1.3,5.2-4.5c-0.9-2.6-4.5-2.8-6.7-2.5
				c-1.4,0.2-2.8,0.7-4.1,1.3c-0.4-0.7-0.8-1.4-1-2.2c-0.4-1.3-0.5-2.6-0.3-3.9c0.5,0.3,1.1,0.5,1.6,0.7c3.2,1.3,7.2,1.5,10.1-0.7
				c2-1.5,2.6-4.3,0.7-6.1c-2.4-2.3-6.6-2.2-9.5-1.1c-1.7,0.6-3.2,1.8-4.2,3.4c-1.1-0.9-1.9-2-2.5-3.2c-0.5-1.2-3.3-0.3-2.8,0.8
				c0.9,2,2.4,3.7,4.2,4.9c-0.8,2.9-0.4,6,1.1,8.6c0.1,0.3,0.3,0.5,0.5,0.8c-0.4,0.5-0.7,1.1-0.9,1.7c-1,3.2-0.1,6.7,2.3,9
				c0.2,0.2,0.5,0.4,0.7,0.6c-1.7,4.4,0.6,10.8,3.2,14.1c0.7,0.9,3.4-0.1,2.6-1.2c-2.3-2.9-3.5-6.5-3.5-10.2c0-0.5,0.1-1,0.1-1.4
				c2.2,0.6,4.5,0.3,6.5-0.7c1-0.4,1.9-1.2,2.2-2.3C434.8,648.6,434.3,647.8,433.5,647.5z M423.7,628.2c1.6-2.1,4.5-2.9,7-2
				c2.1,0.6,3.2,2.9,1.6,4.5c-0.9,0.8-2.1,1.1-3.3,1c-1.8-0.2-3.5-0.7-5-1.6c-0.3-0.2-0.7-0.4-1-0.6
				C423.2,629,423.4,628.6,423.7,628.2z M425.1,639.4c1.6-0.9,4.6-1.7,6.2-0.2c0.3,0.3,0.5,0.7,0.6,1.2c0,0.2,0,0.4,0,0.7
				c0,0.2-0.1,0.2-0.2,0.4c0.2-0.2-0.1,0.1-0.1,0.1l0,0l-0.1,0h-0.1h-0.1l-0.3,0.1c-0.6,0.1-1.3,0.1-1.9,0c-1.5-0.3-3-1-4-2.1
				L425.1,639.4z M431.5,650.1c-0.2,0.1-0.5,0.3-0.7,0.3c-1.3,0.6-2.8,0.5-4-0.2c0.2-0.4,0.5-0.7,0.8-1c0.3-0.3,0.7-0.5,1.1-0.7
				c0.4-0.1,0.9-0.2,1.4-0.1c0.8,0,1.5,0.4,1.9,1c-0.1-0.1,0,0.2,0,0.1c0,0,0,0.1,0,0.1c0,0.1-0.1,0.2,0,0
				C431.7,650.1,431.8,650,431.5,650.1L431.5,650.1z"/>
			<circle class="st3" cx="431" cy="156" r="0"/>
			<path class="st3" d="M456.2,99.7c-1-1.2-2.7-1.5-4-0.7c-4.3,2.7-8.8,5.1-13.4,7.1c-5.3-3.3-11.4-5.2-17.6-5.5
				c-4.8-0.2-16.6,1.7-14.6,9.1c0.8,2.9,3.9,4.3,6.5,5.1c4.3,1.3,9.2,0.8,13.5,0.1c3.6-0.6,7.2-1.6,10.7-2.8c3.6,2.9,6.2,6.8,5,11.4
				c-0.5,2-1.4,3.8-2.6,5.5c-1.6-0.7-3.3-1.2-5.1-1.4c-3.2-0.5-6.5-0.5-9.8,0.1c-2.4,0.4-5.2,1.2-7,3c-2,2.1-1.9,4.7,0.1,6.8
				c2.6,2.5,6,3.9,9.6,3.9c4.4,0.1,8.6-1.9,12.1-4.8c3.2,4.5,3.8,10.4,1.7,15.5c-0.3,0.6-0.6,1.2-1,1.7c-2.3-2.8-5.6-4.5-9.5-3.8
				c-4.4,0.8-8.3,6.1-4.5,9.9c2.1,2.1,5.9,2,8.5,1.7c0.9-0.1,1.8-0.3,2.7-0.5c0.5,2,0.6,4,0.4,6.1c-0.6,7.2-3.9,13.8-5,20.9
				c-0.5,3.4,5.5,2.9,6-0.2c1.3-8.4,5.6-16.2,5.1-24.9c-0.1-1.5-0.4-3-1-4.5c0.5-0.4,1-0.8,1.4-1.3c4.5-4.9,5-12.1,3-18.2
				c-0.8-2.4-2-4.7-3.7-6.6c0.9-1.1,1.7-2.3,2.3-3.6c1.9-3.2,2.6-6.9,2-10.5c-0.8-3.3-2.6-6.3-5.1-8.6c4.1-1.9,8-4,11.8-6.4
				C456.1,102.5,457.1,101.1,456.2,99.7z M431,155.6C431,155.4,431,155.4,431,155.6z M434.1,156.6c-0.9,0.1-1.8,0-2.6-0.2
				c-0.1,0-0.2-0.1-0.3-0.1c0,0,0-0.1-0.2-0.2s0,0,0,0.1V156l0,0l0,0c0,0,0-0.1,0-0.1c0,0,0,0,0-0.1c0,0.1,0,0.1,0,0.2
				c0.4,0.3,0-0.3,0-0.2l0,0c0,0,0-0.1,0-0.1l0.1-0.2c-0.1,0.3,0,0,0.2-0.2c0,0,0.5-0.4,0.4-0.3h0.1l0,0l0.3-0.1h0.4
				c-0.9,0,0.9,0.3,0.3,0.1c0.3,0.1,1,0.4,1,0.4c0.5,0.3,1,0.7,1.4,1.2L434.1,156.6z M422.3,133.6L422.3,133.6L422.3,133.6z
				 M424.2,135c-0.6-0.4-1.1-0.8-1.6-1.3c-0.1-0.1-0.2-0.2-0.2-0.3l0,0c0.3-0.2,1-0.4,0.9-0.4c0.6-0.2,1.2-0.4,1.9-0.5
				c2.6-0.5,5.3-0.5,8-0.1c0.9,0.1,1.7,0.3,2.6,0.6c-2.2,1.8-4.9,2.9-7.8,3.1C426.6,136.2,425.3,135.8,424.2,135L424.2,135z
				 M425,110c-3.6,0.5-7.7,0.9-11.1-0.7c-0.4-0.2-0.8-0.4-1.1-0.7c0,0-0.4-0.6-0.4-0.5c0-0.1-0.1-0.2-0.1-0.3c0,0.1,0,0,0-0.1v-0.1
				c0,0.1,0.5-0.6,0.1-0.2c0.3-0.3,0.7-0.6,1.1-0.7c0.6-0.3,1.1-0.5,1.7-0.6c1.9-0.5,3.9-0.6,5.9-0.5c3.5,0.3,6.9,1.2,10,2.7
				l0.5,0.2C429.4,109.2,427.2,109.7,425,110L425,110z"/>
			<path class="st2" d="M1265.9,603.1c-4.5-4.8-11.3-5-16.4-0.9c-3.1,2.6-5.1,6.2-5.8,10.1c-4.2-1.5-8.7-1.2-12.7,0.9
				c-5.9,3-8.6,10-6.3,16.2c2.1,6.3,8.4,9.5,14.4,11c6.2,1.6,12.6,1.9,18.9,2.3c0.3,0,0.5,0,0.8,0c1.5,0,3.1-0.8,3.5-2.1
				c0-0.1,0.1-0.2,0.1-0.3C1266.4,629,1276,613.7,1265.9,603.1z M1232.3,629.4c-1.3-2.1-1.9-4.5-1.6-6.9c0.2-2,1.3-3.7,2.9-4.9
				c1.3-0.9,2.8-1.2,4.3-1.1c2.5,0.3,4.7,1.5,6.4,3.3c1.9,1.8,6.2-0.2,5.8-2.9c-0.6-4.2,0.7-9.1,4-11.7c0.5-0.4,1-0.7,1.6-0.8
				c0.4-0.1,0.9-0.1,1.3,0c2.4,0.7,4.1,2.9,5.2,5c2.5,4.3,1,10.3-0.4,14.7s-3.4,8.9-5.1,13.3c-4.1-0.2-8.2-0.7-12.2-1.4
				C1240.1,635.2,1235.1,633.5,1232.3,629.4z"/>
			<path class="st6" d="M999.8,96.2c-10.8-2.6-30-6.1-32.7-18.6c-3-14.9,14.7-20.8,23.1-8.9c0-13.5,15-22.6,22.3-8.6
				C1018.2,71,1005.4,85.6,999.8,96.2z"/>
			<path class="st6" d="M1093.2,83.7c-2.5-6.8-7.5-18.4-1.7-24.4c7-7,16.5,0.5,13.1,9.3c7.3-4.8,17.6,0,12.7,8.9
				C1113.4,84.6,1101,82.9,1093.2,83.7z"/>
			<path class="st3" d="M860.3,855.1c-8.5,1.3-23.3,4.3-28.8-3.9c-6.5-9.8,4.6-19.1,14-13.1c-3.9-9.7,4.3-20.5,13.5-12.7
				C866.2,831.7,861.2,845.8,860.3,855.1z"/>
			<path class="st3" d="M673.5,493.6c-8.5,1.3-23.3,4.3-28.9-3.9c-6.5-9.8,4.6-19.1,14-13.1c-3.9-9.7,4.3-20.5,13.5-12.6
				C679.4,470.2,674.5,484.4,673.5,493.6z"/>
			<path class="st2" d="M770.2,822.2c-2.9-5.9-8.6-16.1-3.9-22.1c5.7-7.1,15.1-1.1,12.9,7.3c6.2-5.1,16.1-1.7,12.4,7
				C788.8,821.1,777.2,820.7,770.2,822.2z"/>
			<path class="st6" d="M789.7,768.2c-2.9-0.4-8.1-0.8-9.2-4c-1.2-3.9,3.3-5.9,5.9-3c-0.4-3.6,3.3-6.4,5.6-2.9
				C793.9,761,790.9,765.2,789.7,768.2z"/>
			<path class="st6" d="M339.6,443.5c-12.5-0.9-34.7-1.2-40.1-14.6c-6.3-16.2,12.6-26,24.3-14.4c-2.5-15.1,12.6-28.1,23.4-13.9
				C355.6,411.7,343.9,430.5,339.6,443.5z"/>
			<path class="st7" d="M339.6,443.5c-10.8-2.4-28.2-4.5-32.4-14.8c-4.8-12.4,11.1-16.4,20-7.5c-2-11.6,6.5-21.3,13.9-17.2
				C352,410,342.5,432.1,339.6,443.5z"/>
			<path class="st4" d="M1103.6,173.8c1.2-11.3,2.1-31.1,14.4-35.6c14.7-5.1,23,12.1,12.2,22.2c13.7-1.8,24.9,12.2,11.8,21.4
				C1131.6,189.1,1115.1,178,1103.6,173.8z"/>
			<path class="st7" d="M1103.6,173.8c2.5-9.6,4.9-25.2,14.3-28.6c11.3-4,14.4,10.4,6.1,18.2c10.5-1.4,18.9,6.5,15.1,13
				C1133.3,186,1113.8,176.7,1103.6,173.8z"/>
			<path class="st4" d="M939.9,739c-3.2-4.4-8.4-7.2-13.6-8.4c-9.2-2.2-18.8,0.5-25.5,7.2c-1.1,0.2-2.1,0.9-2.7,1.8
				c-0.5,1.2-0.9,2.4-1.3,3.7c-0.5,1-1,2-1.3,3c-0.2,0.6-0.4,1.2-0.6,1.8c-0.3,0.8,0.2,1.3,0.9,1.7c-0.1,3.3,0.5,6.6,1.9,9.6
				c2.7,5.5,7.4,9.8,13.2,12c6.1,2.3,12.8,2.1,18.8-0.5c6.5-2.9,11-9,12.9-15.8C944.3,749.5,943.3,743.6,939.9,739z M932.3,762.6
				c-0.7,0.9-1.5,1.8-2.4,2.5c-0.7,0.5-1.4,1-2.1,1.5c-1.5,0.9-3.2,1.4-5,1.5c-1.8,0.1-3.6,0-5.3-0.5c-2.1-0.5-4.1-1.4-5.8-2.7
				c-7.4-4.8-9.9-13.5-7.8-21.7c0.7-1.3,1.6-2.6,2.6-3.7c1.6-1.8,3.7-3.2,6-4.1h0.1l0.3-0.1c0.3-0.1,0.6-0.2,0.9-0.3
				c0.3-0.1,0.6-0.2,0.9-0.2l0.5-0.1c0.6-0.1,1.1-0.2,1.7-0.2h1h0.7c2.5,0,5,0.6,7.3,1.6c4.5,1.7,8,5.3,9.7,9.8
				C937.5,751.6,935.8,758.1,932.3,762.6L932.3,762.6z"/>
			<path class="st2" d="M1318.3,62.2c-5.2-7.2-13.7-11.9-22.3-13.8c-15.3-3.5-31.3,1-41.7,11.8c-2,0.5-3.7,1.5-4.3,3
				c-0.8,2-1.6,4-2.1,6c-0.8,1.6-1.6,3.2-2.2,4.9c-0.4,1-0.7,2-1,3c-0.4,1.3,0.4,2.2,1.5,2.7c-0.2,5.4,0.9,10.8,3.2,15.8
				c4.3,9.3,12.2,16,21.7,19.7c10,3.8,21,3.5,30.7-0.8c10.7-4.8,18.1-14.7,21.2-25.8C1325.5,79.6,1323.8,69.8,1318.3,62.2z
				 M1305.7,101c-1.2,1.5-2.5,2.9-3.9,4.1c-1.1,0.9-2.3,1.7-3.5,2.4c-2.5,1.5-5.3,2.3-8.1,2.5c-2.9,0.2-5.9,0-8.7-0.8
				c-3.4-0.9-6.7-2.4-9.6-4.3c-12.2-7.9-16.3-22.2-12.8-35.5c1.2-2.2,2.6-4.2,4.3-6.1c2.7-3,6.1-5.3,9.9-6.7l0.1,0l0.4-0.1
				c0.5-0.2,1-0.3,1.5-0.5c0.5-0.1,1-0.3,1.5-0.4l0.9-0.2c0.9-0.1,1.9-0.3,2.8-0.3c0.5,0,1.1-0.1,1.6-0.1h0.5h0.7
				c4.1,0.1,8.2,0.9,12,2.5c6.8,2.7,13.3,8.6,16,16.2C1314.3,82.9,1311.5,93.5,1305.7,101z"/>
			<path class="st4" d="M699.7,86.4c-4.6-3.3-10.5-3.5-14.9,0.2c-0.3,0.2-0.5,0.6-0.7,0.9c-2.9,4.8-2.2,11.2,2.5,14.6
				c5.3,3.9,12.2,2,15.9-3.1C705.6,94.7,703.6,89.2,699.7,86.4z M697.4,96c-0.8,1.2-2.1,2-3.4,2.3c0.2-0.1-0.7,0.1-0.8,0.1h-0.3
				c-0.2,0-0.3,0-0.5-0.1c-0.2,0-0.4-0.1-0.6-0.2l-0.1-0.1c-0.2-0.1-1.2-0.6-1-0.5c-1.1-0.7-1.9-1.9-2.2-3.3c-0.1-0.6-0.1-1.2,0-1.7
				c0.1-0.8,0.4-1.5,0.8-2.2l0.5-0.3L690,90c0.1,0,0.2-0.1,0.3-0.1c0.1,0,0.9-0.2,0.8-0.2c0.3,0,0.6,0,1,0h0.3l0.4,0.1
				c0.4,0.1,0.8,0.2,1.1,0.3l0.1,0c0.2,0.1,0.3,0.1,0.5,0.2c0.4,0.2,0.9,0.4,1.3,0.7c-0.4-0.3,0.4,0.3,0.5,0.4
				c0.2,0.2,0.5,0.5,0.7,0.7c-0.2-0.2,0.3,0.5,0.4,0.6s0.3,0.7,0.3,0.7c0.1,0.2,0.1,0.4,0.2,0.7c-0.1-0.4,0,0.4,0,0.6
				C697.9,95.1,697.7,95.6,697.4,96z"/>
			<path class="st4" d="M976.5,462.3c-6.2-4.4-14.3-4.7-20.3,0.3c-0.4,0.3-0.7,0.8-0.9,1.3c-4,6.5-3,15.2,3.5,19.9
				c7.3,5.3,16.6,2.8,21.7-4.2C984.7,473.7,981.9,466.1,976.5,462.3z M973.5,475.4c-1.2,1.6-2.8,2.7-4.7,3.2c0.3-0.1-1,0.1-1.2,0.1
				h-0.4l-0.6-0.1c-0.3-0.1-0.5-0.1-0.8-0.2l-0.2-0.1c-0.3-0.1-1.6-0.9-1.3-0.7c-1.6-1-2.6-2.6-3-4.5c-0.1-0.8-0.1-1.6-0.1-2.4
				c0.2-1.1,0.6-2.1,1.1-3c0.3-0.2,0.6-0.4,0.7-0.5l0.3-0.2l0.5-0.2c0.2,0,1.2-0.3,1.1-0.3c0.4,0,0.9-0.1,1.3,0h0.4
				c0.2,0,0.3,0,0.5,0.1c0.5,0.1,1,0.2,1.5,0.4l0.2,0.1l0.7,0.3c0.6,0.3,1.2,0.6,1.7,1c-0.6-0.4,0.6,0.5,0.7,0.6
				c0.4,0.3,0.7,0.6,1,1c-0.3-0.3,0.5,0.7,0.5,0.8s0.5,0.9,0.5,0.9c0.1,0.3,0.2,0.6,0.3,0.9c-0.1-0.6,0,0.6,0,0.8
				C974.1,474.1,973.9,474.8,973.5,475.4L973.5,475.4z"/>
			<path class="st6" d="M397.3,299.5c-7.1,14.6-30.3,6.5-23.3-9.2S404.4,283.9,397.3,299.5z M366.3,295.7c-6.2,3.1-14,10.9-8.3,18.1
				c5.2,6.2,13.5,1.5,19.1-2.1c-1.3,6.2-1,17.1,7.3,16c7.8-0.5,10.4-10.6,9.3-17.1c13.5,17.6,24.3-8.8,9.8-12.4
				c15.5,4.7,15.5-18.1,0.5-14.5c14.5-4.6,1.6-25.9-13.5-9.8c-1.5-5.7-2.1-14-10.9-12.4c-8.3,1.5-8.5,10.4-4.4,16
				C359.6,268.5,347.7,290.3,366.3,295.7L366.3,295.7z"/>
			<path class="st5" d="M1371,576.1c-6.3,13.1-27.1,5.8-20.8-8.2S1377.3,562.2,1371,576.1z M1343.3,572.8
				c-5.6,2.8-12.5,9.7-7.4,16.2c4.6,5.6,12.1,1.4,17.2-1.8c-1.2,5.6-0.9,15.3,6.5,14.4c7-0.5,9.3-9.5,8.3-15.3
				c12.1,15.8,21.8-7.9,8.8-11.1c13.9,4.2,13.9-16.2,0.5-13c13-4.2,1.4-23.2-12.1-8.8c-1.4-5.1-1.9-12.5-9.7-11.1
				c-7.4,1.4-7.7,9.3-3.9,14.4C1337.2,548.4,1326.6,567.9,1343.3,572.8z"/>
			<path class="st6" d="M992,846.1c-3.8,7.9-16.3,3.5-12.5-4.9S995.8,837.8,992,846.1z M975.4,844.1c-3.3,1.7-7.5,5.8-4.5,9.7
				c2.8,3.3,7.2,0.8,10.3-1.1c-0.7,3.3-0.6,9.2,3.9,8.6c4.2-0.3,5.6-5.7,5-9.2c7.2,9.5,13.1-4.7,5.3-6.7c8.3,2.5,8.3-9.7,0.3-7.8
				c7.8-2.5,0.8-13.9-7.2-5.3c-0.8-3.1-1.1-7.5-5.8-6.7c-4.5,0.8-4.6,5.6-2.4,8.6C971.8,829.5,965.4,841.2,975.4,844.1L975.4,844.1z
				"/>
			<path class="st6" d="M775.8,66.9c-6.5,13.3-27.6,5.9-21.2-8.4S782.3,52.7,775.8,66.9z M747.6,63.4c-5.7,2.8-12.7,9.9-7.5,16.5
				c4.7,5.7,12.3,1.4,17.5-1.9c-1.2,5.7-0.9,15.6,6.6,14.6c7.1-0.5,9.4-9.7,8.5-15.6c12.3,16,22.2-8,9-11.3
				c14.2,4.3,14.2-16.5,0.5-13.2c13.2-4.3,1.4-23.6-12.3-9c-1.4-5.2-1.9-12.7-9.9-11.3c-7.5,1.4-7.8,9.4-4,14.6
				C741.5,38.7,730.6,58.5,747.6,63.4z"/>
			<path class="st2" d="M781.5,461.3c-2.9,6.1-12.5,2.7-9.6-3.8S784.5,454.8,781.5,461.3z M768.7,459.7c-2.6,1.3-5.8,4.5-3.4,7.5
				c2.2,2.6,5.6,0.6,7.9-0.9c-0.5,2.6-0.4,7.1,3,6.6c3.2-0.2,4.3-4.4,3.9-7.1c5.6,7.3,10.1-3.6,4.1-5.1c6.4,1.9,6.4-7.5,0.2-6
				c6-1.9,0.6-10.7-5.6-4.1c-0.6-2.4-0.9-5.8-4.5-5.1c-3.4,0.6-3.5,4.3-1.8,6.7C765.9,448.5,761,457.5,768.7,459.7z"/>
			<path class="st8" d="M182.8,78.3c0,0-2,19.8-2.1,24.3c0,0-12.3,2-17.3,3.2c0,0,9.8,6.8,15.9,9.8c0,0-2,15.2-2.2,19.3
				c5.6-4.6,10.3-10.1,14.1-16.3c0,0,13.2,5.1,18.1,7c0,0-5.6-13-6.3-15.8c0,0,7-8.3,10.6-13.7c0,0-14.4,1.6-18.5,2.3
				C195.1,98.4,183.2,78.7,182.8,78.3z"/>
			<path class="st9" d="M191.7,103.6c0.2,1-0.1,1.8-0.6,1.9s-1.1-0.5-1.4-1.5s0.1-1.8,0.6-1.9S191.5,102.7,191.7,103.6z"/>
			<path class="st9" d="M187.3,104.5c0.2,1-0.1,1.8-0.6,1.9s-1.1-0.6-1.4-1.5s0.1-1.8,0.6-1.9S187.1,103.5,187.3,104.5z"/>
			<path class="st9" d="M182.6,108.2c1.2,1.9,4.4,2.8,6.5,2.5c2.6-0.4,5.5-1.9,6.1-4.7c0-0.2-0.3-0.4-0.4-0.2
				c-1,2.2-3.1,3.7-5.5,4.2C186.7,110.6,184.8,109.1,182.6,108.2C182.6,108.2,182.5,108.2,182.6,108.2L182.6,108.2z"/>
			<path class="st2" d="M255.5,709.6c0,0,0.8-15.4,1.1-19.4c0,0,8.6,12.5,11,18.5c0,0,18.3,0.3,22,0.6c0,0-8.5,10-11.1,12.4
				c0,0,2.9,16.2,3.9,19.4c0,0-11.8-6.8-16.3-9.9c0,0-8.9,11-12,13.5c0,0-1.7-13.7-1.3-20.6c0,0-15.4-7.4-20.2-9.7
				C232.6,714.5,252.3,710.2,255.5,709.6z"/>
			<path class="st9" d="M261.5,717c0.2,0.9-0.1,1.8-0.6,1.8s-1-0.6-1.2-1.5s0.1-1.8,0.6-1.8S261.4,716.1,261.5,717z"/>
			<path class="st9" d="M264.7,716.8c0,0.9-0.3,1.7-0.8,1.8s-0.9-0.7-1-1.7s0.3-1.7,0.8-1.8S264.6,715.8,264.7,716.8z"/>
			<path class="st9" d="M256.5,719.9c0.4,2.7,3.9,4.2,6.3,3.9c2.6-0.4,4.9-2.2,5.8-4.7c0.1-0.3-0.4-0.6-0.6-0.3
				c-1.2,2.1-2.6,3.7-5.1,4.1c-2.9,0.5-4.4-1.4-6.4-3.1C256.6,719.8,256.6,719.8,256.5,719.9C256.5,719.8,256.5,719.9,256.5,719.9
				L256.5,719.9z"/>
			<path class="st8" d="M1323,682.5c-0.3,2.2-1.7,13.4-2.4,19.4c0,0-11.6,4-16.9,6.8l17.3,4.3c0,0,0.5,14.7,0.8,19
				c0,0,10.2-14.7,12.1-17.3c0,0,13.9,6.6,17.7,8.1c0,0-4.6-12.6-6.6-16.9c0,0,5.2-9,7-13.4c0,0-9.9,3-15.2,4.7
				c0,0-12.1-13.4-13.7-14.8L1323,682.5z"/>
			<path class="st9" d="M1329.7,704.4c0.3,0.8,0.2,1.6-0.2,1.8s-1-0.4-1.2-1.3s-0.2-1.6,0.2-1.8S1329.4,703.5,1329.7,704.4z"/>
			<path class="st9" d="M1333.2,703.3c0.2,0.9-0.1,1.6-0.5,1.7s-0.9-0.6-1-1.5s0.1-1.6,0.5-1.7S1333.1,702.5,1333.2,703.3z"/>
			<path class="st9" d="M1325.5,707c1.6,1.6,3.8,2.4,6,2.1c2.6-0.4,4.3-2.3,5.8-4.3c0.2-0.3-0.2-0.6-0.5-0.4c-1.5,1.7-2.8,3.3-5,3.9
				s-4.1-0.7-6.2-1.5C1325.6,706.8,1325.5,706.9,1325.5,707L1325.5,707z"/>
			<polygon class="st10" points="690.5,409.6 693.4,210.9 627.6,217 624.6,305.3 587.9,248 571.2,313.8 528.9,235.8 475.8,246.9 
				555.3,443.7 608.2,431.3 605.9,347.4 632.6,414.7 			"/>
			<path class="st11" d="M551.5,303.4c0,0-10.9-0.8-12.1,15.6C539.3,319,553.8,314.7,551.5,303.4z"/>
			<path class="st11" d="M559.6,325.3c0,0-10.9-0.8-12.1,15.6C547.5,340.9,561.9,336.7,559.6,325.3z"/>
			<path class="st11" d="M567.9,347.7c0,0-10.9-0.8-12.1,15.7C555.8,363.3,570.3,359.1,567.9,347.7z"/>
			<path class="st11" d="M576.3,370.3c0,0-10.9-0.8-12.1,15.7C564.2,386,578.6,381.7,576.3,370.3z"/>
			<path class="st11" d="M583.4,389.5c0,0-10.9-0.8-12.1,15.6C571.3,405.2,585.8,400.9,583.4,389.5z"/>
			<path class="st11" d="M514.3,317.1c0,0,7.8-7.6,19.4,4C533.7,321.1,519.9,327.3,514.3,317.1z"/>
			<path class="st11" d="M522.4,339c0,0,7.7-7.6,19.4,4C541.8,343,528,349.2,522.4,339z"/>
			<path class="st11" d="M530.7,361.5c0,0,7.7-7.7,19.4,4C550.1,365.5,536.3,371.6,530.7,361.5z"/>
			<path class="st11" d="M539.1,384.1c0,0,7.7-7.7,19.4,4C558.5,388.1,544.7,394.3,539.1,384.1z"/>
			<path class="st11" d="M546.2,403.3c0,0,7.7-7.7,19.4,4C565.6,407.3,551.8,413.5,546.2,403.3z"/>
			<polygon class="st11" points="527.5,298.5 572.5,420 574.5,419.3 529.5,297.8 			"/>
			<path class="st12" d="M498.1,275.2c14.7-2.7,10.9,24.1,27.7,20.9c8.1-1.6,10.8-8.9,8.6-16.4c-2-7.1-5.3-10.8,0.8-16.8
				c-5.3,2.1-10,3-11.6,9.4c-0.8-1.6-5-9.6-8.3-10.6c-3.4,3-1,9.7-0.5,13.7C509.9,271.7,503.1,271.6,498.1,275.2z"/>
			<path class="st11" d="M679.5,282.7c0,0-9.8-4.9-17.2,9.9C662.3,292.6,677.4,294.2,679.5,282.7z"/>
			<path class="st11" d="M678.7,306.1c0,0-9.8-4.8-17.2,9.9C661.5,316,676.5,317.5,678.7,306.1z"/>
			<path class="st11" d="M677.8,330c0,0-9.7-4.8-17.2,9.9C660.7,339.9,675.7,341.4,677.8,330z"/>
			<path class="st11" d="M677,354.1c0,0-9.8-4.9-17.2,9.9C659.8,364,674.8,365.6,677,354.1z"/>
			<path class="st11" d="M676.2,374.6c0,0-9.8-4.8-17.2,9.9C659.1,384.5,674.1,386,676.2,374.6z"/>
			<path class="st11" d="M639.9,281.3c0,0,10.1-4.1,16.4,11.1C656.3,292.4,641.2,292.9,639.9,281.3z"/>
			<path class="st11" d="M639,304.7c0,0,10.1-4.1,16.4,11.1C655.5,315.8,640.4,316.3,639,304.7z"/>
			<path class="st11" d="M638.2,328.6c0,0,10.1-4.1,16.4,11.1C654.6,339.6,639.5,340.1,638.2,328.6z"/>
			<path class="st11" d="M637.3,352.7c0,0,10.1-4.1,16.4,11.1C653.7,363.8,638.7,364.3,637.3,352.7z"/>
			<path class="st11" d="M636.6,373.2c0,0,10.1-4.1,16.4,11.1C653,384.3,637.9,384.7,636.6,373.2z"/>
			<polygon class="st11" points="659.2,269.1 654.6,398.6 656.7,398.7 661.3,269.2 			"/>
			<path class="st12" d="M640.8,236.4c14.6,3.1,0.9,26.4,17.7,29.8c8.1,1.6,13.4-4.2,14.2-11.9c0.8-7.3-0.8-12,7.1-15.2
				c-5.8-0.1-10.4-1.1-14.3,4.3c-0.1-1.8-1-10.8-3.6-12.9c-4.3,1.5-4.6,8.6-5.6,12.5C653.1,237.7,646.9,235,640.8,236.4z"/>
			<path class="st13" d="M800.2,329.1c0,0-2.2-70.8-53.4-63.7s-43.1,131.9,18.9,130.1c32.2-0.9,36.4-32,35.8-43l-21.5,2.6
				c0,0,1.2,13.3-13.9,14.6c-19.7,1.7-21.4-35.6-21.4-35.6L800.2,329.1z M751.7,286.2c12.8-1.4,15.2,24.9,15.2,24.9l-22.9,2.7
				C743.2,306.5,742.5,287.2,751.7,286.2z"/>
			<path class="st12" d="M726.5,354.5c-0.7,1.7,2.6,5.5,5.5,2.5S728.5,349.4,726.5,354.5z"/>
			<path class="st12" d="M723.7,310.9c-0.7,1.7,2.6,5.5,5.5,2.5S725.8,305.8,723.7,310.9z"/>
			<path class="st12" d="M744.1,273.7c-0.7,1.7,2.6,5.5,5.5,2.5S746.1,268.6,744.1,273.7z"/>
			<path class="st12" d="M778.6,292.7c-0.7,1.7,2.6,5.5,5.5,2.5S780.7,287.6,778.6,292.7z"/>
			<path class="st12" d="M766.5,320.9c-0.7,1.7,2.6,5.5,5.5,2.5S768.5,315.8,766.5,320.9z"/>
			<path class="st12" d="M788.4,360.8c-0.7,1.7,2.6,5.5,5.5,2.5S790.5,355.7,788.4,360.8z"/>
			<path class="st12" d="M758.6,383.6c-0.7,1.7,2.6,5.5,5.5,2.5S760.6,378.6,758.6,383.6z"/>
			<path class="st14" d="M733,333.6l-5.1,12.6l1.6-0.1l-6.9-11.7l0.1,0.8l5.1-12.6l-1.6,0.1l6.8,11.7V333.6z M726.1,321.9l-5.1,12.6
				l-0.2,0.4l0.2,0.4l6.8,11.7l0.9,1.5l0.7-1.7l5.1-12.6l0.2-0.4l-0.2-0.4l-6.9-11.7l-0.9-1.5L726.1,321.9z"/>
			<path class="st14" d="M779.8,315l3.5-13.1l-1.6,0.3l8.3,10.8l-0.2-0.8l-3.5,13.1l1.5-0.3l-8.3-10.8L779.8,315z M788.1,325.8
				l3.5-13.1l0.1-0.4l-0.3-0.4l-8.3-10.8l-1.1-1.4l-0.5,1.7l-3.5,13.1L778,315l0.3,0.4l8.3,10.8l1.1,1.4L788.1,325.8z"/>
			<path class="st14" d="M748.8,318.2l11.7,6.9l0.1-1.6l-12.6,5.1l0.8,0l-11.7-6.9l-0.1,1.6l12.6-5.1L748.8,318.2z M736.2,323.3
				l11.7,6.9l0.4,0.2l0.4-0.2l12.6-5.1l1.7-0.7l-1.5-0.9l-11.7-6.9l-0.4-0.2l-0.4,0.2l-12.6,5.1l-1.7,0.7L736.2,323.3z"/>
			<path class="st14" d="M774.7,376.1l12.2-6l-1.3-1l-2.6,13.4l0.5-0.6l-12.2,6l1.3,1l2.6-13.3L774.7,376.1z M772,389.4l12.2-6
				l0.4-0.2l0.1-0.4l2.7-13.3l0.3-1.8l-1.6,0.8l-12.2,6l-0.4,0.2l-0.1,0.4l-2.6,13.3l-0.3,1.8L772,389.4z"/>
			<path class="st14" d="M747.1,366.9l4.9,12.7l1.1-1.2l-13-3.8l0.6,0.5l-4.9-12.7l-1.1,1.2l13,3.8L747.1,366.9z M734.1,363.1
				l4.9,12.7l0.2,0.4l0.4,0.1l13,3.8l1.7,0.5l-0.7-1.7l-4.9-12.7l-0.2-0.4l-0.4-0.1l-13-3.8l-1.7-0.5L734.1,363.1z"/>
			<path class="st14" d="M738.9,291.7l-10.3,8.8l1.5,0.6l-0.7-13.6l-0.3,0.7l10.3-8.8l-1.5-0.6l0.7,13.6L738.9,291.7z M738.2,278.1
				l-10.3,8.8l-0.3,0.3v0.4l0.7,13.6l0.1,1.8l1.4-1.2L740,293l0.3-0.3v-0.4l-0.7-13.6l-0.1-1.8L738.2,278.1z"/>
			<path class="st14" d="M764.5,284.6l-7.9-11l-0.7,1.4l13.6,0.5l-0.7-0.4l7.9,11l0.8-1.4l-13.6-0.5L764.5,284.6z M778.1,285.1
				l-7.9-11l-0.3-0.4h-0.4l-13.6-0.5l-1.8,0l1,1.4l7.9,11l0.3,0.4h0.4l13.6,0.5l1.8,0L778.1,285.1z"/>
			<path class="st15" d="M810.3,522.2l37.8-5.4l2.9,27.6c10.8-15.1,28.3-23.9,46.8-23.5c36.3,0.4,62,49.1,61.7,147.1l-51.4,1.3
				c0,0,6.4-103.8-28.8-103.3c-10.8,0.2-15.4,7.1-21.2,16.1l10.5,91.8l-48.1,1.8L810.3,522.2z"/>
			<path class="st14" d="M835.9,582.8c2.3-3.9-5.1-7.8-6.3-3.1c-0.5,1.7,0.3,3.5,2,4.2C833.1,584.6,834.9,584.1,835.9,582.8z"/>
			<path class="st14" d="M932.4,604.8c2.3-3.9-5.1-7.8-6.2-3.1c-0.5,1.7,0.3,3.5,2,4.2C929.7,606.6,931.4,606.2,932.4,604.8z"/>
			<path class="st14" d="M882.6,549.6c2.3-3.9-5.1-7.8-6.2-3.1c-0.5,1.7,0.3,3.5,2,4.2C879.9,551.4,881.7,550.9,882.6,549.6z"/>
			<path class="st14" d="M843,659.3c2.3-3.9-5.1-7.8-6.2-3.1c-0.5,1.7,0.3,3.5,2,4.2C840.3,661,842.1,660.6,843,659.3z"/>
			<path class="st14" d="M829.3,532.5c0.3,2.8,0.5,5.8,0.6,8.8l0.3-0.1c1.5-2.5,3.4-4.4,5-6.7c0.2,0,0.4,0,0.5,0.2
				c-1,2.5-3.4,4.5-4.5,6.8c-0.5,0.5-0.9,1.1-1.2,1.7c3.4,0,7.3-0.5,10.3-0.5c-0.3,1.1-1.4,0.9-2.3,1c-2.4,0-4.5,0.5-7,0.4l-0.1,0.1
				c2.4,2.8,6.1,4.5,7.5,7.9c-0.1,0.1-0.2,0.2-0.4,0.2c-2.4-2.8-5.2-4.8-7.8-7.3c-0.1,4.1,0.7,8.1,0.2,12.4
				c-0.4-0.3-0.7-0.8-0.8-1.4c-0.1-4-0.4-7.6-0.6-11.6l-0.7,0.8c-1.8,2.3-2.9,5.7-5.7,7.3h-0.2c0.1-0.9,1.2-1.4,1.6-2.4l3.6-5.5
				c-0.9-0.3-1.8,0-2.9,0.1c-1.8-0.2-3.8,0.3-5.6-0.2c-0.2-0.2-0.5-0.3-0.4-0.6c1.1-0.4,2.4,0.1,3.8,0c1.8-0.2,3.8-0.1,5.8-0.4
				c-2.5-2.2-4.9-4.6-7.1-7.1c0.3-0.5,0.9-0.1,1.2,0.2c2.1,2.1,4.2,4.2,6.5,6.1l0.1-0.2c-0.3-3.7-0.3-7.8-0.6-11.2
				C829.6,530.4,828.9,532.2,829.3,532.5z"/>
			<path class="st14" d="M836.4,606.3c0.3,2.8,0.5,5.8,0.6,8.8l0.3-0.1c1.5-2.5,3.4-4.4,5-6.7c0.2-0.1,0.3,0.1,0.5,0.2
				c-1,2.5-3.4,4.5-4.5,6.8c-0.4,0.6-1,1.1-1.2,1.7c3.4,0,7.3-0.5,10.3-0.5c-0.3,1.1-1.4,0.9-2.3,1c-2.4,0-4.5,0.5-7,0.4L838,618
				c2.4,2.8,6.1,4.5,7.5,7.9c-0.1,0.1-0.2,0.2-0.4,0.2c-2.4-2.8-5.2-4.8-7.8-7.3c-0.1,4.1,0.7,8.1,0.2,12.4
				c-0.4-0.3-0.7-0.8-0.8-1.4c-0.1-3.9-0.4-7.6-0.6-11.6l-0.7,0.8c-1.8,2.4-2.9,5.7-5.7,7.3h-0.2c0.1-0.9,1.2-1.4,1.6-2.3l3.6-5.5
				c-0.9-0.3-1.8,0-2.9,0.1c-1.8-0.2-3.8,0.3-5.6-0.2c-0.2-0.2-0.5-0.3-0.4-0.6c1.2-0.4,2.4,0.1,3.8,0c1.8-0.2,3.8-0.2,5.8-0.4
				c-2.5-2.2-4.9-4.6-7.1-7.1c0.3-0.5,0.9-0.1,1.2,0.2c2.1,2.1,4.2,4.2,6.5,6.1l0.1-0.2c-0.3-3.7-0.3-7.7-0.6-11.2
				C836.7,604.2,836,606,836.4,606.3z"/>
			<path class="st14" d="M923,557.7c0.3,2.8,0.5,5.8,0.6,8.8l0.3-0.1c1.4-2.5,3.4-4.4,5-6.7c0.2,0,0.4,0,0.5,0.2
				c-1,2.5-3.4,4.6-4.5,6.8c-0.4,0.6-1,1.1-1.2,1.7c3.4,0,7.3-0.5,10.3-0.5c-0.3,1-1.4,0.9-2.3,1c-2.4,0-4.5,0.5-7,0.4l-0.1,0.1
				c2.5,2.8,6.1,4.5,7.5,7.9c-0.1,0.1-0.2,0.2-0.4,0.2c-2.4-2.8-5.2-4.8-7.8-7.3c-0.1,4.1,0.7,8.1,0.2,12.4
				c-0.4-0.3-0.7-0.8-0.8-1.4c-0.1-3.9-0.4-7.6-0.6-11.6l-0.7,0.8c-1.8,2.3-2.9,5.7-5.7,7.3l-0.2-0.1c0.1-0.9,1.3-1.4,1.6-2.3
				l3.6-5.5c-0.9-0.3-1.8,0-2.9,0.1c-1.9-0.2-3.8,0.3-5.6-0.2c-0.2-0.2-0.5-0.3-0.3-0.6c1.1-0.4,2.4,0.1,3.8,0
				c1.8-0.2,3.8-0.1,5.8-0.4c-2.5-2.2-4.9-4.6-7.1-7.1c0.3-0.5,0.9-0.1,1.2,0.1c2.1,2.1,4.2,4.2,6.5,6.1l0.1-0.2
				c-0.3-3.7-0.3-7.8-0.6-11.2C923.3,555.6,922.6,557.4,923,557.7z"/>
			<path class="st14" d="M934.6,628.7c0.3,2.8,0.5,5.8,0.6,8.8l0.3-0.1c1.5-2.5,3.4-4.4,5-6.7c0.2,0,0.4,0,0.5,0.2
				c-1,2.5-3.4,4.5-4.5,6.8c-0.4,0.6-1,1-1.2,1.7c3.4,0,7.3-0.5,10.3-0.5c-0.3,1-1.4,0.9-2.3,1c-2.4,0-4.5,0.5-7,0.4l-0.1,0.1
				c2.4,2.8,6.1,4.5,7.5,7.9c-0.1,0.1-0.2,0.2-0.4,0.2c-2.4-2.8-5.2-4.8-7.8-7.3c-0.1,4.1,0.7,8.1,0.2,12.4
				c-0.4-0.4-0.7-0.8-0.8-1.4c-0.1-3.9-0.4-7.6-0.6-11.6l-0.7,0.8c-1.9,2.4-2.9,5.7-5.7,7.3l-0.2,0c0.1-0.9,1.2-1.4,1.6-2.4l3.6-5.5
				c-0.9-0.3-1.8,0-2.9,0.1c-1.8-0.2-3.8,0.3-5.6-0.2c-0.2-0.2-0.5-0.3-0.3-0.6c1.1-0.4,2.4,0.1,3.8,0c1.8-0.2,3.8-0.2,5.8-0.4
				c-2.5-2.2-4.9-4.6-7.1-7.1c0.3-0.5,0.9-0.1,1.2,0.1c2.1,2.1,4.2,4.2,6.5,6.1l0.1-0.2c-0.3-3.7-0.3-7.8-0.6-11.2
				C934.9,626.5,934.2,628.3,934.6,628.7z"/>
			<path class="st8" d="M677.9,548c-32.1,48.7-9.5,94,15.4,115.2c28.4,24.1,86.6,21.4,96.1-42.4C800.7,545.3,722.1,481.1,677.9,548z
				 M740.2,601.6c7.1,1.7,22.6,10.8,19,19.6c-5.3,12.9-23.6,1.5-29.2-6.8c1,13.5-9.6,42.1-22.8,23.4c-5.4-7.7-2.3-18.3,10.4-32.6
				c-17-1.8-32.6-11.4-26.4-23.4c4.2-8.1,22.8-1.3,30.5,7.7c-4.7-8.5-9.3-42.8,9-38.3c15.8,3.9,2.2,38.4,2.2,38.4
				c8.1-8,25.5-17.2,32.5-7.3C773.7,594.1,753.5,603.5,740.2,601.6L740.2,601.6z"/>
			<path class="st16" d="M681.8,556.1c-0.8,2.3,3.8,7.1,7.4,2.9S684.2,549.3,681.8,556.1z"/>
			<path class="st16" d="M694.8,540.5c-0.8,2.3,3.8,7.2,7.4,2.9S697.2,533.7,694.8,540.5z"/>
			<path class="st16" d="M709.9,533.6c-0.8,2.3,3.8,7.2,7.4,2.9S712.2,526.8,709.9,533.6z"/>
			<path class="st16" d="M727.6,532.8c-0.8,2.3,3.8,7.1,7.4,2.9S730,525.9,727.6,532.8z"/>
			<path class="st16" d="M744.9,542.5c-0.8,2.3,3.8,7.1,7.4,2.9S747.3,535.6,744.9,542.5z"/>
			<path class="st16" d="M759,555.7c-0.8,2.3,3.9,7.1,7.4,2.9S761.3,548.8,759,555.7z"/>
			<path class="st16" d="M768.6,571.9c-0.8,2.3,3.8,7.1,7.4,2.9S770.9,565.1,768.6,571.9z"/>
			<path class="st16" d="M774.8,590.2c-0.8,2.3,3.8,7.1,7.4,2.9S777.1,583.4,774.8,590.2z"/>
			<path class="st16" d="M777,611c-0.8,2.3,3.8,7.1,7.4,2.9S779.3,604.1,777,611z"/>
			<path class="st16" d="M772.9,626.6c-0.8,2.3,3.8,7.1,7.3,2.9S775.3,619.8,772.9,626.6z"/>
			<path class="st16" d="M765.2,642.2c-0.8,2.3,3.8,7.1,7.4,2.9S767.5,635.3,765.2,642.2z"/>
			<path class="st16" d="M752.6,657.2c-0.8,2.3,3.8,7.1,7.4,2.9S754.9,650.3,752.6,657.2z"/>
			<path class="st16" d="M734.1,666c-0.8,2.3,3.8,7.2,7.4,2.9S736.4,659.2,734.1,666z"/>
			<path class="st16" d="M672.1,572.9c-0.8,2.3,3.8,7.1,7.4,2.9S674.4,566.1,672.1,572.9z"/>
			<path class="st16" d="M668.3,591.7c-0.8,2.3,3.8,7.1,7.4,2.9S670.7,584.8,668.3,591.7z"/>
			<path class="st16" d="M668.9,611.6c-0.8,2.3,3.8,7.1,7.4,2.9S671.2,604.7,668.9,611.6z"/>
			<path class="st16" d="M675.6,629.8c-0.8,2.3,3.8,7.1,7.4,2.9S677.9,622.9,675.6,629.8z"/>
			<path class="st16" d="M684.5,644c-0.8,2.3,3.8,7.1,7.4,2.9S686.8,637.2,684.5,644z"/>
			<path class="st16" d="M698.1,658.3c-0.8,2.3,3.8,7.1,7.4,2.9S700.4,651.5,698.1,658.3z"/>
			<path class="st16" d="M714.2,666.6c-0.8,2.3,3.8,7.1,7.4,2.9S716.5,659.7,714.2,666.6z"/>
			<path class="st17" d="M1091.7,607.6c0,0,20.4-89.2-45.8-97.1s-97.1,150.8-19,168.9c40.5,9.4,56-28.1,58.8-42.1l-27.7-3.8
				c0,0-2.8,17-22.2,13.7c-25.2-4.3-15-51.5-15-51.5L1091.7,607.6z M1045.1,538.2c16.5,2.5,10.9,36.1,10.9,36.1l-29.5-4.1
				C1027.8,560.7,1033.3,536.4,1045.1,538.2z"/>
			<path class="st14" d="M991.3,615.2c-1.4,1.9,1.5,7.8,6,4.9S995.5,609.5,991.3,615.2z"/>
			<path class="st14" d="M1002.1,559.8c-1.4,1.9,1.5,7.8,6,4.9S1006.3,554.1,1002.1,559.8z"/>
			<path class="st14" d="M1039.7,520c-1.4,1.9,1.5,7.8,6,4.9S1043.9,514.3,1039.7,520z"/>
			<path class="st14" d="M1076.7,555.1c-1.4,1.9,1.5,7.8,6,4.9S1080.9,549.4,1076.7,555.1z"/>
			<path class="st14" d="M1052.3,586.4c-1.4,1.9,1.5,7.8,6,4.9S1056.4,580.7,1052.3,586.4z"/>
			<path class="st14" d="M1066.7,643.4c-1.4,1.9,1.5,7.8,6,4.9S1070.8,637.7,1066.7,643.4z"/>
			<path class="st14" d="M1021.9,662.2c-1.4,1.9,1.5,7.8,6,4.9S1026.1,656.5,1021.9,662.2z"/>
			<path class="st14" d="M1006.2,591.3l-10.5,14.1l2,0.4l-4.7-16.9l-0.2,1l10.5-14l-2-0.4l4.8,16.9L1006.2,591.3z M1001.5,574.4
				l-10.5,14.1l-0.3,0.5l0.2,0.5l4.8,16.9l0.6,2.2l1.4-1.8l10.5-14.1l0.3-0.5l-0.2-0.5l-4.8-16.9l-0.6-2.2L1001.5,574.4z"/>
			<path class="st14" d="M1070.9,583.3l8.7-15.3l-2-0.1l6.8,16.2l0.1-1l-8.7,15.3l2.1,0.1l-6.8-16.2L1070.9,583.3z M1077.7,599.5
				l8.7-15.3l0.3-0.5l-0.2-0.5l-6.8-16.2l-0.9-2.1l-1.2,2l-8.7,15.3l-0.3,0.5l0.2,0.5l6.8,16.2l0.9,2.1L1077.7,599.5z"/>
			<path class="st14" d="M1031,577.2l12.4,12.4l0.7-1.9l-17.4,2.2l0.9,0.3l-12.4-12.5l-0.7,1.9l17.4-2.3L1031,577.2z M1013.6,579.4
				l12.4,12.5l0.4,0.4l0.6-0.1l17.4-2.2l2.3-0.3l-1.7-1.7l-12.4-12.4l-0.4-0.4l-0.6,0.1l-17.4,2.2l-2.3,0.3L1013.6,579.4z"/>
			<path class="st14" d="M1044.4,658l17.2-3.5l-1.3-1.6l-7.7,15.8l0.8-0.6l-17.2,3.5l1.3,1.6l7.7-15.8L1044.4,658z M1036.8,673.8
				l17.2-3.5l0.6-0.1l0.3-0.5l7.7-15.8l1-2.1l-2.3,0.5l-17.2,3.5l-0.6,0.1l-0.3,0.5l-7.7,15.8l-1,2.1L1036.8,673.8z"/>
			<path class="st14" d="M1013,637.5l2,17.4l1.7-1.1l-15-9l0.5,0.8l-2-17.4l-1.7,1.1l15,9L1013,637.5z M998,628.4l2,17.4l0.1,0.6
				l0.5,0.3l15,9l2,1.2l-0.3-2.3l-2-17.4v-0.6l-0.5-0.3l-15-9l-2-1.2L998,628.4z"/>
			<path class="st14" d="M1027.3,540.8l-15.8,7.6l1.6,1.3l3.6-17.2l-0.6,0.8l15.8-7.6l-1.6-1.3l-3.6,17.2L1027.3,540.8z
				 M1030.9,523.6l-15.8,7.6l-0.5,0.3l-0.1,0.5l-3.6,17.2l-0.5,2.3l2.1-1l15.8-7.6l0.5-0.2l0.1-0.5l3.6-17.2l0.5-2.3L1030.9,523.6z"
				/>
			<path class="st14" d="M1061.7,540.4l-6.3-16.4l-1.4,1.5l16.8,5l-0.7-0.7l6.3,16.4l1.4-1.5l-16.8-5L1061.7,540.4z M1078.5,545.4
				l-6.3-16.4l-0.2-0.5l-0.5-0.2l-16.8-5l-2.2-0.7l0.8,2.2l6.3,16.4l0.2,0.5l0.5,0.2l16.8,5l2.2,0.7L1078.5,545.4z"/>
			<polygon class="st18" points="976.4,393.8 1082.4,375.5 1075.4,321.7 1020.8,330.9 997.9,164.7 931.7,177 			"/>
			<path class="st19" d="M970.5,279.8c0,0,9.1-0.8,7.9-14.5C978.4,265.3,967,270.8,970.5,279.8z"/>
			<path class="st19" d="M959.7,191.5c3.4,1.9,7.5,5.1,8.1,9.1c0.4,2.6-1.1,4.5-2.8,6.7c-1.1,1.3-2,2.8-2.8,4.3
				c-1.3,2.9-1.4,5.3-0.5,7.4c1.7,3.8,6.7,5.4,11.4,7c2.5,0.7,4.9,1.7,7.1,2.9c8.8,5.8,4.4,16.8,1.2,24.8l-0.2,0.6
				c-3.4,8.5-0.7,18.1,7.4,26.4c8,8,12.3,14.9,10.9,26c-0.5,3.9-2,7.2-3.5,10.3c-2.2,4.6-4.5,9.3-3.1,16.1c1,5.3,3.9,9.3,6.7,13.2
				c2.5,3.5,4.8,6.8,6,11c1.3,4.6,0.9,9.4-1.1,13.7l1.7,0.8c2.1-4.7,2.5-10,1.2-15c-1.2-4.5-3.8-8-6.3-11.5
				c-2.8-3.9-5.4-7.6-6.4-12.5c-1.2-6.1,0.8-10.4,3-14.9c1.6-3.3,3.2-6.6,3.7-10.9c1.5-11.9-3.1-19.1-11.4-27.6
				c-3.6-3.6-11.5-13.2-7-24.3l0.2-0.6c3.3-8.1,8.2-20.4-1.9-27.1c-2.4-1.4-4.9-2.4-7.6-3.2c-4.4-1.4-8.9-2.9-10.3-5.9
				c-0.7-1.6-0.5-3.5,0.5-5.9c0.7-1.4,1.5-2.7,2.5-3.9c1.8-2.3,3.6-4.7,3.1-8.1c-0.5-3.8-3.6-7.3-9-10.4L959.7,191.5z"/>
			<path class="st19" d="M987.7,366.8c0,0,10.1,3.2,15-12C1002.7,354.8,988,355.5,987.7,366.8z"/>
			<path class="st19" d="M1006.3,369c0,0-10.6,0.5-9.8,16.5C996.4,385.6,1009.9,379.7,1006.3,369z"/>
			<path class="st19" d="M976.2,339.9c0,0,10.1,3.2,15-12C991.2,327.9,976.6,328.6,976.2,339.9z"/>
			<path class="st19" d="M963.6,202.4c0,0-6.4-4.5-13.3,5.2C950.3,207.6,960.8,210.3,963.6,202.4z"/>
			<path class="st19" d="M1003.6,343.6c0,0,3.8,9.9,18.7,4.3C1022.4,347.9,1012.7,336.9,1003.6,343.6z"/>
			<path class="st19" d="M983.7,264.6c0,0,3.8,9.9,18.7,4.3C1002.4,268.9,992.8,257.9,983.7,264.6z"/>
			<path class="st19" d="M939.2,181c0,0-0.6,19.9,25.5,13.1C964.7,194.1,957.1,170.4,939.2,181z"/>
			<path class="st19" d="M968,248.7c0,0,10.1-3,5.7-18.4C973.6,230.3,961.9,239.1,968,248.7z"/>
			<path class="st19" d="M966.3,189.6c0,0,4.5,9.6,19,2.9C985.3,192.5,974.9,182.2,966.3,189.6z"/>
			<path class="st19" d="M1004,246.3c0,0,0.3-10.6-15.7-11.1C988.3,235.2,993.1,249.1,1004,246.3z"/>
			<path class="st19" d="M981.9,303.2c0,0,10.6-0.2,10.3-16.2C992.2,287,978.6,292.4,981.9,303.2z"/>
			<path class="st19" d="M1013.6,333c0,0,0.1-10.6-15.9-10.9C997.8,322.2,1002.7,336,1013.6,333z"/>
			<path class="st19" d="M969.2,214c0,0,3.8,9.9,18.7,4.3C988,218.3,978.3,207.3,969.2,214z"/>
			<path class="st19" d="M986,376.2c-0.9-1.1-2.5-1.3-3.6-0.4c-1.1,0.9-1.3,2.5-0.4,3.6c0.1,0.1,0.2,0.3,0.4,0.4
				c2.2,2.4,5.5,0.4,4.2-2.8C986.4,376.8,986.2,376.5,986,376.2z"/>
			<path class="st19" d="M1066,364.8c-0.9-1.1-2.6-1.2-3.6-0.2c-1.1,0.9-1.2,2.6-0.2,3.6c0.1,0.1,0.1,0.1,0.2,0.2
				c2.2,2.3,5.5,0.3,4.2-2.8C1066.4,365.3,1066.2,365.1,1066,364.8z"/>
			<path class="st19" d="M982.7,317.1c-2.3-2.7-6.3,0.8-3.7,3.6c2.2,2.4,5.5,0.4,4.2-2.8C983.1,317.6,982.9,317.3,982.7,317.1z"/>
			<path class="st19" d="M1004.8,279.8c-2.3-2.7-6.3,0.8-3.7,3.6c2.2,2.4,5.5,0.4,4.2-2.8C1005.2,280.3,1005,280,1004.8,279.8z"/>
			<path class="st19" d="M1018.6,372.5c-2.3-2.7-6.3,0.8-3.7,3.6c2.2,2.3,5.5,0.3,4.2-2.8C1018.9,373.1,1018.8,372.8,1018.6,372.5z"
				/>
			<path class="st19" d="M967.2,259.7c-0.9-1.1-2.5-1.2-3.6-0.3c-1.1,0.9-1.2,2.5-0.3,3.6c0.1,0.1,0.2,0.2,0.2,0.3
				c2.2,2.4,5.5,0.4,4.2-2.8C967.6,260.3,967.4,260,967.2,259.7z"/>
			<path class="st19" d="M994.1,223.8c-2.3-2.7-6.3,0.8-3.7,3.6c2.2,2.3,5.5,0.3,4.2-2.8C994.5,224.3,994.3,224,994.1,223.8z"/>
			<path class="st19" d="M962,227.6c-2.3-2.7-6.3,0.8-3.7,3.6c2.2,2.4,5.5,0.4,4.2-2.8C962.4,228.1,962.2,227.8,962,227.6z"/>
			<path class="st19" d="M984,177.8c-0.9-1.1-2.6-1.2-3.6-0.2s-1.2,2.6-0.2,3.6c0.1,0.1,0.1,0.1,0.2,0.2c2.2,2.4,5.5,0.4,4.2-2.8
				C984.4,178.3,984.2,178.1,984,177.8z"/>
			<path class="st19" d="M1045.9,347.3c-0.9-1.1-2.5-1.3-3.6-0.4s-1.3,2.5-0.4,3.6c0.1,0.1,0.2,0.2,0.3,0.3c2.2,2.4,5.5,0.3,4.2-2.7
				C1046.3,347.8,1046.1,347.5,1045.9,347.3z"/>
			<path class="st19" d="M971.5,291c-2.3-2.7-6.3,0.8-3.7,3.6c2.2,2.4,5.5,0.4,4.2-2.8C971.9,291.5,971.7,291.2,971.5,291z"/>
			<path class="st19" d="M987.9,201.6c-2.3-2.7-6.3,0.8-3.7,3.6c2.2,2.4,5.5,0.3,4.2-2.8C988.3,202.1,988.1,201.9,987.9,201.6z"/>
			<path class="st19" d="M1019.4,356.3c-2.3-2.7-6.3,0.8-3.7,3.6c2.2,2.4,5.5,0.3,4.2-2.8C1019.8,356.8,1019.6,356.5,1019.4,356.3z"
				/>
			<path class="st19" d="M984.4,351c-0.9-1.1-2.5-1.3-3.6-0.4c-1.1,0.9-1.3,2.5-0.4,3.6c0.1,0.1,0.2,0.3,0.4,0.4
				c2.2,2.4,5.5,0.4,4.2-2.8C984.8,351.5,984.6,351.2,984.4,351z"/>
			<path class="st19" d="M1061,346c2,5.4,5.2,8.1,8,6.7c5.2-2.7-3.4-8-5.7-9c2.1,0.9,9.3,1.1,9-3.4c-0.3-3.8-8.1-1.5-10.3,0.1
				c1.2-3.1-0.9-10.8-3.9-8.1c-2,1.8-1.8,6.7,0.1,9.1c-3-1.7-7.6-1.1-7.8,0.9c-0.3,2.8,4.1,3.4,7.3,2.3c-3.8,2.9-5.9,7.9-1.6,8.4
				C1059.9,353.3,1061,346,1061,346z"/>
			<path class="st19" d="M1038,365.7c1.7-0.2,10.2-0.8,9.8,3.1c-0.3,3.4-9.9,1.8-11.5-1c1,3.8-1.2,10.7-4.2,6.5
				c-1.5-2.2,0.9-6.3,1.8-7.9c-3,1.7-10.8,3.5-11-0.5c-0.1-3.3,8.2-3.4,10.3-3.4c-3.1-2-6.3-10.4-3-12.6c5.7-3.7,8.1,9,6.9,12.7
				c0.7-1,7-9.9,8.4-4.6C1046.5,361.4,1038,365.7,1038,365.7z"/>
			<polygon class="st20" points="829.8,405.4 926,404.5 927.6,356 878.1,356.3 881.7,206.3 821.5,207.6 			"/>
			<path class="st21" d="M841,304c0,0,8.1,0.6,9-11.7C850,292.3,839.2,295.5,841,304z"/>
			<path class="st21" d="M844.1,224.4c2.7,2.2,5.9,5.6,5.8,9.2c0,2.4-1.6,3.8-3.4,5.5c-1.2,1-2.2,2.2-3,3.4c-1.5,2.4-2,4.5-1.5,6.5
				c1,3.6,5.1,5.7,9.1,7.8c2.1,1,4.1,2.2,5.9,3.6c6.9,6.4,1.5,15.5-2.5,22.1l-0.3,0.5c-4.2,7-3.2,15.9,2.8,24.3
				c5.9,8.2,8.7,14.9,5.9,24.6c-1,3.1-2.6,6-4.6,8.5c-2.6,3.7-5.3,7.6-5.1,13.7c0.2,4.8,2.1,8.8,4,12.6c1.7,3.5,3.3,6.7,3.7,10.5
				c0.5,4.2-0.6,8.5-2.9,12l1.4,0.9c2.6-3.9,3.7-8.5,3.2-13.1c-0.5-4.1-2.2-7.6-3.9-11.1c-1.9-3.9-3.7-7.5-3.8-12
				c-0.2-5.6,2.2-9,4.8-12.7c2.1-2.7,3.7-5.8,4.8-9c3-10.3,0-17.3-6.1-26c-2.7-3.7-8.2-13.3-2.7-22.5l0.3-0.5
				c4-6.7,10.1-16.8,2.2-24.1c-1.9-1.6-4-2.9-6.2-3.9c-3.7-1.9-7.5-3.9-8.3-6.8c-0.4-1.5,0-3.2,1.3-5.1c0.8-1.2,1.7-2.2,2.8-3.1
				c1.9-1.8,3.8-3.6,3.9-6.7c0.1-3.4-2.1-7-6.5-10.5L844.1,224.4z"/>
			<path class="st21" d="M843.7,383.2c0,0,8.4,4.3,15-8.5C858.6,374.8,845.6,373.3,843.7,383.2z"/>
			<path class="st21" d="M859.7,387.9c0,0-9.4-1-11,13.2C848.7,401,861.4,397.8,859.7,387.9z"/>
			<path class="st21" d="M837.4,357.8c0,0,8.4,4.3,15-8.5C852.4,349.4,839.3,347.9,837.4,357.8z"/>
			<path class="st21" d="M846.1,234.6c0,0-5-4.9-12.5,2.6C833.6,237.3,842.5,241.2,846.1,234.6z"/>
			<path class="st21" d="M861.1,365c0,0,1.9,9.3,15.9,6.5C877,371.5,870.1,360.4,861.1,365z"/>
			<path class="st21" d="M854.8,292.4c0,0,1.9,9.3,15.9,6.5C870.8,298.9,863.8,287.8,854.8,292.4z"/>
			<path class="st21" d="M827.5,212.2c0,0-3.4,17.5,20.6,15.2C848.2,227.4,844.9,205.5,827.5,212.2z"/>
			<path class="st21" d="M843.2,276.1c0,0,9.4-1.2,7.6-15.4C850.9,260.7,839.3,266.8,843.2,276.1z"/>
			<path class="st21" d="M850.3,223.7c0,0,2.6,9.1,16.4,5.3C866.7,229,858.9,218.4,850.3,223.7z"/>
			<path class="st21" d="M875.4,279.2c0,0,1.8-9.3-12.3-12C863.2,267.1,865.4,280,875.4,279.2z"/>
			<path class="st21" d="M847.7,326.2c0,0,9.4,1.3,11.5-12.8C859.2,313.4,846.3,316.2,847.7,326.2z"/>
			<path class="st21" d="M871.4,357.1c0,0,1.6-9.3-12.4-11.9C859,345.3,861.4,358.2,871.4,357.1z"/>
			<path class="st21" d="M849.3,245.7c0,0,1.9,9.3,15.9,6.5C865.3,252.2,858.3,241,849.3,245.7z"/>
			<path class="st12" d="M840.8,391.3c-0.7-1.1-2.1-1.4-3.2-0.8c-1.1,0.7-1.4,2.1-0.8,3.2c0,0.1,0.1,0.1,0.1,0.2
				c1.6,2.4,4.8,1.1,4.1-1.8C841,391.8,840.9,391.5,840.8,391.3z"/>
			<path class="st21" d="M913.1,392.7c-0.6-1.1-2-1.5-3.1-0.8c-1.1,0.6-1.5,2-0.8,3.1c0.1,0.1,0.1,0.2,0.2,0.3
				c1.6,2.4,4.8,1.1,4.1-1.8C913.4,393.2,913.3,393,913.1,392.7z"/>
			<path class="st12" d="M846.5,338.6c-0.7-1.1-2.1-1.4-3.2-0.8c-1.1,0.7-1.4,2.1-0.8,3.2c0,0.1,0.1,0.1,0.1,0.2
				c1.6,2.4,4.8,1.1,4.1-1.8C846.7,339.1,846.6,338.9,846.5,338.6z"/>
			<path class="st12" d="M871.3,308.8c-0.7-1.1-2.1-1.4-3.2-0.8c-1.1,0.7-1.4,2.1-0.8,3.2c0,0.1,0.1,0.2,0.2,0.2
				c1.6,2.4,4.8,1.1,4.1-1.8C871.5,309.3,871.4,309.1,871.3,308.8z"/>
			<path class="st12" d="M870.1,392.7c-0.7-1.1-2.1-1.4-3.2-0.8c-1.1,0.7-1.4,2.1-0.8,3.2c0,0.1,0.1,0.2,0.2,0.2
				c1.6,2.4,4.8,1.1,4.1-1.8C870.4,393.2,870.3,393,870.1,392.7z"/>
			<path class="st12" d="M841,285.8c-0.6-1.1-2-1.5-3.1-0.9c-1.1,0.6-1.5,2-0.9,3.1c0.1,0.1,0.2,0.2,0.2,0.4
				c1.6,2.4,4.8,1.1,4.1-1.8C841.3,286.3,841.1,286,841,285.8z"/>
			<path class="st12" d="M869.9,257.9c-0.7-1.1-2.1-1.4-3.2-0.8c-1.1,0.7-1.4,2.1-0.8,3.2c0,0.1,0.1,0.2,0.2,0.2
				c1.6,2.4,4.8,1.1,4.1-1.8C870.1,258.4,870,258.1,869.9,257.9z"/>
			<path class="st12" d="M841,256.6c-0.6-1.1-2-1.5-3.1-0.8c-1.1,0.6-1.5,2-0.8,3.1c0.1,0.1,0.1,0.2,0.2,0.3
				c1.6,2.4,4.8,1.1,4.1-1.8C841.3,257.1,841.1,256.9,841,256.6z"/>
			<path class="st12" d="M867.6,215.9c-0.6-1.1-2-1.5-3.1-0.8c-1.1,0.6-1.5,2-0.8,3.1c0.1,0.1,0.1,0.2,0.2,0.3
				c1.6,2.4,4.8,1.1,4.1-1.8C867.8,216.4,867.7,216.1,867.6,215.9z"/>
			<path class="st21" d="M897.9,374.3c-0.7-1.1-2.1-1.4-3.2-0.8c-1.1,0.7-1.4,2.1-0.8,3.2c0,0.1,0.1,0.1,0.1,0.2
				c1.6,2.4,4.8,1.1,4.1-1.8C898.1,374.9,898,374.6,897.9,374.3z"/>
			<path class="st21" d="M840.3,314c-0.7-1.1-2.1-1.4-3.2-0.8c-1.1,0.7-1.4,2.1-0.8,3.2c0,0.1,0.1,0.2,0.2,0.2
				c1.6,2.4,4.8,1.1,4.1-1.8C840.6,314.5,840.5,314.2,840.3,314z"/>
			<path class="st21" d="M867.6,237.4c-0.6-1.1-2-1.5-3.1-0.9c-1.1,0.6-1.5,2-0.9,3.1c0.1,0.1,0.2,0.2,0.2,0.4
				c1.6,2.4,4.8,1.1,4.1-1.8C867.9,237.9,867.8,237.7,867.6,237.4z"/>
			<path class="st21" d="M873.2,378.5c-0.6-1.1-2-1.5-3.1-0.8c-1.1,0.6-1.5,2-0.8,3.1c0.1,0.1,0.1,0.2,0.2,0.3
				c1.6,2.4,4.8,1.1,4.1-1.8C873.5,379,873.3,378.7,873.2,378.5z"/>
			<path class="st21" d="M843,368.8c-0.7-1.1-2.1-1.4-3.2-0.8c-1.1,0.7-1.4,2.1-0.8,3.2c0,0.1,0.1,0.1,0.1,0.2
				c1.6,2.4,4.8,1.1,4.1-1.8C843.2,369.3,843.1,369,843,368.8z"/>
			<path class="st12" d="M911.4,375.4c1,5,3.5,7.9,6.1,7c4.9-1.6-1.9-7.6-3.7-8.8c1.7,1.1,8.1,2.3,8.4-1.7c0.3-3.4-7-2.5-9.1-1.4
				c1.5-2.5,0.8-9.7-2.3-7.7c-2,1.3-2.6,5.6-1.2,8.1c-2.4-2-6.5-2.1-7-0.3c-0.7,2.4,3.1,3.6,6.2,3.1c-3.8,2-6.3,6.1-2.6,7.2
				C909.4,381.6,911.4,375.4,911.4,375.4z"/>
			<path class="st12" d="M888.2,389.5c1.5,0,9.2,0.7,8.2,4.2c-0.8,3-9,0.1-10-2.5c0.4,3.5-2.6,9.3-4.6,5.1c-1-2.1,1.7-5.4,2.7-6.7
				c-2.8,1.1-10.1,1.5-9.6-2c0.3-2.9,7.7-1.8,9.6-1.5c-2.5-2.2-4-10.1-0.8-11.5c5.5-2.5,5.9,9.1,4.3,12.2c0.7-0.8,7.6-7.7,8.1-2.9
				C896.3,386.9,888.2,389.5,888.2,389.5z"/>
			<path class="st22" d="M1168.9,431.7l-2.2,0.5l-0.2,2.3c-0.1,1.4-9.6,143.9-9.5,175.7v2.5l40.1,8l0.6-3
				c3.3-17,32.4-166.1,31.5-175.7l-0.2-1.8l-1.6-0.7C1226.2,438.9,1195.8,425.4,1168.9,431.7z"/>
			<path class="st22" d="M1170.8,631.9c-11.8,2.3-22,11.6-24.6,22.5c-0.4,1.6-0.7,3.3-0.9,5c-1.7,14.2,4.4,25.4,17.4,31.2
				c15.1,6.7,29,2.7,36.4-10.6c5.3-9.4,6.6-21.6,3.3-30.2C1198.2,638.8,1185.2,629.1,1170.8,631.9z"/>
			<path class="st12" d="M1176.9,641.4c-0.3,2.7-0.3,6-0.9,8.1c0.6,2.9-0.8,6.5-0.4,9.4l11.4-10.9c0.5,0.1,1-0.5,1.5,0.2l-0.1,0.7
				c-3.8,4.5-8.8,7.7-12.3,12.4c5.1,1,11.2,0.3,16.6,0.4c0.4-0.4,1.3-0.8,1.8-0.2c-2.3,2.5-6.2,2.1-9.6,2.2
				c-2.8,0.4-5.7-1.1-8.4-0.2c1.8,3.8,5.9,5.9,7.1,10c-0.9,0.4-1.4-0.4-2.4-0.7c-2.2-2.4-3.9-5.3-6.2-7.5
				c-1.2,5.4,1.1,12.4-2.5,17.2c-0.9-0.5-0.5-1.7-0.4-2.5c-0.2-4.7,0.6-10.2,0.6-14.9c-3,2.1-4.7,6.1-8.5,8
				c-0.2-0.3-0.6-0.1-0.7-0.5c1.5-3,4.5-5.7,7-8.5l0.7-0.5c-1.8-1.6-5.2-1.1-7.6-1.7l-8.3-0.8c-0.5-0.2-0.9-0.8-0.4-1.3
				c5.7,0.2,11.4,0,17,1.3c-2.8-3.6-5.8-7.3-7.6-11.4c0.4-0.4,1.1-0.5,1.6-0.2c2.6,3.5,4.3,6.7,7.4,9.8l0.4-1.3
				c0.4-5.9,1.2-12.6,1.8-18.5C1176.4,639.6,1176.9,640.7,1176.9,641.4z"/>
			<path class="st14" d="M1212.6,491.9c0,0-9.4-5.7-18.2,8.5C1194.4,500.3,1209.5,503.2,1212.6,491.9z"/>
			<path class="st14" d="M1209.8,515.4c0,0-9.4-5.8-18.2,8.5C1191.6,523.8,1206.6,526.7,1209.8,515.4z"/>
			<path class="st14" d="M1206.8,539.4c0,0-9.4-5.7-18.2,8.5C1188.6,547.9,1203.6,550.8,1206.8,539.4z"/>
			<path class="st14" d="M1203.8,563.7c0,0-9.4-5.7-18.2,8.5C1185.6,572.2,1200.7,575.1,1203.8,563.7z"/>
			<path class="st14" d="M1201.3,584.3c0,0-9.4-5.8-18.2,8.5C1183.1,592.8,1198.1,595.7,1201.3,584.3z"/>
			<path class="st14" d="M1172.8,487c0,0,10.5-3.3,15.6,12.6C1188.3,499.6,1173.1,498.8,1172.8,487z"/>
			<path class="st14" d="M1169.9,510.5c0,0,10.5-3.3,15.6,12.6C1185.5,523.1,1170.2,522.3,1169.9,510.5z"/>
			<path class="st14" d="M1166.9,534.5c0,0,10.5-3.3,15.6,12.6C1182.5,547.1,1167.2,546.3,1166.9,534.5z"/>
			<path class="st14" d="M1163.9,558.8c0,0,10.5-3.3,15.6,12.6C1179.5,571.4,1164.3,570.6,1163.9,558.8z"/>
			<path class="st14" d="M1161.4,579.4c0,0,10.5-3.3,15.6,12.6C1177,592,1161.7,591.2,1161.4,579.4z"/>
			
				<rect x="1120.8" y="540.6" transform="matrix(0.1217 -0.9926 0.9926 0.1217 504.4168 1653.3585)" class="st14" width="131.3" height="2.2"/>
			<path class="st23" d="M1177.7,441.7c14.5,4.4-1.4,26.8,15.2,31.7c8,2.4,13.9-3,15.4-10.8c1.4-7.4,0.2-12.2,8.5-14.7
				c-5.8-0.6-10.4-2-14.8,3.1c0-1.9-0.1-11-2.5-13.4c-4.5,1.2-5.4,8.3-6.8,12.2C1189.9,444.1,1183.9,440.8,1177.7,441.7z"/>
			<path class="st7" d="M640,596.1c-10.2-85.7-72.6-110.1-119.8-107.5c-17.1,0.9-60.3,8.7-60.3,8.7l35,237.2c0,0,42.6-4,59.9-8.4
				C597.7,715,650.4,682.7,640,596.1z M541.8,667.9l-16.6-116.3c13.8-2.6,52.6-1.8,60.6,41.6C598.6,662.4,541.8,667.9,541.8,667.9z"
				/>
			<polygon class="st14" points="490.9,557.1 496.1,536.8 506.6,555 501.4,575.4 			"/>
			<polygon class="st14" points="530.9,511.9 548.1,524 527.3,527.3 510.1,515.2 			"/>
			<polygon class="st14" points="600.2,546.7 608.3,566.1 588.9,557.8 580.9,538.4 			"/>
			<polygon class="st14" points="619.8,624.1 609.9,643 603.8,622.5 613.7,603.6 			"/>
			<polygon class="st14" points="578.9,689.5 559.2,697 568.1,678 587.8,670.5 			"/>
			<polygon class="st24" points="491.9,509.4 495,528.2 496,528 493,509.3 			"/>
			<polygon class="st24" points="502.3,516.9 485.5,519.7 485.7,520.7 502.4,518 			"/>
			<polygon class="st24" points="501.3,523.1 487.3,513.6 486.7,514.5 500.7,524 			"/>
			<polygon class="st24" points="497.9,511.3 489.2,525.8 490.1,526.4 498.8,511.8 			"/>
			<polygon class="st24" points="563.6,518.9 566.6,537.6 567.7,537.5 564.6,518.7 			"/>
			<polygon class="st24" points="573.9,526.4 557.2,529.1 557.4,530.2 574.1,527.4 			"/>
			<polygon class="st24" points="573,532.6 558.9,523.1 558.3,524 572.4,533.5 			"/>
			<polygon class="st24" points="569.5,520.7 560.8,535.3 561.8,535.8 570.5,521.3 			"/>
			<polygon class="st24" points="610,575.3 613.5,596.4 614.7,596.2 611.2,575.1 			"/>
			<polygon class="st24" points="621.7,583.8 602.8,586.8 603,588.1 621.9,584.9 			"/>
			<polygon class="st24" points="620.6,590.7 604.8,580.1 604.1,581.1 619.9,591.7 			"/>
			<polygon class="st24" points="616.7,577.4 606.9,593.8 608,594.4 617.8,578 			"/>
			<polygon class="st24" points="598.4,648.8 601.5,667.6 602.6,667.4 599.5,648.7 			"/>
			<polygon class="st24" points="608.8,656.3 592.1,659.1 592.3,660.1 609,657.4 			"/>
			<polygon class="st24" points="607.9,662.5 593.8,653 593.2,653.9 607.2,663.4 			"/>
			<polygon class="st24" points="604.4,650.7 595.7,665.2 596.6,665.8 605.3,651.2 			"/>
			<polygon class="st24" points="542.1,688.9 545.1,707.7 546.2,707.5 543.1,688.8 			"/>
			<polygon class="st24" points="552.4,696.4 535.7,699.2 535.9,700.3 552.6,697.5 			"/>
			<polygon class="st24" points="551.5,702.6 537.4,693.1 536.8,694 550.9,703.5 			"/>
			<polygon class="st24" points="548,690.8 539.4,705.3 540.3,705.9 549,691.3 			"/>
			<polygon class="st14" points="499.1,629 504.3,608.6 514.8,626.8 509.6,647.2 			"/>
			<polygon class="st24" points="500.1,581.2 503.2,600 504.2,599.8 501.2,581.1 			"/>
			<polygon class="st24" points="510.5,588.7 493.8,591.5 493.9,592.5 510.6,589.8 			"/>
			<polygon class="st24" points="509.5,594.9 495.5,585.5 494.9,586.3 508.9,595.8 			"/>
			<polygon class="st24" points="506.1,583.1 497.4,597.6 498.3,598.2 507,583.6 			"/>
			<polygon class="st14" points="510.5,699.9 515.7,679.6 526.1,697.8 520.9,718.2 			"/>
			<polygon class="st24" points="508.2,652.3 511.3,671.1 512.3,670.9 509.3,652.2 			"/>
			<polygon class="st24" points="518.6,659.8 501.9,662.6 502,663.6 518.8,660.9 			"/>
			<polygon class="st24" points="517.6,666 503.6,656.5 503,657.4 517,666.9 			"/>
			<polygon class="st24" points="514.2,654.2 505.5,668.7 506.4,669.3 515.1,654.7 			"/>
			<path class="st25" d="M160.1,640.7v28.6c0,0.3-0.2,0.5-0.5,0.5s-0.5-0.2-0.5-0.5l0,0v-28.6c0-0.3,0.2-0.5,0.5-0.5
				S160.1,640.4,160.1,640.7z"/>
			<path class="st25" d="M172.8,655.7c-9.3,0-18.6-0.5-27.9,0.8c-0.6,0.1-0.9-0.8-0.3-0.9c9.3-1.3,18.8-0.9,28.1-0.9
				c0.3,0,0.5,0.2,0.5,0.5S173,655.8,172.8,655.7L172.8,655.7z"/>
			<path class="st25" d="M151.9,646.1c2.6,6.7,10.6,9.8,15.3,14.9c0.4,0.5-0.3,1.2-0.7,0.7c-4.8-5.2-12.9-8.4-15.5-15.3
				C150.8,645.8,151.7,645.6,151.9,646.1L151.9,646.1z"/>
			<path class="st25" d="M168,647c-3.1,1.8-5.4,5.2-7.6,7.9c-2.5,3.1-4.8,6.4-7.1,9.6c-0.4,0.5-1.2,0-0.8-0.5
				c2.4-3.3,4.8-6.6,7.3-9.8c2.2-2.8,4.6-6.2,7.8-8.1c0.2-0.1,0.5,0,0.7,0.2C168.3,646.6,168.2,646.9,168,647L168,647z"/>
			<path class="st26" d="M170.6,688.7v20.3c0,0.2,0.2,0.3,0.4,0.3c0.1,0,0.3-0.1,0.3-0.3v-20.3c0-0.2-0.2-0.3-0.4-0.3
				C170.8,688.5,170.7,688.6,170.6,688.7z"/>
			<path class="st26" d="M161.6,699.5c6.6,0,13.3-0.4,19.9,0.6c0.4,0.1,0.6-0.6,0.2-0.7c-6.6-1-13.4-0.6-20-0.6
				c-0.2,0-0.3,0.2-0.3,0.4C161.4,699.3,161.5,699.4,161.6,699.5L161.6,699.5z"/>
			<path class="st26" d="M176.4,692.6c-1.8,4.8-7.6,7-10.9,10.6c-0.3,0.3,0.2,0.8,0.5,0.5c3.4-3.7,9.2-6,11.1-10.9
				C177.2,692.4,176.6,692.2,176.4,692.6z"/>
			<path class="st26" d="M165,693.2c2.2,1.3,3.9,3.7,5.4,5.6c1.8,2.2,3.4,4.5,5.1,6.8c0.3,0.3,0.9,0,0.6-0.3c-1.7-2.3-3.4-4.7-5.2-7
				c-1.6-2-3.3-4.4-5.5-5.8c-0.2-0.1-0.4,0-0.5,0.1C164.8,692.9,164.8,693.1,165,693.2L165,693.2L165,693.2z"/>
			<path class="st27" d="M318.5,801.8c0.4,4.6,0.7,9.8,0.7,14.8l0.6-0.1c2.5-4.1,5.8-7.2,8.6-11c0.3-0.1,0.6,0.1,0.8,0.3
				c-1.8,4.1-5.9,7.5-7.8,11.1c-0.7,1-1.8,1.8-2.1,2.7c5.7,0.1,12.2-0.6,17.3-0.5c-0.5,1.7-2.4,1.5-3.9,1.6
				c-4.1-0.1-7.5,0.6-11.7,0.4l-0.2,0.2c4,4.8,10,7.8,12.2,13.5c-0.2,0.2-0.4,0.3-0.7,0.3c-3.9-4.8-8.5-8.2-12.8-12.6
				c-0.4,6.9,0.8,13.5-0.2,20.7c-0.7-0.6-1.1-1.4-1.3-2.3c0-6.6-0.4-12.8-0.6-19.4l-1.3,1.4c-3.2,3.9-5,9.5-9.8,11.9l-0.3-0.1
				c0.2-1.5,2.1-2.3,2.7-3.9l6.3-9c-1.5-0.6-3.1,0-4.9,0c-3.1-0.4-6.3,0.3-9.4-0.6c-0.3-0.3-0.9-0.6-0.6-1.1c1.9-0.7,4,0.3,6.4,0.1
				c3.1-0.2,6.3-0.1,9.7-0.5c-4.1-3.9-8-7.9-11.6-12.2c0.5-0.9,1.5-0.1,1.9,0.3c3.5,3.6,6.8,7.2,10.7,10.5l0.2-0.4
				c-0.4-6.2-0.2-13-0.6-18.8C319.1,798.2,317.9,801.2,318.5,801.8z"/>
			<path class="st27" d="M373,600.8v31.3c0,0.3-0.2,0.5-0.5,0.5c-0.3,0-0.5-0.2-0.5-0.5v-31.3c0-0.3,0.2-0.5,0.5-0.5
				C372.8,600.2,373,600.5,373,600.8z"/>
			<path class="st27" d="M386.9,617.3c-10.2,0-20.4-0.5-30.6,0.9c-0.7,0.1-1-0.9-0.3-1c10.2-1.5,20.6-1,30.9-1
				c0.3,0,0.5,0.3,0.5,0.6C387.4,617.1,387.2,617.3,386.9,617.3L386.9,617.3z"/>
			<path class="st27" d="M364.1,606.8c2.8,7.4,11.6,10.8,16.8,16.3c0.5,0.5-0.3,1.3-0.8,0.8c-5.3-5.7-14.1-9.2-17-16.8
				C362.9,606.4,363.9,606.1,364.1,606.8L364.1,606.8z"/>
			<path class="st27" d="M381.7,607.7c-3.4,2-5.9,5.7-8.3,8.7c-2.7,3.4-5.3,7-7.8,10.5c-0.4,0.5-1.3,0-0.9-0.5
				c2.6-3.6,5.3-7.2,8-10.7c2.4-3.1,5.1-6.8,8.5-8.8c0.3-0.1,0.6-0.1,0.7,0.2C382,607.2,381.9,607.5,381.7,607.7L381.7,607.7
				L381.7,607.7z"/>
			<path class="st25" d="M1275.1,132.2v28.6c0,0.3-0.2,0.5-0.5,0.5s-0.5-0.2-0.5-0.5l0,0v-28.6c0-0.3,0.2-0.5,0.5-0.5
				S1275.1,131.9,1275.1,132.2z"/>
			<path class="st25" d="M1287.8,147.2c-9.3,0-18.6-0.5-27.9,0.8c-0.6,0.1-0.9-0.9-0.3-0.9c9.3-1.3,18.7-0.9,28.1-0.9
				c0.3,0,0.5,0.2,0.5,0.5S1288.1,147.3,1287.8,147.2L1287.8,147.2z"/>
			<path class="st25" d="M1267,137.6c2.6,6.7,10.6,9.9,15.3,14.9c0.4,0.5-0.3,1.1-0.7,0.7c-4.8-5.2-12.9-8.4-15.5-15.3
				C1265.8,137.3,1266.8,137.1,1267,137.6L1267,137.6z"/>
			<path class="st25" d="M1283,138.5c-3.1,1.8-5.4,5.2-7.6,7.9c-2.5,3.1-4.8,6.4-7.1,9.6c-0.4,0.5-1.2,0-0.8-0.5
				c2.4-3.3,4.8-6.6,7.3-9.8c2.2-2.8,4.6-6.2,7.8-8.1c0.2-0.1,0.5-0.1,0.7,0.2C1283.3,138,1283.2,138.3,1283,138.5L1283,138.5
				L1283,138.5z"/>
			<path class="st26" d="M1285.7,180.2v20.4c0,0.2,0.2,0.3,0.4,0.3c0.1,0,0.3-0.1,0.3-0.3v-20.4c0-0.2-0.2-0.3-0.4-0.3
				C1285.8,180,1285.7,180.1,1285.7,180.2z"/>
			<path class="st26" d="M1276.6,191c6.6,0,13.3-0.4,19.9,0.6c0.4,0.1,0.6-0.6,0.2-0.7c-6.6-0.9-13.3-0.6-20-0.6
				c-0.2,0-0.3,0.2-0.3,0.4C1276.4,190.9,1276.5,191,1276.6,191L1276.6,191z"/>
			<path class="st26" d="M1291.4,184.1c-1.8,4.8-7.6,7-10.9,10.6c-0.3,0.3,0.2,0.8,0.5,0.5c3.4-3.7,9.2-6,11.1-10.9
				C1292.3,183.9,1291.6,183.7,1291.4,184.1L1291.4,184.1z"/>
			<path class="st26" d="M1280,184.7c2.2,1.3,3.8,3.7,5.4,5.6c1.8,2.2,3.4,4.5,5.1,6.8c0.3,0.4,0.9,0,0.6-0.4
				c-1.7-2.3-3.4-4.7-5.2-7c-1.6-2-3.3-4.4-5.5-5.8c-0.2-0.1-0.4,0-0.5,0.2C1279.8,184.4,1279.9,184.6,1280,184.7L1280,184.7z"/>
			<path class="st27" d="M1415,251.7c0.4,4.4,0.7,9.2,0.7,13.9l0.5-0.1c2.4-3.8,5.5-6.7,8.1-10.4c0.3-0.1,0.6,0,0.7,0.3
				c-1.7,3.8-5.5,7-7.4,10.5c-0.6,0.9-1.6,1.6-2,2.5c5.3,0.1,11.4-0.5,16.3-0.5c-0.4,1.6-2.3,1.4-3.6,1.5c-3.8-0.1-7,0.5-11,0.4
				l-0.2,0.2c3.7,4.5,9.4,7.4,11.4,12.6c-0.1,0.2-0.4,0.3-0.6,0.3c-3.6-4.5-8-7.7-12-11.8c-0.4,6.5,0.7,12.7-0.2,19.4
				c-0.6-0.6-1.1-1.3-1.2-2.2c0-6.2-0.4-12-0.5-18.2l-1.2,1.3c-3,3.6-4.7,8.9-9.2,11.2l-0.3-0.1c0.2-1.5,2-2.2,2.6-3.6l5.9-8.5
				c-1.4-0.5-2.9,0-4.6,0c-2.9-0.4-5.9,0.3-8.8-0.5c-0.3-0.3-0.8-0.5-0.6-1c1.8-0.6,3.7,0.3,6,0.1c2.9-0.2,5.9-0.1,9.1-0.5
				c-3.8-3.6-7.5-7.4-10.9-11.5c0.5-0.8,1.4-0.1,1.8,0.3c3.3,3.4,6.4,6.7,10,9.8l0.2-0.4c-0.4-5.8-0.2-12.2-0.6-17.6
				C1415.5,248.4,1414.3,251.2,1415,251.7z"/>
			<path class="st27" d="M77,270c0.4,4.6,0.7,9.8,0.7,14.8l0.6-0.1c2.5-4.1,5.8-7.2,8.6-11c0.3-0.1,0.6,0.1,0.8,0.3
				c-1.8,4.1-5.9,7.5-7.8,11.1c-0.7,1-1.7,1.7-2.1,2.7c5.7,0.1,12.2-0.6,17.3-0.5c-0.5,1.7-2.4,1.5-3.9,1.6
				c-4.1-0.1-7.4,0.6-11.7,0.4l-0.2,0.2c4,4.8,10,7.8,12.2,13.5c-0.2,0.2-0.4,0.3-0.7,0.3c-3.9-4.8-8.5-8.2-12.8-12.6
				c-0.4,6.9,0.8,13.5-0.2,20.7c-0.7-0.6-1.1-1.4-1.3-2.3c0-6.6-0.4-12.8-0.6-19.4l-1.3,1.4c-3.2,3.9-5,9.5-9.8,11.9l-0.3-0.1
				c0.2-1.5,2.1-2.3,2.7-3.9l6.3-9c-1.5-0.6-3.1,0-4.8,0c-3.1-0.4-6.3,0.3-9.4-0.6c-0.3-0.3-0.9-0.6-0.6-1.1c1.9-0.7,4,0.3,6.4,0.1
				c3.1-0.2,6.3-0.1,9.7-0.5c-4.1-3.9-8-7.9-11.6-12.2c0.5-0.9,1.5-0.1,1.9,0.3c3.5,3.6,6.8,7.2,10.7,10.5l0.2-0.4
				c-0.4-6.2-0.2-13-0.6-18.8C77.6,266.5,76.3,269.4,77,270z"/>
			<path class="st27" d="M1435.6,127.1v29.4c0,0.3-0.2,0.5-0.5,0.5s-0.5-0.2-0.5-0.5v-29.4c0-0.3,0.2-0.5,0.5-0.5
				S1435.6,126.8,1435.6,127.1z"/>
			<path class="st27" d="M1448.7,142.6c-9.6,0-19.2-0.5-28.7,0.9c-0.6,0.1-0.9-0.9-0.3-1c9.6-1.4,19.3-0.9,29-0.9
				c0.3,0,0.5,0.2,0.5,0.5S1449,142.5,1448.7,142.6L1448.7,142.6z"/>
			<path class="st27" d="M1427.2,132.7c2.7,6.9,10.9,10.1,15.7,15.4c0.4,0.5-0.3,1.2-0.7,0.7c-5-5.4-13.3-8.6-16-15.8
				C1426,132.4,1427,132.1,1427.2,132.7L1427.2,132.7z"/>
			<path class="st27" d="M1443.7,133.6c-3.2,1.9-5.6,5.3-7.8,8.1c-2.6,3.2-4.9,6.6-7.4,9.9c-0.4,0.5-1.2,0-0.9-0.5
				c2.5-3.4,4.9-6.8,7.5-10.1c2.3-2.9,4.8-6.4,8-8.3c0.3-0.1,0.5,0,0.7,0.2C1444,133.2,1443.9,133.4,1443.7,133.6L1443.7,133.6z"/>
			<path class="st28" d="M1428.1,595.7c3.5-2,10.4-3.5,11.8,0.5c1.8,4.8-6.1,6.2-10.5,4.3c2.3,1.3,6.8,5.8,4.7,8.5
				c-3,3.9-8.2-1.7-9.4-5c-0.9,4.8-7.2,13.6-10,5.9c-1.2-3.1,0.9-6.5,6.6-10.3c-5.7-2.2-10.2-6.9-6.9-10.5c2.2-2.4,8,1.7,9.8,5.5
				c-0.8-3.4,0.8-15.6,6.7-12.3C1436,585.1,1428.1,595.7,1428.1,595.7z"/>
			<path class="st29" d="M1291.5,765.1c0.4,3.4,0.8,7.1,1,10.8l0.4-0.1c1.7-3.1,4-5.4,5.9-8.4c0.2-0.1,0.4,0,0.6,0.2
				c-1.2,3-4.1,5.7-5.4,8.4c-0.6,0.6-1,1.3-1.5,2.1c4.2-0.1,8.9-0.8,12.7-0.9c-0.3,1.3-1.7,1.1-2.8,1.3c-3,0.1-5.4,0.7-8.6,0.7
				l-0.1,0.1c3.1,3.3,7.6,5.4,9.4,9.5c-0.1,0.2-0.3,0.3-0.5,0.2c-3-3.4-6.5-5.8-9.8-8.8c0,5,1,9.9,0.5,15.2c-0.5-0.4-0.9-1-1-1.7
				c-0.2-4.8-0.7-9.3-1.1-14.2l-0.9,1c-2.2,2.9-3.4,7.1-6.8,9l-0.2-0.1c0.1-1.1,1.5-1.8,1.8-2.9l4.3-6.8c-1.1-0.4-2.3,0.1-3.6,0.2
				c-2.3-0.2-4.6,0.4-6.9-0.1c-0.2-0.2-0.7-0.4-0.5-0.8c1.4-0.5,2.9,0.1,4.7-0.1c2.3-0.2,4.6-0.3,7.1-0.7c-3.1-2.7-6.1-5.5-8.9-8.5
				c0.3-0.7,1.1-0.1,1.4,0.2c2.7,2.5,5.2,5,8.1,7.3l0.1-0.3c-0.5-4.5-0.6-9.5-1-13.7C1291.8,762.5,1291,764.7,1291.5,765.1z"/>
			<path class="st30" d="M1423.9,726.7c0.3,3.5,0.5,7.3,0.5,11.1l0.4-0.1c1.9-3.1,4.4-5.4,6.5-8.3c0.2-0.1,0.5,0,0.6,0.2
				c-1.4,3.1-4.4,5.6-5.9,8.4c-0.6,0.6-1.1,1.3-1.6,2c4.3,0.1,9.2-0.4,13-0.4c-0.4,1.3-1.8,1.1-2.9,1.2c-3.1-0.1-5.6,0.4-8.8,0.3
				l-0.1,0.2c3,3.6,7.5,5.9,9.2,10.1c-0.1,0.2-0.3,0.2-0.5,0.2c-2.9-3.6-6.4-6.2-9.6-9.5c-0.3,5.2,0.6,10.2-0.2,15.6
				c-0.5-0.4-0.9-1.1-1-1.8c0-5-0.3-9.6-0.4-14.6l-0.9,1c-2.4,2.9-3.8,7.1-7.3,9l-0.2-0.1c0.1-1.2,1.6-1.7,2-2.9l4.7-6.8
				c-1.1-0.4-2.3,0-3.6,0c-2.3-0.3-4.7,0.2-7.1-0.4c-0.2-0.2-0.7-0.4-0.4-0.8c1.5-0.5,3,0.2,4.8,0.1c2.3-0.1,4.7-0.1,7.3-0.4
				c-3.1-2.9-6-6-8.7-9.2c0.4-0.7,1.1-0.1,1.4,0.2c2.6,2.7,5.1,5.4,8,7.9l0.2-0.3c-0.3-4.7-0.2-9.8-0.4-14.1
				C1424.3,724,1423.4,726.3,1423.9,726.7z"/>
			<path class="st30" d="M146.4,443.2c0.3,3.7,0.5,7.8,0.5,11.9l0.5-0.1c2-3.3,4.6-5.8,6.9-8.9c0.2,0,0.5,0,0.6,0.2
				c-1.5,3.3-4.7,6-6.3,8.9c-0.5,0.8-1.4,1.4-1.7,2.2c4.6,0.1,9.8-0.5,13.9-0.4c-0.4,1.4-1.9,1.2-3.1,1.3c-3.3-0.1-6,0.5-9.4,0.3
				l-0.1,0.2c3.2,3.8,8,6.3,9.8,10.8c-0.1,0.2-0.3,0.3-0.5,0.2c-3.1-3.9-6.8-6.6-10.2-10.1c-0.3,5.5,0.6,10.9-0.2,16.6
				c-0.6-0.5-0.9-1.1-1-1.9c0-5.3-0.3-10.2-0.5-15.5l-1,1.1c-2.6,3.1-4,7.6-7.8,9.5l-0.2-0.1c0.2-1.2,1.7-1.9,2.2-3.1l5-7.2
				c-1.1-0.5-2.5,0-3.9,0c-2.5-0.3-5.1,0.2-7.5-0.5c-0.2-0.2-0.7-0.5-0.5-0.9c1.6-0.5,3.2,0.2,5.1,0.1c2.5-0.1,5-0.1,7.8-0.4
				c-3.3-3.1-6.4-6.3-9.3-9.8c0.4-0.7,1.2-0.1,1.6,0.2c2.8,2.9,5.4,5.8,8.5,8.4l0.2-0.3c-0.3-5-0.2-10.4-0.5-15
				C146.9,440.3,145.9,442.8,146.4,443.2z"/>
			<path class="st30" d="M82.6,63.1c0.3,3.7,0.6,7.8,0.6,11.9l0.5-0.1c2-3.3,4.7-5.8,6.9-8.9c0.2-0.1,0.5,0,0.6,0.2
				c-1.5,3.3-4.7,6-6.3,8.9c-0.5,0.8-1.4,1.4-1.7,2.2c4.6,0.1,9.8-0.5,13.9-0.4c-0.4,1.4-1.9,1.2-3.1,1.3c-3.3-0.1-6,0.5-9.4,0.3
				l-0.2,0.2c3.2,3.8,8,6.3,9.8,10.8c-0.1,0.2-0.3,0.3-0.5,0.2c-3.1-3.9-6.8-6.6-10.2-10.1C83,85.2,84,90.6,83.2,96.3
				c-0.5-0.5-0.9-1.1-1-1.9c0-5.3-0.3-10.2-0.5-15.5l-1,1.1c-2.6,3.1-4,7.6-7.8,9.5l-0.2-0.1c0.2-1.2,1.7-1.8,2.2-3.1l5-7.2
				c-1.2-0.5-2.5,0-3.9,0c-2.5-0.3-5,0.2-7.5-0.5c-0.2-0.2-0.7-0.5-0.5-0.9c1.6-0.5,3.2,0.2,5.1,0.1c2.5-0.2,5-0.1,7.8-0.4
				c-3.3-3.1-6.4-6.3-9.3-9.8c0.4-0.7,1.2-0.1,1.6,0.2c2.8,2.9,5.4,5.8,8.5,8.4l0.2-0.3c-0.3-5-0.2-10.4-0.5-15
				C83,60.3,82,62.7,82.6,63.1z"/>
			<path class="st30" d="M1404.2,432.9c0.3,3.7,0.5,7.8,0.5,11.9l0.5-0.1c2-3.3,4.7-5.8,6.9-8.9c0.2-0.1,0.5,0,0.6,0.2
				c-1.5,3.3-4.7,6-6.3,8.9c-0.5,0.8-1.4,1.4-1.7,2.2c4.6,0.1,9.8-0.5,13.9-0.4c-0.4,1.4-1.9,1.2-3.1,1.3c-3.3-0.1-6,0.5-9.4,0.3
				l-0.2,0.2c3.2,3.8,8,6.3,9.8,10.8c-0.1,0.2-0.3,0.3-0.5,0.2c-3.1-3.9-6.8-6.6-10.2-10.1c-0.3,5.5,0.6,10.9-0.2,16.6
				c-0.5-0.5-0.9-1.1-1-1.9c0-5.3-0.3-10.2-0.5-15.5l-1,1.1c-2.6,3.1-4,7.6-7.8,9.5l-0.2-0.1c0.2-1.2,1.7-1.9,2.2-3.1l5-7.2
				c-1.2-0.5-2.5,0-3.9,0c-2.5-0.3-5,0.2-7.5-0.5c-0.2-0.2-0.7-0.5-0.4-0.9c1.6-0.5,3.2,0.2,5.1,0.1c2.5-0.1,5-0.1,7.8-0.4
				c-3.3-3.1-6.4-6.3-9.3-9.8c0.4-0.7,1.2-0.1,1.6,0.2c2.8,2.9,5.4,5.7,8.5,8.4l0.2-0.3c-0.3-5-0.2-10.4-0.5-15
				C1404.6,430,1403.6,432.5,1404.2,432.9z"/>
		</g>
	</g>
</g>
</svg>
