<svg xmlns="http://www.w3.org/2000/svg" viewBox="0 0 440 376"><defs><style>.cls-1{fill:#4c433d;opacity:0.65;}</style></defs><g id="Layer_6" data-name="Layer 6"><path class="cls-1" d="M226,239.62c-.08,2.5-3.87,2.42-6,3.81-4,2.68-.28,9.41-2.44,13.76-1.61,3.24-5.8,3.94-9.31,4.87s-7.48,3.67-6.63,7.19c1.3,5.44,10.64,2.94,14.28,7.19,2.23,2.59,1.35,6.56,0,9.72s-3,6.59-1.88,9.83c1.51,4.54,7.18,5.82,11.93,6.39,3.27.38,7.12.56,9.26-1.95,3.12-3.66-.08-9.75,2.29-13.93,1.66-2.9,5.53-3.83,8.82-3.22s6.2,2.41,9.23,3.81c3.55,1.64,7.58,2.77,11.37,1.81s7.12-4.61,6.55-8.49c-.77-5.25-7.21-7.26-12.49-7.84a143,143,0,0,0-19.63-.78c2.43-3.89,7.22-5.38,11.45-7.15s8.72-4.86,8.92-9.44c.22-5-4.94-8.63-9.87-9.36-8.64-1.29-8.66,4.51-10.38,10.64C237.75,256.16,225.85,243.42,226,239.62Z"/><path class="cls-1" d="M321,180.1c-1.89,2.25-3.7,5.82-1.51,7.77a4.79,4.79,0,0,0,3.59.86,13.6,13.6,0,0,0,8-3.47c1.56-1.42,3-3.3,5.1-3.5,2.88-.26,5,3.11,4.66,6s-2.17,5.3-3.74,7.73c-3.43,5.3-5.82,11.61-5,17.86s5.58,12.25,11.85,13,12.86-5.27,11.41-11.42c-.88-3.77-4.15-6.43-6.34-9.63s-2.89-8.36.43-10.35c3.8-2.27,10.21,1.28,12.45-2.54,1.73-3-1.65-6.27-4.74-7.75-1.44-.69-3.14-1.62-3.2-3.22a3.69,3.69,0,0,1,1.53-2.71c3.74-3.3,9.25-4.49,12.18-8.52a6.2,6.2,0,0,0,1.29-3.39c.06-3.08-3.24-5.42-6.31-5.31s-5.8,2-8,4.13-4.19,4.58-6.76,6.27c-2.85,1.88-8,1.74-8.38-1.65-.23-2,1.5-3.69,3.33-4.49s3.88-1.07,5.61-2.08c3.71-2.16,4.77-7.73,2.27-11.23-5.83-8.18-13.89-1-15.76,5.61-1.09,3.83-.31,5.22-2.69,8.94C329.32,171.68,324.59,175.83,321,180.1Z"/><path class="cls-1" d="M155,181.11c-.77.95-2.3.24-3.27-.52-3.79-3-7.79-6.08-12.55-6.8s-10.41,2-11.12,6.72c-.61,4.15,2.6,8.16,2,12.31-.58,4-4.31,6.56-6.83,9.67-6.4,7.89-4.76,20.26,1.73,28.07,2.37,2.84,6.61,5.3,9.52,3,2.32-1.8,2.06-5.27,2.46-8.18s3.15-6.24,5.69-4.76c1.89,1.11,1.69,3.82,1.71,6a10.13,10.13,0,0,0,2.37,6.88,6,6,0,0,0,6.77,1.54c2.9-1.47,3.53-5.56,2.23-8.53s-4-5.08-6.48-7.12-5.1-4.28-6.15-7.35A15.51,15.51,0,0,0,163,195.44a4.16,4.16,0,0,0-1.5-3.12c-4.46-2.88-4.21,6.37-7.78,5.56C148.85,196.77,154.27,184.16,155,181.11Z"/><path class="cls-1" d="M406.19,361.17a6.81,6.81,0,0,1,1.44,1.65c1,2.19-2.36,4.28-2,6.64a4.18,4.18,0,0,0,2.28,2.59A24.59,24.59,0,0,0,426,374.81c4.58-1.08,9.14-3.51,13.72-2.44.86-1.93-.24-4.28-2-5.53a14.15,14.15,0,0,0-6-2l-8.19-1.43c-2.42-.42-5.07-1-6.59-2.91-2.13-2.7-.37-7.41,3-8.06,1-.19,2.15-.14,2.8-.91,1.07-1.27-.38-3.12-1.84-3.89a13.75,13.75,0,0,0-6.8-1.57,18.58,18.58,0,0,1-4.28,0A3.41,3.41,0,0,1,407,343.4a6.64,6.64,0,0,1,.87-2.89,8.27,8.27,0,0,0-1.68-8.67c-1.53-1.59-7.39-4.17-9.29-1.7-2.3,3,2.58,6.74,3.92,9.12C404.34,345.51,401.7,356.26,406.19,361.17Z"/><path class="cls-1" d="M218,13c-3.65,0-7-1.87-10.48-2.95s-7.83-1.14-10.19,1.64c-1.82,2.16-1.9,5.44-3.83,7.51-3.77,4.07-12.12,1.17-15,5.91-1.39,2.27-.6,5.39,1.19,7.36s4.37,3,6.92,3.83c4.29,1.36,9.31,2.09,13-.46,3-2,4.49-5.8,7.59-7.65,4.46-2.67,10.16-.39,14.64,2.24s9.4,5.75,14.46,4.58c2.39-.56,4.8-2.77,4.11-5.14a5.84,5.84,0,0,0-1.54-2.29l-7-7.62c7.34-1.16,13.67,4.72,20.39,7.89a29.66,29.66,0,0,0,14.93,2.72c2.33-.18,4.86-.78,6.27-2.65,2.57-3.42-.62-8.61-4.7-9.91-7.21-2.3-17.15,3.52-23.83-1.05-6.1-4.18-.49-4.81-.93-10.32-.62-7.73-6.66-7.23-11.21-3.09S224.72,13,218,13Z"/><path class="cls-1" d="M270.31,203c0,5.16-3,9.57-6.6,9.85s-6.57-3.65-6.57-8.78,2.94-9.55,6.57-9.86S270.31,197.85,270.31,203Z"/><path class="cls-1" d="M71.37,337.47a10.43,10.43,0,0,1,7.53,4.27,3.91,3.91,0,0,1,.83,2,4,4,0,0,1-1.88,3.17c-6.8,5.1-18.52,1.11-23.55,8-2.15,2.92-2.16,6.83-2.09,10.45,0,1.69.21,3.65,1.62,4.59a5.3,5.3,0,0,0,2.82.62c5.14.12,10.29,0,15.41-.38a4,4,0,0,0,2.29-.66c1.86-1.54-.21-4.51,0-6.92s2.77-3.84,5.08-4.54a4,4,0,0,1,2.08-.23c1.77.41,2.3,2.6,3.41,4,1.9,2.45,6,2.49,8.27.42A8,8,0,0,0,95,353.65a12.62,12.62,0,0,0-6.29-6.54A7.65,7.65,0,0,0,94.06,344c1.15-1.79.9-4.54-.91-5.65-1.65-1-3.79-.41-5.67-.83a6.5,6.5,0,0,1-4.64-5.7c-.38-3.46,7.89-14.83.59-14C78.18,318.46,73,333.45,71.37,337.47Z"/><path class="cls-1" d="M1.82,362.12a3.29,3.29,0,0,0,.35,1.55,3.06,3.06,0,0,0,1.42,1c3,1.35,6.42,2.27,9.52,1.23s5.46-4.73,4.09-7.7c-1.88-4.05-9-4.68-9.06-9.15a21.15,21.15,0,0,1,.66-3.18c.9-5.47-4.33-11.42-7.93-5.44C-1.44,344.29,1.56,357.62,1.82,362.12Z"/></g></svg>