<svg xmlns="http://www.w3.org/2000/svg" viewBox="0 0 85 14"><defs><style>.cls-1{fill:#4c433d;opacity:0.65;}</style></defs><g id="Layer_4" data-name="Layer 4"><path class="cls-1" d="M18.05,6.07S17.46.42,23.41.3s-2.49,6.55-2.49,6.55,8.41-2.68,13.28.84S24,7.24,20,10.23c0,0,5.54,2.38-4.38,2.77S-4.44,8.87,2.3,8.19s13.29-2.7,7.25-4.37S9.11-1.93,18.05,6.07Z"/><path class="cls-1" d="M76.78.3s-.56,0-1.49,0C69.52.08,49.43-.07,58.73,6.07c10.81,7.13-21.34,3.07-3.91,7S63,5,78.55,6.07,76.22.27,76.22.27"/></g></svg>