<svg xmlns="http://www.w3.org/2000/svg" viewBox="0 0 490 106"><defs><style>.cls-1{fill:#acc9ff;stroke:#6b8ebf;stroke-miterlimit:10;}</style></defs><g id="Layer_17" data-name="Layer 17"><path class="cls-1" d="M13.2,78.67l-.38.1c-14.38,3.69-15.76,16.48-1,18.29,31.33,3.84,65.93,11.87,97.23,7.87,8.09-1,17.61-3.49,20.25-11.2,1.86-5.43-.74-11.59-4.9-15.54l-.13-.12a8.63,8.63,0,0,1,3.09-14.54c45.56-15.12,71.57-4.64,119.26-4.94,28.24-.18,67.55-10.29,93.51.85,1.73.74,7.57,3.89,7.59,5.77l-.12.15c-10,3.56-14.83,14.29,7.14,22.41,20.85,7.71,37.65,11.34,54.54,12.63,41,3.14,129.45,5.62,42.35-35.65-1.27-4.12,5.55-5.59,7.94-9.18,3.44-5.17-3.61-10.89-9.46-13A344.41,344.41,0,0,0,330.16,22.08l.82-9.27C294.55-7.28,249.74.26,208.93,8.36c-10.86,2.15-23.44,5.68-27.39,16-.89,2.32-1.31,4.94-3,6.78-6,6.62-20.72,2.17-27.95.92a91.08,91.08,0,0,0-29.78-.76c-13.06,1.78-25.76,3.93-38.15,8.51-6.61,2.45-17.44,5.21-22.82,9.63C49.07,58.35,61.18,54,63.62,62.13,68.28,77.57,22.09,76.44,13.2,78.67Z"/></g></svg>