<svg xmlns="http://www.w3.org/2000/svg" viewBox="0 0 390 466"><defs><style>.cls-1{fill:#acc9ff;stroke:#6b8ebf;stroke-miterlimit:10;}</style></defs><g id="Layer_15" data-name="Layer 15"><path class="cls-1" d="M169.39,179.5s-14.21,23.16,0,28.82S169.39,179.5,169.39,179.5Z"/><path class="cls-1" d="M262.35,182.53s-9.64,60.92,7,51.88,8-45.07,8-45.07,15,38.76,15.86,8.77-10.07-26.71-10.07-26.71"/><path class="cls-1" d="M79.11,168.53s-7.62,7.67-8.82,29.58-14.77,5-6,41.57-10.21,27.19-4.39,46.62,21.72-2.64,14.77-29.78c0,0-15.15-37.1,0-43.5C74.7,213,74.4,202.76,79.11,168.53Z"/><path class="cls-1" d="M30.66,322.94S2.93,328.71,3.54,353s-10.35,12.3,4,36.35-5.36-25.64,3.35-33.23,1.33,12.47,10.71,15.5-6.14-23.17,1.49-36Z"/><path class="cls-1" d="M221.55,262.1s-14.21,23.16,0,28.83S221.55,262.1,221.55,262.1Z"/><path class="cls-1" d="M163.08,249.89s-14.21,23.16,0,28.83S163.08,249.89,163.08,249.89Z"/><path class="cls-1" d="M164.66,439.82l9.49,2.5c-6,5.57-15.38,3.4-23.52,2.71a53.7,53.7,0,0,0-32.82,8c-1.72,1.08-3.57,2.64-3.4,4.67.21,2.53,3.28,3.6,5.78,4a175.46,175.46,0,0,0,68.56-2c1.24-2.1-1.95-4-4.36-4.36l-23.19-3.81c20.27-4.81,41,12.36,61.24,7.65,2.55-.59,5.3-1.78,6.25-4.21,1.25-3.19-1.25-6.67-4.15-8.48-9.78-6.12-24.46-2-32.41-10.39a136.36,136.36,0,0,1,41.91.76c2.62.45,5.33,1,7.9.32s4.95-2.95,4.74-5.6c-1.09-13.78-32.43-5.79-39.94-3.37-7.91,2.55-15.28,3.36-23.57,4.19C181.61,432.58,161.8,439.07,164.66,439.82Z"/><path class="cls-1" d="M281.94,37.87s23.14,48.37,11.29,85.79S281.94,37.87,281.94,37.87Z"/><path class="cls-1" d="M85,89.3S72.13,106.89,85,129,85,89.3,85,89.3Z"/><path class="cls-1" d="M173.86,1.84a98.32,98.32,0,0,0-10.78,31.34C160.16,51.26,197.59,44.16,173.86,1.84Z"/><path class="cls-1" d="M267.25,279.25s-18,14.95,2.74,28.41-4.15,21.72,17.68,34-3.62-42.27,12-38.13,25-2.51,9.07-21.25,1.14-56.24-15.46-36.82S312.73,281.57,267.25,279.25Z"/><path class="cls-1" d="M337.62,325.81s22.39-6,45.8,29.21S359.72,390,355,362.24s-27.63,8.06-27.63,8.06S317.53,365.32,337.62,325.81Z"/></g></svg>