<svg xmlns="http://www.w3.org/2000/svg" width="609" height="518" viewBox="0 0 609 518">
  <defs>
    <style>
      .baaae35d-dc04-4c57-8f82-cf546bad37be {
        opacity: 0.25;
      }

      .ac451c5c-42bc-48f4-8289-33871ec83330, .bb08e84d-73f8-4794-8a3d-14f6c8788eac {
        fill: #acc932;
      }

      .ac451c5c-42bc-48f4-8289-33871ec83330, .b4b526d5-bb3b-4ab4-a4c5-a4033e3cb525 {
        stroke: #434905;
      }

      .a1713a5f-59a0-445f-902c-725780e826ba, .ac451c5c-42bc-48f4-8289-33871ec83330, .af580ba5-d68f-41d5-abfd-e44fbed98368, .b4b526d5-bb3b-4ab4-a4c5-a4033e3cb525, .ed0c90ed-54f4-4767-8097-dccb88ad0bef {
        stroke-miterlimit: 10;
      }

      .a1713a5f-59a0-445f-902c-725780e826ba, .ac451c5c-42bc-48f4-8289-33871ec83330, .af580ba5-d68f-41d5-abfd-e44fbed98368, .b4b526d5-bb3b-4ab4-a4c5-a4033e3cb525 {
        stroke-width: 2px;
      }

      .b1b82cd1-5d74-4f08-b6f9-d29bc27165b9 {
        fill: #8faa1f;
      }

      .a1713a5f-59a0-445f-902c-725780e826ba {
        fill: #d5e368;
        stroke: #5e6b0f;
      }

      .e9bde63b-f7b9-4f00-a8c4-864cc6a4a712 {
        fill: #5e6b0f;
      }

      .b4b526d5-bb3b-4ab4-a4c5-a4033e3cb525 {
        fill: none;
      }

      .b595f7ad-565a-4f96-88e1-eed225ffdad1 {
        fill: #cce07d;
      }

      .b4f60cc9-6e0f-41e2-9a58-212c87d29477, .bf82db2e-32bb-4a4b-a879-07d149385277 {
        fill: #282d08;
      }

      .b4f60cc9-6e0f-41e2-9a58-212c87d29477 {
        opacity: 0.11;
      }

      .a64afd8d-0e1a-4137-bb6f-675f2147de27 {
        fill: #434905;
      }

      .ed0c90ed-54f4-4767-8097-dccb88ad0bef {
        fill: #edefe1;
        stroke: #abad87;
        stroke-width: 0.5px;
      }

      .bf82db2e-32bb-4a4b-a879-07d149385277 {
        opacity: 0.17;
      }

      .bb82dc49-e229-4e7b-a448-c1d73a5c8883 {
        fill: #9eb228;
      }

      .af580ba5-d68f-41d5-abfd-e44fbed98368 {
        fill: #f2f0e2;
        stroke: #938042;
      }

      .a4446d9f-de0b-4be9-abd4-e3bf45475c37 {
        fill: #283010;
      }

      .a2fbd81c-ee69-4f79-8429-23407ba4bd89 {
        fill: #822626;
      }

      .ec3c318b-22b0-4957-8cc2-1ea40c3ce69b {
        fill: #fd8a91;
      }

      .efa14154-5a1a-435f-bd7e-22dbf47dcbd7 {
        fill: #fff;
      }

      .fb51988f-3043-4af1-be73-da923fcf738b {
        fill: #dfe0da;
      }

      .b2203cd0-e84e-4160-b2ed-9bccef1f6e0b {
        fill: #7a4715;
      }

      .bc3d66ed-b4a7-42d6-836a-5d52e6917a2e {
        fill: #6f9408;
      }

      .b99c0616-f634-4019-88bf-e71f8f760af3 {
        fill: #6e9401;
      }
    </style>
  </defs>
  <g id="af66a586-8151-467f-bdf7-8d71a807022b" data-name="Layer 3">
    <g>
      <path class="baaae35d-dc04-4c57-8f82-cf546bad37be" d="M93.63,514.67s32.59,5.81,48,0,21.61-15.54,26.49-24.32c4.29-7.72,26.34-14.62,55.42-19.42s79.29-9.65,131.7-2.6,73.48,7.49,94.66,27.31,36,19.5,66.48,16.8l16.26-44.11L405.42,434.26l-139.14-7.38-131.7,26.41S64.12,507.27,93.63,514.67Z"/>
      <g>
        <g>
          <g>
            <g>
              <path class="ac451c5c-42bc-48f4-8289-33871ec83330" d="M528.48,471.19,521,475.34c-1.52,9.48-9.33,14.54-18,17.21-12.59,3.85-27,2.69-27,2.69-25.16-34.83-110.38-50.14-110.38-50.14a70.69,70.69,0,0,1,4-21.41c12.89-36.59,51.95-57.38,51.95-57.38,50.35,2.6,64.71,19.45,81.27,41.71,5.28,7.1,6.41,18.27,12.39,18.27,29.62,0,9.52,25.82,9.52,25.82Z"/>
              <path class="b1b82cd1-5d74-4f08-b6f9-d29bc27165b9" d="M503,492.55c-12.59,3.85-27,2.69-27,2.69-25.16-34.83-110.38-50.14-110.38-50.14a70.69,70.69,0,0,1,4-21.41C403.16,428.42,461,441.62,492,477.86A137.31,137.31,0,0,1,503,492.55Z"/>
              <path class="a1713a5f-59a0-445f-902c-725780e826ba" d="M567.18,464.92s-3.87,7.37,28.2-7.1c12.23-5.52,21.1,19.26-5.53,26.91-21.71,6.24-90,40.18-121.37,14.38,0,0-19.52-13.36,22.4-35.66,31.7-16.87,43.49-29.91,51.6-46.29s25.81-7.76,26.54,2.67-14.74,23-14.74,23,2.2,7.88,15.94-8.41a15.3,15.3,0,0,1,15.13-5.24c4.12,1,8,3.81,9.11,10.7C597,456.07,567.18,464.92,567.18,464.92Z"/>
              <path class="e9bde63b-f7b9-4f00-a8c4-864cc6a4a712" d="M433.87,466.2a29.73,29.73,0,0,1-3.64-12.82,41.78,41.78,0,0,1,1.34-13.18l.91-3.19,1.19-3.09.6-1.55.73-1.49,1.46-3c1.06-1.93,2.25-3.79,3.38-5.68l3.85-5.37-3.75,5.44c-1.08,1.91-2.24,3.79-3.26,5.73l-1.4,3-.7,1.5-.56,1.54-1.13,3.09-.84,3.18a41,41,0,0,0-1.07,13,29.16,29.16,0,0,0,3.72,12.32Z"/>
            </g>
            <g>
              <path class="ac451c5c-42bc-48f4-8289-33871ec83330" d="M248.67,449.19s-90.46,12.3-115.62,47.13a86.82,86.82,0,0,1-23.62-1.77c-10-2.35-19.72-7.41-21.44-18.13l-7.47-4.15,3.73-19.08s-16.31-22.87,11.81-29.5c4.93-1.16,6-9.12,10.11-14.58,16.55-22.26,30.93-39.12,81.26-41.71,0,0,47.9,25.67,59,66.77A64.93,64.93,0,0,1,248.67,449.19Z"/>
              <path class="b1b82cd1-5d74-4f08-b6f9-d29bc27165b9" d="M248.67,449.19s-90.46,12.3-115.62,47.13a86.82,86.82,0,0,1-23.62-1.77l-3.26-4.86s50.2-53.81,140.25-55.52A64.93,64.93,0,0,1,248.67,449.19Z"/>
              <path class="a1713a5f-59a0-445f-902c-725780e826ba" d="M41.82,466s3.87,7.37-28.2-7.11c-12.23-5.52-21.1,19.27,5.53,26.92,21.71,6.23,90,40.18,121.37,14.37,0,0,19.52-13.36-22.4-35.66-31.7-16.87-43.49-29.9-51.6-46.28S40.71,410.48,40,420.92s14.74,23,14.74,23-2.2,7.88-15.94-8.42a15.31,15.31,0,0,0-15.13-5.23c-4.12,1-8,3.81-9.11,10.7C12,457.16,41.82,466,41.82,466Z"/>
              <path class="e9bde63b-f7b9-4f00-a8c4-864cc6a4a712" d="M172.66,468.75a22.24,22.24,0,0,0,4.09-5.6,26.05,26.05,0,0,0,2.44-6.56,30.9,30.9,0,0,0-.2-14,48.59,48.59,0,0,0-5.38-13.1,81.74,81.74,0,0,0-8.3-11.55,82.77,82.77,0,0,1,8.52,11.43,49.47,49.47,0,0,1,5.65,13.1,31.55,31.55,0,0,1,.44,14.27,27,27,0,0,1-2.39,6.81,23.43,23.43,0,0,1-4.2,5.93Z"/>
            </g>
            <g>
              <path class="bb08e84d-73f8-4794-8a3d-14f6c8788eac" d="M408.62,271c0,89.14,21.31,195-118.69,185.41-136.78-9.38-113.1-123-113.1-212.13S230.9,121.16,306.38,121.16c51,0,96.68,14.65,110,60.16C422.7,203.14,408.62,242.12,408.62,271Z"/>
              <path class="b4b526d5-bb3b-4ab4-a4c5-a4033e3cb525" d="M408.62,271c0,89.14,21.31,195-118.69,185.41-136.78-9.38-113.1-123-113.1-212.13S230.9,121.16,306.38,121.16c51,0,96.68,14.65,110,60.16C422.7,203.14,408.62,242.12,408.62,271Z"/>
            </g>
            <path class="b595f7ad-565a-4f96-88e1-eed225ffdad1" d="M397,338.54c7.21,45-3.84,109.51-97,109.5-76.32,0-111.39-60.24-104.89-105.34,6.79-47.14,27-72.57,37.71-90.45,5.48-9.15.46-19.07,6.55-23.21,18.93-12.86,40.05-5.81,59-5.81,23.58,0,43.31-10,63.8,19C373.65,258.6,388.43,285.22,397,338.54Z"/>
            <path class="b4f60cc9-6e0f-41e2-9a58-212c87d29477" d="M359.3,231.2S358,253.88,365,271.56c0,0-6.88,33.23,1.66,58.92,0,0-17.45,25.12-13.58,50.56,0,0-9.4,29.63,9.4,35.82s19.9-12.5,19.9-12.5-5.34,25.4,14.2,27.58c0,0,9.22,4.43,16.3-6.92,0,0,19.8,6.39,22.13-14,0,0,14.25,1.4,9.57-17.87s-73.84-131.24-73.84-131.24Z"/>
            <path class="b4f60cc9-6e0f-41e2-9a58-212c87d29477" d="M237.4,243.93s-5.29,12.46-12.36,30.14c0,0,6.88,33.23-1.66,58.92,0,0,17.45,25.12,13.58,50.56,0,0,9.4,29.62-9.4,35.82s-19.91-12.5-19.91-12.5,5.35,25.4-14.19,27.58c0,0-9.22,4.43-16.31-6.92,0,0-19.79,6.39-22.12-14,0,0-14.26,1.4-9.57-17.87S219.3,264.4,219.3,264.4Z"/>
            <g>
              <path class="ac451c5c-42bc-48f4-8289-33871ec83330" d="M226.13,242.79s-4.6,78.31-9.8,97.9a58,58,0,0,1,17,44.75s8,30-8.71,25.56c-6.21-1.65-12.47-16.43-13.08-22.91-.75-8.08.67-7.61.56-15.91,0,0-7.92,13.62-7.33,37.75.62,25.51-17.49,26.64-22.8,5.86a8.15,8.15,0,0,1-6.11,7.46c-1.58.48-5.71,1.42-8.16.18-9.06-4.6-7.94-21.86-7.94-21.86s-1.87,7-5,7.16c-3,.13-4.31-1.2-5.55-3.94-2.55-5.61-4.84-21.13-1.54-37.27,3.14-15.32,11.81-31.42,11.81-31.42s-5.91-70,18.52-141.7"/>
              <g>
                <path class="bb08e84d-73f8-4794-8a3d-14f6c8788eac" d="M182.41,417.1s-3-13.38,2.66-44.92"/>
                <path class="a64afd8d-0e1a-4137-bb6f-675f2147de27" d="M181.44,417.32a46.56,46.56,0,0,1-.54-5.78c-.06-1.9-.07-3.8,0-5.69.08-3.79.34-7.57.73-11.32s.9-7.5,1.46-11.23l.94-5.57,1.07-5.55-.82,5.59-.7,5.6c-.39,3.74-.76,7.48-1,11.23s-.32,7.51-.23,11.25c0,1.87.13,3.73.28,5.59a44.57,44.57,0,0,0,.74,5.44Z"/>
              </g>
              <g>
                <path class="bb08e84d-73f8-4794-8a3d-14f6c8788eac" d="M160.22,411s-2.88-23.71,2.78-47.42"/>
                <path class="a64afd8d-0e1a-4137-bb6f-675f2147de27" d="M159.23,411.12c-.35-4-.47-8-.46-12s.16-8,.46-12,.75-7.94,1.37-11.87,1.46-7.83,2.4-11.69c-.78,3.9-1.5,7.8-1.9,11.76s-.75,7.9-.87,11.86-.13,7.92,0,11.88.44,7.92.94,11.8Z"/>
              </g>
              <g>
                <path class="bb08e84d-73f8-4794-8a3d-14f6c8788eac" d="M218.33,342.7s4-9.19-17.38-14"/>
                <path class="a64afd8d-0e1a-4137-bb6f-675f2147de27" d="M217.41,342.3a4.5,4.5,0,0,0,.28-1.15l0-.66-.07-.66c0-.22-.11-.44-.16-.66a2.63,2.63,0,0,0-.22-.65l-.28-.64-.37-.6a14.35,14.35,0,0,0-4.29-4,34.44,34.44,0,0,0-5.49-2.68c-1.91-.77-3.9-1.33-5.88-1.92,2,.43,4.05.83,6,1.45a34.07,34.07,0,0,1,5.83,2.29,15.57,15.57,0,0,1,5,4,7.27,7.27,0,0,1,1.4,6.69Z"/>
              </g>
              <path class="ed0c90ed-54f4-4767-8097-dccb88ad0bef" d="M228.65,387.76l.55.15c2.28.69,3,2.1,3.77,4.37,1.09,3.13,1.24,5.93.83,12.71,0,0-4-2.16-10.23-.63,0,0-2.61-4.08-1.71-11.47A5.79,5.79,0,0,1,228.65,387.76Z"/>
              <path class="ed0c90ed-54f4-4767-8097-dccb88ad0bef" d="M178.62,413.65c-.19-5.19-1.25-11.15-5.15-12.1s-9.41,1.82-8.92,9.12c0,0,.15,5.34.95,7.56,0,0,7.27-2.9,13.13-.2Z"/>
              <path class="ed0c90ed-54f4-4767-8097-dccb88ad0bef" d="M149.92,397.15s.08-3.86,3.72-4.8,3.93,3.13,3.93,7.61c0,3.71,0,5,0,5a48,48,0,0,1-7.39-.63A17.09,17.09,0,0,1,149.92,397.15Z"/>
              <path class="ed0c90ed-54f4-4767-8097-dccb88ad0bef" d="M186.24,421.43s9.09-1.75,14.53.84c0,0,1.69-14.29-5.26-17.27C195.51,405,185.64,404.24,186.24,421.43Z"/>
              <g>
                <path class="bb08e84d-73f8-4794-8a3d-14f6c8788eac" d="M153.11,350s-12.41-11.32,16.79-23.7"/>
                <path class="a64afd8d-0e1a-4137-bb6f-675f2147de27" d="M152.44,350.74a10,10,0,0,1-2.38-4.1,9.28,9.28,0,0,1-.13-4.65,14.56,14.56,0,0,1,4.93-7.35,38.12,38.12,0,0,1,7.21-4.79,78.6,78.6,0,0,1,7.83-3.55,81.69,81.69,0,0,0-7.59,4,37.77,37.77,0,0,0-6.77,5.1c-2,1.95-3.7,4.29-4.14,6.91a7.51,7.51,0,0,0,.33,3.82,8.48,8.48,0,0,0,2.05,3.16Z"/>
              </g>
            </g>
            <g>
              <path class="ac451c5c-42bc-48f4-8289-33871ec83330" d="M368.41,238.76s4.6,78.31,9.79,97.91a58,58,0,0,0-17,44.74s-8,30,8.7,25.56c6.21-1.65,12.48-16.42,13.08-22.9.76-8.09-.66-7.62-.55-15.92,0,0,7.92,13.62,7.33,37.75-.63,25.51,17.49,26.65,22.8,5.86a8.16,8.16,0,0,0,6.1,7.47c1.59.48,5.71,1.42,8.16.17,9.07-4.6,7.95-21.85,7.95-21.85s1.86,7,5,7.15c2.95.13,4.31-1.2,5.55-3.93,2.54-5.62,4.84-21.14,1.53-37.28-3.13-15.31-11.81-31.42-11.81-31.42s5.92-70-18.51-141.69"/>
              <g>
                <path class="bb08e84d-73f8-4794-8a3d-14f6c8788eac" d="M412.13,413.07s3-13.38-2.66-44.92"/>
                <path class="a64afd8d-0e1a-4137-bb6f-675f2147de27" d="M411.15,412.85a44.3,44.3,0,0,0,.74-5.44c.14-1.85.24-3.72.28-5.59.09-3.74,0-7.5-.23-11.24s-.56-7.5-1-11.24l-.69-5.6-.82-5.59,1.07,5.55.94,5.57c.56,3.73,1.09,7.47,1.46,11.23s.65,7.53.73,11.32c0,1.9,0,3.79,0,5.7a44.52,44.52,0,0,1-.53,5.77Z"/>
              </g>
              <g>
                <path class="bb08e84d-73f8-4794-8a3d-14f6c8788eac" d="M434.32,407s2.88-23.71-2.78-47.42"/>
                <path class="a64afd8d-0e1a-4137-bb6f-675f2147de27" d="M433.33,406.85c.49-3.88.78-7.85.94-11.8s.17-7.92,0-11.88-.41-7.92-.87-11.86-1.12-7.86-1.9-11.76c.94,3.86,1.82,7.75,2.4,11.69s1.08,7.9,1.36,11.88.47,8,.47,12-.11,8-.46,12Z"/>
              </g>
              <g>
                <path class="bb08e84d-73f8-4794-8a3d-14f6c8788eac" d="M376.21,338.68s-6.11-10.33,15.3-15.17"/>
                <path class="a64afd8d-0e1a-4137-bb6f-675f2147de27" d="M375.35,339.19a8.05,8.05,0,0,1-.8-3.46,9.13,9.13,0,0,1,.16-1.73,10,10,0,0,1,.54-1.63,11.64,11.64,0,0,1,4.44-4.77,26.91,26.91,0,0,1,5.76-2.57c1-.28,2-.66,3-.85l3-.67-3,.91c-1,.27-1.94.72-2.9,1.08a26.09,26.09,0,0,0-5.38,2.92,10.42,10.42,0,0,0-3.6,4.51,5.78,5.78,0,0,0-.35,2.72,6.31,6.31,0,0,0,.77,2.52Z"/>
              </g>
              <path class="ed0c90ed-54f4-4767-8097-dccb88ad0bef" d="M365.89,383.74a5.54,5.54,0,0,0-.55.14c-2.29.7-3,2.11-3.77,4.38-1.1,3.12-1.24,5.92-.83,12.71,0,0,8.11-2.59,10.23-.64,0,0,2.61-4.08,1.71-11.46A5.79,5.79,0,0,0,365.89,383.74Z"/>
              <path class="ed0c90ed-54f4-4767-8097-dccb88ad0bef" d="M415.92,409.62c.18-5.18,1.25-11.15,5.15-12.1s9.41,1.83,8.91,9.12c0,0-.14,5.34-.94,7.56a23.1,23.1,0,0,1-13.13-.2Z"/>
              <path class="ed0c90ed-54f4-4767-8097-dccb88ad0bef" d="M444.62,393.13s-.09-3.87-3.73-4.81-4,3.14-3.93,7.61.3,4.16.3,4.16,4.11,2.94,7,.59A18.55,18.55,0,0,0,444.62,393.13Z"/>
              <path class="ed0c90ed-54f4-4767-8097-dccb88ad0bef" d="M408.3,417.4s-5.58,3.92-14.53.85c0,0-1.69-14.3,5.26-17.28C399,401,408.9,400.21,408.3,417.4Z"/>
              <g>
                <path class="bb08e84d-73f8-4794-8a3d-14f6c8788eac" d="M441.43,346s7.09-14-16.79-23.71"/>
                <path class="a64afd8d-0e1a-4137-bb6f-675f2147de27" d="M440.54,345.53a11.33,11.33,0,0,0,.95-3.54l.08-.95,0-1a13.36,13.36,0,0,0-.23-1.89,15.1,15.1,0,0,0-3.53-6.86,24.94,24.94,0,0,0-2.8-2.83c-.5-.44-1.06-.81-1.59-1.22s-1.05-.84-1.63-1.18c-1.16-.68-2.29-1.42-3.48-2.05l-3.64-1.79,3.75,1.57c1.24.55,2.41,1.23,3.63,1.85.61.31,1.15.73,1.73,1.09s1.16.73,1.7,1.14a26.77,26.77,0,0,1,3.08,2.75,16.4,16.4,0,0,1,4.23,7.18,13.77,13.77,0,0,1,.4,2.11l.09,1.08,0,1.08a12.61,12.61,0,0,1-.91,4.31Z"/>
              </g>
            </g>
            <ellipse class="bb08e84d-73f8-4794-8a3d-14f6c8788eac" cx="520.09" cy="477.86" rx="33.73" ry="16.08" transform="translate(-136.9 218.6) rotate(-21.04)"/>
            <ellipse class="bb08e84d-73f8-4794-8a3d-14f6c8788eac" cx="87.71" cy="477.37" rx="16.08" ry="33.73" transform="translate(-393.53 414.32) rotate(-72.13)"/>
            <g>
              <path class="bb08e84d-73f8-4794-8a3d-14f6c8788eac" d="M224.67,264.77s19.05-21.47,15.79-41.68"/>
              <path class="a64afd8d-0e1a-4137-bb6f-675f2147de27" d="M223.93,264.1a79.73,79.73,0,0,0,6.86-9,75.71,75.71,0,0,0,5.54-9.92A51.45,51.45,0,0,0,240,234.44a41.2,41.2,0,0,0,.74-5.65,34,34,0,0,0-.24-5.7,34,34,0,0,1,.49,5.71,40.79,40.79,0,0,1-.5,5.73,52.13,52.13,0,0,1-3.2,11.07,75.91,75.91,0,0,1-5.19,10.31,80.82,80.82,0,0,1-6.64,9.52Z"/>
            </g>
            <g>
              <path class="bb08e84d-73f8-4794-8a3d-14f6c8788eac" d="M370.78,261.89s-13.53-21.47-11.22-41.68"/>
              <path class="a64afd8d-0e1a-4137-bb6f-675f2147de27" d="M369.93,262.42a85.69,85.69,0,0,1-4.84-10A89.78,89.78,0,0,1,361.5,242a70.09,70.09,0,0,1-2.05-10.83,51.56,51.56,0,0,1,.11-11,51,51,0,0,0,.39,10.91,68.91,68.91,0,0,0,2.51,10.6,91.7,91.7,0,0,0,4,10.12,87.1,87.1,0,0,0,5.16,9.52Z"/>
            </g>
            <path class="bf82db2e-32bb-4a4b-a879-07d149385277" d="M175.27,202.79s24.48,20.11,60,26.75a219.18,219.18,0,0,1,31.07,14.39c15.48,8.83,56.72,9.82,83.82-11.63,0,0,22.27-10.91,41.38-12.09,0,0,18.92-4.92,26.48-17.42l-1.65-21.47-231.27-.78Z"/>
            <g>
              <g>
                <path class="ac451c5c-42bc-48f4-8289-33871ec83330" d="M447,139c0,1.37,0,2.73-.18,4.08-2.65,31.77-36.23,59-84.29,72.54a91.15,91.15,0,0,0-19.09,7.73c-10.16,5.55-27.11,10.93-46.83,10.93a111.58,111.58,0,0,1-46.54-10.31,92.57,92.57,0,0,0-18-6.53C178.27,204.11,140.7,174,140.7,139c0-19.54,11.69-37.54,31.36-52-.87-2.32-1.67-4.71-2.34-7.17-9.58-34.95,5.88-69.64,34.52-77.48s59.63,14.12,69.2,49.07c.23.84.44,1.7.64,2.54q9.72-.69,19.78-.7,5.79,0,11.48.23c9.8-34.53,40.54-56.16,69-48.37s44,42.4,34.58,77.27a113,113,0,0,1,15.91,12.11c7.67,7.06,13.57,14.78,17.35,23a53.15,53.15,0,0,1,2,5h0A49.72,49.72,0,0,1,447,139Z"/>
                <circle class="bb82dc49-e229-4e7b-a448-c1d73a5c8883" cx="221.64" cy="60.39" r="40.09"/>
                <circle class="bb82dc49-e229-4e7b-a448-c1d73a5c8883" cx="359.3" cy="60.39" r="40.09"/>
                <g>
                  <ellipse class="af580ba5-d68f-41d5-abfd-e44fbed98368" cx="220.53" cy="58.64" rx="35.46" ry="38.34"/>
                  <ellipse class="a4446d9f-de0b-4be9-abd4-e3bf45475c37" cx="220.53" cy="58.64" rx="16.42" ry="17.75"/>
                </g>
                <g>
                  <ellipse class="af580ba5-d68f-41d5-abfd-e44fbed98368" cx="360.49" cy="58.64" rx="36.12" ry="38.34"/>
                  <ellipse class="a4446d9f-de0b-4be9-abd4-e3bf45475c37" cx="360.49" cy="58.64" rx="16.73" ry="17.75"/>
                </g>
                <path class="a2fbd81c-ee69-4f79-8429-23407ba4bd89" d="M375.87,132l-22.36,9s-10.72,18.41-22.14,31.31c-3.89,4.38-7.83,8.13-11.43,10.27-11,6.59-33.48,17.17-65.06-8.62-9.09-7.43-18.94-17.87-29.49-32.29L195.05,129a236.67,236.67,0,0,0,34.67,10.1,283.06,283.06,0,0,0,120.41-.53C363.75,135.51,361.53,137.52,375.87,132Z"/>
                <g>
                  <path class="ec3c318b-22b0-4957-8cc2-1ea40c3ce69b" d="M271.43,178.39s6.71-11.88,22.28-6.38c0,0,13.84-6.53,21,6.77C314.69,178.78,295.56,200.85,271.43,178.39Z"/>
                  <path class="a2fbd81c-ee69-4f79-8429-23407ba4bd89" d="M292.88,170a3.42,3.42,0,0,1,1,1.13,6.69,6.69,0,0,1,.57,1.25,11.92,11.92,0,0,1,.54,2.6,24.5,24.5,0,0,1-.16,5.21c0-.87,0-1.73,0-2.59a19.37,19.37,0,0,0-.31-2.54,10.63,10.63,0,0,0-.74-2.4,5.4,5.4,0,0,0-.6-1.05,2.7,2.7,0,0,0-.75-.71Z"/>
                </g>
                <path class="efa14154-5a1a-435f-bd7e-22dbf47dcbd7" d="M350.13,140.09a14.11,14.11,0,0,1-.29,1.41c-3.71,14.46-29.14,25.65-60,25.65-30,0-54.89-10.6-59.61-24.49a16.17,16.17,0,0,1-.55-2A283.38,283.38,0,0,0,350.13,140.09Z"/>
                <path class="efa14154-5a1a-435f-bd7e-22dbf47dcbd7" d="M331.37,171.48c-3.89,4.38-7.83,8.12-11.43,10.27-11,6.59-33.48,17.17-65.06-8.62a131.26,131.26,0,0,0,36.83,5.55C306.88,178.68,320.75,176,331.37,171.48Z"/>
                <path class="fb51988f-3043-4af1-be73-da923fcf738b" d="M350.13,140.09a14.11,14.11,0,0,1-.29,1.41c-51.75,15.15-101.7,5.57-119.57,1.16a16.17,16.17,0,0,1-.55-2A283.38,283.38,0,0,0,350.13,140.09Z"/>
                <path class="b2203cd0-e84e-4160-b2ed-9bccef1f6e0b" d="M197.9,122.93a5.29,5.29,0,0,0-1.26,1.11,5.64,5.64,0,0,0-.93,1.53,7.29,7.29,0,0,0-.45,3.7,12,12,0,0,0,.39,1.93c.2.63.43,1.26.69,1.88s.57,1.22.9,1.82l1.06,1.74L197,135c-.4-.55-.75-1.14-1.14-1.72s-.65-1.22-.95-1.86a12.13,12.13,0,0,1-.66-2,8.48,8.48,0,0,1,0-4.36,7.78,7.78,0,0,1,.94-2.08,6.83,6.83,0,0,1,1.62-1.76Z"/>
                <path class="b2203cd0-e84e-4160-b2ed-9bccef1f6e0b" d="M375.12,125.46a6.83,6.83,0,0,1,1.62,1.76,7.48,7.48,0,0,1,.94,2.08,8.48,8.48,0,0,1,0,4.36,12.13,12.13,0,0,1-.66,2c-.29.64-.61,1.26-.95,1.86s-.74,1.17-1.14,1.72l-1.27,1.62,1.06-1.75c.33-.59.6-1.22.9-1.82s.49-1.25.69-1.88a12,12,0,0,0,.39-1.93,7.19,7.19,0,0,0-.45-3.7,5.8,5.8,0,0,0-.93-1.53,5.52,5.52,0,0,0-1.26-1.11Z"/>
              </g>
              <ellipse class="bc3d66ed-b4a7-42d6-836a-5d52e6917a2e" cx="311.65" cy="118.12" rx="6.08" ry="3.59" transform="matrix(0.87, -0.5, 0.5, 0.87, -17.31, 171.65)"/>
              <ellipse class="bc3d66ed-b4a7-42d6-836a-5d52e6917a2e" cx="276.99" cy="118.95" rx="3.59" ry="6.08" transform="matrix(0.5, -0.87, 0.87, 0.5, 35.48, 299.36)"/>
            </g>
            <g>
              <path class="b99c0616-f634-4019-88bf-e71f8f760af3" d="M442.17,117.48c-4.68,4.1-12.73,2.76-18.1-3.06S418,100.26,422.67,96a9.37,9.37,0,0,1,2.15-1.48C432.49,101.55,438.39,109.27,442.17,117.48Z"/>
              <path class="b99c0616-f634-4019-88bf-e71f8f760af3" d="M447,139c0,1.37,0,2.73-.18,4.08a17.2,17.2,0,0,1-1.76-1.67c-5.44-5.9-6.06-14.16-1.4-18.45a5.27,5.27,0,0,1,.51-.43A49.72,49.72,0,0,1,447,139Z"/>
              <ellipse class="b99c0616-f634-4019-88bf-e71f8f760af3" cx="428.13" cy="126.78" rx="8.57" ry="5.17"/>
            </g>
            <g>
              <path class="b99c0616-f634-4019-88bf-e71f8f760af3" d="M145.28,121c5,3.76,12.9,1.84,17.83-4.36s5-14.56,0-18.51a9.48,9.48,0,0,0-2.25-1.32C153.77,104.38,148.45,112.51,145.28,121Z"/>
              <path class="b99c0616-f634-4019-88bf-e71f8f760af3" d="M142,142.74c.1,1.37.25,2.72.48,4.06a17.51,17.51,0,0,0,1.63-1.79c5-6.28,5-14.57.06-18.51-.17-.14-.36-.27-.54-.39A49.66,49.66,0,0,0,142,142.74Z"/>
              <ellipse class="b99c0616-f634-4019-88bf-e71f8f760af3" cx="159.96" cy="129.22" rx="8.57" ry="5.17" transform="matrix(1, -0.07, 0.07, 1, -8.97, 11.98)"/>
            </g>
            <ellipse class="b99c0616-f634-4019-88bf-e71f8f760af3" cx="168.44" cy="263.54" rx="3.13" ry="10.23"/>
            <ellipse class="b99c0616-f634-4019-88bf-e71f8f760af3" cx="163" cy="291.46" rx="3.13" ry="10.23"/>
            <ellipse class="b99c0616-f634-4019-88bf-e71f8f760af3" cx="428.13" cy="260.06" rx="3.13" ry="10.23"/>
            <ellipse class="b99c0616-f634-4019-88bf-e71f8f760af3" cx="431.58" cy="284" rx="3.13" ry="10.23"/>
          </g>
          <path class="a2fbd81c-ee69-4f79-8429-23407ba4bd89" d="M273.5,190.38a42.2,42.2,0,0,0,5,3.62,41,41,0,0,0,5.44,2.88,31.46,31.46,0,0,0,11.82,2.86,26.25,26.25,0,0,0,6.06-.49,29.07,29.07,0,0,0,5.79-1.9,39.33,39.33,0,0,0,10.11-7c-.71.75-1.41,1.52-2.16,2.23s-1.51,1.44-2.35,2.06l-1.25.94c-.42.32-.87.58-1.3.87a30.48,30.48,0,0,1-2.72,1.57,25.88,25.88,0,0,1-5.94,2.09,27,27,0,0,1-6.28.59,30.79,30.79,0,0,1-12.1-3.15A36.9,36.9,0,0,1,273.5,190.38Z"/>
          <circle class="efa14154-5a1a-435f-bd7e-22dbf47dcbd7" cx="373.12" cy="44.21" r="5.44"/>
          <circle class="efa14154-5a1a-435f-bd7e-22dbf47dcbd7" cx="229.72" cy="46.32" r="5.44"/>
        </g>
        <g>
          <path class="bb08e84d-73f8-4794-8a3d-14f6c8788eac" d="M520.09,426.57s-18.31-.87-35.06,14.87"/>
          <path class="e9bde63b-f7b9-4f00-a8c4-864cc6a4a712" d="M520.07,427.07a40.71,40.71,0,0,0-9.55,1,50.85,50.85,0,0,0-9.22,2.9,54,54,0,0,0-8.57,4.53c-1.39.83-2.65,1.85-4,2.8s-2.48,2.09-3.73,3.12c1.22-1.06,2.38-2.2,3.65-3.22s2.54-2,3.92-2.91a53.7,53.7,0,0,1,8.5-4.78,51.37,51.37,0,0,1,9.26-3.17,41.25,41.25,0,0,1,9.75-1.29Z"/>
        </g>
        <g>
          <path class="bb08e84d-73f8-4794-8a3d-14f6c8788eac" d="M88.57,426.29s11.62-10.06,30.79,9"/>
          <path class="e9bde63b-f7b9-4f00-a8c4-864cc6a4a712" d="M88.24,425.91a12.67,12.67,0,0,1,4.07-2,17.83,17.83,0,0,1,4.4-.67,21,21,0,0,1,8.58,1.85,31.16,31.16,0,0,1,3.92,2c1.24.77,2.44,1.6,3.63,2.44s2.28,1.81,3.36,2.78l3.16,3-3.24-2.91c-1.11-.93-2.29-1.78-3.43-2.67s-2.42-1.59-3.66-2.32a33.93,33.93,0,0,0-3.92-1.82A20.51,20.51,0,0,0,96.74,424a16.76,16.76,0,0,0-4.17.76,11.88,11.88,0,0,0-3.68,1.89Z"/>
        </g>
      </g>
    </g>
  </g>
</svg>
