<svg xmlns="http://www.w3.org/2000/svg" viewBox="0 0 712 718"><defs><style>.cls-1,.cls-2{fill:#acc932;}.cls-1{stroke:#434905;stroke-width:2px;}.cls-1,.cls-4{stroke-miterlimit:10;}.cls-3{fill:#434905;}.cls-4{fill:#edefe1;stroke:#abad87;stroke-width:0.5px;}.cls-5{fill:#6e9401;}</style></defs><g id="Layer_10" data-name="Layer 10"><path class="cls-1" d="M222.53,14.28S248,301.6,239.69,375.67c0,0,76.67,49.71,85.93,153.59,0,0,45.27,104.78-17.86,97.65-23.49-2.66-54.25-53-59.93-76.26-7.1-29-1.7-28-6.57-58.18,0,0-21.45,53.81-6.29,141.27,16,92.44-49.25,106.34-79.77,33.59,0,0,3,20.42-18.2,30.45-5.5,2.6-20,8.25-29.58,5C72,691,66.73,627.61,66.73,627.61s-3,26.52-14.35,28.72C41.69,658.39,36,654.3,30.06,645,17.78,626,1.07,570.74,4.38,510.26c3.14-57.39,26-120.65,26-120.65S-9.22,221.48,3.77,10.43C4.16,10.76,222.53,14.28,222.53,14.28Z"/><path class="cls-2" d="M157.5,671.87s-18.15-47-14.56-164.83"/><path class="cls-3" d="M156.57,672.23c-1.2-3.36-2.07-6.69-2.94-10.07l-1.22-5.07-1.09-5.1q-1-5.1-1.91-10.23c-.53-3.43-1.16-6.84-1.6-10.28s-1-6.87-1.34-10.32l-1.14-10.33c-.59-6.91-1.25-13.81-1.61-20.73s-.72-13.83-1-20.75c-.18-3.46-.19-6.92-.26-10.39l-.17-10.38.1-20.77.54-20.77-.29,20.77.15,20.76.3,10.38c.11,3.46.16,6.92.38,10.37.35,6.91.66,13.82,1.24,20.72s1.18,13.78,1.85,20.66L147.83,621c.41,3.44,1,6.84,1.47,10.27s1.15,6.81,1.71,10.21,1.31,6.79,2,10.16l1.15,5,1.26,5c.9,3.31,1.83,6.67,3,9.82Z"/><path class="cls-2" d="M73.49,661.64S50.23,577,58,487.65"/><path class="cls-3" d="M72.53,661.9c-3.6-14.24-6.39-28.6-8.74-43s-4.13-29-5.41-43.56c-.72-7.28-1.08-14.59-1.54-21.89-.16-3.65-.25-7.31-.37-11L56.29,537V520.5l.38-11,.19-5.48.4-5.47L58,487.65l-.66,11L57,504.07l-.13,5.48-.25,10.95.12,11,.07,5.48.24,5.47c.17,3.65.29,7.3.5,11,.54,7.28,1,14.57,1.78,21.84,1.44,14.53,3.37,29,5.9,43.4s5.46,28.71,9.18,42.77Z"/><path class="cls-2" d="M248,381.91s9.73-35.63-70.78-41.68"/><path class="cls-3" d="M247.06,381.65a17.61,17.61,0,0,0,.3-5.31,21.31,21.31,0,0,0-1.19-5.33,27,27,0,0,0-5.79-9.33,43.74,43.74,0,0,0-8.69-7,70.4,70.4,0,0,0-10.08-5.07,120.84,120.84,0,0,0-21.81-6.25,221.41,221.41,0,0,0-22.55-3.1,221.16,221.16,0,0,1,22.65,2.61A121.61,121.61,0,0,1,222,348.65a71.8,71.8,0,0,1,10.37,4.93,44.48,44.48,0,0,1,9.13,7.07,28.7,28.7,0,0,1,6.35,9.76,23,23,0,0,1,1.4,5.74,22.63,22.63,0,0,1,.12,3,14.87,14.87,0,0,1-.35,3.05Z"/><path class="cls-4" d="M309.87,540.23c.67,0,1.37.13,2.08.23,8.68,1.3,11.95,6,16.07,13.88,5.67,10.79,7.7,20.88,9.87,45.79,0,0-15.8-5.69-37.55,3.2,0,0-11.7-13.44-12.4-40.77C287.62,550.15,297.63,539.36,309.87,540.23Z"/><path class="cls-4" d="M141.84,661.36c-3.46-18.76-10.54-39.88-25.24-41.23s-33.25,11.71-27.52,38c0,0,3.41,19.36,7.52,27,0,0,24.87-14.48,47.64-7.8Z"/><path class="cls-4" d="M28.58,616.84s-1.79-14.11,11-19.48,15.95,9.28,18.39,25.56c2,13.48,2.72,18.31,2.72,18.31A176,176,0,0,1,33.4,642.9S28.46,632.88,28.58,616.84Z"/><path class="cls-4" d="M173.75,685.55s32.15-11.25,53.31-4.76c0,0-1.55-52.9-28.44-60C198.62,620.79,162.3,623.35,173.75,685.55Z"/><path class="cls-2" d="M14.75,443.63S-36.5,409.12,63,348.35"/><path class="cls-3" d="M14.19,444.46a32.45,32.45,0,0,1-5.86-5.66A35.7,35.7,0,0,1,4,432a32.87,32.87,0,0,1-2.56-7.66,32.22,32.22,0,0,1-.5-4,28.67,28.67,0,0,1,0-4,40.63,40.63,0,0,1,4.29-15.36,71.94,71.94,0,0,1,8.7-13.27,140.72,140.72,0,0,1,23-21.65A293.72,293.72,0,0,1,63,348.35a295.06,295.06,0,0,0-25.86,18,140.1,140.1,0,0,0-22.53,21.88A70.73,70.73,0,0,0,6.3,401.46a39.24,39.24,0,0,0-3.92,14.9,29.08,29.08,0,0,0,.07,3.85A28.71,28.71,0,0,0,3,424a31.94,31.94,0,0,0,2.54,7.22,34,34,0,0,0,4.25,6.37,31.24,31.24,0,0,0,5.54,5.2Z"/><ellipse class="cls-5" cx="23.89" cy="120.87" rx="11.53" ry="37.61" transform="translate(-17.47 4.81) rotate(-8.43)"/><ellipse class="cls-5" cx="19.16" cy="225.36" rx="11.53" ry="37.61" transform="translate(-32.84 5.25) rotate(-8.43)"/><path class="cls-1" d="M689.52,4.24C710.68,213.1,678.45,381,678.45,381S704,443.3,709.5,500.5c5.84,60.29-8.55,116.16-20,135.71-5.59,9.53-11.06,13.85-21.83,12.24-11.44-1.72-15.54-28.09-15.54-28.09s-2.57,63.54-37.5,76.84c-9.45,3.6-24.17-1.43-29.78-3.8-21.62-9.13-19.45-29.66-19.45-29.66-27.45,74-93.24,62.81-81.1-30.22,11.48-88-12.2-140.89-12.2-140.89C468.47,523,473.83,521.77,468,551c-4.71,23.46-33.33,75.06-56.69,78.7-62.77,9.77-21.93-96.82-21.93-96.82,4.91-104.18,79.43-157,79.43-157-11.41-73.65,2-361.79,2-361.79S690.16,4.76,689.52,4.24Z"/><path class="cls-2" d="M563.27,668.37s16.17-47.76,7.65-165.29"/><path class="cls-3" d="M562.32,668.05c1-3.2,1.82-6.59,2.58-9.94l1.05-5.06.94-5.09c.57-3.4,1.11-6.81,1.59-10.23s.95-6.84,1.29-10.28.77-6.87,1-10.31l.83-10.34c.38-6.91.83-13.81,1-20.72s.3-13.84.37-20.75c.07-3.46,0-6.92,0-10.38l-.14-10.38-.71-20.75-1.17-20.74,1.42,20.72,1,20.75.26,10.39c.08,3.46.21,6.92.18,10.38,0,6.93.09,13.86-.12,20.78s-.44,13.85-.74,20.78l-.7,10.37c-.23,3.46-.62,6.91-.92,10.36s-.78,6.89-1.17,10.34-.94,6.87-1.48,10.3l-.88,5.14-1,5.12c-.73,3.41-1.46,6.78-2.52,10.18Z"/><path class="cls-2" d="M646.78,654.63s19.7-85.58,8.15-174.47"/><path class="cls-3" d="M645.8,654.41c3.14-14.21,5.5-28.65,7.4-43.12s3.24-29,4.07-43.61c.49-7.29.63-14.59.86-21.89.06-3.65,0-7.31,0-11v-5.48l-.16-5.48-.34-11L657,502l-.37-5.47-.56-5.45-1.13-10.9,1.25,10.89.63,5.45.42,5.46.84,10.94.46,11,.22,5.48,0,5.49c0,3.65.1,7.31.08,11-.15,7.31-.2,14.63-.61,21.93-.67,14.61-1.83,29.21-3.59,43.75s-3.93,29-6.93,43.38Z"/><path class="cls-2" d="M460.69,382.45s-18.36-40.13,61.83-49.55"/><path class="cls-3" d="M459.78,382.87a24.83,24.83,0,0,1-1.5-5.79,29.22,29.22,0,0,1-.22-5.91,28.8,28.8,0,0,1,1-5.81,27.14,27.14,0,0,1,2.27-5.42,32.92,32.92,0,0,1,7.37-9,51,51,0,0,1,9.57-6.49,94.49,94.49,0,0,1,21.6-7.76,186.48,186.48,0,0,1,22.61-3.79A185.64,185.64,0,0,0,500,337.18a93,93,0,0,0-21.25,8.15,49.54,49.54,0,0,0-9.21,6.54,31.58,31.58,0,0,0-6.89,8.77,26.69,26.69,0,0,0-2,5.17,27.24,27.24,0,0,0-.86,5.46,26.82,26.82,0,0,0,.34,5.52A23,23,0,0,0,461.6,382Z"/><path class="cls-4" d="M405.53,543.23c-.67.07-1.36.18-2.07.31-8.62,1.66-11.69,6.55-15.47,14.54-5.22,11-6.83,21.19-7.95,46.16,0,0,30.68-6.32,37.65,1.62,0,0,11.13-13.91,10.69-41.25C428.18,552.2,417.72,541.84,405.53,543.23Z"/><path class="cls-4" d="M578.47,657.22c2.68-18.89,8.87-40.29,23.5-42.25s33.71,10.3,29.09,36.78c0,0-2.61,19.48-6.39,27.29a85.15,85.15,0,0,1-47.93-5.8Z"/><path class="cls-4" d="M689.78,608S691,593.82,678,589s-15.84,9.9-17.32,26.3-.51,15.3-.51,15.3,13.89,12.34,25.51,4.89A68.52,68.52,0,0,0,689.78,608Z"/><path class="cls-4" d="M547.61,682.72s-21.92,12.18-53.47-2.52c0,0-.66-52.92,25.91-61.14C520.05,619.06,556.45,620.1,547.61,682.72Z"/><path class="cls-2" d="M696.35,434.36s31.32-48.4-52.23-93.17"/><path class="cls-3" d="M695.51,433.81a36.23,36.23,0,0,0,3-6.54,44.83,44.83,0,0,0,1.9-7.06,47.4,47.4,0,0,0,.47-14.61,52.32,52.32,0,0,0-3.8-14.18,70,70,0,0,0-7.24-12.87,104.32,104.32,0,0,0-20.79-21.13,187.76,187.76,0,0,0-25-16.23A187.61,187.61,0,0,1,669.41,357,105.3,105.3,0,0,1,690.7,378a71,71,0,0,1,7.58,13,53.86,53.86,0,0,1,4.14,14.48,49.09,49.09,0,0,1-.24,15.11,45.69,45.69,0,0,1-1.85,7.37,37.08,37.08,0,0,1-3.14,7Z"/><ellipse class="cls-5" cx="680.94" cy="115.04" rx="37.61" ry="11.53" transform="translate(494.94 780.11) rotate(-83.97)"/><ellipse class="cls-5" cx="684.31" cy="203.92" rx="37.61" ry="11.53" transform="translate(409.58 863) rotate(-83.97)"/></g></svg>