<svg xmlns="http://www.w3.org/2000/svg" viewBox="0 0 212 107"><defs><style>.cls-1{fill:#cba288;}</style></defs><g id="Layer_18" data-name="Layer 18"><path class="cls-1" d="M10-.18s14.22.81,9.75,15,6.09,2-4.47,14.22-14,6.29-14,6.29Z"/><path class="cls-1" d="M20.16,46.14S6.75,49,5.93,58.33,9.59,68.9,13,66.86,20.16,46.14,20.16,46.14Z"/><path class="cls-1" d="M73.39,84.34s4.87-7.72,12.19-8.54,4.87,5.29,5.28,8.54S92,91.25,88.39,96.12s-7.28,2.85-9.31,8.53-5.69,0-5.69,0Z"/><path class="cls-1" d="M107.11,62s-3.25-1.17-4.47,5.71,2.85,10.14,4.47,10.14,4.47-2.11,4.47-2.11V69.87S107.52,65.24,107.11,62Z"/><path class="cls-1" d="M171.72,71.74s1.63-6.09,6.51-7.72-1.66,7.45-1.66,15.81,4.09,6.54.84,11S177.69,101,175,103s-.07-4.85-.07-4.85Z"/><path class="cls-1" d="M209.11,77.84s-11,4.08-9.35,13.62,3.66,14,6.5,14a6.56,6.56,0,0,1,4.47,1.74Z"/></g></svg>