<?xml version="1.0" encoding="utf-8"?>
<!-- Generator: Adobe Illustrator 25.2.3, SVG Export Plug-In . SVG Version: 6.00 Build 0)  -->
<svg version="1.1" id="Layer_1" xmlns="http://www.w3.org/2000/svg" xmlns:xlink="http://www.w3.org/1999/xlink" x="0px" y="0px"
	 viewBox="0 0 1600 900" style="enable-background:new 0 0 1600 900;" xml:space="preserve">
<style type="text/css">
	.st0{clip-path:url(#SVGID_2_);}
	.st1{fill:#74B5E4;}
	.st2{opacity:0.23;fill:url(#SVGID_3_);enable-background:new    ;}
	.st3{fill:#5FA0C4;}
	.st4{opacity:0.53;fill:#4C82C3;enable-background:new    ;}
	.st5{fill:#4B89C8;}
	.st6{opacity:0.51;fill:#4C82C3;enable-background:new    ;}
	.st7{opacity:0.75;fill:#4C82C3;enable-background:new    ;}
	.st8{opacity:0.6;fill:#4C82C3;enable-background:new    ;}
	.st9{opacity:0.47;fill:url(#SVGID_4_);enable-background:new    ;}
	.st10{opacity:0.47;fill:url(#SVGID_5_);enable-background:new    ;}
	.st11{opacity:0.47;fill:url(#SVGID_6_);enable-background:new    ;}
	.st12{opacity:0.47;fill:url(#SVGID_7_);enable-background:new    ;}
	.st13{opacity:0.47;fill:url(#SVGID_8_);enable-background:new    ;}
	.st14{opacity:0.27;fill:#A8DBE2;enable-background:new    ;}
	.st15{opacity:0.14;fill:#242827;enable-background:new    ;}
	.st16{opacity:0.3;fill:#0B0C09;enable-background:new    ;}
	.st17{opacity:0.13;fill:#54A6AE;enable-background:new    ;}
	.st18{opacity:0.37;}
	.st19{fill:none;stroke:#FFFFFF;stroke-miterlimit:10;}
	.st20{fill:url(#SVGID_9_);}
	.st21{fill:url(#SVGID_10_);}
	.st22{fill:#99857F;}
	.st23{fill:#69605E;}
	.st24{fill:#B1C7CB;}
	.st25{fill:#7A6F6C;}
	.st26{opacity:0.78;fill:#CBE4E4;enable-background:new    ;}
	.st27{opacity:0.8;fill:#CBE4E4;enable-background:new    ;}
	.st28{opacity:0.57;fill:#111111;enable-background:new    ;}
	.st29{opacity:0.57;fill:#272725;enable-background:new    ;}
	.st30{opacity:0.39;fill:#9B999F;enable-background:new    ;}
	.st31{fill:#5A615F;}
	.st32{opacity:0.42;fill:#242827;enable-background:new    ;}
	.st33{fill:#9B999F;}
	.st34{fill:#767C7A;}
	.st35{fill:#B9B7C4;}
</style>
<g id="Layer_8">
	<g>
		<defs>
			<rect id="SVGID_1_" width="1600" height="900"/>
		</defs>
		<clipPath id="SVGID_2_">
			<use xlink:href="#SVGID_1_"  style="overflow:visible;"/>
		</clipPath>
		<g class="st0">
			<polygon class="st1" points="-48,295.5 1648,295.2 1648,909 -48,941.4 			"/>
			
				<linearGradient id="SVGID_3_" gradientUnits="userSpaceOnUse" x1="813.999" y1="87.68" x2="782.929" y2="1083.61" gradientTransform="matrix(1 0 0 -1 0 900)">
				<stop  offset="0" style="stop-color:#5AB1B1"/>
				<stop  offset="0.16" style="stop-color:#56ABAB"/>
				<stop  offset="0.38" style="stop-color:#4C9999"/>
				<stop  offset="0.48" style="stop-color:#479090"/>
				<stop  offset="0.53" style="stop-color:#509494"/>
				<stop  offset="0.61" style="stop-color:#68A09F"/>
				<stop  offset="0.71" style="stop-color:#90B2B0"/>
				<stop  offset="0.82" style="stop-color:#C7CCC8"/>
				<stop  offset="0.85" style="stop-color:#D2D1CD"/>
			</linearGradient>
			<path class="st2" d="M-48,295.5l1696-0.3V909c0,0-724-481.1-1696-477V295.5z"/>
			<polygon class="st3" points="-48,295.5 1648,295.2 1648,-45 -48,-45 			"/>
			<polygon class="st1" points="198.8,121.7 213.7,184.5 391.7,185.6 380.8,121.7 			"/>
			<polygon class="st4" points="-3.2,53 184.4,53 198.8,121.7 15.6,121.7 			"/>
			<polygon class="st5" points="184.4,53 370,53 358.4,-24.7 165.9,-24.7 			"/>
			<polygon class="st6" points="32.1,183.8 213.7,184.5 226.6,245.6 49.7,245.6 			"/>
			<polygon class="st7" points="1214.6,192 1386.8,192 1374.2,244.6 1206.4,244.6 			"/>
			<polygon class="st1" points="1403.5,122.1 1578.1,122.1 1559.6,191 1386.8,192 			"/>
			<polygon class="st8" points="1235.2,54.8 1418.1,54.8 1403.5,122.1 1227.5,120.6 			"/>
			<polygon class="st1" points="1438.7,-24.8 1622.4,-26.4 1600.9,50.2 1418.1,54.8 			"/>
			
				<linearGradient id="SVGID_4_" gradientUnits="userSpaceOnUse" x1="754.49" y1="433.57" x2="770.79" y2="433.57" gradientTransform="matrix(1 0 0 -1 0 900)">
				<stop  offset="0" style="stop-color:#E8E4DE"/>
				<stop  offset="0.46" style="stop-color:#F9F6F4"/>
				<stop  offset="0.65" style="stop-color:#F0EDEB"/>
				<stop  offset="0.94" style="stop-color:#D8D6D3"/>
				<stop  offset="1" style="stop-color:#D2D1CD"/>
			</linearGradient>
			<circle class="st9" cx="762.6" cy="466.4" r="8.2"/>
			
				<linearGradient id="SVGID_5_" gradientUnits="userSpaceOnUse" x1="797.39" y1="439.26" x2="813.69" y2="439.26" gradientTransform="matrix(1 0 0 -1 0 900)">
				<stop  offset="0" style="stop-color:#E8E4DE"/>
				<stop  offset="0.46" style="stop-color:#F9F6F4"/>
				<stop  offset="0.65" style="stop-color:#F0EDEB"/>
				<stop  offset="0.94" style="stop-color:#D8D6D3"/>
				<stop  offset="1" style="stop-color:#D2D1CD"/>
			</linearGradient>
			<circle class="st10" cx="805.5" cy="460.7" r="8.2"/>
			
				<linearGradient id="SVGID_6_" gradientUnits="userSpaceOnUse" x1="760.53" y1="397.84" x2="776.83" y2="397.84" gradientTransform="matrix(1 0 0 -1 0 900)">
				<stop  offset="0" style="stop-color:#E8E4DE"/>
				<stop  offset="0.46" style="stop-color:#F9F6F4"/>
				<stop  offset="0.65" style="stop-color:#F0EDEB"/>
				<stop  offset="0.94" style="stop-color:#D8D6D3"/>
				<stop  offset="1" style="stop-color:#D2D1CD"/>
			</linearGradient>
			<circle class="st11" cx="768.7" cy="502.2" r="8.2"/>
			
				<linearGradient id="SVGID_7_" gradientUnits="userSpaceOnUse" x1="805.54" y1="403.49" x2="821.84" y2="403.49" gradientTransform="matrix(1 0 0 -1 0 900)">
				<stop  offset="0" style="stop-color:#E8E4DE"/>
				<stop  offset="0.46" style="stop-color:#F9F6F4"/>
				<stop  offset="0.65" style="stop-color:#F0EDEB"/>
				<stop  offset="0.94" style="stop-color:#D8D6D3"/>
				<stop  offset="1" style="stop-color:#D2D1CD"/>
			</linearGradient>
			<circle class="st12" cx="813.7" cy="496.5" r="8.2"/>
			
				<linearGradient id="SVGID_8_" gradientUnits="userSpaceOnUse" x1="780.78" y1="418.97" x2="797.08" y2="418.97" gradientTransform="matrix(1 0 0 -1 0 900)">
				<stop  offset="0" style="stop-color:#E8E4DE"/>
				<stop  offset="0.46" style="stop-color:#F9F6F4"/>
				<stop  offset="0.65" style="stop-color:#F0EDEB"/>
				<stop  offset="0.94" style="stop-color:#D8D6D3"/>
				<stop  offset="1" style="stop-color:#D2D1CD"/>
			</linearGradient>
			<circle class="st13" cx="788.9" cy="481" r="8.2"/>
			<polygon class="st14" points="237.7,297.4 186.9,538.5 -3.2,537.2 67.1,297.4 			"/>
			<path class="st14" d="M1363.1,295.5l55,242.9h179.2c-24.2-81-48.4-162-72.6-242.9H1363.1z"/>
			<path class="st14" d="M520.4,781.8c-3.9,42.4-7.7,84.8-11.6,127.2H703l10.2-127.6L520.4,781.8z"/>
			<polygon class="st14" points="899.2,781.8 899.2,909 1094.1,909 1085.4,780.9 			"/>
			<polygon class="st14" points="1237.2,538.5 1279.8,781.9 1470.3,780.9 1418.1,538.5 			"/>
			<polygon class="st14" points="325.2,781.9 132.8,781.9 186.9,538.5 368,536.8 			"/>
			<path class="st15" d="M477.2,176.4c3.7-35.8,151.1-54.7,207.2,0"/>
			<polygon class="st14" points="132.8,781.9 105.4,909 -48,909 -48,781.9 			"/>
			<polygon class="st14" points="1470.3,780.9 1498.6,909 1648,909 1648,781.9 			"/>
			<polygon class="st1" points="893.2,78.5 892.5,120.3 1066.8,120.3 1070.2,78.5 			"/>
			<polygon class="st1" points="543.8,78.5 724.6,78.5 726.4,120.3 546.5,120.3 			"/>
			<rect x="417.2" y="111.1" class="st16" width="714.3" height="20.9"/>
			<path class="st17" d="M-48,295.5c0,0,892-747.3,1696-0.3V-45H-48V295.5z"/>
			<g class="st18">
				<polyline class="st19" points="-31.7,-50.4 67.1,308.9 -73.6,781.8 				"/>
				<polyline class="st19" points="162.9,-45 237.7,295.5 94.1,961.4 				"/>
				<polyline class="st19" points="354.5,-45 408.3,295.5 294.6,961.4 				"/>
				<polyline class="st19" points="534.4,-65.2 558,295.5 499.3,1027.3 				"/>
				<polyline class="st19" points="716.6,-110.1 734.6,311.9 698.7,991.3 				"/>
				<polyline class="st19" points="899.2,-86.2 887.2,283.8 899.2,991.3 				"/>
				<polyline class="st19" points="1081.8,-65.2 1052.5,295.5 1099.7,991.3 				"/>
				<polyline class="st19" points="1252.4,-50.4 1198.5,295.5 1309.2,991.3 				"/>
				<polyline class="st19" points="1440.9,-45 1363.1,295.5 1524.7,1027.3 				"/>
				<polyline class="st19" points="1629.5,-45 1524.7,295.5 1701.3,886.6 				"/>
				<line class="st19" x1="-61.6" y1="295.5" x2="1722.3" y2="295.5"/>
				<line class="st19" x1="-48" y1="52" x2="1648" y2="52"/>
				<line class="st19" x1="-48" y1="120.3" x2="1659.1" y2="120.3"/>
				<line class="st19" x1="-48" y1="183.1" x2="1648" y2="192"/>
				<line class="st19" x1="-48" y1="245.6" x2="1659.1" y2="245.6"/>
				<line class="st19" x1="-73.6" y1="537.2" x2="1812.9" y2="537.2"/>
				<line class="st19" x1="-89.6" y1="781.8" x2="1744.8" y2="781.8"/>
			</g>
			
				<linearGradient id="SVGID_9_" gradientUnits="userSpaceOnUse" x1="392.728" y1="441.7223" x2="1185.1558" y2="441.7223" gradientTransform="matrix(1 0 0 -1 0 900)">
				<stop  offset="0" style="stop-color:#E8E4DE"/>
				<stop  offset="0.46" style="stop-color:#F9F6F4"/>
				<stop  offset="0.65" style="stop-color:#F0EDEB"/>
				<stop  offset="0.94" style="stop-color:#D8D6D3"/>
				<stop  offset="1" style="stop-color:#D2D1CD"/>
			</linearGradient>
			<path class="st20" d="M417.2,120.3h714c0,0,131,375.5-15.3,530.6s-428,229.3-652.8,0C338.6,500.2,417.2,120.3,417.2,120.3z"/>
			
				<linearGradient id="SVGID_10_" gradientUnits="userSpaceOnUse" x1="775.876" y1="-74.8599" x2="795.616" y2="629.7802" gradientTransform="matrix(1 0 0 -1 0 900)">
				<stop  offset="0" style="stop-color:#E8E4DE"/>
				<stop  offset="0.46" style="stop-color:#F9F6F4"/>
				<stop  offset="0.65" style="stop-color:#F0EDEB"/>
				<stop  offset="0.94" style="stop-color:#D8D6D3"/>
				<stop  offset="1" style="stop-color:#D2D1CD"/>
			</linearGradient>
			<ellipse class="st21" cx="788.9" cy="510.3" rx="352.5" ry="251.3"/>
			<polygon class="st16" points="459.6,-45 484.8,88.4 1090.7,87.3 1113.2,-45 			"/>
			<polygon class="st22" points="459.6,-45 484.8,78.5 1090.1,78.5 1113.2,-45 			"/>
			<path class="st23" d="M507.7-45l12.8,90.8L513,58.3L499.3-45H507.7z"/>
			<path class="st24" d="M507.7-45l12.8,90.8h532.1l11-90.8H507.7z"/>
			<path class="st25" d="M520.4,45.8h532.1c3.7,4.2,7.3,8.3,11,12.5H513L520.4,45.8z"/>
			<path class="st26" d="M516.8,20.8c35.5-11.4,71.1-22.8,106.7-34c34-10.7,68-21.3,102-31.8h117.4L594,45.8h-73.6L516.8,20.8z"/>
			<path class="st27" d="M811.2,45.8l251.9-96.2l-4.4,45.4L931,45.8H811.2z"/>
			<polygon class="st23" points="1063.5,58.3 1079.8,-45 1063.5,-45 1052.5,45.8 			"/>
			<circle class="st28" cx="789.2" cy="479.5" r="59.9"/>
			<circle class="st29" cx="788.9" cy="479.5" r="55.1"/>
			<circle class="st30" cx="764.5" cy="458.3" r="8.2"/>
			<circle class="st30" cx="813.7" cy="454.6" r="8.2"/>
			<circle class="st30" cx="788.2" cy="479.5" r="8.9"/>
			<circle class="st30" cx="762.9" cy="499.2" r="8.6"/>
			<circle class="st30" cx="816.3" cy="499.2" r="8.2"/>
			<ellipse class="st31" cx="793.7" cy="192" rx="59.3" ry="64.9"/>
			<path class="st32" d="M734.9,183.1c11.9-86.2,137.7-71.3,114.4,31.6C849.3,214.7,811.2,147.2,734.9,183.1z"/>
			<path class="st33" d="M827.2,195.2c0.8-9.4-3.7-18.2-4.8-27.5c-5.7-5.6-14.6-11.8-26.6-12.7c-1.8-0.1-21.3-1.4-32.1,11.2
				c0.6,0.9,0.7,2.2,0.1,3.1c-2.6,4.5-2,10-2.8,15c0.2,11.4,1.7,22.8-0.1,34.1c-0.1,0.5-0.3,0.9-0.5,1.3c5.1,97.7,8.9,133.9,6.5,166
				c-2.5,32.6,48.2,35.5,53.2,9.5c0,0,7.3-138.9,9.3-197.2C827.9,197.7,827,196.5,827.2,195.2z"/>
			<path class="st34" d="M776.2,344.9c-12.5-54.4-18.8-138.4-16.3-165.2c3.1-37.9,61.4-38.6,67.1,0c5,37.9-9.4,147.3-14.4,165.2
				C804.4,357.3,780.6,359.3,776.2,344.9z"/>
			<path class="st35" d="M790.3,412.7c-4.6-0.6-11.4-2.3-17.1-7.5c-8.1-7.3-9.2-17.6-10.3-32.1c-3.8-50.8,0.8-46.2-0.9-82.5
				c-0.4-7.8-1.3-23.9,4.3-25.9c1.1-0.4,1.4,0.1,6,1.2l17.3,2.6l0,0L790.3,412.7z"/>
			<path class="st33" d="M794.1,355c0,0-21.6,12.7-24.6-45.3c-7-56.7-11.3-112.7-9.6-130s22-30.8,33.8-28.6
				C791.3,168.4,794.1,355,794.1,355z"/>
		</g>
	</g>
</g>
</svg>
