<svg xmlns="http://www.w3.org/2000/svg" viewBox="0 0 462 419"><defs><style>.cls-1,.cls-2{fill:#754d25;}.cls-1{opacity:0.44;}.cls-2{opacity:0.17;}</style></defs><g id="Layer_20" data-name="Layer 20"><path class="cls-1" d="M396.3,254.17c3.1,2,6.78,2.44,10.34,2.32a41.89,41.89,0,0,0,26.86-11.63,27,27,0,0,0,6.47-8.54,16.57,16.57,0,0,0,1.12-11.12,13.36,13.36,0,0,0-7.82-8.46c-3.44-1.43-7.16-1.6-10.81-1.77l-14.22-.62c2.08-5.68,6.77-9.76,8.26-15.69,2-7.88-2.75-16.32-9-19.58s-13.45-2.49-20.19-.94c-4.45,1-9,2.4-12.76,5.41a18.19,18.19,0,0,0-6.95,13.34c-.07,2.77.59,5.57.06,8.28a10.74,10.74,0,0,1-6.36,7.49c-2.91,1.27-6,1.45-9.1,1.92A35.05,35.05,0,0,0,334.81,222c-2.81,2.35-5.51,6.33-4.34,10.11a8.74,8.74,0,0,0,2.62,3.74,24.41,24.41,0,0,0,10,5.69c3.42.94,7.68,1.67,8.85,5.62.58,2,.15,4.14.12,6.24a16.13,16.13,0,0,0,11.14,15.42c4,1.14,9.17-.15,10.57-4.82,1.12-3.72-.67-8.1.82-11.64a6,6,0,0,1,6.81-3.51c2.59.55,4.79,2.53,6.67,4.7,1.14,1.3,2.26,2.74,3.78,3.29a2.92,2.92,0,0,0,3.86-2.12"/><path class="cls-1" d="M347.89,409.77a19.89,19.89,0,0,0,5.94,5.87,9.34,9.34,0,0,0,7.87,1c2.94-1.1,5.06-4,6.14-7.16s2.92-.48,3.1-3.81c.23-4.33,4.66,1.51,4.89-2.81,4,1.88,1-10.08,5.13-8.74,5.56,1.78,11.63-2.56,14.05-8.26s2-12.27,1-18.42c-.64-4.06-1.54-8.16-3.61-11.62s-5.5-6.18-9.33-6.29c-2-.06-6.6,2.67-5.87.08.67-2.39,1.92-6.55-5.2-5.77-2.1.22-.92-5.51-1.2-8.29-.55-5.62-4.91-1.91-7.85-6.57-1.61-2.55-1.51-14.29-4.22-13.21a6.71,6.71,0,0,0-2.69,2.4,25.11,25.11,0,0,0-4.22,9.17"/><path class="cls-1" d="M285.49,116.38a130.59,130.59,0,0,0,21.14,32.78,5.11,5.11,0,0,0,2.12,1.56c1.47.41,1.39-1.18,1.25-2.61v0c-.25-2.69,2.13-2.76,4.27-.22,2.33,2.77,4.59,5.82,7.13,8,3.25,2.73,6.62,3.65,8.65,2.36,1.05-.66,1.76-2,1.47-4a18.43,18.43,0,0,0-2.12-5.5c-1.13-2.14-2.37-4.25-3.7-6.29a11.44,11.44,0,0,1-1.9-3.77c-.22-1.25.38-1.9.33-3.05-.06-1.32-1-3-1.26-4.49-.2-1-.12-1.79-.28-2.73a20,20,0,0,0-2.22-5.41l-6.89-13.19a77.26,77.26,0,0,0-6.87-11.46A40.53,40.53,0,0,0,296,88.74a20,20,0,0,0-5.84-2.7c-3.32-.73-4.52,1.4-6.55,3.23a6.49,6.49,0,0,0-2.15,3,19.87,19.87,0,0,0-.45,7,43.11,43.11,0,0,0,2.13,8.78,72.54,72.54,0,0,0,3.46,8.88c2.33,4.78,3.78,8.32,5.63,13"/><path class="cls-1" d="M333.05,38.73a102.69,102.69,0,0,0,.59,32.79,4.13,4.13,0,0,0,.88,2.06c.92.94,1.61-.23,2.18-1.31l0,0c1.08-2,2.93-1,3.36,1.75.47,3,.74,6.19,1.67,8.85,1.18,3.39,3.31,5.54,5.47,5.52a3.38,3.38,0,0,0,3-2.2,14.68,14.68,0,0,0,1-4.87,59.67,59.67,0,0,0,.16-6.13,9.14,9.14,0,0,1,.34-3.54c.42-1,1.19-1.19,1.7-2s.7-2.59,1.17-3.77c.3-.78.74-1.33,1.07-2.08a15.86,15.86,0,0,0,.88-4.84l1-12.48a61.14,61.14,0,0,0,.19-11.23,32.09,32.09,0,0,0-3.61-11.54,16.59,16.59,0,0,0-3.17-4.53c-2.18-2-4.1-1-6.52-.6a6.15,6.15,0,0,0-3.07,1.21,16.62,16.62,0,0,0-3.68,4.83,35,35,0,0,0-2.54,7.22,55.22,55.22,0,0,0-1.56,7.88c-.5,4.44-1.07,7.61-1.88,11.78"/><path class="cls-1" d="M388.09,31.65a143.29,143.29,0,0,0,.81,45.53A5.78,5.78,0,0,0,390.11,80c1.28,1.31,2.23-.32,3-1.81l0,0c1.49-2.82,4-1.42,4.64,2.41.64,4.19,1,8.61,2.3,12.29,1.63,4.71,4.58,7.69,7.56,7.67a4.68,4.68,0,0,0,4.17-3.05,21,21,0,0,0,1.36-6.77,83.16,83.16,0,0,0,.22-8.51,13,13,0,0,1,.46-4.92c.59-1.37,1.65-1.64,2.35-2.81.8-1.35,1-3.6,1.61-5.23.43-1.08,1-1.85,1.49-2.89a22.22,22.22,0,0,0,1.21-6.72l1.37-17.33a84.78,84.78,0,0,0,.27-15.6,45,45,0,0,0-5-16,23,23,0,0,0-4.38-6.28c-3-2.77-6.53-2.78-9.87-2.22a8.69,8.69,0,0,0-4.33,1.7c-1.68,1.36-3.05,3.77-4.31,6.27-1.85,3.69-2.11,7.6-3.33,11.82a79.32,79.32,0,0,0-2.16,10.94c-.68,6.17-1.47,10.57-2.59,16.36"/><path class="cls-2" d="M333.42,177c2.71-3,4.05-7,6-10.65s4.88-7.12,8.87-7.64c8.87-1.15,15.33,12.77,23.89,10.11,5.33-1.66,6.77-8.45,9.14-13.62,2.77-6,8.24-11,14.7-12s13.59,2.77,15.7,9.08c.58,1.77.8,3.68,1.68,5.3,2.44,4.5,8.74,4.84,13.53,3.28s9.32-4.45,14.35-4.43a13.47,13.47,0,0,1,12.39,9.2c2.4,7.44-1.85,15.7-.11,23.33,1.59,7,8.08,13.45,5.71,20.23-.66,1.88-2,3.52-2.3,5.5-.46,2.91,1.34,5.63,2.4,8.38a15.94,15.94,0,0,1-1.42,14.37,13,13,0,0,1-12.76,5.62c-2.93-.55-5.76-2.23-8.7-1.77-4.51.71-6.74,5.78-9,9.84-2.05,3.7-4.81,7.13-8.48,9.13s-8.36,2.35-11.93.18c-5.67-3.46-6.53-11.32-7.23-18s-2.92-14.7-9.3-16.46-12.24,4.07-17,8.88-12.46,9.19-17.61,4.83c-6.15-5.21-1.79-17.67-8.52-22.07-4.33-2.82-10.11,0-15.15-1a10.59,10.59,0,0,1-8-8.51,10.77,10.77,0,0,1,4.93-10.7c2.5-1.48,6-2.42,6.45-5.35s-2.64-4.78-4.65-6.8-2.15-6.79.67-6.65"/><path class="cls-1" d="M123.65,227.06c-3.2-1.87-6.9-2.12-10.45-1.82a42,42,0,0,0-26.27,12.92,27.12,27.12,0,0,0-6,8.84,16.55,16.55,0,0,0-.58,11.16,13.34,13.34,0,0,0,8.22,8.07c3.5,1.27,7.23,1.26,10.89,1.24l14.23-.06c-1.8,5.77-6.29,10.07-7.49,16.07-1.6,8,3.53,16.17,9.92,19.12s13.55,1.84,20.21,0c4.4-1.23,8.83-2.83,12.48-6a18.12,18.12,0,0,0,6.29-13.65c-.06-2.77-.86-5.54-.45-8.27a10.72,10.72,0,0,1,6-7.79c2.84-1.41,6-1.74,9-2.36a35.12,35.12,0,0,0,17-8.3c2.69-2.48,5.19-6.58,3.84-10.31a8.78,8.78,0,0,0-2.79-3.6,24.32,24.32,0,0,0-10.3-5.2c-3.46-.77-7.75-1.29-9.11-5.18-.68-1.94-.35-4.13-.42-6.23A16.13,16.13,0,0,0,156,210.78c-4.05-.95-9.16.59-10.33,5.32-.93,3.78,1.06,8.07-.25,11.67a6,6,0,0,1-6.64,3.84c-2.61-.43-4.9-2.3-6.89-4.37-1.2-1.25-2.39-2.63-3.93-3.11a2.94,2.94,0,0,0-3.76,2.31"/><path class="cls-1" d="M82.31,58.6A11.5,11.5,0,0,0,78,56.79a6.66,6.66,0,0,0-4.69.82,5.91,5.91,0,0,0-2.5,4.4,14.89,14.89,0,0,0,.61,4.91l1.49,6.26c-2.58-.23-4.82-1.79-7.43-1.74-3.47.06-6.34,3.12-6.91,6.21s.63,6.15,2.09,8.9a14.33,14.33,0,0,0,3.78,4.91,7.53,7.53,0,0,0,6.31,1.45,19.63,19.63,0,0,1,3.37-1A4.6,4.6,0,0,1,78,93.8a17,17,0,0,1,1.9,3.73,16.36,16.36,0,0,0,5.18,6.7c1.31.94,3.27,1.65,4.67.69A3.68,3.68,0,0,0,91,103.34a11.28,11.28,0,0,0,1.09-5"/><path class="cls-1" d="M159.12,129.1a11.48,11.48,0,0,0,3,3.51,6.64,6.64,0,0,0,4.57,1.32,5.9,5.9,0,0,0,4.18-2.85,15.22,15.22,0,0,0,1.62-4.68l1.41-6.28c2.21,1.34,3.54,3.73,5.9,4.83,3.15,1.46,7.07,0,8.94-2.55s2.13-5.79,2-8.91a14.38,14.38,0,0,0-1.24-6.07,7.56,7.56,0,0,0-5-4.08,19,19,0,0,1-3.48-.58,4.61,4.61,0,0,1-2.62-3.38,16.79,16.79,0,0,1-.07-4.19,16.33,16.33,0,0,0-1.72-8.3c-.75-1.42-2.2-2.91-3.88-2.67a3.76,3.76,0,0,0-1.78.89,11.26,11.26,0,0,0-3.2,4"/><path class="cls-1" d="M2.82,177.66c-2.8-3.86-.35-7.44,2.51-12.2a6.48,6.48,0,0,1,1.76-2.06c2.5-1.8,5.92-.78,7.91.75,5,3.85,6.83,9.93,11.24,14.25a2.35,2.35,0,0,0,1.3.76c1.31.17,2.51-1.08,3.63-1.93,3.45-2.6,8.71-1.79,11,.74s2.33,6.17,2.2,9.62a6.75,6.75,0,0,0,.34,3c.85,1.88,3.38,2.63,5.58,3.46s4.45,2.2,4.21,4.36c-.19,1.68-1.92,3.29-3.86,4.18a22.08,22.08,0,0,1-6.12,1.53C47.42,210.56,49.12,218,46,225.3a14.35,14.35,0,0,1-4.09,5.63,9.75,9.75,0,0,1-7,2.26c-3.32-.48-4.72-3.33-5.68-5.91-3.73-10-6.74-20.59-14-28.83-2.85-3.23-2.55-8.07-5.24-11.4s-8.38-5.32-7.78-9.73"/><path class="cls-1" d="M116.25,24.27c-.09-6.1,2.46-9,5.65-13a4.39,4.39,0,0,1,1.65-1.46c2-.74,11.16-3.24,11.26-.19.39,12.2,8.51,3.41,9.6,9.09a4.69,4.69,0,0,0,.41,1.61c.62.92,2.37,9,3.26,8.61,2.73-1.16,1.71,13.94,2,18.19s-1.33,13.35-4.95,11.5c-5.54-2.86-9.4-.94-8.9,3.6.78,7.19-1.86,5.43-1,7.62s1.54,5.05.65,7.46a3.9,3.9,0,0,1-3.5,2.81,7.47,7.47,0,0,1-3.75-1.59c-.75,9.19-2.49,18.84-6.75,25.77a11.33,11.33,0,0,1-4.13,4.38,3.35,3.35,0,0,1-4.49-1.22c-1.56-2.39-1.28-6.53-.86-10.11,1.62-13.9,3.8-28,2.94-41.71-.33-5.39,1.55-10.92,1.32-16.34s-2.49-10.9-.6-15.78"/><path class="cls-2" d="M84.58,178.58c2.71-3,4-7,6-10.65s4.89-7.12,8.87-7.63c8.87-1.15,15.33,12.76,23.89,10.1,5.34-1.66,6.77-8.44,9.14-13.61,2.77-6,8.25-11,14.7-12s13.59,2.77,15.7,9.09c.58,1.76.8,3.67,1.68,5.3,2.45,4.49,8.74,4.84,13.53,3.28s9.33-4.45,14.35-4.44a13.48,13.48,0,0,1,12.39,9.2c2.4,7.45-1.85,15.7-.11,23.34,1.6,7,8.08,13.45,5.71,20.22-.66,1.89-2,3.53-2.29,5.5-.47,2.92,1.33,5.64,2.39,8.39a15.92,15.92,0,0,1-1.42,14.36,13,13,0,0,1-12.76,5.63c-2.93-.55-5.75-2.23-8.7-1.77-4.51.71-6.74,5.78-9,9.84-2,3.7-4.81,7.12-8.48,9.12s-8.36,2.36-11.93.18c-5.67-3.46-6.53-11.31-7.22-18s-2.93-14.7-9.31-16.45-12.24,4.07-17,8.88-12.45,9.18-17.61,4.82c-6.15-5.21-1.78-17.67-8.51-22.06-4.34-2.83-10.11,0-15.15-1a10.57,10.57,0,0,1-8-8.5A10.75,10.75,0,0,1,80.31,199c2.5-1.49,6-2.43,6.45-5.36s-2.64-4.77-4.65-6.8-2.15-6.78.67-6.64"/></g></svg>