<svg xmlns="http://www.w3.org/2000/svg" xmlns:xlink="http://www.w3.org/1999/xlink" width="1600" height="900" viewBox="0 0 1600 900">
  <defs>
    <style>
      .a85cc2e8-d880-4c9b-9280-6fdfe09ac1fb, .a9052325-ac8b-4337-8380-f001889e0243 {
        fill: none;
      }

      .f417489d-c4b7-4857-9b03-78340e8e22c1 {
        clip-path: url(#b24d2ebb-7ece-4125-8e50-b3ee0102130c);
      }

      .f971f458-5756-4b31-beeb-712627a7ae13 {
        fill: #f4f4bd;
      }

      .bcfffafc-cafe-492f-b391-13f8a9507a68 {
        fill: #d1cc8f;
      }

      .bcfffafc-cafe-492f-b391-13f8a9507a68, .e8cdaa72-107e-4612-9ab4-e10bf94cea85, .ed0ddc59-f7dc-46f8-b886-ecc8152e7cdf {
        opacity: 0.6;
      }

      .a9052325-ac8b-4337-8380-f001889e0243 {
        stroke: #9b9b9b;
        stroke-miterlimit: 10;
      }

      .be133ccd-c52f-451c-a2d9-6ec2754fc0b9 {
        clip-path: url(#b8629e0f-8e6d-4078-be73-1681ef584ed1);
      }

      .f04b0852-47b8-4f70-9407-083caa9e84b8 {
        fill: #ff8555;
      }

      .ed0ddc59-f7dc-46f8-b886-ecc8152e7cdf {
        fill: #edbda9;
      }

      .e8cdaa72-107e-4612-9ab4-e10bf94cea85 {
        fill: #cca28f;
      }
    </style>
    <clipPath id="b24d2ebb-7ece-4125-8e50-b3ee0102130c">
      <rect class="a85cc2e8-d880-4c9b-9280-6fdfe09ac1fb" x="-1620" width="1600" height="900"/>
    </clipPath>
    <clipPath id="b8629e0f-8e6d-4078-be73-1681ef584ed1">
      <rect class="a85cc2e8-d880-4c9b-9280-6fdfe09ac1fb" width="1600" height="900"/>
    </clipPath>
  </defs>
  <g id="b553d45a-0fac-4ef3-a555-a43363af2b75" data-name="Layer 10">
    <g class="f417489d-c4b7-4857-9b03-78340e8e22c1">
      <g>
        <rect class="f971f458-5756-4b31-beeb-712627a7ae13" x="-1689.35" y="658.17" width="1817.25" height="431.48"/>
        <g>
          <path class="bcfffafc-cafe-492f-b391-13f8a9507a68" d="M-198.5,797.72-43,880.28c1.9,1,64.54,0,64.54,0V797.72Z"/>
          <path class="bcfffafc-cafe-492f-b391-13f8a9507a68" d="M-191.35,690.61H21.5V656.72l-284.58.79s14.24,12.64,15,13.59S-191.35,690.61-191.35,690.61Z"/>
          <polygon class="bcfffafc-cafe-492f-b391-13f8a9507a68" points="-81.57 731.99 21.5 770.83 21.5 732.47 -81.57 731.99"/>
        </g>
      </g>
      <g>
        <line class="a9052325-ac8b-4337-8380-f001889e0243" x1="-456.27" y1="660.37" x2="127.9" y2="971.25"/>
        <line class="a9052325-ac8b-4337-8380-f001889e0243" x1="-271.59" y1="660.37" x2="136.36" y2="814.12"/>
        <line class="a9052325-ac8b-4337-8380-f001889e0243" x1="-1731" y1="794.95" x2="227.29" y2="797.72"/>
        <line class="a9052325-ac8b-4337-8380-f001889e0243" x1="-1771.44" y1="898.29" x2="189.23" y2="898.29"/>
        <line class="a9052325-ac8b-4337-8380-f001889e0243" x1="-1710.91" y1="732.47" x2="208.26" y2="732.47"/>
        <line class="a9052325-ac8b-4337-8380-f001889e0243" x1="-1710.91" y1="685.69" x2="255.84" y2="692.22"/>
        <line class="a9052325-ac8b-4337-8380-f001889e0243" x1="-1710.91" y1="655.03" x2="255.84" y2="661.55"/>
      </g>
    </g>
    <g class="be133ccd-c52f-451c-a2d9-6ec2754fc0b9">
      <rect class="f04b0852-47b8-4f70-9407-083caa9e84b8" y="-2" width="1600" height="900"/>
      <g>
        <rect class="ed0ddc59-f7dc-46f8-b886-ecc8152e7cdf" x="-69.35" y="658.17" width="1817.25" height="431.48"/>
        <g>
          <path class="e8cdaa72-107e-4612-9ab4-e10bf94cea85" d="M573.07,796.33s198.48.14,198.46,0,11.73,83.95,11.73,83.95H558.82Z"/>
          <polygon class="e8cdaa72-107e-4612-9ab4-e10bf94cea85" points="771.52 796.2 975.24 796.48 941.28 732.47 762.61 732.47 771.52 796.2"/>
          <polygon class="e8cdaa72-107e-4612-9ab4-e10bf94cea85" points="918.2 688.96 940.45 732.25 1125.98 732.25 1083.14 689.63 918.2 688.96"/>
          <polygon class="e8cdaa72-107e-4612-9ab4-e10bf94cea85" points="1218.5 688.96 1299.96 732.25 1536.25 732.25 1426.8 689.63 1218.5 688.96"/>
          <polygon class="e8cdaa72-107e-4612-9ab4-e10bf94cea85" points="975.24 796.33 1019.7 880.28 1271.45 880.28 1188.69 796.48 975.24 796.33"/>
          <polygon class="e8cdaa72-107e-4612-9ab4-e10bf94cea85" points="1188.54 796.33 1421.5 797.72 1297.22 732.25 1125.72 731.99 1188.54 796.33"/>
          <path class="e8cdaa72-107e-4612-9ab4-e10bf94cea85" d="M1421.5,797.72,1577,880.28c1.9,1,64.54,0,64.54,0V797.72Z"/>
          <path class="e8cdaa72-107e-4612-9ab4-e10bf94cea85" d="M1428.65,690.61H1641.5V656.72l-284.58.79s14.24,12.64,15,13.59S1428.65,690.61,1428.65,690.61Z"/>
          <polygon class="e8cdaa72-107e-4612-9ab4-e10bf94cea85" points="900.27 656.72 919.08 690.61 756.35 687.62 752.54 657.11 900.27 656.72"/>
          <polygon class="e8cdaa72-107e-4612-9ab4-e10bf94cea85" points="1158.27 656.72 1219.38 690.61 1082.6 689.72 1053.08 658.76 1158.27 656.72"/>
          <polygon class="e8cdaa72-107e-4612-9ab4-e10bf94cea85" points="586.75 732.47 404.88 729.6 362.96 794.95 574.61 796.33 586.75 732.47"/>
          <polygon class="e8cdaa72-107e-4612-9ab4-e10bf94cea85" points="586.75 732.25 762.61 732.25 756.35 687.62 595.16 687.97 586.75 732.25"/>
          <polygon class="e8cdaa72-107e-4612-9ab4-e10bf94cea85" points="216.66 732.25 403.1 732.25 432.78 687.62 261.02 687.97 216.66 732.25"/>
          <polygon class="e8cdaa72-107e-4612-9ab4-e10bf94cea85" points="361.7 794.95 307.32 880.28 60.54 880.28 150.1 794.64 361.7 794.95"/>
          <polyline class="e8cdaa72-107e-4612-9ab4-e10bf94cea85" points="-69.35 794.64 149.78 794.95 215.08 733.3 42.7 733.3 -66.72 796.33"/>
          <polygon class="e8cdaa72-107e-4612-9ab4-e10bf94cea85" points="-50.33 733.3 43.25 733.83 128.36 686.42 -50.33 686.42 -50.33 733.3"/>
          <polyline class="e8cdaa72-107e-4612-9ab4-e10bf94cea85" points="128.36 686.42 262.26 687.39 295.15 654.77 178.07 657.17 128.36 688.96"/>
          <polygon class="e8cdaa72-107e-4612-9ab4-e10bf94cea85" points="600.37 656.72 595.16 687.97 434.49 687.31 452.99 654 600.37 656.72"/>
          <polygon class="e8cdaa72-107e-4612-9ab4-e10bf94cea85" points="1538.43 731.99 1641.5 770.83 1641.5 732.47 1538.43 731.99"/>
        </g>
      </g>
      <g>
        <line class="a9052325-ac8b-4337-8380-f001889e0243" x1="175.95" y1="660.37" x2="-121.57" y2="823.22"/>
        <line class="a9052325-ac8b-4337-8380-f001889e0243" x1="290.51" y1="660.37" x2="-3.63" y2="941.64"/>
        <line class="a9052325-ac8b-4337-8380-f001889e0243" x1="450.71" y1="660.37" x2="241.11" y2="981.82"/>
        <line class="a9052325-ac8b-4337-8380-f001889e0243" x1="534.85" y1="1007.2" x2="600.37" y2="660.37"/>
        <line class="a9052325-ac8b-4337-8380-f001889e0243" x1="752.54" y1="660.37" x2="804.84" y2="1034.69"/>
        <line class="a9052325-ac8b-4337-8380-f001889e0243" x1="903.04" y1="660.37" x2="1087.03" y2="1007.2"/>
        <line class="a9052325-ac8b-4337-8380-f001889e0243" x1="1054.25" y1="660.37" x2="1380.1" y2="990.28"/>
        <line class="a9052325-ac8b-4337-8380-f001889e0243" x1="1163.73" y1="660.37" x2="1747.9" y2="971.25"/>
        <line class="a9052325-ac8b-4337-8380-f001889e0243" x1="1348.41" y1="660.37" x2="1756.36" y2="814.12"/>
        <line class="a9052325-ac8b-4337-8380-f001889e0243" x1="-111" y1="794.95" x2="1847.29" y2="797.72"/>
        <line class="a9052325-ac8b-4337-8380-f001889e0243" x1="-151.44" y1="898.29" x2="1809.23" y2="898.29"/>
        <line class="a9052325-ac8b-4337-8380-f001889e0243" x1="-90.91" y1="732.47" x2="1828.26" y2="732.47"/>
        <line class="a9052325-ac8b-4337-8380-f001889e0243" x1="-90.91" y1="685.69" x2="1875.84" y2="692.22"/>
        <line class="a9052325-ac8b-4337-8380-f001889e0243" x1="-90.91" y1="655.03" x2="1875.84" y2="661.55"/>
      </g>
    </g>
  </g>
</svg>
