<svg xmlns="http://www.w3.org/2000/svg" xmlns:xlink="http://www.w3.org/1999/xlink" width="1600" height="900" viewBox="0 0 1600 900">
  <defs>
    <style>
      .a7c839ae-23a2-4da6-ba81-1d9ce1f19511, .b4717e92-8f96-40af-8013-4584b7a40f8c, .e038e6d0-3cbb-4cf9-9178-88079e4d1e30 {
        fill: none;
      }

      .e2b4e121-318a-49cd-850c-db7e246220d3 {
        clip-path: url(#b5ac2e89-2f79-479d-a052-65ead549782a);
      }

      .bfd480f5-6c49-40bd-85f6-3f2ab796e9fd {
        opacity: 0.82;
      }

      .fc669b8a-9e68-45b1-b7d9-2a920f09136c {
        clip-path: url(#af4b9abe-144a-4fb1-b00a-4fb35025fc3d);
      }

      .bdc5fba5-e14f-4f03-8a08-865877dddeaa {
        fill: #a8dbe2;
        opacity: 0.27;
      }

      .f7f16962-c0c4-4360-ae7c-cb1815898d2b {
        opacity: 0.37;
      }

      .b4717e92-8f96-40af-8013-4584b7a40f8c {
        stroke: #fff;
      }

      .b4717e92-8f96-40af-8013-4584b7a40f8c, .e038e6d0-3cbb-4cf9-9178-88079e4d1e30 {
        stroke-miterlimit: 10;
      }

      .b424a442-64fb-4ba7-bb8f-d82e0c6ab7b6 {
        clip-path: url(#ba519523-8230-4240-88e9-ec3f0271dc35);
      }

      .bc108742-3780-4bfe-b5b7-9a85067ae5a1 {
        fill: #fff257;
      }

      .aacb8d2d-984f-45f2-9eea-1db25f4a6a8b {
        fill: #f4f4bd;
      }

      .fce50462-6de2-42a1-ab8a-d399e71419f7 {
        fill: #d1cc8f;
      }

      .b4bcc3df-d7f5-4cbf-b818-af1553cf0503, .ece6aee2-23d2-4f72-a819-8bed9115df8e, .fce50462-6de2-42a1-ab8a-d399e71419f7 {
        opacity: 0.6;
      }

      .e038e6d0-3cbb-4cf9-9178-88079e4d1e30 {
        stroke: #9b9b9b;
      }

      .b877b45b-0e53-4ae3-b1ef-20693377207e {
        fill: #fffc94;
      }

      .b997919a-77e3-42bc-a46a-c60e52f97667 {
        clip-path: url(#eed56ced-aaf9-482d-acf5-6856d1a91249);
      }

      .b4bcc3df-d7f5-4cbf-b818-af1553cf0503 {
        fill: #edbda9;
      }

      .ece6aee2-23d2-4f72-a819-8bed9115df8e {
        fill: #cca28f;
      }
    </style>
    <clipPath id="b5ac2e89-2f79-479d-a052-65ead549782a">
      <rect class="a7c839ae-23a2-4da6-ba81-1d9ce1f19511" x="-1620" y="-920" width="1600" height="900"/>
    </clipPath>
    <clipPath id="af4b9abe-144a-4fb1-b00a-4fb35025fc3d">
      <rect class="a7c839ae-23a2-4da6-ba81-1d9ce1f19511" y="-920" width="1600" height="900"/>
    </clipPath>
    <clipPath id="ba519523-8230-4240-88e9-ec3f0271dc35">
      <rect class="a7c839ae-23a2-4da6-ba81-1d9ce1f19511" width="1600" height="900"/>
    </clipPath>
    <clipPath id="eed56ced-aaf9-482d-acf5-6856d1a91249">
      <rect class="a7c839ae-23a2-4da6-ba81-1d9ce1f19511" x="1620" width="1600" height="900"/>
    </clipPath>
  </defs>
  <g id="ab4faf71-82e4-4696-8f7f-05c564238093" data-name="Layer 5">
    <g class="fc669b8a-9e68-45b1-b7d9-2a920f09136c">
      <g>
        <g>
          <path class="bdc5fba5-e14f-4f03-8a08-865877dddeaa" d="M174.31-238.38,150.94,17.78H542.11L562.6-239.28Z"/>
          <polygon class="bdc5fba5-e14f-4f03-8a08-865877dddeaa" points="937.28 -238.37 937.28 17.78 1329.97 17.78 1312.45 -240.32 937.28 -238.37"/>
        </g>
        <g class="f7f16962-c0c4-4360-ae7c-cb1815898d2b">
          <line class="b4717e92-8f96-40af-8013-4584b7a40f8c" x1="249.98" y1="-1217.95" x2="131.85" y2="256"/>
          <line class="b4717e92-8f96-40af-8013-4584b7a40f8c" x1="605.69" y1="-1184.92" x2="533.35" y2="183.65"/>
          <line class="b4717e92-8f96-40af-8013-4584b7a40f8c" x1="913.17" y1="-1241.57" x2="937.28" y2="183.65"/>
          <line class="b4717e92-8f96-40af-8013-4584b7a40f8c" x1="1246.12" y1="-1217.95" x2="1341.22" y2="183.65"/>
        </g>
      </g>
    </g>
  </g>
  <g id="f7e67dc9-5cc4-486f-9c1a-c3c72f39f514" data-name="Layer 10">
    <g class="b424a442-64fb-4ba7-bb8f-d82e0c6ab7b6">
      <rect class="bc108742-3780-4bfe-b5b7-9a85067ae5a1" y="-2" width="1600" height="900"/>
      <g>
        <rect class="aacb8d2d-984f-45f2-9eea-1db25f4a6a8b" x="-69.35" y="658.17" width="1817.25" height="431.48"/>
        <g>
          <path class="fce50462-6de2-42a1-ab8a-d399e71419f7" d="M573.07,796.33s198.48.14,198.46,0,11.73,83.95,11.73,83.95H558.82Z"/>
          <polygon class="fce50462-6de2-42a1-ab8a-d399e71419f7" points="771.52 796.2 975.24 796.48 941.28 732.47 762.61 732.47 771.52 796.2"/>
          <polygon class="fce50462-6de2-42a1-ab8a-d399e71419f7" points="918.2 688.96 940.45 732.25 1125.98 732.25 1083.14 689.63 918.2 688.96"/>
          <polygon class="fce50462-6de2-42a1-ab8a-d399e71419f7" points="1218.5 688.96 1299.96 732.25 1536.25 732.25 1426.8 689.63 1218.5 688.96"/>
          <polygon class="fce50462-6de2-42a1-ab8a-d399e71419f7" points="975.24 796.33 1019.7 880.28 1271.45 880.28 1188.69 796.48 975.24 796.33"/>
          <polygon class="fce50462-6de2-42a1-ab8a-d399e71419f7" points="1188.54 796.33 1421.5 797.72 1297.22 732.25 1125.72 731.99 1188.54 796.33"/>
          <path class="fce50462-6de2-42a1-ab8a-d399e71419f7" d="M1421.5,797.72,1577,880.28c1.9,1,64.54,0,64.54,0V797.72Z"/>
          <path class="fce50462-6de2-42a1-ab8a-d399e71419f7" d="M1428.65,690.61H1641.5V656.72l-284.58.79s14.24,12.64,15,13.59S1428.65,690.61,1428.65,690.61Z"/>
          <polygon class="fce50462-6de2-42a1-ab8a-d399e71419f7" points="900.27 656.72 919.08 690.61 756.35 687.62 752.54 657.11 900.27 656.72"/>
          <polygon class="fce50462-6de2-42a1-ab8a-d399e71419f7" points="1161.88 658.84 1219.38 690.61 1083.16 689.56 1053.16 658.84 1161.88 658.84"/>
          <polygon class="fce50462-6de2-42a1-ab8a-d399e71419f7" points="586.75 732.47 404.88 729.6 362.96 794.95 574.61 796.33 586.75 732.47"/>
          <polygon class="fce50462-6de2-42a1-ab8a-d399e71419f7" points="586.75 732.25 762.61 732.25 756.35 687.62 595.16 687.97 586.75 732.25"/>
          <polygon class="fce50462-6de2-42a1-ab8a-d399e71419f7" points="216.66 732.25 403.1 732.25 432.78 687.62 261.02 687.97 216.66 732.25"/>
          <polygon class="fce50462-6de2-42a1-ab8a-d399e71419f7" points="361.7 794.95 307.32 880.28 60.54 880.28 150.1 794.64 361.7 794.95"/>
          <polyline class="fce50462-6de2-42a1-ab8a-d399e71419f7" points="-69.35 794.64 149.78 794.95 215.08 733.3 42.7 733.3 -66.72 796.33"/>
          <polygon class="fce50462-6de2-42a1-ab8a-d399e71419f7" points="-50.33 733.3 43.25 733.83 128.36 686.42 -50.33 686.42 -50.33 733.3"/>
          <polyline class="fce50462-6de2-42a1-ab8a-d399e71419f7" points="128.36 686.42 262.26 687.39 295.15 654.77 178.07 657.17 128.36 688.96"/>
          <polygon class="fce50462-6de2-42a1-ab8a-d399e71419f7" points="600.37 656.72 595.16 687.97 434.49 687.31 452.99 654 600.37 656.72"/>
          <polygon class="fce50462-6de2-42a1-ab8a-d399e71419f7" points="1538.43 731.99 1641.5 770.83 1641.5 732.47 1538.43 731.99"/>
        </g>
      </g>
      <g>
        <line class="e038e6d0-3cbb-4cf9-9178-88079e4d1e30" x1="175.95" y1="660.37" x2="-121.57" y2="823.22"/>
        <line class="e038e6d0-3cbb-4cf9-9178-88079e4d1e30" x1="290.51" y1="660.37" x2="-3.63" y2="941.64"/>
        <line class="e038e6d0-3cbb-4cf9-9178-88079e4d1e30" x1="450.71" y1="660.37" x2="241.11" y2="981.82"/>
        <line class="e038e6d0-3cbb-4cf9-9178-88079e4d1e30" x1="534.85" y1="1007.2" x2="600.37" y2="660.37"/>
        <line class="e038e6d0-3cbb-4cf9-9178-88079e4d1e30" x1="752.54" y1="660.37" x2="804.84" y2="1034.69"/>
        <line class="e038e6d0-3cbb-4cf9-9178-88079e4d1e30" x1="903.04" y1="660.37" x2="1087.03" y2="1007.2"/>
        <line class="e038e6d0-3cbb-4cf9-9178-88079e4d1e30" x1="1054.25" y1="660.37" x2="1380.1" y2="990.28"/>
        <line class="e038e6d0-3cbb-4cf9-9178-88079e4d1e30" x1="1163.73" y1="660.37" x2="1747.9" y2="971.25"/>
        <line class="e038e6d0-3cbb-4cf9-9178-88079e4d1e30" x1="1348.41" y1="660.37" x2="1756.36" y2="814.12"/>
        <line class="e038e6d0-3cbb-4cf9-9178-88079e4d1e30" x1="-111" y1="794.95" x2="1847.29" y2="797.72"/>
        <line class="e038e6d0-3cbb-4cf9-9178-88079e4d1e30" x1="-151.44" y1="898.29" x2="1809.23" y2="898.29"/>
        <line class="e038e6d0-3cbb-4cf9-9178-88079e4d1e30" x1="-90.91" y1="732.47" x2="1828.26" y2="732.47"/>
        <line class="e038e6d0-3cbb-4cf9-9178-88079e4d1e30" x1="-90.91" y1="685.69" x2="1875.84" y2="692.22"/>
        <line class="e038e6d0-3cbb-4cf9-9178-88079e4d1e30" x1="-90.91" y1="655.03" x2="1875.84" y2="661.55"/>
      </g>
      <path class="b877b45b-0e53-4ae3-b1ef-20693377207e" d="M1035.62,593.76l-579.84,37.9a73.36,73.36,0,0,1-78-68.41L361.47,313.43a73.35,73.35,0,0,1,68.41-78S565.3,208.09,705.8,195.08c150.81-14,293.34-7.81,293.34-7.81,50.74-3.9,85.92,38.26,88.57,78.69,0,0,17,87.35,18.76,113.85,2.35,36-2.44,136-2.44,136A73.34,73.34,0,0,1,1035.62,593.76Z"/>
    </g>
    <g class="b997919a-77e3-42bc-a46a-c60e52f97667">
      <g>
        <rect class="b4bcc3df-d7f5-4cbf-b818-af1553cf0503" x="1550.65" y="658.17" width="1817.25" height="431.48"/>
        <g>
          <polyline class="ece6aee2-23d2-4f72-a819-8bed9115df8e" points="1550.65 794.64 1769.78 794.95 1835.08 733.3 1662.7 733.3 1553.28 796.33"/>
          <polygon class="ece6aee2-23d2-4f72-a819-8bed9115df8e" points="1569.67 733.3 1663.25 733.83 1748.36 686.42 1569.67 686.42 1569.67 733.3"/>
        </g>
      </g>
      <g>
        <line class="e038e6d0-3cbb-4cf9-9178-88079e4d1e30" x1="1795.95" y1="660.37" x2="1498.43" y2="823.22"/>
        <line class="e038e6d0-3cbb-4cf9-9178-88079e4d1e30" x1="1509" y1="794.95" x2="3467.29" y2="797.72"/>
        <line class="e038e6d0-3cbb-4cf9-9178-88079e4d1e30" x1="1468.56" y1="898.29" x2="3429.23" y2="898.29"/>
        <line class="e038e6d0-3cbb-4cf9-9178-88079e4d1e30" x1="1529.09" y1="732.47" x2="3448.26" y2="732.47"/>
        <line class="e038e6d0-3cbb-4cf9-9178-88079e4d1e30" x1="1529.09" y1="685.69" x2="3495.84" y2="692.22"/>
        <line class="e038e6d0-3cbb-4cf9-9178-88079e4d1e30" x1="1529.09" y1="655.03" x2="3495.84" y2="661.55"/>
      </g>
    </g>
  </g>
</svg>
