<svg xmlns="http://www.w3.org/2000/svg" viewBox="0 0 181 94"><defs><style>.cls-1{fill:#b56528;stroke:#68441a;}.cls-1,.cls-2,.cls-3,.cls-5{stroke-miterlimit:10;stroke-width:2px;}.cls-2{fill:#f7e9cb;stroke:#8e6b3d;}.cls-3{fill:#f0e818;stroke:#8b4d21;}.cls-4{fill:#60381c;}.cls-5{fill:#f9bd13;stroke:#8b4a20;}.cls-6{fill:#754d24;opacity:0.44;}</style></defs><g id="Layer_40" data-name="Layer 40"><path class="cls-1" d="M6.51,30.18,4.18,64.59s8.29,12.43,28,13.47c0,0,16.58,5.45,15-47Z"/><path class="cls-2" d="M50.5,30.28a75.15,75.15,0,0,1-42.21,12A2.63,2.63,0,0,1,5,40.65L2.24,31.1a2.64,2.64,0,0,1,2-3.16,114.27,114.27,0,0,0,42.21-12,2.63,2.63,0,0,1,3.33,1.65l2.72,9.55A2.64,2.64,0,0,1,50.5,30.28Z"/><ellipse class="cls-3" cx="52.16" cy="45.13" rx="13.43" ry="6.24" transform="translate(-16.58 39.5) rotate(-36.19)"/><ellipse class="cls-3" cx="24.13" cy="51.61" rx="6.16" ry="14.18" transform="translate(-31.8 62.48) rotate(-75.94)"/><ellipse class="cls-4" cx="28.28" cy="52.68" rx="4.91" ry="9.49" transform="translate(-29.7 67.31) rotate(-75.94)"/><ellipse class="cls-4" cx="48.28" cy="48.68" rx="9.49" ry="4.91" transform="translate(-19.09 35.95) rotate(-34.54)"/><ellipse class="cls-3" cx="40.68" cy="55.23" rx="7" ry="6"/><path class="cls-5" d="M31.18,78.73c-5-26,41.5-41.5,44.5-5.5C75.68,73.23,61.18,90.73,31.18,78.73Z"/><path class="cls-2" d="M3.64,62.87s37,33.05,72,9.31c3.09-.09,3.09,13.28-1,14.31,0,0-27.76,16.45-72-11.31C.56,75.18.56,61.81,3.64,62.87Z"/><path class="cls-6" d="M68.13,90.45a8.35,8.35,0,0,0,1.6-2.74,5.49,5.49,0,0,0,.06-3.4,3.89,3.89,0,0,0-2.36-2.38,7.78,7.78,0,0,0-3-.29l-4,.14c.45-1.77,1.66-3.12,1.94-5a5.7,5.7,0,0,0-2.93-5.74c-1.81-.84-3.79-.44-5.62.18a8.42,8.42,0,0,0-3.41,1.94,5.75,5.75,0,0,0-1.62,4.21,16.43,16.43,0,0,1,.2,2.51,3.25,3.25,0,0,1-1.59,2.42,9.19,9.19,0,0,1-2.48.79,9.42,9.42,0,0,0-4.65,2.67,3.31,3.31,0,0,0-1,3.17,2.67,2.67,0,0,0,.81,1.07A6.61,6.61,0,0,0,43,91.55"/><path class="cls-1" d="M108.51,15l-2.33,33.21s8.29,12,28,13c0,0,16.58,5.26,15-45.37Z"/><path class="cls-2" d="M148.42,22.4A80.46,80.46,0,0,1,106,15.65,2.5,2.5,0,0,1,103.66,13l1.39-8.75a2.5,2.5,0,0,1,3-1.78,122.29,122.29,0,0,0,42.44,6.75,2.51,2.51,0,0,1,2.32,2.63l-1.39,8.75A2.51,2.51,0,0,1,148.42,22.4Z"/><ellipse class="cls-3" cx="154.16" cy="29.13" rx="13.43" ry="6.24" transform="translate(12.54 96.64) rotate(-36.19)"/><ellipse class="cls-3" cx="126.13" cy="35.61" rx="6.16" ry="14.18" transform="translate(60.94 149.31) rotate(-75.94)"/><ellipse class="cls-4" cx="130.28" cy="36.68" rx="4.91" ry="9.49" transform="translate(63.04 154.14) rotate(-75.94)"/><ellipse class="cls-4" cx="150.28" cy="32.68" rx="9.49" ry="4.91" transform="translate(7.96 90.96) rotate(-34.54)"/><ellipse class="cls-3" cx="142.68" cy="39.23" rx="7" ry="6"/><path class="cls-5" d="M132.18,62.73c-5-26,42.5-41.5,45.5-5.5C177.68,57.23,162.18,74.73,132.18,62.73Z"/><path class="cls-2" d="M105.64,47.26s37,32.15,72,9.06c3.09-.09,3.09,12.91-1,13.91,0,0-27.76,16-72-11C102.56,59.23,102.56,46.23,105.64,47.26Z"/><path class="cls-6" d="M152.61,65.32A8.47,8.47,0,0,0,154.79,63a5.53,5.53,0,0,0,.83-3.29,3.9,3.9,0,0,0-1.75-2.86c-.88-.57,0-1.26-1-1.46-1.29-.25.78-1.92-.52-2.17.84-1.62-3-.77-2.29-2.49a5.7,5.7,0,0,0-1.55-6.25c-1.56-1.23-3.58-1.3-5.51-1.11a8.38,8.38,0,0,0-3.76,1.11,5.75,5.75,0,0,0-2.54,3.73c-.15.83.36,2.9-.38,2.49s-1.85-1.05-2.1,2c-.07.89-1.73.19-2.59.2-1.74,0-.91,2-2.52,3.1-.88.59-4.43.12-4.29,1.31a2.53,2.53,0,0,0,.55,1.22,6.44,6.44,0,0,0,2.49,2.12"/></g></svg>