<svg xmlns="http://www.w3.org/2000/svg" viewBox="0 0 745 440"><defs><style>.cls-1{fill:#70492d;}.cls-2{fill:#cfbbae;}.cls-3{fill:#2e1a1b;opacity:0.33;}.cls-4{fill:#bc8b5b;}</style></defs><g id="Layer_23" data-name="Layer 23"><rect class="cls-1" y="1.79" width="744" height="437.75"/><path class="cls-2" d="M718.32,154.37H31.24v-6.22h683c5.14,0,4.09,6.22,4.09,6.22"/><path class="cls-2" d="M718.32,303.11H24.88v-6.22H714.19c5.19,0,4.13,6.22,4.13,6.22"/><path class="cls-3" d="M717.5,432.34H30.41V410.11h683c5.15,0,4.1,22.23,4.1,22.23"/><path class="cls-3" d="M717.5,296.89H30.41V274.66h683c5.15,0,4.1,22.23,4.1,22.23"/><path class="cls-3" d="M717.5,148.55H30.41V126.32h683c5.15,0,4.1,22.23,4.1,22.23"/><path class="cls-2" d="M489.81,303.34V149.73c0-.18.47-.32,1-.32h5.72c.59,0,1.08.15,1.08.34V303.27c-2,.18-7.84.07-7.84.07"/><path class="cls-2" d="M251.26,303.34V149.73c0-.18.47-.32,1-.32H258c.6,0,1.08.15,1.08.34V303.27c-2,.18-7.84.07-7.84.07"/><path class="cls-4" d="M718.32,438.55H31.24v-7.18h683c5.14,0,4.09,7.18,4.09,7.18"/><polygon class="cls-4" points="1 0.45 1 438.2 33.82 438.2 33.82 19.97 712.18 19.97 712.18 438.2 745 438.2 745 0.45 1 0.45"/></g></svg>