<svg xmlns="http://www.w3.org/2000/svg" viewBox="0 0 66 66"><defs><style>.cls-1{fill:#f48787;}.cls-2{fill:#fcacac;}.cls-3{fill:#ffbdbd;}</style></defs><g id="Layer_38" data-name="Layer 38"><path class="cls-1" d="M35.11,4.29C14.76,25.2.09,30.3,3.73,43.05S19,68.44,29.9,63.49s21-21.29,30.84-26.93S48.61-9.59,35.11,4.29Z"/><path class="cls-2" d="M33.22,5C13.81,21.73-.27,25.74,3.33,36.09S18.2,56.76,28.69,52.84s20-17.07,29.46-21.55S46.11-6.16,33.22,5Z"/><path class="cls-3" d="M47.11,11.55a1.18,1.18,0,1,0,1.23-1.11A1.17,1.17,0,0,0,47.11,11.55Z"/><path class="cls-3" d="M34.55,8.72c3.21.17,3,5.17-.26,5S31.32,8.55,34.55,8.72Z"/><path class="cls-3" d="M22.29,35.57l.36-.48a2.51,2.51,0,1,1,4.19,2.75l-.36.48a2.51,2.51,0,0,1-4.19-2.75Z"/><path class="cls-3" d="M40.46,33.44a1.5,1.5,0,0,1-.16,3A1.5,1.5,0,0,1,40.46,33.44Z"/><path class="cls-3" d="M53,26.89a.51.51,0,0,1,0,1A.51.51,0,0,1,53,26.89Z"/><path class="cls-3" d="M14.22,23.55c3.21.17,3,5.17-.26,5S11,23.39,14.22,23.55Z"/><path class="cls-3" d="M26.46,19.5a1.51,1.51,0,0,1-.15,3A1.51,1.51,0,0,1,26.46,19.5Z"/><path class="cls-3" d="M28.27,49.19a.5.5,0,0,1-.05,1A.5.5,0,0,1,28.27,49.19Z"/><path class="cls-3" d="M20,50.37c3.85.2,3.55,6.18-.31,6S16.16,50.17,20,50.37Z"/><path class="cls-3" d="M19.71,56.27a2.81,2.81,0,0,0,3-2.64,16.61,16.61,0,0,1-5.55-1.56A3,3,0,0,0,19.71,56.27Z"/><path class="cls-3" d="M50.81,33.8a1.51,1.51,0,0,1-.16,3A1.51,1.51,0,0,1,50.81,33.8Z"/><path class="cls-3" d="M36,45.08c3.22.16,3,5.17-.26,5S32.79,44.91,36,45.08Z"/><path class="cls-3" d="M40.3,17a1.5,1.5,0,0,1-.15,3A1.5,1.5,0,0,1,40.3,17Z"/><path class="cls-3" d="M30.4,24.22c4.51.24,4.15,7.24-.36,7S25.89,24,30.4,24.22Z"/><path class="cls-3" d="M58,18.12c3.22.17,3,5.17-.26,5S54.75,18,58,18.12Z"/><path class="cls-3" d="M26.15,58c3.22.16,3,5.16-.26,5S22.93,57.78,26.15,58Z"/><path class="cls-3" d="M43.73,44.47a1,1,0,0,1-.1,2A1,1,0,0,1,43.73,44.47Z"/><path class="cls-3" d="M57.08,35.3a.5.5,0,0,1,0,1A.5.5,0,0,1,57.08,35.3Z"/><path class="cls-3" d="M37,53.12c2.58.13,2.38,4.14-.2,4S34.4,53,37,53.12Z"/><path class="cls-3" d="M60.1,25.42a1.5,1.5,0,0,1-.15,3A1.5,1.5,0,0,1,60.1,25.42Z"/></g></svg>