<svg xmlns="http://www.w3.org/2000/svg" xmlns:xlink="http://www.w3.org/1999/xlink" viewBox="0 0 76 76"><defs><style>.cls-1{isolation:isolate;}.cls-2{fill:#ff0;}.cls-3{opacity:0.9;}.cls-4{fill:url(#radial-gradient);}.cls-5,.cls-6{mix-blend-mode:screen;}.cls-5{fill:url(#linear-gradient);}.cls-6{fill:url(#linear-gradient-2);}</style><radialGradient id="radial-gradient" cx="250.86" cy="452.83" r="34.58" gradientTransform="matrix(1, 0, 0, -1, -214.11, 493.09)" gradientUnits="userSpaceOnUse"><stop offset="0" stop-color="#d4fcff"/><stop offset="0.41" stop-color="#d2fbff"/><stop offset="0.55" stop-color="#cbf8ff"/><stop offset="0.66" stop-color="#c0f3ff"/><stop offset="0.74" stop-color="#afebff"/><stop offset="0.81" stop-color="#99e1ff"/><stop offset="0.88" stop-color="#7dd4ff"/><stop offset="0.94" stop-color="#5dc6ff"/><stop offset="0.99" stop-color="#39b5ff"/><stop offset="1" stop-color="#2eb0ff"/></radialGradient><linearGradient id="linear-gradient" x1="249.06" y1="436.28" x2="261.69" y2="456.57" gradientTransform="matrix(1, 0, 0, -1, -208.39, 470.67)" gradientUnits="userSpaceOnUse"><stop offset="0"/><stop offset="0.26" stop-color="#4a4a4a"/><stop offset="0.63" stop-color="#aaa"/><stop offset="0.88" stop-color="#e7e7e7"/><stop offset="1" stop-color="#fff"/></linearGradient><linearGradient id="linear-gradient-2" x1="227.61" y1="406.83" x2="231.25" y2="412.69" xlink:href="#linear-gradient"/></defs><g class="cls-1"><g id="Layer_1" data-name="Layer 1"><path class="cls-2" d="M38,.5A37.5,37.5,0,1,0,75.5,38,37.54,37.54,0,0,0,38,.5Zm0,72.25A34.75,34.75,0,1,1,72.75,38,34.75,34.75,0,0,1,38,72.75Z"/><g class="cls-3"><path class="cls-4" d="M38,3.25A34.75,34.75,0,1,1,3.25,38,34.75,34.75,0,0,1,38,3.25Z"/><path class="cls-5" d="M67.1,35.2C62.6,42.48,50.25,43,39.51,36.35s-15.8-17.93-11.3-25.21S45.07,3.35,55.81,10,71.61,27.92,67.1,35.2Z"/><path class="cls-6" d="M6.79,46.33s3.22,22,31.43,24.45C38.22,70.78,16.19,67.69,6.79,46.33Z"/></g></g></g></svg>