<svg xmlns="http://www.w3.org/2000/svg" viewBox="0 0 213 190"><defs><style>.cls-1,.cls-3{fill:#d7a529;}.cls-2{fill:#8b4a20;}.cls-3{stroke:#8b4a20;}.cls-3,.cls-6,.cls-7{stroke-miterlimit:10;stroke-width:2px;}.cls-4,.cls-6{fill:#db7d2e;}.cls-5{fill:#8b4d21;}.cls-6,.cls-7{stroke:#8b4d21;}.cls-7,.cls-8{fill:#f0e818;}.cls-9{fill:#fff;}.cls-10{fill:#754d24;opacity:0.44;}.cls-11{fill:none;stroke:#62587d;}</style></defs><g id="Layer_41" data-name="Layer 41"><path class="cls-1" d="M8.37,77s-12-58,29-57l59,1s47-21,52,51c0,0-1,7-22,11C126.37,83,36.37,96,8.37,77Z"/><path class="cls-2" d="M8.37,77A97.4,97.4,0,0,1,6.54,60.38,78.16,78.16,0,0,1,6.76,52,59.85,59.85,0,0,1,8,43.69a35.46,35.46,0,0,1,7-15.26A26,26,0,0,1,21.43,23c.63-.33,1.28-.63,1.91-.95a13.07,13.07,0,0,1,2-.81c.68-.22,1.33-.51,2-.67L29.42,20a15.06,15.06,0,0,1,2.1-.34l2.12-.26c1.41,0,2.83-.09,4.23-.09l8.36.09L63,19.61l33.43.48-.38.08a40.35,40.35,0,0,1,10.89-2.71,36.38,36.38,0,0,1,11.21.46,29.9,29.9,0,0,1,10.41,4.29,33.2,33.2,0,0,1,8.21,7.69,56.41,56.41,0,0,1,9.21,20.19,121.68,121.68,0,0,1,3.36,21.84v.12l0,.08a3.1,3.1,0,0,1-.24.76,5.55,5.55,0,0,1-.29.6,9,9,0,0,1-.72,1.06,8.11,8.11,0,0,1-.83.92,9.82,9.82,0,0,1-.89.82,20.58,20.58,0,0,1-4,2.59,46.49,46.49,0,0,1-8.64,3.31c-1.48.37-3,.8-4.46,1.1l-2.25.47c-.76.17-1.54.23-2.28.34q-4.52.59-9,1.08Q97.6,87.12,79.41,87.71a282.71,282.71,0,0,1-36.35-.91,131.41,131.41,0,0,1-18-2.93A52.69,52.69,0,0,1,8.37,77Zm0,0c5.13,3.24,11,5.1,16.84,6.45A128.69,128.69,0,0,0,43.13,86a304.1,304.1,0,0,0,36.23.4c12.07-.52,24.13-1.57,36.13-2.93q4.52-.51,9-1.11c.75-.11,1.49-.17,2.2-.34l2.19-.47c1.46-.29,2.9-.72,4.35-1.08a45.49,45.49,0,0,0,8.28-3.2,19.45,19.45,0,0,0,3.61-2.38,7.53,7.53,0,0,0,.77-.72,6.23,6.23,0,0,0,.69-.77,5.34,5.34,0,0,0,.55-.82,3.19,3.19,0,0,0,.21-.41c0-.12.11-.32.11-.32v.2a120.26,120.26,0,0,0-3.38-21.48,55.91,55.91,0,0,0-8.91-19.48,31.29,31.29,0,0,0-7.7-7.27,27.78,27.78,0,0,0-9.74-4.06,37.49,37.49,0,0,0-21,2.05l-.21.08h-.18l-33.43-.66L46.2,20.86l-8.35-.19c-1.39,0-2.75,0-4.13,0l-2,.23a15.28,15.28,0,0,0-2,.3l-2,.44c-.66.15-1.29.42-1.94.63a10.63,10.63,0,0,0-1.89.75c-.62.29-1.24.57-1.84.88a25,25,0,0,0-6.28,5.16,34.93,34.93,0,0,0-7,14.75,56.77,56.77,0,0,0-1.35,8.2A77,77,0,0,0,7,60.37,100.7,100.7,0,0,0,8.37,77Z"/><path class="cls-3" d="M36.37,52s-5,16,2,40c0,0-16,18-20,35s4,32,4,41a25.92,25.92,0,0,1-2.75,12,3.06,3.06,0,0,0,.87,3.87c5.22,4,19.57,11.46,37.88-6.85,1-1,24-23,37-19,0,0,9,2,10,13,0,0,16,13,46-6,0,0,26-22,40-19,0,0,15,3,14,18,0,0,13-54-34-61s-48-15-48-15,3-33-3-42"/><path class="cls-4" d="M3.17,60.49s9.77,13.26,31.26,13.26l2.65,13.36S13.92,86.05,3.17,77.53C3.17,77.53.24,60.49,3.17,60.49Z"/><path class="cls-5" d="M3.17,60.49a33.23,33.23,0,0,0,6.66,5.59c.61.39,1.22.78,1.86,1.12s1.25.72,1.91,1,1.29.65,2,.94l2,.81c.67.27,1.36.46,2,.69l1,.34,1.05.27,2.08.53,2.12.38c1.41.3,2.85.33,4.27.52s2.87.09,4.3.15l.74,0,.15.7c1,4.44,1.83,8.9,2.73,13.35l.25,1.24L37,88.1c-3-.15-6-.52-9-.95a83.06,83.06,0,0,1-8.83-1.76,58.25,58.25,0,0,1-8.59-2.81A33.23,33.23,0,0,1,2.79,78l-.2-.16,0-.22c-.41-2.93-.72-5.86-.86-8.81a43.64,43.64,0,0,1,0-4.43A12.73,12.73,0,0,1,2,62.19a4.57,4.57,0,0,1,.36-1.06A1,1,0,0,1,3.17,60.49Zm0,0a.93.93,0,0,0-.76.69,4.6,4.6,0,0,0-.25,1,15.76,15.76,0,0,0-.09,2.17c0,1.46.16,2.92.33,4.37.37,2.9.84,5.8,1.38,8.66l-.23-.38a33.86,33.86,0,0,0,7.7,4,62.31,62.31,0,0,0,8.42,2.52c2.86.67,5.77,1.18,8.68,1.61s5.87.72,8.77.9l-1,1.18c-.87-4.46-1.75-8.91-2.57-13.38l.89.74c-1.48-.09-3-.11-4.45-.26a40.64,40.64,0,0,1-4.4-.68l-2.18-.46-2.14-.63-1.06-.32-1.05-.4c-.68-.27-1.39-.5-2.06-.82a37.6,37.6,0,0,1-7.65-4.44A29.31,29.31,0,0,1,3.17,60.49Z"/><path class="cls-4" d="M147.74,55.1s-2.35,12.08-23.14,16.45l-.13,12.52s18.44-.18,25.1-10.3C149.57,73.77,151.19,54.76,147.74,55.1Z"/><path class="cls-5" d="M147.74,55.1a16.14,16.14,0,0,1-3.38,6.64,24.68,24.68,0,0,1-5.62,5A35.68,35.68,0,0,1,132,70.24c-1.18.43-2.38.84-3.58,1.24l-3.65.94.71-.86c0,4.17,0,8.34,0,12.52l-1-1a54.78,54.78,0,0,0,6.82-.71,43.06,43.06,0,0,0,6.65-1.64,28.44,28.44,0,0,0,6.16-2.83A18.3,18.3,0,0,0,149,73.38l-.12.33c.33-3.2.56-6.43.66-9.66a45.75,45.75,0,0,0-.06-4.83,15.9,15.9,0,0,0-.36-2.38,4,4,0,0,0-.41-1.11A1.05,1.05,0,0,0,147.74,55.1Zm0,0a1.09,1.09,0,0,1,1,.56,3.87,3.87,0,0,1,.56,1.11,13,13,0,0,1,.57,2.39,44.49,44.49,0,0,1,.46,4.88c.09,1.63.09,3.27.08,4.9s-.06,3.25-.17,4.89V74l-.1.16A19.26,19.26,0,0,1,145,79.33a30.24,30.24,0,0,1-6.48,3.19,43.14,43.14,0,0,1-6.94,1.79,45.46,45.46,0,0,1-7.13.74l-1,0v-1c.06-4.18.12-8.35.23-12.52l0-.71.69-.16,3.56-.83c1.17-.35,2.34-.68,3.5-1.06a38.79,38.79,0,0,0,6.62-3,26.81,26.81,0,0,0,5.76-4.47,19.12,19.12,0,0,0,2.26-2.88A13.39,13.39,0,0,0,147.74,55.1Z"/><path class="cls-6" d="M19.15,182.24a.66.66,0,0,0-.47,1.13c4.46,4.21,19.92,15.4,41.69-6.38,0,0,36-35,44-6l.92,2.78a.71.71,0,0,0,.28.36c2,1.32,19.68,11.58,48.79-8.13a.27.27,0,0,0,.08-.07c2-1.86,49.05-38.33,49.92,0a.66.66,0,0,0,1.12.47c3.42-3.36,9-19.79,3-35.9a10.64,10.64,0,0,0-3.06-4.49c-4-3.48-14.68-9.4-28-2-18,10-26.16,18.48-43,21-20,3-37.58-13.22-55-10C53.57,139.77,32.33,182,19.15,182.24Z"/><path class="cls-4" d="M122.23,92.26C94.14,95.63,68,95.8,39.43,94.12a2.45,2.45,0,0,1-2.29-2.18l-.52-4.65a1.91,1.91,0,0,1,2.05-2.11A375.82,375.82,0,0,0,122,82.33a2.06,2.06,0,0,1,2.35,2v5.49A2.44,2.44,0,0,1,122.23,92.26Z"/><path class="cls-5" d="M122.24,92.36c-15.77,1.79-31.62,3.07-47.51,3.29-8,.09-15.9,0-23.84-.31l-6-.23L42,95l-1.49-.08-.74,0-.38,0a3.7,3.7,0,0,1-.48-.07,3.2,3.2,0,0,1-2.46-2.68l-.35-3-.17-1.48a3.39,3.39,0,0,1,0-.93,2.48,2.48,0,0,1,.34-1,2.73,2.73,0,0,1,1.63-1.25,3.19,3.19,0,0,1,1-.08l.74,0A415.36,415.36,0,0,0,87,84.77q5.94-.22,11.86-.65t11.86-.88l5.92-.57,3-.33,1.48-.16.73-.09a2.82,2.82,0,0,1,.82,0,2.29,2.29,0,0,1,1.91,2.35l0,3,0,1.49a7.73,7.73,0,0,1-.08,1.51A2.57,2.57,0,0,1,122.24,92.36Zm0-.2a2.32,2.32,0,0,0,2-1.81,7.69,7.69,0,0,0,0-1.45l0-1.49,0-3a1.82,1.82,0,0,0-1.56-1.85,5.07,5.07,0,0,0-1.4.14l-1.47.23-2.94.48-5.9.86c-3.94.54-7.88,1.07-11.84,1.47s-7.92.73-11.89,1A330.21,330.21,0,0,1,39.45,86L38.71,86a1.45,1.45,0,0,0-.48,0,1.13,1.13,0,0,0-.68.51,1.07,1.07,0,0,0-.15.41,2.17,2.17,0,0,0,0,.55L37.57,89l.31,3a1.74,1.74,0,0,0,1.31,1.45,1.17,1.17,0,0,0,.26,0l.36,0,.74,0,1.49.1,3,.18,5.93.31c7.92.37,15.85.59,23.78.6A364.29,364.29,0,0,0,122.22,92.16Z"/><path class="cls-2" d="M108.37,95a54.91,54.91,0,0,0,3.19,8.22,47.92,47.92,0,0,0,4.44,7.47,46,46,0,0,0,5.65,6.58c1,1.06,2.14,2,3.25,2.95a19.23,19.23,0,0,0,1.72,1.38c.59.46,1.17.92,1.75,1.4q-1-.43-2-.93a16.54,16.54,0,0,1-2-1,28.59,28.59,0,0,1-3.71-2.58,30.5,30.5,0,0,1-3.36-3.07c-.55-.52-1-1.15-1.49-1.72a22.22,22.22,0,0,1-1.4-1.8c-.41-.63-.87-1.24-1.26-1.9s-.77-1.3-1.14-2a37.41,37.41,0,0,1-1.84-4.15A26.59,26.59,0,0,1,108.37,95Z"/><path class="cls-2" d="M120.37,105c4,1,7.88,2.27,11.74,3.63s7.68,2.86,11.45,4.47,7.47,3.39,11.07,5.4a58.05,58.05,0,0,1,5.25,3.26,16.65,16.65,0,0,1,4.49,4.24,21.13,21.13,0,0,0-5-3.41c-1.78-1-3.61-1.84-5.45-2.7-3.68-1.71-7.4-3.35-11.15-4.95l-11.22-4.87C127.8,108.43,124.07,106.78,120.37,105Z"/><path class="cls-2" d="M121.37,94c1.55.81,3,1.72,4.39,2.62L130,99.34c2.79,1.84,5.57,3.64,8.39,5.65a18.87,18.87,0,0,1-5-1.51,31.55,31.55,0,0,1-4.53-2.47,31,31,0,0,1-4.06-3.17A22.6,22.6,0,0,1,121.37,94Z"/><path class="cls-2" d="M89.37,98c.55,1.57,1,3.1,1.42,4.64l1.26,4.56c.44,1.5.86,3,1.39,4.47A28.43,28.43,0,0,0,95.37,116,10.08,10.08,0,0,1,92,112.32a19.62,19.62,0,0,1-1.9-4.58,25.09,25.09,0,0,1-.87-4.84A19.71,19.71,0,0,1,89.37,98Z"/><path class="cls-2" d="M80.37,98a19.84,19.84,0,0,1,.88,4.67,26.7,26.7,0,0,1,0,4.73,19.06,19.06,0,0,1-1,4.68,7.38,7.38,0,0,1-2.8,3.92,13.65,13.65,0,0,0,1.29-4.33c.24-1.47.41-3,.56-4.47l.48-4.55C79.86,101.1,80.05,99.57,80.37,98Z"/><path class="cls-2" d="M60.37,113c-.1,2.51-.16,5-.15,7.41s.12,4.87.39,7.27A48.58,48.58,0,0,0,62,134.75a36.06,36.06,0,0,0,2.84,6.74,18.33,18.33,0,0,1-4.31-6.22,28.56,28.56,0,0,1-1.86-7.38,35.47,35.47,0,0,1,0-7.57A29.26,29.26,0,0,1,60.37,113Z"/><path class="cls-2" d="M42.37,97c-1.48,2.34-2.82,4.7-4.07,7.1a77.11,77.11,0,0,0-3.37,7.34,69.87,69.87,0,0,0-2.62,7.62c-.8,2.59-1.3,5.24-1.94,7.94a32,32,0,0,1,.41-8.29c.19-1.38.6-2.72.92-4.07.19-.68.44-1.33.66-2s.45-1.32.72-2c.52-1.3,1.13-2.55,1.75-3.8s1.34-2.44,2.13-3.58A30.52,30.52,0,0,1,42.37,97Z"/><path class="cls-2" d="M29.37,157a24.79,24.79,0,0,1,.78,5.61,30.77,30.77,0,0,1-.32,5.66,20.08,20.08,0,0,1-1.6,5.51,11.27,11.27,0,0,1-1.55,2.49A5.83,5.83,0,0,1,24.37,178a11.52,11.52,0,0,0,2.4-4.77A43.55,43.55,0,0,0,27.86,168C28.43,164.37,28.73,160.73,29.37,157Z"/><path class="cls-2" d="M123.37,70a31.28,31.28,0,0,1-9.21,3.93,67.66,67.66,0,0,1-9.84,1.94c-1.66.22-3.32.33-5,.47s-3.33.17-5,.19-3.33,0-5-.1-3.33-.22-5-.43c1.65-.24,3.3-.39,4.95-.55s3.29-.35,4.94-.48c3.28-.36,6.56-.64,9.81-1.09s6.51-.88,9.73-1.46A60.71,60.71,0,0,0,123.37,70Z"/><path class="cls-2" d="M123.37,74a31.28,31.28,0,0,1-9.21,3.93,67.66,67.66,0,0,1-9.84,1.94c-1.66.22-3.32.33-5,.47s-3.33.17-5,.19-3.33,0-5-.1-3.33-.22-5-.43c1.65-.24,3.3-.39,4.95-.55s3.29-.35,4.94-.48c3.28-.36,6.56-.64,9.81-1.09s6.51-.88,9.73-1.46A60.71,60.71,0,0,0,123.37,74Z"/><path class="cls-2" d="M120.27,49c-6.34,2.42-13.12,3.5-19.84,4.26a179,179,0,0,1-20.3,1c-3.39,0-6.77-.13-10.16-.22s-6.76-.39-10.13-.65-6.73-.66-10.09-1.05-6.7-.91-10-1.46l20.23,1c6.73.21,13.46.47,20.19.43s13.45-.15,20.16-.57c3.35-.21,6.7-.53,10-.92A74.77,74.77,0,0,0,120.27,49Z"/><path class="cls-2" d="M123.27,53c-6.34,2.42-13.12,3.5-19.84,4.26a179,179,0,0,1-20.3,1c-3.39,0-6.77-.13-10.16-.22s-6.76-.39-10.13-.65-6.73-.66-10.09-1.05-6.7-.91-10-1.46l20.23,1c6.73.21,13.46.47,20.19.43s13.45-.15,20.16-.57c3.35-.21,6.7-.53,10-.92A74.77,74.77,0,0,0,123.27,53Z"/><path class="cls-7" d="M65.78,75.43c.9,4.91-1.25,9.16-4.81,9.5s-7.18-3.37-8.08-8.28,2.92-2.81,6.48-3.14S64.88,70.52,65.78,75.43Z"/><path class="cls-7" d="M47.31,79.06c6.47,2.41,10.7,7.09,9.45,10.45s-7.51,4.14-14,1.73-2.09-4.41-.84-7.78S40.84,76.65,47.31,79.06Z"/><path class="cls-7" d="M79.81,86.84c-5.81,3.73-12.09,4.3-14,1.28s1.2-8.49,7-12.22,4.79,1,6.73,4S85.62,83.11,79.81,86.84Z"/><path class="cls-7" d="M47.2,100.83c3.47-6,8.8-9.34,11.91-7.53s2.8,8.11-.68,14.07-4.71,1.31-7.81-.5S43.72,106.79,47.2,100.83Z"/><path class="cls-7" d="M66.26,104.36c-3.76-4.39-4.59-9.85-1.87-12.18s8-.67,11.75,3.73-.68,4.44-3.41,6.78S70,108.76,66.26,104.36Z"/><circle class="cls-6" cx="60.37" cy="88.99" r="7"/><path class="cls-8" d="M58.37,76.38a6.18,6.18,0,0,1,2,6.45"/><path class="cls-5" d="M58.37,76.38a3,3,0,0,1,1.84.88,4.18,4.18,0,0,1,1.14,3.8,3.37,3.37,0,0,1-1,1.77,16.51,16.51,0,0,1-.59-1.76c-.14-.53-.3-1-.43-1.48s-.29-1-.45-1.46Z"/><path class="cls-8" d="M44.84,87.22s3.76-2,9.19.75"/><path class="cls-5" d="M44.84,87.22a4.42,4.42,0,0,1,2.2-1.4,6.76,6.76,0,0,1,2.57-.23,7.11,7.11,0,0,1,2.45.74A5.46,5.46,0,0,1,54,88a20.15,20.15,0,0,1-2.43-.14l-2.2-.25-2.17-.2C46.48,87.32,45.73,87.26,44.84,87.22Z"/><path class="cls-8" d="M67.17,86.23s2.54-3.4,8.63-3.27"/><path class="cls-5" d="M67.17,86.23A4.28,4.28,0,0,1,68.56,84a6.68,6.68,0,0,1,2.22-1.32,7.07,7.07,0,0,1,2.53-.38A5.67,5.67,0,0,1,75.8,83a19,19,0,0,1-2.26.93l-2.1.71-2,.75C68.69,85.61,68,85.89,67.17,86.23Z"/><path class="cls-8" d="M66,93.55a6.55,6.55,0,0,0,5.79,5.21"/><path class="cls-5" d="M66,93.55a38.49,38.49,0,0,0,2.7,2.83,14.51,14.51,0,0,0,1.39,1.13c.49.4,1.07.73,1.7,1.25a4.2,4.2,0,0,1-4.43-.9,4.75,4.75,0,0,1-1.31-2A3.71,3.71,0,0,1,66,93.55Z"/><path class="cls-8" d="M56.8,95.06s1.07,4.1-2.84,8.77"/><path class="cls-5" d="M56.8,95.06a4.22,4.22,0,0,1,.85,2.45,6.55,6.55,0,0,1-.36,2.56A7.23,7.23,0,0,1,56,102.29a5.72,5.72,0,0,1-2,1.54,19.28,19.28,0,0,1,.69-2.34l.75-2.08.7-2.07C56.33,96.63,56.55,95.91,56.8,95.06Z"/><path class="cls-4" d="M99.37,0s7,9-9,19c0,0,17,4,16,22C120.37,40,139.37,11,99.37,0Z"/><path class="cls-5" d="M99.37,0a9.11,9.11,0,0,1,1.72,5.6,11.45,11.45,0,0,1-1.78,5.71,19.2,19.2,0,0,1-1.73,2.47c-.69.73-1.37,1.48-2.1,2.16S94,17.25,93.17,17.85l-2.44,1.73-.2-1.26a25.18,25.18,0,0,1,7,3.05,21.35,21.35,0,0,1,5.66,5.15,19,19,0,0,1,3.4,6.9,22.16,22.16,0,0,1,.69,3.79,13.71,13.71,0,0,1,.08,1.92v1.92l-1-1a15,15,0,0,0,6.77-2.56,21.41,21.41,0,0,0,5.41-5.12,21,21,0,0,0,3.38-6.63,15.68,15.68,0,0,0,.33-7.33A15.83,15.83,0,0,0,119,11.68a25.69,25.69,0,0,0-5.6-5.15A54.83,54.83,0,0,0,99.37,0Zm0,0A50.05,50.05,0,0,1,114,5.66a26.8,26.8,0,0,1,6.11,5.15A17.41,17.41,0,0,1,123.79,18a17.15,17.15,0,0,1-.18,8.15,21.9,21.9,0,0,1-3.58,7.3,23.41,23.41,0,0,1-5.87,5.62A16.36,16.36,0,0,1,106.44,42l-1,.09V39.16a10.44,10.44,0,0,0-.06-1.77,20,20,0,0,0-.61-3.47,12.16,12.16,0,0,0-.5-1.69l-.66-1.63c-.23-.53-.56-1-.84-1.54a9.74,9.74,0,0,0-1-1.46,21,21,0,0,0-5.11-4.87,23.66,23.66,0,0,0-6.42-3.06l-1.48-.44L90,18.41l2.43-1.58c.8-.54,1.53-1.17,2.31-1.75s1.41-1.3,2.1-2a18.31,18.31,0,0,0,1.79-2.24,10.94,10.94,0,0,0,2-5.3A9.33,9.33,0,0,0,99.37,0Z"/><circle class="cls-8" cx="87.37" cy="27.99" r="10"/><path class="cls-5" d="M97.37,28a10.52,10.52,0,0,1-10,10.5,10.48,10.48,0,0,1-10.13-6.3,10.55,10.55,0,0,1,0-8.39,10.46,10.46,0,0,1,10.13-6.31,10.52,10.52,0,0,1,10,10.5Zm0,0a10.2,10.2,0,0,0-.8-3.81A9.8,9.8,0,0,0,94.34,21a9.64,9.64,0,0,0-7-2.52,9.52,9.52,0,0,0-9,9.49,9.51,9.51,0,0,0,9,9.51,9.47,9.47,0,0,0,9.2-5.69A10.21,10.21,0,0,0,97.37,28Z"/><circle class="cls-9" cx="91.37" cy="24.99" r="3"/><circle class="cls-9" cx="62.05" cy="87.6" r="3"/><path class="cls-10" d="M53.06,140.68a11.79,11.79,0,0,0-5.72-.79A25.66,25.66,0,0,0,33,145.5a12.3,12.3,0,0,0-3.32,3.84,5.81,5.81,0,0,0-.31,4.85,6.81,6.81,0,0,0,4.5,3.5,21.27,21.27,0,0,0,6,.54l7.79,0c-1,2.51-3.44,4.38-4.1,7-.88,3.46,1.94,7,5.43,8.31s7.43.8,11.08,0a19,19,0,0,0,6.83-2.62,7.31,7.31,0,0,0,3.45-5.93c0-1.2-.47-2.4-.25-3.59A5,5,0,0,1,73.3,158a23.34,23.34,0,0,1,4.93-1,21.69,21.69,0,0,0,9.33-3.61c1.47-1.08,2.84-2.86,2.1-4.48a4,4,0,0,0-1.53-1.56A14.79,14.79,0,0,0,82.49,145c-1.9-.34-4.24-.56-5-2.25a7.43,7.43,0,0,1-.23-2.71c-.14-3.21-3.19-5.83-6.51-6.45-2.21-.41-5,.26-5.65,2.31-.51,1.64.58,3.5-.14,5.07a3.52,3.52,0,0,1-3.64,1.67,7.7,7.7,0,0,1-3.77-1.9,5.67,5.67,0,0,0-2.15-1.35c-.84-.21-1.92.19-2.06,1"/><path class="cls-10" d="M149.57,115.37a9.3,9.3,0,0,0-3.76,1.25,19.45,19.45,0,0,0-7.54,7.2,7.68,7.68,0,0,0-1.09,3,3,3,0,0,0,1,2.68,4.63,4.63,0,0,0,3.67.55,17.05,17.05,0,0,0,3.84-1.46l4.84-2.3c0,1.63-1,3.34-.8,4.92.33,2.1,3,3.18,5.46,2.84a16,16,0,0,0,6.88-3.25,14.4,14.4,0,0,0,3.59-3.4,4.22,4.22,0,0,0,.66-4.16c-.32-.64-.9-1.15-1.05-1.84a3.2,3.2,0,0,1,1.19-2.77,18.79,18.79,0,0,1,2.8-2,16.54,16.54,0,0,0,4.9-4.65c.64-1,1-2.36.18-3a2.54,2.54,0,0,0-1.34-.39,11.36,11.36,0,0,0-4.07.45c-1.27.38-2.78.94-3.67.26a3.74,3.74,0,0,1-.82-1.37c-.89-1.67-3.44-2.18-5.66-1.54-1.48.43-3.06,1.61-2.94,2.89.09,1,1.24,1.7,1.19,2.74a2.58,2.58,0,0,1-1.84,2,5.56,5.56,0,0,1-2.83.09,4.07,4.07,0,0,0-1.67-.08c-.58.13-1.15.66-1,1.13"/><path class="cls-10" d="M31.84,19.47a10.32,10.32,0,0,0-3.54,1.36,7.27,7.27,0,0,0-2.75,3.11,4.59,4.59,0,0,0,.12,3.94A8.24,8.24,0,0,0,28,30.39l3.48,2.8c-1.78,1.31-3.88,1.66-5.58,3.15a7.15,7.15,0,0,0-2.05,7.48c.87,2.11,2.88,3.2,4.94,4a9.24,9.24,0,0,0,4.45.72A7.29,7.29,0,0,0,38,45.83a21.36,21.36,0,0,1,1.82-2.48,3.92,3.92,0,0,1,3.28-1.06,9.63,9.63,0,0,1,2.74,1.09,10.39,10.39,0,0,0,6.1,1,4.22,4.22,0,0,0,3.34-2.21,3.27,3.27,0,0,0,.16-1.59A7.16,7.16,0,0,0,54.15,37"/><path class="cls-4" d="M53.37,0s-4,14,30,19c0,0-18,16-13,27,0,0-34-1-36-20C34.37,26,31.37,8,53.37,0Z"/><path class="cls-5" d="M53.37,0a8.2,8.2,0,0,0,.7,4.69,11.23,11.23,0,0,0,1.21,2.06,11.45,11.45,0,0,0,1.54,1.8,26.56,26.56,0,0,0,8.05,5.05A58.16,58.16,0,0,0,74,16.46l2.35.52,1.17.27,1.19.19,4.75.77,1.6.26L83.9,19.59a68.39,68.39,0,0,0-5.35,5.67A51.6,51.6,0,0,0,74,31.55a26.35,26.35,0,0,0-3.08,6.94,10.77,10.77,0,0,0,.36,7.1l.66,1.46L70.34,47a72.54,72.54,0,0,1-10-1.15,63.64,63.64,0,0,1-9.74-2.52,37,37,0,0,1-9.07-4.54,24.55,24.55,0,0,1-3.85-3.43A17.6,17.6,0,0,1,34.88,31a17.42,17.42,0,0,1-1.27-5,20.9,20.9,0,0,1,.15-5.13,23.26,23.26,0,0,1,3.56-9.46,25.48,25.48,0,0,1,7.11-7c.71-.44,1.36-1,2.11-1.34l2.22-1.14a18.33,18.33,0,0,1,2.32-1C51.87.58,52.62.3,53.37,0Zm0,0c-.78.34-1.55.7-2.29,1a18.54,18.54,0,0,0-2.18,1.1L46.77,3.37c-.72.4-1.34,1-2,1.41a25,25,0,0,0-6.58,7.14A22.32,22.32,0,0,0,35.11,21a19.53,19.53,0,0,0,0,4.77,15.49,15.49,0,0,0,1.27,4.53A16.42,16.42,0,0,0,39,34.2a22.22,22.22,0,0,0,3.59,3.1,36.18,36.18,0,0,0,8.67,4.19A72.71,72.71,0,0,0,70.4,45l-.93,1.39A12.73,12.73,0,0,1,69,38a27.2,27.2,0,0,1,3.38-7.43,50.88,50.88,0,0,1,4.81-6.44,62,62,0,0,1,5.62-5.73l.41,1.38-4.8-.9-1.2-.23-1.19-.29-2.37-.6a59.85,59.85,0,0,1-9.23-3.25,27.16,27.16,0,0,1-8-5.59A12.31,12.31,0,0,1,54.92,7,11.9,11.9,0,0,1,53.78,4.8,8.43,8.43,0,0,1,53.37,0Z"/><path class="cls-11" d="M61.25,133.58a150.75,150.75,0,0,0-14.18-12.42"/><path class="cls-11" d="M58.64,136.21a148.81,148.81,0,0,0-13.83-12.12"/><path class="cls-11" d="M40.28,130a140.8,140.8,0,0,1,13.13,11.51"/><path class="cls-11" d="M56,138.84A142.76,142.76,0,0,0,42.54,127"/><path class="cls-11" d="M38,132.9A134.59,134.59,0,0,1,50.8,144.1"/><path class="cls-11" d="M56,146a44.91,44.91,0,0,1,8.59-12.69"/><path class="cls-11" d="M52.6,144.48a48.38,48.38,0,0,1,9.31-13.75"/><path class="cls-11" d="M56.58,125.58a55.74,55.74,0,0,0-10.74,15.86"/><path class="cls-11" d="M49.22,143a52.31,52.31,0,0,1,10-14.81"/><path class="cls-11" d="M53.91,123a59.68,59.68,0,0,0-11.45,16.91"/><path class="cls-11" d="M120,58.2a107.87,107.87,0,0,0-18.65-11.69"/><path class="cls-11" d="M117.72,61.12a104.67,104.67,0,0,0-18-11.29"/><path class="cls-11" d="M96.43,56.47A97.78,97.78,0,0,1,113.17,67"/><path class="cls-11" d="M115.44,64.05a100.9,100.9,0,0,0-17.37-10.9"/><path class="cls-11" d="M94.79,59.79a94.58,94.58,0,0,1,16.1,10.1"/><path class="cls-11" d="M111.18,76.61a123.5,123.5,0,0,1,11.37-18.88"/><path class="cls-11" d="M107.85,75a126.75,126.75,0,0,1,11.71-19.45"/><path class="cls-11" d="M113.58,51.17a134.33,134.33,0,0,0-12.4,20.58"/><path class="cls-11" d="M104.51,73.37a130.85,130.85,0,0,1,12.06-20"/><path class="cls-11" d="M110.59,49A137.58,137.58,0,0,0,97.85,70.13"/><line class="cls-11" x1="40.57" y1="48.99" x2="26.98" y2="29.76"/><line class="cls-11" x1="37.54" y1="51.13" x2="23.96" y2="31.89"/><line class="cls-11" x1="17.9" y1="36.17" x2="31.49" y2="55.4"/><line class="cls-11" x1="34.52" y1="53.27" x2="20.93" y2="34.03"/><line class="cls-11" x1="14.88" y1="38.31" x2="28.46" y2="57.54"/><path class="cls-11" d="M22.56,56.85q7.76-9.09,16.11-17.65"/><path class="cls-11" d="M19.74,54.44Q27.59,45.26,36,36.61"/><path class="cls-11" d="M30.72,31.43q-8.61,8.82-16.61,18.2"/><path class="cls-11" d="M16.92,52q7.92-9.27,16.45-18"/><path class="cls-11" d="M28.06,28.85q-8.68,8.9-16.77,18.37"/><path class="cls-11" d="M202.31,138A121.26,121.26,0,0,0,186,121.19"/><path class="cls-11" d="M199.41,140.34A116.65,116.65,0,0,0,183.61,124"/><path class="cls-11" d="M178.81,129.67A108.46,108.46,0,0,1,193.6,145"/><path class="cls-11" d="M196.5,142.64a113,113,0,0,0-15.29-15.8"/><path class="cls-11" d="M176.41,132.49a105.51,105.51,0,0,1,14.29,14.76"/><path class="cls-11" d="M196.47,122.81a113.53,113.53,0,0,0-20.65,11.68"/><path class="cls-11" d="M197.94,126.21a108.89,108.89,0,0,0-20,11.3"/><path class="cls-11" d="M182.27,143.54A102,102,0,0,1,200.89,133"/><path class="cls-11" d="M199.42,129.61a106,106,0,0,0-19.3,10.91"/><path class="cls-11" d="M184.42,146.56a98.61,98.61,0,0,1,18-10.15"/></g></svg>