<svg xmlns="http://www.w3.org/2000/svg" xmlns:xlink="http://www.w3.org/1999/xlink" width="1600" height="900" viewBox="0 0 1600 900">
  <defs>
    <style>
      .a2599df1-0e63-4884-8ff3-892e249a4901, .ae551519-dae0-4cb9-96da-caa3e7356a91, .bbeece3c-a8ba-4564-89dc-d2cd4cd148af, .eea913fb-e6cb-468a-91be-e8b9e6e1d35f, .fda555bc-840e-4038-a897-a246d9e17d88 {
        fill: none;
      }

      .bbeece3c-a8ba-4564-89dc-d2cd4cd148af, .fda555bc-840e-4038-a897-a246d9e17d88 {
        stroke: #fff;
      }

      .a2599df1-0e63-4884-8ff3-892e249a4901, .ae551519-dae0-4cb9-96da-caa3e7356a91, .bbeece3c-a8ba-4564-89dc-d2cd4cd148af, .fda555bc-840e-4038-a897-a246d9e17d88 {
        stroke-miterlimit: 10;
      }

      .b4feeba2-cbe5-4bd6-be25-47561a81c56b {
        clip-path: url(#b46a297b-5fab-45cf-a73c-7807d9d892dd);
      }

      .f1f5d4dc-8daf-4247-b9fd-86aba4f83632 {
        fill: url(#a731f3fe-d4eb-4b88-bb26-9c1765142588);
      }

      .b12df5ec-562f-45e6-a2a1-aa33304a42cb {
        fill: #76b3e1;
      }

      .ad9cb2bb-329e-44ca-8e0a-4fda1c9851ea {
        fill: #659ccd;
      }

      .acc94d5e-b21c-4448-aa04-dbc8eee7bfce, .ad9cb2bb-329e-44ca-8e0a-4fda1c9851ea {
        opacity: 0.58;
      }

      .f290ef62-f003-4336-9940-b143585862b4 {
        fill: #55c4da;
      }

      .acc94d5e-b21c-4448-aa04-dbc8eee7bfce, .be23759b-ed18-4767-a0bf-da235b243ac4 {
        fill: #558db7;
      }

      .e7188476-6f9f-452e-b86c-b78c364f1959 {
        opacity: 0.82;
      }

      .a2599df1-0e63-4884-8ff3-892e249a4901, .fda555bc-840e-4038-a897-a246d9e17d88 {
        opacity: 0.51;
      }

      .a2599df1-0e63-4884-8ff3-892e249a4901 {
        stroke: #fcfdff;
      }

      .bdeeed1b-2ecb-40ed-ab17-ebd22a132339 {
        fill: #5493ba;
      }

      .f63daa29-0b74-4c06-bbdd-8aff87813a36 {
        clip-path: url(#ab51eead-2224-4b23-afc7-df6c3eb1ee53);
      }

      .bbac9429-40b7-4057-a22b-fa43fb94ef4c {
        clip-path: url(#a8a21af4-4164-4634-a0bb-83255b3bfb41);
      }

      .ad213ec6-0e80-4140-bca0-39822861fe14 {
        clip-path: url(#e6de6271-e706-4a04-b96d-7ff68dd6efc6);
      }

      .ebb62b19-3394-4ff0-bade-ad09fdba61d3 {
        fill: #74b5e4;
      }

      .f4d30551-a29c-43ce-b613-b1833f7c9538 {
        opacity: 0.37;
      }

      .a7aa63a9-c0fa-4a0d-bbce-37cfd8c92ce9 {
        clip-path: url(#b1018e08-09cd-4797-b332-bf40ec76e291);
      }

      .f68f76d3-5756-4ca2-9a7d-8552df6d1425 {
        fill: #edbda9;
      }

      .aeddbb5e-9fe5-43b3-8b9b-c3e97e111eea, .f68f76d3-5756-4ca2-9a7d-8552df6d1425 {
        opacity: 0.6;
      }

      .aeddbb5e-9fe5-43b3-8b9b-c3e97e111eea {
        fill: #cca28f;
      }

      .ae551519-dae0-4cb9-96da-caa3e7356a91 {
        stroke: #9b9b9b;
      }
    </style>
    <clipPath id="b46a297b-5fab-45cf-a73c-7807d9d892dd">
      <rect class="bbeece3c-a8ba-4564-89dc-d2cd4cd148af" width="1600" height="900"/>
    </clipPath>
    <linearGradient id="a731f3fe-d4eb-4b88-bb26-9c1765142588" x1="-135.51" y1="721.32" x2="1695.96" y2="721.32" gradientUnits="userSpaceOnUse">
      <stop offset="0" stop-color="#67b6be"/>
      <stop offset="1" stop-color="#6eb6ba"/>
    </linearGradient>
    <clipPath id="ab51eead-2224-4b23-afc7-df6c3eb1ee53">
      <rect class="eea913fb-e6cb-468a-91be-e8b9e6e1d35f" x="-1620" y="-920" width="1600" height="900"/>
    </clipPath>
    <clipPath id="a8a21af4-4164-4634-a0bb-83255b3bfb41">
      <rect class="eea913fb-e6cb-468a-91be-e8b9e6e1d35f" x="-1738.29" y="-1097.9" width="1812.71" height="1074.92"/>
    </clipPath>
    <clipPath id="e6de6271-e706-4a04-b96d-7ff68dd6efc6">
      <rect class="eea913fb-e6cb-468a-91be-e8b9e6e1d35f" y="-920" width="1600" height="900"/>
    </clipPath>
    <clipPath id="b1018e08-09cd-4797-b332-bf40ec76e291">
      <rect class="eea913fb-e6cb-468a-91be-e8b9e6e1d35f" x="-1620" width="1600" height="900"/>
    </clipPath>
  </defs>
  <g id="a069320d-a062-461f-b773-c9ccdc636800" data-name="Layer 6">
    <g>
      <g class="b4feeba2-cbe5-4bd6-be25-47561a81c56b">
        <g>
          <path class="f1f5d4dc-8daf-4247-b9fd-86aba4f83632" d="M1634.11,721.43c-180.36,1.05-419.82,1.87-701,1.19-518.45-1.24-828-6.71-971.63-6a53.28,53.28,0,0,1-1.1,9.44A65.11,65.11,0,0,1-29,725.16H1634.89C1634.6,723.93,1634.33,722.68,1634.11,721.43Z"/>
          <g>
            <rect class="b12df5ec-562f-45e6-a2a1-aa33304a42cb" x="-28.26" y="-59.22" width="1656.52" height="780.72"/>
            <g>
              <rect class="ad9cb2bb-329e-44ca-8e0a-4fda1c9851ea" x="709.47" y="302.82" width="164.21" height="91.33"/>
              <polygon class="f290ef62-f003-4336-9940-b143585862b4" points="412.25 302.82 551.66 302.82 551.47 393.6 411.97 394.72 412.25 302.82"/>
              <polygon class="ad9cb2bb-329e-44ca-8e0a-4fda1c9851ea" points="270.83 142.06 268.94 220.77 411.97 220.77 411.97 142.5 270.83 142.06"/>
              <polygon class="ad9cb2bb-329e-44ca-8e0a-4fda1c9851ea" points="94.91 394.72 266.26 394.72 264.56 484.35 95.33 485.31 94.91 394.72"/>
              <polygon class="f290ef62-f003-4336-9940-b143585862b4" points="551.66 143.95 552.02 220.73 707.24 220.73 707.24 143.45 551.66 143.95"/>
              <path class="f290ef62-f003-4336-9940-b143585862b4" d="M1051.23,220.77q0,40.66,0,81.35l142.59.19-1.25-81.58Z"/>
              <polygon class="ad9cb2bb-329e-44ca-8e0a-4fda1c9851ea" points="874.8 486.21 875.53 581.26 1057.34 581.26 1057.34 485.39 874.8 486.21"/>
              <polygon class="be23759b-ed18-4767-a0bf-da235b243ac4" points="1193.83 54.7 1193.83 143.95 1345.37 143.95 1346.35 53.61 1193.83 54.7"/>
              <polygon class="f290ef62-f003-4336-9940-b143585862b4" points="1513.21 221.7 1513.64 302.82 1686.24 302.12 1686.61 220.73 1513.21 221.7"/>
              <polygon class="acc94d5e-b21c-4448-aa04-dbc8eee7bfce" points="874.03 -41.28 875.53 52.07 1049.38 53.61 1049.38 -41.28 874.03 -41.28"/>
            </g>
            <path class="ad9cb2bb-329e-44ca-8e0a-4fda1c9851ea" d="M1618.74,725.16H1623V-42H-23V412.27c33.13-34.16,370-369.7,863.15-298C1359.51,189.79,1584.93,649.07,1618.74,725.16Z"/>
            <g class="e7188476-6f9f-452e-b86c-b78c364f1959">
              <path class="fda555bc-840e-4038-a897-a246d9e17d88" d="M92.76-41.28C94,214,95,468,96.54,722.74"/>
              <path class="fda555bc-840e-4038-a897-a246d9e17d88" d="M272.64-41.28C268,214,266,468,261.46,722.74"/>
              <path class="fda555bc-840e-4038-a897-a246d9e17d88" d="M412.25-41.28c-.25,255.28-.25,509.28,0,764"/>
              <path class="fda555bc-840e-4038-a897-a246d9e17d88" d="M551.66-41.28c.34,255.28.34,509.28,0,764"/>
              <path class="fda555bc-840e-4038-a897-a246d9e17d88" d="M710.24-41.28C710,214,708,468,707.33,722.66"/>
              <path class="fda555bc-840e-4038-a897-a246d9e17d88" d="M872.53-41.28C873,214,875,468,875.46,722.74"/>
              <path class="fda555bc-840e-4038-a897-a246d9e17d88" d="M1049.38-41.28C1052,214,1052,468,1054.77,722.74"/>
              <path class="fda555bc-840e-4038-a897-a246d9e17d88" d="M1192.58-41.28c.42,255.28.42,509.28,0,764"/>
              <path class="fda555bc-840e-4038-a897-a246d9e17d88" d="M1342.31-41.28C1347,214,1350,468,1354.91,722.67"/>
              <path class="fda555bc-840e-4038-a897-a246d9e17d88" d="M1513.64-41.28c.36,255.28.36,509.28,0,763.94"/>
              <line class="a2599df1-0e63-4884-8ff3-892e249a4901" x1="-22.37" y1="141.31" x2="1622.37" y2="146.59"/>
              <line class="a2599df1-0e63-4884-8ff3-892e249a4901" x1="-22.37" y1="49.43" x2="1622.37" y2="54.7"/>
              <line class="a2599df1-0e63-4884-8ff3-892e249a4901" x1="-19.5" y1="302.12" x2="1619.5" y2="302.12"/>
              <line class="a2599df1-0e63-4884-8ff3-892e249a4901" x1="-19.5" y1="220.77" x2="1619.5" y2="220.77"/>
              <line class="a2599df1-0e63-4884-8ff3-892e249a4901" x1="-19.5" y1="394.15" x2="1619.5" y2="394.15"/>
              <line class="a2599df1-0e63-4884-8ff3-892e249a4901" x1="-19.5" y1="485.39" x2="1619.5" y2="485.39"/>
              <line class="a2599df1-0e63-4884-8ff3-892e249a4901" x1="-19.5" y1="581.26" x2="1619.5" y2="581.26"/>
              <line class="a2599df1-0e63-4884-8ff3-892e249a4901" x1="-19.5" y1="666.72" x2="1619.5" y2="666.72"/>
            </g>
            <path class="bdeeed1b-2ecb-40ed-ab17-ebd22a132339" d="M1635,717.51H-42.67c.61,1.65,1.16,3.3,1.61,4.94a52.24,52.24,0,0,1,2,23.21h1673.4a70.33,70.33,0,0,1-1.34-13.54Q1634,724.82,1635,717.51Z"/>
          </g>
        </g>
      </g>
      <rect class="bbeece3c-a8ba-4564-89dc-d2cd4cd148af" width="1600" height="900"/>
    </g>
  </g>
  <g id="b3b1076c-1c50-4d97-b947-b03ed333e369" data-name="Layer 8">
    <g class="ad213ec6-0e80-4140-bca0-39822861fe14">
      <polygon class="ebb62b19-3394-4ff0-bade-ad09fdba61d3" points="-48 -624.48 1648 -624.82 1648 -11 -48 21.39 -48 -624.48"/>
      <g class="f4d30551-a29c-43ce-b613-b1833f7c9538">
        <polyline class="bbeece3c-a8ba-4564-89dc-d2cd4cd148af" points="162.89 -965 237.72 -624.48 94.05 41.42"/>
        <polyline class="bbeece3c-a8ba-4564-89dc-d2cd4cd148af" points="354.45 -965 408.32 -624.48 294.59 41.42"/>
        <polyline class="bbeece3c-a8ba-4564-89dc-d2cd4cd148af" points="534.37 -985.21 557.98 -624.48 499.33 107.27"/>
        <polyline class="bbeece3c-a8ba-4564-89dc-d2cd4cd148af" points="716.61 -1030.11 734.57 -608.08 698.65 71.35"/>
        <polyline class="bbeece3c-a8ba-4564-89dc-d2cd4cd148af" points="899.19 -1006.16 887.22 -636.21 899.19 71.35"/>
        <polyline class="bbeece3c-a8ba-4564-89dc-d2cd4cd148af" points="1081.83 -985.21 1052.51 -624.48 1099.73 71.35"/>
        <polyline class="bbeece3c-a8ba-4564-89dc-d2cd4cd148af" points="1252.37 -970.44 1198.5 -624.48 1309.24 71.35"/>
        <polyline class="bbeece3c-a8ba-4564-89dc-d2cd4cd148af" points="1440.94 -965 1363.12 -624.48 1524.74 107.27"/>
      </g>
    </g>
  </g>
  <g id="fb5db0d8-e20d-418c-b72d-3d2b81f5a3c7" data-name="Layer 10">
    <g class="a7aa63a9-c0fa-4a0d-bbce-37cfd8c92ce9">
      <g>
        <rect class="f68f76d3-5756-4ca2-9a7d-8552df6d1425" x="-1689.35" y="658.17" width="1817.25" height="431.48"/>
        <g>
          <path class="aeddbb5e-9fe5-43b3-8b9b-c3e97e111eea" d="M-198.5,797.72-43,880.28c1.9,1,64.54,0,64.54,0V797.72Z"/>
          <path class="aeddbb5e-9fe5-43b3-8b9b-c3e97e111eea" d="M-191.35,690.61H21.5V656.72l-284.58.79s14.24,12.64,15,13.59S-191.35,690.61-191.35,690.61Z"/>
          <polygon class="aeddbb5e-9fe5-43b3-8b9b-c3e97e111eea" points="-81.57 731.99 21.5 770.83 21.5 732.47 -81.57 731.99"/>
        </g>
      </g>
      <g>
        <line class="ae551519-dae0-4cb9-96da-caa3e7356a91" x1="-456.27" y1="660.37" x2="127.9" y2="971.25"/>
        <line class="ae551519-dae0-4cb9-96da-caa3e7356a91" x1="-271.59" y1="660.37" x2="136.36" y2="814.12"/>
        <line class="ae551519-dae0-4cb9-96da-caa3e7356a91" x1="-1731" y1="794.95" x2="227.29" y2="797.72"/>
        <line class="ae551519-dae0-4cb9-96da-caa3e7356a91" x1="-1771.44" y1="898.29" x2="189.23" y2="898.29"/>
        <line class="ae551519-dae0-4cb9-96da-caa3e7356a91" x1="-1710.91" y1="732.47" x2="208.26" y2="732.47"/>
        <line class="ae551519-dae0-4cb9-96da-caa3e7356a91" x1="-1710.91" y1="685.69" x2="255.84" y2="692.22"/>
        <line class="ae551519-dae0-4cb9-96da-caa3e7356a91" x1="-1710.91" y1="655.03" x2="255.84" y2="661.55"/>
      </g>
    </g>
  </g>
</svg>
