<svg xmlns="http://www.w3.org/2000/svg" xmlns:xlink="http://www.w3.org/1999/xlink" width="331" height="537" viewBox="0 0 331 537">
  <defs>
    <style>
      .b3c0cf32-fd5c-43e2-ba86-da951cc7f5f0 {
        fill: #eff1f1;
      }

      .ab6f52a7-3551-43d7-8b53-c2d35639a067 {
        fill: #dcdce5;
      }

      .f2b94784-66c0-4005-91e5-73fccaadebe4 {
        fill: #ccd6de;
      }

      .b6149596-0168-4030-b80c-3d8ea274ee24 {
        fill: #d2d6de;
      }

      .ace4b813-ff1d-40f4-b6de-0b93588a78bc {
        fill: #232423;
        opacity: 0.2;
      }

      .a83846f6-7404-4d97-8cf4-3395de27e9d8 {
        fill: #a2acb6;
      }

      .bbd94a37-09df-4d3f-915b-baa56601a0f2 {
        fill: #b7bfcb;
      }

      .b8a3a4f3-3d60-430c-a710-acf48d7991a2 {
        fill: #cad0d6;
      }

      .f1e7efa8-8257-4809-8739-397d2cf63ee5 {
        fill: #9b887b;
      }

      .bb4b4395-0810-447e-9358-b5d3e74316c5 {
        fill: #8e7e70;
      }

      .f8c97ef9-06d3-4f20-9baa-1d8e6dbd3d68 {
        fill: #ccccd4;
      }

      .e35aabe7-0c4f-48b5-9c34-d6d67e3df577 {
        fill: #4a4b4b;
      }

      .fd784ed1-3c58-4b38-bbeb-6432d0e0c246 {
        fill: #d4dfe9;
        stroke: #37424c;
        stroke-miterlimit: 10;
        stroke-width: 0.75px;
      }

      .b77a33ff-350e-42f2-aaf7-141a44e26edf {
        fill: #e6e6e2;
      }

      .b9118436-e661-4a98-a2a4-5405f7cfdb12 {
        fill: url(#b133ac35-5834-49d4-af09-765f0e616e8d);
      }

      .a2d8cab6-2822-4934-98c5-5ad19daafeb5 {
        fill: #bdbeb9;
      }

      .f02b756d-65ab-46e6-ab9d-524cd6b7a075 {
        fill: #d8dad0;
      }

      .bef2c84a-8f28-43a8-a89e-60dca219673d {
        fill: #456e72;
      }

      .a75611d9-5586-4f01-8bce-f9b2a04d6ea5 {
        fill: #4e8083;
      }
    </style>
    <linearGradient id="b133ac35-5834-49d4-af09-765f0e616e8d" x1="141.06" y1="26.34" x2="172.81" y2="26.34" gradientUnits="userSpaceOnUse">
      <stop offset="0" stop-color="#d8dad0"/>
      <stop offset="0.98" stop-color="#e6e6e2"/>
    </linearGradient>
  </defs>
  <g id="a54b7a19-a2d1-4e26-bccc-72e17abdc22d" data-name="Layer 6">
    <g>
      <g>
        <path class="b3c0cf32-fd5c-43e2-ba86-da951cc7f5f0" d="M321.36,88.34a2.44,2.44,0,0,1-2.55,1.29c-27.69-2.52-55.67-.59-83.2-5l-.05,0c-90.5.34-218.79,5.27-218.79,5.27s4.41,49.51,55.62,72.37h184.1c33.45-3.08,63.34-60.46,66.43-72.37C323.07,89.31,322.53,88.8,321.36,88.34Z"/>
        <rect class="ab6f52a7-3551-43d7-8b53-c2d35639a067" x="68.75" y="162.23" width="191.38" height="7.29" rx="3.2"/>
        <ellipse class="f2b94784-66c0-4005-91e5-73fccaadebe4" cx="171.15" cy="89.86" rx="153.08" ry="5.14"/>
        <path class="b6149596-0168-4030-b80c-3d8ea274ee24" d="M16.77,89.86s6.92,55.74,55.62,72.37c41.39,0,61.24-.09,61.24-.09S54.22,169.51,16.77,89.86Z"/>
      </g>
      <g>
        <polygon class="ace4b813-ff1d-40f4-b6de-0b93588a78bc" points="6.78 485 59.44 525.86 314.45 525.86 242.34 485.49 6.78 485"/>
        <path class="a83846f6-7404-4d97-8cf4-3395de27e9d8" d="M29.85,190.24l29.73-5.9Q58.13,332.69,56.68,481l-29.39-8.43Q28.57,331.43,29.85,190.24Z"/>
        <rect class="bbd94a37-09df-4d3f-915b-baa56601a0f2" x="56.68" y="180.82" width="240.17" height="300.22"/>
        <rect class="b8a3a4f3-3d60-430c-a710-acf48d7991a2" x="49.48" y="167.24" width="262.53" height="17.11" rx="7.52"/>
        <rect class="b6149596-0168-4030-b80c-3d8ea274ee24" x="74.37" y="199.78" width="202.19" height="252.74"/>
        <polygon class="f1e7efa8-8257-4809-8739-397d2cf63ee5" points="99.02 481.04 87.6 519.87 65.63 519.87 65.63 481.04 99.02 481.04"/>
        <polygon class="bb4b4395-0810-447e-9358-b5d3e74316c5" points="65.63 519.87 56.68 514.6 56.68 481.04 65.63 481.04 65.63 519.87"/>
        <polygon class="f1e7efa8-8257-4809-8739-397d2cf63ee5" points="38.08 475.7 38.08 500.45 50.69 500.45 53.77 481.04 38.08 475.7"/>
        <polygon class="bb4b4395-0810-447e-9358-b5d3e74316c5" points="30.92 497.47 38.08 500.45 38.08 475.7 30.92 472.61 30.92 497.47"/>
        <polygon class="bb4b4395-0810-447e-9358-b5d3e74316c5" points="257.62 481.04 271.68 519.87 259.81 515.48 246.63 481.04 257.62 481.04"/>
        <polygon class="bb4b4395-0810-447e-9358-b5d3e74316c5" points="214.32 481.04 224.78 504.73 214.32 499.07 205.83 481.04 214.32 481.04"/>
        <polygon class="f1e7efa8-8257-4809-8739-397d2cf63ee5" points="214.32 481.04 224.78 504.73 240.91 504.73 240.91 481.04 214.32 481.04"/>
        <polygon class="f1e7efa8-8257-4809-8739-397d2cf63ee5" points="257.62 481.04 271.68 519.87 292.12 519.87 292.12 481.04 257.62 481.04"/>
        <polygon class="f8c97ef9-06d3-4f20-9baa-1d8e6dbd3d68" points="74.64 199.2 276.83 451.94 74.64 451.94 74.64 199.2"/>
        <circle class="e35aabe7-0c4f-48b5-9c34-d6d67e3df577" cx="196.97" cy="322.06" r="8.86"/>
        <circle class="e35aabe7-0c4f-48b5-9c34-d6d67e3df577" cx="157.31" cy="322.06" r="8.86"/>
        <line class="fd784ed1-3c58-4b38-bbeb-6432d0e0c246" x1="176.76" y1="199.78" x2="176.76" y2="452.52"/>
        <path class="bbd94a37-09df-4d3f-915b-baa56601a0f2" d="M58,167.24c-10.23-.63-11.93,15.38-1.35,17.1-18.36,4.22-26.83,5.9-26.83,5.9s-8.57-10.2,1.88-14.45S58,167.24,58,167.24Z"/>
      </g>
      <g>
        <polygon class="b77a33ff-350e-42f2-aaf7-141a44e26edf" points="151.98 41.51 151.98 61.77 165.15 61.77 165.15 56.21 168.57 56.21 168.57 44.15 165.15 43.77 165.15 41.51 151.98 41.51"/>
        <path class="b9118436-e661-4a98-a2a4-5405f7cfdb12" d="M152,41.51h13.17l7.57-25.64s1.46-4.15-7.57-4.52-21.09,0-21.09,0a7.73,7.73,0,0,0-2.36,2.84c-1.55,3.29-.09,7,2.36,12.15C146,30.52,148.63,35.68,152,41.51Z"/>
        <polygon class="a2d8cab6-2822-4934-98c5-5ad19daafeb5" points="165.15 43.77 168.57 44.15 168.57 56.21 165.15 56.21 165.15 43.77"/>
        <path class="f02b756d-65ab-46e6-ab9d-524cd6b7a075" d="M152,41.51s1.83,18.87,13.17,20.26H152Z"/>
        <path class="a2d8cab6-2822-4934-98c5-5ad19daafeb5" d="M152,61.77s11.56-.05,13.17,0l0,1.58H152Z"/>
        <path class="bef2c84a-8f28-43a8-a89e-60dca219673d" d="M141.12,16.2l31.6-.33c.48-4.37-3.55-4.78-6.7-4.69s-21.07.14-21.07.14S141.33,11.37,141.12,16.2Z"/>
        <path class="a75611d9-5586-4f01-8bce-f9b2a04d6ea5" d="M172.72,15.87s1.26-5.25-6.7-4.69l-7.6.08s-2.21,4.78-5.31,4.81Z"/>
        <polygon class="a75611d9-5586-4f01-8bce-f9b2a04d6ea5" points="151.98 41.51 165.15 41.51 166.05 38.47 150.44 38.78 151.98 41.51"/>
        <path class="bef2c84a-8f28-43a8-a89e-60dca219673d" d="M150.44,38.78s8.56,3,11.7,2.64L152,41.51Z"/>
      </g>
    </g>
  </g>
</svg>
