<svg xmlns="http://www.w3.org/2000/svg" width="581" height="86" viewBox="0 0 581 86">
  <defs>
    <style>
      .b6a97dda-7bb2-4533-838a-b9f7c4d1fc58 {
        fill: #fff;
      }
    </style>
  </defs>
  <g id="aea05f5e-9119-492e-8d57-a3645a430bca" data-name="Layer 6">
    <g>
      <rect class="b6a97dda-7bb2-4533-838a-b9f7c4d1fc58" x="0.5" y="0.5" width="580" height="85" rx="12"/>
      <g>
        <path d="M45.82,64l-9.6-40.44H46l3.06,16.68c.9,4.8,1.74,10,2.4,14.1h.12c.66-4.38,1.62-9.24,2.64-14.22l3.42-16.56h9.72l3.24,17c.9,4.74,1.56,9.06,2.16,13.56h.12c.6-4.5,1.5-9.24,2.34-14l3.3-16.56h9.3L77.38,64h-9.9l-3.42-17.4c-.78-4.08-1.44-7.86-1.92-12.48H62c-.72,4.56-1.38,8.4-2.34,12.48L55.84,64Z"/>
        <path d="M96.76,52.21c.3,3.78,4,5.58,8.28,5.58a25.84,25.84,0,0,0,8.1-1.2l1.2,6.18a29,29,0,0,1-10.62,1.8c-10,0-15.66-5.76-15.66-14.94,0-7.44,4.62-15.66,14.82-15.66C112.36,34,116,41.35,116,48.61a21.67,21.67,0,0,1-.3,3.6ZM107.5,46c0-2.22-1-5.94-5.16-5.94-3.84,0-5.4,3.48-5.64,5.94Z"/>
        <path d="M138.1,64,137.56,61h-.18a10.57,10.57,0,0,1-8.4,3.6c-5.94,0-9.48-4.32-9.48-9,0-7.62,6.84-11.28,17.22-11.22V44c0-1.56-.84-3.78-5.34-3.78a16.5,16.5,0,0,0-8.1,2.22l-1.68-5.88A24.22,24.22,0,0,1,133,34c9.78,0,12.9,5.76,12.9,12.66v10.2a45.46,45.46,0,0,0,.42,7.14ZM137,50.11c-4.8-.06-8.52,1.08-8.52,4.62a3.28,3.28,0,0,0,3.6,3.48,5,5,0,0,0,4.74-3.36,6.54,6.54,0,0,0,.18-1.56Z"/>
        <path d="M153.1,44.29c0-4.32-.12-7.14-.24-9.66h7.86L161,40h.24A8.62,8.62,0,0,1,169.18,34a9.4,9.4,0,0,1,1.92.12v8.58a13.07,13.07,0,0,0-2.46-.24c-3.36,0-5.64,1.8-6.24,4.62a10.75,10.75,0,0,0-.18,2V64H153.1Z"/>
        <path d="M210,63.25a22.25,22.25,0,0,1-8.16,1.32c-9.48,0-15.54-5.76-15.54-15,0-8.58,5.88-15.6,16.8-15.6a21.16,21.16,0,0,1,7,1.14l-1.44,6.78a12.48,12.48,0,0,0-5.1-.9c-4.8,0-7.92,3.42-7.86,8.22,0,5.4,3.6,8.22,8,8.22a14.07,14.07,0,0,0,5.22-.9Z"/>
        <path d="M215.08,21.37h9.12V64h-9.12Z"/>
        <path d="M238.6,52.21c.3,3.78,4,5.58,8.28,5.58a25.84,25.84,0,0,0,8.1-1.2l1.2,6.18a29,29,0,0,1-10.62,1.8c-10,0-15.66-5.76-15.66-14.94,0-7.44,4.62-15.66,14.82-15.66,9.48,0,13.08,7.38,13.08,14.64a21.67,21.67,0,0,1-.3,3.6ZM249.34,46c0-2.22-1-5.94-5.16-5.94-3.84,0-5.4,3.48-5.64,5.94Z"/>
        <path d="M279.94,64,279.4,61h-.18a10.57,10.57,0,0,1-8.4,3.6c-5.94,0-9.48-4.32-9.48-9,0-7.62,6.84-11.28,17.22-11.22V44c0-1.56-.84-3.78-5.34-3.78a16.5,16.5,0,0,0-8.1,2.22l-1.68-5.88A24.22,24.22,0,0,1,274.84,34c9.78,0,12.9,5.76,12.9,12.66v10.2a45.46,45.46,0,0,0,.42,7.14Zm-1.08-13.86c-4.8-.06-8.52,1.08-8.52,4.62a3.28,3.28,0,0,0,3.6,3.48,5,5,0,0,0,4.74-3.36,6.54,6.54,0,0,0,.18-1.56Z"/>
        <path d="M294.94,44c0-3.66-.12-6.78-.24-9.36h7.92l.42,4h.18A10.74,10.74,0,0,1,312.28,34c6,0,10.5,4,10.5,12.6V64h-9.12V47.71c0-3.78-1.32-6.36-4.62-6.36a4.87,4.87,0,0,0-4.62,3.42,6.27,6.27,0,0,0-.36,2.28V64h-9.12Z"/>
        <path d="M364.24,63.25a22.25,22.25,0,0,1-8.16,1.32c-9.48,0-15.54-5.76-15.54-15,0-8.58,5.88-15.6,16.8-15.6a21.16,21.16,0,0,1,7,1.14l-1.44,6.78a12.48,12.48,0,0,0-5.1-.9c-4.8,0-7.92,3.42-7.86,8.22,0,5.4,3.6,8.22,8,8.22a14.07,14.07,0,0,0,5.22-.9Z"/>
        <path d="M369.28,21.37h9.12V64h-9.12Z"/>
        <path d="M414.76,49c0,10.74-7.62,15.66-15.48,15.66-8.58,0-15.18-5.64-15.18-15.12S390.34,34,399.76,34C408.76,34,414.76,40.15,414.76,49Zm-21.24.3c0,5,2.1,8.82,6,8.82,3.54,0,5.82-3.54,5.82-8.82,0-4.38-1.68-8.82-5.82-8.82C395.14,40.45,393.52,45,393.52,49.27Z"/>
        <path d="M430.6,26.23v8.4h6.54v6.72H430.6V52c0,3.54.84,5.16,3.6,5.16a14.89,14.89,0,0,0,2.7-.24l.06,6.9a17.89,17.89,0,0,1-5.94.78,9.49,9.49,0,0,1-6.84-2.52c-1.68-1.74-2.52-4.56-2.52-8.7v-12h-3.9V34.63h3.9V28.27Z"/>
        <path d="M442.42,21.37h9.12V38.11h.12a11,11,0,0,1,3.6-3A10.24,10.24,0,0,1,460,34c5.82,0,10.26,4,10.26,12.84V64h-9.12V47.83c0-3.84-1.32-6.48-4.74-6.48a4.85,4.85,0,0,0-4.56,3.18,5.8,5.8,0,0,0-.3,2V64h-9.12Z"/>
        <path d="M484.6,52.21c.3,3.78,4,5.58,8.28,5.58a25.84,25.84,0,0,0,8.1-1.2l1.2,6.18a29,29,0,0,1-10.62,1.8c-10,0-15.66-5.76-15.66-14.94,0-7.44,4.62-15.66,14.82-15.66,9.48,0,13.08,7.38,13.08,14.64a21.67,21.67,0,0,1-.3,3.6ZM495.34,46c0-2.22-1-5.94-5.16-5.94-3.84,0-5.4,3.48-5.64,5.94Z"/>
        <path d="M509.2,56a17.83,17.83,0,0,0,7.86,2.22c2.76,0,3.9-1,3.9-2.46s-.9-2.22-4.32-3.36c-6.06-2-8.4-5.34-8.34-8.82,0-5.46,4.68-9.6,11.94-9.6a19.68,19.68,0,0,1,8.28,1.68L526.9,42a14.4,14.4,0,0,0-6.36-1.68c-2.22,0-3.48.9-3.48,2.4s1.14,2.1,4.74,3.36c5.58,1.92,7.92,4.74,8,9.06,0,5.46-4.32,9.48-12.72,9.48a20.77,20.77,0,0,1-9.48-2Z"/>
        <path d="M534,59.11a5.28,5.28,0,0,1,5.4-5.58c3.18,0,5.34,2.28,5.34,5.58a5.37,5.37,0,1,1-10.74,0Z"/>
      </g>
    </g>
  </g>
</svg>
