<svg xmlns="http://www.w3.org/2000/svg" width="222.64" height="200.48" viewBox="0 0 222.64 200.48">
  <defs>
    <style>
      .a2db1e4b-ec36-405c-a0b9-413cda710690 {
        fill: #fff;
      }

      .a2db1e4b-ec36-405c-a0b9-413cda710690, .a4e50bbc-6c0b-45cd-ace8-22fcd9ed160c, .a776f117-531e-4e99-a4e0-2c952e2354fa, .aa6bbe14-8bd7-4ac2-b92a-9ad99904714b, .b08608c7-db2a-480c-ac3a-e0884199e793, .b42024bd-7972-48df-92e7-7e157618a744, .bbca72a1-5a4e-41c5-a093-e6808eb5b0b2, .f088eade-3c99-4ef4-a162-6a154ff122de, .f3b3d31e-57eb-432a-86ad-327d5b41813d, .fd0b80ca-5932-4254-9529-340781d6c6c1, .feaf8489-8e93-4e02-b16d-3b610bcdfcf5 {
        fill-rule: evenodd;
      }

      .f088eade-3c99-4ef4-a162-6a154ff122de, .f3b3d31e-57eb-432a-86ad-327d5b41813d {
        fill: #4eb0ed;
      }

      .f088eade-3c99-4ef4-a162-6a154ff122de {
        stroke: #7c7c7c;
        stroke-miterlimit: 10;
      }

      .fd0b80ca-5932-4254-9529-340781d6c6c1 {
        fill: #3799ba;
      }

      .b08608c7-db2a-480c-ac3a-e0884199e793 {
        fill: #6ef9f5;
      }

      .aa6bbe14-8bd7-4ac2-b92a-9ad99904714b {
        fill: #e6ffff;
      }

      .feaf8489-8e93-4e02-b16d-3b610bcdfcf5 {
        fill: #ed97ab;
      }

      .a4e50bbc-6c0b-45cd-ace8-22fcd9ed160c {
        fill: #c41d60;
      }

      .b42024bd-7972-48df-92e7-7e157618a744 {
        fill: #9c0e47;
      }

      .a776f117-531e-4e99-a4e0-2c952e2354fa {
        fill: #ab245a;
      }

      .bbca72a1-5a4e-41c5-a093-e6808eb5b0b2 {
        fill: #3f91c4;
      }
    </style>
  </defs>
  <g id="bab115ee-3fb2-4ad1-8c13-526decb711d6" data-name="Layer 8">
    <g>
      <path class="a2db1e4b-ec36-405c-a0b9-413cda710690" d="M20.3,196.9a3.62,3.62,0,0,1-.36-.42h0a3.74,3.74,0,0,1-.67-.92,18,18,0,0,1-1.62-4.2,17.26,17.26,0,0,1-.47-4.29,37.42,37.42,0,0,1,1.55-8.94,84.66,84.66,0,0,1,6.1-16.24,80.72,80.72,0,0,1,6.75-11.14,3.65,3.65,0,0,1,.86-.85c2.28-1.63,4.53-3.33,6.89-5.17.58-.46,1.17-.92,1.76-1.4,1.17-.94,2.37-1.91,3.58-2.92.61-.5,1.22-1,1.83-1.54,3.57-3,7.45-6.43,11.87-10.45S68,119.52,74.87,113c5.14-4.86,10.75-10.22,17-16.17C97.28,91.66,103.18,86,109.63,79.9a53.57,53.57,0,0,1,4.68-4l.81-.58a16,16,0,0,1,3-1.68,10.27,10.27,0,0,1,6.28-.48,10.58,10.58,0,0,0,5.64-.33c1.23-.37,4-4.37,5.34-6.29l.25-.36c3.56-5.12,7.59-10.92,13.17-11.84,1.28-.22,2.62-.5,4-.84l1.92-.52a36.7,36.7,0,0,0,4.66-1.67,7.3,7.3,0,0,0,1.28-.69,17.88,17.88,0,0,0,2.67-2.69c.45-.55.78-1,1-1.36s.44-.62.44-.62l-8.61-6.31a4,4,0,0,1-.44-.38,3.78,3.78,0,0,1,.57-5.8l1.2-.8a4.56,4.56,0,0,1,.42-.31l1.14-.73a3.24,3.24,0,0,1,.36-.2,1.54,1.54,0,0,1,.19-.17,3.76,3.76,0,0,1,1.41-4.5l1.26-.84a3.3,3.3,0,0,1,.3-.22l1.17-.77a4.74,4.74,0,0,1,.54-.29l0-.05a3.75,3.75,0,0,1-.27-1.49A3.8,3.8,0,0,1,165.72,20l1.23-.82.33-.24,1.18-.77a3.84,3.84,0,0,1,.53-.28l.06-.05a3.75,3.75,0,0,1,1.44-4.58l2.73-1.77a3.59,3.59,0,0,1,.38-.21l.15-.14a3.88,3.88,0,0,1-.29-1.55,3.75,3.75,0,0,1,1.67-3l2.7-1.81a3.91,3.91,0,0,1,.57-.31,3.8,3.8,0,0,1,.38-.29l2.7-1.8a3.76,3.76,0,0,1,4.31.08l7.49,5.47a8.37,8.37,0,0,1,1.92-1.08,6.64,6.64,0,0,1,3.3-.46,6.53,6.53,0,0,1,1.82.48h0a5.6,5.6,0,0,1,.65.34,9.3,9.3,0,0,1,2.24,1.63c1.59,1.59,4.67,6.13-1.07,13.85L180.89,51.35c-.5.69-1,1.39-1.6,2.1s-1,1.24-1.54,1.87l-.47.57-1.18,1.34c-.27.32-.54.63-.82.94q-1.08,1.19-2.22,2.37A19.82,19.82,0,0,1,166,65c-2,.8-4,1.45-6,2l-.89.27c-1.42.42-2.77.82-3.77,1.2a5.44,5.44,0,0,0-1.18.53l-.37.41-.45.56a2.35,2.35,0,0,1-.19.25c-.47.62-.95,1.31-1.45,2.05l-.9,1.34-3.34-1.77,3.15,2.06-1.75,2.7-3.33-1.79,3.16,2-.9,1.37c-.67,1-1.24,1.85-1.76,2.58l-.39.53-.71.92-.45.54-.43.45a30.29,30.29,0,0,1-2.28,2.13,27,27,0,0,1-4.42,3.09l-1.05.56c-.67.35-1.34.66-2,1l-1.92.82c-1.36.57-2.65,1.11-4,1.83l-.89.82c-.39.35-1.43,1.34-1.43,1.34l-1.56,1.52-2,2-4,4L113.89,107l-.07.2a7.16,7.16,0,0,1-.72,1.38,3.57,3.57,0,0,1-.3.38,3.25,3.25,0,0,1-.23.29,6.4,6.4,0,0,1-1.77,1.41l-.43.22-.4.17-6.11,6.37s-.09.25-.12.31-.15.34-.23.52l-.25.48-.25.42-.18.24a6.4,6.4,0,0,1-.41.5,6.21,6.21,0,0,1-1,.93l-.44.29a6.28,6.28,0,0,1-.81.43l-.38.15-6,6.31a7.62,7.62,0,0,1-.41,1l-.16.29a4.51,4.51,0,0,1-.28.49,2.78,2.78,0,0,1-.26.34c-.08.12-.17.23-.26.34a6.52,6.52,0,0,1-1.83,1.43l-.34.18c-.16.08-.32.14-.49.21l-6.12,6.47c0,.11-.07.22-.1.3s0,.08-.07.15-.17.35-.23.47l-.15.28c-.08.14-.17.29-.25.41a2.27,2.27,0,0,1-.18.25,5,5,0,0,1-.41.5,6.08,6.08,0,0,1-1.62,1.32c-.13.07-.29.16-.45.23l-.38.17-6.3,6.7-.18.42a5.42,5.42,0,0,1-.27.54,4.16,4.16,0,0,1-.23.42,14.5,14.5,0,0,1-.55.73A6.85,6.85,0,0,1,70.63,153l-.35.19-.36.17L36.32,189.2l-2.94-2.37,2.75,2.57-6.29,6.66-2.9-2.42,2.72,2.61-.67.69-2.78-2.55,2.61,2.72-.31.31a4.53,4.53,0,0,1-1.13.8l-.25.11a8,8,0,0,1-1.18.34l-.48.08a3.27,3.27,0,0,1-.44,0h-.38a4.79,4.79,0,0,1-1-.09,3.34,3.34,0,0,1-.51-.11,5.82,5.82,0,0,1-1.07-.4l-.41-.22a4,4,0,0,1-.4-.27l-.5-.39C20.6,197.18,20.44,197,20.3,196.9Z"/>
      <g>
        <path class="f088eade-3c99-4ef4-a162-6a154ff122de" d="M126.18,89.52c5.34-2.94,9.55-3.16,15.2-9a3.28,3.28,0,0,0,.3-.33l0,0c.29-.35.63-.77,1-1.27l.14-.18h0c2.17-3,5.27-8.2,7.45-11l0,0c.12-.17.24-.32.36-.47a8.76,8.76,0,0,1,1.09-1.18c2.56-2.22,14.1-3.45,18.61-8.16,1.45-1.51,2.83-3,4.06-4.48l0,0c.1-.13.22-.26.32-.38l0,0c1.14-1.35,2.2-2.69,3.16-4L199.1,20.37c2-2.69,4.65-7.53,0-9.92-.14-.07-.2-.14-.31-.18-2-.87-4,1-5.14,2.53v0l-10.1-7.37-2.7,1.81,2,1.45-.61.85-2.32-1.7-2.7,1.8L180.47,12l-.59.83-1-.71L176.19,14l1.88,1.38-.61.85-2.19-1.59-2.73,1.77,3.14,2.3-.59.82-.89-.65-1.18.77h0l-1.58,1.06,1.82,1.33-.6.84-2.16-1.57-1.18.77h0l-1.53,1,3.07,2.25-.59.82-.82-.61-1.18.77v0l-1.57,1.05,1.76,1.29-.61.84L165.8,28l-1.18.76v0l-1.53,1,3,2.21-.59.82-.76-.56-1.19.77h0l-1.59,1,1.72,1.27-.61.85-2-1.48-1.15.74h0l-1.57,1.06L170,45.1l-2.31,3.15a23.7,23.7,0,0,1-4.7,5.26C161.2,55,155.13,57.06,149.43,58c-7.33,1.21-12.81,16.79-18.33,18.39-9.76,2.82-7.76-4.33-18.87,6.22-40.28,38.29-59,57-77.61,70.32A78.78,78.78,0,0,0,22.36,179.1c-1.7,6.31-2.16,10.14.23,14.69.1.1.22.26.39.44h0l.24.22a2.24,2.24,0,0,0,2.55.35c.41-.17,20.08-21.33,42.07-44.76a2.6,2.6,0,0,0,1.57-.87,3,3,0,0,0,.2-.29h0a1.4,1.4,0,0,0,.09-.17,3,3,0,0,0,.16-.31,2,2,0,0,0,.11-.26c.05-.14.1-.29.14-.45l0-.12,7.6-8.08a2.51,2.51,0,0,0,1.69-.91,2.91,2.91,0,0,0,.26-.33h0l0-.1a3.62,3.62,0,0,0,.25-.48s0,0,0,0a4.21,4.21,0,0,0,.23-.81l7.5-7.93a2.71,2.71,0,0,0,1.8-.91,3,3,0,0,0,.2-.29h0a2,2,0,0,0,.11-.2,1.14,1.14,0,0,0,.1-.19,3.89,3.89,0,0,0,.21-.51.56.56,0,0,0,0-.12,4.71,4.71,0,0,0,.12-.54c2.53-2.67,5-5.28,7.43-7.81a2.61,2.61,0,0,0,1.81-.93,4.19,4.19,0,0,0,.26-.33h0a.25.25,0,0,1,0-.07,4,4,0,0,0,.54-1.45c2.62-2.74,5.14-5.37,7.51-7.83a2.63,2.63,0,0,0,1.73-.87,3.7,3.7,0,0,0,.21-.33h0a3.84,3.84,0,0,0,.56-1.42C117.76,97.6,123.39,92,126.18,89.52Z"/>
        <g>
          <polygon class="fd0b80ca-5932-4254-9529-340781d6c6c1" points="172.97 46.3 161.69 38.19 183.93 7.22 195.24 15.3 172.97 46.3"/>
          <path class="b08608c7-db2a-480c-ac3a-e0884199e793" d="M196,14.53,183.57,5.45l-2.7,1.81L194.2,17Zm-21.26,30.2-13.67-10-2.7,1.81L173,47.26Zm2.38-3.34-12.37-9.08L162,34.11l13.33,9.77ZM179.47,38,165.8,28l-2.7,1.8,14.6,10.7Zm2.38-3.34-12.37-9.08-2.74,1.84L180,37.17Zm2.34-3.37-13.67-10-2.7,1.81,14.6,10.7ZM186.57,28,174.2,18.88l-2.74,1.84,13.3,9.73Zm2.34-3.38-13.64-9.94-2.73,1.77,14.6,10.7Zm2.38-3.34-12.37-9.08L176.19,14l13.29,9.74Zm2.35-3.37-13.71-10-2.7,1.8L191.86,20.4Z"/>
          <path class="aa6bbe14-8bd7-4ac2-b92a-9ad99904714b" d="M174.75,44.73l-13.67-10-1.15.74L174,45.81ZM196,14.53,183.57,5.45l-1.15.8,12.79,9.36Zm-2.37,3.34-13.71-10-1.15.8L192.87,19Zm-2.35,3.37-12.37-9.08-1.15.81,12.72,9.35Zm-2.38,3.34-13.64-9.94-1.18.77,14.09,10.25ZM186.57,28,174.2,18.88l-1.18.77L185.8,29Zm-2.38,3.34-13.67-10-1.18.77,14.12,10.29Zm-2.34,3.37-12.37-9.08-1.18.77,12.78,9.36ZM179.47,38,165.8,28l-1.18.76,14.12,10.29Zm-2.34,3.38-12.37-9.08-1.19.77,12.79,9.35Z"/>
          <path class="feaf8489-8e93-4e02-b16d-3b610bcdfcf5" d="M22.59,193.79a.91.91,0,0,0,.24.11c4.41-1,63.79-74,100-104.52,5-4.2,9.5-5,13.11-7.2,5.44-3.17,8.31-14.84,14.9-18.4,6.42-3.54,15.68-5.65,16-6.15,0,0,32.89-45.95,32.33-47.18-.14-.07-.2-.14-.31-.18-2-.87-4,1-5.14,2.53l-26,35.45a23.7,23.7,0,0,1-4.7,5.26C161.2,55,155.13,57.06,149.43,58c-7.33,1.21-12.81,16.79-18.33,18.39-9.76,2.82-7.76-4.33-18.87,6.22-40.28,38.29-59,57-77.61,70.32A78.78,78.78,0,0,0,22.36,179.1c-1.7,6.31-2.16,10.14.23,14.69Z"/>
          <path class="a4e50bbc-6c0b-45cd-ace8-22fcd9ed160c" d="M199.13,10.45c-2,3-13.79,20-27.58,37.06-1.94,2.43-4,4.79-6.28,7.11-4.13,4.34-15.41,5.37-17.5,7.12-4.61,3.93-9.43,14.79-14.83,17.72-4.13,2.27-8,.9-10.56,1.82-6.94,2.48-70.75,66.28-83.76,76.75-6.5,11.39-15.5,31.11-16,35.76a2.49,2.49,0,0,0,3.17,1c.85-.36,86.44-93,100.42-105.29,5.34-2.94,9.55-3.16,15.2-9,2.39-2.39,7.92-12.39,10.35-14.47s14.1-3.45,18.61-8.16a92,92,0,0,0,7.52-8.83L199.1,20.37c2-2.69,4.65-7.53,0-9.92Z"/>
          <path class="b42024bd-7972-48df-92e7-7e157618a744" d="M23,194.24C61.39,141.51,124,85,127.66,85s11.83-3.37,15.2-6.26a16.75,16.75,0,0,1-1.48,1.82c-5.65,5.79-9.86,6-15.2,9-14,12.26-99.57,104.93-100.42,105.29a2.36,2.36,0,0,1-2.79-.57ZM150.28,67.75c.69-2.34,3.45-5.37,8.49-7.18,6.07-2.08,8,.42,16-7.51-1.31,1.58-2.82,3.23-4.4,4.88-4.51,4.71-16.05,5.94-18.61,8.16a9.16,9.16,0,0,0-1.45,1.65Z"/>
          <path class="a776f117-531e-4e99-a4e0-2c952e2354fa" d="M110.47,105.09l-.52-.72-2.1-2.64c-1.66-2.06-4-2.53-5.25-1.08a4.5,4.5,0,0,0-.4.68,6.53,6.53,0,0,0,1.47,4.3l2.11,2.64a4.54,4.54,0,0,0,.82.82c1.31-1.38,2.62-2.69,3.87-4Z"/>
          <path class="a776f117-531e-4e99-a4e0-2c952e2354fa" d="M100.21,115.76a6,6,0,0,0-.76-1.17l-1.93-2.47c-1.51-1.92-3.76-2.28-5-.87a2,2,0,0,0-.44.64,5.7,5.7,0,0,0,1.27,4.1l1.93,2.47a4.73,4.73,0,0,0,1.21,1.13c1.24-1.31,2.45-2.59,3.69-3.83Z"/>
          <path class="a776f117-531e-4e99-a4e0-2c952e2354fa" d="M90,126.42A5.65,5.65,0,0,0,89.2,125l-1.87-2.4c-1.44-1.86-3.62-2.15-4.9-.74-.13.21-.27.41-.43.64a5.8,5.8,0,0,0,1.16,4l1.9,2.44a5.82,5.82,0,0,0,1.4,1.2Z"/>
          <path class="a776f117-531e-4e99-a4e0-2c952e2354fa" d="M80,137a6.08,6.08,0,0,0-.77-1.3l-1.93-2.41c-1.48-1.88-3.66-2.25-4.9-.8a2.16,2.16,0,0,0-.44.64,5.69,5.69,0,0,0,1.2,4l1.9,2.43a4.55,4.55,0,0,0,1.34,1.21Z"/>
          <path class="a776f117-531e-4e99-a4e0-2c952e2354fa" d="M70.1,147.46a2.46,2.46,0,0,0-.49-.69l-2.14-2.67c-1.62-2-4-2.5-5.21-1a4.56,4.56,0,0,0-.37.65A6.23,6.23,0,0,0,63.33,148l2.14,2.68a10.59,10.59,0,0,0,.79.85Z"/>
          <path class="bbca72a1-5a4e-41c5-a093-e6808eb5b0b2" d="M109.54,101l-1.76-2.3c-1.34-1.75-3.49-2-4.73-.56s-1.15,4,.2,5.78l1.76,2.3c1.34,1.75,3.45,2,4.7.6a4.87,4.87,0,0,0-.17-5.82Z"/>
          <path class="bbca72a1-5a4e-41c5-a093-e6808eb5b0b2" d="M99.45,111.57l-1.79-2.27c-1.34-1.75-3.42-2-4.7-.59a4.84,4.84,0,0,0,.17,5.81l1.76,2.3c1.34,1.75,3.49,2,4.73.56s1.21-4-.17-5.81Z"/>
          <path class="bbca72a1-5a4e-41c5-a093-e6808eb5b0b2" d="M89.37,122.2l-1.76-2.3c-1.34-1.75-3.49-2-4.73-.56s-1.18,4,.2,5.78l1.72,2.27c1.38,1.78,3.49,2,4.77.59a4.8,4.8,0,0,0-.2-5.78Z"/>
          <path class="bbca72a1-5a4e-41c5-a093-e6808eb5b0b2" d="M79.29,132.77l-1.76-2.3c-1.35-1.75-3.46-2-4.74-.56a4.81,4.81,0,0,0,.2,5.78l1.76,2.3c1.35,1.75,3.46,2,4.7.59s1.18-4.06-.16-5.81Z"/>
          <path class="bbca72a1-5a4e-41c5-a093-e6808eb5b0b2" d="M69.2,143.4l-1.76-2.3c-1.34-1.74-3.49-2-4.7-.59s-1.21,4,.13,5.78l1.76,2.3c1.38,1.78,3.49,2,4.77.59a4.8,4.8,0,0,0-.2-5.78Z"/>
          <path class="f3b3d31e-57eb-432a-86ad-327d5b41813d" d="M109.54,101l-1.76-2.3A3.28,3.28,0,0,0,104,97.44a5,5,0,0,0,.43,5.48l1.76,2.29a3.29,3.29,0,0,0,3.82,1.27,4.93,4.93,0,0,0-.43-5.48Z"/>
          <path class="f3b3d31e-57eb-432a-86ad-327d5b41813d" d="M99.45,111.57l-1.79-2.27A3.1,3.1,0,0,0,93.91,108a4.78,4.78,0,0,0,.4,5.44l1.76,2.3A3.14,3.14,0,0,0,99.89,117a5,5,0,0,0-.44-5.47Z"/>
          <path class="f3b3d31e-57eb-432a-86ad-327d5b41813d" d="M89.37,122.2l-1.76-2.3a3.17,3.17,0,0,0-3.82-1.26,5,5,0,0,0,.43,5.48l1.8,2.26a3.2,3.2,0,0,0,3.78,1.3,4.85,4.85,0,0,0-.43-5.48Z"/>
          <path class="f3b3d31e-57eb-432a-86ad-327d5b41813d" d="M79.29,132.77l-1.76-2.3a3.19,3.19,0,0,0-3.79-1.23,4.87,4.87,0,0,0,.4,5.44L75.9,137a3.29,3.29,0,0,0,3.82,1.27,5,5,0,0,0-.43-5.48Z"/>
          <path class="f3b3d31e-57eb-432a-86ad-327d5b41813d" d="M69.2,143.4l-1.76-2.3a3.21,3.21,0,0,0-3.79-1.3,4.87,4.87,0,0,0,.44,5.48l1.76,2.3a3.2,3.2,0,0,0,3.78,1.3,4.92,4.92,0,0,0-.43-5.48Z"/>
        </g>
      </g>
    </g>
  </g>
</svg>
