<svg xmlns="http://www.w3.org/2000/svg" xmlns:xlink="http://www.w3.org/1999/xlink" width="161" height="162" viewBox="0 0 161 162">
  <defs>
    <style>
      .b02dfe8e-9cc5-47f4-aa6f-daa09ae4c79b {
        fill: none;
      }

      .b02dfe8e-9cc5-47f4-aa6f-daa09ae4c79b, .e32ce670-af8f-4c91-a27e-946c53737a55 {
        stroke: #323232;
      }

      .b02dfe8e-9cc5-47f4-aa6f-daa09ae4c79b, .e01884a5-f726-4516-ac65-8990b9e2c715, .e32ce670-af8f-4c91-a27e-946c53737a55 {
        stroke-miterlimit: 10;
      }

      .bdbf822a-c4d6-49f0-8c01-31ce591f3567 {
        fill: #fff;
      }

      .a6be536d-3157-4196-a347-4099cb0bc32b, .b20904b1-9440-4ed6-9c8f-bbe8722af745, .b38367a6-2484-4092-9fee-5dce0ffe2775, .b7d0aef8-2a13-46dc-852c-1b9e7dfdabd8, .bdbf822a-c4d6-49f0-8c01-31ce591f3567, .e01884a5-f726-4516-ac65-8990b9e2c715, .f58654bc-b82c-49d2-a708-5cebafbf8eb1 {
        fill-rule: evenodd;
      }

      .a6be536d-3157-4196-a347-4099cb0bc32b, .e01884a5-f726-4516-ac65-8990b9e2c715 {
        fill: #4a82f4;
      }

      .e01884a5-f726-4516-ac65-8990b9e2c715 {
        stroke: #282828;
      }

      .b38367a6-2484-4092-9fee-5dce0ffe2775 {
        fill: #0043a5;
      }

      .b20904b1-9440-4ed6-9c8f-bbe8722af745 {
        fill: #3799ba;
      }

      .f58654bc-b82c-49d2-a708-5cebafbf8eb1 {
        fill: #6ef9f5;
      }

      .b7d0aef8-2a13-46dc-852c-1b9e7dfdabd8 {
        fill: #e6ffff;
      }

      .f4b89a65-3b21-4df6-af0c-38582e16a55e {
        clip-path: url(#ab392e32-8a04-4258-aef0-8996e46cd45b);
      }

      .e32ce670-af8f-4c91-a27e-946c53737a55 {
        fill: #ffb6b6;
      }
    </style>
    <clipPath id="ab392e32-8a04-4258-aef0-8996e46cd45b">
      <path class="b02dfe8e-9cc5-47f4-aa6f-daa09ae4c79b" d="M252.79,340.31l-2.42-4.95-1.82-3.83-.14-.18c-8.44-17.3-26.76-55-33.55-69.8-8.93-19.55-9-37.34-22.3-34.8-3.92.75-12.33,20-15.28,34.59s-16.88,47-21.38,60.14c-2.32,6.8-4.78,15-6.62,21.37l-.12,0-.95,3.73c-1.14,4-1.86,6.64-1.86,6.64s8.09-.27,20.08,3l-.3,0-2,23s0-.11,0-.26l0,.26s-2.24,6.84,22.3,4.71c4.81-.42,9-.75,12.63-1,.79,9.7,1.84,22.33,2.29,26.82.75,7.57-.25,20.28-.25,20.28s13-7.23,22-17.1c7.95-8.75,12.92-13.88,11.74-19l0,.06,0-.12v0l0-.1c-.21-1.26-.89-5.36-1.82-10.84l-.86-5.91s-.06-.13-.19-.35c-.32-1.85-.65-3.77-1-5.74l-1.45-9-.12,0c-.42-2.41-.83-4.77-1.23-7,6.51-.92,14.85-2.25,18.4-3.5C252.8,349.12,255.05,344.72,252.79,340.31Z"/>
    </clipPath>
  </defs>
  <g id="a5fccf2a-3c66-4eef-84e1-43d4deff3dda" data-name="Layer 10">
    <g>
      <path class="bdbf822a-c4d6-49f0-8c01-31ce591f3567" d="M123.6,157.15c-.54.16-1,.29-1.53.4l-.41.08-1.23.23-.5.06c-.46.06-.79.09-1.11.12l-.67,0-1,0h-.62c-.34,0-.66,0-1,0l-.59,0c-.35,0-.7-.07-1-.11l-.47-.06c-.51-.07-1-.16-1.48-.26l-.11,0c-.45-.09-.89-.2-1.33-.32l-.34-.1c-.44-.12-.75-.22-1.06-.32l-.55-.19c-.27-.09-.55-.19-.82-.3l-.53-.21c-.27-.11-.53-.21-.79-.33l-.51-.22-1.25-.61-.83-.44-.39-.21-1.13-.66c-.38-.23-.74-.46-1.1-.7l-1.07-.73-1-.74-1-.74-1.26-1-.83-.72c-.52-.47-1-.94-1.49-1.39l-.9-.89-1.05-1.1-.84-.94-.38-.44a5.58,5.58,0,0,1-.38-.47s-.49-.63-.5-.63l-34,17a2.62,2.62,0,0,1-.46.19A3.21,3.21,0,0,1,52,157.64l-.48-4.14a2.67,2.67,0,0,1-.15-.68L51,149.36a3.26,3.26,0,0,1,.15-1.32,3.26,3.26,0,0,1-.53-1.46L50,140.1l-3.08,1.54a3.66,3.66,0,0,1-.46.18,3.17,3.17,0,0,1-2.5-.23,3.21,3.21,0,0,1-1.66-2.45L41.77,135a3.35,3.35,0,0,1-.11-.55l-.36-3.57a3.13,3.13,0,0,1,.2-1.49,3.12,3.12,0,0,1-.46-1.3l-.5-4.2a3.14,3.14,0,0,1-.12-.61l-.18-1.69-3.08,1.54a2.88,2.88,0,0,1-.45.19,3.23,3.23,0,0,1-2.51-.24,3.19,3.19,0,0,1-1.66-2.45l-.48-4.12A3.69,3.69,0,0,1,32,116l-.36-3.58a3.09,3.09,0,0,1,.2-1.48,3.31,3.31,0,0,1-.46-1.31l-.49-4.19a2.63,2.63,0,0,1-.13-.62l-.17-1.68-3.09,1.54a4.22,4.22,0,0,1-.45.18,3.2,3.2,0,0,1-4.17-2.73L22,93.82a3.13,3.13,0,0,1,.15-1.33,3.23,3.23,0,0,1-.53-1.41l-.77-6.53-3.23,1.61a3.57,3.57,0,0,1-.45.19,3.24,3.24,0,0,1-2.51-.24A3.21,3.21,0,0,1,13,83.66l-.94-8.22a3.23,3.23,0,0,1,.19-1.52,3.24,3.24,0,0,1-.45-1.32l-1-8.22a3.2,3.2,0,0,1,1.75-3.23L42.11,46.32,42,46.06c-.27-.63-.55-1.3-.83-2l-.41-1.13-.5-1.49c-.11-.32-.21-.65-.3-1l-.09-.31c-.11-.35-.2-.7-.3-1a2.63,2.63,0,0,0-.08-.3l-.33-1.39a40.19,40.19,0,0,1-.76-4.54,1.36,1.36,0,0,0,0-.2c0-.48-.08-.92-.11-1.36V31c0-.51,0-.9,0-1.29v-.44c0-.44,0-.83,0-1.22v-.46c0-.43.06-.81.09-1.2l.05-.5c0-.42.1-.84.17-1.26l.06-.4c.08-.54.19-1.08.32-1.62,0,0,0-.05,0-.07.14-.57.29-1.14.47-1.71,0,0,.07-.22.09-.27.16-.49.31-.94.49-1.39l.22-.54c.15-.37.31-.74.49-1.1L41,17c.21-.42.39-.76.58-1.09l.39-.65c.19-.31.4-.64.62-1l.44-.63c.22-.31.47-.63.73-.95s.34-.43.47-.58c.29-.34.6-.68.91-1l.44-.47c.47-.47,1-.93,1.48-1.38l0,0A32.36,32.36,0,0,1,58,3.2l.22-.07,1.21-.37c1-.27,2-.51,3-.69a32.61,32.61,0,0,1,4.66-.53,30.78,30.78,0,0,1,3.19.05A30,30,0,0,1,73.5,2c.54.11,1.08.23,1.61.36A25.55,25.55,0,0,1,85.83,8.05c.46.41.92.85,1.37,1.31a31.89,31.89,0,0,1,4.89,6.54c5,8.69,16.13,29.18,27.18,49.83l4.16,7.79c11,20.58,19.07,36.24,22.86,44.11.3.55.62,1.13.93,1.74a26.9,26.9,0,0,1,2.64,7.65,20.54,20.54,0,0,1,.31,3.63,19.81,19.81,0,0,1-1.19,6.69,22.63,22.63,0,0,1-3.42,6.09,29.82,29.82,0,0,1-3.21,3.49,37.2,37.2,0,0,1-4.24,3.38l-.66.45c-.65.42-1.3.83-2,1.22l-.57.34a55.06,55.06,0,0,1-10.36,4.55ZM66.39,43.34c.48.71,1,1.47,1.4,2.26s.86,1.57,1.22,2.31l30.67,62,1.9,3.82c2.08,4.17,4.22,8.49,6.68,13.23,3.45,6.11,5.67,9.43,8,10.27a5.56,5.56,0,0,0,2.5.21,9.64,9.64,0,0,0,1.78-.39,9,9,0,0,0,5.44-4.48c1.12-2.43.71-5.33-1.23-8.61a6.88,6.88,0,0,1-.35-.66l-.08-.16a16.83,16.83,0,0,1-.91-2c-.61-.94-1.17-1.88-1.71-2.86C114.08,104.4,99,76.06,88.31,55.59l-2.62-5c-2.12-4.07-4-7.77-5.67-10.9s-2.83-5.49-3.74-7.29c-.46-.91-.83-1.66-1.09-2.2A21.14,21.14,0,0,0,73.28,27c-3.32-4.51-7.19-5.35-9.7-4.64l-.18.06A5.33,5.33,0,0,0,61,24a4.66,4.66,0,0,0-1.31,3.91,20.33,20.33,0,0,0,2,5.92c.48,1.06,1,2.18,1.64,3.39.31.63.64,1.27,1,1.93Z"/>
      <g>
        <path class="e01884a5-f726-4516-ac65-8990b9e2c715" d="M144.37,120.84c-.32-.61-.63-1.19-.93-1.73-9.58-20-44.36-84.47-54.14-101.62C78.75-1,58.09,3.92,49.16,11.65,35,23.89,44.09,43.44,46.36,47.78L14,64l1,8.21,5.62-2.8,1.2,2.35-6.56,3.29,1,8.22,9.16-4.57L26.53,81l-2.71,1.35,1,8.33L30.12,88l1.22,2.37L25.19,93.5l.83,8.26,8.86-4.43,1.17,2.29-2.52,1.25.37,3.57.05,0,.57,4.79,5.13-2.57,1.2,2.35-6.07,3.06.36,3.57,0,0,.54,4.66,8.67-4.33,1.17,2.28-2.33,1.17.37,3.57,0,0,.57,4.79,4.94-2.47,1.21,2.35-5.89,3,.36,3.57,0,0,.53,4.67,8.49-4.25,1.18,2.29L53,137.88l.37,3.57h0l.5,4.8,4.86-2.43,1.22,2.37-5.7,2.87.32,3.45.07,0,.55,4.79,36.78-18.38c.44.8.9,1.61,1.36,2.43h0s.11.15.33.41a2.3,2.3,0,0,0,.28.34c2.77,3.31,14.74,16.24,28.91,12C134.18,150.62,154.1,139.78,144.37,120.84Zm-39,7.59c-3.23-6.24-6-11.79-8.61-17.1l-30.67-62A36.77,36.77,0,0,0,63.63,45c-6.4-12.42-9.63-17.8-5.09-23.06,4.42-5.1,14.15-4.2,19.53,6.88,4.16,8.57,34.44,66.13,46.47,87.88.6,1.08,1.21,2.07,1.81,3a14.27,14.27,0,0,0,1.19,2.66c6.29,10.6-1.63,17.51-8.37,18.29C113.24,141.32,110.39,137.26,105.41,128.43Z"/>
        <g>
          <path class="b38367a6-2484-4092-9fee-5dce0ffe2775" d="M144.37,120.84c-.32-.61-.63-1.19-.93-1.73-9.58-20-44.36-84.47-54.14-101.62C78.75-1,58.09,3.92,49.16,11.65c-16,13.83-2.32,37-2.32,37L58.71,43.9C51.8,30.57,51.6,23.77,56.55,18.12c4.79-5.46,15.29-4.55,21,7.24,4.45,9.11,37.66,69.94,49.76,93.48,8.93,17.38,5.09,21.07-5.91,25.57-7,2.86-10.41-5.17-17.8-18.25L93.27,141.33s13.32,17.61,29.52,12.72C134.18,150.62,154.1,139.78,144.37,120.84Z"/>
          <g>
            <g>
              <polygon class="b20904b1-9440-4ed6-9c8f-bbe8722af745" points="94.19 135.58 62.7 151.67 18.46 65.27 49.92 49.07 94.19 135.58"/>
              <path class="f58654bc-b82c-49d2-a708-5cebafbf8eb1" d="M49.07,46.41,14,64l1,8.21L52.62,53.41ZM92.7,129.7,54.2,149.06l.94,8.21,41.22-20.6Zm-4.8-9.27L53,137.88l.87,8.37,37.63-18.82ZM83,111.2l-38.5,19.35.94,8.22,41.22-20.61Zm-4.8-9.27L43.24,119.38l1,8.33,37.51-18.78Zm-4.91-9.24-38.5,19.36.95,8.21L77,99.66Zm-4.79-9.27-35,17.45,1,8.34L72,90.42Zm-4.92-9.23L25.19,93.5l.83,8.26L67.24,81.15Zm-4.79-9.27-35,17.45,1,8.33L62.32,71.92Zm-4.92-9.24L15.24,75.07l1,8.22L57.53,62.65Z"/>
              <path class="b7d0aef8-2a13-46dc-852c-1b9e7dfdabd8" d="M92.7,129.7,54.2,149.06l.32,3.45,39.77-19.88ZM49.07,46.41,14,64l.49,3.53L50.58,49.49Zm4.79,9.27L15.24,75.07l.49,3.54L55.49,58.72Zm4.92,9.24-35,17.45.49,3.53,36-17.9Zm4.79,9.27L25.19,93.5l.36,3.57,39.61-20Zm4.92,9.23-35,17.45.37,3.57L70,86.39Zm4.79,9.27-38.5,19.36.36,3.57,39.73-20Zm4.91,9.24L43.24,119.38l.37,3.57,36.05-18.06ZM83,111.2l-38.5,19.35.36,3.57,39.73-20Zm4.91,9.23L53,137.88l.37,3.57,36.05-18Z"/>
            </g>
            <path class="b38367a6-2484-4092-9fee-5dce0ffe2775" d="M107.1,140.9c0-.09-55.43-100.29-58-100.42a6.21,6.21,0,0,0-.57.38c-3.29,2.7-1.84,7.84-.2,11.09L86.35,128c.63,1.35,3.51,7.29,6.94,13.3C95.54,145.28,105.83,144.57,107.1,140.9Z"/>
          </g>
          <path class="a6be536d-3157-4196-a347-4099cb0bc32b" d="M136.93,119.7c-.29-.57-.58-1.11-.87-1.63-9-18.75-41.43-79.39-50.56-95.52C75.65,5.15,59.08,7.76,51.68,15.82,42.37,26,49.06,40.48,49.06,40.48c9.74,22.22,19.49,40.24,39.41,80.3,2.68,5.39,5.12,10.23,8.18,16.22a14,14,0,0,0,2.24,3.22c2.5,3,10.37,11.09,21.57,9.46C131.34,148.08,146,137.5,136.93,119.7Zm-17.76,20.92c-5.93.7-8.78-3.36-13.76-12.19-3.23-6.24-6-11.79-8.61-17.1l-30.67-62A36.77,36.77,0,0,0,63.63,45c-6.4-12.42-9.63-17.8-5.09-23.06,4.42-5.1,14.15-4.2,19.53,6.88,4.16,8.57,34.44,66.13,46.47,87.88.6,1.08,1.21,2.07,1.81,3a14.27,14.27,0,0,0,1.19,2.66C133.83,132.93,125.91,139.84,119.17,140.62Z"/>
        </g>
      </g>
    </g>
  </g>
  <g id="ed446b2e-6fc7-4527-a4e7-c26923ced2bb" data-name="Layer 12">
    <g>
      <g class="f4b89a65-3b21-4df6-af0c-38582e16a55e">
        <g>
          <g>
            <g>
              <path class="e32ce670-af8f-4c91-a27e-946c53737a55" d="M106.7,129.22a1.86,1.86,0,0,0,1.6-.9,1.79,1.79,0,0,0-.66-2.49l-.14-.09a1.9,1.9,0,0,0-1.89,0v3.15l.15.08A1.78,1.78,0,0,0,106.7,129.22Z"/>
              <path class="e32ce670-af8f-4c91-a27e-946c53737a55" d="M135,116a1.87,1.87,0,0,0-2.38,1.09l-.06.15a1.82,1.82,0,0,0,1.08,2.35,1.91,1.91,0,0,0,.66.11,1.87,1.87,0,0,0,1.74-1.17c0-.07,0-.13.07-.19A1.82,1.82,0,0,0,135,116Z"/>
              <path class="e32ce670-af8f-4c91-a27e-946c53737a55" d="M132.17,121.93a1.9,1.9,0,0,0-2.62.22l-.11.12a1.8,1.8,0,0,0,.19,2.57,1.9,1.9,0,0,0,2.63-.19l.13-.15A1.81,1.81,0,0,0,132.17,121.93Z"/>
              <path class="e32ce670-af8f-4c91-a27e-946c53737a55" d="M124.93,125.92l-.14.08a1.8,1.8,0,0,0-.71,2.48,1.87,1.87,0,0,0,1.62.93,2,2,0,0,0,.91-.23l.18-.1a1.81,1.81,0,0,0,.68-2.49A1.88,1.88,0,0,0,124.93,125.92Z"/>
              <path class="e32ce670-af8f-4c91-a27e-946c53737a55" d="M129.89,100.81a1.89,1.89,0,0,0,1.46.69,1.93,1.93,0,0,0,1.16-.39,1.85,1.85,0,0,0,.7-1.52h-3.83a1.76,1.76,0,0,0,.41,1.09Z"/>
              <path class="e32ce670-af8f-4c91-a27e-946c53737a55" d="M135.47,109.46a1.84,1.84,0,0,0-1.86,1.82v.16a1.84,1.84,0,0,0,1.84,1.84h0a1.85,1.85,0,0,0,1.86-1.81v-.19A1.84,1.84,0,0,0,135.47,109.46Z"/>
              <path class="e32ce670-af8f-4c91-a27e-946c53737a55" d="M132.74,106a1.86,1.86,0,0,0,1.77,1.25,2,2,0,0,0,.58-.09,1.81,1.81,0,0,0,1.19-2.29c0-.07-.05-.13-.07-.2a1.87,1.87,0,0,0-2.36-1.13,1.81,1.81,0,0,0-1.16,2.31A.88.88,0,0,1,132.74,106Z"/>
              <path class="e32ce670-af8f-4c91-a27e-946c53737a55" d="M119.29,127.91l-.17,0a1.82,1.82,0,0,0,.29,3.62l.3,0,.2,0a1.81,1.81,0,0,0,1.52-2.09A1.85,1.85,0,0,0,119.29,127.91Z"/>
              <path class="e32ce670-af8f-4c91-a27e-946c53737a55" d="M113.27,127.88l-.16,0a1.85,1.85,0,0,0-2.18,1.44,1.83,1.83,0,0,0,1.47,2.13l.21,0a1.82,1.82,0,1,0,.66-3.58Z"/>
            </g>
            <g>
              <path class="e32ce670-af8f-4c91-a27e-946c53737a55" d="M109.65,100.81a1.37,1.37,0,0,0,.65-.17l.11-.06a1.31,1.31,0,0,0,.68-1h-2.78a1.36,1.36,0,0,0,.17.54A1.34,1.34,0,0,0,109.65,100.81Z"/>
              <path class="e32ce670-af8f-4c91-a27e-946c53737a55" d="M122.78,100.84l.11.06a1.37,1.37,0,0,0,.7.19,1.34,1.34,0,0,0,1.14-.62,1.22,1.22,0,0,0,.18-.88h-2.77A1.33,1.33,0,0,0,122.78,100.84Z"/>
              <path class="e32ce670-af8f-4c91-a27e-946c53737a55" d="M129.78,114.67a1.35,1.35,0,0,0-1.72.78l0,.11a1.3,1.3,0,0,0,.78,1.69,1.35,1.35,0,0,0,.47.09,1.33,1.33,0,0,0,1.26-.85l.05-.14A1.29,1.29,0,0,0,129.78,114.67Z"/>
              <path class="e32ce670-af8f-4c91-a27e-946c53737a55" d="M122.55,121.84l-.1.06a1.3,1.3,0,0,0-.52,1.79,1.35,1.35,0,0,0,1.17.67,1.41,1.41,0,0,0,.66-.17l.13-.07a1.3,1.3,0,0,0,.49-1.79A1.36,1.36,0,0,0,122.55,121.84Z"/>
              <path class="e32ce670-af8f-4c91-a27e-946c53737a55" d="M128.15,107.34s0,.07,0,.11a1.33,1.33,0,0,0,1.27.9,1.52,1.52,0,0,0,.42-.06,1.32,1.32,0,0,0,.86-1.66s0-.09-.05-.14a1.36,1.36,0,0,0-1.7-.82A1.31,1.31,0,0,0,128.15,107.34Z"/>
              <path class="e32ce670-af8f-4c91-a27e-946c53737a55" d="M126.13,103.72a1.34,1.34,0,0,0,1.88.21,1.28,1.28,0,0,0,.22-1.84l-.09-.11a1.34,1.34,0,0,0-1.88-.2,1.3,1.3,0,0,0-.21,1.85Z"/>
              <path class="e32ce670-af8f-4c91-a27e-946c53737a55" d="M130.15,110a1.33,1.33,0,0,0-1.34,1.31v.12a1.34,1.34,0,0,0,1.33,1.33h0a1.33,1.33,0,0,0,1.35-1.3v-.15A1.33,1.33,0,0,0,130.15,110Z"/>
              <path class="e32ce670-af8f-4c91-a27e-946c53737a55" d="M125.88,119.12l-.07.09a1.29,1.29,0,0,0,.13,1.85,1.38,1.38,0,0,0,1.9-.13l.09-.12a1.29,1.29,0,0,0-.16-1.85A1.37,1.37,0,0,0,125.88,119.12Z"/>
              <path class="e32ce670-af8f-4c91-a27e-946c53737a55" d="M114.13,123.25l-.11,0a1.34,1.34,0,0,0-1.57,1,1.32,1.32,0,0,0,1.06,1.54l.15,0,.24,0a1.33,1.33,0,0,0,1.31-1.08A1.31,1.31,0,0,0,114.13,123.25Z"/>
              <path class="e32ce670-af8f-4c91-a27e-946c53737a55" d="M106.59,120.87a1.3,1.3,0,0,0,.18-1.85l-.08-.09a1.32,1.32,0,0,0-1.08-.48v2.7l.13,0A1.36,1.36,0,0,0,106.59,120.87Z"/>
              <path class="e32ce670-af8f-4c91-a27e-946c53737a55" d="M118.47,123.27l-.12,0a1.32,1.32,0,0,0-1.11,1.51,1.34,1.34,0,0,0,1.32,1.1h.22l.14,0a1.31,1.31,0,0,0,1.1-1.51A1.34,1.34,0,0,0,118.47,123.27Z"/>
              <path class="e32ce670-af8f-4c91-a27e-946c53737a55" d="M110.07,121.78l-.1-.07a1.36,1.36,0,0,0-1.84.45,1.29,1.29,0,0,0,.45,1.8l.13.08a1.38,1.38,0,0,0,.68.18,1.34,1.34,0,0,0,1.16-.65A1.29,1.29,0,0,0,110.07,121.78Z"/>
              <path class="e32ce670-af8f-4c91-a27e-946c53737a55" d="M106.94,103.32a.6.6,0,0,0,.08-.08,1.3,1.3,0,0,0-.12-1.86,1.38,1.38,0,0,0-1.29-.26v2.62a1.65,1.65,0,0,0,.32,0A1.35,1.35,0,0,0,106.94,103.32Z"/>
              <path class="e32ce670-af8f-4c91-a27e-946c53737a55" d="M105.62,103.89a1.55,1.55,0,0,0,.31,0v-.28a1,1,0,0,1-.25,0Z"/>
              <path class="e32ce670-af8f-4c91-a27e-946c53737a55" d="M105.74,121h-.13v.28h.13Z"/>
              <path class="e32ce670-af8f-4c91-a27e-946c53737a55" d="M109.08,124.33a1.63,1.63,0,0,0,.31,0v-.28a1,1,0,0,1-.25,0Z"/>
              <path class="e32ce670-af8f-4c91-a27e-946c53737a55" d="M123.28,101.2a1.63,1.63,0,0,0,.31,0V101a1,1,0,0,1-.25,0Z"/>
              <path class="e32ce670-af8f-4c91-a27e-946c53737a55" d="M129,117.45l.31,0v-.28l-.25,0Z"/>
              <path class="e32ce670-af8f-4c91-a27e-946c53737a55" d="M129.15,108.46a1.63,1.63,0,0,0,.31,0v-.27a1.07,1.07,0,0,1-.25,0Z"/>
              <path class="e32ce670-af8f-4c91-a27e-946c53737a55" d="M129.9,112.55l-.06.27a1.53,1.53,0,0,0,.3,0h0v-.27A1,1,0,0,1,129.9,112.55Z"/>
              <path class="e32ce670-af8f-4c91-a27e-946c53737a55" d="M109.34,100.91a1.63,1.63,0,0,0,.31,0v-.27a1.07,1.07,0,0,1-.25,0Z"/>
              <path class="e32ce670-af8f-4c91-a27e-946c53737a55" d="M126.87,104.32a1.65,1.65,0,0,0,.31,0v-.28a1.07,1.07,0,0,1-.25,0Z"/>
              <path class="e32ce670-af8f-4c91-a27e-946c53737a55" d="M118.25,126l.31,0v-.28a1.1,1.1,0,0,1-.25,0Z"/>
              <path class="e32ce670-af8f-4c91-a27e-946c53737a55" d="M113.64,125.69l0,.27h0a1.24,1.24,0,0,0,.27,0v-.28l-.22,0Z"/>
              <path class="e32ce670-af8f-4c91-a27e-946c53737a55" d="M126.51,121.49a1.63,1.63,0,0,0,.31,0v-.28l-.25,0Z"/>
              <path class="e32ce670-af8f-4c91-a27e-946c53737a55" d="M122.79,124.46a1.15,1.15,0,0,0,.31,0v-.28l-.25,0Z"/>
            </g>
            <path class="e32ce670-af8f-4c91-a27e-946c53737a55" d="M116.82,114.28a.28.28,0,0,1-.27-.23.27.27,0,0,1,.23-.31h0a.28.28,0,0,1,.32.23.27.27,0,0,1-.22.31h-.08Zm-1,0h-.08a.27.27,0,0,1-.22-.32.28.28,0,0,1,.33-.21h0a.27.27,0,0,1,.22.31A.28.28,0,0,1,115.86,114.27Zm1.9-.31a.27.27,0,0,1-.24-.14.27.27,0,0,1,.1-.37h0a.29.29,0,0,1,.38.1.27.27,0,0,1-.1.37h0A.22.22,0,0,1,117.76,114Zm-2.83,0a.27.27,0,0,1-.14,0h0a.27.27,0,0,1-.1-.37.29.29,0,0,1,.38-.1l0,0a.27.27,0,0,1,.1.37A.28.28,0,0,1,114.93,113.93Zm3.59-.59a.3.3,0,0,1-.18-.06.27.27,0,0,1,0-.38l0,0a.28.28,0,0,1,.39,0,.27.27,0,0,1,0,.38l0,0A.27.27,0,0,1,118.52,113.34Zm-4.34,0a.25.25,0,0,1-.21-.1l0,0a.26.26,0,0,1,0-.38.28.28,0,0,1,.39,0v0a.27.27,0,0,1,0,.38A.32.32,0,0,1,114.18,113.3Zm4.85-.79h-.1a.27.27,0,0,1-.16-.35v0a.27.27,0,0,1,.35-.16.27.27,0,0,1,.17.35v0A.28.28,0,0,1,119,112.51Zm-5.34-.05a.28.28,0,0,1-.26-.18v0a.27.27,0,0,1,.18-.34.27.27,0,0,1,.35.17v0a.26.26,0,0,1-.16.34Zm5.52-.9h0a.27.27,0,0,1-.28-.27v0a.28.28,0,0,1,.28-.27.27.27,0,0,1,.27.27v0A.27.27,0,0,1,119.21,111.56Zm-5.68-.06h0a.26.26,0,0,1-.27-.27v0a.26.26,0,0,1,.27-.26h0a.27.27,0,0,1,.27.27v0A.27.27,0,0,1,113.53,111.5Zm5.54-.84a.28.28,0,0,1-.27-.18v0a.26.26,0,0,1,.17-.34.28.28,0,0,1,.35.17v0a.27.27,0,0,1-.18.34Zm-5.36-.11h-.09a.26.26,0,0,1-.16-.35v0a.27.27,0,0,1,.35-.16.27.27,0,0,1,.16.35v0A.26.26,0,0,1,113.71,110.55Zm4.89-.74a.26.26,0,0,1-.22-.1l0,0a.27.27,0,0,1,.43-.34l0,0a.26.26,0,0,1,0,.38A.27.27,0,0,1,118.6,109.81Zm-4.38-.09a.3.3,0,0,1-.18-.06.27.27,0,0,1,0-.39l0,0a.28.28,0,0,1,.39,0,.26.26,0,0,1,0,.38l0,0A.29.29,0,0,1,114.22,109.72Zm3.64-.55a.42.42,0,0,1-.15,0l0,0a.26.26,0,0,1-.09-.37.29.29,0,0,1,.38-.09l0,0a.26.26,0,0,1,.09.37A.28.28,0,0,1,117.86,109.17Zm-2.87-.06a.27.27,0,0,1-.14-.51h0a.27.27,0,0,1,.37.11.25.25,0,0,1-.11.36h0A.22.22,0,0,1,115,109.11Zm2-.3h-.08a.27.27,0,0,1-.22-.31.27.27,0,0,1,.32-.22h0a.27.27,0,0,1,.22.32A.28.28,0,0,1,116.94,108.81Zm-1,0a.27.27,0,0,1-.27-.23.28.28,0,0,1,.23-.31h0a.27.27,0,0,1,.31.23.26.26,0,0,1-.23.3h-.07Z"/>
            <path class="e32ce670-af8f-4c91-a27e-946c53737a55" d="M117.23,117a.53.53,0,0,1-.52-.43.52.52,0,0,1,.44-.59h0a.53.53,0,0,1,.61.42.52.52,0,0,1-.43.6h-.14Zm-1.83,0h-.15a.51.51,0,1,1,.2-1h0a.52.52,0,0,1,.42.6A.53.53,0,0,1,115.4,117Zm3.61-.58a.52.52,0,0,1-.26-1l0,0a.54.54,0,0,1,.72.19.51.51,0,0,1-.2.7l0,0A.47.47,0,0,1,119,116.39Zm-5.37-.06a.54.54,0,0,1-.27-.07l-.05,0a.5.5,0,0,1-.18-.7.53.53,0,0,1,.72-.18l0,0a.5.5,0,0,1,.18.7A.53.53,0,0,1,113.64,116.33Zm6.82-1.11a.54.54,0,0,1-.34-.12.51.51,0,0,1-.06-.73l0,0a.52.52,0,0,1,.74-.06.51.51,0,0,1,.07.72l0,0A.53.53,0,0,1,120.46,115.22Zm-8.25-.08a.56.56,0,0,1-.41-.19l0,0a.49.49,0,0,1,.08-.72.52.52,0,0,1,.73.07l0,0a.49.49,0,0,1-.07.72A.52.52,0,0,1,112.21,115.14Zm9.21-1.5-.19,0a.52.52,0,0,1-.3-.67l0,0a.52.52,0,0,1,.67-.3.5.5,0,0,1,.31.65l0,.06A.53.53,0,0,1,121.42,113.64Zm-10.14-.1a.52.52,0,0,1-.49-.34l0-.06a.5.5,0,0,1,.33-.65.52.52,0,0,1,.66.32l0,0a.53.53,0,0,1-.32.66A.57.57,0,0,1,111.28,113.54Zm10.48-1.71h0a.52.52,0,0,1-.52-.52v0a.52.52,0,0,1,.52-.52.52.52,0,0,1,.53.52v0A.52.52,0,0,1,121.76,111.83ZM111,111.72h0a.52.52,0,0,1-.52-.52v0a.53.53,0,0,1,.53-.51h0a.52.52,0,0,1,.51.53v0A.51.51,0,0,1,111,111.72Zm10.51-1.6a.53.53,0,0,1-.5-.35v0a.52.52,0,0,1,1-.33l0,0a.52.52,0,0,1-.33.65A.5.5,0,0,1,121.49,110.12Zm-10.17-.21a.57.57,0,0,1-.18,0,.52.52,0,0,1-.31-.66l0,0a.53.53,0,0,1,.68-.3.51.51,0,0,1,.3.67l0,0A.52.52,0,0,1,111.32,109.91Zm9.28-1.41a.52.52,0,0,1-.41-.19l0,0a.5.5,0,0,1,.08-.72.54.54,0,0,1,.74.08l0,0a.51.51,0,0,1-.41.83Zm-8.32-.17a.54.54,0,0,1-.34-.12.51.51,0,0,1,0-.73l0,0a.54.54,0,0,1,.75,0,.51.51,0,0,1,0,.72l0,0A.52.52,0,0,1,112.28,108.33Zm6.92-1a.55.55,0,0,1-.28-.07l0,0a.5.5,0,0,1-.18-.7.53.53,0,0,1,.72-.18l0,0a.5.5,0,0,1,.17.71A.51.51,0,0,1,119.2,107.28Zm-5.46-.11a.55.55,0,0,1-.46-.26.51.51,0,0,1,.2-.7l0,0a.54.54,0,0,1,.72.2.51.51,0,0,1-.21.7l0,0A.48.48,0,0,1,113.74,107.17Zm3.71-.56h-.15a.52.52,0,0,1-.42-.6.52.52,0,0,1,.61-.41h.06a.51.51,0,0,1,.41.6A.52.52,0,0,1,117.45,106.61Zm-1.93,0a.52.52,0,0,1-.52-.44.5.5,0,0,1,.43-.58h.06a.53.53,0,0,1,.6.43.52.52,0,0,1-.45.58h-.12Z"/>
            <path class="e32ce670-af8f-4c91-a27e-946c53737a55" d="M117.81,120.87a.88.88,0,0,1-.87-.73.86.86,0,0,1,.73-1l.08,0a.89.89,0,0,1,1,.71.87.87,0,0,1-.72,1l-.1,0Zm-3.06,0-.16,0h-.1a.86.86,0,0,1-.69-1,.88.88,0,0,1,1-.69l.07,0a.86.86,0,0,1,.71,1A.88.88,0,0,1,114.75,120.84Zm6-1a.86.86,0,0,1-.77-.44.84.84,0,0,1,.34-1.17l.07,0a.9.9,0,0,1,1.2.32.86.86,0,0,1-.33,1.18l-.08,0A.86.86,0,0,1,120.79,119.85Zm-9-.09a.92.92,0,0,1-.45-.12l-.08,0a.87.87,0,0,1-.3-1.19.89.89,0,0,1,1.21-.29l.07,0a.85.85,0,0,1,.31,1.18A.88.88,0,0,1,111.79,119.76Zm11.44-1.86a.9.9,0,0,1-.58-.21.84.84,0,0,1-.09-1.21l0-.06a.89.89,0,0,1,1.24-.1.85.85,0,0,1,.11,1.21l-.07.07A.87.87,0,0,1,123.23,117.9Zm-13.84-.14a.92.92,0,0,1-.68-.31l-.06-.07a.87.87,0,0,1,.13-1.22.89.89,0,0,1,1.24.13l0,.06a.87.87,0,0,1-.68,1.41Zm15.45-2.51a.81.81,0,0,1-.31-.06.85.85,0,0,1-.52-1.11l0-.07a.88.88,0,0,1,1.13-.51.85.85,0,0,1,.52,1.1l0,.09A.87.87,0,0,1,124.84,115.25Zm-17-.17a.88.88,0,0,1-.83-.58l0-.09a.85.85,0,0,1,.55-1.09.88.88,0,0,1,1.11.54l0,.07a.86.86,0,0,1-.54,1.1A.93.93,0,0,1,107.84,115.08Zm17.57-2.86h0a.89.89,0,0,1-.88-.87v-.08a.88.88,0,0,1,1.76,0v.09A.86.86,0,0,1,125.41,112.22ZM107.33,112h0a.86.86,0,0,1-.87-.87v-.09a.87.87,0,0,1,.88-.84h0a.87.87,0,0,1,.86.87v.08A.87.87,0,0,1,107.33,112ZM125,109.35a.88.88,0,0,1-.84-.59l0-.07a.85.85,0,0,1,.55-1.09.88.88,0,0,1,1.12.53l0,.09a.86.86,0,0,1-.57,1.09A.84.84,0,0,1,125,109.35Zm-17-.35a.81.81,0,0,1-.31,0,.86.86,0,0,1-.52-1.11l0-.09a.89.89,0,0,1,1.14-.49.86.86,0,0,1,.5,1.11l0,.08A.88.88,0,0,1,107.91,109Zm15.55-2.36a.88.88,0,0,1-.69-.33l0-.06a.85.85,0,0,1,.14-1.21.88.88,0,0,1,1.23.13l.06.07a.84.84,0,0,1-.14,1.21A.86.86,0,0,1,123.46,106.64Zm-13.94-.29a.92.92,0,0,1-.58-.21.86.86,0,0,1-.09-1.21l.07-.07a.89.89,0,0,1,1.24-.08.86.86,0,0,1,.08,1.22l0,0A.89.89,0,0,1,109.52,106.35Zm11.59-1.76a.84.84,0,0,1-.46-.13l-.07,0a.84.84,0,0,1-.3-1.18.89.89,0,0,1,1.21-.29l.08,0a.85.85,0,0,1,.29,1.18A.91.91,0,0,1,121.11,104.59ZM112,104.4a.89.89,0,0,1-.77-.44.85.85,0,0,1,.34-1.17l.08-.05a.9.9,0,0,1,1.2.34.85.85,0,0,1-.35,1.17l-.07,0A.84.84,0,0,1,112,104.4Zm6.22-.94-.18,0-.08,0a.85.85,0,0,1-.69-1,.88.88,0,0,1,1-.69l.09,0a.86.86,0,0,1,.69,1A.88.88,0,0,1,118.18,103.46Zm-3.24-.07a.87.87,0,0,1-.87-.73.85.85,0,0,1,.73-1l.1,0a.89.89,0,0,1,1,.73.87.87,0,0,1-.75,1h-.21Z"/>
          </g>
          <g>
            <g>
              <path class="e32ce670-af8f-4c91-a27e-946c53737a55" d="M154,109.61l-.06-.15a1.87,1.87,0,0,0-2.35-1.14,1.8,1.8,0,0,0-1.16,2.31l.06.2a1.87,1.87,0,0,0,1.76,1.21,2,2,0,0,0,.62-.11A1.81,1.81,0,0,0,154,109.61Z"/>
              <path class="e32ce670-af8f-4c91-a27e-946c53737a55" d="M156.81,114.6a1.88,1.88,0,0,0-2.61-.27,1.8,1.8,0,0,0-.28,2.56l.13.15a1.9,1.9,0,0,0,2.62.25,1.8,1.8,0,0,0,.25-2.56Z"/>
              <path class="e32ce670-af8f-4c91-a27e-946c53737a55" d="M161.49,118.55l-.14-.09a1.88,1.88,0,0,0-2.55.62,1.8,1.8,0,0,0,.63,2.5l.18.1a1.89,1.89,0,0,0,2.54-.64A1.79,1.79,0,0,0,161.49,118.55Z"/>
              <path class="e32ce670-af8f-4c91-a27e-946c53737a55" d="M151.12,105.61a1.84,1.84,0,0,0,1.86-1.8v-.16a1.83,1.83,0,0,0-1.82-1.86h0a1.84,1.84,0,0,0-1.85,1.78v.2a1.84,1.84,0,0,0,1.84,1.84Z"/>
            </g>
            <g>
              <path class="e32ce670-af8f-4c91-a27e-946c53737a55" d="M156.85,100.45a1.27,1.27,0,0,0,.47.09,1.37,1.37,0,0,0,1.26-.85l0-.1H156A1.31,1.31,0,0,0,156.85,100.45Z"/>
              <path class="e32ce670-af8f-4c91-a27e-946c53737a55" d="M160.55,111.64a1.37,1.37,0,0,0-1.89-.19,1.29,1.29,0,0,0-.2,1.85l.09.11a1.37,1.37,0,0,0,1,.47,1.3,1.3,0,0,0,.85-.3,1.29,1.29,0,0,0,.18-1.84Z"/>
              <path class="e32ce670-af8f-4c91-a27e-946c53737a55" d="M158.48,108l0-.11a1.37,1.37,0,0,0-1.71-.82,1.31,1.31,0,0,0-.83,1.67.78.78,0,0,0,.05.14,1.33,1.33,0,0,0,1.26.87,1.41,1.41,0,0,0,.45-.07A1.3,1.3,0,0,0,158.48,108Z"/>
              <path class="e32ce670-af8f-4c91-a27e-946c53737a55" d="M156.44,105.16a1.33,1.33,0,0,0,1.34-1.3v-.12a1.31,1.31,0,0,0-1.31-1.34h0a1.32,1.32,0,0,0-1.34,1.29v.14a1.33,1.33,0,0,0,1.32,1.33Z"/>
              <path class="e32ce670-af8f-4c91-a27e-946c53737a55" d="M156.91,109.9a1.63,1.63,0,0,0,.31,0v-.27a1.07,1.07,0,0,1-.25,0Z"/>
              <path class="e32ce670-af8f-4c91-a27e-946c53737a55" d="M157,100.64a1.63,1.63,0,0,0,.31,0v-.27a1.07,1.07,0,0,1-.25,0Z"/>
              <path class="e32ce670-af8f-4c91-a27e-946c53737a55" d="M156.19,105l-.06.27.29,0h0l0-.28A.85.85,0,0,1,156.19,105Z"/>
              <path class="e32ce670-af8f-4c91-a27e-946c53737a55" d="M159.28,114a1.55,1.55,0,0,0,.31,0v-.27a1,1,0,0,1-.25,0Z"/>
            </g>
            <g>
              <path class="e32ce670-af8f-4c91-a27e-946c53737a55" d="M161.45,101.66a.81.81,0,0,0,.31.06.87.87,0,0,0,.82-.56l0-.07a.86.86,0,0,0-.5-1.12.89.89,0,0,0-1.14.49l0,.09A.85.85,0,0,0,161.45,101.66Z"/>
              <path class="e32ce670-af8f-4c91-a27e-946c53737a55" d="M161.18,104.75a.88.88,0,0,0,.88-.85v-.08a.88.88,0,0,0-.86-.88h0a.88.88,0,0,0-.88.85v.09a.86.86,0,0,0,.87.87Z"/>
              <path class="e32ce670-af8f-4c91-a27e-946c53737a55" d="M162.52,106.64l0-.07a.88.88,0,0,0-1.12-.53.85.85,0,0,0-.55,1.09l0,.09a.89.89,0,0,0,.83.57.79.79,0,0,0,.3-.05A.86.86,0,0,0,162.52,106.64Z"/>
            </g>
          </g>
          <g>
            <path class="e32ce670-af8f-4c91-a27e-946c53737a55" d="M140.42,173.3a1.81,1.81,0,0,1-.29-3.61l.17,0a1.85,1.85,0,0,1,2.14,1.49,1.83,1.83,0,0,1-1.52,2.1l-.2,0A1.51,1.51,0,0,1,140.42,173.3Zm-6.47-.06-.33,0-.21,0a1.83,1.83,0,0,1-1.47-2.13,1.87,1.87,0,0,1,2.18-1.44l.16,0a1.83,1.83,0,0,1,1.5,2.11A1.85,1.85,0,0,1,134,173.24Zm12.76-2.08a1.85,1.85,0,0,1-1.62-.93,1.79,1.79,0,0,1,.71-2.47l.14-.08a1.88,1.88,0,0,1,2.54.67,1.79,1.79,0,0,1-.68,2.48l-.18.1A1.86,1.86,0,0,1,146.71,171.16Zm-19-.19a1.87,1.87,0,0,1-.94-.25l-.18-.1a1.8,1.8,0,0,1-.63-2.5,1.88,1.88,0,0,1,2.55-.62l.14.08a1.8,1.8,0,0,1,.66,2.49A1.86,1.86,0,0,1,127.71,171ZM151.86,167a1.9,1.9,0,0,1-1.22-.45,1.79,1.79,0,0,1-.19-2.56l.11-.12a1.88,1.88,0,0,1,2.62-.22,1.79,1.79,0,0,1,.22,2.56l-.13.16A1.91,1.91,0,0,1,151.86,167Zm-29.21-.3a1.86,1.86,0,0,1-1.44-.66l-.13-.15a1.8,1.8,0,0,1,.28-2.56,1.88,1.88,0,0,1,2.61.27l.11.13a1.8,1.8,0,0,1-.25,2.56A1.88,1.88,0,0,1,122.65,166.74Zm32.61-5.3a1.92,1.92,0,0,1-.66-.12,1.8,1.8,0,0,1-1.08-2.34l.06-.16a1.86,1.86,0,0,1,2.38-1.08,1.8,1.8,0,0,1,1.11,2.33c0,.07,0,.13-.07.19A1.86,1.86,0,0,1,155.26,161.44Zm-35.9-.36a1.86,1.86,0,0,1-1.75-1.22c0-.06,0-.12-.07-.19a1.82,1.82,0,0,1,1.16-2.31,1.87,1.87,0,0,1,2.36,1.14l.06.15A1.82,1.82,0,0,1,120,161,2,2,0,0,1,119.36,161.08ZM156.48,155h0a1.84,1.84,0,0,1-1.84-1.83V153a1.86,1.86,0,0,1,3.72,0v.2A1.84,1.84,0,0,1,156.48,155Zm-38.2-.38h0a1.84,1.84,0,0,1-1.84-1.84v-.2a1.85,1.85,0,0,1,1.86-1.78h0a1.83,1.83,0,0,1,1.82,1.86v.16A1.84,1.84,0,0,1,118.28,154.65ZM155.52,149a1.87,1.87,0,0,1-1.77-1.26.88.88,0,0,0-.05-.15,1.82,1.82,0,0,1,1.16-2.31,1.88,1.88,0,0,1,2.36,1.14l.07.19a1.82,1.82,0,0,1-1.19,2.3A2,2,0,0,1,155.52,149Zm-36-.74a1.92,1.92,0,0,1-.66-.12,1.81,1.81,0,0,1-1.08-2.35l.07-.18a1.88,1.88,0,0,1,2.41-1,1.82,1.82,0,0,1,1.06,2.36l-.07.15A1.85,1.85,0,0,1,119.51,148.25Zm32.85-5a1.88,1.88,0,0,1-1.46-.68l-.1-.13a1.79,1.79,0,0,1,.28-2.56,1.88,1.88,0,0,1,2.61.27l.13.16a1.79,1.79,0,0,1-.31,2.55A1.82,1.82,0,0,1,152.36,143.25Zm-29.45-.6a1.9,1.9,0,0,1-1.21-.44,1.8,1.8,0,0,1-.2-2.57l.14-.15a1.88,1.88,0,0,1,2.62-.16,1.79,1.79,0,0,1,.17,2.57l-.11.12A1.91,1.91,0,0,1,122.91,142.65Zm24.47-3.72a1.9,1.9,0,0,1-1-.27l-.14-.09a1.8,1.8,0,0,1-.64-2.5,1.88,1.88,0,0,1,2.55-.61l.18.1a1.8,1.8,0,0,1,.61,2.5A1.87,1.87,0,0,1,147.38,138.93Zm-19.31-.4a1.89,1.89,0,0,1-1.63-.93,1.8,1.8,0,0,1,.72-2.48l.18-.09a1.87,1.87,0,0,1,2.52.72,1.81,1.81,0,0,1-.74,2.47l-.15.08A1.91,1.91,0,0,1,128.07,138.53Zm13.12-2-.37,0-.16,0a1.83,1.83,0,0,1-1.48-2.13,1.86,1.86,0,0,1,2.18-1.45l.2,0a1.81,1.81,0,0,1,1.45,2.15A1.84,1.84,0,0,1,141.19,136.53Zm-6.84-.14a1.81,1.81,0,0,1-.29-3.61l.21,0a1.85,1.85,0,0,1,2.11,1.53,1.83,1.83,0,0,1-1.57,2.07l-.16,0A1.51,1.51,0,0,1,134.35,136.39Z"/>
            <g>
              <path class="e32ce670-af8f-4c91-a27e-946c53737a55" d="M139.57,167.66a1.34,1.34,0,0,1-1.32-1.11,1.31,1.31,0,0,1,1.11-1.5l.12,0A1.34,1.34,0,0,1,141,166.1a1.32,1.32,0,0,1-1.1,1.52l-.14,0Zm-4.66,0-.25,0-.14,0a1.29,1.29,0,0,1-1.06-1.53,1.33,1.33,0,0,1,1.57-1l.11,0a1.3,1.3,0,0,1,1.08,1.52A1.32,1.32,0,0,1,134.91,167.61Zm9.2-1.5a1.35,1.35,0,0,1-1.17-.67,1.3,1.3,0,0,1,.52-1.79l.1-.05a1.36,1.36,0,0,1,1.83.48,1.29,1.29,0,0,1-.49,1.79l-.13.07A1.3,1.3,0,0,1,144.11,166.11ZM130.4,166a1.29,1.29,0,0,1-.68-.18l-.13-.07a1.3,1.3,0,0,1-.46-1.8,1.37,1.37,0,0,1,1.85-.45l.1.06a1.3,1.3,0,0,1,.48,1.8A1.36,1.36,0,0,1,130.4,166Zm17.43-2.83a1.4,1.4,0,0,1-.88-.32,1.3,1.3,0,0,1-.13-1.86l.07-.08a1.35,1.35,0,0,1,1.89-.16,1.29,1.29,0,0,1,.16,1.85l-.09.11A1.37,1.37,0,0,1,147.83,163.14Zm-21.08-.22a1.37,1.37,0,0,1-1-.47l-.09-.12a1.28,1.28,0,0,1,.2-1.84,1.35,1.35,0,0,1,1.88.19l.08.09a1.3,1.3,0,0,1-.18,1.85A1.36,1.36,0,0,1,126.75,162.92Zm23.53-3.83a1.33,1.33,0,0,1-.47-.08,1.31,1.31,0,0,1-.78-1.69l0-.11a1.36,1.36,0,0,1,1.72-.79,1.31,1.31,0,0,1,.8,1.69s0,.09-.05.13A1.33,1.33,0,0,1,150.28,159.09Zm-25.9-.26a1.35,1.35,0,0,1-1.27-.87.78.78,0,0,0,0-.14,1.31,1.31,0,0,1,.84-1.67,1.36,1.36,0,0,1,1.7.82.49.49,0,0,1,0,.11,1.32,1.32,0,0,1-.81,1.68A1.41,1.41,0,0,1,124.38,158.83Zm26.78-4.36h0a1.33,1.33,0,0,1-1.33-1.32V153a1.35,1.35,0,0,1,2.69,0v.14A1.33,1.33,0,0,1,151.16,154.47Zm-27.56-.28h0a1.32,1.32,0,0,1-1.33-1.32v-.15a1.32,1.32,0,0,1,1.34-1.28h0a1.32,1.32,0,0,1,1.32,1.34v.12A1.32,1.32,0,0,1,123.6,154.19Zm26.87-4.08a1.33,1.33,0,0,1-1.27-.91.36.36,0,0,1,0-.11,1.3,1.3,0,0,1,.84-1.66,1.34,1.34,0,0,1,1.7.82s0,.09.05.14a1.3,1.3,0,0,1-.86,1.65A1.23,1.23,0,0,1,150.47,150.11Zm-26-.54a1.26,1.26,0,0,1-.47-.08,1.3,1.3,0,0,1-.79-1.69l.06-.14a1.35,1.35,0,0,1,1.73-.75,1.31,1.31,0,0,1,.77,1.7l0,.11A1.33,1.33,0,0,1,124.48,149.57Zm23.71-3.6a1.34,1.34,0,0,1-1.05-.5l-.08-.09a1.31,1.31,0,0,1,.2-1.85,1.37,1.37,0,0,1,1.89.2l.09.11a1.29,1.29,0,0,1-.22,1.85A1.34,1.34,0,0,1,148.19,146Zm-21.25-.44a1.33,1.33,0,0,1-.88-.32,1.3,1.3,0,0,1-.14-1.85l.1-.11a1.36,1.36,0,0,1,1.89-.11A1.29,1.29,0,0,1,128,145l-.08.09A1.34,1.34,0,0,1,126.94,145.53Zm17.66-2.68a1.29,1.29,0,0,1-.7-.2l-.11-.06a1.29,1.29,0,0,1-.45-1.8,1.36,1.36,0,0,1,1.84-.45l.12.08a1.29,1.29,0,0,1,.44,1.8A1.33,1.33,0,0,1,144.6,142.85Zm-13.94-.29a1.33,1.33,0,0,1-1.17-.67,1.31,1.31,0,0,1,.51-1.79l.13-.07a1.36,1.36,0,0,1,1.82.52,1.3,1.3,0,0,1-.53,1.79l-.11,0A1.26,1.26,0,0,1,130.66,142.56Zm9.47-1.44a1.24,1.24,0,0,1-.27,0l-.11,0a1.32,1.32,0,0,1-1.07-1.54,1.35,1.35,0,0,1,1.57-1l.15,0a1.32,1.32,0,0,1,1,1.55A1.34,1.34,0,0,1,140.13,141.12Zm-4.94-.1a1.34,1.34,0,0,1-1.32-1.11,1.32,1.32,0,0,1,1.12-1.5l.14,0a1.32,1.32,0,1,1,.4,2.6h-.12Z"/>
              <path class="e32ce670-af8f-4c91-a27e-946c53737a55" d="M139.57,167.8a1.1,1.1,0,0,1-.31,0l.06-.27a1.07,1.07,0,0,0,.25,0Zm-4.66-.05-.27,0v-.28h0a.78.78,0,0,0,.22,0Zm9.2-1.5-.31,0,.06-.27.25,0Zm-13.71-.14a1.55,1.55,0,0,1-.31,0l.06-.27a1,1,0,0,0,.25,0Zm17.43-2.84a1.63,1.63,0,0,1-.31,0l.06-.27a1,1,0,0,0,.25,0Zm-21.08-.21a1.55,1.55,0,0,1-.31,0l0-.27a1.14,1.14,0,0,0,.26,0Zm23.53-3.83a1.63,1.63,0,0,1-.31,0l.06-.27a1.07,1.07,0,0,0,.25,0Zm-25.9-.26a1.55,1.55,0,0,1-.31,0l.06-.27a1,1,0,0,0,.25,0Zm26.78-4.36h0l-.3,0,.06-.27.24,0Zm-27.56-.28h0a1.36,1.36,0,0,1-.29,0l0-.27a1,1,0,0,0,.24,0Zm26.87-4.08a1.1,1.1,0,0,1-.31,0l.06-.27a1.07,1.07,0,0,0,.25,0Zm-26-.54a1.63,1.63,0,0,1-.31,0l.06-.27a1.07,1.07,0,0,0,.25,0Zm23.71-3.6a1.63,1.63,0,0,1-.31,0l.06-.27.25,0Zm-21.25-.44a1.55,1.55,0,0,1-.31,0l.06-.27a1,1,0,0,0,.25,0ZM144.6,143a1.06,1.06,0,0,1-.31,0l.06-.27a1,1,0,0,0,.25,0Zm-13.94-.29a1.63,1.63,0,0,1-.31,0l.06-.27.25,0Zm9.47-1.44a1.36,1.36,0,0,1-.29,0l0-.27.25,0Zm-4.94-.1-.31,0,.06-.27.25,0Z"/>
            </g>
            <path class="e32ce670-af8f-4c91-a27e-946c53737a55" d="M137.83,156a.27.27,0,0,1-.27-.23.28.28,0,0,1,.23-.31h0a.27.27,0,0,1,.32.22.26.26,0,0,1-.22.31h-.08Zm-1,0h-.08a.27.27,0,0,1-.22-.32.28.28,0,0,1,.33-.21h0a.27.27,0,0,1,.22.32A.27.27,0,0,1,136.87,156Zm1.9-.31a.27.27,0,0,1-.24-.14.25.25,0,0,1,.1-.36l0,0a.29.29,0,0,1,.38.1.27.27,0,0,1-.1.37l0,0A.31.31,0,0,1,138.77,155.71Zm-2.83,0a.35.35,0,0,1-.14,0l0,0a.27.27,0,0,1-.1-.37.28.28,0,0,1,.38-.09h0a.27.27,0,0,1,.1.37A.26.26,0,0,1,135.94,155.68Zm3.59-.58a.26.26,0,0,1-.18-.07.27.27,0,0,1,0-.38l0,0a.29.29,0,0,1,.39,0,.27.27,0,0,1,0,.38l0,0A.27.27,0,0,1,139.53,155.1Zm-4.34,0a.28.28,0,0,1-.21-.1l0,0a.26.26,0,0,1,0-.38.29.29,0,0,1,.39,0v0a.27.27,0,0,1,0,.38A.27.27,0,0,1,135.19,155.06Zm4.85-.79-.1,0a.27.27,0,0,1-.16-.35v0a.27.27,0,0,1,.35-.16.27.27,0,0,1,.17.34v0A.29.29,0,0,1,140,154.27Zm-5.34-.06a.28.28,0,0,1-.26-.18v0a.27.27,0,0,1,.17-.34.29.29,0,0,1,.36.17v0a.27.27,0,0,1-.16.35Zm5.52-.89h0a.29.29,0,0,1-.28-.28v0a.28.28,0,0,1,.28-.27.27.27,0,0,1,.27.27v0A.27.27,0,0,1,140.22,153.32Zm-5.68-.06h0a.27.27,0,0,1-.27-.27v0a.27.27,0,0,1,.27-.27h0a.28.28,0,0,1,.27.28v0A.28.28,0,0,1,134.54,153.26Zm5.54-.84a.29.29,0,0,1-.27-.19v0a.26.26,0,0,1,.17-.34.27.27,0,0,1,.35.16v0a.26.26,0,0,1-.18.34Zm-5.36-.11-.09,0a.26.26,0,0,1-.16-.35v0a.27.27,0,0,1,.35-.15.26.26,0,0,1,.16.35v0A.27.27,0,0,1,134.72,152.31Zm4.89-.74a.27.27,0,0,1-.22-.11l0,0a.27.27,0,0,1,0-.38.28.28,0,0,1,.38,0l0,0a.26.26,0,0,1,0,.38A.27.27,0,0,1,139.61,151.57Zm-4.38-.09a.31.31,0,0,1-.18-.07.26.26,0,0,1,0-.38l0,0a.27.27,0,0,1,.39,0,.26.26,0,0,1,0,.38l0,0A.3.3,0,0,1,135.23,151.48Zm3.64-.56a.28.28,0,0,1-.15,0h0a.26.26,0,0,1-.09-.37.27.27,0,0,1,.38-.09h0a.27.27,0,0,1,.09.37A.26.26,0,0,1,138.87,150.92Zm-2.87-.06a.3.3,0,0,1-.25-.14.27.27,0,0,1,.11-.36l0,0a.28.28,0,0,1,.37.11.26.26,0,0,1-.11.37h0A.31.31,0,0,1,136,150.86Zm1.95-.29h-.08a.27.27,0,0,1-.22-.32A.27.27,0,0,1,138,150h0a.27.27,0,0,1,.22.32A.28.28,0,0,1,138,150.57Zm-1,0a.28.28,0,0,1-.27-.23.27.27,0,0,1,.23-.31h0a.27.27,0,0,1,.08.54h-.07Z"/>
            <path class="e32ce670-af8f-4c91-a27e-946c53737a55" d="M138.24,158.75a.52.52,0,0,1-.08-1h0a.52.52,0,0,1,.61.42.52.52,0,0,1-.43.59h-.14Zm-1.83,0h-.15a.53.53,0,0,1-.42-.6.53.53,0,0,1,.62-.41h0a.52.52,0,0,1,.43.6A.54.54,0,0,1,136.41,158.73Zm3.61-.59a.51.51,0,0,1-.46-.26.5.5,0,0,1,.2-.7l0,0a.53.53,0,0,1,.72.19.51.51,0,0,1-.2.7l0,0A.57.57,0,0,1,140,158.14Zm-5.37,0a.68.68,0,0,1-.27-.07l0,0a.51.51,0,0,1-.18-.71.53.53,0,0,1,.72-.17l0,0a.5.5,0,0,1,.19.7A.52.52,0,0,1,134.65,158.09Zm6.82-1.11a.55.55,0,0,1-.34-.13.5.5,0,0,1-.06-.72l0,0a.54.54,0,0,1,.74-.06.51.51,0,0,1,.07.72l0,.05A.53.53,0,0,1,141.47,157Zm-8.25-.09a.55.55,0,0,1-.41-.18l0-.05a.5.5,0,0,1,.07-.72.53.53,0,0,1,.74.08l0,0a.5.5,0,0,1-.07.73A.57.57,0,0,1,133.22,156.89Zm9.21-1.5-.19,0a.51.51,0,0,1-.3-.66v0a.53.53,0,0,1,.68-.31.51.51,0,0,1,.31.66l0,.05A.52.52,0,0,1,142.43,155.39Zm-10.14-.1a.52.52,0,0,1-.49-.34l0,0a.51.51,0,0,1,.33-.66.53.53,0,0,1,.66.32l0,.05a.51.51,0,0,1-.32.65A.57.57,0,0,1,132.29,155.29Zm10.48-1.7h0a.53.53,0,0,1-.52-.52v0a.51.51,0,0,1,.52-.51.52.52,0,0,1,.53.51v.06A.52.52,0,0,1,142.77,153.59ZM132,153.48h0a.53.53,0,0,1-.52-.52v-.06a.52.52,0,0,1,.53-.5h0a.51.51,0,0,1,.51.52V153A.52.52,0,0,1,132,153.48Zm10.51-1.6a.53.53,0,0,1-.5-.36v0a.51.51,0,0,1,.33-.65.52.52,0,0,1,.66.32l0,0a.52.52,0,0,1-.33.65A.51.51,0,0,1,142.5,151.88Zm-10.17-.21a.57.57,0,0,1-.18,0,.51.51,0,0,1-.31-.67l0-.05a.54.54,0,0,1,.68-.29.51.51,0,0,1,.3.66l0,.05A.53.53,0,0,1,132.33,151.67Zm9.28-1.41a.53.53,0,0,1-.41-.2l0,0a.5.5,0,0,1,.08-.72.53.53,0,0,1,.74.07l0,.05a.51.51,0,0,1-.08.72A.57.57,0,0,1,141.61,150.26Zm-8.32-.17a.52.52,0,0,1-.39-.85l0,0a.54.54,0,0,1,.75,0,.52.52,0,0,1,0,.73l0,0A.52.52,0,0,1,133.29,150.09ZM140.2,149a.56.56,0,0,1-.27-.08l0,0a.51.51,0,0,1-.18-.71.53.53,0,0,1,.72-.17l0,0a.5.5,0,0,1,.17.7A.53.53,0,0,1,140.2,149Zm-5.45-.12a.53.53,0,0,1-.46-.26.51.51,0,0,1,.2-.7l0,0a.53.53,0,0,1,.72.2.52.52,0,0,1-.21.7l0,0A.62.62,0,0,1,134.75,148.92Zm3.71-.56h-.15a.51.51,0,0,1-.42-.6.52.52,0,0,1,.61-.41h.06a.51.51,0,0,1,.41.61A.52.52,0,0,1,138.46,148.36Zm-1.94,0a.51.51,0,0,1-.08-1h.06a.53.53,0,0,1,.6.43.52.52,0,0,1-.45.59h-.13Z"/>
            <path class="e32ce670-af8f-4c91-a27e-946c53737a55" d="M138.82,162.62a.86.86,0,0,1-.14-1.71h.08a.86.86,0,1,1,.29,1.7h-.23Zm-3.06,0h-.16l-.1,0a.86.86,0,0,1-.7-1,.89.89,0,0,1,1-.68h.07a.87.87,0,0,1,.71,1A.88.88,0,0,1,135.76,162.59Zm6-1a.89.89,0,0,1-.77-.44.84.84,0,0,1,.34-1.17l.07,0a.88.88,0,0,1,1.2.32.85.85,0,0,1-.33,1.17l-.08.05A1,1,0,0,1,141.8,161.61Zm-9-.09a.92.92,0,0,1-.45-.12l-.08-.05a.84.84,0,0,1-.3-1.18.9.9,0,0,1,1.21-.3l.07,0a.85.85,0,0,1,.31,1.18A.87.87,0,0,1,132.8,161.52Zm11.44-1.86a.9.9,0,0,1-.58-.21.85.85,0,0,1-.09-1.22l.05-.06a.89.89,0,0,1,1.24-.1.85.85,0,0,1,.11,1.21l-.07.08A.91.91,0,0,1,144.24,159.66Zm-13.84-.14a.9.9,0,0,1-.68-.32l-.06-.07a.86.86,0,0,1,.13-1.21.89.89,0,0,1,1.24.13l.05.06a.84.84,0,0,1-.12,1.21A.89.89,0,0,1,130.4,159.52ZM145.85,157a.81.81,0,0,1-.31-.05.86.86,0,0,1-.52-1.11l0-.08a.89.89,0,0,1,1.13-.51.86.86,0,0,1,.52,1.11l0,.09A.88.88,0,0,1,145.85,157Zm-17-.17a.89.89,0,0,1-.83-.57l0-.09a.87.87,0,0,1,.55-1.1.88.88,0,0,1,1.11.54l0,.07a.86.86,0,0,1-.54,1.1A.71.71,0,0,1,128.85,156.83ZM146.42,154h0a.87.87,0,0,1-.88-.87V153a.88.88,0,0,1,1.76,0v.1A.86.86,0,0,1,146.42,154Zm-18.08-.18h0a.87.87,0,0,1-.87-.87v-.1a.87.87,0,0,1,.88-.84h0a.87.87,0,0,1,.86.88v.08A.88.88,0,0,1,128.34,153.79ZM146,151.11a.88.88,0,0,1-.84-.6l0-.07a.85.85,0,0,1,.55-1.09.89.89,0,0,1,1.12.54l0,.09a.86.86,0,0,1-.57,1.09A1.26,1.26,0,0,1,146,151.11Zm-17.05-.35a.81.81,0,0,1-.31-.06.86.86,0,0,1-.52-1.11l0-.09a.89.89,0,0,1,1.14-.49.86.86,0,0,1,.5,1.12l0,.07A.87.87,0,0,1,128.92,150.76Zm15.55-2.37a.9.9,0,0,1-.69-.32l-.05-.06a.85.85,0,0,1,.14-1.21.88.88,0,0,1,1.23.12l.06.08a.84.84,0,0,1-.14,1.21A.91.91,0,0,1,144.47,148.39Zm-13.94-.28a.9.9,0,0,1-.58-.21.86.86,0,0,1-.09-1.22l.07-.07a.89.89,0,0,1,1.24-.08.86.86,0,0,1,.08,1.22l-.05.06A.89.89,0,0,1,130.53,148.11Zm11.59-1.77a.93.93,0,0,1-.46-.12l-.07,0a.86.86,0,0,1-.3-1.19.9.9,0,0,1,1.21-.29l.08.05a.85.85,0,0,1,.29,1.18A.88.88,0,0,1,142.12,146.34Zm-9.15-.18a.87.87,0,0,1-.77-.45.85.85,0,0,1,.34-1.17l.08,0a.89.89,0,0,1,1.2.34.85.85,0,0,1-.35,1.17l-.07,0A1,1,0,0,1,133,146.16Zm6.22-.95a.55.55,0,0,1-.18,0h-.08a.87.87,0,0,1-.7-1,.89.89,0,0,1,1-.68l.09,0a.86.86,0,0,1,.69,1A.88.88,0,0,1,139.19,145.21Zm-3.24-.06a.88.88,0,0,1-.87-.73.87.87,0,0,1,.73-1h.1a.88.88,0,0,1,1,.72.87.87,0,0,1-.75,1h-.07Z"/>
          </g>
          <ellipse class="e32ce670-af8f-4c91-a27e-946c53737a55" cx="164.83" cy="135.72" rx="4.81" ry="4.71"/>
          <ellipse class="e32ce670-af8f-4c91-a27e-946c53737a55" cx="145.57" cy="122.36" rx="4.81" ry="4.71"/>
          <path class="e32ce670-af8f-4c91-a27e-946c53737a55" d="M110.69,149.77a4.2,4.2,0,0,0-4.24-4.15,4.6,4.6,0,0,0-.84.08v8.14a3.86,3.86,0,0,0,.84.08A4.19,4.19,0,0,0,110.69,149.77Z"/>
        </g>
      </g>
      <path class="b02dfe8e-9cc5-47f4-aa6f-daa09ae4c79b" d="M252.79,340.31l-2.42-4.95-1.82-3.83-.14-.18c-8.44-17.3-26.76-55-33.55-69.8-8.93-19.55-9-37.34-22.3-34.8-3.92.75-12.33,20-15.28,34.59s-16.88,47-21.38,60.14c-2.32,6.8-4.78,15-6.62,21.37l-.12,0-.95,3.73c-1.14,4-1.86,6.64-1.86,6.64s8.09-.27,20.08,3l-.3,0-2,23s0-.11,0-.26l0,.26s-2.24,6.84,22.3,4.71c4.81-.42,9-.75,12.63-1,.79,9.7,1.84,22.33,2.29,26.82.75,7.57-.25,20.28-.25,20.28s13-7.23,22-17.1c7.95-8.75,12.92-13.88,11.74-19l0,.06,0-.12v0l0-.1c-.21-1.26-.89-5.36-1.82-10.84l-.86-5.91s-.06-.13-.19-.35c-.32-1.85-.65-3.77-1-5.74l-1.45-9-.12,0c-.42-2.41-.83-4.77-1.23-7,6.51-.92,14.85-2.25,18.4-3.5C252.8,349.12,255.05,344.72,252.79,340.31Z"/>
    </g>
  </g>
</svg>
