<svg xmlns="http://www.w3.org/2000/svg" width="930" height="86" viewBox="0 0 930 86">
  <defs>
    <style>
      .a9f50975-1e22-4c8b-b0cf-3da766468685 {
        fill: #fff;
      }
    </style>
  </defs>
  <g id="fa5a715d-eea5-46dd-bab8-10e8c8d60818" data-name="Layer 4">
    <g>
      <rect class="a9f50975-1e22-4c8b-b0cf-3da766468685" y="0.5" width="930" height="85" rx="12"/>
      <g>
        <path d="M44.88,17.23h9.06V35.11h.18c.9-1.56,1.86-3,2.76-4.44l9.18-13.44H77.28L63.9,34.45,78,57.67H67.32l-9.9-17.46-3.48,4.26v13.2H44.88Z"/>
        <path d="M87.42,45.91c.3,3.78,4,5.58,8.28,5.58a25.84,25.84,0,0,0,8.1-1.2l1.2,6.18a29,29,0,0,1-10.62,1.8c-10,0-15.66-5.76-15.66-14.94,0-7.44,4.62-15.66,14.82-15.66,9.48,0,13.08,7.38,13.08,14.64a21.67,21.67,0,0,1-.3,3.6Zm10.74-6.24c0-2.22-1-5.94-5.16-5.94-3.84,0-5.4,3.48-5.64,5.94Z"/>
        <path d="M119.1,45.91c.3,3.78,4,5.58,8.28,5.58a25.84,25.84,0,0,0,8.1-1.2l1.2,6.18a29,29,0,0,1-10.62,1.8c-10,0-15.66-5.76-15.66-14.94,0-7.44,4.62-15.66,14.82-15.66,9.48,0,13.08,7.38,13.08,14.64a21.67,21.67,0,0,1-.3,3.6Zm10.74-6.24c0-2.22-1-5.94-5.16-5.94-3.84,0-5.4,3.48-5.64,5.94Z"/>
        <path d="M143.76,38.17c0-3.84-.12-7.14-.24-9.84h7.92l.42,4.08H152c2.16-3.12,5.52-4.74,9.78-4.74,6.42,0,12.18,5.58,12.18,14.94,0,10.68-6.78,15.72-13.32,15.72-3.54,0-6.3-1.44-7.62-3.36h-.12V69.55h-9.12Zm9.12,6.9a9.08,9.08,0,0,0,.18,1.92,5.52,5.52,0,0,0,5.34,4.32c4,0,6.3-3.3,6.3-8.28,0-4.68-2.1-8.22-6.18-8.22a5.73,5.73,0,0,0-5.46,4.62,7.06,7.06,0,0,0-.18,1.62Z"/>
        <path d="M198.6,28.33,203,42.73c.48,1.74,1.08,3.9,1.44,5.46h.18c.42-1.56.9-3.78,1.32-5.46l3.6-14.4h9.78l-6.84,19.32c-4.2,11.64-7,16.32-10.32,19.26a16.81,16.81,0,0,1-8.82,4l-1.92-7.74a11.5,11.5,0,0,0,4-1.56A10.48,10.48,0,0,0,199.14,58a2.38,2.38,0,0,0,.48-1.32,3.31,3.31,0,0,0-.42-1.5L188.46,28.33Z"/>
        <path d="M251.22,42.67c0,10.74-7.62,15.66-15.48,15.66-8.58,0-15.18-5.64-15.18-15.12s6.24-15.54,15.66-15.54C245.22,27.67,251.22,33.85,251.22,42.67ZM230,43c0,5,2.1,8.82,6,8.82,3.54,0,5.82-3.54,5.82-8.82,0-4.38-1.68-8.82-5.82-8.82C231.6,34.15,230,38.65,230,43Z"/>
        <path d="M284.52,48.25c0,3.84.12,7,.24,9.42h-7.92l-.42-4.14h-.18a10.47,10.47,0,0,1-9.18,4.8c-5.94,0-10.32-3.72-10.32-12.78V28.33h9.18V44.11c0,4.26,1.38,6.84,4.56,6.84A4.91,4.91,0,0,0,275,47.77a5.09,5.09,0,0,0,.3-2V28.33h9.18Z"/>
        <path d="M291.84,38c0-4.32-.12-7.14-.24-9.66h7.86l.3,5.4H300a8.62,8.62,0,0,1,7.92-6.06,9.4,9.4,0,0,1,1.92.12v8.58a13.07,13.07,0,0,0-2.46-.24c-3.36,0-5.64,1.8-6.24,4.62a10.75,10.75,0,0,0-.18,2V57.67h-9.12Z"/>
        <path d="M326.76,37.69c0-3.66-.12-6.78-.24-9.36h7.92l.42,4H335a10.74,10.74,0,0,1,9.06-4.68c6,0,10.5,4,10.5,12.6v17.4h-9.12V41.41c0-3.78-1.32-6.36-4.62-6.36a4.87,4.87,0,0,0-4.62,3.42,6.27,6.27,0,0,0-.36,2.28V57.67h-9.12Z"/>
        <path d="M378.6,57.67l-.54-2.94h-.18a10.57,10.57,0,0,1-8.4,3.6c-5.94,0-9.48-4.32-9.48-9,0-7.62,6.84-11.28,17.22-11.22v-.42c0-1.56-.84-3.78-5.34-3.78a16.5,16.5,0,0,0-8.1,2.22l-1.68-5.88a24.22,24.22,0,0,1,11.4-2.58c9.78,0,12.9,5.76,12.9,12.66v10.2a45.46,45.46,0,0,0,.42,7.14Zm-1.08-13.86c-4.8-.06-8.52,1.08-8.52,4.62a3.28,3.28,0,0,0,3.6,3.48,5,5,0,0,0,4.74-3.36,6.54,6.54,0,0,0,.18-1.56Z"/>
        <path d="M403,20.17a4.58,4.58,0,0,1-4.92,4.56,4.46,4.46,0,0,1-4.74-4.56,4.46,4.46,0,0,1,4.8-4.62A4.57,4.57,0,0,1,403,20.17Zm-9.42,37.5V28.33h9.12V57.67Z"/>
        <path d="M410,15.07h9.12v42.6H410Z"/>
        <path d="M426.48,49.69a17.83,17.83,0,0,0,7.86,2.22c2.76,0,3.9-1,3.9-2.46s-.9-2.22-4.32-3.36c-6.06-2-8.4-5.34-8.34-8.82,0-5.46,4.68-9.6,11.94-9.6a19.68,19.68,0,0,1,8.28,1.68l-1.62,6.3A14.4,14.4,0,0,0,437.82,34c-2.22,0-3.48.9-3.48,2.4s1.14,2.1,4.74,3.36c5.58,1.92,7.92,4.74,8,9.06,0,5.46-4.32,9.48-12.72,9.48a20.77,20.77,0,0,1-9.48-2Z"/>
        <path d="M486.72,57a22.25,22.25,0,0,1-8.16,1.32c-9.48,0-15.54-5.76-15.54-15,0-8.58,5.88-15.6,16.8-15.6a21.16,21.16,0,0,1,7,1.14l-1.44,6.78a12.48,12.48,0,0,0-5.1-.9c-4.8,0-7.92,3.42-7.86,8.22,0,5.4,3.6,8.22,8,8.22a14.07,14.07,0,0,0,5.22-.9Z"/>
        <path d="M491.76,15.07h9.12v42.6h-9.12Z"/>
        <path d="M515.28,45.91c.3,3.78,4,5.58,8.28,5.58a25.84,25.84,0,0,0,8.1-1.2l1.2,6.18a29,29,0,0,1-10.62,1.8c-10,0-15.66-5.76-15.66-14.94,0-7.44,4.62-15.66,14.82-15.66,9.48,0,13.08,7.38,13.08,14.64a21.67,21.67,0,0,1-.3,3.6ZM526,39.67c0-2.22-1-5.94-5.16-5.94-3.84,0-5.4,3.48-5.64,5.94Z"/>
        <path d="M556.62,57.67l-.54-2.94h-.18a10.57,10.57,0,0,1-8.4,3.6c-5.94,0-9.48-4.32-9.48-9,0-7.62,6.84-11.28,17.22-11.22v-.42c0-1.56-.84-3.78-5.34-3.78a16.5,16.5,0,0,0-8.1,2.22l-1.68-5.88a24.22,24.22,0,0,1,11.4-2.58c9.78,0,12.9,5.76,12.9,12.66v10.2a45.46,45.46,0,0,0,.42,7.14Zm-1.08-13.86c-4.8-.06-8.52,1.08-8.52,4.62a3.28,3.28,0,0,0,3.6,3.48,5,5,0,0,0,4.74-3.36,6.54,6.54,0,0,0,.18-1.56Z"/>
        <path d="M571.62,37.69c0-3.66-.12-6.78-.24-9.36h7.92l.42,4h.18A10.74,10.74,0,0,1,589,27.67c6,0,10.5,4,10.5,12.6v17.4h-9.12V41.41c0-3.78-1.32-6.36-4.62-6.36a4.87,4.87,0,0,0-4.62,3.42,6.27,6.27,0,0,0-.36,2.28V57.67h-9.12Z"/>
        <path d="M635.58,57.67,635,54.73h-.18a10.57,10.57,0,0,1-8.4,3.6c-5.94,0-9.48-4.32-9.48-9,0-7.62,6.84-11.28,17.22-11.22v-.42c0-1.56-.84-3.78-5.34-3.78a16.5,16.5,0,0,0-8.1,2.22l-1.68-5.88a24.22,24.22,0,0,1,11.4-2.58c9.78,0,12.9,5.76,12.9,12.66v10.2a45.46,45.46,0,0,0,.42,7.14ZM634.5,43.81c-4.8-.06-8.52,1.08-8.52,4.62a3.28,3.28,0,0,0,3.6,3.48,5,5,0,0,0,4.74-3.36A6.54,6.54,0,0,0,634.5,47Z"/>
        <path d="M650.58,37.69c0-3.66-.12-6.78-.24-9.36h7.92l.42,4h.18a10.74,10.74,0,0,1,9.06-4.68c6,0,10.5,4,10.5,12.6v17.4H669.3V41.41c0-3.78-1.32-6.36-4.62-6.36a4.87,4.87,0,0,0-4.62,3.42,6.27,6.27,0,0,0-.36,2.28V57.67h-9.12Z"/>
        <path d="M714.18,15.07V48.91c0,3.3.12,6.78.24,8.76h-8.1l-.42-4.32h-.12a10.24,10.24,0,0,1-9.18,5c-7,0-12.54-5.94-12.54-15.06-.06-9.9,6.12-15.6,13.14-15.6,3.6,0,6.42,1.26,7.74,3.3h.12V15.07Zm-9.12,25.68a14.71,14.71,0,0,0-.12-1.62,5.48,5.48,0,0,0-5.34-4.5c-4.14,0-6.3,3.72-6.3,8.34,0,5,2.46,8.1,6.24,8.1a5.34,5.34,0,0,0,5.28-4.38,7.76,7.76,0,0,0,.24-2.1Z"/>
        <path d="M733.56,49.69a17.83,17.83,0,0,0,7.86,2.22c2.76,0,3.9-1,3.9-2.46s-.9-2.22-4.32-3.36c-6.06-2-8.4-5.34-8.34-8.82,0-5.46,4.68-9.6,11.94-9.6a19.68,19.68,0,0,1,8.28,1.68l-1.62,6.3A14.4,14.4,0,0,0,744.9,34c-2.22,0-3.48.9-3.48,2.4s1.14,2.1,4.74,3.36c5.58,1.92,7.92,4.74,8,9.06,0,5.46-4.32,9.48-12.72,9.48a20.77,20.77,0,0,1-9.48-2Z"/>
        <path d="M759.66,15.07h9.12V31.81h.12a11,11,0,0,1,3.6-3,10.24,10.24,0,0,1,4.74-1.14c5.82,0,10.26,4,10.26,12.84V57.67h-9.12V41.53c0-3.84-1.32-6.48-4.74-6.48a4.85,4.85,0,0,0-4.56,3.18,5.8,5.8,0,0,0-.3,2v17.4h-9.12Z"/>
        <path d="M823.79,42.67c0,10.74-7.61,15.66-15.47,15.66-8.58,0-15.18-5.64-15.18-15.12s6.24-15.54,15.66-15.54C817.8,27.67,823.79,33.85,823.79,42.67Zm-21.23.3c0,5,2.1,8.82,6,8.82,3.54,0,5.82-3.54,5.82-8.82,0-4.38-1.68-8.82-5.82-8.82C804.18,34.15,802.56,38.65,802.56,43Z"/>
        <path d="M829.44,38c0-4.32-.12-7.14-.24-9.66h7.86l.3,5.4h.24a8.62,8.62,0,0,1,7.92-6.06,9.4,9.4,0,0,1,1.92.12v8.58a13.07,13.07,0,0,0-2.46-.24c-3.36,0-5.64,1.8-6.24,4.62a10.75,10.75,0,0,0-.18,2V57.67h-9.12Z"/>
        <path d="M863.7,19.93v8.4h6.54v6.72H863.7V45.67c0,3.54.84,5.16,3.59,5.16a15,15,0,0,0,2.71-.24l0,6.9a17.78,17.78,0,0,1-5.93.78,9.49,9.49,0,0,1-6.84-2.52c-1.68-1.74-2.52-4.56-2.52-8.7v-12h-3.9V28.33h3.9V22Z"/>
        <path d="M874.38,52.81a5.28,5.28,0,0,1,5.4-5.58c3.18,0,5.34,2.28,5.34,5.58a5.37,5.37,0,1,1-10.74,0Z"/>
      </g>
    </g>
  </g>
</svg>
