<svg xmlns="http://www.w3.org/2000/svg" width="490" height="86" viewBox="0 0 490 86">
  <defs>
    <style>
      .bb50ade4-982d-41de-9cef-26efa3c95c77 {
        fill: #fff;
      }
    </style>
  </defs>
  <g id="aa159495-5d20-4356-b22e-0af3e41bed02" data-name="Layer 5">
    <g>
      <rect class="bb50ade4-982d-41de-9cef-26efa3c95c77" y="0.5" width="490" height="85" rx="12"/>
      <g>
        <path d="M91.76,23.53V39.07h15.06V23.53h9.12V64h-9.12V47.05H91.76V64H82.58V23.53Z"/>
        <path d="M140.3,64,139.76,61h-.18a10.57,10.57,0,0,1-8.4,3.6c-5.94,0-9.48-4.32-9.48-9,0-7.62,6.84-11.28,17.22-11.22V44c0-1.56-.84-3.78-5.34-3.78a16.5,16.5,0,0,0-8.1,2.22l-1.68-5.88A24.22,24.22,0,0,1,135.2,34c9.78,0,12.9,5.76,12.9,12.66v10.2a45.46,45.46,0,0,0,.42,7.14Zm-1.08-13.86c-4.8-.06-8.52,1.08-8.52,4.62a3.28,3.28,0,0,0,3.6,3.48A5,5,0,0,0,139,54.85a6.54,6.54,0,0,0,.18-1.56Z"/>
        <path d="M161.36,34.63l4,13.62A67.82,67.82,0,0,1,167,55.39h.18c.48-2.4,1-4.62,1.62-7.14l3.78-13.62h9.6L171.26,64h-9.12L151.46,34.63Z"/>
        <path d="M192.5,52.21c.3,3.78,4,5.58,8.28,5.58a25.84,25.84,0,0,0,8.1-1.2l1.2,6.18a29,29,0,0,1-10.62,1.8c-10,0-15.66-5.76-15.66-14.94,0-7.44,4.62-15.66,14.82-15.66,9.48,0,13.08,7.38,13.08,14.64a21.67,21.67,0,0,1-.3,3.6ZM203.24,46c0-2.22-1-5.94-5.16-5.94-3.84,0-5.4,3.48-5.64,5.94Z"/>
        <path d="M246,64,245.42,61h-.18a10.57,10.57,0,0,1-8.4,3.6c-5.94,0-9.48-4.32-9.48-9,0-7.62,6.84-11.28,17.22-11.22V44c0-1.56-.84-3.78-5.34-3.78a16.5,16.5,0,0,0-8.1,2.22l-1.68-5.88A24.22,24.22,0,0,1,240.86,34c9.78,0,12.9,5.76,12.9,12.66v10.2a45.46,45.46,0,0,0,.42,7.14Zm-1.08-13.86c-4.8-.06-8.52,1.08-8.52,4.62a3.28,3.28,0,0,0,3.6,3.48,5,5,0,0,0,4.74-3.36,6.54,6.54,0,0,0,.18-1.56Z"/>
        <path d="M272.84,64c.12-1.92.24-5.46.24-8.76V21.37h9.12V38.11h.12c1.74-2.52,4.8-4.14,8.88-4.14,7,0,12.18,5.82,12.12,14.82,0,10.56-6.72,15.84-13.44,15.84a9.74,9.74,0,0,1-8.82-4.74h-.12L280.58,64Zm9.36-12.48a6.69,6.69,0,0,0,.18,1.62,5.52,5.52,0,0,0,5.34,4.32c3.9,0,6.3-3,6.3-8.28,0-4.56-2-8.16-6.3-8.16a5.65,5.65,0,0,0-5.34,4.5,7.59,7.59,0,0,0-.18,1.68Z"/>
        <path d="M325.64,64,325.1,61h-.18a10.57,10.57,0,0,1-8.4,3.6c-5.94,0-9.48-4.32-9.48-9,0-7.62,6.84-11.28,17.22-11.22V44c0-1.56-.84-3.78-5.34-3.78a16.5,16.5,0,0,0-8.1,2.22l-1.68-5.88A24.22,24.22,0,0,1,320.54,34c9.78,0,12.9,5.76,12.9,12.66v10.2a45.46,45.46,0,0,0,.42,7.14Zm-1.08-13.86c-4.8-.06-8.52,1.08-8.52,4.62a3.28,3.28,0,0,0,3.6,3.48,5,5,0,0,0,4.74-3.36,6.54,6.54,0,0,0,.18-1.56Z"/>
        <path d="M350.36,26.23v8.4h6.54v6.72h-6.54V52c0,3.54.84,5.16,3.6,5.16a14.89,14.89,0,0,0,2.7-.24l.06,6.9a17.89,17.89,0,0,1-5.94.78,9.49,9.49,0,0,1-6.84-2.52c-1.68-1.74-2.52-4.56-2.52-8.7v-12h-3.9V34.63h3.9V28.27Z"/>
        <path d="M362.18,21.37h9.12V38.11h.12a11,11,0,0,1,3.6-3A10.24,10.24,0,0,1,379.76,34C385.58,34,390,38,390,46.81V64H380.9V47.83c0-3.84-1.32-6.48-4.74-6.48a4.85,4.85,0,0,0-4.56,3.18,5.8,5.8,0,0,0-.3,2V64h-9.12Z"/>
        <path d="M396.68,59.11a5.28,5.28,0,0,1,5.4-5.58c3.18,0,5.34,2.28,5.34,5.58a5.37,5.37,0,1,1-10.74,0Z"/>
      </g>
    </g>
  </g>
</svg>
