<svg xmlns="http://www.w3.org/2000/svg" width="160" height="162" viewBox="0 0 160 162">
  <defs>
    <style>
      .a58f5257-0f07-45d5-bd3d-7a591c8ee96d, .ad23b404-f6e6-482d-8a24-9ff529db815c, .bb45ac55-a49b-480c-9a8e-3452aabd881d {
        fill: #fff;
      }

      .ad23b404-f6e6-482d-8a24-9ff529db815c {
        stroke: #323232;
        stroke-miterlimit: 10;
      }

      .b3839c47-0d9a-463c-ad57-6094beaa6f4b {
        fill: #e203e8;
      }

      .bb45ac55-a49b-480c-9a8e-3452aabd881d {
        opacity: 0.4;
      }
    </style>
  </defs>
  <g id="a101a788-9ad2-4018-b5c3-1957677e34b8" data-name="Layer 12">
    <g>
      <path class="a58f5257-0f07-45d5-bd3d-7a591c8ee96d" d="M110.77,157.94a7.32,7.32,0,0,1-1.41-.13,7.24,7.24,0,0,1-2.7-1.1,7.44,7.44,0,0,1-2.14-2.14,7.56,7.56,0,0,1-.75-7,4.81,4.81,0,0,1-2.29.64h0a4.68,4.68,0,0,1-4.74-3.88,4.79,4.79,0,0,1-.06-.92,4.74,4.74,0,0,1,.25-1.44,4.79,4.79,0,0,1-1.55.25A4.7,4.7,0,0,1,92,140.9a4.49,4.49,0,0,1-.61-.77,4.56,4.56,0,0,1-.75-2.67,4.63,4.63,0,0,1,.25-1.44,4.94,4.94,0,0,1-1.44.25h0a4.81,4.81,0,0,1-2.68-.75,5.06,5.06,0,0,1-.75-.6,4.66,4.66,0,0,1-1.37-3.45,4.74,4.74,0,0,1,.25-1.44,5.08,5.08,0,0,1-1.55.25,4.66,4.66,0,0,1-3.32-1.36,4.11,4.11,0,0,1-.62-.77,4.65,4.65,0,0,1-.76-2.67A5,5,0,0,1,79,124a5.06,5.06,0,0,1-1.44.25h0a4.71,4.71,0,0,1-3.43-1.36,4.11,4.11,0,0,1-.62-.77,4.65,4.65,0,0,1-.76-2.67,5.64,5.64,0,0,1,.11-.92A5.26,5.26,0,0,1,73,118a4.7,4.7,0,0,1-3.69-.26,4.57,4.57,0,0,1-1.19-.85A4.7,4.7,0,0,1,67,112.05a4.56,4.56,0,0,1-1.56.26,4.69,4.69,0,0,1-2.55-.75,4.27,4.27,0,0,1-.77-.62,4.44,4.44,0,0,1-.61-.75,4.77,4.77,0,0,1-.59-3.8c0-.11.06-.22.1-.33a4.88,4.88,0,0,1-1.57.26,4.74,4.74,0,0,1-1.7-.31A4.6,4.6,0,0,1,56.1,105a4.66,4.66,0,0,1-1.37-3.43,4.75,4.75,0,0,1,.26-1.44,5.09,5.09,0,0,1-1.56.25A4.65,4.65,0,0,1,50.12,99a5.05,5.05,0,0,1-.63-.77,4.74,4.74,0,0,1-.75-2.67A5,5,0,0,1,49,94.09a5,5,0,0,1-1.44.25h0A4.7,4.7,0,0,1,43,88.1a4.94,4.94,0,0,1-1.44.25h0A4.79,4.79,0,0,1,38.13,87a4.49,4.49,0,0,1-.61-.77,4.67,4.67,0,0,1-.76-2.67A4.74,4.74,0,0,1,37,82.37,2.76,2.76,0,0,1,37,82.1a4.88,4.88,0,0,1-1.57.26,4.64,4.64,0,0,1-4.37-3,4.62,4.62,0,0,1-.25-.9A4.72,4.72,0,0,1,31,76.12a5.09,5.09,0,0,1-1.56.25,4.33,4.33,0,0,1-.8-.07A4.62,4.62,0,0,1,26.15,75a4.7,4.7,0,0,1-1.28-4.23c0-.1.05-.2.07-.3a3.58,3.58,0,0,1,.11-.35,4.7,4.7,0,0,1-1.45.26h0a4.75,4.75,0,0,1-2.66-.75,4.42,4.42,0,0,1-.76-.61,4.67,4.67,0,0,1-1.38-3.44,4.76,4.76,0,0,1,.26-1.45,4.82,4.82,0,0,1-3.69-.26A4.49,4.49,0,0,1,14.18,63a4.7,4.7,0,0,1-1.29-4.24c0-.07.06-.24.08-.31a5.14,5.14,0,0,1,.53-1.3,3.25,3.25,0,0,1-.5.18,7.42,7.42,0,0,1-2.38.39,7.55,7.55,0,0,1-7-10.29A8.11,8.11,0,0,1,5,45.07l25.3-32.49c5.38-7,11-8.52,14.84-8.52a15.73,15.73,0,0,1,7.13,1.73,8.42,8.42,0,0,1,2.2,1.61l99.12,99.11a8.56,8.56,0,0,1,.88,1,9.17,9.17,0,0,1,.73,1.18c1.45,2.82,5.24,12.78-6.82,22L115.94,156a7.92,7.92,0,0,1-5.17,1.95Z"/>
      <path class="a58f5257-0f07-45d5-bd3d-7a591c8ee96d" d="M153,109.86a6,6,0,0,0-1.15-1.57L52.72,9.18A6,6,0,0,0,51.15,8c-2.8-1.44-10.95-4.25-18.85,6.1L7,46.67a5.49,5.49,0,0,0-1,1.69A5,5,0,0,0,7,53.75a5.14,5.14,0,0,0,6.3.71,4.65,4.65,0,0,0,.78-.64L39.29,28.66a4.79,4.79,0,0,1,2.29-1.29,5.08,5.08,0,0,1,4.16.85L16,58a3.47,3.47,0,0,0-.3.37,2.26,2.26,0,0,0-.32.73.83.83,0,0,0,0,.15,2.17,2.17,0,0,0,.59,2h0a2.2,2.2,0,0,0,.54.38,2.33,2.33,0,0,0,2.69-.46L34.05,46.26,49,31.32l2.83,2.84L22,64a2.29,2.29,0,0,0-.07,3.24,1.87,1.87,0,0,0,.35.28,2.21,2.21,0,0,0,1.25.35,2.38,2.38,0,0,0,1.63-.71L55,37.31l2.83,2.84L28,70a3.47,3.47,0,0,0-.3.37,2.5,2.5,0,0,0-.32.73s0,.1,0,.15a2.2,2.2,0,0,0,.59,2,2.24,2.24,0,0,0,1.16.6,2.38,2.38,0,0,0,2.07-.68L60.94,43.3l2.83,2.84L34,76a2.37,2.37,0,0,0-.67,2.07,1.85,1.85,0,0,0,.11.42,2.17,2.17,0,0,0,.49.75,2.29,2.29,0,0,0,3.23-.08L66.93,49.29l2.83,2.84L40,82a3.47,3.47,0,0,0-.3.37,2.36,2.36,0,0,0-.31.69,2.82,2.82,0,0,0-.1.58,2.23,2.23,0,0,0,.35,1.25,2.34,2.34,0,0,0,.29.35,2.21,2.21,0,0,0,1.6.63,2.38,2.38,0,0,0,1.63-.71L72.92,55.28l2.83,2.84L46,88a2.42,2.42,0,0,0-.71,1.64,2.19,2.19,0,0,0,.64,1.6,2.23,2.23,0,0,0,1.6.63,2.38,2.38,0,0,0,1.63-.71L78.91,61.27l2.83,2.84L52,94a2.37,2.37,0,0,0-.7,1.64,2.22,2.22,0,0,0,.34,1.25,2.34,2.34,0,0,0,.29.35,2.29,2.29,0,0,0,3.23-.08L84.9,67.27l2.83,2.83L58,99.94a2.44,2.44,0,0,0-.52.77,2.22,2.22,0,0,0-.18.87,2.15,2.15,0,0,0,.63,1.6,2.05,2.05,0,0,0,.74.48,2.33,2.33,0,0,0,2.49-.56L90.89,73.26l2.83,2.83L63.94,105.93a2.43,2.43,0,0,0-.62,1.1,2,2,0,0,0-.08.54,2.22,2.22,0,0,0,.34,1.25,2.34,2.34,0,0,0,.29.35,2.22,2.22,0,0,0,2.47.44,2.4,2.4,0,0,0,.76-.52L96.88,79.25l2.83,2.83L69.93,111.92a2.55,2.55,0,0,0-.52.77,2.24,2.24,0,0,0,.45,2.47h0a2.08,2.08,0,0,0,.55.38,2.28,2.28,0,0,0,2.32-.16,2.6,2.6,0,0,0,.36-.3l29.78-29.84,2.83,2.83L75.92,117.91a3.47,3.47,0,0,0-.3.37,2.41,2.41,0,0,0-.35.83,2.2,2.2,0,0,0,0,.44,2.22,2.22,0,0,0,.34,1.25,3.17,3.17,0,0,0,.29.35,2.23,2.23,0,0,0,1.6.63,2.43,2.43,0,0,0,.87-.19,2.4,2.4,0,0,0,.76-.52l29.78-29.84,2.83,2.83L81.91,123.9a3.47,3.47,0,0,0-.3.37,2.38,2.38,0,0,0-.4,1.27,2.22,2.22,0,0,0,.34,1.25,3.17,3.17,0,0,0,.29.35,2.29,2.29,0,0,0,3.23-.08l29.78-29.84,2.83,2.83L87.9,129.89a2.55,2.55,0,0,0-.52.77,2.42,2.42,0,0,0-.18.87,2.15,2.15,0,0,0,.63,1.6,2.26,2.26,0,0,0,.35.28,2.16,2.16,0,0,0,1.25.35,2.39,2.39,0,0,0,1.27-.41,2.6,2.6,0,0,0,.36-.3l29.78-29.84,2.83,2.83L93.89,135.88a2.41,2.41,0,0,0-.7,1.64,2.22,2.22,0,0,0,.34,1.25,3.17,3.17,0,0,0,.29.35,2.26,2.26,0,0,0,2.87.22,2,2,0,0,0,.36-.3l29.78-29.84c1.1,1.09,2,2,2.83,2.83L99.88,141.88a2.3,2.3,0,0,0-.7,1.63,1.53,1.53,0,0,0,0,.43,2.1,2.1,0,0,0,.6,1.17,2.18,2.18,0,0,0,1.6.63A2.34,2.34,0,0,0,103,145l29.73-29.79a5.09,5.09,0,0,1,.87,4.18,4.74,4.74,0,0,1-1.29,2.3l-25.17,25.17a5,5,0,0,0-.57,6.29,4.88,4.88,0,0,0,.65.79,5.35,5.35,0,0,0,.79.65,5,5,0,0,0,1.78.72,5.32,5.32,0,0,0,4.51-1.29l32.54-25.34C157.22,120.8,154.41,112.66,153,109.86Z"/>
      <g>
        <path class="ad23b404-f6e6-482d-8a24-9ff529db815c" d="M147.44,128.24c9.64-7.75,6.95-15.64,5.54-18.38a6.11,6.11,0,0,0-1.15-1.57L52.72,9.18A6,6,0,0,0,51.15,8c-2.74-1.41-10.63-4.1-18.39,5.54l0,0h0c-.14.18-.28.32-.42.51L7,46.67A5.12,5.12,0,0,0,7,53.75a5,5,0,0,0,7.08.07L39.29,28.66a5,5,0,0,1,6.45-.44L16,58a2.24,2.24,0,1,0,3.16,3.16L49,31.32l2.83,2.84L22,64a2.24,2.24,0,1,0,3.16,3.16L55,37.31l2.83,2.84L28,70a2.24,2.24,0,1,0,3.16,3.16L60.94,43.3l2.83,2.84L34,76a2.24,2.24,0,1,0,3.16,3.16L66.93,49.29l2.83,2.84L40,82a2.24,2.24,0,1,0,3.16,3.16L72.92,55.28l2.83,2.84L46,88a2.24,2.24,0,1,0,3.16,3.16L78.91,61.27l2.83,2.84L52,94a2.24,2.24,0,1,0,3.16,3.16L84.9,67.27l2.83,2.83L58,99.94a2.24,2.24,0,1,0,3.16,3.16L90.89,73.26l2.83,2.83L63.94,105.93a2.24,2.24,0,1,0,3.16,3.16L96.88,79.25l2.83,2.83L69.93,111.92a2.24,2.24,0,1,0,3.16,3.16l29.78-29.84,2.83,2.83L75.92,117.91a2.24,2.24,0,1,0,3.16,3.16l29.78-29.84,2.83,2.83L81.91,123.9a2.24,2.24,0,1,0,3.16,3.16l29.78-29.84,2.83,2.83L87.9,129.89a2.24,2.24,0,1,0,3.16,3.16l29.78-29.84,2.83,2.83L93.89,135.88A2.24,2.24,0,1,0,97.05,139l29.78-29.84,2.83,2.83L99.88,141.88A2.23,2.23,0,1,0,103,145l29.73-29.79a5,5,0,0,1-.42,6.48l-25.17,25.17a5,5,0,0,0,.08,7.08,5.12,5.12,0,0,0,7.08.08l32.54-25.34.51-.42h0Z"/>
        <g>
          <path class="b3839c47-0d9a-463c-ad57-6094beaa6f4b" d="M7,46.67A5.12,5.12,0,0,0,7,53.75a5,5,0,0,0,7.08.07L39.29,28.66a5,5,0,0,1,6.45-.44L16,58a2.24,2.24,0,1,0,3.16,3.16L49,31.32l2.83,2.84L22,64a2.24,2.24,0,1,0,3.16,3.16L55,37.31l2.83,2.84L28,70a2.24,2.24,0,1,0,3.16,3.16L60.94,43.3l2.83,2.84L34,76a2.24,2.24,0,1,0,3.16,3.16L66.93,49.29l2.83,2.84L40,82a2.24,2.24,0,1,0,3.16,3.16L72.92,55.28l2.83,2.84L46,88a2.24,2.24,0,1,0,3.16,3.16L78.91,61.28l2.83,2.83L52,94a2.24,2.24,0,1,0,3.16,3.16L84.9,67.27l2.83,2.83L58,99.94a2.24,2.24,0,1,0,3.16,3.16L90.89,73.26l2.83,2.83L63.94,105.93a2.24,2.24,0,1,0,3.16,3.16L96.88,79.25l2.83,2.83L69.93,111.92a2.24,2.24,0,1,0,3.16,3.16l29.78-29.84,2.83,2.83L75.92,117.91a2.24,2.24,0,1,0,3.16,3.16l29.78-29.84,2.83,2.83L81.91,123.9a2.24,2.24,0,1,0,3.16,3.16l29.78-29.84,2.83,2.83L87.9,129.89a2.24,2.24,0,1,0,3.16,3.16l29.78-29.84,2.83,2.83L93.89,135.88A2.24,2.24,0,1,0,97.05,139l29.78-29.84,2.83,2.83L99.88,141.88A2.23,2.23,0,1,0,103,145l29.73-29.79a5,5,0,0,1-.42,6.48l-25.17,25.17a5,5,0,0,0,.08,7.08,5.12,5.12,0,0,0,7.08.08l32.54-25.34c10.34-7.91,7.53-16.05,6.1-18.85a6.11,6.11,0,0,0-1.15-1.57L52.72,9.18A6,6,0,0,0,51.15,8c-2.8-1.44-10.95-4.25-18.85,6.1Z"/>
          <path class="bb45ac55-a49b-480c-9a8e-3452aabd881d" d="M47.12,12.06a6.24,6.24,0,0,1,1.57,1.14l99.11,99.12a6.11,6.11,0,0,1,1.15,1.57c1.16,2.27,3.24,8.07-1.57,14.4,9.7-7.77,7-15.67,5.59-18.42a6.54,6.54,0,0,0-1.15-1.57L52.71,9.19A6.28,6.28,0,0,0,51.14,8c-2.75-1.41-10.66-4.11-18.42,5.58C39.05,8.82,44.85,10.89,47.12,12.06Z"/>
        </g>
      </g>
    </g>
  </g>
</svg>
