<svg xmlns="http://www.w3.org/2000/svg" width="192.32" height="192.32" viewBox="0 0 192.32 192.32">
  <defs>
    <style>
      .bb68442d-3955-4249-a765-f49b5fc6eaec, .e054936e-7573-468b-990e-003f11e579e9 {
        fill: #323232;
      }

      .bb68442d-3955-4249-a765-f49b5fc6eaec {
        stroke: #323232;
        stroke-miterlimit: 10;
        stroke-width: 2px;
      }

      .b711cdf3-5e8c-42be-8b8c-1200d39465ad {
        fill: #fff82e;
      }

      .bb428a6c-9518-472f-992c-86f54951adc1 {
        fill: #fec02d;
      }

      .a91a8733-de01-4235-82cc-fc7725ac1e7d {
        fill: #fa0;
      }

      .be5e913f-1cd9-4fd3-a081-179d73970ab5 {
        fill: #feffff;
      }

      .b82a2ee5-2ffd-47ea-8335-598b807b535b {
        fill: #ccc;
      }
    </style>
  </defs>
  <g id="f23a3cad-03bf-4ed6-9205-583b4c4ffacb" data-name="Layer 23">
    <g>
      <path class="bb68442d-3955-4249-a765-f49b5fc6eaec" d="M189.18,74.19c-1.06-3.73-6.25-6.29-13.15-8.13l-1.77-.44a132.74,132.74,0,0,0-13.63-2.39c-4.06-.53-8.15-.95-12-1.31s-7.35-.68-10.32-1a15.26,15.26,0,0,1-7.26-3.07c-.48-.34-1-.7-1.41-1.09a52,52,0,0,1-9.31-10.9c-.42-.62-.83-1.25-1.24-1.89q-1.22-1.92-2.39-3.92c-6.21-10.64-11.15-22.52-14-28.33-.18-.37-.36-.71-.55-1L102,10.4c-.13-.21-.25-.42-.38-.61l-.24-.32L101,9c-.08-.1-.17-.19-.25-.28s-.24-.26-.36-.37a3,3,0,0,0-.26-.24l-.36-.31-.27-.19c-.12-.08-.24-.17-.36-.24l-.27-.15c-.13-.06-.25-.13-.38-.18l-.26-.11a3,3,0,0,0-.39-.13l-.25-.07-.41-.08-.23,0-.43,0h-.66l-.19,0a3.78,3.78,0,0,0-.47.06l-.16,0-.5.11-.12,0a5.34,5.34,0,0,0-.53.16l-.08,0-.56.22,0,0-.58.28h0a18.63,18.63,0,0,0-5.16,4.17C66.6,66.46,53.6,60.37,53.6,60.37,20.84,65.9-.06,69.22,3.33,79.72s20.33,23.77,33.33,36.48-1.13,37.59-2.83,51.41c-1.57,12.84,6.61,16.13,14.12,15.64h.13c.53,0,1.05-.09,1.57-.16,3.21-.45,9.22-3.27,15.87-6.73,5.63-2.92,11.71-6.29,16.94-9.05,1-.51,1.87-1,2.76-1.45,2.22-1.14,4.21-2.12,5.85-2.83l1-.4.26-.08.23-.08h0c9.76-3.2,28.54,11.35,41.88,19a30.05,30.05,0,0,0,13,4.28l.57,0q.57,0,1.11,0l.63-.05c.35,0,.69-.07,1-.13a11.56,11.56,0,0,0,1.35-.32c.26-.08.5-.19.75-.29a5.78,5.78,0,0,0,.72-.31,7,7,0,0,0,.66-.36,7.47,7.47,0,0,0,.74-.51,4.49,4.49,0,0,0,.49-.37,8.29,8.29,0,0,0,1-1l.33-.46a9.86,9.86,0,0,0,.58-.94c.1-.17.19-.35.28-.53a10.25,10.25,0,0,0,.53-1.35c0-.1.08-.2.11-.3a14.63,14.63,0,0,0,.4-1.89c0-.19,0-.4.06-.6.06-.52.1-1.07.11-1.64,0-.22,0-.44,0-.67,0-.79,0-1.6-.14-2.47-.16-1.45-.35-3-.56-4.73-.14-1.13-.29-2.3-.44-3.51-.23-1.82-.48-3.72-.72-5.67-.83-6.5-1.7-13.56-2.25-20q-.08-1-.15-1.92c-.48-6.32-.61-11.9,0-15.58a11.51,11.51,0,0,1,.74-2.75c1.8-4.11,12.05-13.22,20.84-22.34,1-1.07,2.05-2.15,3-3.21.49-.53,1-1.06,1.43-1.59a66.51,66.51,0,0,0,5.95-7.57c.31-.48.59-.94.85-1.4C189,78.47,189.71,76.06,189.18,74.19Z"/>
      <g>
        <g>
          <path class="b711cdf3-5e8c-42be-8b8c-1200d39465ad" d="M53.6,60.37s13,6.08,33.9-48.65c0,0,9.6-11.6,15.25,0s19.77,47.54,35.59,49.2,48,3.32,50.84,13.27-30.5,35.37-33.89,43.11S157,156,158.68,171.47s-10.74,17.69-24.29,9.95S101.62,158.76,92,162.63,57.56,182,49.65,183.08s-17.51-1.66-15.82-15.48,15.82-38.69,2.83-51.41S6.72,90.21,3.33,79.71,20.84,65.89,53.6,60.37Z"/>
          <g>
            <path class="bb428a6c-9518-472f-992c-86f54951adc1" d="M85.24,162.63c-9.45,3.8-33.64,18.83-42,20.37a20.32,20.32,0,0,0,6.37.08C57.56,182,82.41,166.49,92,162.63a4.75,4.75,0,0,1,.49-.17A12.24,12.24,0,0,0,85.24,162.63Z"/>
            <path class="a91a8733-de01-4235-82cc-fc7725ac1e7d" d="M155.29,117.3c3.39-7.74,36.72-33.17,33.89-43.11s-35-11.61-50.84-13.27-29.94-37.59-35.59-49.2c-2.93-6-6.93-5.79-10.09-4.17A10.18,10.18,0,0,1,96,11.72c5.65,11.61,19.77,47.54,35.59,49.2s48,3.32,50.84,13.27-30.5,35.37-33.89,43.11,1.69,38.69,3.39,54.17c.9,8.23-2.21,12.67-7.35,13.9,8.92,1.7,15.38-2.47,14.13-13.9C157,156,151.9,125,155.29,117.3Z"/>
          </g>
          <path class="be5e913f-1cd9-4fd3-a081-179d73970ab5" d="M17,72.34S63.44,67.51,69,60c7.16-9.58,22.29-43.49,22.29-43.49s-.91,24.14-16,44.41C70.79,67.06,62.69,75.29,17,72.34Z"/>
          <path class="be5e913f-1cd9-4fd3-a081-179d73970ab5" d="M72.06,164.47s17.32-11.06,24.1-11.06,23.73,11.79,23.73,11.79-11.3-16.95-23.73-16.95S72.06,164.47,72.06,164.47Z"/>
          <path class="be5e913f-1cd9-4fd3-a081-179d73970ab5" d="M152.14,63.48s-21.67.24-27.59-3S107.7,38.42,107.7,38.42,111.13,59.06,122,65,152.14,63.48,152.14,63.48Z"/>
        </g>
        <g>
          <g>
            <ellipse class="e054936e-7573-468b-990e-003f11e579e9" cx="77.28" cy="93.53" rx="4.14" ry="11.05"/>
            <ellipse class="b82a2ee5-2ffd-47ea-8335-598b807b535b" cx="77.29" cy="85.9" rx="2.05" ry="3.41"/>
          </g>
          <g>
            <ellipse class="e054936e-7573-468b-990e-003f11e579e9" cx="115.04" cy="93.53" rx="4.14" ry="11.05"/>
            <ellipse class="b82a2ee5-2ffd-47ea-8335-598b807b535b" cx="115.05" cy="85.9" rx="2.05" ry="3.41"/>
          </g>
        </g>
        <path class="e054936e-7573-468b-990e-003f11e579e9" d="M66,111a61.66,61.66,0,0,0,6.83,4.9,63.29,63.29,0,0,0,7.33,4A50.59,50.59,0,0,0,88,122.7a35.4,35.4,0,0,0,8.1,1.26,33.6,33.6,0,0,0,8.13-.61,37.28,37.28,0,0,0,7.78-2.61A52.75,52.75,0,0,0,125.48,111a41.79,41.79,0,0,1-12.79,11.13,35,35,0,0,1-8.07,3.06A34.33,34.33,0,0,1,96,126a39.6,39.6,0,0,1-16.46-4.68A49.59,49.59,0,0,1,66,111Z"/>
      </g>
    </g>
  </g>
</svg>
