<svg xmlns="http://www.w3.org/2000/svg" width="114" height="164" viewBox="0 0 114 164">
  <defs>
    <style>
      .a60bb1a0-f487-41a3-9aeb-c0ddcd6496e8 {
        isolation: isolate;
      }

      .a11394aa-ab10-408d-a552-95705c7a1124, .b012b862-675c-4248-b33b-97162336b41a {
        fill: #fff;
      }

      .a11394aa-ab10-408d-a552-95705c7a1124, .a33ab946-dd8a-4f42-8e41-bca507c3a200, .b012b862-675c-4248-b33b-97162336b41a, .b197c2a4-86f8-4afb-92f0-366777128664 {
        mix-blend-mode: screen;
      }

      .bbeddb14-bbd5-414a-9838-15e3f00083e3 {
        fill: #fff6b2;
        stroke: #323232;
        stroke-miterlimit: 10;
        stroke-width: 2px;
      }

      .a727d90f-6e18-489c-b26c-f2b1a79639be {
        fill: #21db4d;
      }

      .a2764222-0559-4b12-ba4e-21dfc1312e5c, .b197c2a4-86f8-4afb-92f0-366777128664, .f9c0d587-5b2b-4eb4-97c7-0b97ce5283a6 {
        fill: #00577d;
      }

      .a34a5128-0625-4b81-9af3-bf9229e386df, .af93a666-9949-4ff3-b9b2-5d4d255ae3ea {
        fill: #afaba6;
      }

      .a33ab946-dd8a-4f42-8e41-bca507c3a200, .a70083dd-715e-4897-a81f-5bdae9ee3f16 {
        opacity: 0.3;
      }

      .a2764222-0559-4b12-ba4e-21dfc1312e5c, .a70083dd-715e-4897-a81f-5bdae9ee3f16, .af93a666-9949-4ff3-b9b2-5d4d255ae3ea {
        mix-blend-mode: multiply;
      }

      .a33ab946-dd8a-4f42-8e41-bca507c3a200 {
        fill: #b36e02;
      }

      .b012b862-675c-4248-b33b-97162336b41a, .b197c2a4-86f8-4afb-92f0-366777128664 {
        opacity: 0.2;
      }

      .a2764222-0559-4b12-ba4e-21dfc1312e5c, .af93a666-9949-4ff3-b9b2-5d4d255ae3ea {
        opacity: 0.5;
      }
    </style>
  </defs>
  <g class="a60bb1a0-f487-41a3-9aeb-c0ddcd6496e8">
    <g id="e9529ec3-133d-4dd8-b344-0d7ad66ab038" data-name="Layer 12">
      <g>
        <path class="a11394aa-ab10-408d-a552-95705c7a1124" d="M76.59,160.34a10.54,10.54,0,0,0,3.6-.63,10.35,10.35,0,0,0,4.8-3.58,10.13,10.13,0,0,0,1.88-4.25l9.92-54.36a51.59,51.59,0,0,0-5.14-33.21c-.77-1.46-1.62-2.89-2.51-4.26l-6.4-9.74a13,13,0,0,0-.92-1.22l-.29-.33c-.28-.3-.5-.53-.73-.75s-.32-.3-.49-.44a6.89,6.89,0,0,0-.61-.49L79.6,47c-.17-.13-.33-.26-.51-.38l-.25-.16a14.37,14.37,0,0,0-1.93-1l-.17-.08c-.26-.11-.55-.21-.83-.31L71.7,35.82a2.39,2.39,0,0,0-1.64-1.34l-.24-.08-.5-.18a6.57,6.57,0,0,1-2-1.23,3.44,3.44,0,0,1-1.06-1.68,2.47,2.47,0,0,0-.1-.29q-.32-1.65-.54-3.42c-.08-.65-.15-1.25-.2-1.78-.13-1.37-.17-2.26-.18-2.29a2.41,2.41,0,0,0-1.78-2.23V15.39h3.8a6.75,6.75,0,0,0,1.19-.11,5.93,5.93,0,0,0,4.76-5.75,5.95,5.95,0,0,0-6-5.87H45.05a24.79,24.79,0,0,0-8.32,1.41,25.62,25.62,0,0,0-2.61,1.08l-9.65,4.66a4.66,4.66,0,0,0-.87.54A3.94,3.94,0,0,0,22,14.52a3.86,3.86,0,0,0,0,.6,4.73,4.73,0,0,0,.24,1,4.93,4.93,0,0,0,.51,1.05,4.32,4.32,0,0,0,1.74,1.5,4.3,4.3,0,0,0,2,.47,4.26,4.26,0,0,0,1.18-.17l10.54-3a14.6,14.6,0,0,1,3.95-.55h8.34V21.3a2.42,2.42,0,0,0-1.79,2.23s0,.92-.17,2.29-.36,3.26-.76,5.29a3.39,3.39,0,0,1-1,1.8,6.15,6.15,0,0,1-.66.54l-.49.31a9.16,9.16,0,0,1-1.45.64l-.27.08a2.43,2.43,0,0,0-1.64,1.34L38.1,45l-.23.07-.49.2c-.35.15-.64.28-.92.42L36,46a11.56,11.56,0,0,0-1.23.76l-.21.15c-.32.23-.65.5-1,.78l-.28.26c-.33.32-.58.57-.82.84l-.3.34a13.46,13.46,0,0,0-.92,1.22l-6.4,9.74c-.6.92-1.2,1.91-1.87,3.11l-.31.54c-.59,1.08-1.14,2.18-1.63,3.27l-.08.17a52.39,52.39,0,0,0-2.66,7.29l0,.13c-.18.64-.35,1.28-.5,1.92h0s-.05.19-.05.21a52.14,52.14,0,0,0-1.18,7.56s-.05.7-.05.7c0,.44-.05.88-.07,1.31v.13q0,.44,0,.87c0,.4,0,.79,0,1.19s0,.77,0,1.16,0,.72,0,1.08,0,.86.08,1.29l.07,1c.05.49.1,1,.16,1.48l.1.79c.1.75.21,1.49.35,2.22,0,0,9.93,54.44,9.93,54.44a10.34,10.34,0,0,0,6.68,7.82,10.54,10.54,0,0,0,3.6.63Z"/>
        <g>
          <path class="bbeddb14-bbd5-414a-9838-15e3f00083e3" d="M19.15,94.16c0,.25.05.5.09.75.1.73.21,1.45.34,2.18l9.92,54.36a8,8,0,0,0,7.91,6.48H76.59a8,8,0,0,0,7.91-6.48l3.65-20h0l6.27-34.34a49,49,0,0,0-7.3-35.72l-6.4-9.73a11,11,0,0,0-6.93-4.7l.37.07-2.7-5.9h0l-1.95-4.29S65,35.75,63.94,31.93l0,0c0-.13-.07-.24-.1-.37a59.57,59.57,0,0,1-1-7.95H61.06V13h6.21a3.5,3.5,0,0,0,3.54-3.46,3.5,3.5,0,0,0-3.54-3.45H45.05a22.76,22.76,0,0,0-9.88,2.25L26.52,12.5h0l-1,.48a1.86,1.86,0,0,0-.72,2.83,2,2,0,0,0,2.25.82l10.54-3A16.72,16.72,0,0,1,42.19,13H52.94V23.63H51.15a59.57,59.57,0,0,1-1,8c-.82,4.13-5.69,5.24-5.69,5.24l-1.12,2.46h0L39.84,47h0a11,11,0,0,0-6.6,4.63l-.18.28h0l-6.21,9.45a49.25,49.25,0,0,0-6.25,13.72l0,.12q-.26.9-.48,1.83l0,.16A49.45,49.45,0,0,0,19,84.48c0,.21,0,.42-.05.63,0,.42,0,.83-.06,1.25s0,.64,0,1,0,.75,0,1.12,0,.74,0,1.11,0,.68,0,1,0,.82.07,1.23,0,.62.07.93C19,93.21,19.09,93.69,19.15,94.16Zm22-47.4a12.48,12.48,0,0,1,1.38-.08A12.48,12.48,0,0,0,41.18,46.76Zm31.64,0h0Z"/>
          <g>
            <path class="a727d90f-6e18-489c-b26c-f2b1a79639be" d="M26.88,61.37l6.39-9.73a11.08,11.08,0,0,1,9.29-5H71.44a11.06,11.06,0,0,1,9.28,5l6.4,9.73a49,49,0,0,1,7.3,35.72L84.5,151.45a8,8,0,0,1-7.91,6.48H37.41a8,8,0,0,1-7.91-6.48L19.58,97.09A49,49,0,0,1,26.88,61.37Z"/>
            <path class="f9c0d587-5b2b-4eb4-97c7-0b97ce5283a6" d="M44.49,36.82h25L74.16,47a11.19,11.19,0,0,0-2.72-.33H42.56a11.19,11.19,0,0,0-2.72.33Z"/>
            <path class="f9c0d587-5b2b-4eb4-97c7-0b97ce5283a6" d="M50.18,31.58a59.57,59.57,0,0,0,1-7.95h11.7a59.57,59.57,0,0,0,1,8c.81,4.13,5.69,5.24,5.69,5.24h-25S49.36,35.71,50.18,31.58Z"/>
            <polygon class="a34a5128-0625-4b81-9af3-bf9229e386df" points="57 12.98 61.06 12.98 61.06 23.63 57 23.63 52.94 23.63 52.94 12.98 57 12.98"/>
            <path class="f9c0d587-5b2b-4eb4-97c7-0b97ce5283a6" d="M25.51,13l9.66-4.66a22.76,22.76,0,0,1,9.88-2.25H67.27a3.5,3.5,0,0,1,3.54,3.45A3.5,3.5,0,0,1,67.27,13H42.19a16.72,16.72,0,0,0-4.61.65L27,16.63a2,2,0,0,1-2.25-.82A1.86,1.86,0,0,1,25.51,13Z"/>
            <path class="a70083dd-715e-4897-a81f-5bdae9ee3f16" d="M22.58,92.3c.9,12.32,4.88,24.7,13,34.15S56.35,142,68.91,140.8a31.36,31.36,0,0,0,19.24-9.37l-3.65,20a8,8,0,0,1-7.91,6.48H37.41a8,8,0,0,1-7.91-6.48L19.58,97.09a48.93,48.93,0,0,1,4.74-31.32A108.46,108.46,0,0,0,22.58,92.3Z"/>
            <path class="a33ab946-dd8a-4f42-8e41-bca507c3a200" d="M60.83,48.83a61.35,61.35,0,0,0-27.74,3.09l.18-.28a11.08,11.08,0,0,1,9.29-5H71.44a11.06,11.06,0,0,1,9.28,5l3.43,5.21A62.41,62.41,0,0,0,60.83,48.83Z"/>
            <path class="b012b862-675c-4248-b33b-97162336b41a" d="M59.22,46.68H71.44a11.66,11.66,0,0,1,2.13.22,87.84,87.84,0,0,1,7.7,15.2A100,100,0,0,1,88.6,99.8a111.77,111.77,0,0,1-2.36,21c-1.11,4.87-2.77,9.94-6.6,13.23a18,18,0,0,1-8,3.73c-1.63.35-3.51.49-4.78-.56s-1.45-3.23-1.4-5a414.28,414.28,0,0,0-6.18-85C59.26,47,59.24,46.83,59.22,46.68Z"/>
            <path class="a2764222-0559-4b12-ba4e-21dfc1312e5c" d="M47.1,42.37c3.17,1.35,6.78,1.11,10.23.83,3-.25,6-.51,9-1,1.68-.28,3.39-.83,5.1-1.07l2.7,5.9a11.19,11.19,0,0,0-2.72-.33H42.56a11.19,11.19,0,0,0-2.72.33l3.53-7.73A8.71,8.71,0,0,0,47.1,42.37Z"/>
            <path class="a2764222-0559-4b12-ba4e-21dfc1312e5c" d="M59.15,34.12a6.87,6.87,0,0,0,4.79-2.19c1,3.82,5.57,4.89,5.57,4.89h-25s4.87-1.11,5.69-5.24a59.57,59.57,0,0,0,1-7.95h2.27a6.78,6.78,0,0,0-.64,6.42A7,7,0,0,0,59.15,34.12Z"/>
            <path class="af93a666-9949-4ff3-b9b2-5d4d255ae3ea" d="M52.94,23.63V13h8.12v2.09a4.44,4.44,0,0,0-2.8.47A3.8,3.8,0,0,0,56.33,19a3.42,3.42,0,0,0,2.22,2.94,3.46,3.46,0,0,0,2.51-.32v2H52.94Z"/>
            <path class="a2764222-0559-4b12-ba4e-21dfc1312e5c" d="M25.51,13l1-.48A2.36,2.36,0,0,0,28.37,14,6.52,6.52,0,0,0,32,12.94,31,31,0,0,1,43.29,9.38c8.33-.78,16.87,2.83,25,.76A6,6,0,0,0,70.75,9a3.43,3.43,0,0,1,.06.56A3.5,3.5,0,0,1,67.27,13H42.19a16.72,16.72,0,0,0-4.61.65L27,16.63a2,2,0,0,1-2.25-.82A1.86,1.86,0,0,1,25.51,13Z"/>
            <path class="b197c2a4-86f8-4afb-92f0-366777128664" d="M67.88,39.48a3.56,3.56,0,0,1-1.32.36,33.46,33.46,0,0,1-8.35.42,4.33,4.33,0,0,1-1.74-.51,1.63,1.63,0,0,1-.81-1.5c0-.27,3.5-.53,3.87-.57a35.27,35.27,0,0,1,4.11-.12c1.2,0,2.44.08,3.63.16S69.11,38.76,67.88,39.48Z"/>
            <path class="b197c2a4-86f8-4afb-92f0-366777128664" d="M62.41,29.35a3.49,3.49,0,0,1-.06,1.12,1.08,1.08,0,0,1-1.92.47,2.8,2.8,0,0,1-.6-1.16,9.79,9.79,0,0,1-.44-2.63,4.08,4.08,0,0,1,.2-1.52,1.94,1.94,0,0,1,1-1.12C62.93,23.57,62.35,28.21,62.41,29.35Z"/>
            <path class="b012b862-675c-4248-b33b-97162336b41a" d="M68.73,8.27a2.07,2.07,0,0,1-1.47.6,47.68,47.68,0,0,1-14.36,0,2.46,2.46,0,0,1-1.16-.42.86.86,0,0,1-.25-1.1c.17-.25,2-.26,2.35-.3.79-.09,1.58-.16,2.37-.22q2.48-.18,4.95-.18c1.66,0,3.31.07,5,.19C66.67,6.87,69.78,6.88,68.73,8.27Z"/>
          </g>
        </g>
      </g>
    </g>
  </g>
</svg>
