<svg xmlns="http://www.w3.org/2000/svg" width="114" height="164" viewBox="0 0 114 164">
  <defs>
    <style>
      .f7dd0f47-6a97-4ee5-81b1-5bb684b8a211 {
        isolation: isolate;
      }

      .a7404a2d-50d5-4802-a842-f3f2b23758f0 {
        fill: #fff;
      }

      .a5a8f5b4-5000-4f80-aa85-3ba90a04cb9c {
        fill: #606060;
        stroke: #323232;
        stroke-miterlimit: 10;
      }

      .a1ae7b4a-e51f-46dd-a5e4-f4309639bc3b, .a5a8f5b4-5000-4f80-aa85-3ba90a04cb9c, .ee695b1d-d80e-4e63-8fd3-3ff2e986dc53, .f1595d97-bd55-4b61-ae90-114a8853cbc6, .f3e45d04-b59a-4b9e-bf09-4da3e41277c0 {
        mix-blend-mode: multiply;
      }

      .a3e88e84-1c2a-40ea-9321-3ea731c52dc7 {
        fill: #e7e4ea;
      }

      .ee695b1d-d80e-4e63-8fd3-3ff2e986dc53, .f1595d97-bd55-4b61-ae90-114a8853cbc6 {
        fill: #94cee8;
      }

      .f1595d97-bd55-4b61-ae90-114a8853cbc6 {
        opacity: 0.4;
      }

      .fc46ae03-f98c-49e2-81a8-e8ab5c78221d {
        fill: #f4f4f4;
      }

      .ed8eefbc-630e-47f8-828d-86ada0c0a810 {
        fill: #cd5fdd;
      }

      .a1ae7b4a-e51f-46dd-a5e4-f4309639bc3b {
        fill: #267fbf;
        opacity: 0.2;
      }

      .ee695b1d-d80e-4e63-8fd3-3ff2e986dc53 {
        opacity: 0.5;
      }

      .f588b28d-576c-4e3d-be64-a55a114247b9 {
        fill: #daecf7;
      }

      .be3e6704-7bd2-4069-89f4-0c2d7605ecdc {
        fill: #9e2fb2;
      }

      .e1ac187f-a2c8-4d54-9d6b-8b672d0e9b6b {
        fill: #6325a5;
      }
    </style>
  </defs>
  <g class="f7dd0f47-6a97-4ee5-81b1-5bb684b8a211">
    <g id="e201bc19-5261-4b2a-b88a-25210d7cc53e" data-name="Layer 12">
      <g>
        <path class="a7404a2d-50d5-4802-a842-f3f2b23758f0" d="M28,160.91a9.68,9.68,0,0,1-5.24-1.51c-.26-.17-.5-.34-.73-.52a9.55,9.55,0,0,1-1-.89,9.23,9.23,0,0,1-.86-1,9.49,9.49,0,0,1-.91-1.53,9.12,9.12,0,0,1-.55-1.52,9,9,0,0,1-.33-2l-.05-1.11c0-1.13-.08-2.38-.11-3.72a3,3,0,0,1,0-.43l-.05-3.12,0-2.81,0-2.6,0-1.7s.05-2.55.07-3.16l0-1.37c0-.64.13-3.29.13-3.29,0-.83.09-1.67.13-2.51l.05-.91c.07-1.14.15-2.31.24-3.49l.07-.9c.07-.89.15-1.78.23-2.69l.13-1.33c.07-.77.15-1.56.23-2.34.05-.46.1-.93.16-1.39.09-.84.18-1.6.28-2.37l.19-1.5.33-2.35.22-1.46c.13-.85.27-1.7.41-2.56l.21-1.25c.23-1.28.46-2.56.72-3.83a219.56,219.56,0,0,1,11.3-37.1c3.24-8.23,6.26-14.75,7.77-17.91l1-2.12V33.41a4.19,4.19,0,0,1,4.2-4.16h4.59v-9H44.78a3.86,3.86,0,0,1-2.32-.76,3.21,3.21,0,0,1-1.29-2.44,4.64,4.64,0,0,0-.1-.52,3.4,3.4,0,0,0-.12-.34L40.86,16a2,2,0,0,0-.17-.27l-.12-.18-.26-.27a1.45,1.45,0,0,0-.18-.17c-.1-.09-.22-.17-.34-.26l-.23-.15a4.23,4.23,0,0,0-.46-.25l-.29-.14-.55-.22-.35-.12-.6-.18-.39-.09-.67-.15-.41-.07-.7-.11L34,13.22l-1.14-.07-1.12,0H30.67l-1,0-.88.05L28,13.3h-.34A3.48,3.48,0,0,1,24.07,10V6.42a3.26,3.26,0,0,1,1.66-2.79,3.9,3.9,0,0,1,1.95-.54H71.93a3.69,3.69,0,0,1,.92.12l.31.08a3.45,3.45,0,0,1,1,.51l.25.2a3.43,3.43,0,0,1,.59.68A3.87,3.87,0,0,1,75.2,5a3.17,3.17,0,0,1,.34,1.4v10.5a3.17,3.17,0,0,1-.34,1.4,4.05,4.05,0,0,1-.21.35,3.67,3.67,0,0,1-.58.67l-.26.21a3.79,3.79,0,0,1-1,.51,3.56,3.56,0,0,1-.93.17,1.46,1.46,0,0,1-.29,0H65.34v9h5.11a3.85,3.85,0,0,1,2.69,1.09A3.77,3.77,0,0,1,74,31.56a3.59,3.59,0,0,1,.31,1.49v7.44c.22.45.58,1.21,1,2.25.56,1.2,1.27,2.78,2.08,4.68C81.7,57.35,89.41,77,92.88,97a208.33,208.33,0,0,1,2.79,28.08c0,1.26.08,2.49.11,3.7,0,2.32.06,4.66,0,7,0,5.55-.21,11.05-.56,16.38a9.29,9.29,0,0,1-3,6.28,9.58,9.58,0,0,1-4.7,2.35,9.23,9.23,0,0,1-1.83.18Z"/>
        <g>
          <g>
            <path class="a5a8f5b4-5000-4f80-aa85-3ba90a04cb9c" d="M27.82,10.89c3.78-.35,14.31-.77,15.63,5.18a5.6,5.6,0,0,1,.13.85,1.09,1.09,0,0,0,1.2.92h8.57V31.66h-7a1.77,1.77,0,0,0-1.79,1.75v7.65H71.87v-8a1.4,1.4,0,0,0-1.42-1.39H62.94V17.84h9a1.39,1.39,0,0,0,.46-.07,1,1,0,0,0,.74-.85V6.42a.94.94,0,0,0-.74-.84,1.39,1.39,0,0,0-.46-.08H27.68a1.1,1.1,0,0,0-1.2.92V10C26.48,10.53,27.11,11,27.82,10.89Z"/>
            <path class="a5a8f5b4-5000-4f80-aa85-3ba90a04cb9c" d="M90.51,97.38c-4.05-23.25-13.87-46-17.36-53.64-.77-1.65-1.23-2.6-1.27-2.68H44.6c0,.08-.52,1-1.31,2.68-3.7,7.72-14.2,30.91-18.89,54.44-3.69,18.52-4,37.26-3.75,48.83h0c0,1.77.1,3.38.16,4.78a7.1,7.1,0,0,0,7.16,6.71H85.71a7.1,7.1,0,0,0,7.15-6.56C93.57,141.26,94.29,119.1,90.51,97.38Z"/>
          </g>
          <g>
            <rect class="a3e88e84-1c2a-40ea-9321-3ea731c52dc7" x="53.35" y="17.84" width="9.58" height="13.82"/>
            <rect class="f1595d97-bd55-4b61-ae90-114a8853cbc6" x="53.35" y="17.84" width="9.58" height="2.69"/>
            <path class="fc46ae03-f98c-49e2-81a8-e8ab5c78221d" d="M27.68,5.5a1.1,1.1,0,0,0-1.2.92V10c0,.55.63,1,1.34.91,3.95-.36,15.29-.81,15.76,6h0a1.08,1.08,0,0,0,1.2.92H71.93a1.09,1.09,0,0,0,1.2-.92V6.42a1.1,1.1,0,0,0-1.2-.92Z"/>
            <path class="ed8eefbc-630e-47f8-828d-86ada0c0a810" d="M92.86,151.94a7.1,7.1,0,0,1-7.15,6.56H28a7.1,7.1,0,0,1-7.16-6.71c-.46-10.6-.66-32.25,3.59-53.61,4.69-23.53,15.19-46.72,18.89-54.44.79-1.65,1.27-2.6,1.31-2.68H71.88c0,.08.5,1,1.27,2.68,3.49,7.63,13.31,30.39,17.36,53.64C94.29,119.1,93.57,141.26,92.86,151.94Z"/>
            <path class="fc46ae03-f98c-49e2-81a8-e8ab5c78221d" d="M46.33,31.66H70.11a1.77,1.77,0,0,1,1.77,1.77v7.63a0,0,0,0,1,0,0H44.56a0,0,0,0,1,0,0V33.43A1.77,1.77,0,0,1,46.33,31.66Z"/>
            <path class="a1ae7b4a-e51f-46dd-a5e4-f4309639bc3b" d="M71.93,5.5H69.41c-.15,12.44-13.54,11.22-26,10.57a5.6,5.6,0,0,1,.13.85,1.08,1.08,0,0,0,1.2.92H71.93a1.09,1.09,0,0,0,1.2-.92V6.42A1.1,1.1,0,0,0,71.93,5.5Z"/>
            <path class="a1ae7b4a-e51f-46dd-a5e4-f4309639bc3b" d="M70.45,31.66h-3C66,41.75,55,39,44.56,37.42v3.64H71.87v-8A1.4,1.4,0,0,0,70.45,31.66Z"/>
            <path class="ee695b1d-d80e-4e63-8fd3-3ff2e986dc53" d="M73.15,43.74H43.29c.79-1.65,1.27-2.6,1.31-2.68H71.88C71.92,41.14,72.38,42.09,73.15,43.74Z"/>
            <g class="f3e45d04-b59a-4b9e-bf09-4da3e41277c0">
              <path class="f588b28d-576c-4e3d-be64-a55a114247b9" d="M42.24,152.58l-6.71-.06a.27.27,0,0,1-.25-.28.25.25,0,0,1,.2-.26l.5-.11.34-.08c.28,0,.62-.13,1-.19l.32-.06c.52-.09,1.12-.2,1.8-.29.89-.13,1.77-.25,2.75-.35l1.57-.18,1.08-.1,1.12-.09c1-.08,2-.17,3.12-.21l1.35-.06c.82,0,1.68-.09,2.53-.11,1.12,0,2.27,0,3.39-.05h1.09c1.17,0,2.37,0,3.54.06.86,0,1.71.06,2.54.1l1.34.07c1,0,2,.11,2.91.19l.72.06c1.16.08,2.27.21,3.26.32s1.91.24,2.71.35h0c.65.08,1.23.19,1.74.28l.38.06,1,.19.35.07.48.11a.28.28,0,0,1,.22.31.27.27,0,0,1-.25.24l-6.71.06-14.76,0Z"/>
            </g>
            <path class="be3e6704-7bd2-4069-89f4-0c2d7605ecdc" d="M90.47,97.38c-4-23.25-13.87-46-17.36-53.64-.76-1.65-1.22-2.6-1.26-2.68h-5c2.3,21.83,11.74,43.3,5.64,65.69-3.85,13.42-13.18,24.16-25.25,31.15A70.65,70.65,0,0,1,20.61,147c0,1.77.1,3.38.16,4.78a7.1,7.1,0,0,0,7.16,6.71H85.67a7.11,7.11,0,0,0,7.16-6.56C93.53,141.26,94.25,119.1,90.47,97.38Z"/>
            <g>
              <rect class="e1ac187f-a2c8-4d54-9d6b-8b672d0e9b6b" x="32.2" y="103.68" width="49.6" height="36.36" rx="3.44"/>
              <path class="f588b28d-576c-4e3d-be64-a55a114247b9" d="M60.7,117.53v-7.32a.71.71,0,0,0-.72-.71H54a.72.72,0,0,0-.73.71v7.32a.71.71,0,0,1-.72.71H45.1a.71.71,0,0,0-.72.71v5.82a.71.71,0,0,0,.72.71h7.48a.71.71,0,0,1,.72.71v7.31a.72.72,0,0,0,.73.71H60a.71.71,0,0,0,.72-.71v-7.31a.72.72,0,0,1,.73-.71H68.9a.72.72,0,0,0,.73-.71V119a.72.72,0,0,0-.73-.71H61.43A.72.72,0,0,1,60.7,117.53Z"/>
            </g>
          </g>
        </g>
      </g>
    </g>
  </g>
</svg>
