<svg id="afe0bd85-5641-4558-8c83-41bf09cb1fa7" data-name="Layer 1" xmlns="http://www.w3.org/2000/svg" width="550" height="86" viewBox="0 0 550 86">
  <defs>
    <style>
      .aa1de4cf-9e0e-49d6-9cf4-e7b92c83fd6d {
        fill: #fff;
      }
    </style>
  </defs>
  <g>
    <rect class="aa1de4cf-9e0e-49d6-9cf4-e7b92c83fd6d" y="0.5" width="550" height="85" rx="12"/>
    <g>
      <path d="M51.2,57.67,41.6,17.23h9.78l3.06,16.68c.9,4.8,1.74,10,2.4,14.1H57c.66-4.38,1.62-9.24,2.64-14.22L63,17.23h9.72l3.24,17c.9,4.74,1.56,9.06,2.16,13.56h.12c.6-4.5,1.5-9.24,2.34-14l3.3-16.56h9.3L82.76,57.67h-9.9l-3.42-17.4c-.78-4.08-1.44-7.86-1.92-12.48H67.4c-.72,4.56-1.38,8.4-2.34,12.48l-3.84,17.4Z"/>
      <path d="M111.8,57.67l-.54-2.94h-.18a10.57,10.57,0,0,1-8.4,3.6c-5.94,0-9.48-4.32-9.48-9,0-7.62,6.84-11.28,17.22-11.22v-.42c0-1.56-.84-3.78-5.34-3.78A16.5,16.5,0,0,0,97,36.13L95.3,30.25a24.22,24.22,0,0,1,11.4-2.58c9.78,0,12.9,5.76,12.9,12.66v10.2a45.46,45.46,0,0,0,.42,7.14Zm-1.08-13.86c-4.8-.06-8.52,1.08-8.52,4.62a3.28,3.28,0,0,0,3.6,3.48,5,5,0,0,0,4.74-3.36,6.54,6.54,0,0,0,.18-1.56Z"/>
      <path d="M126.74,49.69a17.83,17.83,0,0,0,7.86,2.22c2.76,0,3.9-1,3.9-2.46s-.9-2.22-4.32-3.36c-6.06-2-8.4-5.34-8.34-8.82,0-5.46,4.68-9.6,11.94-9.6a19.68,19.68,0,0,1,8.28,1.68l-1.62,6.3A14.4,14.4,0,0,0,138.08,34c-2.22,0-3.48.9-3.48,2.4s1.14,2.1,4.74,3.36c5.58,1.92,7.92,4.74,8,9.06,0,5.46-4.32,9.48-12.72,9.48a20.77,20.77,0,0,1-9.48-2Z"/>
      <path d="M152.84,15.07H162V31.81h.12a11,11,0,0,1,3.6-3,10.24,10.24,0,0,1,4.74-1.14c5.82,0,10.26,4,10.26,12.84V57.67h-9.12V41.53c0-3.84-1.32-6.48-4.74-6.48a4.85,4.85,0,0,0-4.56,3.18,5.8,5.8,0,0,0-.3,2v17.4h-9.12Z"/>
      <path d="M207,28.33l4.38,14.4c.48,1.74,1.08,3.9,1.44,5.46H213c.42-1.56.9-3.78,1.32-5.46l3.6-14.4h9.78l-6.84,19.32c-4.2,11.64-7,16.32-10.32,19.26a16.81,16.81,0,0,1-8.82,4l-1.92-7.74a11.5,11.5,0,0,0,4-1.56A10.48,10.48,0,0,0,207.5,58a2.38,2.38,0,0,0,.48-1.32,3.31,3.31,0,0,0-.42-1.5L196.82,28.33Z"/>
      <path d="M259.58,42.67c0,10.74-7.62,15.66-15.48,15.66-8.58,0-15.18-5.64-15.18-15.12s6.24-15.54,15.66-15.54C253.58,27.67,259.58,33.85,259.58,42.67Zm-21.24.3c0,5,2.1,8.82,6,8.82,3.54,0,5.82-3.54,5.82-8.82,0-4.38-1.68-8.82-5.82-8.82C240,34.15,238.34,38.65,238.34,43Z"/>
      <path d="M292.88,48.25c0,3.84.12,7,.24,9.42H285.2l-.42-4.14h-.18a10.47,10.47,0,0,1-9.18,4.8c-5.94,0-10.32-3.72-10.32-12.78V28.33h9.18V44.11c0,4.26,1.38,6.84,4.56,6.84a4.91,4.91,0,0,0,4.56-3.18,5.09,5.09,0,0,0,.3-2V28.33h9.18Z"/>
      <path d="M300.2,38c0-4.32-.12-7.14-.24-9.66h7.86l.3,5.4h.24a8.62,8.62,0,0,1,7.92-6.06,9.4,9.4,0,0,1,1.92.12v8.58a13.07,13.07,0,0,0-2.46-.24c-3.36,0-5.64,1.8-6.24,4.62a10.75,10.75,0,0,0-.18,2V57.67H300.2Z"/>
      <path d="M335.12,15.07h9.12V31.81h.12a11,11,0,0,1,3.6-3,10.24,10.24,0,0,1,4.74-1.14c5.82,0,10.26,4,10.26,12.84V57.67h-9.12V41.53c0-3.84-1.32-6.48-4.74-6.48a4.85,4.85,0,0,0-4.56,3.18,5.8,5.8,0,0,0-.3,2v17.4h-9.12Z"/>
      <path d="M387,57.67l-.54-2.94h-.18a10.57,10.57,0,0,1-8.4,3.6c-5.94,0-9.48-4.32-9.48-9,0-7.62,6.84-11.28,17.22-11.22v-.42c0-1.56-.84-3.78-5.34-3.78a16.5,16.5,0,0,0-8.1,2.22l-1.68-5.88a24.22,24.22,0,0,1,11.4-2.58c9.78,0,12.9,5.76,12.9,12.66v10.2a45.46,45.46,0,0,0,.42,7.14Zm-1.08-13.86c-4.8-.06-8.52,1.08-8.52,4.62a3.28,3.28,0,0,0,3.6,3.48,5,5,0,0,0,4.74-3.36,6.54,6.54,0,0,0,.18-1.56Z"/>
      <path d="M402,37.69c0-3.66-.12-6.78-.24-9.36h7.92l.42,4h.18a10.74,10.74,0,0,1,9.06-4.68c6,0,10.5,4,10.5,12.6v17.4h-9.12V41.41c0-3.78-1.32-6.36-4.62-6.36a4.87,4.87,0,0,0-4.62,3.42,6.27,6.27,0,0,0-.36,2.28V57.67H402Z"/>
      <path d="M465.56,15.07V48.91c0,3.3.12,6.78.24,8.76h-8.1l-.42-4.32h-.12a10.24,10.24,0,0,1-9.18,5c-7,0-12.54-5.94-12.54-15.06-.06-9.9,6.12-15.6,13.14-15.6,3.6,0,6.42,1.26,7.74,3.3h.12V15.07Zm-9.12,25.68a14.71,14.71,0,0,0-.12-1.62,5.48,5.48,0,0,0-5.34-4.5c-4.14,0-6.3,3.72-6.3,8.34,0,5,2.46,8.1,6.24,8.1a5.34,5.34,0,0,0,5.28-4.38,7.76,7.76,0,0,0,.24-2.1Z"/>
      <path d="M472.82,49.69a17.83,17.83,0,0,0,7.86,2.22c2.76,0,3.9-1,3.9-2.46s-.9-2.22-4.32-3.36c-6.06-2-8.4-5.34-8.34-8.82,0-5.46,4.68-9.6,11.94-9.6a19.68,19.68,0,0,1,8.28,1.68l-1.62,6.3A14.4,14.4,0,0,0,484.16,34c-2.22,0-3.48.9-3.48,2.4s1.14,2.1,4.74,3.36c5.58,1.92,7.92,4.74,8,9.06,0,5.46-4.32,9.48-12.72,9.48a20.77,20.77,0,0,1-9.48-2Z"/>
      <path d="M497.66,52.81a5.28,5.28,0,0,1,5.4-5.58c3.18,0,5.34,2.28,5.34,5.58a5.37,5.37,0,1,1-10.74,0Z"/>
    </g>
  </g>
</svg>
