<svg xmlns="http://www.w3.org/2000/svg" xmlns:xlink="http://www.w3.org/1999/xlink" width="120" height="214" viewBox="0 0 120 214">
  <defs>
    <style>
      .b9d03fbf-c9d3-4f40-b480-82bbf92b0d15 {
        fill: none;
      }

      .a86086fc-0d42-429a-8c70-4d6e40d904ad, .ace27e1f-13e4-45fc-bee1-9ed80ad73b42, .b058e25e-8af5-4edc-b943-59a665f85c01, .b982c55e-2218-4e8e-a79d-801dc25aa346, .b9d03fbf-c9d3-4f40-b480-82bbf92b0d15, .ede0a741-6200-4c52-bd27-f4d580b8ff94, .f6fc6ef7-b429-41d4-86be-fd6bb6757f18 {
        stroke: #323232;
        stroke-miterlimit: 10;
      }

      .a86086fc-0d42-429a-8c70-4d6e40d904ad, .ad57e5b6-a483-4958-a598-9fcc757adeab, .edaa6361-0c54-433e-8889-02888da396b5, .f6fc6ef7-b429-41d4-86be-fd6bb6757f18 {
        fill: #fff;
      }

      .ae5f084e-78ab-46b8-81ef-7731f3a74889, .ede0a741-6200-4c52-bd27-f4d580b8ff94 {
        fill: #8c009b;
      }

      .aa61915d-843c-418f-904e-7735099aa761, .b982c55e-2218-4e8e-a79d-801dc25aa346 {
        fill: #d906ef;
      }

      .ace27e1f-13e4-45fc-bee1-9ed80ad73b42, .b6b8d8af-95ba-4c1c-bdf4-4e2a87f67b58 {
        opacity: 0.25;
      }

      .a86086fc-0d42-429a-8c70-4d6e40d904ad, .ad57e5b6-a483-4958-a598-9fcc757adeab {
        opacity: 0.4;
      }

      .b9caf06c-cb70-40fa-afde-c02f95173ef2 {
        clip-path: url(#f99d442c-51f0-4ed4-8e89-e7b9801721f9);
      }

      .b7f0acd8-1f75-4550-928b-5bf353eb3b92 {
        opacity: 0.5;
      }

      .b058e25e-8af5-4edc-b943-59a665f85c01 {
        fill: #a0be21;
      }
    </style>
    <clipPath id="f99d442c-51f0-4ed4-8e89-e7b9801721f9">
      <path class="b9d03fbf-c9d3-4f40-b480-82bbf92b0d15" d="M110.21,166.79c2.93-.07,5.36.05,5.36.05S67,13.22,52.74,13.22c-8.59,0-23,64.46-27.56,78.84s-9.7,29.26-13.72,40.78h0L8.19,142l0,0c-2.32,6.53-3.8,10.61-3.8,10.61s.89,4.35,15.12,3.84a7.39,7.39,0,0,1,1,.05l-3.22,18.91h0a5.65,5.65,0,0,0,.09,2.72c1.09,4.13,16.93,6.2,23.8,7.22a13.06,13.06,0,0,0,2.31.54l.87,9.05c2.21,1,11.5,10.48,44.45,2.9,2.42-.56,3.11-1.6,2.81-2.9h0l-.59-12.1c6,1.39,13,3.73,15.86,2.61,6-2.32,9-6.68,4.74-12Z"/>
    </clipPath>
  </defs>
  <g id="e72b3961-3aa5-4d68-a48e-8331a36979fb" data-name="Layer 12">
    <g>
      <path class="edaa6361-0c54-433e-8889-02888da396b5" d="M66.34,204.58c-2,0-4.05-.09-6-.27-1-.1-2-.23-2.92-.37-.59-.09-1.17-.19-1.73-.3a35.83,35.83,0,0,1-9.06-3l-.22-.11c-.45-.24-.94-.5-1.36-.74-.58-.33-1-.56-1.27-.77l-1-.65a3.67,3.67,0,0,1-2.14-3.06L40.05,189l-3.3-.49-2.13-.34-2-.33-1.36-.24c-.9-.16-1.78-.33-2.66-.51l-.48-.1-2-.45-.34-.09c-.71-.17-1.24-.31-1.75-.45l-1.35-.38-1.47-.49-.52-.18-1.12-.46c-.37-.15-.72-.32-1.05-.48l-.66-.34-.58-.34-.36-.24c-.3-.2-.47-.32-.62-.44a9.86,9.86,0,0,1-1-.92,5.43,5.43,0,0,1-.47-.53c-.09-.12-.23-.33-.31-.46l-.17-.3a5.3,5.3,0,0,1-.58-1.38,9.93,9.93,0,0,1-.32-2.09c0-.11,0-.23,0-.33s0-.15,0-.23a9.06,9.06,0,0,1,.1-1.27c0-.13,0-.25,0-.38l2.46-14.49-1.6-.06a36.09,36.09,0,0,1-3.88-.4l-.44-.08a24.22,24.22,0,0,1-2.75-.65,10.83,10.83,0,0,1-5.61-3.49,5.52,5.52,0,0,1-1.07-2.22,3.68,3.68,0,0,1,.16-2.08s2.06-5.75,2.06-5.75l3.66,1.06L3,145.36l1.45-4.08a3.58,3.58,0,0,1,.14-.54l3.26-9.18a2.44,2.44,0,0,1,.1-.24l3.42-9.88,1.14-3.32c1.23-3.6,2.49-7.33,3.76-11.12l1.78-5.36,3.68,1-3.62-1.19,3.39-10.4c.32-1,.64-2.07,1-3.29.27-1,.57-2.05.88-3.2l.28-1,3.74.74-3.67-1,3.63-13.68c.72-2.72,1.47-5.56,2.25-8.45L30,59.8c.61-2.25,1.23-4.53,1.87-6.8l.2-.69q1-3.48,2-6.9.76-2.59,1.54-5.12l.48-1.54c.51-1.64,1-3.25,1.54-4.81.42-1.28.85-2.55,1.27-3.77.27-.78.54-1.53.81-2.27.41-1.13.83-2.25,1.24-3.31.31-.79.62-1.55.92-2.29,0,0,.06-.14.08-.17.28-.67.59-1.39.9-2.08l.19-.42c.32-.71.66-1.43,1-2.09a33.26,33.26,0,0,1,2.13-3.67,13.65,13.65,0,0,1,2.32-2.68,6.49,6.49,0,0,1,4.28-1.77A7.22,7.22,0,0,1,57,11a13.28,13.28,0,0,1,1.46,1.24c.14.14.27.28.4.43.37.39.64.69.91,1s.55.66.84,1l.23.32c.45.61.82,1.13,1.19,1.69s.87,1.31,1.32,2,1,1.71,1.57,2.66c.74,1.3,1.51,2.72,2.29,4.22s1.56,3.09,2.37,4.76l.53,1.13q.94,2,1.92,4.11l1.25,2.78c.57,1.28,1.14,2.59,1.71,3.91.71,1.65,1.42,3.32,2.15,5l.07.18c1,2.45,2.06,5,3.1,7.57.53,1.32,2.11,5.3,2.11,5.3s1.81,4.62,2.33,6l2.73,7.16,2.94,7.89,2.33,6.38,2.59,7.19,4.49,12.7,1.34,3.83c1,3,2,5.92,3,8.77l1.08,3.17c8,23.65,13.85,42,13.91,42.18a3.8,3.8,0,0,1-3.62,5l-.6,0,.28,1.24a10.31,10.31,0,0,1,2,8.55c-.8,3.35-3.43,6.14-7.6,8.05l-1.31.55a8.27,8.27,0,0,1-2.17.48q-.32,0-.66,0h-.69c-.23,0-.47,0-.71,0s-.56,0-.85-.07-.75-.08-1.16-.14-.63-.09-.94-.15l-1.09-.21L99,188.72l-1.06-.25c-.84-.2-1.72-.41-2.62-.64l-.14,0,.34,6.81c0,.24,0,.48.06.71a5.76,5.76,0,0,1-.12,1.34c0,.09,0,.18-.06.28a5.34,5.34,0,0,1-.39,1,2.9,2.9,0,0,1-.19.34,5.14,5.14,0,0,1-.62.86c-.09.11-.24.26-.35.37a7.35,7.35,0,0,1-.64.54c-.11.09-.37.25-.5.33a6.86,6.86,0,0,1-.62.35l-.6.26-.54.21c-.34.12-.74.23-1.19.34-1.08.24-2.14.48-3.17.69l-2.7.53-1.57.27c-.64.12-1.29.23-1.92.33-2.58.4-5.11.71-7.52.91S68.39,204.58,66.34,204.58Z"/>
      <g>
        <g>
          <g>
            <path class="ede0a741-6200-4c52-bd27-f4d580b8ff94" d="M107.86,156.41l-13.63,1.74s.59,18.06,1.78,17.29,15.71-1.94,15.71-1.94Z"/>
            <polygon class="ede0a741-6200-4c52-bd27-f4d580b8ff94" points="90.38 167.71 41.58 165.4 44.44 194.96 91.71 194.96 90.38 167.71"/>
            <polygon class="ede0a741-6200-4c52-bd27-f4d580b8ff94" points="22.81 143.37 17.35 175.44 38.32 168.29 39.06 154.38 22.81 143.37"/>
            <path class="b982c55e-2218-4e8e-a79d-801dc25aa346" d="M52.74,13.22c-8.59,0-23,64.46-27.56,78.84C16,120.76,4.43,152.64,4.43,152.64s.89,4.35,15.12,3.84c4.68-.16,15.91,5.85,8.36,11.31-3.74,2.71-12.16,3.84-10.45,10.36,1.21,4.6,20.77,6.65,25.8,7.54,4.37.77,8.92-1.93,8.59,3.18-.21,3.34-8,2.64-7.41,6.09,2.21,1,11.5,10.48,44.45,2.9,10.08-2.32-9.65-13.16-7.4-15.07,4.08-3.47,20.58,4.57,25.49,2.68,6-2.32,9-6.68,4.74-12-1.24-1.56-12.72-1.59-11.86-4.05,1.19-3.39,15.71-2.61,15.71-2.61S67,13.22,52.74,13.22Z"/>
            <path class="ace27e1f-13e4-45fc-bee1-9ed80ad73b42" d="M30.4,163.89s4.86-41.1,10.19-67.19,13-73.91,11.26-73.33S41.93,74.18,38.68,89.53C33.51,114,22.86,157.12,22.86,157.12a18.05,18.05,0,0,1,4.35,2.31c1.79,1.4,3.06,2.11,3.3,4.23Z"/>
            <path class="ace27e1f-13e4-45fc-bee1-9ed80ad73b42" d="M51.76,187.41S53.35,54.1,52.24,53s-2.89,53-2.89,63.91-8.76,68.19-8.76,68.19a14.18,14.18,0,0,0,8.69.58A2,2,0,0,1,51.76,187.41Z"/>
            <path class="a86086fc-0d42-429a-8c70-4d6e40d904ad" d="M81.32,183.17s-6.64-32.12-7.75-39.29S70,85.84,68.46,80.4s-4.67-13.26-3.11-13.26,10.16,66.71,12.38,73.23,5.46,27.63,6.13,31.11,6.42,11.4,6.42,11.4A38,38,0,0,0,85,182,4.51,4.51,0,0,0,81.32,183.17Z"/>
            <path class="a86086fc-0d42-429a-8c70-4d6e40d904ad" d="M99.86,169.45S97.59,158,95.41,147.9,91.07,123.68,89,115.68s-6-18.34-6.32-21-2.4-12.25-2.07-12.46c.89-.58,4.34,7.48,6.22,18.26s6.52,22.76,9.88,33.43,1.78,12.11,3.75,19.67,3.86,13.33,3.86,13.33a9.88,9.88,0,0,0-2.87,1.11C99.86,168.9,99.86,169.45,99.86,169.45Z"/>
            <path class="a86086fc-0d42-429a-8c70-4d6e40d904ad" d="M106.28,138.44a14,14,0,0,1-4.25,1c-2.76.19-5-1.84-7.31.38C93.57,140.92,94,143,94,143l.56,2.7c-.52.33-2.69,1.5-6.68,1.17-4.65-.39-7.42-1.5-10.87-.68-3.26.77-2.17,5.22-2.17,5.22l.83,3.83c-.43.73-2,2.17-7.94,2.74a62.53,62.53,0,0,1-15.42-.64l.1-2.75s0-3.09-1.77-3.86-5.73.48-9-.48-8.87-2.41-9.27-2.51l.38-3.1c.85-4.12-.42-6.11-2-6.76-6-2.51-10.13.15-13.91-1.59a19.82,19.82,0,0,1-5.45-3.43L8.19,142a51.62,51.62,0,0,0,10,3.1c3.91.74,9.18-.39,10.76,1.25a9.91,9.91,0,0,1,2.76,6.93l-.49,3.8s.1,1.16,2.87,2,12,.62,14.32,1.06c2.73.51,3.51,2.08,3.7,3.3v.72l0,.81a1.13,1.13,0,0,0,0-.12l0,2.44s2.45,1.6,10,1.83a40.49,40.49,0,0,0,15.8-2.51l-1.12-6.76.33,1.54s-.39-4.44,2.37-5.89,7,.48,11.36.68a20.68,20.68,0,0,0,6.23-.39l-.84-3.76c.11-1.18.46-3.26,1.53-4.26,2.27-2.12,3.85,1,8.49.48,2.76-.28,2.87-1.25,2.87-1.25Z"/>
          </g>
          <g>
            <g class="b9caf06c-cb70-40fa-afde-c02f95173ef2">
              <g class="b7f0acd8-1f75-4550-928b-5bf353eb3b92">
                <g>
                  <path class="f6fc6ef7-b429-41d4-86be-fd6bb6757f18" d="M17.11,25a16.15,16.15,0,0,0-4.25-10.91H-10.87v23A16.86,16.86,0,0,0,.37,41.35,16.56,16.56,0,0,0,17.11,25Z"/>
                  <path class="b058e25e-8af5-4edc-b943-59a665f85c01" d="M.37,39.27A14.46,14.46,0,0,0,15,25,14.14,14.14,0,0,0,9.83,14.06H-9.08a14.26,14.26,0,0,0-1.79,1.77V34.11A14.72,14.72,0,0,0,.37,39.27Z"/>
                  <path class="f6fc6ef7-b429-41d4-86be-fd6bb6757f18" d="M.37,37.71A12.89,12.89,0,0,0,13.4,25,12.7,12.7,0,0,0,7.12,14.06H-6.37a12.93,12.93,0,0,0-4.5,4.47V31.4A13.08,13.08,0,0,0,.37,37.71Z"/>
                  <ellipse class="b058e25e-8af5-4edc-b943-59a665f85c01" cx="0.37" cy="24.97" rx="10.55" ry="10.32"/>
                  <ellipse class="f6fc6ef7-b429-41d4-86be-fd6bb6757f18" cx="0.37" cy="24.97" rx="8.55" ry="8.36"/>
                  <ellipse class="b058e25e-8af5-4edc-b943-59a665f85c01" cx="0.37" cy="24.97" rx="6.92" ry="6.77"/>
                  <ellipse class="f6fc6ef7-b429-41d4-86be-fd6bb6757f18" cx="0.37" cy="24.97" rx="5" ry="4.89"/>
                  <ellipse class="b058e25e-8af5-4edc-b943-59a665f85c01" cx="0.37" cy="24.97" rx="3.64" ry="3.56"/>
                </g>
                <g>
                  <ellipse class="b058e25e-8af5-4edc-b943-59a665f85c01" cx="20.42" cy="125.59" rx="7.69" ry="7.53"/>
                  <ellipse class="f6fc6ef7-b429-41d4-86be-fd6bb6757f18" cx="20.42" cy="125.59" rx="6.23" ry="6.1"/>
                  <ellipse class="b058e25e-8af5-4edc-b943-59a665f85c01" cx="20.42" cy="125.59" rx="5.05" ry="4.94"/>
                  <ellipse class="f6fc6ef7-b429-41d4-86be-fd6bb6757f18" cx="20.42" cy="125.59" rx="3.64" ry="3.56"/>
                  <ellipse class="b058e25e-8af5-4edc-b943-59a665f85c01" cx="20.42" cy="125.59" rx="2.65" ry="2.6"/>
                </g>
                <g>
                  <path class="f6fc6ef7-b429-41d4-86be-fd6bb6757f18" d="M46.62,27.47A16.64,16.64,0,0,0,63.08,14.06H30.16A16.64,16.64,0,0,0,46.62,27.47Z"/>
                  <path class="b058e25e-8af5-4edc-b943-59a665f85c01" d="M46.62,25.4a14.54,14.54,0,0,0,14.3-11.34H32.32A14.55,14.55,0,0,0,46.62,25.4Z"/>
                  <path class="f6fc6ef7-b429-41d4-86be-fd6bb6757f18" d="M46.62,23.84a13,13,0,0,0,12.67-9.78H34A13,13,0,0,0,46.62,23.84Z"/>
                  <path class="b058e25e-8af5-4edc-b943-59a665f85c01" d="M46.62,21.42a10.54,10.54,0,0,0,10.11-7.36H36.52A10.52,10.52,0,0,0,46.62,21.42Z"/>
                  <path class="f6fc6ef7-b429-41d4-86be-fd6bb6757f18" d="M46.62,19.45a8.54,8.54,0,0,0,8-5.39h-16A8.55,8.55,0,0,0,46.62,19.45Z"/>
                  <path class="b058e25e-8af5-4edc-b943-59a665f85c01" d="M46.62,17.87a6.93,6.93,0,0,0,6.22-3.81H40.4A6.94,6.94,0,0,0,46.62,17.87Z"/>
                  <path class="f6fc6ef7-b429-41d4-86be-fd6bb6757f18" d="M46.62,16a5,5,0,0,0,4-1.92H42.65A5,5,0,0,0,46.62,16Z"/>
                  <path class="b058e25e-8af5-4edc-b943-59a665f85c01" d="M48.64,14.06h-4a3.68,3.68,0,0,0,4,0Z"/>
                </g>
                <g>
                  <path class="f6fc6ef7-b429-41d4-86be-fd6bb6757f18" d="M95.07,39.79a16.57,16.57,0,0,0,16.74-16.38,16,16,0,0,0-3-9.35H81.32a16.1,16.1,0,0,0-3,9.35A16.56,16.56,0,0,0,95.07,39.79Z"/>
                  <path class="b058e25e-8af5-4edc-b943-59a665f85c01" d="M95.07,37.71a14.46,14.46,0,0,0,14.62-14.3,14.1,14.1,0,0,0-3.56-9.35H84a14,14,0,0,0-3.56,9.35A14.46,14.46,0,0,0,95.07,37.71Z"/>
                  <path class="f6fc6ef7-b429-41d4-86be-fd6bb6757f18" d="M82,23.41a13,13,0,0,0,26.05,0,12.57,12.57,0,0,0-4.17-9.35H86.21A12.6,12.6,0,0,0,82,23.41Z"/>
                  <path class="b058e25e-8af5-4edc-b943-59a665f85c01" d="M84.52,23.41a10.55,10.55,0,0,0,21.1,0,10.3,10.3,0,0,0-6.07-9.35h-9A10.31,10.31,0,0,0,84.52,23.41Z"/>
                  <ellipse class="f6fc6ef7-b429-41d4-86be-fd6bb6757f18" cx="95.07" cy="23.41" rx="8.55" ry="8.36"/>
                  <ellipse class="b058e25e-8af5-4edc-b943-59a665f85c01" cx="95.07" cy="23.41" rx="6.92" ry="6.77"/>
                  <ellipse class="f6fc6ef7-b429-41d4-86be-fd6bb6757f18" cx="95.07" cy="23.41" rx="5" ry="4.89"/>
                  <ellipse class="b058e25e-8af5-4edc-b943-59a665f85c01" cx="95.07" cy="23.41" rx="3.64" ry="3.56"/>
                </g>
                <g>
                  <path class="f6fc6ef7-b429-41d4-86be-fd6bb6757f18" d="M8.48,109.21A16.56,16.56,0,0,0-8.26,92.83a17.24,17.24,0,0,0-2.61.2v32.36a17.24,17.24,0,0,0,2.61.2A16.57,16.57,0,0,0,8.48,109.21Z"/>
                  <path class="b058e25e-8af5-4edc-b943-59a665f85c01" d="M6.35,109.21A14.46,14.46,0,0,0-8.26,94.9a15,15,0,0,0-2.61.24v28.14a15,15,0,0,0,2.61.23A14.46,14.46,0,0,0,6.35,109.21Z"/>
                  <path class="f6fc6ef7-b429-41d4-86be-fd6bb6757f18" d="M4.76,109.21a12.89,12.89,0,0,0-13-12.75,13.13,13.13,0,0,0-2.61.26v25a13.92,13.92,0,0,0,2.61.25A12.88,12.88,0,0,0,4.76,109.21Z"/>
                  <path class="b058e25e-8af5-4edc-b943-59a665f85c01" d="M2.29,109.21A10.45,10.45,0,0,0-8.26,98.88a11.17,11.17,0,0,0-2.61.32v20a10.66,10.66,0,0,0,2.61.32A10.44,10.44,0,0,0,2.29,109.21Z"/>
                  <path class="f6fc6ef7-b429-41d4-86be-fd6bb6757f18" d="M.28,109.21a8.45,8.45,0,0,0-8.54-8.36,9,9,0,0,0-2.61.39v15.93a8.64,8.64,0,0,0,2.61.4A8.45,8.45,0,0,0,.28,109.21Z"/>
                </g>
                <g>
                  <ellipse class="f6fc6ef7-b429-41d4-86be-fd6bb6757f18" cx="21" cy="54.16" rx="14.77" ry="14.45"/>
                  <ellipse class="b058e25e-8af5-4edc-b943-59a665f85c01" cx="21" cy="54.16" rx="12.9" ry="12.62"/>
                  <ellipse class="f6fc6ef7-b429-41d4-86be-fd6bb6757f18" cx="21" cy="54.16" rx="11.49" ry="11.24"/>
                  <ellipse class="b058e25e-8af5-4edc-b943-59a665f85c01" cx="21" cy="54.16" rx="9.31" ry="9.11"/>
                  <ellipse class="f6fc6ef7-b429-41d4-86be-fd6bb6757f18" cx="21" cy="54.16" rx="7.54" ry="7.38"/>
                  <ellipse class="b058e25e-8af5-4edc-b943-59a665f85c01" cx="21" cy="54.16" rx="6.11" ry="5.97"/>
                  <ellipse class="f6fc6ef7-b429-41d4-86be-fd6bb6757f18" cx="21" cy="54.16" rx="4.41" ry="4.31"/>
                  <ellipse class="b058e25e-8af5-4edc-b943-59a665f85c01" cx="21" cy="54.16" rx="3.21" ry="3.14"/>
                </g>
                <g>
                  <ellipse class="f6fc6ef7-b429-41d4-86be-fd6bb6757f18" cx="62.17" cy="80.6" rx="13.29" ry="13"/>
                  <ellipse class="b058e25e-8af5-4edc-b943-59a665f85c01" cx="62.17" cy="80.6" rx="11.61" ry="11.36"/>
                  <ellipse class="f6fc6ef7-b429-41d4-86be-fd6bb6757f18" cx="62.17" cy="80.6" rx="10.34" ry="10.12"/>
                  <ellipse class="b058e25e-8af5-4edc-b943-59a665f85c01" cx="62.17" cy="80.6" rx="8.38" ry="8.2"/>
                  <ellipse class="f6fc6ef7-b429-41d4-86be-fd6bb6757f18" cx="62.17" cy="80.6" rx="6.78" ry="6.64"/>
                  <ellipse class="b058e25e-8af5-4edc-b943-59a665f85c01" cx="62.17" cy="80.6" rx="5.5" ry="5.38"/>
                  <ellipse class="f6fc6ef7-b429-41d4-86be-fd6bb6757f18" cx="62.17" cy="80.6" rx="3.97" ry="3.88"/>
                  <ellipse class="b058e25e-8af5-4edc-b943-59a665f85c01" cx="62.17" cy="80.6" rx="2.89" ry="2.83"/>
                </g>
                <g>
                  <ellipse class="f6fc6ef7-b429-41d4-86be-fd6bb6757f18" cx="50.18" cy="111.51" rx="12.2" ry="11.94"/>
                  <ellipse class="b058e25e-8af5-4edc-b943-59a665f85c01" cx="50.18" cy="111.51" rx="10.66" ry="10.43"/>
                  <ellipse class="f6fc6ef7-b429-41d4-86be-fd6bb6757f18" cx="50.18" cy="111.51" rx="9.5" ry="9.29"/>
                  <ellipse class="b058e25e-8af5-4edc-b943-59a665f85c01" cx="50.18" cy="111.51" rx="7.69" ry="7.53"/>
                  <ellipse class="f6fc6ef7-b429-41d4-86be-fd6bb6757f18" cx="50.18" cy="111.51" rx="6.23" ry="6.1"/>
                  <ellipse class="b058e25e-8af5-4edc-b943-59a665f85c01" cx="50.18" cy="111.51" rx="5.05" ry="4.94"/>
                  <ellipse class="f6fc6ef7-b429-41d4-86be-fd6bb6757f18" cx="50.18" cy="111.51" rx="3.64" ry="3.56"/>
                  <ellipse class="b058e25e-8af5-4edc-b943-59a665f85c01" cx="50.18" cy="111.51" rx="2.65" ry="2.6"/>
                </g>
                <g>
                  <ellipse class="f6fc6ef7-b429-41d4-86be-fd6bb6757f18" cx="57.17" cy="46.64" rx="16.74" ry="16.38"/>
                  <ellipse class="b058e25e-8af5-4edc-b943-59a665f85c01" cx="57.17" cy="46.64" rx="14.62" ry="14.3"/>
                  <ellipse class="f6fc6ef7-b429-41d4-86be-fd6bb6757f18" cx="57.17" cy="46.64" rx="13.03" ry="12.74"/>
                  <ellipse class="b058e25e-8af5-4edc-b943-59a665f85c01" cx="57.17" cy="46.64" rx="10.55" ry="10.32"/>
                  <ellipse class="f6fc6ef7-b429-41d4-86be-fd6bb6757f18" cx="57.17" cy="46.64" rx="8.55" ry="8.36"/>
                  <ellipse class="b058e25e-8af5-4edc-b943-59a665f85c01" cx="57.17" cy="46.64" rx="6.92" ry="6.77"/>
                  <ellipse class="f6fc6ef7-b429-41d4-86be-fd6bb6757f18" cx="57.17" cy="46.64" rx="5" ry="4.89"/>
                  <ellipse class="b058e25e-8af5-4edc-b943-59a665f85c01" cx="57.17" cy="46.64" rx="3.64" ry="3.56"/>
                </g>
                <g>
                  <ellipse class="f6fc6ef7-b429-41d4-86be-fd6bb6757f18" cx="88.82" cy="58.48" rx="12.2" ry="11.94"/>
                  <ellipse class="b058e25e-8af5-4edc-b943-59a665f85c01" cx="88.82" cy="58.48" rx="10.66" ry="10.43"/>
                  <ellipse class="f6fc6ef7-b429-41d4-86be-fd6bb6757f18" cx="88.82" cy="58.48" rx="9.5" ry="9.29"/>
                  <ellipse class="b058e25e-8af5-4edc-b943-59a665f85c01" cx="88.82" cy="58.48" rx="7.69" ry="7.53"/>
                  <ellipse class="f6fc6ef7-b429-41d4-86be-fd6bb6757f18" cx="88.82" cy="58.48" rx="6.23" ry="6.1"/>
                  <ellipse class="b058e25e-8af5-4edc-b943-59a665f85c01" cx="88.82" cy="58.48" rx="5.05" ry="4.94"/>
                  <ellipse class="f6fc6ef7-b429-41d4-86be-fd6bb6757f18" cx="88.82" cy="58.48" rx="3.64" ry="3.56"/>
                  <ellipse class="b058e25e-8af5-4edc-b943-59a665f85c01" cx="88.82" cy="58.48" rx="2.65" ry="2.6"/>
                </g>
                <g>
                  <ellipse class="f6fc6ef7-b429-41d4-86be-fd6bb6757f18" cx="80.45" cy="125.94" rx="13.29" ry="13"/>
                  <ellipse class="b058e25e-8af5-4edc-b943-59a665f85c01" cx="80.45" cy="125.94" rx="11.61" ry="11.36"/>
                  <ellipse class="f6fc6ef7-b429-41d4-86be-fd6bb6757f18" cx="80.45" cy="125.94" rx="10.34" ry="10.12"/>
                  <ellipse class="b058e25e-8af5-4edc-b943-59a665f85c01" cx="80.45" cy="125.94" rx="8.38" ry="8.2"/>
                  <ellipse class="f6fc6ef7-b429-41d4-86be-fd6bb6757f18" cx="80.45" cy="125.94" rx="6.78" ry="6.64"/>
                  <ellipse class="b058e25e-8af5-4edc-b943-59a665f85c01" cx="80.45" cy="125.94" rx="5.5" ry="5.38"/>
                  <ellipse class="f6fc6ef7-b429-41d4-86be-fd6bb6757f18" cx="80.45" cy="125.94" rx="3.97" ry="3.88"/>
                  <ellipse class="b058e25e-8af5-4edc-b943-59a665f85c01" cx="80.45" cy="125.94" rx="2.89" ry="2.83"/>
                </g>
                <g>
                  <ellipse class="f6fc6ef7-b429-41d4-86be-fd6bb6757f18" cx="26.04" cy="88.97" rx="16.74" ry="16.38"/>
                  <ellipse class="b058e25e-8af5-4edc-b943-59a665f85c01" cx="26.04" cy="88.97" rx="14.62" ry="14.3"/>
                  <ellipse class="f6fc6ef7-b429-41d4-86be-fd6bb6757f18" cx="26.04" cy="88.97" rx="13.03" ry="12.74"/>
                  <ellipse class="b058e25e-8af5-4edc-b943-59a665f85c01" cx="26.04" cy="88.97" rx="10.55" ry="10.32"/>
                  <ellipse class="f6fc6ef7-b429-41d4-86be-fd6bb6757f18" cx="26.04" cy="88.97" rx="8.55" ry="8.36"/>
                  <ellipse class="b058e25e-8af5-4edc-b943-59a665f85c01" cx="26.04" cy="88.97" rx="6.92" ry="6.77"/>
                  <ellipse class="f6fc6ef7-b429-41d4-86be-fd6bb6757f18" cx="26.04" cy="88.97" rx="5" ry="4.89"/>
                  <ellipse class="b058e25e-8af5-4edc-b943-59a665f85c01" cx="26.04" cy="88.97" rx="3.64" ry="3.56"/>
                </g>
                <g>
                  <ellipse class="f6fc6ef7-b429-41d4-86be-fd6bb6757f18" cx="95.07" cy="92.68" rx="16.74" ry="16.38"/>
                  <ellipse class="b058e25e-8af5-4edc-b943-59a665f85c01" cx="95.07" cy="92.68" rx="14.62" ry="14.3"/>
                  <ellipse class="f6fc6ef7-b429-41d4-86be-fd6bb6757f18" cx="95.07" cy="92.68" rx="13.03" ry="12.74"/>
                  <ellipse class="b058e25e-8af5-4edc-b943-59a665f85c01" cx="95.07" cy="92.68" rx="10.55" ry="10.32"/>
                  <ellipse class="f6fc6ef7-b429-41d4-86be-fd6bb6757f18" cx="95.07" cy="92.68" rx="8.55" ry="8.36"/>
                  <ellipse class="b058e25e-8af5-4edc-b943-59a665f85c01" cx="95.07" cy="92.68" rx="6.92" ry="6.77"/>
                  <ellipse class="f6fc6ef7-b429-41d4-86be-fd6bb6757f18" cx="95.07" cy="92.68" rx="5" ry="4.89"/>
                  <ellipse class="b058e25e-8af5-4edc-b943-59a665f85c01" cx="95.07" cy="92.68" rx="3.64" ry="3.56"/>
                </g>
                <ellipse class="f6fc6ef7-b429-41d4-86be-fd6bb6757f18" cx="114.57" cy="134.37" rx="8.76" ry="8.57"/>
                <ellipse class="f6fc6ef7-b429-41d4-86be-fd6bb6757f18" cx="102.27" cy="117.92" rx="7.03" ry="6.87"/>
                <ellipse class="f6fc6ef7-b429-41d4-86be-fd6bb6757f18" cx="0.7" cy="85.91" rx="6.39" ry="6.25"/>
                <ellipse class="f6fc6ef7-b429-41d4-86be-fd6bb6757f18" cx="70.34" cy="21.84" rx="5.81" ry="5.68"/>
                <ellipse class="f6fc6ef7-b429-41d4-86be-fd6bb6757f18" cx="80.68" cy="41.12" rx="5.12" ry="5.01"/>
                <ellipse class="f6fc6ef7-b429-41d4-86be-fd6bb6757f18" cx="26.31" cy="112.36" rx="3.85" ry="3.77"/>
                <ellipse class="f6fc6ef7-b429-41d4-86be-fd6bb6757f18" cx="60.81" cy="126.16" rx="3.85" ry="3.77"/>
                <ellipse class="f6fc6ef7-b429-41d4-86be-fd6bb6757f18" cx="37.97" cy="123.51" rx="3.39" ry="3.32"/>
                <path class="f6fc6ef7-b429-41d4-86be-fd6bb6757f18" d="M116.18,19.6A3.65,3.65,0,0,0,119.87,16a3.55,3.55,0,0,0-.57-1.93h-6.25a3.55,3.55,0,0,0-.57,1.93A3.65,3.65,0,0,0,116.18,19.6Z"/>
                <path class="f6fc6ef7-b429-41d4-86be-fd6bb6757f18" d="M116.18,145.53a3.71,3.71,0,0,0-3.13,1.69h6.25A3.69,3.69,0,0,0,116.18,145.53Z"/>
                <ellipse class="f6fc6ef7-b429-41d4-86be-fd6bb6757f18" cx="68.06" cy="141.22" rx="3.85" ry="3.77"/>
                <ellipse class="f6fc6ef7-b429-41d4-86be-fd6bb6757f18" cx="14.99" cy="109.06" rx="3.85" ry="3.77"/>
                <ellipse class="f6fc6ef7-b429-41d4-86be-fd6bb6757f18" cx="38.46" cy="65.99" rx="3.85" ry="3.77"/>
                <ellipse class="f6fc6ef7-b429-41d4-86be-fd6bb6757f18" cx="80.23" cy="73.96" rx="3.85" ry="3.77"/>
                <ellipse class="f6fc6ef7-b429-41d4-86be-fd6bb6757f18" cx="100.97" cy="71.53" rx="3.85" ry="3.77"/>
                <ellipse class="f6fc6ef7-b429-41d4-86be-fd6bb6757f18" cx="117.08" cy="88.8" rx="3.85" ry="3.77"/>
                <ellipse class="f6fc6ef7-b429-41d4-86be-fd6bb6757f18" cx="71.17" cy="63.41" rx="3.85" ry="3.77"/>
                <ellipse class="f6fc6ef7-b429-41d4-86be-fd6bb6757f18" cx="9.3" cy="72.4" rx="3.85" ry="3.77"/>
                <ellipse class="f6fc6ef7-b429-41d4-86be-fd6bb6757f18" cx="0.7" cy="48.05" rx="3.85" ry="3.77"/>
                <ellipse class="f6fc6ef7-b429-41d4-86be-fd6bb6757f18" cx="36.07" cy="38.28" rx="3.85" ry="3.77"/>
                <ellipse class="f6fc6ef7-b429-41d4-86be-fd6bb6757f18" cx="101.03" cy="44.46" rx="3.85" ry="3.77"/>
                <ellipse class="f6fc6ef7-b429-41d4-86be-fd6bb6757f18" cx="26.04" cy="27.52" rx="7.73" ry="7.56"/>
                <ellipse class="f6fc6ef7-b429-41d4-86be-fd6bb6757f18" cx="-0.4" cy="133.03" rx="7.03" ry="6.87"/>
                <ellipse class="f6fc6ef7-b429-41d4-86be-fd6bb6757f18" cx="114.44" cy="41.35" rx="7.03" ry="6.87"/>
                <ellipse class="f6fc6ef7-b429-41d4-86be-fd6bb6757f18" cx="71.17" cy="103.8" rx="7.73" ry="7.56"/>
                <g>
                  <path class="f6fc6ef7-b429-41d4-86be-fd6bb6757f18" d="M2.73,65.66a16.47,16.47,0,0,0-13.6-16.09V81.74A16.46,16.46,0,0,0,2.73,65.66Z"/>
                  <path class="b058e25e-8af5-4edc-b943-59a665f85c01" d="M.61,65.66a14.39,14.39,0,0,0-11.48-14V79.63A14.38,14.38,0,0,0,.61,65.66Z"/>
                </g>
                <path class="f6fc6ef7-b429-41d4-86be-fd6bb6757f18" d="M124,14.06a16.14,16.14,0,0,0,1.24,23v-23Z"/>
                <g>
                  <path class="f6fc6ef7-b429-41d4-86be-fd6bb6757f18" d="M.37,141.74A16.86,16.86,0,0,0-10.87,146v1.23H12.86A16.84,16.84,0,0,0,.37,141.74Z"/>
                  <path class="b058e25e-8af5-4edc-b943-59a665f85c01" d="M-9.08,147.22H9.83a14.75,14.75,0,0,0-9.46-3.4A14.74,14.74,0,0,0-9.08,147.22Z"/>
                  <path class="f6fc6ef7-b429-41d4-86be-fd6bb6757f18" d="M-6.37,147.22H7.12a13.18,13.18,0,0,0-6.75-1.84A13.11,13.11,0,0,0-6.37,147.22Z"/>
                </g>
                <g>
                  <path class="f6fc6ef7-b429-41d4-86be-fd6bb6757f18" d="M46.62,127.87a16.56,16.56,0,0,0-16.74,16.38,16.25,16.25,0,0,0,.28,3H63.08a16.25,16.25,0,0,0,.28-3A16.56,16.56,0,0,0,46.62,127.87Z"/>
                  <path class="b058e25e-8af5-4edc-b943-59a665f85c01" d="M46.62,129.94A14.47,14.47,0,0,0,32,144.25a13.86,13.86,0,0,0,.32,3h28.6a13.86,13.86,0,0,0,.32-3A14.47,14.47,0,0,0,46.62,129.94Z"/>
                  <path class="f6fc6ef7-b429-41d4-86be-fd6bb6757f18" d="M46.62,131.5a12.89,12.89,0,0,0-13,12.75,12.2,12.2,0,0,0,.36,3H59.29a12.71,12.71,0,0,0,.36-3A12.89,12.89,0,0,0,46.62,131.5Z"/>
                  <path class="b058e25e-8af5-4edc-b943-59a665f85c01" d="M46.62,133.92a10.44,10.44,0,0,0-10.55,10.33,10.07,10.07,0,0,0,.45,3H56.73a10.07,10.07,0,0,0,.44-3A10.44,10.44,0,0,0,46.62,133.92Z"/>
                  <path class="f6fc6ef7-b429-41d4-86be-fd6bb6757f18" d="M46.62,135.89a8.45,8.45,0,0,0-8.54,8.36,8.2,8.2,0,0,0,.55,3h16a8.21,8.21,0,0,0,.56-3A8.46,8.46,0,0,0,46.62,135.89Z"/>
                  <path class="b058e25e-8af5-4edc-b943-59a665f85c01" d="M46.62,137.47a6.86,6.86,0,0,0-6.92,6.78,6.63,6.63,0,0,0,.7,3H52.84a6.63,6.63,0,0,0,.7-3A6.86,6.86,0,0,0,46.62,137.47Z"/>
                  <path class="f6fc6ef7-b429-41d4-86be-fd6bb6757f18" d="M46.62,139.36a4.94,4.94,0,0,0-5,4.89,4.85,4.85,0,0,0,1,3h7.94a4.86,4.86,0,0,0,1-3A5,5,0,0,0,46.62,139.36Z"/>
                  <path class="b058e25e-8af5-4edc-b943-59a665f85c01" d="M50.26,144.25a3.64,3.64,0,0,0-7.28,0,3.55,3.55,0,0,0,1.63,3h4A3.54,3.54,0,0,0,50.26,144.25Z"/>
                </g>
                <g>
                  <path class="f6fc6ef7-b429-41d4-86be-fd6bb6757f18" d="M111.08,109.21a16.5,16.5,0,0,0,14.13,16.18V93A16.49,16.49,0,0,0,111.08,109.21Z"/>
                  <path class="b058e25e-8af5-4edc-b943-59a665f85c01" d="M113.2,109.21a14.4,14.4,0,0,0,12,14.07V95.14A14.4,14.4,0,0,0,113.2,109.21Z"/>
                  <path class="f6fc6ef7-b429-41d4-86be-fd6bb6757f18" d="M114.8,109.21a12.82,12.82,0,0,0,10.41,12.49v-25A12.81,12.81,0,0,0,114.8,109.21Z"/>
                  <path class="b058e25e-8af5-4edc-b943-59a665f85c01" d="M117.27,109.21a10.37,10.37,0,0,0,7.94,10v-20A10.39,10.39,0,0,0,117.27,109.21Z"/>
                  <path class="f6fc6ef7-b429-41d4-86be-fd6bb6757f18" d="M119.27,109.21a8.39,8.39,0,0,0,5.94,8V101.24A8.4,8.4,0,0,0,119.27,109.21Z"/>
                </g>
                <g>
                  <path class="f6fc6ef7-b429-41d4-86be-fd6bb6757f18" d="M122.08,49.28a16.38,16.38,0,1,0,0,32.75,17,17,0,0,0,3.13-.29V49.57A17,17,0,0,0,122.08,49.28Z"/>
                  <path class="b058e25e-8af5-4edc-b943-59a665f85c01" d="M122.08,51.35a14.31,14.31,0,1,0,0,28.61,15.31,15.31,0,0,0,3.13-.33V51.68A15.31,15.31,0,0,0,122.08,51.35Z"/>
                  <path class="f6fc6ef7-b429-41d4-86be-fd6bb6757f18" d="M122.08,52.91a12.75,12.75,0,1,0,0,25.49,13.41,13.41,0,0,0,3.13-.37V53.28A13.41,13.41,0,0,0,122.08,52.91Z"/>
                  <path class="b058e25e-8af5-4edc-b943-59a665f85c01" d="M122.08,55.33a10.33,10.33,0,1,0,3.13,20.18V55.8A10.45,10.45,0,0,0,122.08,55.33Z"/>
                  <path class="f6fc6ef7-b429-41d4-86be-fd6bb6757f18" d="M122.08,57.29a8.37,8.37,0,1,0,3.13,16.14V57.88A8.54,8.54,0,0,0,122.08,57.29Z"/>
                  <path class="b058e25e-8af5-4edc-b943-59a665f85c01" d="M122.08,58.88a6.78,6.78,0,1,0,0,13.55,7,7,0,0,0,3.13-.74V59.62A7,7,0,0,0,122.08,58.88Z"/>
                  <path class="f6fc6ef7-b429-41d4-86be-fd6bb6757f18" d="M122.08,60.77a4.89,4.89,0,1,0,3.13,8.69V61.85A5,5,0,0,0,122.08,60.77Z"/>
                  <path class="b058e25e-8af5-4edc-b943-59a665f85c01" d="M122.08,62.09a3.57,3.57,0,1,0,3.13,5.37V63.85A3.64,3.64,0,0,0,122.08,62.09Z"/>
                </g>
              </g>
              <g class="b7f0acd8-1f75-4550-928b-5bf353eb3b92">
                <g>
                  <path class="f6fc6ef7-b429-41d4-86be-fd6bb6757f18" d="M17.11,158.1a16.15,16.15,0,0,0-4.25-10.91H-10.87v23A16.86,16.86,0,0,0,.37,174.48,16.56,16.56,0,0,0,17.11,158.1Z"/>
                  <path class="b058e25e-8af5-4edc-b943-59a665f85c01" d="M.37,172.4A14.46,14.46,0,0,0,15,158.1a14.16,14.16,0,0,0-5.16-10.91H-9.08A14.26,14.26,0,0,0-10.87,149v18.28A14.72,14.72,0,0,0,.37,172.4Z"/>
                  <path class="f6fc6ef7-b429-41d4-86be-fd6bb6757f18" d="M.37,170.84a12.88,12.88,0,0,0,13-12.74,12.71,12.71,0,0,0-6.28-10.91H-6.37a13,13,0,0,0-4.5,4.48v12.86A13.06,13.06,0,0,0,.37,170.84Z"/>
                  <ellipse class="b058e25e-8af5-4edc-b943-59a665f85c01" cx="0.37" cy="158.1" rx="10.55" ry="10.32"/>
                  <ellipse class="f6fc6ef7-b429-41d4-86be-fd6bb6757f18" cx="0.37" cy="158.1" rx="8.55" ry="8.36"/>
                  <ellipse class="b058e25e-8af5-4edc-b943-59a665f85c01" cx="0.37" cy="158.1" rx="6.92" ry="6.77"/>
                  <ellipse class="f6fc6ef7-b429-41d4-86be-fd6bb6757f18" cx="0.37" cy="158.1" rx="5" ry="4.89"/>
                  <ellipse class="b058e25e-8af5-4edc-b943-59a665f85c01" cx="0.37" cy="158.1" rx="3.64" ry="3.56"/>
                </g>
                <g>
                  <path class="f6fc6ef7-b429-41d4-86be-fd6bb6757f18" d="M46.62,160.61a16.65,16.65,0,0,0,16.46-13.42H30.16A16.65,16.65,0,0,0,46.62,160.61Z"/>
                  <path class="b058e25e-8af5-4edc-b943-59a665f85c01" d="M46.62,158.53a14.54,14.54,0,0,0,14.3-11.34H32.32A14.55,14.55,0,0,0,46.62,158.53Z"/>
                  <path class="f6fc6ef7-b429-41d4-86be-fd6bb6757f18" d="M46.62,157a13,13,0,0,0,12.67-9.78H34A13,13,0,0,0,46.62,157Z"/>
                  <path class="b058e25e-8af5-4edc-b943-59a665f85c01" d="M46.62,154.55a10.54,10.54,0,0,0,10.11-7.36H36.52A10.52,10.52,0,0,0,46.62,154.55Z"/>
                  <path class="f6fc6ef7-b429-41d4-86be-fd6bb6757f18" d="M46.62,152.59a8.53,8.53,0,0,0,8-5.4h-16A8.55,8.55,0,0,0,46.62,152.59Z"/>
                  <path class="b058e25e-8af5-4edc-b943-59a665f85c01" d="M46.62,151a6.91,6.91,0,0,0,6.22-3.81H40.4A6.92,6.92,0,0,0,46.62,151Z"/>
                  <path class="f6fc6ef7-b429-41d4-86be-fd6bb6757f18" d="M46.62,149.11a5,5,0,0,0,4-1.92H42.65A5,5,0,0,0,46.62,149.11Z"/>
                  <path class="b058e25e-8af5-4edc-b943-59a665f85c01" d="M48.64,147.19h-4a3.68,3.68,0,0,0,4,0Z"/>
                </g>
                <g>
                  <ellipse class="f6fc6ef7-b429-41d4-86be-fd6bb6757f18" cx="21" cy="187.3" rx="14.77" ry="14.45"/>
                  <ellipse class="b058e25e-8af5-4edc-b943-59a665f85c01" cx="21" cy="187.3" rx="12.9" ry="12.62"/>
                  <ellipse class="f6fc6ef7-b429-41d4-86be-fd6bb6757f18" cx="21" cy="187.3" rx="11.49" ry="11.24"/>
                  <ellipse class="b058e25e-8af5-4edc-b943-59a665f85c01" cx="21" cy="187.3" rx="9.31" ry="9.11"/>
                  <ellipse class="f6fc6ef7-b429-41d4-86be-fd6bb6757f18" cx="21" cy="187.3" rx="7.54" ry="7.38"/>
                  <ellipse class="b058e25e-8af5-4edc-b943-59a665f85c01" cx="21" cy="187.3" rx="6.11" ry="5.97"/>
                  <ellipse class="f6fc6ef7-b429-41d4-86be-fd6bb6757f18" cx="21" cy="187.3" rx="4.41" ry="4.31"/>
                  <ellipse class="b058e25e-8af5-4edc-b943-59a665f85c01" cx="21" cy="187.3" rx="3.21" ry="3.14"/>
                </g>
                <g>
                  <ellipse class="f6fc6ef7-b429-41d4-86be-fd6bb6757f18" cx="62.17" cy="213.73" rx="13.29" ry="13"/>
                  <ellipse class="b058e25e-8af5-4edc-b943-59a665f85c01" cx="62.17" cy="213.73" rx="11.61" ry="11.36"/>
                  <ellipse class="f6fc6ef7-b429-41d4-86be-fd6bb6757f18" cx="62.17" cy="213.73" rx="10.34" ry="10.12"/>
                  <ellipse class="b058e25e-8af5-4edc-b943-59a665f85c01" cx="62.17" cy="213.73" rx="8.38" ry="8.2"/>
                  <ellipse class="f6fc6ef7-b429-41d4-86be-fd6bb6757f18" cx="62.17" cy="213.73" rx="6.78" ry="6.64"/>
                  <ellipse class="b058e25e-8af5-4edc-b943-59a665f85c01" cx="62.17" cy="213.73" rx="5.5" ry="5.38"/>
                  <ellipse class="f6fc6ef7-b429-41d4-86be-fd6bb6757f18" cx="62.17" cy="213.73" rx="3.97" ry="3.88"/>
                  <ellipse class="b058e25e-8af5-4edc-b943-59a665f85c01" cx="62.17" cy="213.73" rx="2.89" ry="2.83"/>
                </g>
                <g>
                  <ellipse class="f6fc6ef7-b429-41d4-86be-fd6bb6757f18" cx="57.17" cy="179.77" rx="16.74" ry="16.38"/>
                  <ellipse class="b058e25e-8af5-4edc-b943-59a665f85c01" cx="57.17" cy="179.77" rx="14.62" ry="14.3"/>
                  <ellipse class="f6fc6ef7-b429-41d4-86be-fd6bb6757f18" cx="57.17" cy="179.77" rx="13.03" ry="12.74"/>
                  <ellipse class="b058e25e-8af5-4edc-b943-59a665f85c01" cx="57.17" cy="179.77" rx="10.55" ry="10.32"/>
                  <ellipse class="f6fc6ef7-b429-41d4-86be-fd6bb6757f18" cx="57.17" cy="179.77" rx="8.55" ry="8.36"/>
                  <ellipse class="b058e25e-8af5-4edc-b943-59a665f85c01" cx="57.17" cy="179.77" rx="6.92" ry="6.77"/>
                  <ellipse class="f6fc6ef7-b429-41d4-86be-fd6bb6757f18" cx="57.17" cy="179.77" rx="5" ry="4.89"/>
                  <ellipse class="b058e25e-8af5-4edc-b943-59a665f85c01" cx="57.17" cy="179.77" rx="3.64" ry="3.56"/>
                </g>
                <g>
                  <ellipse class="f6fc6ef7-b429-41d4-86be-fd6bb6757f18" cx="88.82" cy="191.61" rx="12.2" ry="11.94"/>
                  <ellipse class="b058e25e-8af5-4edc-b943-59a665f85c01" cx="88.82" cy="191.61" rx="10.66" ry="10.43"/>
                  <ellipse class="f6fc6ef7-b429-41d4-86be-fd6bb6757f18" cx="88.82" cy="191.61" rx="9.5" ry="9.29"/>
                  <ellipse class="b058e25e-8af5-4edc-b943-59a665f85c01" cx="88.82" cy="191.61" rx="7.69" ry="7.53"/>
                  <ellipse class="f6fc6ef7-b429-41d4-86be-fd6bb6757f18" cx="88.82" cy="191.61" rx="6.23" ry="6.1"/>
                  <ellipse class="b058e25e-8af5-4edc-b943-59a665f85c01" cx="88.82" cy="191.61" rx="5.05" ry="4.94"/>
                  <ellipse class="f6fc6ef7-b429-41d4-86be-fd6bb6757f18" cx="88.82" cy="191.61" rx="3.64" ry="3.56"/>
                  <ellipse class="b058e25e-8af5-4edc-b943-59a665f85c01" cx="88.82" cy="191.61" rx="2.65" ry="2.6"/>
                </g>
                <g>
                  <ellipse class="f6fc6ef7-b429-41d4-86be-fd6bb6757f18" cx="26.04" cy="222.11" rx="16.74" ry="16.38"/>
                  <ellipse class="b058e25e-8af5-4edc-b943-59a665f85c01" cx="26.04" cy="222.11" rx="14.62" ry="14.3"/>
                  <ellipse class="f6fc6ef7-b429-41d4-86be-fd6bb6757f18" cx="26.04" cy="222.11" rx="13.03" ry="12.74"/>
                  <ellipse class="b058e25e-8af5-4edc-b943-59a665f85c01" cx="26.04" cy="222.11" rx="10.55" ry="10.32"/>
                  <ellipse class="f6fc6ef7-b429-41d4-86be-fd6bb6757f18" cx="26.04" cy="222.11" rx="8.55" ry="8.36"/>
                </g>
                <g>
                  <ellipse class="f6fc6ef7-b429-41d4-86be-fd6bb6757f18" cx="95.07" cy="225.82" rx="16.74" ry="16.38"/>
                  <ellipse class="b058e25e-8af5-4edc-b943-59a665f85c01" cx="95.07" cy="225.82" rx="14.62" ry="14.3"/>
                  <ellipse class="f6fc6ef7-b429-41d4-86be-fd6bb6757f18" cx="95.07" cy="225.82" rx="13.03" ry="12.74"/>
                </g>
                <ellipse class="f6fc6ef7-b429-41d4-86be-fd6bb6757f18" cx="0.7" cy="219.05" rx="6.39" ry="6.25"/>
                <path class="f6fc6ef7-b429-41d4-86be-fd6bb6757f18" d="M116.18,152.74a3.65,3.65,0,0,0,3.69-3.62,3.55,3.55,0,0,0-.57-1.93h-6.25a3.55,3.55,0,0,0-.57,1.93A3.66,3.66,0,0,0,116.18,152.74Z"/>
                <ellipse class="f6fc6ef7-b429-41d4-86be-fd6bb6757f18" cx="80.23" cy="207.1" rx="3.85" ry="3.77"/>
                <ellipse class="f6fc6ef7-b429-41d4-86be-fd6bb6757f18" cx="100.97" cy="204.66" rx="3.85" ry="3.77"/>
                <ellipse class="f6fc6ef7-b429-41d4-86be-fd6bb6757f18" cx="71.17" cy="196.55" rx="3.85" ry="3.77"/>
                <ellipse class="f6fc6ef7-b429-41d4-86be-fd6bb6757f18" cx="9.3" cy="205.54" rx="3.85" ry="3.77"/>
                <ellipse class="f6fc6ef7-b429-41d4-86be-fd6bb6757f18" cx="0.7" cy="181.18" rx="3.85" ry="3.77"/>
                <ellipse class="f6fc6ef7-b429-41d4-86be-fd6bb6757f18" cx="36.07" cy="171.41" rx="3.85" ry="3.77"/>
                <ellipse class="f6fc6ef7-b429-41d4-86be-fd6bb6757f18" cx="101.03" cy="177.59" rx="3.85" ry="3.77"/>
                <ellipse class="f6fc6ef7-b429-41d4-86be-fd6bb6757f18" cx="41.79" cy="201.16" rx="7.73" ry="7.56"/>
                <g>
                  <path class="f6fc6ef7-b429-41d4-86be-fd6bb6757f18" d="M2.73,198.79a16.47,16.47,0,0,0-13.6-16.09v32.18A16.47,16.47,0,0,0,2.73,198.79Z"/>
                  <path class="b058e25e-8af5-4edc-b943-59a665f85c01" d="M.61,198.79a14.37,14.37,0,0,0-11.48-14v27.94A14.38,14.38,0,0,0,.61,198.79Z"/>
                </g>
                <path class="f6fc6ef7-b429-41d4-86be-fd6bb6757f18" d="M124,147.19a16.14,16.14,0,0,0,1.24,23v-23Z"/>
                <g>
                  <path class="f6fc6ef7-b429-41d4-86be-fd6bb6757f18" d="M122.08,182.41a16.38,16.38,0,1,0,0,32.76,17,17,0,0,0,3.13-.29V182.7A17,17,0,0,0,122.08,182.41Z"/>
                  <path class="b058e25e-8af5-4edc-b943-59a665f85c01" d="M122.08,184.48a14.31,14.31,0,1,0,0,28.61,14.64,14.64,0,0,0,3.13-.33V184.82A14.64,14.64,0,0,0,122.08,184.48Z"/>
                  <path class="f6fc6ef7-b429-41d4-86be-fd6bb6757f18" d="M122.08,186a12.75,12.75,0,1,0,0,25.49,13.41,13.41,0,0,0,3.13-.37V186.42A13.41,13.41,0,0,0,122.08,186Z"/>
                  <path class="b058e25e-8af5-4edc-b943-59a665f85c01" d="M122.08,188.47a10.32,10.32,0,1,0,0,20.64,10.77,10.77,0,0,0,3.13-.46V188.93A10.77,10.77,0,0,0,122.08,188.47Z"/>
                  <path class="f6fc6ef7-b429-41d4-86be-fd6bb6757f18" d="M122.08,190.43a8.36,8.36,0,1,0,0,16.72,8.75,8.75,0,0,0,3.13-.58V191A8.75,8.75,0,0,0,122.08,190.43Z"/>
                  <path class="b058e25e-8af5-4edc-b943-59a665f85c01" d="M122.08,192a6.77,6.77,0,1,0,0,13.54,7,7,0,0,0,3.13-.73V192.75A7,7,0,0,0,122.08,192Z"/>
                  <path class="f6fc6ef7-b429-41d4-86be-fd6bb6757f18" d="M122.08,193.9a4.89,4.89,0,1,0,3.13,8.69V195A5,5,0,0,0,122.08,193.9Z"/>
                  <path class="b058e25e-8af5-4edc-b943-59a665f85c01" d="M122.08,195.23a3.56,3.56,0,1,0,3.13,5.36V197A3.63,3.63,0,0,0,122.08,195.23Z"/>
                </g>
              </g>
            </g>
            <path class="b9d03fbf-c9d3-4f40-b480-82bbf92b0d15" d="M110.21,166.79c2.93-.07,5.36.05,5.36.05S67,13.22,52.74,13.22c-8.59,0-23,64.46-27.56,78.84s-9.7,29.26-13.72,40.78h0L8.19,142l0,0c-2.32,6.53-3.8,10.61-3.8,10.61s.89,4.35,15.12,3.84a7.39,7.39,0,0,1,1,.05l-3.22,18.91h0a5.65,5.65,0,0,0,.09,2.72c1.09,4.13,16.93,6.2,23.8,7.22a13.06,13.06,0,0,0,2.31.54l.87,9.05c2.21,1,11.5,10.48,44.45,2.9,2.42-.56,3.11-1.6,2.81-2.9h0l-.59-12.1c6,1.39,13,3.73,15.86,2.61,6-2.32,9-6.68,4.74-12Z"/>
          </g>
        </g>
        <g>
          <path class="ae5f084e-78ab-46b8-81ef-7731f3a74889" d="M107.86,156.41l-13.63,1.74s.59,18.06,1.78,17.29,15.71-1.94,15.71-1.94Z"/>
          <polygon class="ae5f084e-78ab-46b8-81ef-7731f3a74889" points="90.38 167.71 41.58 165.4 44.44 194.96 91.71 194.96 90.38 167.71"/>
          <polygon class="ae5f084e-78ab-46b8-81ef-7731f3a74889" points="22.81 143.37 17.35 175.44 38.32 168.29 39.06 154.38 22.81 143.37"/>
          <path class="aa61915d-843c-418f-904e-7735099aa761" d="M52.74,13.22c-8.59,0-23,64.46-27.56,78.84C16,120.76,4.43,152.64,4.43,152.64s.89,4.35,15.12,3.84c4.68-.16,15.91,5.85,8.36,11.31-3.74,2.71-12.16,3.84-10.45,10.36,1.21,4.6,20.77,6.65,25.8,7.54,4.37.77,8.92-1.93,8.59,3.18-.21,3.34-8,2.64-7.41,6.09,2.21,1,11.5,10.48,44.45,2.9,10.08-2.32-9.65-13.16-7.4-15.07,4.08-3.47,20.58,4.57,25.49,2.68,6-2.32,9-6.68,4.74-12-1.24-1.56-12.72-1.59-11.86-4.05,1.19-3.39,15.71-2.61,15.71-2.61S67,13.22,52.74,13.22Z"/>
          <path class="b6b8d8af-95ba-4c1c-bdf4-4e2a87f67b58" d="M30.4,163.89s4.86-41.1,10.19-67.19,13-73.91,11.26-73.33S41.93,74.18,38.68,89.53C33.51,114,22.86,157.12,22.86,157.12a18.05,18.05,0,0,1,4.35,2.31c1.79,1.4,3.06,2.11,3.3,4.23Z"/>
          <path class="b6b8d8af-95ba-4c1c-bdf4-4e2a87f67b58" d="M51.76,187.41S53.35,54.1,52.24,53s-2.89,53-2.89,63.91-8.76,68.19-8.76,68.19a14.18,14.18,0,0,0,8.69.58A2,2,0,0,1,51.76,187.41Z"/>
          <path class="ad57e5b6-a483-4958-a598-9fcc757adeab" d="M81.32,183.17s-6.64-32.12-7.75-39.29S70,85.84,68.46,80.4s-4.67-13.26-3.11-13.26,10.16,66.71,12.38,73.23,5.46,27.63,6.13,31.11,6.42,11.4,6.42,11.4A38,38,0,0,0,85,182,4.51,4.51,0,0,0,81.32,183.17Z"/>
          <path class="ad57e5b6-a483-4958-a598-9fcc757adeab" d="M99.86,169.45S97.59,158,95.41,147.9,91.07,123.68,89,115.68s-6-18.34-6.32-21-2.4-12.25-2.07-12.46c.89-.58,4.34,7.48,6.22,18.26s6.52,22.76,9.88,33.43,1.78,12.11,3.75,19.67,3.86,13.33,3.86,13.33a9.88,9.88,0,0,0-2.87,1.11C99.86,168.9,99.86,169.45,99.86,169.45Z"/>
          <path class="ad57e5b6-a483-4958-a598-9fcc757adeab" d="M106.28,138.44a14,14,0,0,1-4.25,1c-2.76.19-5-1.84-7.31.38C93.57,140.92,94,143,94,143l.56,2.7c-.52.33-2.69,1.5-6.68,1.17-4.65-.39-7.42-1.5-10.87-.68-3.26.77-2.17,5.22-2.17,5.22l.83,3.83c-.43.73-2,2.17-7.94,2.74a62.53,62.53,0,0,1-15.42-.64l.1-2.75s0-3.09-1.77-3.86-5.73.48-9-.48-8.87-2.41-9.27-2.51l.38-3.1c.85-4.12-.42-6.11-2-6.76-6-2.51-10.13.15-13.91-1.59a19.82,19.82,0,0,1-5.45-3.43L8.19,142a51.62,51.62,0,0,0,10,3.1c3.91.74,9.18-.39,10.76,1.25a9.91,9.91,0,0,1,2.76,6.93l-.49,3.8s.1,1.16,2.87,2,12,.62,14.32,1.06c2.73.51,3.51,2.08,3.7,3.3v.72l0,.81a1.13,1.13,0,0,0,0-.12l0,2.44s2.45,1.6,10,1.83a40.49,40.49,0,0,0,15.8-2.51l-1.12-6.76.33,1.54s-.39-4.44,2.37-5.89,7,.48,11.36.68a20.68,20.68,0,0,0,6.23-.39l-.84-3.76c.11-1.18.46-3.26,1.53-4.26,2.27-2.12,3.85,1,8.49.48,2.76-.28,2.87-1.25,2.87-1.25Z"/>
        </g>
      </g>
    </g>
  </g>
</svg>
