<svg xmlns="http://www.w3.org/2000/svg" width="161" height="162" viewBox="0 0 161 162">
  <defs>
    <style>
      .ec135bdf-67d4-4ab7-9294-24ef888817d3, .f4daacab-d5b9-4e57-84e8-ff4ffbb58472 {
        fill: #fff;
      }

      .ec135bdf-67d4-4ab7-9294-24ef888817d3 {
        stroke: #323232;
        stroke-miterlimit: 10;
      }

      .e2e2be49-2f87-4fad-aae6-fd11b4ee52ff {
        fill: #f4dbd0;
      }

      .b8697c5f-4aac-4b25-84bf-b7874a9e9c11, .b9f1c8ba-d324-429d-bbda-def54b94c5d1 {
        fill: #fff5f5;
      }

      .b8697c5f-4aac-4b25-84bf-b7874a9e9c11 {
        opacity: 0.6;
      }

      .beaa6984-bda5-40af-9e9e-c4d0eb4be56b {
        fill: #d64c4c;
      }

      .b91b0dbd-4dfd-4a30-81d8-e8f3a4b5656f {
        fill: #ff6c6c;
      }

      .a0cd65a3-8686-427a-9405-9f55c1b1cd38 {
        fill: #fbb;
      }

      .bfb0b316-0855-48f3-ab6c-820f92bf1142 {
        fill: #ef9e9e;
      }

      .b82f514e-ffd5-44a2-9972-4eed7a2f5aaf {
        fill: #ffc0c0;
      }

      .b9f1c8ba-d324-429d-bbda-def54b94c5d1 {
        opacity: 0.59;
      }
    </style>
  </defs>
  <g id="a356549e-b785-4f92-b420-3d85aa9cbaec" data-name="Layer 12">
    <g>
      <path class="f4daacab-d5b9-4e57-84e8-ff4ffbb58472" d="M102.72,132.12c-7.9,0-14.09-4.47-14.09-10.18a9.59,9.59,0,0,1,.07-1.06c0-.1,0-.22,0-.33s.09-.47.14-.69a4,4,0,0,1,.11-.41c0-.13.07-.25.11-.37-1,0-2.09-.12-3.13-.19-2.6-.2-5.06-.44-7.44-.73l-.22,0c-1.15-.14-2.19-.28-3.23-.43l-.43-.06-3.24-.52-.39-.07-2.65-.5-.76-.15c-1-.2-1.89-.4-2.8-.61l-.13,0c-1.24-.29-2.51-.6-3.78-.92l-.19,0c-1.33-.35-2.54-.68-3.75-1l-.4-.11c-1.22-.36-2.43-.73-3.65-1.12l-.3-.1c-2.73-.89-5.33-1.86-7.74-2.87l-.19-.08c-1.28-.54-2.44-1.07-3.59-1.62l-.37-.18c-1.15-.55-2.29-1.15-3.37-1.75l-.28-.16c-.59-.33-1.17-.66-1.73-1l-.61.39a12.25,12.25,0,0,1-1.19.63l-.21.09c-.36.16-.72.3-1.08.43l-.38.12c-.38.12-.75.23-1.13.32l-.26.06c-.46.1-.93.19-1.42.25l-.28,0c-.47.05-.85.08-1.24.1l-.43,0h-.57c-.32,0-.65,0-1,0-4.24-.24-8.14-1.93-10.43-4.5a9.42,9.42,0,0,1-1.53-2.34l-.42.09c-.27,0-.54.09-.83.12l-.41,0-.74,0h-.56A9,9,0,0,1,4.52,98a6.62,6.62,0,0,1-.82-1.11A5.25,5.25,0,0,1,3,94a5.43,5.43,0,0,1,.23-1.26l.11-.33a6.14,6.14,0,0,1,.36-.82,3.09,3.09,0,0,1,.2-.37,7.19,7.19,0,0,1,.54-.78,7.09,7.09,0,0,1-1.33-2.27,2.09,2.09,0,0,1-.08-.23,6.21,6.21,0,0,1-.21-.85c0-.11,0-.21,0-.31a6.08,6.08,0,0,1,0-1.12,8.32,8.32,0,0,1,2.11-4.88,10.45,10.45,0,0,1,1.36-1.3A11.43,11.43,0,0,1,13.05,77h.43c.25,0,.49,0,.75,0s.52,0,.77.07a11.09,11.09,0,0,1-5.76-3.46l-.14-.19c-.11-.14-.27-.35-.41-.57l-.09-.14c-.13-.22-.26-.45-.37-.68a1.88,1.88,0,0,1-.12-.3,4.56,4.56,0,0,1-.24-.61q-.06-.23-.12-.48c0-.18-.07-.33-.1-.48a6.41,6.41,0,0,1-.07-1,6.34,6.34,0,0,1,.2-1.58l.06-.23A7.19,7.19,0,0,1,8.4,66l.12-.21a9.17,9.17,0,0,1,.85-1.19l.13-.13a9.08,9.08,0,0,1,.76-.76,10.74,10.74,0,0,1,5.9-3.81l.27-.06c.31-.07.58-.12.85-.16,0-.1.09-.21.14-.31l.13-.3c.29-.62.55-1.14.83-1.67l.31-.55c.28-.48.58-1,.9-1.46l.32-.48a32.26,32.26,0,0,1,3-3.78l.42-.44c.44-.46.9-.91,1.37-1.37l.58-.53c.49-.44,1-.86,1.48-1.28l.59-.49c.68-.54,1.39-1.09,2.14-1.62s1.64-1.11,2.47-1.64l.7-.42c.61-.37,1.24-.73,1.88-1.09l.9-.49c.64-.33,1.3-.67,2-1l.86-.42c.93-.43,1.89-.86,2.88-1.26s2.16-.84,3.24-1.22l1-.33,2.37-.76L49,36.46c.81-.23,1.64-.44,2.47-.65l1.12-.28q1.37-.31,2.76-.6l.13-.14A13.7,13.7,0,0,1,57.59,33l.17-.1c.35-.23.69-.42,1-.61l.27-.14a13.52,13.52,0,0,1,2.77-1l.33-.07c.46-.09.84-.15,1.23-.19l.45-.05c.37,0,.73-.05,1.1-.05h.52a12.52,12.52,0,0,1,1.26.12c.12,0,.53.09.53.09.22,0,.44.07.65.12l.43.11-.49,2.68.71-2.62.45.13.56.2.45.18c.22.09.42.19.62.29l.32.16c.22.11.44.24.65.37l.19.12.52.36.67,0c.23-.21.47-.41.73-.61l.14-.11c.3-.23.62-.45,1-.66a11.64,11.64,0,0,1,1.14-.63l.19-.09c.28-.13.61-.26.94-.38l.31-.11c.36-.11.65-.2.94-.27l.46-.1c.3-.06.62-.11.93-.15l.45-.05c.34,0,.7-.05,1.07-.05h.34a12.26,12.26,0,0,1,1.51.15l.33,0c.45.09.81.17,1.15.26l.37.11a11.36,11.36,0,0,1,1.27.47l.19.09c.29.13.65.32,1,.51l.28.18c.3.18.58.37.86.57l.19.14c.32.25.63.52.93.79l0,0c.26.26.51.52.74.79l.73.08c1.22.15,2.43.32,3.61.5l1.19.2,2.33.41,1.56.31,1.85.38,1.41.33.14,0,1.76.43,1.42.38c.59.15,1.19.32,1.78.49l1.3.39,1.79.56,1.36.46,1.62.57,1.32.5,1.56.61,1.27.53,1.48.64,1.24.56,1.42.69,1.18.59c.46.23.91.48,1.36.72,0,0,.84.45,1.13.62l1.3.75.16.1.92.54,1.1.7.41.27.75.49c.34.22.67.46,1,.69l1.14.81c.37.27.72.54,1.08.82l.95.73c.64.52,1.26,1,1.87,1.57l.78.72.25.22.75.69c.21.2.41.4.61.61l.4.41.65.65q.32.33.6.66l.36.39.59.66.61.74.24.3c.2.24.39.47.57.71s.43.56.64.85l.13.18c.18.25.36.49.53.74s.43.63.64,1,.36.55.53.83.4.65.59,1l.46.83.52,1c.14.29.28.56.4.84s.31.68.46,1,.23.56.34.83.26.69.38,1,.19.55.28.82.22.7.32,1,.11.46.17.68l0,.14c.09.35.18.71.25,1.07s.08.44.12.66l.05.3q.09.46.15.93c0,.17,0,.35,0,.53l0,.37c0,.32.07.64.08,1a12,12,0,0,1,4.94,4.43l.33.34.09.1a9.49,9.49,0,0,1,1.41,2l.13.24a4.69,4.69,0,0,1,.21.46c.1.24.16.39.21.54a4.84,4.84,0,0,1,.16.51,5,5,0,0,1,.15.64,2.51,2.51,0,0,1,.07.39,6.38,6.38,0,0,1,.09,1.08c0,3.67-2.54,7-6.78,8.86a18.66,18.66,0,0,1-6,1.48c-.63,1.33-1.31,2.61-2,3.81l.75.42.17.1c.29.18.54.35.79.52l.22.16.69.55.24.21c.19.17.4.37.59.56l.15.16a13.63,13.63,0,0,1,1.59,2l.22.37a4.92,4.92,0,0,1,.24.45l.27.54c.07.15.13.31.2.47l.21.55a4.56,4.56,0,0,1,.14.44c.07.21.12.41.17.61l.1.42c0,.21.07.43.1.65s0,.29.06.39c0,.32,0,.66,0,1a8.05,8.05,0,0,1-.08,1.11q0,.15-.06.33c-.05.26-.11.5-.17.72s-.08.26-.12.37a6.77,6.77,0,0,1-.26.67q-.07.18-.18.39a5.81,5.81,0,0,1-.32.57,3,3,0,0,1-.24.39c-.11.17-.22.32-.34.48a9.39,9.39,0,0,1-.63.74,3.73,3.73,0,0,1-.32.34c-.13.14-.28.27-.43.41l-1.92-1.93,1.81,2-.22.19-.56.44-.27.19c-.2.14-.41.28-.64.42l-.2.12a16,16,0,0,1-3.84,1.63,10.59,10.59,0,0,1-1.49,3q-.39.54-.84,1a12.51,12.51,0,0,1-.95,1c-.38.34-.71.61-1.05.87l-.15.11c-.31.23-.64.46-1,.68l-.19.11c-.37.23-.7.42-1,.6l-.26.13-1.05.5L133,130c-.42.17-.73.3-1.05.41l-.58.18-.88.27L130,131l-.36.09-.66.15-.66.11-.37.06c-.19,0-.37.07-.56.09s-.59.07-.89.09l-.76.07c-.56,0-1.12.06-1.7.06s-1.21,0-1.8-.07l-.53,0c-.42,0-.83-.08-1.24-.13l-.57-.1c-.39-.06-.78-.13-1.16-.22l-.4-.09c-.5-.12-.89-.22-1.27-.34l-.36-.11c-.48-.15-.88-.29-1.26-.44l-.33-.13c-.43-.17-.83-.36-1.23-.55l-.22-.11c-.25-.12-.49-.25-.72-.38l-.48.35-.12.08a14,14,0,0,1-1.26.74l-.17.08a11.67,11.67,0,0,1-1.19.54l-.33.13c-.42.17-.87.32-1.34.46l-.14,0c-.45.12-1,.24-1.47.34l-.3,0c-.5.08-.9.14-1.31.18l-.46.05C103.82,132.09,103.27,132.12,102.72,132.12Z"/>
      <g>
        <path class="ec135bdf-67d4-4ab7-9294-24ef888817d3" d="M143.84,95.2c6.46,0,11.7-3.44,11.7-7.68A6.12,6.12,0,0,0,153.27,83a9.47,9.47,0,0,0-5.48-4.32c.38-17.16-19.93-37.29-57-41.89L89,36.59a9.32,9.32,0,0,0-7.49-4,9.46,9.46,0,0,0-7.37,3.19c-.92,0-1.82,0-2.72.07a9.47,9.47,0,0,0-6.06-2.34,10.33,10.33,0,0,0-8.58,3.9c-21.47,4-34.3,14.85-37.54,24.84h0a8.29,8.29,0,0,0-6.89,3.32,4.66,4.66,0,0,0-2,3.62c0,3.14,3.87,5.67,8.64,5.68a65.2,65.2,0,0,0,1.76,8.75c0,.05,0,.09,0,.13a7.61,7.61,0,0,0-6.66-4c-5.09-.29-8.43,3.18-8.6,6.07-.12,1.87,1.3,3.59,3.5,4.65a4.59,4.59,0,0,0-3.24,3.67c-.11,1.92,2.16,3.61,5.09,3.78,2.25.12,4.22-.69,5.06-2A5.83,5.83,0,0,0,15.69,97c-.22,3.78,4.27,7.12,10,7.45,4,.22,7.51-1,9.41-3.07,8.73,5.74,19.9,9.32,30.23,11.71a144,144,0,0,0,28.32,3.41,8.34,8.34,0,0,0-2.34,5.4c0,4.13,5.09,7.46,11.37,7.46,4.26,0,8-1.54,9.91-3.81A19.09,19.09,0,0,0,124,129c8.07,0,14.63-4.16,15-9.38,4.95-.87,8.6-3.83,8.6-7.35s-2.87-8.07-8.41-9.22a39.51,39.51,0,0,0,4.43-7.87Zm-129-3.73c3.61-.31,6.42-2.25,6.57-4.75a4.78,4.78,0,0,0-.09-1.24,28,28,0,0,0,1.9,3.94,10.23,10.23,0,0,0-6.92,5.31A4.2,4.2,0,0,0,14.85,91.47Z"/>
        <g>
          <g>
            <path class="e2e2be49-2f87-4fad-aae6-fd11b4ee52ff" d="M155.54,87.52c0,4.24-5.24,7.68-11.7,7.68s-11.7-3.44-11.7-7.68,5.24-7.68,11.7-7.68S155.54,83.28,155.54,87.52Z"/>
            <path class="b8697c5f-4aac-4b25-84bf-b7874a9e9c11" d="M154.31,86.71c0,3.8-4.69,6.87-10.47,6.87s-10.47-3.07-10.47-6.87,4.1-8.58,10.79-8.58S154.31,82.92,154.31,86.71Z"/>
            <path class="f4daacab-d5b9-4e57-84e8-ff4ffbb58472" d="M144.18,80.57c4.71.06,7.69,2.27,8.95,4.23a9.35,9.35,0,0,0-8.93-5.9,9.54,9.54,0,0,0-9.2,5.71C136.33,82.67,139.44,80.51,144.18,80.57Z"/>
          </g>
          <g>
            <path class="e2e2be49-2f87-4fad-aae6-fd11b4ee52ff" d="M27.6,69.2c0,3.14-3.88,5.68-8.66,5.68s-8.65-2.54-8.65-5.68,3.88-5.67,8.65-5.67S27.6,66.07,27.6,69.2Z"/>
            <path class="b8697c5f-4aac-4b25-84bf-b7874a9e9c11" d="M26.69,68.61c0,2.8-3.47,5.08-7.75,5.08s-7.74-2.28-7.74-5.08,3-6.35,8-6.35S26.69,65.8,26.69,68.61Z"/>
            <path class="f4daacab-d5b9-4e57-84e8-ff4ffbb58472" d="M19.12,64.28c3.53,0,5.77,1.7,6.71,3.17A7,7,0,0,0,19.14,63a7.15,7.15,0,0,0-6.9,4.28C13.23,65.85,15.56,64.23,19.12,64.28Z"/>
          </g>
          <g>
            <path class="beaa6984-bda5-40af-9e9e-c4d0eb4be56b" d="M18.42,66.6c.45-9.78,35.2-13,71.17-8.55C120.21,61.85,149,72.36,147.46,82c-1.52,9-4.65,16.64-8.92,22-12,15.22-50.4,14.42-73.17,9.14C47,108.87,26,100.86,20.69,83.63,20,81.34,18.13,72.78,18.42,66.6Z"/>
            <path class="b91b0dbd-4dfd-4a30-81d8-e8f3a4b5656f" d="M90.8,36.78c39.46,4.9,59.93,27.4,56.66,45.18A20.5,20.5,0,0,1,146,86.57c-8.05,17.92-58.32,14.63-81.09,9C45.32,90.63,17.81,81.36,18.42,66.6,19,51.29,44.48,31,90.8,36.78Z"/>
            <g>
              <g>
                <path class="a0cd65a3-8686-427a-9405-9f55c1b1cd38" d="M120.69,59.19c-1.85-.42-4.14-.82-6.87-1.31A2.15,2.15,0,0,0,111.43,59l-6.56,18.14a1.65,1.65,0,0,0,1.39,2.18,2.38,2.38,0,0,0,2.65-1.42l2.2-6.42,4.69.88c5.09.9,9.6-1.37,10.69-5.3S125.11,60.2,120.69,59.19Zm-3.82,9.86-4.62-.86,2.38-7c2,.38,4.41.83,5.1,1,1.89.48,3.15,1.59,3.09,3.24a3.92,3.92,0,0,1-.15.91C122.05,68.47,119.77,69.42,116.87,69.05Z"/>
                <path class="bfb0b316-0855-48f3-ab6c-820f92bf1142" d="M116.87,69.05l-4.62-.86,0,1,4.63.86c2.9.37,5.18-.63,5.7-2.53a8.53,8.53,0,0,0,.26-2,3.92,3.92,0,0,1-.15.91C122.05,68.47,119.77,69.42,116.87,69.05Z"/>
                <path class="bfb0b316-0855-48f3-ab6c-820f92bf1142" d="M111.42,60a2.12,2.12,0,0,1,2.38-1.16c2.73.49,5,.89,6.88,1.31,3.55.81,5.84,2.92,6,5.73.3-3.29-2.08-5.8-6-6.7-1.85-.42-4.14-.82-6.87-1.31A2.15,2.15,0,0,0,111.43,59l-6.56,18.14a1.62,1.62,0,0,0,0,1s0,0,0,0Z"/>
              </g>
              <g>
                <path class="a0cd65a3-8686-427a-9405-9f55c1b1cd38" d="M101.6,75.9l-1.88-19-.08-.76A1.46,1.46,0,0,0,98.32,55a2.51,2.51,0,0,0-2.1.57L78.83,71.61a1.52,1.52,0,0,0-.07,2.48,2,2,0,0,0,.72.29,2.77,2.77,0,0,0,2.35-.72l5.51-5.21,9.51,1.78.51,6.36A1.65,1.65,0,0,0,98.79,78a2.47,2.47,0,0,0,.86,0A2.18,2.18,0,0,0,101.6,75.9ZM90.49,65.48,96,60.23l.51,6.38Z"/>
                <polygon class="bfb0b316-0855-48f3-ab6c-820f92bf1142" points="96.54 67.57 96.55 66.61 90.48 65.48 90.47 66.44 96.54 67.57"/>
                <path class="bfb0b316-0855-48f3-ab6c-820f92bf1142" d="M96.21,56.6a2.16,2.16,0,0,1,3.51.32c0-.34-.08-.76-.08-.76A1.46,1.46,0,0,0,98.32,55a2.51,2.51,0,0,0-2.1.57L78.83,71.61a1.69,1.69,0,0,0-.59,1.81,1.85,1.85,0,0,1,.57-.75Z"/>
              </g>
              <g>
                <path class="a0cd65a3-8686-427a-9405-9f55c1b1cd38" d="M65.36,71.69c-6-1.14-7.91-7-4.41-12.78C64.25,53.44,71.26,50,76.72,51s7.81,6.17,5,11.76c-2.93,5.92-10.36,10-16.39,8.91Zm9.77-17.78c-3.52-.65-8.15,1.86-10.41,5.71s-1.25,7.94,2.52,8.65,8.61-2.13,10.7-6.19c2-3.91.72-7.52-2.81-8.17Z"/>
                <path class="bfb0b316-0855-48f3-ab6c-820f92bf1142" d="M67.23,69.23c3.77.71,8.61-2.13,10.7-6.19a7.71,7.71,0,0,0,.94-4,8.36,8.36,0,0,1-.93,3C75.85,66.14,71,69,67.24,68.27a4.34,4.34,0,0,1-3.73-4.16A4.44,4.44,0,0,0,67.23,69.23Z"/>
                <path class="bfb0b316-0855-48f3-ab6c-820f92bf1142" d="M76.71,52c3.77.69,6.38,3.52,6.2,6.75A7.09,7.09,0,0,0,76.72,51C71.26,50,64.25,53.44,61,58.91A10.87,10.87,0,0,0,59.21,65a10.07,10.07,0,0,1,1.58-4.88C64.33,54.44,71.24,51,76.71,52Z"/>
              </g>
              <g>
                <path class="a0cd65a3-8686-427a-9405-9f55c1b1cd38" d="M48.89,52.43a1.49,1.49,0,0,1,.23-.61c.89-1.36,3.33-2.16,5.89-1.69a3.33,3.33,0,0,1,2.9,2.22c.64,1.34,4.14.64,4-.8s-.77-3.35-5.06-4.14-9.26.51-11.24,3.25c-4,5.47,7.16,7,7.36,10.22A1.81,1.81,0,0,1,52.64,62c-1.65,2.61-5.06,2.9-7,2.54a3.44,3.44,0,0,1-2.87-2.71,2.9,2.9,0,0,1,0-.83c.22-2.18-4.15-1.86-4.66.67s1.41,5.11,5.38,5.86c4.81.91,10.88-.89,13.09-4.48C60.54,56.49,48.57,55.37,48.89,52.43Z"/>
                <path class="bfb0b316-0855-48f3-ab6c-820f92bf1142" d="M49.11,54.13c.9,2.08,7.7,3.21,8.2,6.92h0c.73-4.82-8.71-6-8.43-8.61A3.4,3.4,0,0,0,49.11,54.13Z"/>
                <path class="bfb0b316-0855-48f3-ab6c-820f92bf1142" d="M51,48.46a15.12,15.12,0,0,1,5.83-.08c3.78.7,4.72,2.36,5,3.65a1,1,0,0,0,.09-.48c-.14-1.31-.77-3.35-5.06-4.14s-9.26.51-11.24,3.25a3.51,3.51,0,0,0-.82,2.67C44.56,51.74,47.2,49.19,51,48.46Z"/>
                <path class="bfb0b316-0855-48f3-ab6c-820f92bf1142" d="M45.62,65.47c2,.36,5.36.07,7-2.54a3.2,3.2,0,0,0,.34-2A1.81,1.81,0,0,1,52.64,62c-1.65,2.61-5.06,2.9-7,2.54a3.44,3.44,0,0,1-2.87-2.71A3.45,3.45,0,0,0,45.62,65.47Z"/>
                <path class="bfb0b316-0855-48f3-ab6c-820f92bf1142" d="M42.71,61.39a2.89,2.89,0,0,1,0-.43c.22-2.18-4.15-1.86-4.66.67A4.45,4.45,0,0,0,38,62.89c0-1.62,1.64-2.44,2.86-2.42C41.82,60.49,42.57,60.9,42.71,61.39Z"/>
              </g>
            </g>
          </g>
          <g>
            <g>
              <path class="b8697c5f-4aac-4b25-84bf-b7874a9e9c11" d="M21.42,86.72c-.17,2.89-3.88,5-8.29,4.78s-7.84-2.8-7.66-5.69,3.51-6.36,8.6-6.07S21.59,83.83,21.42,86.72Z"/>
              <path class="f4daacab-d5b9-4e57-84e8-ff4ffbb58472" d="M13.49,81.6c3.66,0,6,1.76,7,3.29A7.27,7.27,0,0,0,13.5,80.3a7.43,7.43,0,0,0-7.15,4.44C7.38,83.23,9.8,81.55,13.49,81.6Z"/>
            </g>
            <g>
              <path class="b8697c5f-4aac-4b25-84bf-b7874a9e9c11" d="M16.31,94.74c-.11,1.91-2.57,3.33-5.49,3.17s-5.2-1.86-5.09-3.78,2.34-4.22,5.71-4S16.43,92.82,16.31,94.74Z"/>
              <path class="f4daacab-d5b9-4e57-84e8-ff4ffbb58472" d="M11.05,91.28a5.14,5.14,0,0,1,4.37,2.07,4.55,4.55,0,0,0-4.36-2.88,4.66,4.66,0,0,0-4.49,2.79A5.26,5.26,0,0,1,11.05,91.28Z"/>
            </g>
            <g>
              <path class="b8697c5f-4aac-4b25-84bf-b7874a9e9c11" d="M36.59,98.23c-.23,3.78-5.09,6.58-10.86,6.26s-10.26-3.67-10-7.45,4.61-8.33,11.28-8S36.81,94.44,36.59,98.23Z"/>
              <path class="f4daacab-d5b9-4e57-84e8-ff4ffbb58472" d="M26.24,91.55c5,.07,8.09,2.39,9.42,4.45a9.87,9.87,0,0,0-9.4-6.2,10.05,10.05,0,0,0-9.67,6C18,93.76,21.26,91.49,26.24,91.55Z"/>
            </g>
          </g>
          <g>
            <g>
              <path class="b8697c5f-4aac-4b25-84bf-b7874a9e9c11" d="M147.63,112.28c0,4.21-5.19,7.62-11.6,7.62s-11.61-3.41-11.61-7.62,4.55-9.51,12-9.51S147.63,108.08,147.63,112.28Z"/>
              <path class="f4daacab-d5b9-4e57-84e8-ff4ffbb58472" d="M136.42,105.74c5.18.07,8.46,2.5,9.85,4.65a10.31,10.31,0,0,0-9.83-6.49,10.5,10.5,0,0,0-10.12,6.29C127.78,108.05,131.2,105.68,136.42,105.74Z"/>
            </g>
            <g>
              <path class="b8697c5f-4aac-4b25-84bf-b7874a9e9c11" d="M139.07,119.13c0,5.46-6.74,9.88-15.06,9.88S109,124.59,109,119.13s5.9-12.34,15.51-12.34S139.07,113.68,139.07,119.13Z"/>
              <path class="f4daacab-d5b9-4e57-84e8-ff4ffbb58472" d="M124.31,110.73c7,.09,11.37,3.35,13.23,6.25-1.22-3.65-5.61-8.63-13.2-8.72s-12.27,4.82-13.6,8.44C112.71,113.83,117.3,110.64,124.31,110.73Z"/>
            </g>
            <g>
              <path class="b8697c5f-4aac-4b25-84bf-b7874a9e9c11" d="M114.09,121.94c0,4.13-5.09,7.46-11.37,7.46s-11.37-3.33-11.37-7.46,4.46-9.31,11.71-9.31S114.09,117.82,114.09,121.94Z"/>
              <path class="f4daacab-d5b9-4e57-84e8-ff4ffbb58472" d="M103,115.43c5.13.06,8.38,2.47,9.75,4.6a10.2,10.2,0,0,0-9.73-6.42,10.4,10.4,0,0,0-10,6.22C94.43,117.71,97.81,115.36,103,115.43Z"/>
            </g>
          </g>
          <g>
            <path class="b82f514e-ffd5-44a2-9972-4eed7a2f5aaf" d="M90.81,39.75c0-2.2-4.14-4-9.32-4.11-4.2,0-7.77,1.08-9,2.69a14.83,14.83,0,0,0-8-2.13c-5.47-.07-9.92,2-10,4.72s4.37,4.89,9.83,5a18.25,18.25,0,0,0,5.45-.73c.18,1.64,3.18,3,6.87,3s6.93-1.31,6.95-3a2,2,0,0,0-.88-1.55C87.28,43.37,90.78,41.76,90.81,39.75Z"/>
            <g>
              <path class="b9f1c8ba-d324-429d-bbda-def54b94c5d1" d="M73.78,40.52c0,2.45-4.15,4.38-9.19,4.32s-9.12-2.1-9.09-4.55,4-7,9.84-6.77S73.82,38.08,73.78,40.52Z"/>
              <path class="f4daacab-d5b9-4e57-84e8-ff4ffbb58472" d="M64.88,35.87c4.31.05,7,2.08,8.19,3.87a8.56,8.56,0,0,0-8.17-5.4,8.76,8.76,0,0,0-8.42,5.23C57.7,37.79,60.54,35.82,64.88,35.87Z"/>
            </g>
            <g>
              <path class="b8697c5f-4aac-4b25-84bf-b7874a9e9c11" d="M89.9,39c0,2-3.92,3.61-8.69,3.54s-8.63-1.74-8.6-3.76,3.49-6.38,8.88-6.21S89.92,37,89.9,39Z"/>
              <path class="f4daacab-d5b9-4e57-84e8-ff4ffbb58472" d="M81.38,34.79c4,.05,6.44,1.9,7.5,3.54a7.83,7.83,0,0,0-7.48-4.94,8,8,0,0,0-7.7,4.78C74.81,36.55,77.41,34.74,81.38,34.79Z"/>
            </g>
            <g>
              <path class="b8697c5f-4aac-4b25-84bf-b7874a9e9c11" d="M83.16,44.55c0,1.56-2.82,2.78-6.26,2.74S70.7,46,70.72,44.4s2.2-4.73,6.32-4.68S83.18,43,83.16,44.55Z"/>
              <path class="f4daacab-d5b9-4e57-84e8-ff4ffbb58472" d="M77,41.25a6,6,0,0,1,5.11,2.41A5.34,5.34,0,0,0,77,40.3a5.44,5.44,0,0,0-5.24,3.25A6.17,6.17,0,0,1,77,41.25Z"/>
            </g>
          </g>
        </g>
      </g>
    </g>
  </g>
</svg>
