<svg xmlns="http://www.w3.org/2000/svg" width="192.32" height="192.32" viewBox="0 0 192.32 192.32">
  <defs>
    <style>
      .acdf7f72-ee54-47c9-b3b2-f7e9efb9cf25, .b1720746-d1aa-450a-9b40-9092e60fb347, .f67a3728-a852-4c57-9507-16b4201151ae {
        fill: #323232;
      }

      .acdf7f72-ee54-47c9-b3b2-f7e9efb9cf25 {
        stroke: #323232;
        stroke-miterlimit: 10;
        stroke-width: 2px;
      }

      .a931af86-3bac-4384-b347-27c2fad615fc {
        fill: #fff82e;
      }

      .f50352c4-5dc7-4656-a661-340c1cef0b69 {
        fill: #fec02d;
      }

      .bf3a1c13-3911-4d8f-aa26-5b05e512b410 {
        fill: #feffff;
      }

      .bc484f88-35b7-4354-a065-4e519fce8af8 {
        fill: #ccc;
      }

      .b1720746-d1aa-450a-9b40-9092e60fb347 {
        opacity: 0.3;
      }
    </style>
  </defs>
  <g id="f7f8ea62-705c-45b9-b0f8-6939d073b67d" data-name="Layer 23">
    <g>
      <path class="acdf7f72-ee54-47c9-b3b2-f7e9efb9cf25" d="M189.18,74.19c-1.06-3.73-6.25-6.29-13.15-8.13l-1.77-.44a132.74,132.74,0,0,0-13.63-2.39c-4.06-.53-8.15-.95-12-1.31s-7.35-.68-10.32-1a15.26,15.26,0,0,1-7.26-3.07c-.48-.34-1-.7-1.41-1.09a52,52,0,0,1-9.31-10.9c-.42-.62-.83-1.25-1.24-1.89q-1.22-1.92-2.39-3.92c-6.21-10.64-11.15-22.52-14-28.33-.18-.37-.36-.71-.55-1L102,10.4c-.13-.21-.25-.42-.38-.61l-.24-.32L101,9c-.08-.1-.17-.19-.25-.28s-.24-.26-.36-.37a3,3,0,0,0-.26-.24l-.36-.31-.27-.19c-.12-.08-.24-.17-.36-.24l-.27-.15c-.13-.06-.25-.13-.38-.18l-.26-.11a3,3,0,0,0-.39-.13l-.25-.07-.41-.08-.23,0-.43,0h-.66l-.19,0a3.78,3.78,0,0,0-.47.06l-.16,0-.5.11-.12,0a5.34,5.34,0,0,0-.53.16l-.08,0-.56.22,0,0-.58.28h0a18.63,18.63,0,0,0-5.16,4.17C66.6,66.46,53.6,60.37,53.6,60.37,20.84,65.9-.06,69.22,3.33,79.72s20.33,23.77,33.33,36.48-1.13,37.59-2.83,51.41c-1.57,12.84,6.61,16.13,14.12,15.64h.13c.53,0,1.05-.09,1.57-.16,3.21-.45,9.22-3.27,15.87-6.73,5.63-2.92,11.71-6.29,16.94-9.05,1-.51,1.87-1,2.76-1.45,2.22-1.14,4.21-2.12,5.85-2.83l1-.4.26-.08.23-.08h0c9.76-3.2,28.54,11.35,41.88,19a30.05,30.05,0,0,0,13,4.28l.57,0q.57,0,1.11,0l.63-.05c.35,0,.69-.07,1-.13a11.56,11.56,0,0,0,1.35-.32c.26-.08.5-.19.75-.29a5.78,5.78,0,0,0,.72-.31,7,7,0,0,0,.66-.36,7.47,7.47,0,0,0,.74-.51,4.49,4.49,0,0,0,.49-.37,8.29,8.29,0,0,0,1-1l.33-.46a9.86,9.86,0,0,0,.58-.94c.1-.17.19-.35.28-.53a10.25,10.25,0,0,0,.53-1.35c0-.1.08-.2.11-.3a14.63,14.63,0,0,0,.4-1.89c0-.19,0-.4.06-.6.06-.52.1-1.07.11-1.64,0-.22,0-.44,0-.67,0-.79,0-1.6-.14-2.47-.16-1.45-.35-3-.56-4.73-.14-1.13-.29-2.3-.44-3.51-.23-1.82-.48-3.72-.72-5.67-.83-6.5-1.7-13.56-2.25-20q-.08-1-.15-1.92c-.48-6.32-.61-11.9,0-15.58a11.51,11.51,0,0,1,.74-2.75c1.8-4.11,12.05-13.22,20.84-22.34,1-1.07,2.05-2.15,3-3.21.49-.53,1-1.06,1.43-1.59a66.51,66.51,0,0,0,5.95-7.57c.31-.48.59-.94.85-1.4C189,78.47,189.71,76.06,189.18,74.19Z"/>
      <g>
        <g>
          <path class="a931af86-3bac-4384-b347-27c2fad615fc" d="M53.6,60.37s13,6.08,33.9-48.65c0,0,9.6-11.6,15.25,0s19.77,47.54,35.59,49.2,48,3.32,50.84,13.27-30.5,35.37-33.89,43.11S157,156,158.68,171.47s-10.74,17.69-24.29,9.95S101.62,158.76,92,162.63,57.56,182,49.65,183.08s-17.51-1.66-15.82-15.48,15.82-38.69,2.83-51.41S6.72,90.21,3.33,79.71,20.84,65.89,53.6,60.37Z"/>
          <g>
            <path class="f50352c4-5dc7-4656-a661-340c1cef0b69" d="M85.24,162.63c-9.45,3.8-33.64,18.83-42,20.37a20.32,20.32,0,0,0,6.37.08C57.56,182,82.41,166.49,92,162.63a4.75,4.75,0,0,1,.49-.17A12.24,12.24,0,0,0,85.24,162.63Z"/>
            <path class="f50352c4-5dc7-4656-a661-340c1cef0b69" d="M155.29,117.3c3.39-7.74,36.72-33.17,33.89-43.11s-35-11.61-50.84-13.27-29.94-37.59-35.59-49.2c-2.93-6-6.93-5.79-10.09-4.17A10.18,10.18,0,0,1,96,11.72c5.65,11.61,19.77,47.54,35.59,49.2s48,3.32,50.84,13.27-30.5,35.37-33.89,43.11,1.69,38.69,3.39,54.17c.9,8.23-2.21,12.67-7.35,13.9,8.92,1.7,15.38-2.47,14.13-13.9C157,156,151.9,125,155.29,117.3Z"/>
          </g>
          <path class="bf3a1c13-3911-4d8f-aa26-5b05e512b410" d="M17,72.34S63.44,67.51,69,60c7.16-9.58,22.29-43.49,22.29-43.49s-.91,24.14-16,44.41C70.79,67.06,62.69,75.29,17,72.34Z"/>
          <path class="bf3a1c13-3911-4d8f-aa26-5b05e512b410" d="M72.06,164.47s17.32-11.06,24.1-11.06,23.73,11.79,23.73,11.79-11.3-16.95-23.73-16.95S72.06,164.47,72.06,164.47Z"/>
          <path class="bf3a1c13-3911-4d8f-aa26-5b05e512b410" d="M156.86,66.26s-21.67.24-27.59-3S112.43,41.2,112.43,41.2s3.42,20.64,14.27,26.57S156.86,66.26,156.86,66.26Z"/>
        </g>
        <g>
          <g>
            <ellipse class="f67a3728-a852-4c57-9507-16b4201151ae" cx="77.28" cy="93.53" rx="4.14" ry="7.96"/>
            <ellipse class="bc484f88-35b7-4354-a065-4e519fce8af8" cx="77.29" cy="88.04" rx="2.05" ry="2.45"/>
          </g>
          <g>
            <ellipse class="f67a3728-a852-4c57-9507-16b4201151ae" cx="115.04" cy="93.53" rx="4.14" ry="7.96"/>
            <ellipse class="bc484f88-35b7-4354-a065-4e519fce8af8" cx="115.05" cy="88.04" rx="2.05" ry="2.45"/>
          </g>
        </g>
        <path class="f67a3728-a852-4c57-9507-16b4201151ae" d="M76.55,124.54l9.61.19c3.21,0,6.4.1,9.6.1s6.4,0,9.6,0c1.6,0,3.2-.05,4.8-.11s3.2-.13,4.81-.14a122.24,122.24,0,0,1-19.21,1.29c-3.21,0-6.42-.11-9.63-.34S79.73,125,76.55,124.54Z"/>
        <path class="b1720746-d1aa-450a-9b40-9092e60fb347" d="M188.15,79.76c.18-.36.33-.71.47-1.05,0-.07.06-.14.08-.2a10,10,0,0,0,.58-2.18,2.48,2.48,0,0,0,0-.27c0-.24,0-.48,0-.71a2.81,2.81,0,0,1,0-.29,5.62,5.62,0,0,0-.14-.82.07.07,0,0,0,0,0s0-.08,0-.12a5.46,5.46,0,0,0-.26-.67,3.24,3.24,0,0,0-.17-.32,4.83,4.83,0,0,0-.26-.45l-.23-.34c-.11-.15-.24-.3-.36-.44a5.29,5.29,0,0,0-.52-.54c-.11-.12-.23-.23-.35-.34l-.46-.37-.33-.26c-.18-.13-.35-.26-.54-.38l-.24-.16c-.44-.28-.92-.56-1.42-.82l-.12-.06L183,68.5l-.2-.09c-5.5-2.52-13.79-4.09-22.21-5.19l-2-.25c-1.35-.17-2.71-.32-4-.47l-2-.21c-5.29-.54-10.26-1-14.22-1.37a12.54,12.54,0,0,1-1.47-.25h0a12.47,12.47,0,0,1-2.29-.8,22.49,22.49,0,0,1-6.3-4.34c-.45-.42-.89-.86-1.34-1.33l-.1-.1c-.41-.43-.81-.87-1.22-1.33l-.15-.17c-.39-.45-.78-.92-1.17-1.39l-.13-.16c-.42-.51-.83-1-1.24-1.58l0,0c-1.3-1.71-2.56-3.55-3.78-5.46l-.24-.38c-.65-1-1.29-2.08-1.91-3.14l-.24-.4c-1.16-2-2.28-4-3.35-6.07-4.64-8.81-8.33-17.54-10.63-22.26-.18-.37-.36-.71-.55-1a3.28,3.28,0,0,0-.2-.31c-.12-.21-.25-.41-.37-.6l-.24-.32L101,9c-.08-.1-.17-.18-.25-.27s-.24-.27-.36-.38a3,3,0,0,0-.26-.24c-.12-.1-.24-.21-.36-.3l-.27-.19a3,3,0,0,0-.37-.25l-.26-.14A3.37,3.37,0,0,0,98.52,7l-.26-.1-.39-.14-.25-.07-.41-.08-.23,0a3.28,3.28,0,0,0-.43,0h-.21l-.45,0H95.7l-.47.06-.16,0-.5.11-.12,0L93.93,7l-.09,0-.56.22,0,0-.58.28h0a18.63,18.63,0,0,0-5.16,4.17C66.6,66.45,53.6,60.37,53.6,60.37,22.88,65.55,2.59,68.79,3,77.83a7.06,7.06,0,0,0,.36,1.89c3.39,10.5,20.33,23.77,33.33,36.48,4.06,4,5.47,9.13,5.44,14.77C42,143.38,35,158.1,33.83,167.6c-.09.77-.15,1.5-.17,2.2,0,0,0,.1,0,.15,0,.66,0,1.28,0,1.87a2.17,2.17,0,0,0,0,.26,15.93,15.93,0,0,0,.2,1.62c0,.1,0,.2,0,.3a14.33,14.33,0,0,0,.34,1.4c0,.1.06.19.1.29.14.43.3.84.47,1.23l.13.26a11.21,11.21,0,0,0,.61,1.08c0,.07.1.14.14.21a9,9,0,0,0,.7.9,1.54,1.54,0,0,0,.17.19,9,9,0,0,0,.76.75l.19.17a9.52,9.52,0,0,0,.88.65l.26.17a7.46,7.46,0,0,0,.92.51,1.77,1.77,0,0,0,.31.15,10.25,10.25,0,0,0,1,.41l.33.11c.34.11.68.22,1,.3l.34.08c.35.08.7.16,1.06.21l.31,0c.34,0,.69.09,1,.12l.33,0c.34,0,.69,0,1,0h.29l1.11,0h.34l.37,0,.77-.08.43,0L50,183l.66-.13.61-.16c.27-.07.55-.16.84-.26s.69-.22,1-.36l.44-.16a117.28,117.28,0,0,0,11.92-5.58c5.63-2.92,11.71-6.29,16.94-9.05,1-.51,1.87-1,2.76-1.45,2.22-1.14,4.21-2.12,5.85-2.83l1-.4.26-.08.23-.08c9.76-3.2,28.54,11.35,41.88,19l1,.55.32.17.94.48.61.29.79.36c.47.21.93.41,1.39.59l.24.09,1.41.51.12,0c6.44,2.12,12,1.57,15.08-2.06l0,0a9.21,9.21,0,0,0,.76-1.06h0a11,11,0,0,0,.59-1.13,1.67,1.67,0,0,0,.08-.2,10.37,10.37,0,0,0,.47-1.29.24.24,0,0,1,0-.08,12.78,12.78,0,0,0,.29-1.32l.06-.34a14.7,14.7,0,0,0,.17-1.55.28.28,0,0,0,0-.09c0-.51,0-1,0-1.59,0-.15,0-.3,0-.45,0-.59-.06-1.19-.13-1.83-.11-1-.23-2-.36-3.07s-.27-2.21-.41-3.38c-.22-1.76-.46-3.61-.71-5.52l-.24-1.94c0-.25-.07-.5-.1-.75l-.45-3.57c0-.35-.08-.7-.13-1l-.51-4.31-.07-.57c-.17-1.5-.33-3-.49-4.49l-.06-.61c-.15-1.54-.3-3.06-.43-4.55-.07-.84-.13-1.68-.2-2.5,0-.54-.07-1.07-.11-1.6,0-.28,0-.55,0-.82,0-.43-.05-.85-.07-1.27l0-.8c0-.44,0-.86,0-1.28l0-.69c0-.61,0-1.21,0-1.79v-.07c0-.6,0-1.19,0-1.75,0-.17,0-.32,0-.48,0-.41,0-.81,0-1.2l0-.49c0-.39.05-.77.09-1.13l0-.37c0-.48.11-.94.18-1.37a1.42,1.42,0,0,1,0-.2c0-.24.08-.47.13-.69l.09-.37q.06-.26.12-.48c0-.12.07-.23.11-.34s.11-.32.17-.47,0-.14.08-.2c1.8-4.11,12.05-13.22,20.84-22.34l.66-.7c.58-.61,1.16-1.22,1.72-1.83.21-.22.44-.45.65-.68.49-.53,1-1.06,1.43-1.59.84-.94,1.62-1.87,2.38-2.79l.44-.54.84-1.07c.18-.22.34-.44.5-.65s.5-.66.73-1,.36-.52.53-.77.37-.51.53-.76c.31-.48.59-.94.85-1.4s.48-.86.69-1.28Z"/>
      </g>
    </g>
  </g>
</svg>
