<svg xmlns="http://www.w3.org/2000/svg" xmlns:xlink="http://www.w3.org/1999/xlink" width="422" height="593" viewBox="0 0 422 593">
  <defs>
    <style>
      .a6baf750-da9d-4fe4-803c-851b7448fffa {
        fill: none;
      }

      .f2e51668-e55a-4855-9be5-b2eb5071ee6f {
        clip-path: url(#a87767cd-2d51-4a1f-937e-fe18a52e267b);
      }

      .bf68baff-2fde-4504-9831-f7b60c04d7b0 {
        fill: #152a35;
        stroke: #06202d;
      }

      .a406f138-f738-427d-8656-e9114d6112fe, .aa465ec4-16b8-4e24-bd2f-06a380a13174, .ae1b528a-d10f-456a-9773-2392a56f2694, .b114db6c-9ce6-4efc-99ea-7b41559d8751, .b1873f97-9b6e-4365-a498-272f4f922a57, .bf68baff-2fde-4504-9831-f7b60c04d7b0, .e15031c3-f439-4642-b2d1-e17240b7a8e2, .e15cf452-1804-43e5-952c-fde5b0668b38, .f1cc6b8c-73c9-4f0d-80fb-12d1004b6204 {
        stroke-miterlimit: 10;
      }

      .a406f138-f738-427d-8656-e9114d6112fe, .aa465ec4-16b8-4e24-bd2f-06a380a13174, .b114db6c-9ce6-4efc-99ea-7b41559d8751, .bf68baff-2fde-4504-9831-f7b60c04d7b0, .e15031c3-f439-4642-b2d1-e17240b7a8e2, .e15cf452-1804-43e5-952c-fde5b0668b38, .f1cc6b8c-73c9-4f0d-80fb-12d1004b6204 {
        stroke-width: 2px;
      }

      .e15cf452-1804-43e5-952c-fde5b0668b38 {
        fill: #f4a4cc;
        stroke: #c142b8;
      }

      .ba05fd2e-d194-49e7-98a4-9d0c81f0b5d9 {
        fill: #38505b;
      }

      .bc94d62f-14a7-44a5-80f6-8f4c5b23eabb {
        opacity: 0.25;
      }

      .aa465ec4-16b8-4e24-bd2f-06a380a13174 {
        fill: #957453;
      }

      .aa465ec4-16b8-4e24-bd2f-06a380a13174, .b114db6c-9ce6-4efc-99ea-7b41559d8751 {
        stroke: #603917;
      }

      .b114db6c-9ce6-4efc-99ea-7b41559d8751 {
        fill: #c49a6c;
      }

      .b1873f97-9b6e-4365-a498-272f4f922a57 {
        fill: #d4eadc;
        stroke: #000;
      }

      .a89a8f5a-61d9-456a-bf71-1bda832056c5 {
        clip-path: url(#e70ebe08-883d-48ad-850b-842238b29ebd);
      }

      .a406f138-f738-427d-8656-e9114d6112fe {
        fill: #142a35;
        stroke: #0a202c;
      }

      .ae1b528a-d10f-456a-9773-2392a56f2694, .f1cc6b8c-73c9-4f0d-80fb-12d1004b6204 {
        fill: #f8cfba;
        stroke: #93614c;
      }

      .e15031c3-f439-4642-b2d1-e17240b7a8e2 {
        fill: #f9e4ea;
        stroke: #ed8aa6;
      }

      .a825a836-7604-4886-ab25-f44eb46ba755 {
        fill: #e0b7a4;
      }

      .b1df43dc-ebef-4da5-a299-bee00a09855a {
        fill: #93614c;
      }

      .e8603344-467b-4541-8056-6db249e3c66d {
        opacity: 0.49;
      }

      .bc5da911-f938-4cb9-956b-d0fa8f229dd8 {
        fill: #9b1010;
      }

      .b93a31bb-4650-402d-8619-745a45ea6d00 {
        fill: #1f2335;
      }

      .b69fb163-1912-4114-9c5b-7f7c13d47cbf {
        fill: #ff9a99;
        opacity: 0.29;
      }

      .e6a70f80-fd4e-4413-8624-a5963994f2e3 {
        fill: #1d2647;
      }

      .bc906038-1bdb-43c8-b45a-df653a384cc3 {
        fill: #fff;
        opacity: 0.85;
      }

      .afa18791-e9c6-469b-a22d-ac59c107ee14 {
        clip-path: url(#b2fe42a7-649b-4196-9000-63a6f31b7abd);
      }

      .bdc40421-6cbb-4351-84bc-e7387e3c2048 {
        clip-path: url(#a9d20fb3-d27a-42ae-a4d3-1957d09011af);
      }
    </style>
    <clipPath id="a87767cd-2d51-4a1f-937e-fe18a52e267b">
      <path class="a6baf750-da9d-4fe4-803c-851b7448fffa" d="M218.7,69.58C218.28,57,204,1.67,184.57,7.36l-.13-.08C117.78-8.46,71.79,49.56,60.73,92.36c-.19.38-.39.76-.58,1.15,0,0-29.28,110.25,40.64,159.84-40.7,23.38-47.63,98.31-35.52,121.32,36,17.62,100.82-64.73,77.89-111.64,17.14-3.76,40.26-11.46,42.46-25.91l51.66,1.16S221.05,70.74,218.7,69.58Z"/>
    </clipPath>
    <clipPath id="e70ebe08-883d-48ad-850b-842238b29ebd">
      <path class="a6baf750-da9d-4fe4-803c-851b7448fffa" d="M232,98c17.48,55.12,15.12,230.68,15.12,230.68l25.09,2.29S286,333.22,299.79,316s33.38-8,41.43-20.64,4.61-17.19,11.51-25.21,18.42-10.32,16.12-19.49-9.21-4.58-10.36-12.61,18.41-16,19.56-28.65-4.6-11.46-3.45-19.49,17.26-9.17,15-22.92-23-16.05-26.47-25.22,6.91-19.49,2.3-29.8-17.26-8-20.71-13.76,6.9-6.87,4.6-14.9S338.92,82.2,332,78.76s4.6-20.63-8.06-30.95-18.41-3.44-26.47-6.88,6.9-16-4.6-22.92-13.82,4.58-24.17,4.58-9.21-16-25.32-17.19-20.72,11.46-28.78,10.31S211.17,2,192.76,2,224.08,73.1,232,98Z"/>
    </clipPath>
    <clipPath id="b2fe42a7-649b-4196-9000-63a6f31b7abd">
      <path class="a6baf750-da9d-4fe4-803c-851b7448fffa" d="M335.24,116.94c1.17-9.74,15.19-6.09,10.52-18.25S323.55,95,318.87,86.52s8.19-20.68,0-26.76-14,6.08-18.7,2.43S299,43.94,290.82,41.51s-14,9.73-21,6.08,1.17-12.16-7-15.81-21,10.95-25.71,8.51-1.17-9.73-8.18-8.51c-3.34.58-6.8,11.72-7.93,9.72-9.15-16.32-21.48-7.14-21.48-7.14s15.21,43.74,16.58,43.25a9.69,9.69,0,0,0,4.53-3.8c1.13,2.49,2.72,4.87,4.79,5.41,4.68,1.22,5.85-4.86,8.19-4.86s1.16,4.86,5.84,4.86,7-6.08,12.86-2.43-2.34,10.95,3.5,14.6,10.52-2.43,14,2.43-2.34,8.52,2.33,14.6,14,4.87,16.37,11-7,6.08-3.51,12.17,12.86,4.86,12.86,9.73-2,4.58-5.85,9.73c-7.51,10,4.49,21,8.18,18.25,0,0,1-20.47,15.16-13.12,9.65,5,5.2,16.32,6.9,19.48,1.5,2.79,1.32,4.59,6,.94s1.17-17,1.17-17,2.34,4.86,9.35,4.86,11.69-8.51,11.69-21.9S334.07,126.67,335.24,116.94Z"/>
    </clipPath>
    <clipPath id="a9d20fb3-d27a-42ae-a4d3-1957d09011af">
      <path class="a6baf750-da9d-4fe4-803c-851b7448fffa" d="M218.7,69.58C218.28,57,204,1.67,184.57,7.36l-.13-.08C117.78-8.46,71.79,49.56,60.73,92.36c-.19.38-.39.76-.58,1.15,0,0-29.28,110.25,40.64,159.84C60.09,276.73,84.24,354,65.27,374.67c10.44,3.1,100.82-64.73,77.89-111.64,17.14-3.76,40.26-11.46,42.46-25.91l51.66,1.16S221.05,70.74,218.7,69.58Z"/>
    </clipPath>
  </defs>
  <g id="b803cdb1-1e65-477e-8062-658adae5df2c" data-name="Layer 23">
    <g>
      <g class="f2e51668-e55a-4855-9be5-b2eb5071ee6f">
        <g>
          <path class="bf68baff-2fde-4504-9831-f7b60c04d7b0" d="M65.27,374.67c22.31-24.37-27-98.67,51.66-99.83C178,320.12,77,378.16,65.27,374.67Z"/>
          <ellipse class="e15cf452-1804-43e5-952c-fde5b0668b38" cx="121.63" cy="267.88" rx="17.42" ry="24.64" transform="translate(-167.19 323.88) rotate(-76.55)"/>
          <path class="bf68baff-2fde-4504-9831-f7b60c04d7b0" d="M60.15,93.51h0S24.77,226.67,124.56,266.14c0,0,57.53-5.81,61.06-29l51.66,1.16s7,13.93,20.54,15.67c0,0,17.61,2.32,37.57-7,0,0,57.12-18.64,45-128.88C334.46,64.15,287,31.65,234.34,23,163.61,11.26,82.88,46.16,60.15,93.51Z"/>
          <g>
            <g>
              <path class="ba05fd2e-d194-49e7-98a4-9d0c81f0b5d9" d="M116.61,291c-1.72,6-3.77,11.81-6.07,17.56s-4.82,11.43-7.61,17a134,134,0,0,1-9.44,16.06c-3.57,5.07-7.6,10-12.83,13.43A41.67,41.67,0,0,0,87,348.29c1.88-2.43,3.59-5,5.24-7.57s3.18-5.25,4.65-7.94,2.93-5.41,4.31-8.16,2.74-5.51,4.06-8.3,2.61-5.58,3.9-8.38C111.64,302.31,114.16,296.67,116.61,291Z"/>
              <path class="ba05fd2e-d194-49e7-98a4-9d0c81f0b5d9" d="M112.67,289a38.66,38.66,0,0,0-7.82,9A84.47,84.47,0,0,0,99,308.47c-1,1.76-1.68,3.63-2.53,5.44s-1.53,3.7-2.33,5.55l-2.19,5.62c-.7,1.9-1.39,3.79-2.17,5.67.35-2,.8-4,1.23-6s1.08-3.91,1.66-5.86,1.33-3.84,2-5.75,1.55-3.77,2.48-5.59a58.63,58.63,0,0,1,6.41-10.44,39.37,39.37,0,0,1,4.1-4.56A20.2,20.2,0,0,1,112.67,289Z"/>
              <path class="ba05fd2e-d194-49e7-98a4-9d0c81f0b5d9" d="M110,285a26.54,26.54,0,0,0-7.49,4.91,36.63,36.63,0,0,0-5.75,6.74l-1.24,1.85-1.08,1.95-.57,1-.48,1c-.32.68-.65,1.35-1,2-.62,1.37-1.17,2.77-1.79,4.16s-1,2.85-1.66,4.27c.18-1.52.45-3,.72-4.56s.77-3,1.28-4.45a36.69,36.69,0,0,1,4.15-8.34,28.51,28.51,0,0,1,6.42-6.82A18.32,18.32,0,0,1,110,285Z"/>
              <path class="ba05fd2e-d194-49e7-98a4-9d0c81f0b5d9" d="M119.94,291.63a25.93,25.93,0,0,1,1,6.27,42.5,42.5,0,0,1-.23,6.38,55.21,55.21,0,0,1-3,12.42,66.51,66.51,0,0,1-5.52,11.47c-1.07,1.83-2.34,3.53-3.51,5.28s-2.64,3.31-4,4.91c1-1.86,2.12-3.64,3.18-5.44l1.5-2.76c.49-.92,1-1.8,1.48-2.75.88-1.89,1.91-3.7,2.67-5.64.4-.95.87-1.88,1.24-2.85l1.09-2.9a75.39,75.39,0,0,0,3.29-12A49.63,49.63,0,0,0,119.94,291.63Z"/>
            </g>
            <path class="ba05fd2e-d194-49e7-98a4-9d0c81f0b5d9" d="M123.44,260.55a96,96,0,0,1-6.8-12.69c-1-2.19-1.88-4.43-2.75-6.67s-1.58-4.55-2.28-6.86a70.82,70.82,0,0,1-2.71-14.23,34,34,0,0,1,1.58-14.32,45.08,45.08,0,0,0,0,14.15,95.62,95.62,0,0,0,3.08,13.84c1.31,4.55,2.88,9,4.55,13.5S121.56,256.14,123.44,260.55Z"/>
            <path class="ba05fd2e-d194-49e7-98a4-9d0c81f0b5d9" d="M127.21,262.12a38.21,38.21,0,0,0,5.7-10.47,83.93,83.93,0,0,0,3.49-11.41c.54-1.92.86-3.9,1.3-5.85s.7-3.94,1.08-5.9l.92-6c.27-2,.54-4,.9-6,.08,2,.08,4,.08,6.07s-.21,4-.35,6.07-.48,4-.77,6-.69,4-1.22,6a58.81,58.81,0,0,1-4,11.56,40.63,40.63,0,0,1-3,5.33A19.86,19.86,0,0,1,127.21,262.12Z"/>
            <path class="ba05fd2e-d194-49e7-98a4-9d0c81f0b5d9" d="M134,261.79a26.77,26.77,0,0,0,8.05-4,37.15,37.15,0,0,0,6.54-6l1.45-1.69,1.32-1.8.68-.89.61-.95c.39-.63.81-1.26,1.23-1.88.78-1.29,1.51-2.61,2.29-3.91s1.39-2.7,2.18-4c-.37,1.49-.83,3-1.28,4.44s-1.14,2.88-1.83,4.27a36.41,36.41,0,0,1-5.15,7.77,28.86,28.86,0,0,1-7.21,6A18.55,18.55,0,0,1,134,261.79Z"/>
            <path class="ba05fd2e-d194-49e7-98a4-9d0c81f0b5d9" d="M120.92,262.79a26.34,26.34,0,0,1-5.61-3,41,41,0,0,1-5-4,55.78,55.78,0,0,1-8.23-9.78,66.25,66.25,0,0,1-6-11.3c-.84-1.94-1.45-4-2.16-6s-1.09-4.1-1.55-6.16c.88,1.93,1.65,3.89,2.47,5.82l1.32,2.85c.45.94.83,1.92,1.34,2.83,1,1.84,1.84,3.75,2.94,5.51.54.9,1,1.83,1.56,2.7l1.69,2.62a76.27,76.27,0,0,0,7.67,9.78A50.68,50.68,0,0,0,120.92,262.79Z"/>
            <path class="ba05fd2e-d194-49e7-98a4-9d0c81f0b5d9" d="M281.18,243.15q1.69-3.87,3.3-7.69c1-2.57,2.09-5.12,2.93-7.74.24-.64.44-1.29.63-1.95s.42-1.31.57-2l.53-2c.12-.66.26-1.33.41-2a33.58,33.58,0,0,0,.56-8.23,19.72,19.72,0,0,1,1,8.44,34.77,34.77,0,0,1-1.8,8.34,48.09,48.09,0,0,1-3.42,7.77A41.35,41.35,0,0,1,281.18,243.15Z"/>
            <path class="ba05fd2e-d194-49e7-98a4-9d0c81f0b5d9" d="M279.73,250.4a14.21,14.21,0,0,1-6.4-1.94,22,22,0,0,1-5.3-4.2,25.92,25.92,0,0,1-3.85-5.52c-.53-1-.91-2-1.35-3.06s-.66-2.13-.9-3.21c.66.92,1.2,1.86,1.78,2.78s1.18,1.81,1.81,2.68,1.21,1.76,1.92,2.56,1.34,1.63,2.05,2.42a36.27,36.27,0,0,0,4.68,4.24A27.56,27.56,0,0,0,279.73,250.4Z"/>
            <path class="ba05fd2e-d194-49e7-98a4-9d0c81f0b5d9" d="M273.1,252.27a16.59,16.59,0,0,1-6.26-.51,18.33,18.33,0,0,1-5.8-2.68,14.57,14.57,0,0,1-4.35-4.76,13.36,13.36,0,0,1-1.8-6,27.45,27.45,0,0,0,3.1,5.17,18.7,18.7,0,0,0,4.2,4,28.59,28.59,0,0,0,5.15,2.85A48.75,48.75,0,0,0,273.1,252.27Z"/>
            <path class="ba05fd2e-d194-49e7-98a4-9d0c81f0b5d9" d="M283.19,245.34a35.55,35.55,0,0,0,8-5.43,51.42,51.42,0,0,0,6.58-7l1.46-1.91c.48-.65.89-1.34,1.36-2,1-1.3,1.7-2.74,2.58-4.1.45-.68.78-1.42,1.19-2.13l1.18-2.14c.74-1.45,1.44-2.93,2.25-4.38-.39,1.6-.85,3.19-1.35,4.77s-1.16,3.11-1.89,4.6a45.52,45.52,0,0,1-5.21,8.53,37.2,37.2,0,0,1-7.18,7A23.23,23.23,0,0,1,283.19,245.34Z"/>
          </g>
        </g>
      </g>
      <path class="bc94d62f-14a7-44a5-80f6-8f4c5b23eabb" d="M57.46,557l28.06,13.61,46.43.48,40.82-7s34.44,24.69,81.09,26.06l2.58.06c48,.51-5.1-40.82-5.1-40.82l51.53-4.08s38.26,23.13,79.59,25.34-23-35.55-23-35.55l59.7-4.82L326.72,511,34.83,541.2Z"/>
      <g>
        <path class="aa465ec4-16b8-4e24-bd2f-06a380a13174" d="M126.23,576.1l32-102.19H145.81L108.67,582.45l15-3.72A3.74,3.74,0,0,0,126.23,576.1Z"/>
        <path class="aa465ec4-16b8-4e24-bd2f-06a380a13174" d="M81.65,537.92,74.5,553.07a2.79,2.79,0,0,1-2.17,1.69L60.26,556l10.13-25Z"/>
        <path class="b114db6c-9ce6-4efc-99ea-7b41559d8751" d="M69.71,451.48,37.62,539.37a3.4,3.4,0,0,0,1.19,4L60.26,556l9.05-22.37a2.27,2.27,0,0,1,3.27-1.39L92,543.66a3.36,3.36,0,0,1,1.24,3.86L87,567.22a3.37,3.37,0,0,0,1.29,3.89l20.38,11.34,36-106.66c.58-1.72-.22-3.68-1.68-4.14L72.56,449.77A2.37,2.37,0,0,0,69.71,451.48Z"/>
        <path class="aa465ec4-16b8-4e24-bd2f-06a380a13174" d="M392.42,533.88,362.1,440.23a1.51,1.51,0,0,1,1.65-2l16.93,2.12a1.52,1.52,0,0,1,1.25,1l31.57,89.1a1.51,1.51,0,0,1-1.34,2Z"/>
        <path class="b114db6c-9ce6-4efc-99ea-7b41559d8751" d="M367.84,458.32l25.09,75.42-40.23-6.82a1.51,1.51,0,0,1-1.13-.85l-9.21-19.4a1.51,1.51,0,0,0-1.2-.86l-19.49-2.4a1.51,1.51,0,0,0-1.66,1.91l5,17.29-25.94-5.37a1.52,1.52,0,0,1-1.17-1.12l-12.7-51.66a1.51,1.51,0,0,1,1.38-1.85l79.68-5.32A1.53,1.53,0,0,1,367.84,458.32Z"/>
        <path class="aa465ec4-16b8-4e24-bd2f-06a380a13174" d="M63.31,437.73s-11.32,8.35,0,16.68l65.29,27.21a14.16,14.16,0,0,0,7,1l257.32-28.2s11.93-7,1-16.7L134,468.34Z"/>
        <path class="b114db6c-9ce6-4efc-99ea-7b41559d8751" d="M392.38,440.15,136.51,469.29a15.07,15.07,0,0,1-7.48-1.06L64.78,441.31a2.39,2.39,0,0,1,.69-4.59l228.57-25a21.85,21.85,0,0,1,8.09.63l90.52,24.39A1.73,1.73,0,0,1,392.38,440.15Z"/>
        <path class="b1873f97-9b6e-4365-a498-272f4f922a57" d="M318.63,501.6l6.4,18.89h13.44a1.51,1.51,0,0,0,1.45-2l-6.06-17.87a1.52,1.52,0,0,0-1.45-1H320.08A1.51,1.51,0,0,0,318.63,501.6Z"/>
      </g>
      <g>
        <g class="a89a8f5a-61d9-456a-bf71-1bda832056c5">
          <path class="a406f138-f738-427d-8656-e9114d6112fe" d="M123.7,26c-17.26,11.46-4.78,25.77-17.26,29.8C102.63,57.06,65.07,50.8,57,73c-3.17,8.68,1.15,11.46-3.45,14.9s-15,4.58-17.27,16,11.51,11.47,8.06,22.93-20.72,16-21.87,28.65,9.21,14.91,9.21,26.37-15,16.05-15,28.65,16.11,8,18.41,17.2S28.18,245,37.39,253s16.11,2.3,20.71,8-6.9,20.63,3.45,25.21,15-3.43,20.72,4.59-5.75,22.92,9.21,27.51S111,309.15,120.25,316s2.3,10.31,16.11,17.19,57.55-4.58,57.55-4.58l78.26,2.29S286,333.22,299.79,316s33.38-8,41.43-20.64,4.61-17.19,11.51-25.21,18.42-10.32,16.12-19.49-9.21-4.58-10.36-12.61,18.41-16,19.56-28.65-4.6-11.46-3.45-19.49,17.26-9.17,15-22.92-23-16.05-26.47-25.22,6.91-19.49,2.3-29.8-17.26-8-20.71-13.76,6.9-6.87,4.6-14.9S338.92,82.2,332,78.76s4.6-20.63-8.06-30.95-18.41-3.44-26.47-6.88,6.9-16-4.6-22.92-13.82,4.58-24.17,4.58-9.21-16-25.32-17.19-20.72,11.46-28.78,10.31S211.17,2,192.76,2,176.64,18,167.44,23.74,141,14.57,123.7,26Z"/>
        </g>
        <g>
          <path class="f1cc6b8c-73c9-4f0d-80fb-12d1004b6204" d="M389.81,549.3c-3.18-3.66-13.57-14.89-26-20.65a8.16,8.16,0,0,1-4.7-7.29c-.36-19.9-3.46-87.8-4.78-91.05-.6-1.5-.43-11.25-5.81-15.69-4.61-3.43-39.71-31.92-85.17-48.14L264.46,339l-1.15,27.51L290.93,378l-2.3-43.56s0-47-29.05-58.75c0,0-19.29-6.08-21-16.08a2.47,2.47,0,0,0-.17-.57l-5.58-18.91H183.32L181,255c-.92,5.44-6.59,20.16-19.72,22-13.72,2-31.05,10-32.26,50.89-.39,5.33-3.16,31-3.26,31.38-1.69,5.76-12.12,43.06-15,68.77-.15,1.43-7.9,6.26-9.2,6.88-3.7,1.75-12.48,4-18.42,5.73-8,2.29,1.73,4.58,1.73,4.58a135.17,135.17,0,0,0,29.56,2.29,18.76,18.76,0,0,1-7,2.46,2.15,2.15,0,0,0-1.92,1.81c-.13,1.29,1,2.71,7.47,1.7,0,0,14.22-.87,17.89-8.84h0a4.31,4.31,0,0,0,.62-1.16c3.21-9.34,31.25-98.75,31.25-98.75s3,8.88,2.27,15.88S124.3,434,187.48,446.69c0,0,9,5.33,9.65,10,1,7.15,2.05,70.85-1.82,101.61a14,14,0,0,0,8.1,14.5c14,6.36,41,15.68,65.08,7.68,0,0,5.07-.84,5.07-5.42a6.44,6.44,0,0,0-1.42-3.88c-3-4-13-16.15-25.42-22.88a8.34,8.34,0,0,1-4.45-7.68c.89-20.3,3.14-90.34,2.62-93.93-2.3-16.05-5.75-28.66,6.91-22.93s31.41,10.77,48.34,14.91a28.08,28.08,0,0,0,5.35,1c1.8,0,4.31.55,4.9,3.36,1.42,6.87,6.23,68.42,4.33,98.4a13.56,13.56,0,0,0,8.7,13.54c14,5.31,40.57,12.73,63.41,3.55,0,0,4.86-1.11,4.58-5.53A6.3,6.3,0,0,0,389.81,549.3Zm-125.35-231c.22,6.55.17,14,0,21.78"/>
          <path class="e15031c3-f439-4642-b2d1-e17240b7a8e2" d="M166.73,274.89c7.72,32.15,72.31,44.2,84.54-2.72,5.16,3,13,4.43,15,7.17-.07-.12-3.66,65.86-5.47,84.33-.19,1.9,4,4.08,5.76,4.8,13.94,5.68,71,29.69,80.41,45.62,0,0-42.95-1.73-49.45,22.75,0,0-33-3-51.91-13.51,0,0-1.43,14.16-2,22.87a.52.52,0,0,1-1,.11c-2.58-8.49-13.14-33.34-50.47,1.45,0,0-.42.59-4.44-.32s-32.18-3.24-35.1-31.34c-2.08-20,5.23-39.25,9.62-48.69a24.34,24.34,0,0,0,2.06-13.66c-2.68-19.46-10.19-69.53-16.78-71.58C153.94,277.27,163.13,277.32,166.73,274.89Z"/>
        </g>
        <g>
          <path class="ae1b528a-d10f-456a-9773-2392a56f2694" d="M115.42,162.13c-33.38-13.75-23,47,12,38.18C115.42,175.89,115.42,162.13,115.42,162.13Z"/>
          <g>
            <path class="a825a836-7604-4886-ab25-f44eb46ba755" d="M118,176.09c-7.14-10.52-22.1.95,1.61,7.08,0,0-8.75,5.33.46,12.21"/>
            <path class="b1df43dc-ebef-4da5-a299-bee00a09855a" d="M118,176.09a11.71,11.71,0,0,0-2.72-2.59,8.55,8.55,0,0,0-3.42-1.32,5.33,5.33,0,0,0-3.44.66,2.34,2.34,0,0,0-1.11,2.78,5.83,5.83,0,0,0,2.16,2.72,19.42,19.42,0,0,0,3.18,1.88,42.13,42.13,0,0,0,7.07,2.52l1,.26-.84.54a10.17,10.17,0,0,0-2.61,2.46,5.2,5.2,0,0,0-1.05,3.32,6.93,6.93,0,0,0,1.29,3.35c.38.49.8,1,1.21,1.42l1.39,1.29-1.52-1.15c-.45-.43-.92-.88-1.34-1.35a6.74,6.74,0,0,1-1.62-3.51,5.88,5.88,0,0,1,1-3.8,9.69,9.69,0,0,1,2.78-2.78l.12.8a42.48,42.48,0,0,1-7.28-2.47,19.69,19.69,0,0,1-3.33-2,6.77,6.77,0,0,1-2.43-3.21,3.13,3.13,0,0,1,.11-2.15,3.49,3.49,0,0,1,1.45-1.54,6,6,0,0,1,3.92-.57A9.24,9.24,0,0,1,118,176.09Z"/>
          </g>
          <path class="ae1b528a-d10f-456a-9773-2392a56f2694" d="M301.86,162.13c29.93-11.46,19.57,42.41-10.35,37.83C303.52,175.54,301.86,162.13,301.86,162.13Z"/>
          <g>
            <path class="a825a836-7604-4886-ab25-f44eb46ba755" d="M299.56,175.89c7.14-10.51,22.56.75-1.15,6.88,0,0,6.66,5.73-2.55,12.61"/>
            <path class="b1df43dc-ebef-4da5-a299-bee00a09855a" d="M299.56,175.89a9.3,9.3,0,0,1,6.06-4.5,6.39,6.39,0,0,1,3.94.42,3.55,3.55,0,0,1,1.58,1.4,3,3,0,0,1,.34,2.14,6.18,6.18,0,0,1-2.34,3.3,17.63,17.63,0,0,1-3.32,2.06,41.88,41.88,0,0,1-7.3,2.48l.18-.76a7.73,7.73,0,0,1,2.09,3.35,6.49,6.49,0,0,1,0,3.9,8.63,8.63,0,0,1-2,3.27,16.4,16.4,0,0,1-2.9,2.43,19.44,19.44,0,0,0,2.64-2.65,9.15,9.15,0,0,0,1.69-3.22,5.77,5.77,0,0,0-.13-3.49,7.56,7.56,0,0,0-1.94-2.92l-.59-.55.77-.21a40.28,40.28,0,0,0,7.08-2.53,16.58,16.58,0,0,0,3.18-1.89,5.38,5.38,0,0,0,2.06-2.75,2.43,2.43,0,0,0-1.41-2.68,5.71,5.71,0,0,0-3.5-.52,8.5,8.5,0,0,0-3.42,1.32A11.41,11.41,0,0,0,299.56,175.89Z"/>
          </g>
          <path class="ae1b528a-d10f-456a-9773-2392a56f2694" d="M303,157.55c0,51.91-48.36,90.37-81.71,91.7-57.54,2.29-107-39.79-107-91.7s42.25-94,94.37-94S303,105.64,303,157.55Z"/>
          <g class="e8603344-467b-4541-8056-6db249e3c66d">
            <path class="bc5da911-f938-4cb9-956b-d0fa8f229dd8" d="M200.75,202.76a7,7,0,0,1,.22,3.39,8.3,8.3,0,0,1-1.24,3.22,7.36,7.36,0,0,1-2.47,2.46,6.39,6.39,0,0,1-3.26,1c.82-.82,1.62-1.45,2.27-2.22a14.52,14.52,0,0,0,1.78-2.31A35.72,35.72,0,0,0,200.75,202.76Z"/>
            <path class="bc5da911-f938-4cb9-956b-d0fa8f229dd8" d="M251,201.68a33.9,33.9,0,0,0,1.33,5.91,13.45,13.45,0,0,0,1.19,2.59c.46.88,1.1,1.64,1.73,2.6a6.17,6.17,0,0,1-3-1.61,7.39,7.39,0,0,1-1.85-2.91,8.56,8.56,0,0,1-.45-3.39A6.92,6.92,0,0,1,251,201.68Z"/>
            <path class="bc5da911-f938-4cb9-956b-d0fa8f229dd8" d="M251.2,207.46a17.44,17.44,0,0,1-4.89,5.31,28.24,28.24,0,0,1-6.43,3.45,40.53,40.53,0,0,1-28.62-.1A30.73,30.73,0,0,1,199.39,208a39.16,39.16,0,0,0,12.4,6.67,46.83,46.83,0,0,0,27.57.11C243.78,213.32,248.1,211.15,251.2,207.46Z"/>
          </g>
          <path class="b93a31bb-4650-402d-8619-745a45ea6d00" d="M219,189.64a19.4,19.4,0,0,1,3-6.48,12.84,12.84,0,0,1,2.56-2.71,7,7,0,0,1,3.72-1.48,6.25,6.25,0,0,1,3.87,1.28,11.28,11.28,0,0,1,2.53,2.79,20.85,20.85,0,0,1,2.73,6.6,60.09,60.09,0,0,0-4-5.67c-1.43-1.67-3.2-3.12-5.05-3a5.29,5.29,0,0,0-2.72,1,14.53,14.53,0,0,0-2.46,2.15A48.87,48.87,0,0,0,219,189.64Z"/>
          <ellipse class="b69fb163-1912-4114-9c5b-7f7c13d47cbf" cx="277.6" cy="187.43" rx="13.92" ry="17.67" transform="translate(-56.81 206.52) rotate(-37.29)"/>
          <ellipse class="b69fb163-1912-4114-9c5b-7f7c13d47cbf" cx="172.87" cy="188.58" rx="17.67" ry="13.92" transform="translate(-81.89 211.84) rotate(-52.71)"/>
          <ellipse class="e6a70f80-fd4e-4413-8624-a5963994f2e3" cx="194.73" cy="157.13" rx="10.48" ry="14.9" transform="translate(-29.48 46.06) rotate(-12.55)"/>
          <ellipse class="e6a70f80-fd4e-4413-8624-a5963994f2e3" cx="255.72" cy="157.13" rx="14.9" ry="10.48" transform="translate(41.17 367.01) rotate(-75.94)"/>
          <g class="e8603344-467b-4541-8056-6db249e3c66d">
            <path class="bc5da911-f938-4cb9-956b-d0fa8f229dd8" d="M219,226.32a9.86,9.86,0,0,0,3.66,1.78,11,11,0,0,0,3.84.21,24.67,24.67,0,0,0,3.94-.77c.65-.23,1.33-.4,2-.61a20.47,20.47,0,0,1,2.09-.61,19.46,19.46,0,0,1-1.65,1.49c-.59.42-1.23.81-1.87,1.18a12.11,12.11,0,0,1-4.33,1.31,8.54,8.54,0,0,1-4.58-.74A6,6,0,0,1,219,226.32Z"/>
          </g>
          <ellipse class="bc906038-1bdb-43c8-b45a-df653a384cc3" cx="196.79" cy="149.76" rx="3.98" ry="5.72" transform="translate(-41.6 84.01) rotate(-21.85)"/>
          <ellipse class="bc906038-1bdb-43c8-b45a-df653a384cc3" cx="260.19" cy="149.76" rx="3.98" ry="5.72" transform="translate(-37.05 107.61) rotate(-21.85)"/>
          <g>
            <path class="b93a31bb-4650-402d-8619-745a45ea6d00" d="M192.39,129.24a14.52,14.52,0,0,0-2.66-.05,17.49,17.49,0,0,0-2.76.4,17,17,0,0,0-5.22,2.11,9.52,9.52,0,0,0-1.19.8,9.62,9.62,0,0,0-1.14.88l-1.08,1-1,1.09a22.87,22.87,0,0,0-1.78,2.34c-.53.83-1,1.71-1.48,2.58.39-.92.72-1.86,1.16-2.76a22.71,22.71,0,0,1,1.5-2.62l.87-1.25,1-1.15a10.21,10.21,0,0,1,1.08-1.1,11.31,11.31,0,0,1,1.17-1,19,19,0,0,1,5.44-3,21,21,0,0,1,3.06-.85,17.58,17.58,0,0,1,3.27-.33Z"/>
            <path class="b93a31bb-4650-402d-8619-745a45ea6d00" d="M254.54,126.25a17.77,17.77,0,0,1,3.28.33,21.19,21.19,0,0,1,3.05.85,19.16,19.16,0,0,1,5.45,3,12.34,12.34,0,0,1,1.16,1,9.44,9.44,0,0,1,1.09,1.1l1,1.15.86,1.25a22.78,22.78,0,0,1,1.51,2.62c.43.9.77,1.84,1.15,2.76-.5-.87-.94-1.75-1.48-2.58a21.43,21.43,0,0,0-1.77-2.34l-1-1.09-1.08-1a8.77,8.77,0,0,0-1.13-.88,10.31,10.31,0,0,0-1.19-.8,17.65,17.65,0,0,0-8-2.51,14.52,14.52,0,0,0-2.66.05Z"/>
          </g>
        </g>
        <g class="afa18791-e9c6-469b-a22d-ac59c107ee14">
          <g>
            <path class="a406f138-f738-427d-8656-e9114d6112fe" d="M335.24,116.94c1.17-9.74,15.19-6.09,10.52-18.25S323.55,95,318.87,86.52s8.19-20.68,0-26.76-14,6.08-18.7,2.43S299,43.94,290.82,41.51s-14,9.73-21,6.08,1.17-12.16-7-15.81-21,10.95-25.71,8.51-1.17-9.73-8.18-8.51c-3.34.58-8.14,12-7.93,9.72.33-3.46-13.27-17.28-24.16-4.58-6.23,7.26-5.33-13.18-15.38-13.18S176.94,37.49,168,38.64s-23.47-13.76-31.29-9.17,0,21.78-12.3,26.36S90.89,45.52,84.18,52.39,86.42,74.17,82,78.76s-21.23-2.3-24.59,9.17,7.83,17.19,5.59,25.21-14.53,9.17-13.41,20.64,22.35,10.31,24.59,16-12.3,8-5.59,18.34,22.35,2.3,22.35,2.3-1.12-14.91,13.41-16.05,14.53,13.75,14.53,13.75S130,159,128.88,151s-6.7-17.19,0-22.92,13.41,2.29,17.88-2.3-6.7-18.34,3.36-24.07,16.76,3.44,21.23,0,2.23-19.48,11.17-20.63,7.83,2.29,12.3,0,1.11-5.73,6.7-6.88,7.82,5.73,14.53,3.44a9.57,9.57,0,0,0,4.53-3.8c1.13,2.49,2.72,4.87,4.79,5.41,4.68,1.22,5.85-4.86,8.19-4.86s1.16,4.86,5.84,4.86,7-6.08,12.86-2.43-2.34,10.95,3.5,14.6,10.52-2.43,14,2.43-2.34,8.52,2.33,14.6,14,4.87,16.37,11-7,6.08-3.51,12.17,12.86,4.86,12.86,9.73-2,4.58-5.85,9.73c-7.51,10,4.49,21,8.18,18.25,0,0,1-20.47,15.16-13.12,9.65,5,5.2,16.32,6.9,19.48,1.5,2.79,1.32,4.59,6,.94s1.17-17,1.17-17,2.34,4.86,9.35,4.86,11.69-8.51,11.69-21.9S334.07,126.67,335.24,116.94Z"/>
            <path class="ba05fd2e-d194-49e7-98a4-9d0c81f0b5d9" d="M116.57,236.49a15.41,15.41,0,0,0,9.94,8.33,11.36,11.36,0,0,1,3.38,1.46,6.05,6.05,0,0,1,2.25,3.27c.67,2.51.31,4.85.72,6.91a6.51,6.51,0,0,0,6.28,5.35,8.68,8.68,0,0,0,3-.65c2-.79,4-2.13,6.27-2.86a9.42,9.42,0,0,1,3.54-.43,5,5,0,0,1,3.16,1.42,4.93,4.93,0,0,0-3.18-.86,9.07,9.07,0,0,0-3.19.79c-2,.86-3.79,2.35-6,3.37a9.21,9.21,0,0,1-3.6,1,8,8,0,0,1-3.77-.79,8.5,8.5,0,0,1-3-2.41,9,9,0,0,1-1-1.69,9.52,9.52,0,0,1-.54-1.86c-.4-2.47-.07-4.8-.57-6.76a4.18,4.18,0,0,0-1.47-2.36,11.3,11.3,0,0,0-2.85-1.4,16,16,0,0,1-3.22-1.53,14.66,14.66,0,0,1-2.77-2.25A13.92,13.92,0,0,1,116.57,236.49Z"/>
            <path class="ba05fd2e-d194-49e7-98a4-9d0c81f0b5d9" d="M160.46,32.26A52.51,52.51,0,0,1,173,25.83a22.18,22.18,0,0,1,14.33-.06,16.15,16.15,0,0,1,3.3,1.71,19,19,0,0,1,2.8,2.36c1.66,1.67,3.21,3.25,5.22,3.93a4.87,4.87,0,0,0,3,.12c.94-.26,1.89-1.17,3.25-1.4a4.62,4.62,0,0,1,3.56,1,12.91,12.91,0,0,1,2.44,2.57A15.36,15.36,0,0,0,208.14,34a3.92,3.92,0,0,0-3-.55c-1,.23-1.75,1.12-3,1.66a6,6,0,0,1-3.89.16,9.55,9.55,0,0,1-3.38-1.71,35.19,35.19,0,0,1-2.71-2.35,18.63,18.63,0,0,0-2.58-2.11,15,15,0,0,0-2.91-1.46,18.59,18.59,0,0,0-6.51-1.14,25.82,25.82,0,0,0-6.69.83C169,28.43,164.76,30.43,160.46,32.26Z"/>
            <path class="ba05fd2e-d194-49e7-98a4-9d0c81f0b5d9" d="M82.35,208.24a21.44,21.44,0,0,0,5,12.42,20.52,20.52,0,0,0,5,4.36,63.71,63.71,0,0,0,6,3.13,42.89,42.89,0,0,1,6.14,3.36,15.06,15.06,0,0,1,4.93,5.28,19.68,19.68,0,0,1,2,6.88c.32,2.33.42,4.64.62,6.9a24.93,24.93,0,0,0,1.17,6.48,9.65,9.65,0,0,0,3.73,4.87,27.47,27.47,0,0,0,6.12,2.54,22.74,22.74,0,0,1,3.29,1.38,11.4,11.4,0,0,1,2.93,2.25,19,19,0,0,1,3.45,6.21,35.35,35.35,0,0,0,2.68,6.22,8,8,0,0,0,4.95,4.05,6.44,6.44,0,0,0,3.29-.08,5,5,0,0,0,1.5-.74,4.41,4.41,0,0,0,1.11-1.28,4.64,4.64,0,0,1-1,1.4,5.33,5.33,0,0,1-1.5.91,7.11,7.11,0,0,1-6.75-1.12,11.53,11.53,0,0,1-2.42-2.61,36.91,36.91,0,0,1-3.07-6.25,18.25,18.25,0,0,0-3.36-5.64,13.39,13.39,0,0,0-5.65-3,29.07,29.07,0,0,1-6.58-2.61,11.43,11.43,0,0,1-4.54-5.79,26.9,26.9,0,0,1-1.34-7c-.18-2.31-.27-4.59-.55-6.8a18.57,18.57,0,0,0-1.78-6.25,13.28,13.28,0,0,0-4.27-4.75,47.51,47.51,0,0,0-5.83-3.39,56,56,0,0,1-6-3.43,20.73,20.73,0,0,1-5.08-4.85A21.06,21.06,0,0,1,82.35,208.24Z"/>
            <path class="ba05fd2e-d194-49e7-98a4-9d0c81f0b5d9" d="M66.33,248.69a15.74,15.74,0,0,0,2,4.34,15.94,15.94,0,0,0,11.46,7.1,8.48,8.48,0,0,1-5.09.22A11.13,11.13,0,0,1,70,258a11.32,11.32,0,0,1-3.1-4.21A8.36,8.36,0,0,1,66.33,248.69Z"/>
            <path class="ba05fd2e-d194-49e7-98a4-9d0c81f0b5d9" d="M286.11,307.51a14.52,14.52,0,0,0,10.23-3.8c2.67-2.48,4.38-6.13,7.81-8.63a13.94,13.94,0,0,1,5.74-2.18c2-.31,3.89-.44,5.74-.71a12.75,12.75,0,0,0,5.13-1.83,6.23,6.23,0,0,0,3.08-4.42,5.18,5.18,0,0,1-.58,2.87,8,8,0,0,1-1.91,2.34,13,13,0,0,1-5.43,2.58c-3.84.87-7.78.89-10.62,3s-4.76,5.6-7.94,8.17A13.24,13.24,0,0,1,286.11,307.51Z"/>
          </g>
        </g>
        <g>
          <path class="ba05fd2e-d194-49e7-98a4-9d0c81f0b5d9" d="M261.88,265a21.19,21.19,0,0,1,6.05-7c2.45-1.93,5-3.62,7.39-5.52a15.35,15.35,0,0,0,5.27-6.79,16.06,16.06,0,0,0,.44-2.06,19.62,19.62,0,0,0,.09-2.2,18.62,18.62,0,0,1,.4-4.85,8.73,8.73,0,0,1,2.82-4.28,14.61,14.61,0,0,1,4.25-2.48c3-1.14,6.09-1.58,8.87-2.61a14.1,14.1,0,0,0,9-14.09,13.91,13.91,0,0,1-1.41,9.14,14.54,14.54,0,0,1-2.93,3.79,14.18,14.18,0,0,1-4.07,2.6c-2.94,1.29-6.05,1.78-8.75,2.93s-5.18,2.92-5.85,5.53a17,17,0,0,0-.38,4.33,19.94,19.94,0,0,1-.12,2.41,14.65,14.65,0,0,1-.57,2.44,13.18,13.18,0,0,1-2.55,4.23,19.6,19.6,0,0,1-1.7,1.71c-.61.51-1.23,1-1.86,1.48-2.54,1.86-5.23,3.37-7.76,5.08A22.6,22.6,0,0,0,261.88,265Z"/>
          <path class="ba05fd2e-d194-49e7-98a4-9d0c81f0b5d9" d="M322.31,203.94a5.29,5.29,0,0,1,2.55,2.9,8.86,8.86,0,0,1,.41,4,13.39,13.39,0,0,1-1,3.86,18.66,18.66,0,0,1-2,3.41A45.93,45.93,0,0,0,318,224.3a10.18,10.18,0,0,0-1,3.33,18,18,0,0,0,.11,3.64,15.58,15.58,0,0,1-.07,4.08,8.77,8.77,0,0,1-1.79,3.87,16,16,0,0,1-6.63,4.54c-2.46,1-4.93,1.57-7.29,2.49a14.65,14.65,0,0,0-6.29,4.07,13.45,13.45,0,0,1,5.9-5c2.33-1.15,4.81-2,7.05-3a15.31,15.31,0,0,0,5.76-4.27,7,7,0,0,0,1.36-3.05,13.8,13.8,0,0,0,0-3.58,19.83,19.83,0,0,1-.06-4,11.38,11.38,0,0,1,1.28-4,39.9,39.9,0,0,1,4.63-6.32,18.84,18.84,0,0,0,2.11-3,12.64,12.64,0,0,0,1.24-3.44,8.33,8.33,0,0,0,0-3.65A5.34,5.34,0,0,0,322.31,203.94Z"/>
          <path class="ba05fd2e-d194-49e7-98a4-9d0c81f0b5d9" d="M283.67,283.52a21.6,21.6,0,0,1,7.28-3.41,68.82,68.82,0,0,0,7.52-2.4,13.66,13.66,0,0,0,3.16-2,9,9,0,0,0,2.12-2.89c1-2.23,1.2-5,2.39-7.64a13.17,13.17,0,0,1,6.12-5.87,44.27,44.27,0,0,1,7.66-2.76,29.54,29.54,0,0,0,7.23-2.95,10.47,10.47,0,0,0,5-5.83,8.56,8.56,0,0,1-1.5,3.75,13.12,13.12,0,0,1-2.91,2.9,27.79,27.79,0,0,1-7.3,3.62,49.2,49.2,0,0,0-7.26,2.95,11.25,11.25,0,0,0-5.18,5c-1.07,2.19-1.27,4.94-2.5,7.58a10.73,10.73,0,0,1-2.69,3.43,13.61,13.61,0,0,1-3.71,2.07C293.84,281.06,288.4,280.88,283.67,283.52Z"/>
          <path class="ba05fd2e-d194-49e7-98a4-9d0c81f0b5d9" d="M337.21,220.12c2.24-1.25,4.58-2.51,6.07-4.47s2-4.62.61-6.41c-.66-.94-1.68-1.77-2.47-3a7.68,7.68,0,0,1-1.17-4.16,13.33,13.33,0,0,1,3-7.65,43.67,43.67,0,0,1,5.68-5.49,21.51,21.51,0,0,0,4.9-5.53,13.32,13.32,0,0,0,1.44-7.12,49.91,49.91,0,0,0-1.1-7.6,35.38,35.38,0,0,1,2.08,7.51,13.75,13.75,0,0,1-1,7.92,21.46,21.46,0,0,1-5,6.23,43.38,43.38,0,0,0-5.36,5.3,11.7,11.7,0,0,0-2.68,6.47,5.91,5.91,0,0,0,.77,3.2c.57,1,1.53,1.86,2.29,3.08a5.66,5.66,0,0,1,.74,4.23,7.74,7.74,0,0,1-1.91,3.66A16.62,16.62,0,0,1,337.21,220.12Z"/>
          <path class="ba05fd2e-d194-49e7-98a4-9d0c81f0b5d9" d="M360.55,216.39A15.92,15.92,0,0,1,356,230.18a68.74,68.74,0,0,1-5.79,4.59c-1.85,1.44-3.36,3.17-3.66,5.27s.42,4.41.88,6.88a15.21,15.21,0,0,1,.2,3.88,13.35,13.35,0,0,1-.91,3.76,14.94,14.94,0,0,1-4.42,6.13,13.08,13.08,0,0,1-6.76,2.95,14.77,14.77,0,0,0,9.71-9.6,13.92,13.92,0,0,0,.63-3.37,13,13,0,0,0-.31-3.39c-.24-1.15-.56-2.33-.8-3.58a11.62,11.62,0,0,1-.19-4,8.39,8.39,0,0,1,1.66-3.75,13.76,13.76,0,0,1,2.81-2.7c2-1.51,4.14-2.71,5.89-4.23A17,17,0,0,0,360.55,216.39Z"/>
          <path class="ba05fd2e-d194-49e7-98a4-9d0c81f0b5d9" d="M248.93,74.43a16.88,16.88,0,0,1,11.5-.19,17.66,17.66,0,0,1,5.21,2.85,18.79,18.79,0,0,1,3.93,4.48A25.16,25.16,0,0,0,273,86a6.45,6.45,0,0,0,4.51,2,7.14,7.14,0,0,0,2.44-.69,14.75,14.75,0,0,1,1.43-.54,7.61,7.61,0,0,1,1.64-.28,8.8,8.8,0,0,1,6,2,9.72,9.72,0,0,1,3.45,5.29,7.36,7.36,0,0,1,.06,3.27,9.78,9.78,0,0,1-1.13,2.94c-1,1.76-2.14,3.3-2.56,4.92s-.23,3.52,1,4.34,3.19.46,5.08.17a10.37,10.37,0,0,1,3.06-.1,7.58,7.58,0,0,1,2.88,1.13,9.26,9.26,0,0,1,2.18,2.1,9.9,9.9,0,0,1,1.35,2.65,8.87,8.87,0,0,1,.37,2.93,7.15,7.15,0,0,1-.88,2.77,6.89,6.89,0,0,0,.57-2.78,8.26,8.26,0,0,0-.56-2.74,9.45,9.45,0,0,0-1.44-2.36,8.34,8.34,0,0,0-2.11-1.74,6.68,6.68,0,0,0-2.51-.82,9.25,9.25,0,0,0-2.68.25,22.71,22.71,0,0,1-2.92.51,5.14,5.14,0,0,1-3.24-.66,4.43,4.43,0,0,1-1.94-2.82,7.41,7.41,0,0,1,.06-3.25c.53-2.15,1.76-3.75,2.58-5.39a6.49,6.49,0,0,0,.85-4.87A7.87,7.87,0,0,0,287.77,90a6.94,6.94,0,0,0-4.67-1.6,6.37,6.37,0,0,0-1.21.2c-.4.12-.82.28-1.27.46a8.51,8.51,0,0,1-3.1.8,8.23,8.23,0,0,1-5.77-2.59,24.14,24.14,0,0,1-3.49-4.84,17.64,17.64,0,0,0-3.46-4.32,16.8,16.8,0,0,0-4.72-2.94A17.16,17.16,0,0,0,248.93,74.43Z"/>
          <path class="ba05fd2e-d194-49e7-98a4-9d0c81f0b5d9" d="M313.68,139.71a9.13,9.13,0,0,1,3.79,0,12,12,0,0,1,3.57,1.34,11.88,11.88,0,0,1,3,2.38A9.15,9.15,0,0,1,326,146.7c-1.06-.72-2-1.43-3-2.08s-1.94-1.26-2.94-1.82-2-1.1-3.06-1.59S314.84,140.25,313.68,139.71Z"/>
          <path class="ba05fd2e-d194-49e7-98a4-9d0c81f0b5d9" d="M320.12,123.42a7.4,7.4,0,0,1,2.75,1,10.75,10.75,0,0,1,4,4.06,7.68,7.68,0,0,1,.92,2.77,21.21,21.21,0,0,1-2.17-1.81c-.66-.62-1.29-1.23-1.9-1.86s-1.23-1.27-1.83-1.94A21.38,21.38,0,0,1,320.12,123.42Z"/>
          <path class="ba05fd2e-d194-49e7-98a4-9d0c81f0b5d9" d="M286.07,72.32c4.78,2,10,1.73,14.95,4a14.31,14.31,0,0,1,3.41,2.18,10.64,10.64,0,0,1,2.63,3.23,8.33,8.33,0,0,1,.9,4.19,18.64,18.64,0,0,1-.74,4,14.89,14.89,0,0,0-.68,3.54,5.54,5.54,0,0,0,.73,3.12,3,3,0,0,0,2.5,1.36,15,15,0,0,0,3.55-.56,9.79,9.79,0,0,1,4.1-.29A7.07,7.07,0,0,1,321,99a7.92,7.92,0,0,1,2,3.46,6.16,6.16,0,0,1-.2,3.87,6.76,6.76,0,0,0-2.47-6.6,5.86,5.86,0,0,0-3.15-1.41,8.74,8.74,0,0,0-3.5.5,14.12,14.12,0,0,1-4,.8,4.82,4.82,0,0,1-4-2c-1.74-2.68-1.09-5.84-.41-8.23a17.3,17.3,0,0,0,.72-3.56,6.66,6.66,0,0,0-.65-3.25,11.59,11.59,0,0,0-5-4.87C296,75.38,290.52,75,286.07,72.32Z"/>
          <path class="ba05fd2e-d194-49e7-98a4-9d0c81f0b5d9" d="M239.67,68.14a16.15,16.15,0,0,1,6.54-4.3,20.56,20.56,0,0,1,15.61.64A16.13,16.13,0,0,1,268,69.32a26.49,26.49,0,0,0-6.74-3.39A26,26,0,0,0,254,64.62a26.3,26.3,0,0,0-7.33.7A26.84,26.84,0,0,0,239.67,68.14Z"/>
          <path class="ba05fd2e-d194-49e7-98a4-9d0c81f0b5d9" d="M215.5,38.39a52.4,52.4,0,0,1,6.55-5.69,28.66,28.66,0,0,1,3.79-2.25A19.06,19.06,0,0,1,230.07,29a14.28,14.28,0,0,1,4.57-.15A17.48,17.48,0,0,1,239,30.13a30.1,30.1,0,0,0,3.9,1.44,7.72,7.72,0,0,0,3.79,0c2.53-.64,4.81-2.36,7.18-4a32.33,32.33,0,0,1,3.78-2.32A11.11,11.11,0,0,1,262.05,24a10,10,0,0,1,4.52.76,22,22,0,0,1,3.88,2.14c2.39,1.63,4.66,3.38,7.4,4.34-2.88-.52-5.4-2.18-7.91-3.5s-5.13-2.55-7.75-2.19-5,1.93-7.25,3.6-4.69,3.56-7.79,4.4a9.67,9.67,0,0,1-4.75-.07,27.23,27.23,0,0,1-4.16-1.59,15.62,15.62,0,0,0-3.87-1.3,13.94,13.94,0,0,0-4-.05,22.67,22.67,0,0,0-7.76,3c-1.24.71-2.43,1.49-3.61,2.31S216.65,37.53,215.5,38.39Z"/>
          <path class="ba05fd2e-d194-49e7-98a4-9d0c81f0b5d9" d="M207.28,23a11.66,11.66,0,0,1,2.9-.58,19.32,19.32,0,0,1,5.68.4,11.65,11.65,0,0,1,2.79,1,11.66,11.66,0,0,1-2.9.58,18.21,18.21,0,0,1-2.86,0,18.11,18.11,0,0,1-2.82-.42A11.61,11.61,0,0,1,207.28,23Z"/>
          <path class="ba05fd2e-d194-49e7-98a4-9d0c81f0b5d9" d="M336.46,78A22,22,0,0,1,340,73.88a31.16,31.16,0,0,1,4.29-3.3,30.48,30.48,0,0,1,4.82-2.48,21.41,21.41,0,0,1,5.22-1.45c-1.51,1-3,1.93-4.52,2.85l-4.44,2.77L341,75.11C339.49,76.07,338,77.05,336.46,78Z"/>
          <path class="ba05fd2e-d194-49e7-98a4-9d0c81f0b5d9" d="M345.39,281.85a26.67,26.67,0,0,1,6.43.42,34.16,34.16,0,0,1,12,4.58,25.67,25.67,0,0,1,5.08,4l-5.8-2.59c-1.92-.83-3.84-1.64-5.79-2.37s-3.9-1.42-5.89-2.08Z"/>
          <path class="ba05fd2e-d194-49e7-98a4-9d0c81f0b5d9" d="M290.1,38.31a35.14,35.14,0,0,1,18.77-23.4,8.74,8.74,0,0,1,4.09-.8,9.69,9.69,0,0,1,3.94,1.32,14.35,14.35,0,0,1,5.71,5.67,10.31,10.31,0,0,1,.73,8.16,8.76,8.76,0,0,1-2.3,3.59,8,8,0,0,1-3.85,1.93,10.78,10.78,0,0,1-10.84-5,12,12,0,0,1-1.48-3.85,16.6,16.6,0,0,1,.53-8,20.6,20.6,0,0,1,3.73-7,25.16,25.16,0,0,1,13-8.34,23.7,23.7,0,0,1,15.14.89c-9.74-3.25-20.93.59-26.9,8.41a20,20,0,0,0-3.28,6.51,14.81,14.81,0,0,0-.36,7.11A11,11,0,0,0,308,28.8a8.46,8.46,0,0,0,2.34,2.47,8.65,8.65,0,0,0,6.47,1.55,6,6,0,0,0,2.89-1.42,6.75,6.75,0,0,0,1.79-2.78,8.49,8.49,0,0,0-.55-6.65,12.76,12.76,0,0,0-4.91-5,8.14,8.14,0,0,0-3.22-1.16,7.11,7.11,0,0,0-3.35.57,31.39,31.39,0,0,0-6.4,3.76,37,37,0,0,0-13,18.2Z"/>
          <path class="ba05fd2e-d194-49e7-98a4-9d0c81f0b5d9" d="M365.05,154.8a15,15,0,0,1,1.56-10.44,22.7,22.7,0,0,1,7.24-8,19.31,19.31,0,0,1,4.95-2.43,16.06,16.06,0,0,1,5.53-.87,11.16,11.16,0,0,1,5.51,1.65,6.67,6.67,0,0,1,3.32,5,3.69,3.69,0,0,1-1.46,3.15,3.82,3.82,0,0,1-1.64.69,5.62,5.62,0,0,1-1.64,0,7.15,7.15,0,0,1-2.82-1.18,6.57,6.57,0,0,1-1.16-1,10.83,10.83,0,0,1-.89-1.16,11.27,11.27,0,0,1-1.85-5.39,13.79,13.79,0,0,1,3.45-10.37,16.36,16.36,0,0,1,4.31-3.38,21.66,21.66,0,0,1,10.35-2.47,27.21,27.21,0,0,0-5.16,1.09,20.18,20.18,0,0,0-4.69,2.22,13.88,13.88,0,0,0-6.11,7.81,11.13,11.13,0,0,0,1.26,9.42c.21.34.5.61.74.93a5.8,5.8,0,0,0,.84.72,5.17,5.17,0,0,0,2,.84,2.36,2.36,0,0,0,1.79-.33,1.78,1.78,0,0,0,.65-1.48,4,4,0,0,0-.73-1.93,5.85,5.85,0,0,0-.74-.83c-.28-.24-.62-.47-.92-.71a9.61,9.61,0,0,0-4.54-1.4,17.16,17.16,0,0,0-9.54,2.72,22.66,22.66,0,0,0-7.24,7.21A15.2,15.2,0,0,0,365.05,154.8Z"/>
        </g>
      </g>
      <g class="bdc40421-6cbb-4351-84bc-e7387e3c2048">
        <g>
          <path class="bf68baff-2fde-4504-9831-f7b60c04d7b0" d="M332,80.9C290.74-13.61,209.32-1.93,184.57,7.36l-.13-.08C105.78-11.3,55.88,72.86,58.23,113.49S98.15,151.8,108,153.22,118.69,171,118.69,171c-4.69-70.81,101.56-65.59,99.21-112-.17-1.59-.42-3.13-.71-4.66.48.82.75,1.3.75,1.3,9.36,41.67,93.89,19.61,91.54,99.71,11.74-5.8,17.12,2.86,17.12,2.86C336.42,150,338.94,142,340,129.2A99.67,99.67,0,0,0,332,80.9Z"/>
          <g>
            <path class="ba05fd2e-d194-49e7-98a4-9d0c81f0b5d9" d="M204.38,28.17A35,35,0,0,1,204,38.69a36.8,36.8,0,0,1-1.25,5.15,36.84,36.84,0,0,1-1.92,5,42.26,42.26,0,0,1-13.66,16.12A53.42,53.42,0,0,1,178,70.27c-3.27,1.45-6.53,2.66-9.76,4C161.75,77,155.36,79.81,149.13,83c-12.48,6.21-24.55,13.55-34.54,23.26a67.28,67.28,0,0,0-6.9,7.8,50.84,50.84,0,0,0-5.45,8.85,44.06,44.06,0,0,0-3.51,9.8,49.77,49.77,0,0,0-1.14,10.41,43.48,43.48,0,0,1,3.77-20.62,50.59,50.59,0,0,1,5.31-9.19,69.92,69.92,0,0,1,6.83-8.14,100.36,100.36,0,0,1,16.43-13.37,173.67,173.67,0,0,1,18.31-10.59c6.31-3.13,12.77-6,19.29-8.58,3.26-1.33,6.59-2.54,9.74-3.91a58.27,58.27,0,0,0,9-5A41.12,41.12,0,0,0,200,48.37,39.5,39.5,0,0,0,204.38,28.17Z"/>
            <path class="ba05fd2e-d194-49e7-98a4-9d0c81f0b5d9" d="M205.57,44.42a28.57,28.57,0,0,1-.36,9.31,32.1,32.1,0,0,1-3.07,8.87,37,37,0,0,1-12.69,13.77c-5.26,3.52-11.31,5.65-17,7.87S161,88.88,155.37,91.53A162.56,162.56,0,0,0,139,100.22c-2.64,1.59-5.2,3.31-7.7,5.1s-4.88,3.74-7.17,5.78a54,54,0,0,0-11.51,14.25,35.41,35.41,0,0,0-3.37,8.55,38.85,38.85,0,0,0-1.12,9.19,35.7,35.7,0,0,1,3.62-18.19,46.11,46.11,0,0,1,5-8,64.3,64.3,0,0,1,6.34-7c9.16-8.63,20.18-14.89,31.42-20.24,5.65-2.64,11.41-5,17.23-7.25s11.66-4.15,16.85-7.41a36.94,36.94,0,0,0,12.69-12.92,31.44,31.44,0,0,0,3.4-8.52,32,32,0,0,0,.78-4.56A24.8,24.8,0,0,0,205.57,44.42Z"/>
            <path class="ba05fd2e-d194-49e7-98a4-9d0c81f0b5d9" d="M210.26,52.55a28.87,28.87,0,0,1-.33,9.36,33.52,33.52,0,0,1-3,9,37.1,37.1,0,0,1-12.66,14,52.25,52.25,0,0,1-8.34,4.55c-2.95,1.22-5.84,2.27-8.74,3.43-5.79,2.3-11.53,4.71-17.13,7.41A162.28,162.28,0,0,0,143.66,109c-2.65,1.61-5.21,3.36-7.72,5.18s-4.87,3.8-7.17,5.87a54.19,54.19,0,0,0-11.46,14.42,35.86,35.86,0,0,0-3.35,8.62,40.43,40.43,0,0,0-1.11,9.25,36.46,36.46,0,0,1,3.58-18.31A53.06,53.06,0,0,1,127.7,119c9.16-8.75,20.21-15.12,31.48-20.55,5.67-2.68,11.46-5.11,17.3-7.36,2.92-1.11,5.91-2.15,8.75-3.28a56.46,56.46,0,0,0,8.17-4.24A37,37,0,0,0,206.05,70.4,32.87,32.87,0,0,0,210.26,52.55Z"/>
            <path class="ba05fd2e-d194-49e7-98a4-9d0c81f0b5d9" d="M200.88,27a36.55,36.55,0,0,1-5.28,9.29,68,68,0,0,1-7.15,8,99,99,0,0,1-17.2,12.86A139.81,139.81,0,0,1,152,66.67a207.87,207.87,0,0,0-18.93,9.65A135.73,135.73,0,0,0,115.43,88.1a84.61,84.61,0,0,0-14.81,15A55.12,55.12,0,0,0,91.36,122a57.63,57.63,0,0,0-1.42,21.11,55.55,55.55,0,0,1,.47-21.34,56.27,56.27,0,0,1,9-19.53A66.08,66.08,0,0,1,106.32,94a92.94,92.94,0,0,1,8-7.27,137.07,137.07,0,0,1,17.78-12.09A211.2,211.2,0,0,1,151.29,65c3.32-1.32,6.56-2.73,9.76-4.25s6.35-3.14,9.43-4.89a99.38,99.38,0,0,0,17.3-12.26,65.76,65.76,0,0,0,7.4-7.62,49.23,49.23,0,0,0,3.15-4.29A27.44,27.44,0,0,0,200.88,27Z"/>
            <path class="ba05fd2e-d194-49e7-98a4-9d0c81f0b5d9" d="M190.9,21.79c-2.24,6.08-6.74,11.16-11.92,15A91.15,91.15,0,0,1,162,46.3c-5.88,2.69-11.91,5-17.85,7.44s-11.84,5-17.52,7.92a101.59,101.59,0,0,0-16.26,10A72.64,72.64,0,0,0,97,85.15c-7.75,10.16-12.1,22.61-14.07,35.31a84.34,84.34,0,0,1,4-18.94,66.12,66.12,0,0,1,22.46-31.26,103.43,103.43,0,0,1,16.47-10.38c11.6-5.84,23.84-10,35.67-15a92,92,0,0,0,17-8.87,39.46,39.46,0,0,0,7.23-6.24A31.49,31.49,0,0,0,190.9,21.79Z"/>
            <path class="ba05fd2e-d194-49e7-98a4-9d0c81f0b5d9" d="M182.68,17.14a1.33,1.33,0,0,1,.34,1.14,2.2,2.2,0,0,1-.64,1,9,9,0,0,1-2,1.44A38.51,38.51,0,0,1,176,22.85c-3,1.25-6,2.36-9.08,3.48-6.1,2.18-12.19,4.35-18.2,6.72-12,4.72-23.83,10-34.65,17A109.06,109.06,0,0,0,98.69,61.58,81.37,81.37,0,0,0,86.1,76a67.5,67.5,0,0,0-11.43,36.3A66.4,66.4,0,0,1,76.85,93a65.35,65.35,0,0,1,8-17.84A76,76,0,0,1,97.46,60.24,111.18,111.18,0,0,1,113,48.34a158.76,158.76,0,0,1,17.17-9.28c5.9-2.75,11.9-5.26,18-7.44s12.27-4.22,18.43-6.21c3.08-1,6.17-1.95,9.2-3.05a40.62,40.62,0,0,0,4.46-1.85,9,9,0,0,0,2-1.29,2.15,2.15,0,0,0,.67-1A1.31,1.31,0,0,0,182.68,17.14Z"/>
          </g>
          <g>
            <path class="ba05fd2e-d194-49e7-98a4-9d0c81f0b5d9" d="M212.62,28.17a104.43,104.43,0,0,0,13,15,81.14,81.14,0,0,0,15.68,12,63.18,63.18,0,0,0,8.85,4.27c3,1.15,6.29,2.07,9.44,3.18a137.4,137.4,0,0,1,18.56,7.68,85.88,85.88,0,0,1,16.72,11.24A66.85,66.85,0,0,1,302,88.76a61.67,61.67,0,0,1,6,8.13,72.15,72.15,0,0,1,4.72,8.9c.62,1.57,1.34,3.08,1.86,4.68l.84,2.37c.25.8.48,1.6.71,2.41A90.56,90.56,0,0,1,319.46,135a99.38,99.38,0,0,0-4.22-19.44,82.05,82.05,0,0,0-3.63-9.22,71.94,71.94,0,0,0-4.86-8.6,69,69,0,0,0-6-7.81,65.53,65.53,0,0,0-7-6.91,83.89,83.89,0,0,0-16.45-10.84A141.59,141.59,0,0,0,259,64.43c-3.13-1.13-6.28-2.05-9.47-3.28a56.51,56.51,0,0,1-9-4.54A89.51,89.51,0,0,1,212.62,28.17Z"/>
            <path class="ba05fd2e-d194-49e7-98a4-9d0c81f0b5d9" d="M217.32,38.62a85.73,85.73,0,0,0,9.76,13.8,67.81,67.81,0,0,0,12.35,11.36,48.88,48.88,0,0,0,7.22,4.15,41.36,41.36,0,0,0,3.86,1.54c1.3.43,2.66.82,4,1.22a155.5,155.5,0,0,1,16.11,5.67,93.64,93.64,0,0,1,15.14,8,63.24,63.24,0,0,1,13,11.24,53.92,53.92,0,0,1,5.08,6.94,51.82,51.82,0,0,1,3.82,7.68,50.28,50.28,0,0,1,2.43,8.19,54.58,54.58,0,0,1,1.15,8.43,58.41,58.41,0,0,0-4.5-16.23,52.37,52.37,0,0,0-9.16-14A64.47,64.47,0,0,0,284.75,86a94.74,94.74,0,0,0-14.88-7.77c-5.17-2.2-10.49-4-15.87-5.72-1.35-.42-2.7-.83-4.08-1.31s-2.7-1-4-1.67A46.53,46.53,0,0,1,238.54,65a64.1,64.1,0,0,1-12.19-12A78.35,78.35,0,0,1,217.32,38.62Z"/>
            <path class="ba05fd2e-d194-49e7-98a4-9d0c81f0b5d9" d="M218.49,47.9A68.27,68.27,0,0,0,227,61.32a56.38,56.38,0,0,0,11.39,10.87,44,44,0,0,0,6.78,3.91c1.18.55,2.39,1,3.62,1.46s2.49.79,3.78,1.18a128,128,0,0,1,15,5.74c9.73,4.49,19,10.2,26.71,17.8a62.7,62.7,0,0,1,5.35,6,55.59,55.59,0,0,1,4.41,6.76,49.21,49.21,0,0,1,3.15,7.41,43.82,43.82,0,0,1,1.7,7.82,52.63,52.63,0,0,0-2.21-7.64,48.68,48.68,0,0,0-3.51-7.09,57.9,57.9,0,0,0-10-12.17,84,84,0,0,0-12.52-9.6,113.85,113.85,0,0,0-13.92-7.53A139.16,139.16,0,0,0,252,80.51c-1.25-.4-2.52-.81-3.82-1.27a39.93,39.93,0,0,1-3.76-1.59,42.24,42.24,0,0,1-6.93-4.23A53.84,53.84,0,0,1,226.25,61.9a68.69,68.69,0,0,1-4.33-6.77A53.69,53.69,0,0,1,218.49,47.9Z"/>
            <path class="ba05fd2e-d194-49e7-98a4-9d0c81f0b5d9" d="M212.62,22.37a200.52,200.52,0,0,0,18.55,12.49A185.62,185.62,0,0,0,250.88,45.3L256,47.55l5.17,2.07,5.26,1.88c1.76.66,3.53,1.42,5.23,2.21a91.54,91.54,0,0,1,19.2,11.87,90.35,90.35,0,0,1,26.8,35.85c.76,1.72,1.36,3.51,2,5.27s1.2,3.56,1.68,5.38a98.29,98.29,0,0,1,2.49,11,120.64,120.64,0,0,1,1.52,22.36c-.4-14.91-3.07-29.82-9.06-43.4a92.75,92.75,0,0,0-5-9.88,85,85,0,0,0-6.16-9.22,89.28,89.28,0,0,0-15.46-15.8A95.26,95.26,0,0,0,270.84,55.4c-1.68-.79-3.34-1.52-5.07-2.19l-5.27-1.93-5.2-2.15-5.12-2.34A179.81,179.81,0,0,1,212.62,22.37Z"/>
            <path class="ba05fd2e-d194-49e7-98a4-9d0c81f0b5d9" d="M212.62,14.24A64.58,64.58,0,0,0,221.36,20c3.08,1.64,6.22,3.15,9.45,4.48,6.4,2.77,13,5.16,19.51,7.67,13.06,5,26,10.75,37.65,18.81a100,100,0,0,1,28.64,30.77,113.5,113.5,0,0,1,9,19.07l1.72,5,1.45,5c.24.85.5,1.68.72,2.53l.59,2.56L331.2,121,329.76,116l-.71-2.52c-.25-.84-.54-1.66-.81-2.49l-1.67-5-1.91-4.87a113.87,113.87,0,0,0-9.37-18.62,105.49,105.49,0,0,0-12.68-16.45,100,100,0,0,0-15.78-13.48A132.15,132.15,0,0,0,268.88,42c-6.23-3.1-12.68-5.77-19.13-8.46s-13-5.24-19.34-8.21S217.84,19,212.62,14.24Z"/>
            <path class="ba05fd2e-d194-49e7-98a4-9d0c81f0b5d9" d="M217.32,6.12a1.31,1.31,0,0,0,.2,1.15,3.51,3.51,0,0,0,.92.8,11.87,11.87,0,0,0,2.22,1c1.53.59,3.11,1.06,4.7,1.51,3.18.89,6.39,1.68,9.59,2.52,6.39,1.72,12.76,3.57,19,5.76a145.09,145.09,0,0,1,35.55,17.86,99.8,99.8,0,0,1,36.4,46.54,114.41,114.41,0,0,1,5.27,19.15,113.86,113.86,0,0,0-15.46-36.14,104.14,104.14,0,0,0-12.37-15.25,108,108,0,0,0-15-12.67c-10.66-7.67-22.61-13.41-34.92-18C247.29,18,241,16,234.68,14.09c-3.15-1-6.33-1.92-9.47-3-1.57-.52-3.14-1.06-4.67-1.73a13.32,13.32,0,0,1-2.19-1.2,4.13,4.13,0,0,1-.89-.88A1.38,1.38,0,0,1,217.32,6.12Z"/>
          </g>
        </g>
      </g>
    </g>
  </g>
</svg>
