<svg xmlns="http://www.w3.org/2000/svg" xmlns:xlink="http://www.w3.org/1999/xlink" width="147" height="214" viewBox="0 0 147 214">
  <defs>
    <style>
      .a958eb5f-c2f5-4806-82be-00b9bc7be0c4 {
        fill: #26221a;
      }

      .b1dbfc72-dcf6-4031-b5f9-61b9cc475865 {
        fill: #f280b3;
        stroke: #e2549e;
      }

      .b1dbfc72-dcf6-4031-b5f9-61b9cc475865, .e528de7c-589e-472d-a576-cf92d65a7b41, .eb096a31-b473-424a-afba-89040b3d378d, .f2e06185-3232-48ca-ba67-eaf79600eb36 {
        stroke-miterlimit: 10;
      }

      .a592bae4-a002-451e-925f-bcea581135e0 {
        fill: #e2549e;
      }

      .be5aeffa-f19a-43cc-8605-0133e6c96bd0 {
        fill: #7f143b;
        opacity: 0.15;
      }

      .eb096a31-b473-424a-afba-89040b3d378d {
        fill: #f4d44a;
        stroke: #8e6126;
      }

      .f2e06185-3232-48ca-ba67-eaf79600eb36 {
        stroke: #6d461b;
        fill: url(#bb0fadeb-a2c9-4623-8a8a-c256b82cea48);
      }

      .e528de7c-589e-472d-a576-cf92d65a7b41 {
        stroke: #43205e;
        fill: url(#a4fe6243-7df6-48cb-8893-4f48fcb03b56);
      }

      .ba03ddbe-91f2-4c74-9868-83f077409d5b, .bec57705-a5d5-415c-94f5-1e0e1c45ba72 {
        fill: #fff;
      }

      .ba03ddbe-91f2-4c74-9868-83f077409d5b {
        opacity: 0.13;
      }

      .bec57705-a5d5-415c-94f5-1e0e1c45ba72 {
        opacity: 0.26;
      }

      .ead3e2d5-3cc5-4c36-9c2b-a3ae87be6217 {
        fill: #010101;
        opacity: 0.21;
      }
    </style>
    <linearGradient id="bb0fadeb-a2c9-4623-8a8a-c256b82cea48" x1="60.14" y1="64.33" x2="77.32" y2="64.33" gradientUnits="userSpaceOnUse">
      <stop offset="0.01" stop-color="#bb9846"/>
      <stop offset="0.52" stop-color="#f9ea1e"/>
      <stop offset="1" stop-color="#cdae3a"/>
    </linearGradient>
    <radialGradient id="a4fe6243-7df6-48cb-8893-4f48fcb03b56" cx="68.73" cy="53.3" r="6.37" gradientTransform="translate(0 16.62) scale(1 0.9)" gradientUnits="userSpaceOnUse">
      <stop offset="0.33" stop-color="#9a459a"/>
      <stop offset="1" stop-color="#67308f"/>
    </radialGradient>
  </defs>
  <g id="ecc36f55-cf01-43de-9bfa-bb93e39b86a0" data-name="Layer 22">
    <g>
      <rect class="a958eb5f-c2f5-4806-82be-00b9bc7be0c4" x="61.46" y="16.07" width="6.45" height="1.47" transform="translate(46.61 81.15) rotate(-88.87)"/>
      <polygon class="a958eb5f-c2f5-4806-82be-00b9bc7be0c4" points="93.31 32.56 64.02 21.63 65.2 21.64 32.39 33.21 31.92 31.9 64.05 18.41 64.64 18.14 65.23 18.42 93.8 31.25 93.31 32.56"/>
      <path class="a958eb5f-c2f5-4806-82be-00b9bc7be0c4" d="M65.49,1.39a5.41,5.41,0,0,1,3.82,1.72c.48,0,1-.06,1.44-.06h.43A7,7,0,0,0,65.52-.18a7.37,7.37,0,0,0-7.27,7.44,7.37,7.37,0,0,0,7,7.73l0-1.57a5.84,5.84,0,0,1-5.53-6.13,5.84,5.84,0,0,1,5.77-5.9"/>
      <path class="b1dbfc72-dcf6-4031-b5f9-61b9cc475865" d="M30.19,104.31s-27,56.86-28.63,98.81c1.8,4.08,5.32,4.73,11.29,2.42,1.57,4.48,7.69,4.38,12.9,2.42,7.12-2.05,7.5-.59,15.33,3.23,4,2.54,11,2.22,14.52-.81,2.64,3.34,8.32,4.57,11.64,2.64a18.18,18.18,0,0,1,4-1.84c6-1.73,8.54-1.92,14.2,1.62,3.49,1.64,12.5.56,13.71-2.42,2.34,3.11,6.52,1.59,10.48,0,4.4-4.25,6.46-5.65,11.3-4.84.6.1,2.64.66,3.22.81,3.23.8,8,.74,8.88-1.62,3.5.45,6.62-.43,6.45-2.42,4.4,1.11,6.86-2.82,5.65-5.64,0,0-22.59-79.86-40.74-95.59Z"/>
      <path class="b1dbfc72-dcf6-4031-b5f9-61b9cc475865" d="M30.19,104.31s-27,56.86-28.63,98.81c1.8,4.08,5.32,4.73,11.29,2.42,1.57,4.48,7.69,4.38,12.9,2.42,7.12-2.05,7.5-.59,15.33,3.23,4,2.54,11,2.22,14.52-.81,2.64,3.34,8.32,4.57,11.64,2.64a18.18,18.18,0,0,1,4-1.84c6-1.73,8.54-1.92,14.2,1.62,3.49,1.64,12.5.56,13.71-2.42,2.34,3.11,6.52,1.59,10.48,0,4.4-4.25,6.46-5.65,11.3-4.84.6.1,2.64.66,3.22.81,3.23.8,8,.74,8.88-1.62,3.5.45,6.62-.43,6.45-2.42,4.4,1.11,6.86-2.82,5.65-5.64,0,0-22.59-79.86-40.74-95.59Z"/>
      <path class="a592bae4-a002-451e-925f-bcea581135e0" d="M105.61,114.39c3.59,6.73,6.84,13.62,9.94,20.57,1.56,3.47,3,7,4.51,10.49s2.85,7.06,4.26,10.59c2.72,7.12,5.31,14.29,7.57,21.57l1.64,5.48,1.46,5.54c.46,1.85.83,3.74,1.23,5.6s.58,3.78.85,5.66l-.83-2.73c-.27-.91-.5-1.83-.83-2.72-.63-1.8-1.17-3.61-1.83-5.39l-1.92-5.35-2-5.33c-1.38-3.53-2.65-7.1-4.06-10.63s-2.71-7.08-4.09-10.62l-4.1-10.62c-1.33-3.56-2.73-7.08-4-10.65-2.69-7.11-5.33-14.24-7.78-21.46"/>
      <path class="a592bae4-a002-451e-925f-bcea581135e0" d="M132.23,203.93c-3.15-7.4-6.06-14.88-8.88-22.39-1.44-3.75-2.79-7.52-4.19-11.28L115.09,159c-2.65-7.57-5.3-15.13-7.88-22.71l-3.9-11.37c-.65-1.9-1.28-3.8-2-5.67l-1-2.83-1.14-2.79,1.55,2.6c.48.89.92,1.79,1.38,2.68.93,1.8,1.73,3.64,2.59,5.46,1.64,3.67,3.23,7.37,4.72,11.1s2.93,7.47,4.39,11.21l4.13,11.31,3.92,11.39c1.24,3.81,2.54,7.61,3.71,11.45,2.41,7.65,4.7,15.35,6.68,23.15"/>
      <path class="a592bae4-a002-451e-925f-bcea581135e0" d="M90.29,113.58c1.18,7.84,2.11,15.69,2.94,23.55.45,3.93.8,7.86,1.2,11.79l1.07,11.8,1,11.8c.28,3.94.62,7.87.88,11.81l.84,11.82q.18,3,.44,5.9c.12,2,.34,3.93.53,5.91l-.74-2.88c-.25-1-.41-1.94-.62-2.91-.41-1.94-.74-3.9-1.07-5.85-.65-3.91-1.21-7.83-1.71-11.75s-.93-7.86-1.38-11.79L92.52,161c-.66-7.87-1.23-15.76-1.61-23.66s-.67-15.8-.62-23.73"/>
      <path class="a592bae4-a002-451e-925f-bcea581135e0" d="M85.45,212c-1-8.17-1.66-16.36-2.19-24.55-.3-4.1-.47-8.2-.69-12.3l-.47-12.31-.23-12.32c0-4.11-.06-8.21.06-12.33s.22-8.22.44-12.33c.18-2,.24-4.11.51-6.16l.35-3.07.6-3-.15,3.08,0,3.07c0,2,.09,4.1.14,6.15l.42,12.28.83,24.59c.2,8.19.42,16.39.49,24.6s.1,16.42-.14,24.64"/>
      <path class="a592bae4-a002-451e-925f-bcea581135e0" d="M54.79,208.77c-.78-7.81-1.16-15.63-1.37-23.45s-.18-15.66,0-23.48c.13-3.92.29-7.83.51-11.74.11-2,.27-3.91.41-5.87l.22-2.93.3-2.92a134.88,134.88,0,0,1,4-23.18c-.92,7.78-1.28,15.56-1.63,23.34-.18,3.9-.31,7.79-.44,11.69s-.27,7.79-.34,11.69l-.67,23.4c-.23,7.81-.5,15.62-1,23.45"/>
      <path class="a592bae4-a002-451e-925f-bcea581135e0" d="M95.13,112.78c2,7.86,3.68,15.78,5.23,23.72.8,4,1.49,8,2.21,11.94l2,12c1.23,8,2.38,16,3.25,24.07q.68,6,1.09,12.11c.11,2,.23,4.06.26,6.09a30.24,30.24,0,0,1-.33,6.09,19,19,0,0,0-.14-3c-.09-1-.22-2-.36-3-.27-2-.57-4-.89-6l-2-12-2-12-1.92-12c-1.22-8-2.46-16-3.55-24s-2.15-16-2.93-24.1"/>
      <path class="a592bae4-a002-451e-925f-bcea581135e0" d="M64.47,212c-.88-8.12-1.36-16.26-1.68-24.41s-.41-16.31-.36-24.47.38-16.32,1-24.46a148.14,148.14,0,0,1,3.45-24.26c-.73,8.13-.93,16.25-1.12,24.37-.07,4.06-.17,8.13-.2,12.19l-.1,6.1,0,6.09-.31,24.41c-.12,8.14-.29,16.28-.65,24.44"/>
      <path class="a592bae4-a002-451e-925f-bcea581135e0" d="M32,206.17c.09-7.83.61-15.63,1.33-23.42.33-3.89.8-7.77,1.25-11.66s1-7.75,1.61-11.62,1.29-7.72,2-11.56,1.58-7.68,2.58-11.47,2.07-7.58,3.38-11.29a45.27,45.27,0,0,1,5.15-10.58,58.42,58.42,0,0,0-3.74,11c-1,3.75-1.75,7.55-2.51,11.36s-1.44,7.63-2.06,11.47-1.29,7.67-1.87,11.52c-1.23,7.68-2.34,15.39-3.52,23.09S33.33,198.45,32,206.17"/>
      <path class="a592bae4-a002-451e-925f-bcea581135e0" d="M13.66,203.93c.62-7.88,1.68-15.7,2.93-23.48.6-3.9,1.34-7.77,2.05-11.65s1.58-7.73,2.41-11.59,1.82-7.68,2.82-11.51,2.11-7.61,3.35-11.37,2.58-7.49,4.13-11.14a51.28,51.28,0,0,1,5.7-10.41,70,70,0,0,0-4.32,10.92c-1.21,3.73-2.25,7.5-3.26,11.29q-3,11.37-5.5,22.88c-1.75,7.65-3.38,15.34-5.09,23s-3.37,15.37-5.22,23.05"/>
      <path class="b1dbfc72-dcf6-4031-b5f9-61b9cc475865" d="M11.24,45c2.15-6,12.1-14.52,24.19-13.71,12.1,37.91,54,32.66,55.14-.82,17.74,2.42,20.84,8.38,21.9,11.71,0,0-12.1,37.1-7.26,46.78,0,0,7.26,8.07,3.22,12.91-1.61,7.26-49.09,18.29-79.85,2.42,0,0-6.45,0-.81-13.72,0,0,5.65-38.71-16.53-45.57"/>
      <path class="b1dbfc72-dcf6-4031-b5f9-61b9cc475865" d="M11.24,45c2.15-6,12.1-14.52,24.19-13.71,14.34,38.14,51.26,34,56.47,0,17.74,2.42,19.51,7.56,20.57,10.89,0,0-12.1,37.1-7.26,46.78,0,0,7.26,8.07,3.22,12.91-1.61,7.26-49.09,18.29-79.85,2.42,0,0-6.45,0-.81-13.72C27.77,90.59,33.42,51.88,11.24,45Z"/>
      <path class="be5aeffa-f19a-43cc-8605-0133e6c96bd0" d="M82.46,111.32l1.9,102.62s11.57,1.62,13.51-3.56S89,110.09,89,110.09Z"/>
      <path class="be5aeffa-f19a-43cc-8605-0133e6c96bd0" d="M96.64,108.51s36.22,90.29,36.4,96.22c0,0,8.09.75,5.65-3.41s-31.24-89.3-36.54-93.71Z"/>
      <path class="be5aeffa-f19a-43cc-8605-0133e6c96bd0" d="M58.83,112.43S50.69,200,55.6,210.38c0,0-7.19,6.86-22.58-3,0,0,8.95-88.58,17.34-96.18Z"/>
      <path class="be5aeffa-f19a-43cc-8605-0133e6c96bd0" d="M12.85,205.54s-7.29,4.4-8,1S22.74,115,36.24,107.61l2.57.86S16.74,171.9,13.66,204.79"/>
      <path class="be5aeffa-f19a-43cc-8605-0133e6c96bd0" d="M93.6,62.79c2.46,21.17,1.17,49.45-18.09,48.37,0,0,15.5-1.08,19.62-3.55S94.13,63.58,93.6,62.79Z"/>
      <path class="be5aeffa-f19a-43cc-8605-0133e6c96bd0" d="M43.14,62.7C40.25,83.82,41,112.12,60.25,111.43c0,0-15.48-1.39-19.55-3.94S42.6,63.49,43.14,62.7Z"/>
      <path class="be5aeffa-f19a-43cc-8605-0133e6c96bd0" d="M81,38.15c.76,8.11-5.87,19.09-10.54,21.78l-3-1.35-2.9,1.27C58.34,57.25,47.25,46,46.69,37c-3.58-5.25-20-2.33-20.76,5.25,0,0,2.78,0,3,2.09.26,2.85,4.95,1.12,7.49,2.4s.53,5.69,3.14,7.67,6.43.1,8.17.93,2.55,3.26,4,4.42c1.54,1.67,6,1.85,10,1.39l-2.8,1.23V70l8.58,3.8L76,70V62.38l-3.9-1.73c3.68.2,8.17-.3,9.35-2.1,1-1.16,1.41-3.38,2.75-4.27s4.82.43,6.74-1.57S90.6,47,92.56,45.64s6.14-.26,6-2.8c-.12-1.84,2.21-2.12,2.21-2.12C99.11,34.08,84.61,32.31,81,38.15Z"/>
      <g>
        <path class="eb096a31-b473-424a-afba-89040b3d378d" d="M30.2,40.35c-.19-2.25-3-2.29-3-2.29C27.94,29.74,44.4,26.53,48,32.3,48.59,43,61.58,56.64,67.3,57.92,63,59.2,55.14,59.84,53,57.28c-1.43-1.28-2.25-4-4-4.86s-5.56,1.17-8.17-1-.59-7-3.13-8.42S30.46,43.48,30.2,40.35Z"/>
        <path class="eb096a31-b473-424a-afba-89040b3d378d" d="M99.82,38.73c-.12-2,2.22-2.32,2.22-2.32-1.64-7.29-16.13-9.24-19.71-2.83.82,9.54-6.85,22.69-11.5,24.39,3.77.71,10.46.48,12-2,1-1.27,1.4-3.71,2.75-4.69s4.81.47,6.73-1.71-.37-6.27,1.59-7.76S100,41.51,99.82,38.73Z"/>
        <polygon class="f2e06185-3232-48ca-ba67-eaf79600eb36" points="77.32 68.5 68.72 72.65 60.14 68.48 60.15 60.16 68.74 56 77.33 60.17 77.32 68.5"/>
        <g>
          <polygon class="e528de7c-589e-472d-a576-cf92d65a7b41" points="74.63 67.38 68.73 70.42 62.83 67.37 62.84 61.27 68.74 58.23 74.63 61.28 74.63 67.38"/>
          <polygon class="ba03ddbe-91f2-4c74-9868-83f077409d5b" points="63.72 61.76 68.73 59.2 68.73 64.33 63.72 61.76"/>
          <polygon class="bec57705-a5d5-415c-94f5-1e0e1c45ba72" points="63.72 66.89 68.73 64.33 68.73 69.45 63.72 66.89"/>
          <polygon class="ead3e2d5-3cc5-4c36-9c2b-a3ae87be6217" points="68.73 64.33 73.74 61.76 73.74 66.89 68.73 64.33"/>
        </g>
      </g>
    </g>
  </g>
</svg>
