<svg xmlns="http://www.w3.org/2000/svg" width="160" height="162" viewBox="0 0 160 162">
  <defs>
    <style>
      .ac55fec6-db28-4125-8ba1-552656d2f0f2, .ef376080-453b-454c-bcd6-6e2aa4447154, .fe26b2ac-a4ba-4b6b-8fef-263c061a1445 {
        fill: #fff;
      }

      .fe26b2ac-a4ba-4b6b-8fef-263c061a1445 {
        stroke: #323232;
        stroke-miterlimit: 10;
      }

      .b24cf627-5686-47dc-8240-e921c64f5d11 {
        fill: #ea2880;
      }

      .ef376080-453b-454c-bcd6-6e2aa4447154 {
        opacity: 0.4;
      }
    </style>
  </defs>
  <g id="acd6309e-a327-468c-84a5-0bef413102c1" data-name="Layer 12">
    <g>
      <path class="ac55fec6-db28-4125-8ba1-552656d2f0f2" d="M111.48,159.63a7,7,0,0,1-1.21-.11,7.46,7.46,0,0,1-1.41-.39,7.08,7.08,0,0,1-2.32-1.54,7.22,7.22,0,0,1-1.84-3.22,6.59,6.59,0,0,1,0-3.45,6.83,6.83,0,0,1,1.81-3.27L129,125.14a2.06,2.06,0,0,0-1.39-3.6,1.86,1.86,0,0,0-1.35.56l-22.52,22.51a7.33,7.33,0,0,1-5.16,2.15,6,6,0,0,1-1.27-.12,6.78,6.78,0,0,1-2.3-.88,7.52,7.52,0,0,1-1.32-1,7.07,7.07,0,0,1-2.12-5,6.9,6.9,0,0,1,2-4.92l22.52-22.51a2.39,2.39,0,0,0,.66-1.3,1.88,1.88,0,0,0-.24-1.24,2.11,2.11,0,0,0-1.82-1.06h-.19a1.91,1.91,0,0,0-1.16.54L90.83,131.72a7.36,7.36,0,0,1-2.33,1.55,7.22,7.22,0,0,1-1.75.52,8.11,8.11,0,0,1-1.09.08,6.88,6.88,0,0,1-3.56-1A7.22,7.22,0,0,1,79,128.78a7,7,0,0,1,1.71-6.91l22.51-22.52a2.25,2.25,0,0,0,.58-.94,1.55,1.55,0,0,0,.08-.36,1.78,1.78,0,0,0-.23-1.23,3.12,3.12,0,0,0-.25-.35l-.16-.13a2.14,2.14,0,0,0-1.43-.58,1.72,1.72,0,0,0-.6.1,1.86,1.86,0,0,0-.73.45L77.94,118.82a7.32,7.32,0,0,1-.9.77,8.14,8.14,0,0,1-1,.6,7.15,7.15,0,0,1-3.27.79,6.76,6.76,0,0,1-3.57-1,7.21,7.21,0,0,1-3-3.72A6.95,6.95,0,0,1,67.79,109L90.3,86.46a2.36,2.36,0,0,0,.64-1.23,1.61,1.61,0,0,0,0-.41,1.7,1.7,0,0,0-.25-.89,2.21,2.21,0,0,0-.93-.83,2.15,2.15,0,0,0-.93-.22,1.82,1.82,0,0,0-1.31.54L65,105.93A7.37,7.37,0,0,1,61,108a6.54,6.54,0,0,1-1.08.08,6.77,6.77,0,0,1-3.57-1A7.09,7.09,0,0,1,55,106a7,7,0,0,1-2.07-4.82v-.16a7.11,7.11,0,0,1,.6-2.76,7.23,7.23,0,0,1,1.39-2.15l.18-.2,22.5-22.49a1.83,1.83,0,0,0,.45-.74,2.84,2.84,0,0,0,.09-.42,2.17,2.17,0,0,0,0-.44,2.12,2.12,0,0,0-1-1.58,1.77,1.77,0,0,0-.91-.24,2.55,2.55,0,0,0-.61.08l-.2.08a2.39,2.39,0,0,0-.82.51L52,93.22a6.87,6.87,0,0,1-4.89,2,7.12,7.12,0,0,1-2.46-.43,7.4,7.4,0,0,1-2.29-1.4l-.3-.26A7.9,7.9,0,0,1,41,91.8a6.74,6.74,0,0,1-1-3.48v-.16a7.47,7.47,0,0,1,2-4.9,2.09,2.09,0,0,1,.19-.21l22.49-22.5A1.9,1.9,0,0,0,65.23,59a2.13,2.13,0,0,0-1-1.59,1.71,1.71,0,0,0-.9-.25,1.88,1.88,0,0,0-.34,0,2.52,2.52,0,0,0-.69.22,2.58,2.58,0,0,0-.6.44L39.14,80.32a6.87,6.87,0,0,1-4.9,2,7.14,7.14,0,0,1-6.1-3.44,6.82,6.82,0,0,1-.93-4.56,7.21,7.21,0,0,1,2.08-4.17L51.8,47.66a1.86,1.86,0,0,0,.45-.73,2.1,2.1,0,0,0,.09-.87,2.18,2.18,0,0,0-1.05-1.57,1.75,1.75,0,0,0-.9-.26h0a2.3,2.3,0,0,0-1.35.45,2.09,2.09,0,0,0-.28.24L26.24,67.43a6.88,6.88,0,0,1-4.89,2,7.92,7.92,0,0,1-.85,0,3.55,3.55,0,0,1-.47-.09,6.92,6.92,0,0,1-2.48-1,7.65,7.65,0,0,1-1.26-1,7.54,7.54,0,0,1-1-1.33A5,5,0,0,1,15,65.5a7.13,7.13,0,0,1,1.41-8.22L38.91,34.77a1.91,1.91,0,0,0,.53-1.59,2.11,2.11,0,0,0-1-1.58,1.76,1.76,0,0,0-.93-.26,2.24,2.24,0,0,0-1,.25,2.4,2.4,0,0,0-.61.43L13.35,54.54a6.88,6.88,0,0,1-4.9,2,7.07,7.07,0,0,1-5-2.09,7.21,7.21,0,0,1-.9-1.1,7,7,0,0,1-1.15-3.85,6.85,6.85,0,0,1,.22-1.67,7.47,7.47,0,0,1,1.6-3.13L26,15.47l.11-.12c.67-.76,1.34-1.47,2-2.16l.61-.6c.49-.48,1-.94,1.45-1.38l.66-.59c.52-.46,1-.88,1.54-1.29l.52-.41c.67-.52,1.35-1,2-1.46l.43-.28c.54-.35,1.08-.69,1.62-1l.67-.37c.48-.26,1-.5,1.43-.73L39.15,5l.54-.25c.59-.27,1.18-.51,1.77-.74l.25-.1c.68-.24,1.35-.45,2-.64l.58-.14c.49-.13,1-.24,1.45-.33l.67-.12c.48-.07,1-.14,1.43-.19l.57,0c.65-.06,1.29-.09,1.93-.09h.26c.59,0,1.13,0,1.66.08l.63.06c.44,0,.87.1,1.29.17l.64.11c.47.09.95.19,1.42.31l.41.1c.58.15,1.16.33,1.74.53l.5.18q.62.23,1.23.48l.6.26c.38.17.76.35,1.13.54l.55.28c.51.26,1,.54,1.52.84l.15.1c.52.32,1,.61,1.41.91l.48.33,1,.75.53.42c.33.26.65.53,1,.8l.44.37c.43.38.86.78,1.28,1.18l.39.39.88.89L72,13l.75.85.44.51c.29.36.58.71.86,1.07l.33.43c.32.4.68.9,1,1.4l.19.28c.34.49.62.91.88,1.32l.28.46q.38.6.72,1.2l.52.95.37.68c.06.13.71,1.45.79,1.64s.15.34.22.51l.5,1.17c.17.42.32.84.47,1.26l.13.35a96.73,96.73,0,0,0,8.6,18.64,77.25,77.25,0,0,0,18.4,20.82l.78.59.22.17c.84.63,1.69,1.25,2.56,1.85l1,.73c1.33.89,2.51,1.65,3.62,2.31l0,0c1.11.66,2.35,1.35,3.79,2.12l.87.45.3.16c1,.5,2,1,3,1.45l1.22.57,1.26.54c1,.43,1.93.86,2.93,1.25h0c.52.21,1.05.4,1.59.59l.84.31.87.32c.52.2,1,.4,1.58.58s1.09.39,1.63.61c.19.07,1,.42,1,.42l.67.29.68.33,1,.46.77.42.86.47c.45.26.89.52,1.32.8l.29.17c.46.29.91.59,1.35.89l.25.18c.65.45,1.28.92,1.9,1.4.35.28.7.56,1,.85l.48.41c.33.28.61.53.89.79l.52.48c.3.28.59.57.89.87l.4.4c.4.41.79.84,1.18,1.28l.36.43c.28.32.54.64.8,1l.42.54.71,1s.29.4.38.54c.29.43.58.87.85,1.32l.16.26q.45.73.84,1.5l.28.54c.18.38.36.75.53,1.13.09.2.18.4.26.6q.26.61.48,1.23s.15.39.19.51c.19.57.37,1.16.53,1.74l.07.31c.14.56.24,1,.33,1.52,0,.19.07.38.1.58.08.48.14.91.18,1.34l.07.63c0,.53.06,1.06.07,1.6v.32c0,.64,0,1.28-.08,1.93,0,.14-.06.57-.06.57-.05.47-.11,1-.19,1.43l-.12.68c-.09.47-.2,1-.32,1.44l-.15.59c-.18.67-.39,1.34-.64,2l-.09.22c-.23.62-.48,1.22-.75,1.81-.07.16-.3.64-.3.64-.23.48-.48,1-.74,1.44l-.37.67c-.31.53-.65,1.07-1,1.61l-.27.43c-.46.68-1,1.35-1.47,2l-.41.51c-.41.51-.83,1-1.28,1.53l-.6.68c-.44.48-.9,1-1.37,1.44l-.61.62c-.68.67-1.39,1.34-2.15,2l-.13.1-29.24,22.77a7.37,7.37,0,0,1-4.81,1.82Z"/>
      <g>
        <path class="fe26b2ac-a4ba-4b6b-8fef-263c061a1445" d="M143.74,88.72l-.09-.06c-.45-.35-.91-.69-1.37-1l-.19-.13c-.44-.3-.87-.59-1.31-.87l-.37-.23-1.15-.69-.49-.26c-.35-.19-.7-.39-1.05-.57s-.45-.22-.67-.33l-.86-.42-.86-.37c-.23-.09-.45-.2-.68-.28-.51-.21-1-.4-1.52-.57q-2.55-.87-5-1.85a87.52,87.52,0,0,1-25.6-15.36q-1.82-1.59-3.53-3.3A79.68,79.68,0,0,1,86.91,47a98.06,98.06,0,0,1-8.84-19.13c-.17-.5-.36-1-.56-1.52-.09-.22-.2-.45-.29-.67s-.24-.58-.37-.86-.28-.58-.42-.87-.21-.45-.33-.67-.37-.7-.57-1.05c-.08-.16-.17-.32-.26-.48-.22-.39-.46-.77-.69-1.15l-.23-.38c-.27-.43-.57-.87-.87-1.3l-.12-.19c-.33-.47-.67-.93-1-1.38l-.07-.09C62.94,5.09,45.65-3,28,17L5.13,46.31a4.62,4.62,0,0,0,.07,6.38,4.5,4.5,0,0,0,6.37.07L34.09,30.25a4.6,4.6,0,0,1,5.63-.79,4.54,4.54,0,0,1,1,7.08L18.17,59.06a4.61,4.61,0,0,0-.79,5.63,4.55,4.55,0,0,0,7.09,1L47,43.14a4.61,4.61,0,0,1,5.63-.79,4.55,4.55,0,0,1,1,7.09L31.06,72a4.61,4.61,0,0,0-.78,5.63,4.54,4.54,0,0,0,7.08,1L59.87,56a4.63,4.63,0,0,1,5.64-.78,4.54,4.54,0,0,1,1,7.08L44,84.84a4.62,4.62,0,0,0-.79,5.64,4.54,4.54,0,0,0,7.08,1L72.77,68.93a4.6,4.6,0,0,1,5.63-.79,4.54,4.54,0,0,1,1,7.08L56.85,97.73a4.63,4.63,0,0,0-.79,5.64,5.59,5.59,0,0,0,.69.88,5.47,5.47,0,0,0,.88.69,4.62,4.62,0,0,0,5.64-.79L85.78,81.64a4.54,4.54,0,0,1,7.08,1,4.63,4.63,0,0,1-.78,5.64L69.56,110.75a4.54,4.54,0,0,0,1,7.08,4.61,4.61,0,0,0,5.63-.78L98.67,94.53a4.55,4.55,0,0,1,7.09,1,4.61,4.61,0,0,1-.79,5.63L82.46,123.64a4.55,4.55,0,0,0,1,7.09,4.61,4.61,0,0,0,5.63-.79l22.52-22.51a4.54,4.54,0,0,1,7.08,1,4.6,4.6,0,0,1-.79,5.63L95.35,136.54a4.54,4.54,0,0,0,1,7.08,4.62,4.62,0,0,0,5.64-.79l22.51-22.51a4.54,4.54,0,0,1,7.08,1,4.63,4.63,0,0,1-.78,5.64l-22.52,22.51a4.52,4.52,0,0,0,.07,6.38,4.62,4.62,0,0,0,6.38.07L144,133.06C164,115.36,155.92,98.06,143.74,88.72Z"/>
        <g>
          <path class="b24cf627-5686-47dc-8240-e921c64f5d11" d="M40.68,36.54,18.17,59.06a4.61,4.61,0,0,0-.79,5.63,4.55,4.55,0,0,0,7.09,1L47,43.14a4.61,4.61,0,0,1,5.63-.79,4.55,4.55,0,0,1,1,7.09L31.06,72a4.61,4.61,0,0,0-.78,5.63,4.54,4.54,0,0,0,7.08,1L59.87,56a4.63,4.63,0,0,1,5.64-.78,4.54,4.54,0,0,1,1,7.08L44,84.84a4.62,4.62,0,0,0-.79,5.64,4.54,4.54,0,0,0,7.08,1L72.77,68.93a4.6,4.6,0,0,1,5.63-.79,4.54,4.54,0,0,1,1,7.08L56.85,97.73a4.63,4.63,0,0,0-.79,5.64,5.59,5.59,0,0,0,.69.88,5.47,5.47,0,0,0,.88.69,4.62,4.62,0,0,0,5.64-.79L85.78,81.64a4.54,4.54,0,0,1,7.08,1,4.63,4.63,0,0,1-.78,5.64L69.56,110.75a4.54,4.54,0,0,0,1,7.08,4.61,4.61,0,0,0,5.63-.78L98.67,94.53a4.55,4.55,0,0,1,7.09,1,4.61,4.61,0,0,1-.79,5.63L82.46,123.64a4.55,4.55,0,0,0,1,7.09,4.61,4.61,0,0,0,5.63-.79l22.52-22.51a4.54,4.54,0,0,1,7.08,1,4.6,4.6,0,0,1-.79,5.63L95.35,136.54a4.54,4.54,0,0,0,1,7.08,4.62,4.62,0,0,0,5.64-.79l22.51-22.51a4.54,4.54,0,0,1,7.08,1,4.63,4.63,0,0,1-.78,5.64l-22.52,22.51a4.52,4.52,0,0,0,.07,6.38,4.62,4.62,0,0,0,6.38.07L144,133.06c25.54-22.63,5.27-44.6-10.86-50.13-27.24-9.35-45.43-27-55.06-55.06C72.54,11.74,50.58-8.53,28,17L5.13,46.31a4.62,4.62,0,0,0,.07,6.38,4.5,4.5,0,0,0,6.37.07L34.09,30.25a4.6,4.6,0,0,1,5.63-.79A4.54,4.54,0,0,1,40.68,36.54Z"/>
          <path class="ef376080-453b-454c-bcd6-6e2aa4447154" d="M74.06,31.88C83.69,60,101.88,77.59,129.12,86.94c15.11,5.18,33.83,24.77,15.19,45.82,25-22.53,4.88-44.32-11.18-49.83-27.24-9.35-45.43-27-55.06-55.06-5.5-16.06-27.3-36.2-49.82-11.18C49.3-1.95,68.88,16.78,74.06,31.88Z"/>
        </g>
      </g>
    </g>
  </g>
</svg>
