<svg xmlns="http://www.w3.org/2000/svg" width="222.64" height="200.48" viewBox="0 0 222.64 200.48">
  <defs>
    <style>
      .a93b6e1a-1fdf-431c-9c48-08851eff3d64 {
        fill: #fff;
      }

      .a50d75f6-328f-499c-8c02-e7a331270e38, .aa7379cf-415e-4b2e-9382-5d86387c55bb {
        fill: #83d2fc;
      }

      .a50d75f6-328f-499c-8c02-e7a331270e38 {
        stroke: #7f7f7f;
        stroke-miterlimit: 10;
      }

      .ee225bd8-149f-4a33-9b29-6c162d3299c2 {
        fill: #ddebeb;
      }

      .a00ca186-5892-4c00-8746-a16a8fa3346f, .a1d06086-b24e-4747-bf4b-f3a4345a10f2, .aa7379cf-415e-4b2e-9382-5d86387c55bb, .af3ca9cb-7deb-43d3-8a4b-ae0daf0fe247, .be5ebadb-c42c-4237-b30e-0e4e870728bb, .ee225bd8-149f-4a33-9b29-6c162d3299c2, .f26fd630-61b0-4d16-81d8-8eb88e9b48c3, .f37e92c1-1801-4206-91bd-8e06939cb71a, .f6a11fdc-303d-4aab-8f9e-cecffe1a33a5, .f969802c-7433-48f9-bc50-d8f71d32bc76 {
        fill-rule: evenodd;
      }

      .f6a11fdc-303d-4aab-8f9e-cecffe1a33a5 {
        fill: #b6d6d6;
      }

      .be5ebadb-c42c-4237-b30e-0e4e870728bb {
        fill: #6864b3;
      }

      .f37e92c1-1801-4206-91bd-8e06939cb71a {
        fill: #8e83d4;
      }

      .a1d06086-b24e-4747-bf4b-f3a4345a10f2 {
        fill: #48b3ed;
      }

      .af3ca9cb-7deb-43d3-8a4b-ae0daf0fe247 {
        fill: #2d68d6;
      }

      .a00ca186-5892-4c00-8746-a16a8fa3346f {
        fill: #4985f5;
      }

      .f26fd630-61b0-4d16-81d8-8eb88e9b48c3 {
        fill: #3a76e6;
      }

      .f969802c-7433-48f9-bc50-d8f71d32bc76 {
        fill: #1f4ea6;
      }
    </style>
  </defs>
  <g id="b01d81d9-5048-453b-bb28-d6cffb907f0b" data-name="Layer 8">
    <g>
      <path class="a93b6e1a-1fdf-431c-9c48-08851eff3d64" d="M3.72,196.91a4,4,0,0,1-.43-.49,6.6,6.6,0,0,1-.45-.78,5.59,5.59,0,0,1-.5-1.56c0-.1-.06-.35-.07-.46a6.81,6.81,0,0,1,0-1.11,1.64,1.64,0,0,1,0-.22c0-.13,0-.27.05-.41s.15-.79.16-.84c.08-.32.18-.64.29-.95s.27-.75.3-.82l.43-1s.34-.69.35-.7.73-1.31.73-1.32l.62-1,3.62,1.95L5.36,185l.69-1,3.52,2.1-3.4-2.29.8-1.15c.34-.49.75-1.06,1.18-1.64l1.48-2c.59-.77,1.18-1.53,1.78-2.29l1.74-2.18,6.76-8.31c1.2-1.5,2.43-3,3.67-4.55l.84-1c1.26-1.54,2.53-3.08,3.83-4.63l.19-.23c1.25-1.49,2.56-3,3.89-4.59l.66-.77q2.1-2.47,4.26-4.93t4.44-5l.38-.43c3.07-3.44,6.24-6.9,9.4-10.3,1.68-1.8,3.31-3.52,4.94-5.23l3.15,2.64-3-2.83c1-1,2-2.07,3-3.1l3.2-3.28L66,114.7l2.11-2.1,3.4-3.33,3.33-3.2,3.31-3.13c1.6-1.48,3.2-3,4.79-4.39l.82-.74c1.56-1.4,3.11-2.78,4.64-4.12l.61-.53c1.48-1.28,2.94-2.52,4.4-3.74l.47-.39c1.51-1.26,3-2.47,4.48-3.65l.84-.67q2.27-1.78,4.42-3.42l.28-.2c1.49-1.12,2.83-2.09,4.16-3l.74-.52c1.37-1,2.73-1.87,4.06-2.74l.82-.53c1.37-.88,2.73-1.73,4-2.5L120.84,70l.75-.43,2.73-1.5c1-.57,1.93-1,2.8-1.5l.64-.34L130,65.1l2.09,3.53L130.28,65c.8-.4,1.57-.77,2.32-1.13l2.78-1.29c.69-.32,1.35-.61,2-.89l2.47-1,1.72-.67,2.14-.78,1.93-.64,1.5-.47,1.7-.5,2.32-.63,1.49-.38c1.51-.38,2.91-.74,4.3-1.17.74-.23,1.37-.45,2-.69s1.4-.57,2.06-.88c.83-.4,1.51-.76,2.23-1.17l.22-.12c.74-.43,1.52-.92,2.35-1.47l2.53,3.23-2.28-3.4c.42-.27.84-.56,1.27-.87s1-.7,1.45-1.06l0,0L160.63,41a4.1,4.1,0,0,1,.84-6.44c.43-.25.87-.52,1.32-.82l.45-.29a5,5,0,0,1,0-1,8.52,8.52,0,0,1,.17-.85,5.32,5.32,0,0,1,.38-1c.09-.17.29-.5.39-.66a7.15,7.15,0,0,1,.56-.7,5.82,5.82,0,0,1,.56-.53,6,6,0,0,1,.65-.46,5.72,5.72,0,0,1,1.58-.67,5.25,5.25,0,0,1,1.14-.17c.15,0,.44,0,.6,0l.27,0v-.2a5,5,0,0,1,.06-.56,5.55,5.55,0,0,1,.57-1.63,3.91,3.91,0,0,1,.26-.44,5.9,5.9,0,0,1,.63-.81c.1-.1.32-.33.43-.42a5.88,5.88,0,0,1,.92-.67l.54-.28a5.6,5.6,0,0,1,1.36-.42l.45-.05a5,5,0,0,1,.73,0l.22,0v0a3.39,3.39,0,0,1,0-.47,5.45,5.45,0,0,1,.55-1.71c.07-.13.19-.33.27-.46a5.5,5.5,0,0,1,.65-.83c.08-.09.28-.3.37-.38a6,6,0,0,1,1.16-.82c.15-.08.35-.16.52-.23a5.23,5.23,0,0,1,.73-.26l.52-.1.49-.05h.55a5.54,5.54,0,0,1,1.29-3.51,6.22,6.22,0,0,1,1.5-1.3l.37-.2.22-.1a5.08,5.08,0,0,1,.71-.26l.26-.08.4-.09.26,0a5.61,5.61,0,0,1-.05-1.09,4.58,4.58,0,0,1,.08-.66,5.13,5.13,0,0,1,.53-1.54c.07-.14.2-.35.29-.49a5.37,5.37,0,0,1,.61-.77l.37-.38a6.26,6.26,0,0,1,.94-.68,6.41,6.41,0,0,1,.69-.35,5.58,5.58,0,0,1,.9-.3l.3-.06a4,4,0,0,1,.5-.06H192c.2,0,.41,0,.62,0,.23-.35.45-.69.66-1a4.13,4.13,0,0,1,3-1.87,4.08,4.08,0,0,1,3.32,1.13l9.49,9.19.05,0a6.82,6.82,0,0,1,.77-.23,5,5,0,0,1,1-.17,6.33,6.33,0,0,1,.87,0,5.74,5.74,0,0,1,.9.11,6.25,6.25,0,0,1,.74.21,7,7,0,0,1,.76.27c.18.08.39.19.6.3l.62.33c.34.2.71.44,1.12.72l.61.46a12,12,0,0,1,1,.84s.29.3.37.4A6.92,6.92,0,0,1,219,16a5.54,5.54,0,0,1,.33.51,8.27,8.27,0,0,1,.43.78,5,5,0,0,1,.19.51,5.29,5.29,0,0,1,.29,1c0,.14,0,.34.07.49a7.6,7.6,0,0,1,0,1c0,.13,0,.32,0,.45a5.44,5.44,0,0,1-.17,1c0,.09-.06.22-.09.3a7.46,7.46,0,0,1-.34.93l-.22.44a12.44,12.44,0,0,1-.46,1.22l-.19.44c-.18.39-.41.84-.67,1.31-.36.66-.68,1.17-1,1.69l-.3.46c-.27.42-.57.85-.88,1.29,0,0-.63.87-.83,1.13a5.13,5.13,0,0,1,0,1.41,2,2,0,0,1,0,.24,5.2,5.2,0,0,1-.85,2,4.22,4.22,0,0,1-.52.59l-.08.09a5.29,5.29,0,0,1-3.21,1.53c0,.05-.05.38-.07.49a5.32,5.32,0,0,1-.9,2.09,4.44,4.44,0,0,1-.5.56l-.05.06a5,5,0,0,1-2.46,1.38,4,4,0,0,1-.49.11c-.09.1-.2.2-.3.3s0,.24-.06.33a5.16,5.16,0,0,1-.85,2,4.88,4.88,0,0,1-.52.59l-.08.09a5.46,5.46,0,0,1-1.7,1.14,4.61,4.61,0,0,1-.77.24,5,5,0,0,1-.63.13l-.12.11v.07a4,4,0,0,1-.09.52,5,5,0,0,1-.86,1.89,3.87,3.87,0,0,1-.49.57l-.06.06A5.32,5.32,0,0,1,196.19,51a4.22,4.22,0,0,1-.1.62c0,.17-.14.53-.2.69s-.15.36-.21.48a4.75,4.75,0,0,1-.5.85,4.54,4.54,0,0,1-.45.52l-.07.07a5.39,5.39,0,0,1-5,1.43l-.22.15c-.52.34-1,.66-1.54,1l-.23.13c-.53.29-1,.54-1.43.76l-.19.09c-.43.21-.89.42-1.34.61l-.32.14-1.23.49-2.64,1-.79.3-1.89,1.49c-.69.53-1.38,1.06-2.08,1.57l-.17.13c-.84.61-1.54,1.11-2.27,1.61s-1.54,1-2.31,1.54l-.45.28c-.76.49-1.54,1-2.36,1.45l-.22.13c-.86.51-1.65,1-2.46,1.41l-.46.25c-.86.48-1.78,1-2.74,1.46l-.62.32c-1,.5-2,1-3.09,1.54-1.66.8-3.34,1.55-5.06,2.32l-.46.2c-4.4,2-9.38,4.19-13.32,7.33a25.45,25.45,0,0,0-2.57,2.35c-.39.41-.76.84-1.12,1.29a19,19,0,0,0-1.92,2.88c-.29.53-.61,1.08-1,1.65l-.36.56c-.23.37-.47.75-.73,1.14,0,0-.95,1.41-1.2,1.76l-1.3,1.8-1.4,1.85-1.51,1.92-1.58,1.93-2.4,2.84-1.73,2-1.77,2-1.81,2-1.82,2-3.71,3.95-2.27,2.38a6,6,0,0,1-.23,1.36,4.49,4.49,0,0,1-.26.79,6.13,6.13,0,0,1-1.28,1.89l-.34.31a6.05,6.05,0,0,1-1.57,1,6.29,6.29,0,0,1-1,.3,5,5,0,0,1-1,.17l-2,2a5.44,5.44,0,0,1-.23,1.25,4.46,4.46,0,0,1-.24.74,6.05,6.05,0,0,1-1.28,1.9l-.35.32a6,6,0,0,1-1.56,1,5.34,5.34,0,0,1-1,.3,4.62,4.62,0,0,1-1.12.19L94.28,135a6,6,0,0,1-.24,1.37,4.28,4.28,0,0,1-.25.75,6,6,0,0,1-1.27,1.9c-.12.12-.24.22-.37.33a5.3,5.3,0,0,1-1,.65,6.23,6.23,0,0,1-1.45.59,5.41,5.41,0,0,1-1.32.22h-.18l-1.61,1.54a1.55,1.55,0,0,1,0,.21,4.75,4.75,0,0,1-.19,1.23,4,4,0,0,1-.29,1,6,6,0,0,1-1.31,2l0,.05a4.24,4.24,0,0,1-.39.33,5,5,0,0,1-.64.43,6.14,6.14,0,0,1-3.56.93l-1.25,1.18a6.15,6.15,0,0,1-1.79,4.76l0,0a4.1,4.1,0,0,1-.84.65,5.42,5.42,0,0,1-1.27.7,6.18,6.18,0,0,1-.85.22,5.77,5.77,0,0,1-1.41.18,4.89,4.89,0,0,1-.73-.07l-5.47,5L60,167l-4.26,3.76-3.64,3.13L49,176.47l-3.33,2.73-2.58,2-3.37,2.56-2.5,1.81L35.1,187.1l-2.62,1.71-.78.5-.32.17c-.37.23-.66.41-1,.59l-.2.11-1.31.73c-.6.32-1.85,1-1.86,1l-1.85.91-1.94.92c-1.81.84-3.69,1.69-5.51,2.48-.77.33-1.47.61-2.13.87l-.46.17c-.6.22-1,.38-1.44.51l-.51.16L11.79,194,13,198c-.35.1-.71.21-1,.29l-.52.13c-.46.1-.79.17-1.09.22l-.58.08c-.37,0-.7.07-1,.08H8.12a10,10,0,0,1-1-.1l-.66-.15a5.67,5.67,0,0,1-1.12-.42,4.84,4.84,0,0,1-.67-.38,5.68,5.68,0,0,1-.56-.44A3.25,3.25,0,0,1,3.72,196.91Z"/>
      <g>
        <path class="a50d75f6-328f-499c-8c02-e7a331270e38" d="M210.74,32.38l.14-.18h0a1.25,1.25,0,0,0,.18-.93A1.57,1.57,0,0,0,211,31a.43.43,0,0,0,0-.07,1.24,1.24,0,0,0-.25-.35l-.22-.23c2.75-3.42,4.67-6.39,5.18-8.3a.7.7,0,0,1,0-.14c.91-1.46,1-3-1.2-4.65a3.65,3.65,0,0,1-.31-.24c-2.62-1.77-3.5-1.73-5.57.37L196.72,5.82c-.59.94-1.26,1.95-2,3l11.37,11.06-.83.84L194,9.79l-.11.15L193,9.07a1,1,0,0,0-.31-.22l-.06,0a1.17,1.17,0,0,0-.69-.08h-.06c-.95.23-1.76,1.46-.93,2.3l1.18,1.17c-.1.14-.21.28-.31.43l10.93,10.62-.84.84L191.05,13.55l-1.33,1.56h0l-.23.27c-.22.25-.44.51-.68.76l-.71-.71a1.06,1.06,0,0,0-.62-.35,1.65,1.65,0,0,0-.82.16h0l-.14.06a1.32,1.32,0,0,0-.48,2.06l.89.9-.36.38v0a5.92,5.92,0,0,1-.41.45l-.63.66L196,30l-.85.83L184.68,20.6,183.24,22l0,0-1-1a1.12,1.12,0,0,0-.29-.21l-.13-.07-.17,0a1.33,1.33,0,0,0-.28,0h-.15l-.13,0c-.94.24-1.72,1.47-.89,2.29l1,1c-.44.45-.9.88-1.37,1.32h0c-.34.34-.74.67-1.11,1l10.51,10.15-.86.82L177.81,27.2l-.5.44L176,26.37a1.08,1.08,0,0,0-.32-.22l-.08,0a1,1,0,0,0-.33-.08h0a1.3,1.3,0,0,0-.34,0l-.06,0c-1,.24-1.77,1.49-.94,2.31l1.17,1.17h0l.19.18L185.58,40l-.74.69L174.22,30.32c-.94.8-1.88,1.54-2.79,2.24L182.21,43l-.65.59-11.87-11.8a1.31,1.31,0,0,0-.31-.23h0c-1.17-.56-2.75,1.16-1.69,2.21l.94,1-.25.19a8.44,8.44,0,0,0-.74.56l11.05,10.7q-.45.4-.9.78L166.59,36.17c-1.08.73-2.09,1.4-3.07,2L175,49.28c-20.8,17-17.91,4.33-55.17,26C108.49,81.94,94.93,92.92,81,106a1.29,1.29,0,0,1-.17.16L77.71,109c-.66.62-1.31,1.26-2,1.88l-1.35,1.3-2.16,2.12L71,115.51l-2.1,2.09L67.56,119l-1.86,1.88-1.84,1.88-1.34,1.38q-1.49,1.53-3,3.08l-.18.19C46.33,141,33.74,155.48,23.11,168.81l-.48.61c-3.71,4.62-8.87,10.67-12.38,15.69a.44.44,0,0,0-.08.11c-.16.23-.32.45-.47.68l-.11.16-.47.71L9,187l-.28.44-.19.31-.3.49-.25.44-.15.27-.21.38s-.05.1-.08.16c-.13.25-.25.49-.36.73a.52.52,0,0,0-.06.13,3.52,3.52,0,0,0-.18.4l0,.05a7.93,7.93,0,0,0-.4,1.19h0a2.4,2.4,0,0,0,.14,2h0c.85,1.16,3.67.9,9.45-1.58a119.5,119.5,0,0,0,13.46-6.62v0c7.28-4.54,17.21-11.79,41.63-34.55l.16.16a2.07,2.07,0,0,0,2.87.07h0l0,0v0a2.07,2.07,0,0,0,0-2.94l-.07-.07,4.08-3.84v0c.27-.28.55-.54.83-.8a2.06,2.06,0,0,0,2.78,0h0s0,0,0,0h0a2.09,2.09,0,0,0,.14-2.79l4.09-3.91h0l.82-.78a2.08,2.08,0,0,0,2.58-.17h0l.06-.06a2.08,2.08,0,0,0,.25-2.57l4.09-4h0l.55-.55.16-.15.12-.12a2.09,2.09,0,0,0,2.43-.27h0l.07-.07a2,2,0,0,0,.31-2.45c1.28-1.27,2.64-2.63,4-4.06h0l.86-.86a2,2,0,0,0,2.37-.25h0l.07-.07a2,2,0,0,0,.28-2.5c9.85-10.15,21-22.5,25.32-30.37,5.48-10.07,17-13.64,26.24-18.08A96.88,96.88,0,0,0,177.66,56.7c3.77-1.55,6.64-2,11.39-5.58l.38-.29.5.5a1.29,1.29,0,0,0,1.83,0,.81.81,0,0,0,.12-.14h0a.75.75,0,0,0,.06-.13.72.72,0,0,0,.09-.2.48.48,0,0,0,0-.17.77.77,0,0,0,0-.3c0-.05,0-.09,0-.14a1.43,1.43,0,0,0-.09-.34l0-.06a1.23,1.23,0,0,0-.25-.36l-.29-.29c1.06-.87,2.14-1.77,3.21-2.7l0,0a1.29,1.29,0,0,0,1.83,0,.81.81,0,0,0,.12-.14h0a1.21,1.21,0,0,0,.18-1v0a1.19,1.19,0,0,0-.13-.34,1,1,0,0,0-.17-.24c1-.94,2.07-1.9,3.09-2.87a1.26,1.26,0,0,0,1.63-.14,1.15,1.15,0,0,0,.14-.17h0a1.21,1.21,0,0,0,.18-.93,1.09,1.09,0,0,0-.08-.31l0-.08a.75.75,0,0,0-.07-.12c1-1,2-2,3-3A1.26,1.26,0,0,0,206,37.1l.11-.13h0a1.21,1.21,0,0,0,.18-1h0a1.48,1.48,0,0,0-.13-.35l-.12-.18c1-1.07,1.91-2.12,2.79-3.14l0,.06A1.29,1.29,0,0,0,210.74,32.38Zm-11.38-5.74-2-2,2,2Z"/>
        <g>
          <path class="ee225bd8-149f-4a33-9b29-6c162d3299c2" d="M177.05,51.26,163.52,38.13c1-.56,2-1.23,3.07-2l13,12.57ZM207.16,21,194.72,8.85c.74-1.08,1.41-2.09,2-3l13,12.58Zm-3.35,3.35-12-11.65c.77-1,1.5-1.92,2.17-2.86l12.33,12Zm-3.32,3.39L188.7,16.24c.84-.91,1.61-1.81,2.35-2.69L203,25.14ZM197.14,31,185.49,19.73c.84-.84,1.64-1.71,2.44-2.58l11.72,11.38Zm-3.36,3.35L182.14,23.15l2.54-2.55L196.3,31.88Zm-3.32,3.39L178.68,26.4c.87-.8,1.75-1.61,2.58-2.45l11.68,11.28Zm-3.35,3.35-12-11.58c.91-.77,1.78-1.58,2.69-2.35l11.82,11.42Zm-3.38,3.39-12.3-12c.91-.7,1.85-1.44,2.79-2.24l12,11.68Zm-3.36,3.35L167.6,35.5c.9-.7,1.88-1.4,2.89-2.21l12.4,12.07Z"/>
          <path class="f6a11fdc-303d-4aab-8f9e-cecffe1a33a5" d="M207.16,21,194.72,8.85c.3-.44.6-.87.87-1.28l12.67,12.27ZM177.05,51.26,163.52,38.13c.44-.23.88-.53,1.35-.8l13.26,12.86Zm3.32-3.39L167.6,35.5c.4-.34.84-.64,1.27-.94L181.45,46.8Zm3.36-3.35-12.3-12c.4-.27.8-.6,1.21-.94l12.19,11.79Zm3.38-3.39-12-11.58a13.91,13.91,0,0,0,1.14-1l11.92,11.52Zm3.35-3.35L178.68,26.4c.37-.37.77-.7,1.11-1L191.5,36.67Zm3.32-3.39L182.14,23.15l1.1-1.11,11.62,11.28ZM197.14,31,185.49,19.73c.33-.33.7-.7,1-1.11L198.21,30Zm3.35-3.35L188.7,16.24c.37-.37.67-.74,1-1.14l11.82,11.48Zm3.32-3.39-12-11.65c.3-.44.6-.81.93-1.21L204.91,23.2Z"/>
          <path class="be5ebadb-c42c-4237-b30e-0e4e870728bb" d="M184,46.05c1.16,1.16-.92,3.11-2,2L167.65,33.8c-1.17-1.16.88-3.14,2-2L184,46.05Zm23.31-22.76c1.13,1.13-.92,3.11-2.08,1.94L191,11.05c-1.16-1.17.88-3.15,2.05-2l14.29,14.22Zm-5.36,5.91c1.16,1.16-.88,3.14-2.05,2L186,17.36a1.32,1.32,0,0,1,.48-2.06,1.86,1.86,0,0,1,1-.23,1.06,1.06,0,0,1,.62.35L201.93,29.2Zm-5.5,6c1.17,1.16-.88,3.14-2,2L180.14,23c-1.17-1.17.88-3.14,2-2l14.25,14.19Zm-6.17,5.35c1.16,1.17-.88,3.14-2,2L174,28.38c-1.17-1.16.91-3.17,2.08-2l14.22,14.22Z"/>
          <path class="f37e92c1-1801-4206-91bd-8e06939cb71a" d="M207.29,23.29a1.28,1.28,0,0,1-.32,2L191.86,9.94a1.16,1.16,0,0,1-.32-1.06,1.2,1.2,0,0,1,1.46.19l14.29,14.22Zm-17,17.3a1.32,1.32,0,0,1-.25,2L174.86,27.27a1,1,0,0,1-.28-1.08,1.2,1.2,0,0,1,1.46.18l14.22,14.22ZM184,46.05a1.29,1.29,0,0,1-.32,2L168.55,32.7a1.07,1.07,0,0,1-.32-1.06,1.24,1.24,0,0,1,1.46.19L184,46.05Zm12.45-10.81a1.27,1.27,0,0,1-.28,2L181,21.92a1.19,1.19,0,0,1-.32-1.06,1.15,1.15,0,0,1,1.46.19l14.25,14.19Zm5.94-5.6a1.3,1.3,0,0,1-.31,2L186.94,16.29a1.15,1.15,0,0,1-.31-1,1.22,1.22,0,0,1,1.46.18l14.28,14.22Z"/>
          <path class="a1d06086-b24e-4747-bf4b-f3a4345a10f2" d="M214.51,17.23a3.65,3.65,0,0,1-.31-.24c-2.7-1.82-3.54-1.73-5.76.55-61.21,62-38.26,28.46-88.6,57.77C92,91.58,50.86,134,23.11,168.81c-9.09,11.43-28.52,32.84-7,23.62a119.09,119.09,0,0,0,13.49-6.64c26.72-17,52-55.11,74.56-77.44,14.45-14.25,18.75-21.62,27.76-27.56,3.6-2.36,8.25-5.7,15.55-9.79,4.08-2.23,9.15-3.46,15.16-6,4.18-1.85,8.25-4.89,12.36-7,5.29-2.76,8.27-2.46,14.09-6.83,11.53-8.79,25.13-23.49,26.63-29.1.52-2-.1-3.05-1.17-4.79Z"/>
          <path class="aa7379cf-415e-4b2e-9382-5d86387c55bb" d="M159.82,58.76c-8.07,2.93-15.06,2-40,16.55C92,91.58,50.86,134,23.11,168.81c-6.65,8.37-18.8,22-16.5,25.21,13.36-8.77,60.07-57.4,75.48-74.18,17-18.46,39.13-41.8,51.6-48.11,7.79-4,18.18-8.44,26.13-13Z"/>
          <path class="af3ca9cb-7deb-43d3-8a4b-ae0daf0fe247" d="M95.09,93.41c-18.47,15.52-38.78,36.38-56.35,56.7,8.26-6.56,14.06-6.26,16.08-1.69,6.22,14.33-24.44,31.42-25.29,37.41C38.29,180.36,50.89,171,88,135.36c2.29-2.22,34.59-32.74,42.63-47.5,5.48-10.07,17-13.64,26.24-18.08,11.83-5.73,17.21-10,25.27-16.77,12.32-10.48,25-23.39,30-27.5,2.59-2.17,6.62-5.18,2.46-8.28C187.32,45.17,176.2,53.62,168,58.28c-12.94,7.24-34.64,12.23-45.9,24.31-5.86,6.27-19.5,29.44-29.29,23.74-3.27-1.87-3.16-7,2.3-12.92Z"/>
          <path class="a00ca186-5892-4c00-8746-a16a8fa3346f" d="M95.09,93.41c-18.47,15.52-38.78,36.38-56.35,56.7,8.26-6.56,14.06-6.26,16.08-1.69C66,137,76.3,126.18,82.09,119.84c3.85-4.13,7.91-8.52,12.06-12.89a4.92,4.92,0,0,1-1.36-.62c-3.27-1.87-3.16-7,2.3-12.92Z"/>
          <path class="af3ca9cb-7deb-43d3-8a4b-ae0daf0fe247" d="M206,35.31a1.26,1.26,0,1,1-1.78,1.77l-.82-.82a1.26,1.26,0,1,1,1.78-1.78l.82.83ZM191.74,49.52a1.28,1.28,0,1,1-1.81,1.81l-.82-.82a1.28,1.28,0,1,1,1.81-1.81l.82.82ZM201.23,40a1.28,1.28,0,1,1-1.81,1.81L198.6,41a1.28,1.28,0,1,1,1.81-1.81l.82.82Zm9.49-9.48a1.28,1.28,0,1,1-1.81,1.81l-.82-.83a1.28,1.28,0,0,1,0-1.83,1.29,1.29,0,0,1,1.83,0l.82.83ZM196.47,44.79a1.28,1.28,0,0,1,.05,1.8,1.29,1.29,0,0,1-1.83,0l-.82-.82A1.26,1.26,0,1,1,195.65,44l.82.82Z"/>
          <path class="f26fd630-61b0-4d16-81d8-8eb88e9b48c3" d="M206,35.31a1.27,1.27,0,0,1,.19,1.66,1.33,1.33,0,0,1-.89-.42l-.82-.82a1.26,1.26,0,0,1-.19-1.66,1.5,1.5,0,0,1,.89.41l.82.83ZM191.74,49.52a1.3,1.3,0,0,1,.16,1.7,1.57,1.57,0,0,1-.89-.42l-.82-.82a1.31,1.31,0,0,1-.19-1.66,1.32,1.32,0,0,1,.92.38l.82.82ZM201.23,40a1.32,1.32,0,0,1,.19,1.67,1.37,1.37,0,0,1-.92-.39l-.82-.82a1.31,1.31,0,0,1-.19-1.66,1.32,1.32,0,0,1,.92.38l.82.82Zm9.49-9.48a1.31,1.31,0,0,1,.19,1.66,1.37,1.37,0,0,1-.92-.39l-.82-.82a1.29,1.29,0,0,1-.19-1.66,1.32,1.32,0,0,1,.92.38l.82.83ZM196.47,44.79a1.27,1.27,0,0,1,.19,1.67,1.33,1.33,0,0,1-.89-.42l-.82-.82a1.28,1.28,0,0,1-.19-1.67,1.57,1.57,0,0,1,.89.42l.82.82Z"/>
          <path class="f969802c-7433-48f9-bc50-d8f71d32bc76" d="M94,129.56c-2.37-2.37-1.94-4.09-1.38-4.86a1.67,1.67,0,0,1,2.51.23l1.79,1.78c-1,1-2,2-2.92,2.85ZM70.31,152a3.71,3.71,0,0,1-1.08-2.89c.24-2.71,1.67-2.36,2.83-1.19l1.27,1.27-3,2.81ZM86.14,137.1c-2-1.95-1.77-3.92-1.2-4.69.6-.94,1.83-.46,4.16,1.87L88,135.36l-1.81,1.74Zm15.53-15.19c-2.36-2.36-1.91-4.32-1.34-5.09s1.76-.26,2.44.43l1.75,1.75c-.94,1-1.91,2-2.85,2.91ZM78.26,144.64a4.08,4.08,0,0,1-1-4.52c.46-1.22,1.69-.66,2.51.16l1.51,1.51c-1,1-2,1.88-3,2.85Z"/>
          <path class="a1d06086-b24e-4747-bf4b-f3a4345a10f2" d="M97.27,125.49a2,2,0,0,1,0,2.92,2.09,2.09,0,0,1-3,0L93,127a2.09,2.09,0,0,1,0-3,2.06,2.06,0,0,1,2.92,0l1.37,1.37Zm-23,23a2.06,2.06,0,1,1-2.92,2.91L70,150.07a2.06,2.06,0,1,1,2.92-2.91l1.37,1.37Zm15.35-15.36a2.06,2.06,0,1,1-2.92,2.92l-1.37-1.37a2.06,2.06,0,1,1,2.92-2.92l1.37,1.37ZM105,117.82a2,2,0,1,1-2.89,2.88l-1.37-1.37a2,2,0,1,1,2.89-2.88l1.37,1.37Zm-23,23A2.06,2.06,0,1,1,79,143.77l-1.37-1.38a2.06,2.06,0,1,1,2.91-2.91l1.37,1.37Z"/>
          <path class="aa7379cf-415e-4b2e-9382-5d86387c55bb" d="M97.27,125.49a2,2,0,0,1,0,2.92l-.07.07a2.14,2.14,0,0,1-1.26-.59l-1.37-1.38a2.07,2.07,0,0,1,0-2.91l.07-.07a2.11,2.11,0,0,1,1.26.59l1.37,1.37Zm-23,23a2.1,2.1,0,0,1,0,3,1.89,1.89,0,0,1-1.26-.59l-1.37-1.37a2,2,0,0,1,0-2.92l.07-.06a2,2,0,0,1,1.26.59l1.37,1.37Zm15.35-15.36a2.09,2.09,0,0,1,0,2.92l-.06.06a2.06,2.06,0,0,1-1.26-.59l-1.37-1.37a2.06,2.06,0,0,1,0-2.91l.07-.07a2.11,2.11,0,0,1,1.26.59l1.37,1.37ZM105,117.82a2,2,0,0,1,0,2.91l-.07.07a2.11,2.11,0,0,1-1.26-.59l-1.37-1.37a2.09,2.09,0,0,1,0-3,2,2,0,0,1,1.26.59l1.37,1.37Zm-23,23a2.09,2.09,0,0,1,0,3,2.11,2.11,0,0,1-1.26-.59l-1.37-1.37a2,2,0,0,1,0-2.92l.06-.06a2.11,2.11,0,0,1,1.26.59l1.37,1.37Z"/>
        </g>
      </g>
    </g>
  </g>
</svg>
