<svg xmlns="http://www.w3.org/2000/svg" xmlns:xlink="http://www.w3.org/1999/xlink" width="151" height="210" viewBox="0 0 151 210">
  <defs>
    <style>
      .e42f3dfa-825c-4324-a591-7326b3cccb81, .f1b4da0f-d0f6-4d35-97a7-21e74db51b5d {
        fill: none;
      }

      .a6bff35a-d58c-4919-a1ef-e00f7fd53fb9 {
        fill: #26221a;
      }

      .a403d23f-48ff-4f73-be16-e5d9b2d2bde9 {
        fill: #e2424a;
      }

      .e42f3dfa-825c-4324-a591-7326b3cccb81 {
        stroke: #89181a;
        stroke-width: 2px;
      }

      .e42f3dfa-825c-4324-a591-7326b3cccb81, .e8a68816-05fe-40d2-a286-7372b5664cab {
        stroke-miterlimit: 10;
      }

      .bf9133a7-b0bd-42ae-9555-ecf081e043d6, .e8a68816-05fe-40d2-a286-7372b5664cab {
        fill: #facacc;
      }

      .a6df3498-ca42-4f72-a1d6-fd4b7d54c56b {
        fill: #89181a;
      }

      .bf21fa13-b433-417f-ab07-6ad26a2581f0 {
        fill: #7e143a;
      }

      .aafbc34e-d094-4754-909e-c450f3470ef1, .e1f2522e-a1fd-4907-b4bc-fb104f6da897 {
        fill: #7f143b;
      }

      .e1f2522e-a1fd-4907-b4bc-fb104f6da897 {
        opacity: 0.31;
      }

      .a9402ec0-c6d2-4d5e-9248-4a7875167ad0 {
        fill: #8a181b;
      }

      .e8a68816-05fe-40d2-a286-7372b5664cab {
        stroke: #8a181b;
      }

      .fad6eb84-f303-4d3d-8bb0-8a190eca58ca {
        opacity: 0.31;
      }

      .ab4cb123-a2e1-441b-8781-9cbfa9ae7bda {
        clip-path: url(#abac982d-d997-4d4d-8d4e-15e9bd247c88);
      }

      .f064a842-f9c4-4955-80c3-2d88675eeb87 {
        clip-path: url(#a1396d53-234a-4729-aa05-6d933e872cd4);
      }

      .ea67c074-9e78-4f38-8302-843113f8d3fb {
        clip-path: url(#ee3112e5-b41a-4e3f-841a-031fcb6ae820);
      }

      .fe346237-bdea-4d50-8c57-b42f161c203c {
        clip-path: url(#bc3a3a18-ccb3-4951-be0f-b0ebd5c3ebdc);
      }

      .f66c158a-05e3-4ea4-b587-2ce4a5f423d1 {
        clip-path: url(#a0108f40-763d-4f77-8746-9921846778a6);
      }

      .b98f51d6-68d7-4cf1-b301-c411b796e054 {
        clip-path: url(#fe6f06e5-a154-40bc-9b09-ebfc5e8598f8);
      }

      .e0b9a4c6-143a-4921-9f0f-291d81f14509 {
        clip-path: url(#b794beed-0cd4-4051-80f8-7ece734003f9);
      }
    </style>
    <clipPath id="abac982d-d997-4d4d-8d4e-15e9bd247c88">
      <rect class="f1b4da0f-d0f6-4d35-97a7-21e74db51b5d" x="24.04" y="59.26" width="11.09" height="41.14"/>
    </clipPath>
    <clipPath id="a1396d53-234a-4729-aa05-6d933e872cd4">
      <rect class="f1b4da0f-d0f6-4d35-97a7-21e74db51b5d" x="107.93" y="57.64" width="11.09" height="39.53"/>
    </clipPath>
    <clipPath id="ee3112e5-b41a-4e3f-841a-031fcb6ae820">
      <rect class="f1b4da0f-d0f6-4d35-97a7-21e74db51b5d" x="12.55" y="105.24" width="29.04" height="97.6"/>
    </clipPath>
    <clipPath id="bc3a3a18-ccb3-4951-be0f-b0ebd5c3ebdc">
      <rect class="f1b4da0f-d0f6-4d35-97a7-21e74db51b5d" x="31.1" y="106.04" width="22.59" height="98.41"/>
    </clipPath>
    <clipPath id="a0108f40-763d-4f77-8746-9921846778a6">
      <rect class="f1b4da0f-d0f6-4d35-97a7-21e74db51b5d" x="57.48" y="104.94" width="14.67" height="103.83"/>
    </clipPath>
    <clipPath id="fe6f06e5-a154-40bc-9b09-ebfc5e8598f8">
      <rect class="f1b4da0f-d0f6-4d35-97a7-21e74db51b5d" x="86.76" y="101.04" width="16.13" height="106.99"/>
    </clipPath>
    <clipPath id="b794beed-0cd4-4051-80f8-7ece734003f9">
      <rect class="f1b4da0f-d0f6-4d35-97a7-21e74db51b5d" x="101.7" y="100.04" width="42.28" height="100.12"/>
    </clipPath>
  </defs>
  <g id="bd027081-2288-48e1-8c70-ec327b89552e" data-name="Layer 20">
    <g>
      <rect class="a6bff35a-d58c-4919-a1ef-e00f7fd53fb9" x="66.81" y="16.62" width="6.45" height="1.47" transform="translate(51.3 87.04) rotate(-88.87)"/>
      <polygon class="a6bff35a-d58c-4919-a1ef-e00f7fd53fb9" points="94.05 31.63 69.36 22.18 70.55 22.19 46.15 31.03 45.68 29.72 69.4 18.97 69.99 18.7 70.58 18.98 94.55 30.33 94.05 31.63"/>
      <path class="a6bff35a-d58c-4919-a1ef-e00f7fd53fb9" d="M70.84,1.94a5.45,5.45,0,0,1,3.82,1.72c.48,0,1-.05,1.43-.06h.44A7,7,0,0,0,70.87.38,7.37,7.37,0,0,0,63.6,7.82a7.36,7.36,0,0,0,7,7.72l0-1.56a5.84,5.84,0,0,1-5.53-6.13,5.85,5.85,0,0,1,5.77-5.91"/>
      <path class="a403d23f-48ff-4f73-be16-e5d9b2d2bde9" d="M2.07,90.72S-3.58,33.45,39.16,29.6l12.11-2.77c4.34,15.72,35.67,14.8,37,2.31,21.11.27,45.24,1.81,50,56.87,0,0-.87,6.47-19.11,10.17-2.53,1-93,13.24-117.07-5.46"/>
      <path class="e42f3dfa-825c-4324-a591-7326b3cccb81" d="M2.07,90.72S-3.58,33.45,39.16,29.6l12.11-2.77c4.34,15.72,35.67,14.8,37,2.31,21.11.27,45.24,1.81,50,56.87,0,0-.87,6.47-19.11,10.17C116.61,97.17,26.15,109.42,2.07,90.72Z"/>
      <path class="bf9133a7-b0bd-42ae-9555-ecf081e043d6" d="M45.61,25.88s2.27-3.81,5.15-1.58c3.84,14.5,32.65,21.19,38.41,2.23,1.93-1.11,3.25-.43,4,1.79,0,0-3.08,16.06-23.25,14.94S46,26.53,46,26.53"/>
      <path class="a6df3498-ca42-4f72-a1d6-fd4b7d54c56b" d="M45.61,25.88a5.41,5.41,0,0,1,2.2-2.17,2.72,2.72,0,0,1,1.59-.23,3.48,3.48,0,0,1,1.5.65l.05,0,0,.08c1.19,3.93,4.17,7,7.53,9.14a26.33,26.33,0,0,0,11.3,3.85,19.69,19.69,0,0,0,11.47-2.06,14.28,14.28,0,0,0,4.35-3.76,16.17,16.17,0,0,0,2.62-5.17l.11-.37.33-.19a5,5,0,0,1,1.55-.6,2.9,2.9,0,0,1,1.92.26,3.53,3.53,0,0,1,1.32,1.24,7.26,7.26,0,0,1,.69,1.4l.1.27-.06.26a19.91,19.91,0,0,1-3.48,7.27,20.56,20.56,0,0,1-6,5.34,24.55,24.55,0,0,1-7.52,2.61c-.65.14-1.31.15-2,.23s-1.31.16-2,.16c-1.31,0-2.62,0-3.92-.13a29.48,29.48,0,0,1-14.66-5,23.41,23.41,0,0,1-5.47-5.5A20.45,20.45,0,0,1,46,26.53a23,23,0,0,0,9.33,11.62,24.16,24.16,0,0,0,6.82,3.05,33.48,33.48,0,0,0,7.39,1.23c1.24.09,2.5,0,3.74,0,.62,0,1.24-.13,1.85-.19A18.51,18.51,0,0,0,76.93,42a22.78,22.78,0,0,0,6.87-2.52,18.85,18.85,0,0,0,5.35-4.87,18.26,18.26,0,0,0,3.09-6.48l0,.52a2.91,2.91,0,0,0-1-1.55.94.94,0,0,0-.66-.08,3.12,3.12,0,0,0-.91.36l.45-.56a18.58,18.58,0,0,1-3,5.78,15.74,15.74,0,0,1-5,4.19,20.91,20.91,0,0,1-12.53,2,26.67,26.67,0,0,1-11.74-4.48,17.46,17.46,0,0,1-7.33-10l.08.11a3.28,3.28,0,0,0-1.29-.65,2.69,2.69,0,0,0-1.43.11,5.35,5.35,0,0,0-2.3,1.95"/>
      <path class="e42f3dfa-825c-4324-a591-7326b3cccb81" d="M34.33,59.26s-4,31.46.81,40.33"/>
      <path class="a403d23f-48ff-4f73-be16-e5d9b2d2bde9" d="M108.54,57.64s3.35,21.78,0,39.53"/>
      <path class="e42f3dfa-825c-4324-a591-7326b3cccb81" d="M108.54,57.64s3.35,21.78,0,39.53"/>
      <path class="a403d23f-48ff-4f73-be16-e5d9b2d2bde9" d="M33.93,100s-27,56.87-28.64,98.82c1.8,4.08,5.32,4.72,11.3,2.41,1.57,4.48,7.68,4.39,12.9,2.42,7.11-2,7.5-.59,15.33,3.23,4,2.54,11,2.22,14.52-.81,2.64,3.35,8.31,4.58,11.64,2.64a18,18,0,0,1,4-1.84c6-1.73,8.53-1.91,14.19,1.62,3.5,1.64,12.51.56,13.72-2.42,2.33,3.11,6.52,1.59,10.48,0,4.4-4.25,6.45-5.64,11.29-4.84.6.1,2.64.66,3.23.81,3.23.81,7.94.74,8.87-1.61,3.5.45,6.62-.43,6.46-2.42,4.4,1.1,6.85-2.82,5.64-5.65,0,0-22.58-79.85-40.73-95.58Z"/>
      <path class="e42f3dfa-825c-4324-a591-7326b3cccb81" d="M33.93,100s-27,56.87-28.64,98.82c1.8,4.08,5.32,4.72,11.3,2.41,1.57,4.48,7.68,4.39,12.9,2.42,7.11-2,7.5-.59,15.33,3.23,4,2.54,11,2.22,14.52-.81,2.64,3.35,8.31,4.58,11.64,2.64a18,18,0,0,1,4-1.84c6-1.73,8.53-1.91,14.19,1.62,3.5,1.64,12.51.56,13.72-2.42,2.33,3.11,6.52,1.59,10.48,0,4.4-4.25,6.45-5.64,11.29-4.84.6.1,2.64.66,3.23.81,3.23.81,7.94.74,8.87-1.61,3.5.45,6.62-.43,6.46-2.42,4.4,1.1,6.85-2.82,5.64-5.65,0,0-22.58-79.85-40.73-95.58Z"/>
      <path class="bf21fa13-b433-417f-ab07-6ad26a2581f0" d="M110.42,103.28c-25.81,2.85-49.85,2.87-76,1.24a2.21,2.21,0,0,1-2.09-2l-.44-4.13a1.72,1.72,0,0,1,1.89-1.86,357.33,357.33,0,0,0,76.56-2.1,1.85,1.85,0,0,1,2.13,1.81l0,4.87a2.19,2.19,0,0,1-2,2.12"/>
      <path class="a403d23f-48ff-4f73-be16-e5d9b2d2bde9" d="M110.16,108.46s27.42,62.92,31.45,85.51"/>
      <path class="a403d23f-48ff-4f73-be16-e5d9b2d2bde9" d="M136.77,198s-26.61-79-33.07-90.34"/>
      <path class="a403d23f-48ff-4f73-be16-e5d9b2d2bde9" d="M99.67,106.85s15.32,87.11,13.71,96"/>
      <path class="a403d23f-48ff-4f73-be16-e5d9b2d2bde9" d="M94.83,107.66s5.64,79.05,8.87,94.37"/>
      <path class="a6df3498-ca42-4f72-a1d6-fd4b7d54c56b" d="M94.83,107.66q1.42,11.78,2.56,23.57c.78,7.86,1.46,15.74,2.16,23.6l2,23.61.49,5.9q.23,3,.5,5.91.44,5.91,1.21,11.78A223.55,223.55,0,0,1,100,178.6c-1-7.85-1.69-15.72-2.39-23.6s-1.26-15.76-1.72-23.65-.83-15.79-1-23.69"/>
      <path class="a403d23f-48ff-4f73-be16-e5d9b2d2bde9" d="M90,206.06s-4-86.31-1.61-98.4"/>
      <path class="a403d23f-48ff-4f73-be16-e5d9b2d2bde9" d="M69.82,206.06s-2.42-70.17,2.42-97.6"/>
      <path class="a403d23f-48ff-4f73-be16-e5d9b2d2bde9" d="M59.34,202.84s-1.62-66.15,4-93.57"/>
      <path class="a6df3498-ca42-4f72-a1d6-fd4b7d54c56b" d="M59.34,202.84c-.56-7.81-.87-15.63-1-23.45s-.08-15.64.12-23.47.61-15.64,1.33-23.44a150.12,150.12,0,0,1,3.57-23.21c-1.15,7.74-1.57,15.53-2,23.32s-.7,15.59-.89,23.39-.39,15.61-.55,23.42-.35,15.62-.57,23.44"/>
      <path class="a403d23f-48ff-4f73-be16-e5d9b2d2bde9" d="M37.56,200.42s4.84-74.21,15.32-92"/>
      <ellipse class="bf9133a7-b0bd-42ae-9555-ecf081e043d6" cx="33.95" cy="111.96" rx="3.59" ry="3.75"/>
      <ellipse class="bf9133a7-b0bd-42ae-9555-ecf081e043d6" cx="56.01" cy="113.02" rx="3.59" ry="3.75"/>
      <ellipse class="bf9133a7-b0bd-42ae-9555-ecf081e043d6" cx="79.5" cy="113.55" rx="3.59" ry="3.75"/>
      <ellipse class="bf9133a7-b0bd-42ae-9555-ecf081e043d6" cx="100.11" cy="112.21" rx="3.59" ry="3.75"/>
      <ellipse class="bf9133a7-b0bd-42ae-9555-ecf081e043d6" cx="117.58" cy="124.39" rx="3.59" ry="3.75"/>
      <ellipse class="bf9133a7-b0bd-42ae-9555-ecf081e043d6" cx="90.43" cy="128.14" rx="3.59" ry="3.75"/>
      <ellipse class="bf9133a7-b0bd-42ae-9555-ecf081e043d6" cx="66.96" cy="128.14" rx="3.59" ry="3.75"/>
      <ellipse class="bf9133a7-b0bd-42ae-9555-ecf081e043d6" cx="42.4" cy="126.73" rx="3.59" ry="3.75"/>
      <ellipse class="bf9133a7-b0bd-42ae-9555-ecf081e043d6" cx="25.46" cy="143.85" rx="3.59" ry="3.75"/>
      <ellipse class="bf9133a7-b0bd-42ae-9555-ecf081e043d6" cx="52.02" cy="144.73" rx="3.59" ry="3.75"/>
      <ellipse class="bf9133a7-b0bd-42ae-9555-ecf081e043d6" cx="78.66" cy="147.6" rx="3.59" ry="3.75"/>
      <ellipse class="bf9133a7-b0bd-42ae-9555-ecf081e043d6" cx="106.65" cy="144.24" rx="3.59" ry="3.75"/>
      <ellipse class="bf9133a7-b0bd-42ae-9555-ecf081e043d6" cx="125.44" cy="140.1" rx="3.59" ry="3.75"/>
      <ellipse class="bf9133a7-b0bd-42ae-9555-ecf081e043d6" cx="125.88" cy="140.1" rx="3.59" ry="3.75"/>
      <ellipse class="bf9133a7-b0bd-42ae-9555-ecf081e043d6" cx="121.17" cy="163.04" rx="3.59" ry="3.75"/>
      <ellipse class="bf9133a7-b0bd-42ae-9555-ecf081e043d6" cx="94.02" cy="164.01" rx="3.59" ry="3.75"/>
      <ellipse class="bf9133a7-b0bd-42ae-9555-ecf081e043d6" cx="63.37" cy="165.95" rx="3.59" ry="3.75"/>
      <ellipse class="bf9133a7-b0bd-42ae-9555-ecf081e043d6" cx="35.58" cy="164.01" rx="3.59" ry="3.75"/>
      <ellipse class="bf9133a7-b0bd-42ae-9555-ecf081e043d6" cx="14.61" cy="174.51" rx="3.59" ry="3.75"/>
      <ellipse class="bf9133a7-b0bd-42ae-9555-ecf081e043d6" cx="50.1" cy="180.24" rx="3.59" ry="3.75"/>
      <ellipse class="bf9133a7-b0bd-42ae-9555-ecf081e043d6" cx="79.5" cy="182.01" rx="3.59" ry="3.75"/>
      <ellipse class="bf9133a7-b0bd-42ae-9555-ecf081e043d6" cx="108.44" cy="179.27" rx="3.59" ry="3.75"/>
      <ellipse class="bf9133a7-b0bd-42ae-9555-ecf081e043d6" cx="125.44" cy="177.33" rx="3.59" ry="3.75"/>
      <ellipse class="bf9133a7-b0bd-42ae-9555-ecf081e043d6" cx="119.03" cy="193.97" rx="3.59" ry="3.75"/>
      <ellipse class="bf9133a7-b0bd-42ae-9555-ecf081e043d6" cx="96.51" cy="196.67" rx="3.59" ry="3.75"/>
      <ellipse class="bf9133a7-b0bd-42ae-9555-ecf081e043d6" cx="63.37" cy="196.67" rx="3.59" ry="3.75"/>
      <ellipse class="bf9133a7-b0bd-42ae-9555-ecf081e043d6" cx="37.56" cy="196.28" rx="3.59" ry="3.75"/>
      <ellipse class="bf9133a7-b0bd-42ae-9555-ecf081e043d6" cx="19.56" cy="192.92" rx="3.59" ry="3.75"/>
      <ellipse class="bf9133a7-b0bd-42ae-9555-ecf081e043d6" cx="135.77" cy="190.21" rx="3.59" ry="3.75"/>
      <ellipse class="bf9133a7-b0bd-42ae-9555-ecf081e043d6" cx="135.77" cy="165.95" rx="3.59" ry="3.75"/>
      <g>
        <ellipse class="bf9133a7-b0bd-42ae-9555-ecf081e043d6" cx="10.71" cy="88.11" rx="3.59" ry="3.75"/>
        <ellipse class="bf9133a7-b0bd-42ae-9555-ecf081e043d6" cx="27.48" cy="92.28" rx="3.59" ry="3.75"/>
        <ellipse class="bf9133a7-b0bd-42ae-9555-ecf081e043d6" cx="20.3" cy="73.11" rx="3.59" ry="3.75"/>
        <ellipse class="bf9133a7-b0bd-42ae-9555-ecf081e043d6" cx="14.77" cy="54.04" rx="3.59" ry="3.75"/>
        <ellipse class="bf9133a7-b0bd-42ae-9555-ecf081e043d6" cx="32.27" cy="57.27" rx="3.59" ry="3.75"/>
        <ellipse class="bf9133a7-b0bd-42ae-9555-ecf081e043d6" cx="29.08" cy="40.6" rx="3.59" ry="3.75"/>
        <ellipse class="bf9133a7-b0bd-42ae-9555-ecf081e043d6" cx="45.85" cy="42.27" rx="3.59" ry="3.75"/>
        <ellipse class="bf9133a7-b0bd-42ae-9555-ecf081e043d6" cx="49.84" cy="64.77" rx="3.59" ry="3.75"/>
        <ellipse class="bf9133a7-b0bd-42ae-9555-ecf081e043d6" cx="77.79" cy="65.61" rx="3.59" ry="3.75"/>
        <ellipse class="bf9133a7-b0bd-42ae-9555-ecf081e043d6" cx="104.94" cy="63.94" rx="3.59" ry="3.75"/>
        <ellipse class="bf9133a7-b0bd-42ae-9555-ecf081e043d6" cx="101.75" cy="37.27" rx="3.59" ry="3.75"/>
        <ellipse class="bf9133a7-b0bd-42ae-9555-ecf081e043d6" cx="119.32" cy="47.27" rx="3.59" ry="3.75"/>
        <ellipse class="bf9133a7-b0bd-42ae-9555-ecf081e043d6" cx="118.52" cy="67.28" rx="3.59" ry="3.75"/>
        <ellipse class="bf9133a7-b0bd-42ae-9555-ecf081e043d6" cx="131.37" cy="76.54" rx="3.59" ry="3.75"/>
        <ellipse class="bf9133a7-b0bd-42ae-9555-ecf081e043d6" cx="119.39" cy="88.21" rx="3.59" ry="3.75"/>
        <ellipse class="bf9133a7-b0bd-42ae-9555-ecf081e043d6" cx="91.37" cy="77.28" rx="3.59" ry="3.75"/>
        <ellipse class="bf9133a7-b0bd-42ae-9555-ecf081e043d6" cx="62.62" cy="77.28" rx="3.59" ry="3.75"/>
        <ellipse class="bf9133a7-b0bd-42ae-9555-ecf081e043d6" cx="40.26" cy="76.44" rx="3.59" ry="3.75"/>
        <ellipse class="bf9133a7-b0bd-42ae-9555-ecf081e043d6" cx="50.64" cy="90.62" rx="3.59" ry="3.75"/>
        <ellipse class="bf9133a7-b0bd-42ae-9555-ecf081e043d6" cx="78.59" cy="90.62" rx="3.59" ry="3.75"/>
        <ellipse class="bf9133a7-b0bd-42ae-9555-ecf081e043d6" cx="106.54" cy="88.11" rx="3.59" ry="3.75"/>
        <path class="e1f2522e-a1fd-4907-b4bc-fb104f6da897" d="M44.84,28.35s4.6,15.17,15,16c0,0-8.78,1.67-7.18,5s4.79,5,4,7.51-3.67,14,3.19,11.67c2.4-.84,8-1.67,14.38-9.17,0,0,.8.83,3.19,0,0,0,8,9.17,13.58,7.5s3.19-6.67,3.19-8.34,0-7.5,4-10c0,0,4.8-3.33-8.78-5.83,0,0,7.19-9.17,6.39-12.51l-4.39-1.43c2,.76-22,27.33-40.33-.24Z"/>
        <g>
          <g>
            <path class="bf9133a7-b0bd-42ae-9555-ecf081e043d6" d="M46.23,25.69s2.25-3.93,5.1-1.62c3.81,15,32.33,21.9,38,2.3,1.9-1.15,3.22-.44,4,1.85,0,0-3,16.59-23,15.44S46.58,26.37,46.58,26.37"/>
            <path class="a9402ec0-c6d2-4d5e-9248-4a7875167ad0" d="M46.23,25.69a5.51,5.51,0,0,1,2.19-2.17A2.57,2.57,0,0,1,50,23.31,3.31,3.31,0,0,1,51.4,24l0,0v0a17.69,17.69,0,0,0,7.29,9.58,25.26,25.26,0,0,0,11.39,4.23,19.12,19.12,0,0,0,11.74-2.17,14.56,14.56,0,0,0,4.43-4,18.11,18.11,0,0,0,2.61-5.42l0-.19.16-.09a4.29,4.29,0,0,1,1.39-.57,2.36,2.36,0,0,1,1.62.24,3.18,3.18,0,0,1,1.11,1.11,6.66,6.66,0,0,1,.6,1.31l0,.14,0,.12a20.5,20.5,0,0,1-8.94,12.57A24.8,24.8,0,0,1,69.78,44a28.3,28.3,0,0,1-14.53-5.1,23.1,23.1,0,0,1-5.39-5.55,22.16,22.16,0,0,1-3.28-7,22.92,22.92,0,0,0,3.5,6.81,22.57,22.57,0,0,0,5.46,5.31,27.73,27.73,0,0,0,14.3,4.73c1.27.1,2.54,0,3.81,0,.63,0,1.26-.13,1.89-.19a14.78,14.78,0,0,0,1.87-.27,21.43,21.43,0,0,0,7-2.69,19.62,19.62,0,0,0,8.45-12l0,.25a3.41,3.41,0,0,0-1.25-1.89,2,2,0,0,0-2,.29l.22-.27A18.89,18.89,0,0,1,87,32.21a15.36,15.36,0,0,1-4.73,4.24A19.39,19.39,0,0,1,70,38.61a25.81,25.81,0,0,1-11.61-4.54,17.72,17.72,0,0,1-7.19-10l0,.06a3.18,3.18,0,0,0-1.32-.67,2.47,2.47,0,0,0-1.47.16A5.4,5.4,0,0,0,46.23,25.69Z"/>
          </g>
          <g>
            <path class="bf9133a7-b0bd-42ae-9555-ecf081e043d6" d="M91.91,52.94C90.15,59,95.3,65.57,88,63.18S76.31,54,78.06,47.91s9.06-9,16.32-6.63S93.66,46.89,91.91,52.94Z"/>
            <path class="a9402ec0-c6d2-4d5e-9248-4a7875167ad0" d="M91.91,52.94a12,12,0,0,0-.31,4.27c.11,1.43.42,2.83.53,4.28a5,5,0,0,1,0,1.09,1.42,1.42,0,0,1-.58,1,2,2,0,0,1-1.1.27,5.08,5.08,0,0,1-1.1-.12,17.14,17.14,0,0,1-4.1-1.46,15.52,15.52,0,0,1-6.38-5.91,11.29,11.29,0,0,1-1.2-8.66,10.43,10.43,0,0,1,5.93-6.42,14.36,14.36,0,0,1,8.65-.76A12.91,12.91,0,0,1,96.31,42a2.13,2.13,0,0,1,1.18,1.83,4.19,4.19,0,0,1-.91,2c-.85,1.17-1.82,2.22-2.67,3.39A12.59,12.59,0,0,0,91.91,52.94Zm0,0c.78-2.82,2.89-5,4.56-7.25a3.82,3.82,0,0,0,.79-1.91,1.86,1.86,0,0,0-1.12-1.56,12.7,12.7,0,0,0-4-1.25A14,14,0,0,0,83.9,42a9.49,9.49,0,0,0-5.32,5.92,10.25,10.25,0,0,0,1,8,15,15,0,0,0,5.87,5.89,17.44,17.44,0,0,0,3.93,1.6,3,3,0,0,0,2,0C92,63,92,62.18,92,61.5c-.07-1.43-.36-2.85-.45-4.29A12.29,12.29,0,0,1,91.91,52.94Z"/>
          </g>
          <path class="e8a68816-05fe-40d2-a286-7372b5664cab" d="M58.48,54.48c1.79,6-3.32,12.66,3.92,10.22s11.68-9.3,9.9-15.34-9.11-9-16.36-6.52S56.7,48.45,58.48,54.48Z"/>
          <path class="a9402ec0-c6d2-4d5e-9248-4a7875167ad0" d="M87,50.85a3.49,3.49,0,0,0-1.4-.87A7.39,7.39,0,0,0,84,49.61c-1.08-.18-2.21-.2-3.42-.43a5.92,5.92,0,0,1,3.57-.56,4.25,4.25,0,0,1,1.77.67A2.16,2.16,0,0,1,87,50.85Z"/>
          <path class="a9402ec0-c6d2-4d5e-9248-4a7875167ad0" d="M64.62,52.35a2.43,2.43,0,0,1,.85-1.76,4,4,0,0,1,1.78-.91,5.5,5.5,0,0,1,3.75.55c-1.27.17-2.43.18-3.53.43a5.69,5.69,0,0,0-1.54.56A4.08,4.08,0,0,0,64.62,52.35Z"/>
          <ellipse class="aafbc34e-d094-4754-909e-c450f3470ef1" cx="75.11" cy="48.63" rx="6.02" ry="6.42"/>
        </g>
      </g>
      <g class="fad6eb84-f303-4d3d-8bb0-8a190eca58ca">
        <g class="ab4cb123-a2e1-441b-8781-9cbfa9ae7bda">
          <path class="bf21fa13-b433-417f-ab07-6ad26a2581f0" d="M25.06,98.33c.4-1.16-6-23.75,9.27-39.07-1.39,2-4,36.3.81,41.14Z"/>
        </g>
      </g>
      <g class="fad6eb84-f303-4d3d-8bb0-8a190eca58ca">
        <g class="f064a842-f9c4-4955-80c3-2d88675eeb87">
          <path class="bf21fa13-b433-417f-ab07-6ad26a2581f0" d="M118,96.71c-.41-1.15,6-23.74-9.28-39.07,1.4,2,4,34.69-.81,39.53Z"/>
        </g>
      </g>
      <g class="fad6eb84-f303-4d3d-8bb0-8a190eca58ca">
        <g class="ea67c074-9e78-4f38-8302-843113f8d3fb">
          <path class="bf21fa13-b433-417f-ab07-6ad26a2581f0" d="M12.55,201.22c.41-1.15,13.72-80.66,29-96-1.39,2-28.23,92.76-23.39,97.6Z"/>
        </g>
      </g>
      <g class="fad6eb84-f303-4d3d-8bb0-8a190eca58ca">
        <g class="fe346237-bdea-4d50-8c57-b42f161c203c">
          <path class="bf21fa13-b433-417f-ab07-6ad26a2581f0" d="M31.1,204.45c.41-1.16,7.26-83.08,22.59-98.41-3,.79-21.24,91.94-15.33,97.6Z"/>
        </g>
      </g>
      <g class="fad6eb84-f303-4d3d-8bb0-8a190eca58ca">
        <g class="f66c158a-05e3-4ea4-b587-2ce4a5f423d1">
          <path class="bf21fa13-b433-417f-ab07-6ad26a2581f0" d="M63.68,104.94S54,186,58.84,205.39c0,0,4.84,4.12,10.08,3.27,0,0-2-96.88,3.23-103.72Z"/>
        </g>
      </g>
      <g class="fad6eb84-f303-4d3d-8bb0-8a190eca58ca">
        <g class="b98f51d6-68d7-4cf1-b301-c411b796e054">
          <path class="bf21fa13-b433-417f-ab07-6ad26a2581f0" d="M86.76,102.65l3.63,105.27s12.51,1.2,12.51-4.44c0,0-6.46-100-9.68-102.44Z"/>
        </g>
      </g>
      <g class="fad6eb84-f303-4d3d-8bb0-8a190eca58ca">
        <g class="e0b9a4c6-143a-4921-9f0f-291d81f14509">
          <path class="bf21fa13-b433-417f-ab07-6ad26a2581f0" d="M101.7,101.65s33.88,87.92,35.49,98.41c0,0,8.56,1,6.45-3.23-.8-1.61-30.65-93.57-35.49-96.79Z"/>
        </g>
      </g>
      <path class="a6df3498-ca42-4f72-a1d6-fd4b7d54c56b" d="M99.67,106.85q2.65,11.85,4.85,23.79c1.48,8,2.83,15.93,4.1,23.92s2.41,16,3.35,24.05c.48,4,.91,8,1.24,12.08.14,2,.28,4.05.35,6.07a30.15,30.15,0,0,1-.18,6.08,17.9,17.9,0,0,0-.06-3c-.07-1-.17-2-.29-3-.22-2-.51-4-.8-6-.56-4-1.19-8-1.8-12l-3.78-23.95c-1.24-8-2.5-16-3.67-24s-2.3-16-3.31-24"/>
      <path class="a6df3498-ca42-4f72-a1d6-fd4b7d54c56b" d="M69.82,206.06q-1-12.18-1.29-24.42c-.26-8.14-.31-16.3-.25-24.45s.35-16.31.89-24.45a166.51,166.51,0,0,1,3.07-24.28c-1,8.1-1.23,16.23-1.51,24.35s-.4,16.26-.45,24.4l-.2,24.42q0,12.21-.26,24.43"/>
      <path class="a6df3498-ca42-4f72-a1d6-fd4b7d54c56b" d="M37.56,200.42q.22-11.71,1.2-23.4c.61-7.79,1.45-15.56,2.47-23.31s2.29-15.48,4-23.12c.85-3.83,1.82-7.63,3-11.37.61-1.86,1.26-3.72,2-5.53a31.32,31.32,0,0,1,2.65-5.23,54.67,54.67,0,0,0-3.72,11c-.95,3.77-1.7,7.58-2.41,11.41-1.38,7.65-2.52,15.35-3.54,23.07s-2,15.46-2.9,23.2Z"/>
      <path class="a6df3498-ca42-4f72-a1d6-fd4b7d54c56b" d="M18.2,198q1.29-11.76,3.32-23.41c1.31-7.77,2.85-15.5,4.56-23.2.89-3.84,1.81-7.68,2.79-11.5s2.07-7.62,3.27-11.38,2.49-7.5,4-11.16a55.41,55.41,0,0,1,5.47-10.5A63.92,63.92,0,0,0,37,117.69c-1.26,3.71-2.36,7.48-3.4,11.26-2.05,7.58-3.89,15.21-5.61,22.88s-3.36,15.36-5,23Z"/>
      <path class="a6df3498-ca42-4f72-a1d6-fd4b7d54c56b" d="M90,206.06q-1.14-12.27-1.8-24.57c-.47-8.19-.8-16.4-1-24.6l-.26-12.32c0-4.1-.1-8.21,0-12.32s.13-8.22.3-12.32c.14-2.06.19-4.11.41-6.16l.28-3.07.53-3-.23,3.06-.05,3.08c-.07,2,0,4.1,0,6.14q.1,6.15.28,12.3l.72,24.59c.21,8.2.45,16.4.6,24.61s.26,16.41.25,24.62"/>
      <path class="a6df3498-ca42-4f72-a1d6-fd4b7d54c56b" d="M136.77,198q-4.4-11.22-8.51-22.52c-2.77-7.52-5.45-15.08-8.15-22.63l-8-22.68q-2-5.67-4-11.32c-.68-1.88-1.33-3.79-2.07-5.64l-1.1-2.8-1.21-2.75,1.48,2.62c.46.9.87,1.81,1.31,2.72.89,1.8,1.68,3.65,2.5,5.48,1.59,3.69,3.13,7.41,4.59,11.14s2.88,7.5,4.31,11.25l4.1,11.31c2.67,7.57,5.27,15.16,7.74,22.8s4.84,15.3,7,23"/>
      <path class="a6df3498-ca42-4f72-a1d6-fd4b7d54c56b" d="M110.16,108.46q5.06,10.23,9.57,20.72c3,7,5.9,14,8.67,21.12s5.33,14.26,7.67,21.51A137.35,137.35,0,0,1,141.61,194l-.75-2.76c-.25-.91-.45-1.84-.76-2.74-.59-1.81-1.11-3.63-1.74-5.42l-1.84-5.38-1.93-5.35c-2.63-7.12-5.3-14.23-8.06-21.3l-8.24-21.25q-4.16-10.61-8.13-21.31"/>
    </g>
  </g>
</svg>
