<svg xmlns="http://www.w3.org/2000/svg" width="193.12" height="231.12" viewBox="0 0 193.12 231.12">
  <defs>
    <style>
      .a04e3d95-c195-48c8-8a77-a2f824609212, .f841aea3-67e9-4a24-8dbb-4fa8cf25f275 {
        fill: #fff;
      }

      .a3aa48f3-9a6e-453d-816d-7eca22291be0, .b2203c6b-22cd-45a1-82e7-0c6c340fb6d7 {
        fill: #83c0db;
      }

      .b2203c6b-22cd-45a1-82e7-0c6c340fb6d7 {
        stroke: #323232;
        stroke-miterlimit: 10;
        stroke-width: 2px;
      }

      .f9a5a025-12f9-4429-83f2-7cf2e6df9fcf {
        fill: #9ce5ff;
      }

      .f841aea3-67e9-4a24-8dbb-4fa8cf25f275 {
        opacity: 0.8;
      }

      .f4681063-f0c0-4bbe-b328-aa4ec0147d03 {
        fill: #3284a0;
      }
    </style>
  </defs>
  <g id="acb8f15b-58c0-46fc-9bce-d2e7efbd4b65" data-name="Layer 19">
    <g>
      <path class="a04e3d95-c195-48c8-8a77-a2f824609212" d="M121.81,229a3.5,3.5,0,0,1-3.49-3.5V131.71a7,7,0,0,1,2.15-5.09,7.24,7.24,0,0,1,5.1-2.08h15.15v-4.43L47,81.74a21.66,21.66,0,0,0-2.55-.85,41,41,0,0,0-5.56-1.15,3.49,3.49,0,0,1-3.45,3H11.16a3.49,3.49,0,0,1-3.49-3.5V77.85A10.19,10.19,0,0,1,5.23,75.7l-.3-.37c-.18-.24-.36-.53-.54-.82S4.11,74,4,73.76s-.24-.5-.34-.76a9.42,9.42,0,0,1-.35-1.1,4,4,0,0,1-.16-.64,9.32,9.32,0,0,1-.19-1.86v-10A10.15,10.15,0,0,1,13.15,49.32H40.21a30.49,30.49,0,0,1,3.49.22c1.22.14,2.47.34,3.74.59a38.77,38.77,0,0,1,7,2l86.29,35.34V50.75a3.51,3.51,0,0,1,.2-1.17,3.46,3.46,0,0,1-.2-1.17V32L96.25,18a8.19,8.19,0,0,1-2.84-1.55A8.05,8.05,0,0,1,92,14.92a8.16,8.16,0,0,1-1.46-3.87,8.65,8.65,0,0,1,0-1.61,8.11,8.11,0,0,1,.35-1.64A8.21,8.21,0,0,1,98,2.19c.24,0,.5,0,.75,0a8.27,8.27,0,0,1,2.47.38L179.34,27a8.25,8.25,0,0,1,3.3,2,7.59,7.59,0,0,1,1.75,2.53,8,8,0,0,1,.71,3.26V48.41a3.51,3.51,0,0,1-.2,1.17,3.46,3.46,0,0,1,.2,1.17v73.79h1.58a3.5,3.5,0,0,1,3.5,3.5v97.42a3.5,3.5,0,0,1-3.5,3.5Z"/>
      <g>
        <path class="b2203c6b-22cd-45a1-82e7-0c6c340fb6d7" d="M181.6,128V50.75h-1.14V48.41h1.14V34.77a4.63,4.63,0,0,0-3.31-4.41L100.16,5.88a4.74,4.74,0,0,0-5.94,3A4.61,4.61,0,0,0,97.3,14.7l46.91,14.71v19h1.14v2.34h-1.13V92.67L53.1,55.35a40.79,40.79,0,0,0-12.89-2.54H13.15a6.66,6.66,0,0,0-6.71,6.57v10a6.59,6.59,0,0,0,4.73,6.24v3.57H35.45V76a40.51,40.51,0,0,1,12.89,2.54l95.88,39.25V128H125.57a3.71,3.71,0,0,0-3.76,3.67v93.75h64.87V128Z"/>
        <g>
          <g>
            <rect class="a3aa48f3-9a6e-453d-816d-7eca22291be0" x="145.35" y="45.19" width="35.11" height="6.95"/>
            <rect class="a3aa48f3-9a6e-453d-816d-7eca22291be0" x="11.17" y="73.6" width="24.28" height="5.62"/>
            <path class="f9a5a025-12f9-4429-83f2-7cf2e6df9fcf" d="M149.51,119.93,48.34,78.51A40.51,40.51,0,0,0,35.45,76H13.15A6.66,6.66,0,0,1,6.44,69.4v-10a6.66,6.66,0,0,1,6.71-6.57H40.21A40.79,40.79,0,0,1,53.1,55.35L158.67,98.59Z"/>
            <rect class="f9a5a025-12f9-4429-83f2-7cf2e6df9fcf" x="144.22" y="50.75" width="37.38" height="79.43"/>
            <path class="f841aea3-67e9-4a24-8dbb-4fa8cf25f275" d="M155.12,96.14c0-1.21-8.06-1-8.06,0v19c0,1.74,8.06,1.73,8.06.24Z"/>
            <path class="f841aea3-67e9-4a24-8dbb-4fa8cf25f275" d="M155.12,55.92c0-1.21-8.06-1-8.06,0V82.12c0,1.74,8.06,1.74,8.06.24Z"/>
            <g>
              <path class="f9a5a025-12f9-4429-83f2-7cf2e6df9fcf" d="M144.21,48.41v-19L97.3,14.7a4.61,4.61,0,0,1-3.08-5.81,4.74,4.74,0,0,1,5.94-3l78.13,24.48a4.63,4.63,0,0,1,3.31,4.41V48.41Z"/>
              <path class="f841aea3-67e9-4a24-8dbb-4fa8cf25f275" d="M155.12,36.32c0-1.21-8.06-1-8.06,0V42c0,1.74,8.06,1.73,8.06.24Z"/>
              <path class="f841aea3-67e9-4a24-8dbb-4fa8cf25f275" d="M125.35,18.73c1.19.37,1.85-2.22.82-2.54l-25.49-8c-1.7-.53-2.52,2-1.07,2.46Z"/>
            </g>
            <rect class="a3aa48f3-9a6e-453d-816d-7eca22291be0" x="144.22" y="89.04" width="37.38" height="3.21"/>
            <path class="f841aea3-67e9-4a24-8dbb-4fa8cf25f275" d="M12.58,55.62a3.32,3.32,0,0,1,3.5,3c.16,3.85-2.63,6.53-4.55,6.53C8.79,65.17,7.58,55.67,12.58,55.62Z"/>
          </g>
          <path class="f4681063-f0c0-4bbe-b328-aa4ec0147d03" d="M186.68,225.46V128H125.57a3.71,3.71,0,0,0-3.76,3.67v93.75Z"/>
        </g>
      </g>
    </g>
  </g>
</svg>
