<svg xmlns="http://www.w3.org/2000/svg" xmlns:xlink="http://www.w3.org/1999/xlink" width="198.99" height="136.69" viewBox="0 0 198.99 136.69">
  <defs>
    <style>
      .a9051374-b005-460f-9e6b-d75e5adc9745 {
        fill: none;
      }

      .a9051374-b005-460f-9e6b-d75e5adc9745, .fdefa199-836c-4cce-bb1d-1625dd4a15dd {
        stroke: #323232;
      }

      .a9051374-b005-460f-9e6b-d75e5adc9745, .b054c5f7-44f1-499a-a518-8c7a2bb669e6, .fdefa199-836c-4cce-bb1d-1625dd4a15dd {
        stroke-miterlimit: 10;
      }

      .e1e82068-ac02-420d-b93e-e6d31fd72ebe {
        isolation: isolate;
      }

      .aa12a52d-730f-4e57-86d9-9b377338085e, .fa47b6e8-f699-4387-8588-adc4ef6b7127 {
        fill: #fff;
      }

      .b054c5f7-44f1-499a-a518-8c7a2bb669e6, .bc59b47a-8391-4894-9c06-d9190d74a08a {
        fill: #ffc0c0;
      }

      .b054c5f7-44f1-499a-a518-8c7a2bb669e6 {
        stroke: #5e5e5e;
      }

      .bef43f21-9464-4fd5-a47f-bf6d97a62a57 {
        fill: #f6f6f6;
      }

      .eeacdfb5-fc33-4d82-93d2-05c72d053c6f {
        fill: #363a3d;
      }

      .aba07427-403e-4b98-bf90-c0be16b83fc2 {
        fill: #eceded;
      }

      .ab444ce1-b57d-47a6-a9b4-31d7a1ac89a0 {
        fill: #0bacbd;
      }

      .a51dc518-6e2f-4181-bcfb-3a7c67f1d54d {
        fill: #f94c08;
      }

      .ab590d3c-e527-4682-994d-839b295bb5c6 {
        opacity: 0.1;
      }

      .ab590d3c-e527-4682-994d-839b295bb5c6, .e856eb6b-6f19-412a-88cb-4eeaa0c5f227, .fd5182d0-3595-4d95-9e71-537a93bc6706 {
        mix-blend-mode: multiply;
      }

      .fa47b6e8-f699-4387-8588-adc4ef6b7127 {
        opacity: 0.5;
        mix-blend-mode: screen;
      }

      .ae87c81c-fd2e-45fc-8c7b-32e21191ac60 {
        fill: #f9f7f4;
      }

      .e856eb6b-6f19-412a-88cb-4eeaa0c5f227 {
        fill: #ede8e4;
        opacity: 0.6;
      }

      .fd5182d0-3595-4d95-9e71-537a93bc6706 {
        fill: #e5e4e3;
      }

      .b997326a-f8b4-4f6a-aeca-347d4a9d7079 {
        fill: #ff0bf9;
      }

      .aefd5e1a-27f4-48bc-bab4-08e3b4be0e61 {
        fill: #c400c4;
      }

      .e92c8b54-9a1d-4346-9fb1-407665c37e4c {
        clip-path: url(#e51e13e7-ffb5-4439-8b4a-ab63f5c9db8f);
      }

      .fdefa199-836c-4cce-bb1d-1625dd4a15dd {
        fill: #ffb6b6;
      }
    </style>
    <clipPath id="e51e13e7-ffb5-4439-8b4a-ab63f5c9db8f">
      <path class="a9051374-b005-460f-9e6b-d75e5adc9745" d="M19.93,323.12l-2.17-4.43-1.62-3.42-.13-.16c-7.55-15.49-24-49.2-30-62.48-8-17.5-8.09-33.43-20-31.15-3.51.67-11,17.86-13.67,31s-15.11,42-19.14,53.83c-2.08,6.08-4.28,13.43-5.93,19.12h-.1l-.86,3.34c-1,3.57-1.66,5.94-1.66,5.94s7.24-.24,18,2.72l-.27,0-1.79,20.55s0-.09,0-.23l0,.23s-2,6.12,20,4.22c4.3-.37,8-.67,11.3-.89.7,8.68,1.65,20,2.05,24,.67,6.78-.23,18.15-.23,18.15s11.64-6.47,19.68-15.3c7.11-7.84,11.57-12.42,10.51-17,0,0,0,0,0,.06l0-.11v-.12c-.19-1.12-.8-4.79-1.63-9.69l-.77-5.29s-.06-.12-.17-.31C1,354,.68,352.25.38,350.49l-1.3-8.08-.1,0c-.38-2.15-.75-4.27-1.11-6.28,5.84-.82,13.3-2,16.48-3.13C19.94,331,22,327.07,19.93,323.12Z"/>
    </clipPath>
  </defs>
  <g class="e1e82068-ac02-420d-b93e-e6d31fd72ebe">
    <g id="a6e2d197-1752-402e-bdfd-e60187fbe2c8" data-name="Layer 5">
      <g>
        <path class="aa12a52d-730f-4e57-86d9-9b377338085e" d="M14.62,136.22a4.89,4.89,0,0,1-.54,0l-.21,0a5.51,5.51,0,0,1-1.06-.27l-.29-.13a7.85,7.85,0,0,1-.76-.42l-.29-.22a6.21,6.21,0,0,1-.65-.58c-.11-.11-.21-.22-.31-.34a7.07,7.07,0,0,1-.51-.7l-.22-.34a10.24,10.24,0,0,1-.59-1.2,8.31,8.31,0,0,1,.36-6.69,23.94,23.94,0,0,1,5.32-7.09A17.65,17.65,0,0,0,18,111c0-.22.06-.42.08-.61a9.63,9.63,0,0,0,.06-1c0-.34,0-.59,0-.73a21.82,21.82,0,0,1-.93-3.56,15.55,15.55,0,0,1-.22-3.28,10.82,10.82,0,0,1,1.55-5.32,8.27,8.27,0,0,1,.68-1,8,8,0,0,1,.85-.94l.21-.2a3.41,3.41,0,0,1,.7-1.72,3.55,3.55,0,0,1,1-.87l.23-.13.11-.11a2.85,2.85,0,0,1,.58-.4,2.38,2.38,0,0,1,.49-.19l.08,0a2.91,2.91,0,0,1,.72-.53,2.35,2.35,0,0,1,.57-.23l.39-.23a2.86,2.86,0,0,1,.87-.71,2.82,2.82,0,0,1,.8-.28l.41-.24a3,3,0,0,1,.64-.46,3.17,3.17,0,0,1,.46-.19l6.2-3.66L35.81,78A2.59,2.59,0,0,1,37,76.3c.37-.23.76-.45,1.16-.67.75-.41,1.55-.82,2.38-1.23l1.21-.61c1.94-1,6.65-3.47,13.61-7.18l16.4-8.76,1.9-1,1.67-.92,6.37-3.53,10.7-6,11.32-6.3c2.11-1.16,6.65-3.78,12.13-7l4.27-2.53,5.26-3.14L130,24.58l2.21-1.34c1.43-.87,2.77-1.7,4-2.46.79-.49,1.55-1,2.3-1.46l.6-.39,2-1.28.17-.11L143.51,16l2.21-1.54,5.73-4.16,2.37-1.8,1.73-1.36,1-.85a27.36,27.36,0,0,1,2.86-2c.87-.55,1.88-1.15,3-1.77,1.54-.86,2.72-1.46,2.72-1.46a5.1,5.1,0,0,1,2.31-.6A3.85,3.85,0,0,1,171,2.67l18.87,36.69a3.93,3.93,0,0,1,.47,2.14A4.27,4.27,0,0,1,187.75,45c-.13.06-3.07,1.56-6,2.72a29.76,29.76,0,0,1-3.31,1.13l-1.55.41-2.2.63-2.27.68-6.27,2-2.42.84-.53.18-2.48.9c-1,.34-1.82.67-2.69,1l-.52.2c-1,.38-1.89.73-2.79,1.1-4,1.62-9.55,3.94-15.63,6.53L134,65.56c-6.36,2.74-11.75,5.12-14.06,6.2-1.46.69-4.29,2-7.73,3.59l-10,4.65-9.71,4.5C90,85.65,88,86.59,86.78,87.17c-5.07,2.45-25.6,12.38-30.54,14.89l-1,.53c-.9.47-1.77.92-2.61,1.31-.42.19-.83.38-1.24.54a2.49,2.49,0,0,1-1,.19,2.55,2.55,0,0,1-1.17-.28l-.13-.07-6.51-2.92-4.35,2a2.26,2.26,0,0,1-.26.16,2.66,2.66,0,0,1-.53.21l-.83.39a2.79,2.79,0,0,1-.63.45,2.93,2.93,0,0,1-1,.31h0a3,3,0,0,1-.83.66,2.79,2.79,0,0,1-.84.29,2.72,2.72,0,0,1-1,.87,2.35,2.35,0,0,1-.57.23,2.79,2.79,0,0,1-.77.58l-.28.13a20.72,20.72,0,0,1-1,10.26,12.81,12.81,0,0,1-2.6,4.44,8.86,8.86,0,0,0-.87,1l-.3.42-.34.47a8.49,8.49,0,0,1-.72.83c-.26.25-.63.68-1,1.12l-.72.87a9.67,9.67,0,0,1-3.27,6.81,10.86,10.86,0,0,1-1.22,1l-.19.14-.6.36-.13.07c-.26.14-.51.26-.77.37l-.19.06c-.2.08-.4.14-.6.2L16,136a5.77,5.77,0,0,1-.83.15H15A3,3,0,0,1,14.62,136.22Z"/>
        <g>
          <path class="b054c5f7-44f1-499a-a518-8c7a2bb669e6" d="M166.33,3.35s-2.93,1.49-5.51,3.11a29.14,29.14,0,0,0-2.59,1.82c-1,.83-2.87,2.31-5.37,4.18l-5.47,4c-2.95,2.07-6.28,4.31-9.81,6.51-9.79,6.1-27.63,16.65-32.64,19.41S78.36,57.2,73,60.11s-25.21,13.49-30.06,16c-1.66.84-3.22,1.58-4.57,2.41L36.76,86l-.5.3h0l-7,4.16a.36.36,0,0,0-.2,0,.46.46,0,0,0-.16.18l-1.34.79a.38.38,0,0,0-.33,0,.37.37,0,0,0-.19.31l-1.4.83a.29.29,0,0,0-.24,0,.34.34,0,0,0-.18.21l-.94.56a.34.34,0,0,0-.22,0,.38.38,0,0,0-.18.2l-.59.35a.88.88,0,0,0-.34,1.15l2.52,4.71c-1.15-2.14-2.35-4.36-2.33-4.34s-6,2.67-2.48,12.51c0,0,1.07,5-3.81,11.88,0,0-7.23,6.31-5.25,11.09,1.21,2.91,3,3,4.47,2.37h0a5.53,5.53,0,0,0,1.18-.65,8.65,8.65,0,0,0,.95-.76,6.81,6.81,0,0,0,2.38-5.76s1.73-2.17,2.52-3,.87-1.34,2.26-2.69,4.8-7.84,2-15.92a.65.65,0,0,1,.19-.91l.41.78h0a.64.64,0,0,0,.21.25.87.87,0,0,0,.6.2,1,1,0,0,0,.33-.08l.1-.05.15.3a.36.36,0,0,0,.65-.31l-.14-.3.75-.35.08.16a.35.35,0,0,0,.49.15.36.36,0,0,0,.16-.47l-.08-.15,1.32-.61a.36.36,0,0,0,.43.07h0a.35.35,0,0,0,.19-.36l1.31-.62a.34.34,0,0,0,.34,0,.35.35,0,0,0,.18-.25l1.64-.77a.35.35,0,0,0,.17,0,.39.39,0,0,0,.1-.08l5.67-2.65,7.83,3.5v0c1.49-.6,3-1.44,4.7-2.29,4.86-2.47,25.06-12.25,30.59-14.91s28-13,33.19-15.42,24.22-10.66,34.92-15c4.07-1.64,8.05-3.08,11.61-4.28l6.48-2.09c2.7-.82,4.78-1.4,5.95-1.7a26.25,26.25,0,0,0,3-1c2.84-1.13,5.77-2.62,5.77-2.62,1.81-.92,1-2.15,1-2.15l-9.46-18.4h0l-9.46-18.4S168.14,2.43,166.33,3.35Z"/>
          <g>
            <g>
              <g>
                <g>
                  <polygon class="bef43f21-9464-4fd5-a47f-bf6d97a62a57" points="38.32 78.48 34.88 95.11 50.4 102.06 50.05 95.87 47.48 89.66 44.33 84.09 40.85 79.95 38.32 78.48"/>
                  <path class="bef43f21-9464-4fd5-a47f-bf6d97a62a57" d="M186.59,42.74c1.81-.92,1-2.15,1-2.15l-9.46-18.4h0l-9.46-18.4s-.54-1.35-2.35-.43c0,0-2.93,1.49-5.51,3.11l20,38.9C183.66,44.23,186.59,42.74,186.59,42.74Z"/>
                  <g>
                    <path class="eeacdfb5-fc33-4d82-93d2-05c72d053c6f" d="M168,4.24s-.32.22-.82.51c-.26.15-.55.32-.87.49s-.66.35-1,.53-.69.35-1,.5-.64.29-.91.41c-.53.24-.9.37-.9.37l.83-.51.86-.49,1-.53,1-.5.91-.41Z"/>
                    <path class="eeacdfb5-fc33-4d82-93d2-05c72d053c6f" d="M168.87,6s-.32.21-.82.51l-.87.49-1,.53-1,.5c-.33.16-.64.29-.91.41-.53.23-.9.37-.9.37s.33-.22.83-.51c.25-.14.54-.32.86-.49s.66-.35,1-.53.69-.35,1-.5l.9-.41C168.51,6.12,168.87,6,168.87,6Z"/>
                    <path class="eeacdfb5-fc33-4d82-93d2-05c72d053c6f" d="M169.77,7.73s-.33.22-.83.51c-.25.14-.54.32-.86.49s-.66.35-1,.53-.69.35-1,.5-.64.29-.9.41c-.54.24-.9.37-.9.37s.32-.21.83-.51l.86-.49L167,9l1-.5.9-.41C169.4,7.87,169.77,7.73,169.77,7.73Z"/>
                    <path class="eeacdfb5-fc33-4d82-93d2-05c72d053c6f" d="M170.67,9.48l-.83.51-.86.49L168,11l-1,.5-.9.41-.9.37s.32-.22.82-.51c.26-.15.55-.32.87-.49s.66-.35,1-.53.69-.35,1-.5.64-.29.91-.41C170.3,9.61,170.67,9.48,170.67,9.48Z"/>
                    <path class="eeacdfb5-fc33-4d82-93d2-05c72d053c6f" d="M171.56,11.22s-.32.22-.82.51c-.26.14-.55.32-.87.49s-.66.35-1,.53-.69.35-1,.5-.64.29-.91.41c-.53.24-.9.37-.9.37l.83-.51.86-.49,1-.53,1-.5.9-.41Z"/>
                    <path class="eeacdfb5-fc33-4d82-93d2-05c72d053c6f" d="M172.46,13s-.32.21-.83.51l-.86.49-1,.53-1,.5c-.32.16-.64.29-.9.41-.53.23-.9.37-.9.37s.32-.22.83-.51c.25-.15.54-.32.86-.49s.66-.36,1-.53.69-.35,1-.5.64-.29.9-.41C172.09,13.1,172.46,13,172.46,13Z"/>
                    <path class="eeacdfb5-fc33-4d82-93d2-05c72d053c6f" d="M173.36,14.71s-.33.22-.83.51c-.25.14-.54.32-.86.49s-.66.35-1,.53-.69.35-1,.5l-.9.41c-.54.24-.9.37-.9.37s.32-.21.82-.51c.26-.14.55-.32.87-.49l1-.53,1-.5c.33-.16.64-.29.91-.41C173,14.85,173.36,14.71,173.36,14.71Z"/>
                    <path class="eeacdfb5-fc33-4d82-93d2-05c72d053c6f" d="M174.25,16.46s-.32.21-.82.51l-.87.49-1,.53-1,.5-.91.41-.89.37s.32-.22.82-.51c.25-.15.54-.32.86-.49s.67-.36,1-.53.69-.35,1-.5.64-.29.91-.41C173.89,16.59,174.25,16.46,174.25,16.46Z"/>
                    <path class="eeacdfb5-fc33-4d82-93d2-05c72d053c6f" d="M175.15,18.2s-.32.22-.83.51c-.25.14-.54.32-.86.49s-.66.35-1,.53l-1,.5c-.33.16-.65.29-.91.41-.53.24-.9.37-.9.37s.33-.22.83-.51c.25-.14.54-.32.86-.49l1-.53c.34-.17.69-.35,1-.5l.9-.41Z"/>
                    <path class="eeacdfb5-fc33-4d82-93d2-05c72d053c6f" d="M176.05,20l-.83.51-.86.49-1,.53-1,.5-.9.41-.9.37s.32-.22.82-.51c.26-.15.55-.32.87-.49s.66-.36,1-.53.7-.35,1-.5.64-.29.9-.41C175.68,20.08,176.05,20,176.05,20Z"/>
                    <path class="eeacdfb5-fc33-4d82-93d2-05c72d053c6f" d="M177,21.69s-.33.22-.83.51c-.25.14-.54.32-.86.49s-.67.35-1,.53-.69.35-1,.5-.64.29-.91.41c-.53.24-.89.37-.89.37s.32-.22.82-.51c.26-.14.55-.32.87-.49l1-.53c.35-.17.69-.35,1-.5s.64-.29.91-.41C176.58,21.83,177,21.69,177,21.69Z"/>
                    <path class="eeacdfb5-fc33-4d82-93d2-05c72d053c6f" d="M177.84,23.44s-.32.21-.82.51l-.87.48c-.31.18-.66.36-1,.54l-1,.5-.91.41c-.53.23-.9.36-.9.36s.33-.21.83-.5c.25-.15.54-.32.86-.49s.66-.36,1-.53.69-.35,1-.5l.9-.42C177.48,23.57,177.84,23.44,177.84,23.44Z"/>
                    <path class="eeacdfb5-fc33-4d82-93d2-05c72d053c6f" d="M178.74,25.18s-.33.22-.83.51c-.25.14-.54.32-.86.49s-.66.35-1,.53-.69.35-1,.5-.64.29-.9.41c-.53.23-.9.37-.9.37s.32-.22.83-.51c.25-.14.54-.32.86-.49l1-.53c.34-.17.69-.35,1-.5s.64-.29.9-.41C178.37,25.32,178.74,25.18,178.74,25.18Z"/>
                    <path class="eeacdfb5-fc33-4d82-93d2-05c72d053c6f" d="M179.64,26.93s-.33.21-.83.5c-.25.15-.54.32-.86.49l-1,.54-1,.5-.9.41c-.54.23-.9.36-.9.36s.32-.21.82-.5c.26-.15.55-.32.87-.49s.66-.36,1-.53l1-.51.91-.41C179.27,27.06,179.64,26.93,179.64,26.93Z"/>
                    <path class="eeacdfb5-fc33-4d82-93d2-05c72d053c6f" d="M180.53,28.67s-.32.22-.82.51c-.26.14-.55.32-.87.49l-1,.53c-.35.17-.69.35-1,.5s-.64.29-.91.41c-.53.23-.9.37-.9.37s.33-.22.83-.51c.25-.14.54-.32.86-.49l1-.53c.35-.17.69-.35,1-.5s.64-.29.91-.41Z"/>
                    <path class="eeacdfb5-fc33-4d82-93d2-05c72d053c6f" d="M181.43,30.41s-.32.22-.83.51c-.25.15-.54.32-.86.49l-1,.54-1,.5-.9.41c-.53.23-.9.36-.9.36l.83-.51.86-.48,1-.54,1-.5.9-.41Z"/>
                    <path class="eeacdfb5-fc33-4d82-93d2-05c72d053c6f" d="M182.33,32.16s-.33.22-.83.51c-.25.14-.54.32-.86.49l-1,.53c-.34.17-.69.35-1,.5l-.9.41-.9.37s.32-.22.82-.51c.26-.14.55-.32.87-.49l1-.53c.35-.17.7-.35,1-.5s.63-.29.9-.41C182,32.3,182.33,32.16,182.33,32.16Z"/>
                    <path class="eeacdfb5-fc33-4d82-93d2-05c72d053c6f" d="M183.23,33.9s-.33.22-.83.51l-.86.49c-.32.18-.67.36-1,.53s-.69.35-1,.5-.64.29-.91.41c-.53.24-.89.37-.89.37s.32-.21.82-.51l.87-.48c.31-.18.66-.36,1-.54l1-.5.91-.41C182.86,34,183.23,33.9,183.23,33.9Z"/>
                    <path class="eeacdfb5-fc33-4d82-93d2-05c72d053c6f" d="M184.12,35.65s-.32.22-.82.51c-.26.14-.55.32-.87.49l-1,.53-1,.5c-.33.16-.64.29-.91.41-.53.23-.9.37-.9.37s.33-.22.83-.51c.25-.14.54-.32.86-.49s.66-.35,1-.53.69-.35,1-.5l.9-.41Z"/>
                    <path class="eeacdfb5-fc33-4d82-93d2-05c72d053c6f" d="M185,37.39s-.33.22-.83.51c-.25.15-.54.32-.86.49s-.66.36-1,.53-.69.35-1,.5-.64.29-.9.41c-.53.24-.9.37-.9.37s.32-.21.83-.51l.86-.49,1-.53,1-.5.9-.41C184.65,37.53,185,37.39,185,37.39Z"/>
                    <path class="eeacdfb5-fc33-4d82-93d2-05c72d053c6f" d="M185.92,39.14l-.83.51c-.25.14-.54.32-.86.49l-1,.53c-.35.17-.69.35-1,.5l-.9.41-.9.37s.32-.22.82-.51c.26-.14.55-.32.87-.49s.66-.35,1-.53.69-.35,1-.5.64-.29.91-.41C185.55,39.27,185.92,39.14,185.92,39.14Z"/>
                    <path class="eeacdfb5-fc33-4d82-93d2-05c72d053c6f" d="M186.81,40.88s-.32.22-.82.51c-.26.15-.55.32-.87.49s-.66.36-1,.53-.69.35-1,.5-.64.29-.91.41c-.53.24-.9.37-.9.37l.83-.51.86-.49,1-.53,1-.5.9-.41Z"/>
                  </g>
                  <path class="aba07427-403e-4b98-bf90-c0be16b83fc2" d="M137.58,23c-9.79,6.1-27.63,16.65-32.64,19.41S78.36,57.2,73,60.11s-25.21,13.49-30.06,16c-1.66.84-3.22,1.58-4.57,2.41,3.07,3,5.29,6.86,7.41,11s4,8.3,4.65,12.59c1.49-.6,3-1.44,4.7-2.29,4.86-2.47,25.06-12.25,30.59-14.91s28-13,33.19-15.42,24.22-10.66,34.92-15a213.87,213.87,0,0,1,24-8.07,26.25,26.25,0,0,0,3-1l-20-38.9a29.14,29.14,0,0,0-2.59,1.82A214.21,214.21,0,0,1,137.58,23Z"/>
                </g>
                <g>
                  <path class="ab444ce1-b57d-47a6-a9b4-31d7a1ac89a0" d="M95.5,66c37.91-6.92,63.06-30.58,72.62-41.1l-8-15.64c-.24.18-.46.34-.64.5a218.33,218.33,0,0,1-20.86,14.82c-9.68,6-27.5,16.57-32.74,19.46-1.9,1-6.14,3.4-11,6.14-7.83,4.37-17.58,9.8-21,11.62-5,2.66-25.12,13.44-30.09,16l-1.06.54-1.33.67a47.91,47.91,0,0,1,5.74,9C51.56,81.72,63.52,71.8,95.5,66Z"/>
                  <path class="a51dc518-6e2f-4181-bcfb-3a7c67f1d54d" d="M168.12,24.86C158.56,35.38,133.41,59,95.5,66c-32,5.84-43.94,15.76-48.4,22l.34.65A49.88,49.88,0,0,1,51.8,99.35l1.37-.7,1-.54c5-2.53,25.55-12.48,30.64-14.93,3.45-1.66,13.58-6.35,21.73-10.11,5.1-2.36,9.51-4.4,11.47-5.32,5.42-2.55,24.45-10.75,35-15a215.48,215.48,0,0,1,24.28-8.15c.24-.06.5-.14.78-.23Z"/>
                </g>
                <path class="ab590d3c-e527-4682-994d-839b295bb5c6" d="M47.44,88.61s3.38,6.46,4.36,10.74c0,0,68.52-32.51,89.83-41.46,20.63-8.67,24.49-10.07,36.51-13.55,0,0-7-13.6-7.47-14.54C170.67,29.8,134.91,65.16,47.44,88.61Z"/>
                <ellipse class="fa47b6e8-f699-4387-8588-adc4ef6b7127" cx="117.4" cy="42.22" rx="29.68" ry="1.13" transform="translate(-5.56 63.36) rotate(-29.54)"/>
              </g>
              <path class="ae87c81c-fd2e-45fc-8c7b-32e21191ac60" d="M43.49,98.11,29,104.87a.88.88,0,0,1-1.14-.37l-5-9.36A.88.88,0,0,1,23.24,94L37,85.89a.86.86,0,0,1,1.21.32L43.9,96.93A.86.86,0,0,1,43.49,98.11Z"/>
              <path class="e856eb6b-6f19-412a-88cb-4eeaa0c5f227" d="M40.26,98.83,34.82,87.62a.36.36,0,0,1,.16-.47h0a.36.36,0,0,1,.49.16l5.44,11.21a.36.36,0,0,1-.16.47h0A.36.36,0,0,1,40.26,98.83Z"/>
              <path class="e856eb6b-6f19-412a-88cb-4eeaa0c5f227" d="M38.27,100.07,32.83,88.86a.36.36,0,0,1,.16-.47h0a.36.36,0,0,1,.49.16l5.44,11.21a.34.34,0,0,1-.16.47h0A.35.35,0,0,1,38.27,100.07Z"/>
              <path class="e856eb6b-6f19-412a-88cb-4eeaa0c5f227" d="M36.28,101.13,30.84,89.92a.36.36,0,0,1,.16-.47h0a.36.36,0,0,1,.5.15l5.43,11.22a.34.34,0,0,1-.15.46h0A.36.36,0,0,1,36.28,101.13Z"/>
              <path class="e856eb6b-6f19-412a-88cb-4eeaa0c5f227" d="M34.29,102.18,28.86,91A.35.35,0,0,1,29,90.5h0a.37.37,0,0,1,.5.16L35,101.87a.36.36,0,0,1-.16.47h0A.38.38,0,0,1,34.29,102.18Z"/>
              <path class="e856eb6b-6f19-412a-88cb-4eeaa0c5f227" d="M32.46,103.15,27,91.94a.36.36,0,0,1,.16-.47h0a.36.36,0,0,1,.49.16l5.44,11.21a.36.36,0,0,1-.16.47h0A.36.36,0,0,1,32.46,103.15Z"/>
              <path class="e856eb6b-6f19-412a-88cb-4eeaa0c5f227" d="M30.63,104.32,25.19,93.1a.33.33,0,0,1,.16-.46h0a.35.35,0,0,1,.49.15L31.28,104a.36.36,0,0,1-.16.47h0A.35.35,0,0,1,30.63,104.32Z"/>
              <path class="e856eb6b-6f19-412a-88cb-4eeaa0c5f227" d="M29.29,105.12,23.85,93.91a.36.36,0,0,1,.16-.47h0a.36.36,0,0,1,.49.16l5.44,11.21a.36.36,0,0,1-.16.47h0A.36.36,0,0,1,29.29,105.12Z"/>
              <path class="fd5182d0-3595-4d95-9e71-537a93bc6706" d="M27.9,104.5l-.43-.81,10.06-7.21L36.26,86.31l.71-.42a.86.86,0,0,1,1.21.32L43.9,96.93a.86.86,0,0,1-.41,1.18L29,104.87A.88.88,0,0,1,27.9,104.5Z"/>
              <line class="fd5182d0-3595-4d95-9e71-537a93bc6706" x1="155.31" y1="31.29" x2="165.72" y2="45.3"/>
            </g>
            <g>
              <path class="b997326a-f8b4-4f6a-aeca-347d4a9d7079" d="M23.09,95.51s-6,2.67-2.48,12.51c0,0,1.07,5-3.81,11.88,0,0-7.23,6.31-5.25,11.09s5.59,1.89,6.61,1a6.81,6.81,0,0,0,2.38-5.76s1.73-2.17,2.52-3,.87-1.34,2.26-2.69,4.8-7.84,2-15.92a.65.65,0,0,1,.2-.92S23.06,95.47,23.09,95.51Z"/>
              <path class="aa12a52d-730f-4e57-86d9-9b377338085e" d="M21.54,97.23s-2.51,2.54-1.24,7,.92,6.76.39,7.7c0,0,1.84-4.41.72-8.22A10,10,0,0,1,21.54,97.23Z"/>
              <path class="aa12a52d-730f-4e57-86d9-9b377338085e" d="M14.06,123.45s-4.28,5.16-1.42,8.28C12.64,131.73,10.36,129.13,14.06,123.45Z"/>
              <path class="aefd5e1a-27f4-48bc-bab4-08e3b4be0e61" d="M20,126.35a7.16,7.16,0,0,1-5.1,6.54A10.33,10.33,0,0,0,20,126.35Z"/>
              <path class="aefd5e1a-27f4-48bc-bab4-08e3b4be0e61" d="M16.62,126.2s2.25-1.74,3.67-1.48,3.35-2.33,3.49-2.45-1.86,2.1-3.45,2.17S16.62,126.2,16.62,126.2Z"/>
              <path class="aefd5e1a-27f4-48bc-bab4-08e3b4be0e61" d="M24.25,121.13s3.89-3,3.88-11C28.13,110.14,27.88,116.88,24.25,121.13Z"/>
              <path class="bc59b47a-8391-4894-9c06-d9190d74a08a" d="M24.91,98.93s-2.76.78-.69,10c1.41,6.31-8.77,17.06-9.49,18.79s.51,5.31,2.68,4.83a5.71,5.71,0,0,1-1.38.81,4,4,0,0,1-2.4-5.72c1.76-4.42,8.56-8.79,9.6-18.42.26-2.42-3.33-7,.93-11.64Z"/>
            </g>
          </g>
        </g>
      </g>
    </g>
    <g id="b61d4a45-1400-451b-97e4-02f347bc7192" data-name="Layer 12">
      <g>
        <g class="e92c8b54-9a1d-4346-9fb1-407665c37e4c">
          <g>
            <g>
              <path class="fdefa199-836c-4cce-bb1d-1625dd4a15dd" d="M17.37,162.92a1.65,1.65,0,0,1-1.64-1.37,1.63,1.63,0,0,1,1.38-1.87l.15,0A1.66,1.66,0,0,1,19.18,161a1.64,1.64,0,0,1-1.36,1.88l-.18,0Zm-5.79-.06-.3,0-.18,0a1.64,1.64,0,0,1-1.32-1.91,1.67,1.67,0,0,1,2-1.29l.15,0a1.64,1.64,0,0,1,1.34,1.89A1.66,1.66,0,0,1,11.58,162.86ZM23,161a1.67,1.67,0,0,1-1.45-.83,1.61,1.61,0,0,1,.64-2.22l.12-.07a1.69,1.69,0,0,1,2.28.6A1.61,1.61,0,0,1,24,160.7l-.16.09A1.66,1.66,0,0,1,23,161Zm-17-.17a1.59,1.59,0,0,1-.84-.23L5,160.51a1.61,1.61,0,0,1-.57-2.23,1.7,1.7,0,0,1,2.29-.56l.13.08A1.61,1.61,0,0,1,7.43,160,1.69,1.69,0,0,1,6,160.83Zm21.62-3.52a1.67,1.67,0,0,1-1.09-.4,1.6,1.6,0,0,1-.17-2.29.52.52,0,0,1,.1-.11,1.68,1.68,0,0,1,2.34-.2,1.62,1.62,0,0,1,.2,2.3l-.12.14A1.68,1.68,0,0,1,27.61,157.31ZM1.46,157a1.67,1.67,0,0,1-1.28-.59l-.12-.14A1.6,1.6,0,0,1,.31,154a1.69,1.69,0,0,1,2.34.25l.09.11a1.6,1.6,0,0,1-.22,2.29A1.69,1.69,0,0,1,1.46,157Zm29.19-4.74a1.7,1.7,0,0,1-.58-.11,1.62,1.62,0,0,1-1-2.1l0-.14a1.67,1.67,0,0,1,2.13-1,1.6,1.6,0,0,1,1,2.08l-.06.17A1.67,1.67,0,0,1,30.65,152.3ZM-1.48,152A1.65,1.65,0,0,1-3,150.89a1.34,1.34,0,0,1-.07-.18,1.62,1.62,0,0,1,1-2.06,1.67,1.67,0,0,1,2.11,1,.78.78,0,0,1,0,.14,1.61,1.61,0,0,1-1,2.08A1.77,1.77,0,0,1-1.48,152Zm33.22-5.41h0a1.64,1.64,0,0,1-1.65-1.64v-.15a1.67,1.67,0,0,1,3.33,0V145A1.65,1.65,0,0,1,31.74,146.56Zm-34.19-.34h0a1.65,1.65,0,0,1-1.64-1.65v-.17a1.65,1.65,0,0,1,1.67-1.6h0a1.64,1.64,0,0,1,1.63,1.66v.15A1.65,1.65,0,0,1-2.45,146.22Zm33.34-5.07A1.65,1.65,0,0,1,29.31,140a.78.78,0,0,1,0-.14,1.61,1.61,0,0,1,1-2.06,1.67,1.67,0,0,1,2.11,1l.06.18a1.62,1.62,0,0,1-1.07,2A1.51,1.51,0,0,1,30.89,141.15Zm-32.24-.66a1.54,1.54,0,0,1-.59-.11,1.61,1.61,0,0,1-1-2.09c0-.06.05-.12.07-.17a1.67,1.67,0,0,1,2.15-.93,1.62,1.62,0,0,1,1,2.11l-.05.14A1.67,1.67,0,0,1-1.35,140.49ZM28.06,136a1.68,1.68,0,0,1-1.31-.62l-.09-.11a1.6,1.6,0,0,1,.25-2.29,1.68,1.68,0,0,1,2.34.24l.11.14a1.61,1.61,0,0,1-.27,2.29A1.65,1.65,0,0,1,28.06,136ZM1.7,135.48a1.67,1.67,0,0,1-1.09-.4,1.6,1.6,0,0,1-.17-2.29l.12-.14a1.69,1.69,0,0,1,2.35-.14,1.6,1.6,0,0,1,.15,2.29l-.1.11A1.65,1.65,0,0,1,1.7,135.48Zm21.9-3.33a1.73,1.73,0,0,1-.87-.24l-.13-.08a1.61,1.61,0,0,1-.56-2.24,1.68,1.68,0,0,1,2.28-.55l.16.09a1.61,1.61,0,0,1,.54,2.24A1.67,1.67,0,0,1,23.6,132.15Zm-17.28-.36A1.68,1.68,0,0,1,4.86,131a1.61,1.61,0,0,1,.64-2.22l.16-.08a1.68,1.68,0,0,1,2.26.64,1.62,1.62,0,0,1-.66,2.21l-.13.07A1.72,1.72,0,0,1,6.32,131.79ZM18.06,130a1.86,1.86,0,0,1-.33,0l-.15,0a1.62,1.62,0,0,1-1.31-1.9,1.65,1.65,0,0,1,1.94-1.29l.18,0a1.63,1.63,0,0,1,1.3,1.92A1.66,1.66,0,0,1,18.06,130Zm-6.12-.13a1.65,1.65,0,0,1-1.64-1.37,1.64,1.64,0,0,1,1.38-1.87l.18,0A1.66,1.66,0,0,1,13.75,128a1.63,1.63,0,0,1-1.4,1.85l-.15,0Z"/>
              <g>
                <path class="fdefa199-836c-4cce-bb1d-1625dd4a15dd" d="M16.61,157.86a1.18,1.18,0,0,1-1.18-1,1.17,1.17,0,0,1,1-1.34l.1,0a1.2,1.2,0,0,1,1.39,1,1.18,1.18,0,0,1-1,1.36l-.13,0Zm-4.18,0a.75.75,0,0,1-.21,0l-.13,0a1.17,1.17,0,0,1-.95-1.38,1.2,1.2,0,0,1,1.4-.93l.11,0a1.19,1.19,0,0,1,1,1.37A1.21,1.21,0,0,1,12.43,157.82Zm8.25-1.34a1.22,1.22,0,0,1-1.05-.6,1.16,1.16,0,0,1,.46-1.6l.09-.05a1.22,1.22,0,0,1,1.64.43,1.17,1.17,0,0,1-.44,1.61l-.12.06A1.19,1.19,0,0,1,20.68,156.48ZM8.4,156.36a1.22,1.22,0,0,1-.61-.17l-.11-.06a1.16,1.16,0,0,1-.41-1.61,1.22,1.22,0,0,1,1.65-.41l.09.06a1.17,1.17,0,0,1,.43,1.61A1.23,1.23,0,0,1,8.4,156.36ZM24,153.82a1.22,1.22,0,0,1-.78-.29,1.17,1.17,0,0,1-.13-1.66.27.27,0,0,0,.07-.08,1.23,1.23,0,0,1,1.7-.14,1.17,1.17,0,0,1,.14,1.66l-.09.1A1.21,1.21,0,0,1,24,153.82Zm-18.87-.19a1.22,1.22,0,0,1-.93-.43.39.39,0,0,0-.08-.1,1.15,1.15,0,0,1,.18-1.65,1.22,1.22,0,0,1,1.69.17l.07.08a1.16,1.16,0,0,1-.17,1.66A1.2,1.2,0,0,1,5.13,153.63ZM26.2,150.2a1.25,1.25,0,0,1-.42-.08,1.16,1.16,0,0,1-.7-1.51l0-.1a1.21,1.21,0,0,1,1.54-.7,1.17,1.17,0,0,1,.72,1.51l-.05.12A1.2,1.2,0,0,1,26.2,150.2ZM3,150a1.2,1.2,0,0,1-1.13-.78.56.56,0,0,1,0-.12,1.16,1.16,0,0,1,.74-1.49,1.21,1.21,0,0,1,1.53.73l0,.1a1.17,1.17,0,0,1-.73,1.5A1.39,1.39,0,0,1,3,150Zm24-3.9h0a1.18,1.18,0,0,1-1.19-1.18v-.11a1.2,1.2,0,0,1,2.4,0v.13A1.19,1.19,0,0,1,27,146.06Zm-24.68-.25h0a1.18,1.18,0,0,1-1.19-1.19v-.12a1.19,1.19,0,0,1,1.2-1.15h0a1.18,1.18,0,0,1,1.17,1.19v.11A1.18,1.18,0,0,1,2.31,145.81Zm24.06-3.65a1.2,1.2,0,0,1-1.14-.81l0-.1a1.17,1.17,0,0,1,.75-1.49,1.22,1.22,0,0,1,1.53.73s0,.08,0,.13a1.17,1.17,0,0,1-.77,1.48A1.19,1.19,0,0,1,26.37,142.16ZM3.1,141.68a1.25,1.25,0,0,1-.42-.08,1.17,1.17,0,0,1-.7-1.51L2,140a1.2,1.2,0,0,1,1.55-.67,1.16,1.16,0,0,1,.69,1.52l0,.1A1.21,1.21,0,0,1,3.1,141.68Zm21.23-3.23a1.19,1.19,0,0,1-.94-.44l-.07-.09a1.15,1.15,0,0,1,.18-1.65,1.21,1.21,0,0,1,1.69.18l.08.1a1.16,1.16,0,0,1-.2,1.65A1.2,1.2,0,0,1,24.33,138.45Zm-19-.39a1.21,1.21,0,0,1-.78-.28,1.17,1.17,0,0,1-.13-1.66l.09-.1a1.22,1.22,0,0,1,1.7-.1,1.15,1.15,0,0,1,.1,1.65.27.27,0,0,1-.07.08A1.21,1.21,0,0,1,5.3,138.06Zm15.81-2.4a1.23,1.23,0,0,1-.63-.18l-.09,0a1.17,1.17,0,0,1-.41-1.62,1.23,1.23,0,0,1,1.65-.4l.11.07a1.17,1.17,0,0,1,.4,1.62A1.23,1.23,0,0,1,21.11,135.66ZM8.63,135.4a1.2,1.2,0,0,1-1-.6,1.16,1.16,0,0,1,.46-1.6l.11-.06a1.21,1.21,0,0,1,1.63.46,1.17,1.17,0,0,1-.47,1.6l-.1.05A1.26,1.26,0,0,1,8.63,135.4Zm8.48-1.29-.24,0-.1,0a1.18,1.18,0,1,1,.45-2.31l.13,0a1.18,1.18,0,0,1,.94,1.39A1.2,1.2,0,0,1,17.11,134.11ZM12.69,134a1.17,1.17,0,0,1-.18-2.33l.13,0a1.19,1.19,0,0,1,1.36,1A1.17,1.17,0,0,1,13,134l-.11,0Z"/>
                <path class="fdefa199-836c-4cce-bb1d-1625dd4a15dd" d="M16.61,158l-.28,0,.06-.24.22,0Zm-4.18,0-.23,0v-.25h0l.19,0Zm8.25-1.35-.28,0,.05-.25a.91.91,0,0,0,.23,0ZM8.4,156.48a1.33,1.33,0,0,1-.28,0l.06-.24.22,0ZM24,153.94l-.28,0,.06-.24.22,0Zm-18.87-.19a1.33,1.33,0,0,1-.28,0l.06-.24.22,0Zm21.07-3.43a1.33,1.33,0,0,1-.28,0l0-.24a.9.9,0,0,0,.23,0ZM3,150.09a1.33,1.33,0,0,1-.28,0l.06-.24.22,0Zm24-3.91h0l-.27,0,.05-.25a.78.78,0,0,0,.22,0Zm-24.68-.24h0l-.26,0,.06-.24.21,0Zm24.06-3.66a1.27,1.27,0,0,1-.28,0l.05-.24.23,0ZM3.1,141.8l-.28,0,.06-.24a.82.82,0,0,0,.22,0Zm21.23-3.22a1.27,1.27,0,0,1-.28,0l.05-.24.23,0Zm-19-.4a1.37,1.37,0,0,1-.28,0l.06-.25a.83.83,0,0,0,.22,0Zm15.81-2.4a1.33,1.33,0,0,1-.28,0l.06-.24a.82.82,0,0,0,.22,0Zm-12.48-.26-.27,0,.05-.24a.83.83,0,0,0,.22,0Zm8.48-1.28a1.15,1.15,0,0,1-.26,0l0-.25.22,0Zm-4.42-.1a1.23,1.23,0,0,1-.27,0l.05-.25a.83.83,0,0,0,.22,0Z"/>
              </g>
              <path class="fdefa199-836c-4cce-bb1d-1625dd4a15dd" d="M15.94,153.36a.77.77,0,0,1-.13-1.54h.07a.79.79,0,0,1,.91.63.76.76,0,0,1-.64.89l-.09,0Zm-2.74,0h-.15l-.08,0a.77.77,0,0,1-.63-.9.8.8,0,0,1,.93-.61h.07a.77.77,0,0,1-.14,1.53Zm5.4-.88a.77.77,0,0,1-.68-.4.74.74,0,0,1,.3-1l.06,0a.79.79,0,0,1,1.07.29.75.75,0,0,1-.29,1.05l-.07,0A.78.78,0,0,1,18.6,152.45Zm-8-.08a.83.83,0,0,1-.4-.11l-.07,0a.75.75,0,0,1-.27-1.06.8.8,0,0,1,1.08-.26l.06,0a.76.76,0,0,1,.28,1.06A.8.8,0,0,1,10.55,152.37Zm10.24-1.67a.78.78,0,0,1-.52-.19.75.75,0,0,1-.08-1.08l0-.06a.81.81,0,0,1,1.11-.09.77.77,0,0,1,.09,1.09l-.06.06A.76.76,0,0,1,20.79,150.7ZM8.4,150.58a.79.79,0,0,1-.6-.28l-.06-.07a.76.76,0,0,1,.12-1.08.8.8,0,0,1,1.11.11l0,.05a.77.77,0,0,1-.1,1.09A.81.81,0,0,1,8.4,150.58Zm13.83-2.25a.87.87,0,0,1-.28-.05.77.77,0,0,1-.46-1l0-.06a.79.79,0,0,1,1-.46.77.77,0,0,1,.46,1l0,.08A.77.77,0,0,1,22.23,148.33ZM7,148.17a.78.78,0,0,1-.74-.51l0-.08a.77.77,0,0,1,.49-1,.79.79,0,0,1,1,.48l0,.07a.77.77,0,0,1-.48,1A.84.84,0,0,1,7,148.17Zm15.73-2.56h0a.77.77,0,0,1-.78-.78v-.07a.79.79,0,0,1,1.57,0v.09A.77.77,0,0,1,22.74,145.61Zm-16.19-.16h0a.77.77,0,0,1-.78-.78v-.08a.79.79,0,0,1,.79-.76h0a.77.77,0,0,1,.77.79v.07A.77.77,0,0,1,6.55,145.45Zm15.79-2.4a.8.8,0,0,1-.75-.53l0-.07a.76.76,0,0,1,.49-1,.78.78,0,0,1,1,.48l0,.08a.77.77,0,0,1-.51,1A.67.67,0,0,1,22.34,143.05Zm-15.27-.31a.86.86,0,0,1-.27-.05.77.77,0,0,1-.46-1l0-.08a.8.8,0,0,1,1-.44.78.78,0,0,1,.45,1l0,.07A.79.79,0,0,1,7.07,142.74ZM21,140.62a.81.81,0,0,1-.62-.29l0-.06a.76.76,0,0,1,.11-1.08.79.79,0,0,1,1.11.12l.06.06a.76.76,0,0,1-.13,1.08A.77.77,0,0,1,21,140.62Zm-12.48-.26a.82.82,0,0,1-.52-.18.77.77,0,0,1-.08-1.09L8,139A.81.81,0,0,1,9.09,139a.76.76,0,0,1,.07,1.09l-.05,0A.79.79,0,0,1,8.52,140.36Zm10.37-1.57a.78.78,0,0,1-.41-.12l-.06,0a.75.75,0,0,1-.27-1.06.79.79,0,0,1,1.08-.26l.07,0a.76.76,0,0,1,.26,1.06A.79.79,0,0,1,18.89,138.79Zm-8.19-.17a.8.8,0,0,1-.69-.4.77.77,0,0,1,.31-1.05l.07,0a.81.81,0,0,1,1.07.31.77.77,0,0,1-.31,1.05l-.06,0A.78.78,0,0,1,10.7,138.62Zm5.57-.85h-.16l-.07,0a.77.77,0,0,1-.63-.9.8.8,0,0,1,.93-.61l.08,0a.77.77,0,0,1,.62.91A.79.79,0,0,1,16.27,137.77Zm-2.9-.06a.78.78,0,0,1-.78-.65.77.77,0,0,1,.65-.88h.09a.78.78,0,0,1,.89.65.76.76,0,0,1-.66.87h-.19Z"/>
            </g>
            <g>
              <g>
                <path class="fdefa199-836c-4cce-bb1d-1625dd4a15dd" d="M36,108.43a1.69,1.69,0,0,0,1.09.4,1.65,1.65,0,0,0,1.26-.57l.1-.1a1.71,1.71,0,0,0,.3-.5H35.45A1.54,1.54,0,0,0,36,108.43Z"/>
                <path class="fdefa199-836c-4cce-bb1d-1625dd4a15dd" d="M35.44,123.15a.69.69,0,0,1,0-.13,1.67,1.67,0,0,0-2.11-1,1.62,1.62,0,0,0-1,2.07l.06.17a1.65,1.65,0,0,0,1.57,1.08,1.76,1.76,0,0,0,.55-.09A1.63,1.63,0,0,0,35.44,123.15Z"/>
                <path class="fdefa199-836c-4cce-bb1d-1625dd4a15dd" d="M39.77,131.63a1.6,1.6,0,0,0,.57,2.23l0,0v-2.82A1.53,1.53,0,0,0,39.77,131.63Z"/>
                <path class="fdefa199-836c-4cce-bb1d-1625dd4a15dd" d="M33.41,113.73a1.49,1.49,0,0,0,.58.11,1.66,1.66,0,0,0,1.56-1l.05-.14a1.62,1.62,0,0,0-.94-2.11,1.69,1.69,0,0,0-2.16.93l-.06.17A1.6,1.6,0,0,0,33.41,113.73Z"/>
                <path class="fdefa199-836c-4cce-bb1d-1625dd4a15dd" d="M38,127.62a1.68,1.68,0,0,0-2.34-.24,1.62,1.62,0,0,0-.25,2.29l.12.13a1.67,1.67,0,0,0,2.34.22,1.61,1.61,0,0,0,.23-2.29Z"/>
                <path class="fdefa199-836c-4cce-bb1d-1625dd4a15dd" d="M32.9,119.57A1.65,1.65,0,0,0,34.56,118v-.15a1.64,1.64,0,0,0-1.63-1.66h0a1.64,1.64,0,0,0-1.66,1.6v.17a1.65,1.65,0,0,0,1.65,1.65Z"/>
              </g>
              <g>
                <path class="fdefa199-836c-4cce-bb1d-1625dd4a15dd" d="M39.64,124.8a1.16,1.16,0,0,0-.18,1.65l.09.1a1.14,1.14,0,0,0,.81.41v-2.42A1.22,1.22,0,0,0,39.64,124.8Z"/>
                <path class="fdefa199-836c-4cce-bb1d-1625dd4a15dd" d="M39.74,109.47a1.16,1.16,0,0,0,.12,1.66,1.22,1.22,0,0,0,.5.24V109a1.16,1.16,0,0,0-.54.34Z"/>
                <path class="fdefa199-836c-4cce-bb1d-1625dd4a15dd" d="M39.45,121.65a1.2,1.2,0,0,0-1.52-.73,1.16,1.16,0,0,0-.75,1.49s0,.08,0,.12a1.21,1.21,0,0,0,1.13.78,1.45,1.45,0,0,0,.41-.06,1.18,1.18,0,0,0,.73-1.5A.69.69,0,0,1,39.45,121.65Z"/>
                <path class="fdefa199-836c-4cce-bb1d-1625dd4a15dd" d="M38.92,112.65a1.2,1.2,0,0,0-1.55.67l0,.12A1.17,1.17,0,0,0,38,115a1.26,1.26,0,0,0,.43.08,1.2,1.2,0,0,0,1.12-.76l0-.1A1.16,1.16,0,0,0,38.92,112.65Z"/>
                <path class="fdefa199-836c-4cce-bb1d-1625dd4a15dd" d="M37.65,119.16A1.19,1.19,0,0,0,38.86,118v-.1a1.19,1.19,0,0,0-1.18-1.2h0a1.18,1.18,0,0,0-1.2,1.15V118a1.19,1.19,0,0,0,1.19,1.19Z"/>
                <path class="fdefa199-836c-4cce-bb1d-1625dd4a15dd" d="M37.43,119l0,.24a1.09,1.09,0,0,0,.26,0h0V119Z"/>
                <path class="fdefa199-836c-4cce-bb1d-1625dd4a15dd" d="M38.08,123.41a1.24,1.24,0,0,0,.27,0v-.25l-.22,0Z"/>
                <path class="fdefa199-836c-4cce-bb1d-1625dd4a15dd" d="M40.25,126.83l0,.24.16,0v-.25Z"/>
                <path class="fdefa199-836c-4cce-bb1d-1625dd4a15dd" d="M38.17,115.12a1.27,1.27,0,0,0,.28,0v-.25a.86.86,0,0,1-.23,0Z"/>
              </g>
            </g>
            <g>
              <g>
                <path class="fdefa199-836c-4cce-bb1d-1625dd4a15dd" d="M11.59,116.52a1.69,1.69,0,0,0-2.35.2l-.09.11a1.59,1.59,0,0,0,.17,2.29,1.65,1.65,0,0,0,1.09.4,1.69,1.69,0,0,0,1.26-.56l.12-.14A1.62,1.62,0,0,0,11.59,116.52Z"/>
                <path class="fdefa199-836c-4cce-bb1d-1625dd4a15dd" d="M5.11,120.09l-.13.07a1.61,1.61,0,0,0-.63,2.22,1.67,1.67,0,0,0,1.45.83,1.72,1.72,0,0,0,.81-.21l.16-.08a1.61,1.61,0,0,0,.61-2.23A1.68,1.68,0,0,0,5.11,120.09Z"/>
                <path class="fdefa199-836c-4cce-bb1d-1625dd4a15dd" d="M14.08,111.2a1.66,1.66,0,0,0-2.13,1l-.06.13a1.62,1.62,0,0,0,1,2.1,1.76,1.76,0,0,0,.59.11A1.66,1.66,0,0,0,15,113.45l.06-.16A1.62,1.62,0,0,0,14.08,111.2Z"/>
                <path class="fdefa199-836c-4cce-bb1d-1625dd4a15dd" d="M.06,121.87l-.15,0a1.63,1.63,0,0,0-1.38,1.87,1.65,1.65,0,0,0,1.64,1.37l.26,0,.18,0A1.62,1.62,0,0,0,2,123.2,1.65,1.65,0,0,0,.06,121.87Z"/>
                <path class="fdefa199-836c-4cce-bb1d-1625dd4a15dd" d="M14.53,108.77h0a1.66,1.66,0,0,0,1.58-1.11H13A1.66,1.66,0,0,0,14.53,108.77Z"/>
              </g>
              <g>
                <path class="fdefa199-836c-4cce-bb1d-1625dd4a15dd" d="M3,116.44l-.09,0a1.16,1.16,0,0,0-.46,1.6,1.18,1.18,0,0,0,1,.6,1.26,1.26,0,0,0,.59-.15l.12-.06a1.17,1.17,0,0,0,.44-1.61A1.22,1.22,0,0,0,3,116.44Z"/>
                <path class="fdefa199-836c-4cce-bb1d-1625dd4a15dd" d="M6,114l-.07.07A1.16,1.16,0,0,0,6,115.74a1.24,1.24,0,0,0,.79.29,1.21,1.21,0,0,0,.91-.41l.09-.1a1.17,1.17,0,0,0-.15-1.66A1.22,1.22,0,0,0,6,114Z"/>
                <path class="fdefa199-836c-4cce-bb1d-1625dd4a15dd" d="M9.45,110a1.21,1.21,0,0,0-1.54.7l0,.1a1.16,1.16,0,0,0,.7,1.51,1.09,1.09,0,0,0,.43.08,1.2,1.2,0,0,0,1.12-.76l.05-.12A1.18,1.18,0,0,0,9.45,110Z"/>
                <path class="fdefa199-836c-4cce-bb1d-1625dd4a15dd" d="M-.67,117.72l-.11,0a1.17,1.17,0,0,0-1,1.35,1.18,1.18,0,0,0,1.18,1H-.4l.13,0a1.17,1.17,0,0,0,1-1.36A1.19,1.19,0,0,0-.67,117.72Z"/>
                <path class="fdefa199-836c-4cce-bb1d-1625dd4a15dd" d="M9.77,108.27h0a1.19,1.19,0,0,0,1.05-.61H8.74A1.17,1.17,0,0,0,9.77,108.27Z"/>
                <path class="fdefa199-836c-4cce-bb1d-1625dd4a15dd" d="M8.72,112.5a1.27,1.27,0,0,0,.28,0v-.24a.91.91,0,0,1-.23,0Z"/>
                <path class="fdefa199-836c-4cce-bb1d-1625dd4a15dd" d="M6.52,116.12a1.33,1.33,0,0,0,.28,0v-.25a.9.9,0,0,1-.23,0Z"/>
                <path class="fdefa199-836c-4cce-bb1d-1625dd4a15dd" d="M9.56,108.12l-.05.25a1.09,1.09,0,0,0,.26,0h0v-.25A.76.76,0,0,1,9.56,108.12Z"/>
                <path class="fdefa199-836c-4cce-bb1d-1625dd4a15dd" d="M3.2,118.79a1.24,1.24,0,0,0,.27,0v-.25a.83.83,0,0,1-.22,0Z"/>
              </g>
              <g>
                <path class="fdefa199-836c-4cce-bb1d-1625dd4a15dd" d="M-.8,108.42h0a.25.25,0,0,0,0,.35.24.24,0,0,0,.16,0,.24.24,0,0,0,.19-.08l0,0a.24.24,0,0,0,0-.34A.25.25,0,0,0-.8,108.42Z"/>
                <path class="fdefa199-836c-4cce-bb1d-1625dd4a15dd" d="M-.41,107.76a.23.23,0,0,0,.15.31l.08,0a.26.26,0,0,0,.24-.16v0a.26.26,0,0,0-.06-.25H-.35a.22.22,0,0,0-.05.08Z"/>
              </g>
              <g>
                <path class="fdefa199-836c-4cce-bb1d-1625dd4a15dd" d="M-.39,110.68l0,0a.46.46,0,0,0-.18.62.49.49,0,0,0,.42.24A.46.46,0,0,0,0,111.5l.05,0a.45.45,0,0,0,.17-.62A.46.46,0,0,0-.39,110.68Z"/>
                <path class="fdefa199-836c-4cce-bb1d-1625dd4a15dd" d="M2.14,108.16a.48.48,0,0,0-.6.28v0a.45.45,0,0,0,.27.59.51.51,0,0,0,.17,0,.49.49,0,0,0,.44-.3v0A.45.45,0,0,0,2.14,108.16Z"/>
                <path class="fdefa199-836c-4cce-bb1d-1625dd4a15dd" d="M.78,109.72l0,0a.45.45,0,0,0,.05.65.45.45,0,0,0,.31.11.44.44,0,0,0,.35-.16l0,0a.46.46,0,0,0-.06-.65A.47.47,0,0,0,.78,109.72Z"/>
              </g>
              <g>
                <path class="fdefa199-836c-4cce-bb1d-1625dd4a15dd" d="M1.08,113.18l-.07,0a.77.77,0,0,0-.3,1,.81.81,0,0,0,1.08.29l.07,0a.75.75,0,0,0,.29-1A.8.8,0,0,0,1.08,113.18Z"/>
                <path class="fdefa199-836c-4cce-bb1d-1625dd4a15dd" d="M3,111.59l0,0a.75.75,0,0,0,.08,1.08.77.77,0,0,0,.51.19.83.83,0,0,0,.6-.26l.06-.07a.76.76,0,0,0-.1-1.09A.8.8,0,0,0,3,111.59Z"/>
                <path class="fdefa199-836c-4cce-bb1d-1625dd4a15dd" d="M5.54,107.82a.79.79,0,0,0,.48-.16h-1a.78.78,0,0,0,.47.16Z"/>
                <path class="fdefa199-836c-4cce-bb1d-1625dd4a15dd" d="M5.32,109a.79.79,0,0,0-1,.46l0,.07a.76.76,0,0,0,.46,1,.86.86,0,0,0,.27.05.79.79,0,0,0,.74-.5l0-.08A.77.77,0,0,0,5.32,109Z"/>
                <path class="fdefa199-836c-4cce-bb1d-1625dd4a15dd" d="M-1.32,114l-.07,0a.76.76,0,0,0-.65.88.77.77,0,0,0,.77.65h.13l.09,0a.77.77,0,0,0,.64-.88A.79.79,0,0,0-1.32,114Z"/>
              </g>
            </g>
            <ellipse class="fdefa199-836c-4cce-bb1d-1625dd4a15dd" cx="22.74" cy="119.28" rx="3.87" ry="3.79"/>
          </g>
        </g>
        <path class="a9051374-b005-460f-9e6b-d75e5adc9745" d="M19.93,323.12l-2.17-4.43-1.62-3.42-.13-.16c-7.55-15.49-24-49.2-30-62.48-8-17.5-8.09-33.43-20-31.15-3.51.67-11,17.86-13.67,31s-15.11,42-19.14,53.83c-2.08,6.08-4.28,13.43-5.93,19.12h-.1l-.86,3.34c-1,3.57-1.66,5.94-1.66,5.94s7.24-.24,18,2.72l-.27,0-1.79,20.55s0-.09,0-.23l0,.23s-2,6.12,20,4.22c4.3-.37,8-.67,11.3-.89.7,8.68,1.65,20,2.05,24,.67,6.78-.23,18.15-.23,18.15s11.64-6.47,19.68-15.3c7.11-7.84,11.57-12.42,10.51-17,0,0,0,0,0,.06l0-.11v-.12c-.19-1.12-.8-4.79-1.63-9.69l-.77-5.29s-.06-.12-.17-.31C1,354,.68,352.25.38,350.49l-1.3-8.08-.1,0c-.38-2.15-.75-4.27-1.11-6.28,5.84-.82,13.3-2,16.48-3.13C19.94,331,22,327.07,19.93,323.12Z"/>
      </g>
    </g>
  </g>
</svg>
