<svg xmlns="http://www.w3.org/2000/svg" width="198.99" height="136.69" viewBox="0 0 198.99 136.69">
  <defs>
    <style>
      .b6dab411-1acf-476e-a131-c465e04af5ea {
        isolation: isolate;
      }

      .aa645060-2638-43c7-96f4-1141709ba4c7 {
        fill: #fff;
      }

      .b2316b6d-c419-4b1f-b629-0f4369d13a7f, .e68c1e9b-604e-4f15-9ff2-97428595dd89 {
        fill: #ff57d4;
      }

      .b2316b6d-c419-4b1f-b629-0f4369d13a7f {
        stroke: #707070;
        stroke-miterlimit: 10;
      }

      .e31bee4d-d1cc-439c-8fdf-d891c9b6c3ff, .f0eeef43-8a84-4413-b8ae-582e68ac1266 {
        fill: #f9f7f4;
      }

      .a5ca5746-79f4-4b06-bb01-d1dc7f2740e0 {
        fill: #ede8e4;
        opacity: 0.6;
      }

      .a5ca5746-79f4-4b06-bb01-d1dc7f2740e0, .b23037b3-1c20-4052-b0d5-2631df72c930 {
        mix-blend-mode: multiply;
      }

      .b23037b3-1c20-4052-b0d5-2631df72c930 {
        fill: #e5e4e3;
      }

      .b193cbce-60f6-4be1-90e4-aaacde212f4b {
        fill: #4cf2e6;
      }

      .e31bee4d-d1cc-439c-8fdf-d891c9b6c3ff {
        opacity: 0.5;
        mix-blend-mode: screen;
      }

      .ebcc850b-3b4b-4f5e-ab58-71244f870ad7 {
        fill: #19d8f8;
      }

      .b1ca2784-82c6-45f7-baa1-c1368c73397b {
        fill: #90f9f8;
      }

      .ac4dc90f-fef4-4d3d-8779-d041391c7d81 {
        fill: #309faa;
      }
    </style>
  </defs>
  <g class="b6dab411-1acf-476e-a131-c465e04af5ea">
    <g id="ad49bb19-e9bc-47d0-a7c2-ae289bd7ed4f" data-name="Layer 5">
      <g>
        <path class="aa645060-2638-43c7-96f4-1141709ba4c7" d="M20.07,136.22a4.36,4.36,0,0,1-.51,0l-.22,0a4.71,4.71,0,0,1-.57-.14l-.2-.06a4.6,4.6,0,0,1-.68-.32l-.18-.11a3.9,3.9,0,0,1-.65-.48L17,135a5.48,5.48,0,0,1-.52-.56l-.12-.15a8.58,8.58,0,0,1-.5-.74l-.07-.12c-.18-.33-.33-.63-.48-1a7.25,7.25,0,0,1-.4-1.3c0-.23-.07-.45-.09-.67a7,7,0,0,1,0-1.29,9.34,9.34,0,0,1,.56-2.43c.14-.39.3-.76.47-1.13a16.62,16.62,0,0,1,.87-1.58,24.59,24.59,0,0,1,1.61-2.27A28.35,28.35,0,0,1,20.86,119c.25-.37.48-.73.7-1.08a24.86,24.86,0,0,0,1.24-2.31,19.36,19.36,0,0,0,.81-2,12.15,12.15,0,0,0,.69-5.31,25.41,25.41,0,0,1-.82-2.74c-.13-.6-.24-1.19-.31-1.75a14.77,14.77,0,0,1-.13-1.6,12.75,12.75,0,0,1,.12-2.16,9.31,9.31,0,0,1,3.2-6,2.32,2.32,0,0,1,.1-.79,2.61,2.61,0,0,1,1.19-1.58l.3-.18a2.1,2.1,0,0,1,.57-.45,2,2,0,0,1,.48-.19l.3-.19a2.4,2.4,0,0,1,.61-.48,2.23,2.23,0,0,1,.51-.19l.65-.4a2.15,2.15,0,0,1,.7-.63l.1,0a2,2,0,0,1,.64-.2l.65-.39a2.06,2.06,0,0,1,1-.58l5.83-3.54h0l-.36-1.06,0-.14c-.11-.36-.21-.71-.31-1l-.08-.31c-.07-.27-.14-.55-.2-.82l0-.22c-.07-.34-.13-.66-.18-1l0-.17c0-.34-.07-.59-.09-.83l0-.22a8.8,8.8,0,0,1,0-.89s0-.15,0-.18a5,5,0,0,1,.1-.73,1.84,1.84,0,0,1,0-.25,4.36,4.36,0,0,1,.28-.84l.08-.16a4.07,4.07,0,0,1,.43-.65l.18-.2a3.69,3.69,0,0,1,.74-.59L152.31,4.26a1.83,1.83,0,0,1,.36-.26L158.79.68a1.83,1.83,0,0,1,.84-.21,1.77,1.77,0,0,1,1.56.92L184,43a1.77,1.77,0,0,1,.14,1.35,1.74,1.74,0,0,1-.85,1.06l-6.12,3.33-.1,0L57.42,104.86a3.08,3.08,0,0,1-.9.3l-.29,0a2.29,2.29,0,0,1-.39,0l-.37,0-.17,0a4.44,4.44,0,0,1-.87-.22l-.19-.08a5.42,5.42,0,0,1-.69-.32l-.16-.08c-.24-.14-.49-.31-.75-.49l-.14-.1c-.24-.18-.43-.34-.63-.51l-.2-.17q-.35-.3-.72-.66l-.11-.11c-.24-.24-.44-.45-.64-.67l-.21-.23c-.24-.27-.48-.54-.72-.83a.42.42,0,0,1-.06-.08l-.68-.84-.07-.09L43.8,102a1.07,1.07,0,0,1-.22.15,2,2,0,0,1-.46.18l-1,.51a2.1,2.1,0,0,1-1.42.68l-.32.16a2,2,0,0,1-.71.62,2.07,2.07,0,0,1-1,.26,2.18,2.18,0,0,1-.92,1,2.31,2.31,0,0,1-.67.23,2.13,2.13,0,0,1-.72.62,2,2,0,0,1-.79.25h-.09a20.81,20.81,0,0,1,.43,4.84,19,19,0,0,1-.26,2.72,19.2,19.2,0,0,1-.89,3.47,12.47,12.47,0,0,1-2.43,4.32c-.16.15-.3.3-.42.43a10.13,10.13,0,0,0-.89,1.15l-.08.12a9.34,9.34,0,0,1-.71.91l-.19.2c-.18.19-.41.45-.66.74-.47.56-1,1.22-1.36,1.67a8.18,8.18,0,0,1-.47,3,9.87,9.87,0,0,1-2.56,3.8,12.64,12.64,0,0,1-1.14.93l-.27.19-.4.25-.31.18-.14.07a3.82,3.82,0,0,1-.46.21l-.16.06a4.72,4.72,0,0,1-.53.18l-.23.06-.42.09c-.14,0-.29,0-.44.06h-.4Z"/>
        <g>
          <g>
            <path class="b2316b6d-c419-4b1f-b629-0f4369d13a7f" d="M41.34,75.41c-1.74,1-1.07,4.88.78,9.52L42,85h0l-7.26,4.4a.52.52,0,0,0-.21,0,.44.44,0,0,0-.17.19L33,90.47a.39.39,0,0,0-.35,0,.36.36,0,0,0-.19.32L31,91.67a.37.37,0,0,0-.25,0,.36.36,0,0,0-.19.23l-1,.58a.38.38,0,0,0-.41.25l-.62.37a.89.89,0,0,0-.33,1.19l2.66,4.85c-1.21-2.2-2.48-4.48-2.46-4.46s-6.17,2.85-2.42,13c0,0,1.17,5.2-3.82,12.38,0,0-7.42,6.64-5.31,11.58,1.29,3,3.17,3,4.68,2.41h0a5.7,5.7,0,0,0,1.21-.7,9.38,9.38,0,0,0,1-.79,7.15,7.15,0,0,0,2.4-6s1.77-2.28,2.58-3.1.88-1.41,2.31-2.83,4.89-8.2,1.85-16.55a.68.68,0,0,1,.19-.95l.44.81a.86.86,0,0,0,.52.42.73.73,0,0,0,.33,0,1,1,0,0,0,.34-.09l.11,0,.15.31a.38.38,0,0,0,.52.16.39.39,0,0,0,.16-.49l-.16-.31.78-.37.08.16a.37.37,0,0,0,.51.16h0a.37.37,0,0,0,.16-.49l-.07-.16,1.36-.66a.37.37,0,0,0,.44.08h0a.38.38,0,0,0,.19-.38l1.36-.66a.36.36,0,0,0,.35,0h0a.35.35,0,0,0,.18-.25l1.7-.82a.48.48,0,0,0,.17,0h0a.31.31,0,0,0,.11-.09l6.17-3c2.93,4,5.89,6.74,7.63,5.79L176.35,47.18,153.53,5.6Z"/>
            <polygon class="b2316b6d-c419-4b1f-b629-0f4369d13a7f" points="153.51 5.56 164.93 26.37 176.35 47.18 182.47 43.85 171.05 23.05 159.63 2.24 153.51 5.56"/>
          </g>
          <g>
            <g>
              <path class="f0eeef43-8a84-4413-b8ae-582e68ac1266" d="M49.65,97.16l-14.92,7.2a.9.9,0,0,1-1.19-.37l-5.3-9.66a.89.89,0,0,1,.33-1.19l14.16-8.59a.91.91,0,0,1,1.27.33l6.06,11.05A.88.88,0,0,1,49.65,97.16Z"/>
              <path class="a5ca5746-79f4-4b06-bb01-d1dc7f2740e0" d="M46.31,98,40.52,86.38a.37.37,0,0,1,.16-.49h0a.37.37,0,0,1,.51.15L47,97.62a.37.37,0,0,1-.16.49h0A.37.37,0,0,1,46.31,98Z"/>
              <path class="a5ca5746-79f4-4b06-bb01-d1dc7f2740e0" d="M44.26,99.27,38.47,87.69a.37.37,0,0,1,.16-.48h0a.37.37,0,0,1,.52.15l5.78,11.58a.36.36,0,0,1-.16.48h0A.36.36,0,0,1,44.26,99.27Z"/>
              <path class="a5ca5746-79f4-4b06-bb01-d1dc7f2740e0" d="M42.21,100.39,36.42,88.81a.37.37,0,0,1,.16-.49h0a.37.37,0,0,1,.51.16l5.79,11.58a.36.36,0,0,1-.16.48h0A.36.36,0,0,1,42.21,100.39Z"/>
              <path class="a5ca5746-79f4-4b06-bb01-d1dc7f2740e0" d="M40.15,101.51,34.37,89.93a.37.37,0,0,1,.16-.49h0a.37.37,0,0,1,.51.16l5.79,11.57a.36.36,0,0,1-.16.49h0A.39.39,0,0,1,40.15,101.51Z"/>
              <path class="a5ca5746-79f4-4b06-bb01-d1dc7f2740e0" d="M38.26,102.54,32.47,91a.37.37,0,0,1,.16-.48h0a.37.37,0,0,1,.52.15l5.78,11.58a.37.37,0,0,1-.16.49h0A.37.37,0,0,1,38.26,102.54Z"/>
              <path class="a5ca5746-79f4-4b06-bb01-d1dc7f2740e0" d="M36.37,103.77,30.59,92.19a.36.36,0,0,1,.16-.48h0a.36.36,0,0,1,.51.15L37,103.44a.37.37,0,0,1-.16.49h0A.37.37,0,0,1,36.37,103.77Z"/>
              <path class="a5ca5746-79f4-4b06-bb01-d1dc7f2740e0" d="M35,104.62,29.21,93.05a.36.36,0,0,1,.16-.49h0a.38.38,0,0,1,.51.15l5.79,11.58a.39.39,0,0,1-.16.49h0A.38.38,0,0,1,35,104.62Z"/>
              <path class="b23037b3-1c20-4052-b0d5-2631df72c930" d="M33.54,104l-.45-.83,10.35-7.61L42,85l.73-.45a.91.91,0,0,1,1.27.33l6.06,11.05a.88.88,0,0,1-.41,1.23l-14.92,7.2A.9.9,0,0,1,33.54,104Z"/>
              <path class="f0eeef43-8a84-4413-b8ae-582e68ac1266" d="M176.35,47.18,56.63,103.27C51.57,106,36.29,78.16,41.34,75.41L153.53,5.6Z"/>
              <polygon class="f0eeef43-8a84-4413-b8ae-582e68ac1266" points="159.63 2.24 171.05 23.05 182.47 43.85 176.35 47.18 164.93 26.37 153.51 5.56 159.63 2.24"/>
              <polygon class="b193cbce-60f6-4be1-90e4-aaacde212f4b" points="165.4 46.8 60.59 96.75 48.99 75.62 147.93 14.96 165.4 46.8"/>
              <polygon class="b23037b3-1c20-4052-b0d5-2631df72c930" points="164.93 26.37 153.51 5.56 175.92 40.79 182.47 43.85 182.47 43.85 176.35 47.18 164.93 26.37"/>
              <path class="b23037b3-1c20-4052-b0d5-2631df72c930" d="M141.16,46.18a40.82,40.82,0,0,0,14.56-25.85l14.4,26.25L57.64,99.72c-1.77,1-4.88-2.07-7.83-6.38C61.86,87.85,128.61,56.34,141.16,46.18Z"/>
              <ellipse class="e31bee4d-d1cc-439c-8fdf-d891c9b6c3ff" cx="99.27" cy="49.93" rx="53.04" ry="2.02" transform="translate(-11.43 59.58) rotate(-31.69)"/>
            </g>
            <g>
              <path class="ebcc850b-3b4b-4f5e-ab58-71244f870ad7" d="M28.44,94.72s-6.17,2.85-2.42,13c0,0,1.17,5.2-3.82,12.38,0,0-7.42,6.64-5.31,11.58s5.83,1.89,6.88.92a7.15,7.15,0,0,0,2.4-6s1.77-2.28,2.58-3.1.88-1.41,2.31-2.83,4.89-8.2,1.85-16.55a.67.67,0,0,1,.2-1Z"/>
              <path class="b1ca2784-82c6-45f7-baa1-c1368c73397b" d="M26.85,96.52s-2.57,2.68-1.2,7.32,1,7,.5,8c0,0,1.86-4.6.65-8.54A10.33,10.33,0,0,1,26.85,96.52Z"/>
              <path class="b1ca2784-82c6-45f7-baa1-c1368c73397b" d="M29.84,104.08a2.65,2.65,0,0,1,1-3.7S32.57,103,29.84,104.08Z"/>
              <path class="b1ca2784-82c6-45f7-baa1-c1368c73397b" d="M19.41,123.85S15,129.26,18,132.46C18,132.46,15.64,129.8,19.41,123.85Z"/>
              <path class="ac4dc90f-fef4-4d3d-8779-d041391c7d81" d="M25.64,126.78a7.45,7.45,0,0,1-5.21,6.86A10.75,10.75,0,0,0,25.64,126.78Z"/>
              <path class="ac4dc90f-fef4-4d3d-8779-d041391c7d81" d="M22.1,126.67s2.31-1.84,3.79-1.58,3.45-2.46,3.59-2.59-1.9,2.21-3.55,2.3S22.1,126.67,22.1,126.67Z"/>
              <path class="ac4dc90f-fef4-4d3d-8779-d041391c7d81" d="M30,121.31s4-3.13,3.9-11.47C33.86,109.84,33.68,116.85,30,121.31Z"/>
              <path class="e68c1e9b-604e-4f15-9ff2-97428595dd89" d="M30.37,98.24s-2.85.85-.6,10.4c1.55,6.53-8.89,17.83-9.61,19.63s.59,5.51,2.84,5a6,6,0,0,1-1.42.86A4.21,4.21,0,0,1,19,128.2c1.77-4.6,8.78-9.23,9.74-19.25.24-2.51-3.54-7.27.82-12.1Z"/>
            </g>
          </g>
        </g>
      </g>
    </g>
  </g>
</svg>
