<svg xmlns="http://www.w3.org/2000/svg" xmlns:xlink="http://www.w3.org/1999/xlink" width="64" height="64" viewBox="0 0 64 64">
  <defs>
    <style>
      .bcb82d8d-4c9b-49b0-8ef2-5206c7c83aa0 {
        isolation: isolate;
      }

      .a03d0bba-5993-417a-af7b-dd6f8db8cfc7 {
        fill: #ff0;
      }

      .aaa34b63-f177-4c07-86b3-934284801539, .ab763d9b-8f58-4fbe-87d2-d87da4fd32c5 {
        opacity: 0.9;
      }

      .e06aea6a-6c59-44f6-8ac6-7cb61b68672f {
        fill: url(#bf6757bd-c70b-40b8-a6a9-8f3a8ebfcd11);
      }

      .aaa34b63-f177-4c07-86b3-934284801539 {
        fill: #f3fbff;
      }

      .ec98a3ee-971d-4a1b-bf5c-79085cf0b913 {
        fill: #fff;
        opacity: 0.8;
        mix-blend-mode: screen;
      }
    </style>
    <radialGradient id="bf6757bd-c70b-40b8-a6a9-8f3a8ebfcd11" cx="242.57" cy="1705.7" fx="230.40745723441694" fy="1683.1401397145853" r="27.46" gradientTransform="matrix(1, 0, 0, -1, -211.78, 1746.21)" gradientUnits="userSpaceOnUse">
      <stop offset="0.3" stop-color="#d4fcff"/>
      <stop offset="0.38" stop-color="#cdf8ff"/>
      <stop offset="0.49" stop-color="#bef"/>
      <stop offset="0.62" stop-color="#9cdcff"/>
      <stop offset="0.77" stop-color="#71c4ff"/>
      <stop offset="0.92" stop-color="#3ba5ff"/>
      <stop offset="1" stop-color="#1d94ff"/>
    </radialGradient>
  </defs>
  <g class="bcb82d8d-4c9b-49b0-8ef2-5206c7c83aa0">
    <g id="fd15390a-d414-4202-908a-c79ccce089d5" data-name="Layer 1">
      <g>
        <path class="a03d0bba-5993-417a-af7b-dd6f8db8cfc7" d="M32,2.22A29.78,29.78,0,1,0,61.78,32,29.81,29.81,0,0,0,32,2.22ZM32,59.6A27.6,27.6,0,1,1,59.6,32,27.6,27.6,0,0,1,32,59.6Z"/>
        <g class="ab763d9b-8f58-4fbe-87d2-d87da4fd32c5">
          <path class="e06aea6a-6c59-44f6-8ac6-7cb61b68672f" d="M32,4.4A27.6,27.6,0,1,1,4.4,32,27.6,27.6,0,0,1,32,4.4Z"/>
          <circle class="aaa34b63-f177-4c07-86b3-934284801539" cx="53.05" cy="21.81" r="2.79"/>
          <circle class="aaa34b63-f177-4c07-86b3-934284801539" cx="55.57" cy="28.65" r="1.59"/>
          <path class="ec98a3ee-971d-4a1b-bf5c-79085cf0b913" d="M43.51,10S28.78.22,12.38,15.61C12.38,15.61,25.9,4.23,43.51,10Z"/>
        </g>
      </g>
    </g>
  </g>
</svg>
