<svg xmlns="http://www.w3.org/2000/svg" xmlns:xlink="http://www.w3.org/1999/xlink" width="110" height="200" viewBox="0 0 110 200">
  <defs>
    <style>
      .a1f12dd4-5325-4ea4-9b7b-cefb5df3441a {
        fill: none;
      }

      .a00deabe-7149-464d-9910-c6a2755be472, .a1f12dd4-5325-4ea4-9b7b-cefb5df3441a, .bc4f6be4-4fcd-4175-a72f-30a42b26bd47, .e4327eb9-56a0-41c6-afc6-df7176d080b9, .ec41f3ba-573d-4451-a037-2e98a4f58894, .f3683964-d188-46e2-991c-e35efd02e193, .fecbad75-464a-43fd-b1ee-996a95a254c8 {
        stroke: #323232;
        stroke-miterlimit: 10;
      }

      .a00deabe-7149-464d-9910-c6a2755be472, .b999f44b-d326-46bb-a04f-58ec36645df9, .ec41f3ba-573d-4451-a037-2e98a4f58894, .fa7f17f2-1a8f-43fe-b0b5-8db171b0c82e {
        fill: #fff;
      }

      .a163f2ed-30df-4f42-a41f-f618f5d68adc, .f3683964-d188-46e2-991c-e35efd02e193 {
        fill: #8c009b;
      }

      .b1354cbd-f153-4d10-afbd-e2ed6e9ebb12, .fecbad75-464a-43fd-b1ee-996a95a254c8 {
        fill: #d906ef;
      }

      .e4327eb9-56a0-41c6-afc6-df7176d080b9, .f3c46450-0ef2-4ca6-ac07-1405b10d1199 {
        opacity: 0.25;
      }

      .a00deabe-7149-464d-9910-c6a2755be472, .fa7f17f2-1a8f-43fe-b0b5-8db171b0c82e {
        opacity: 0.4;
      }

      .b7a49130-f446-4f39-b302-032d63bf5e6e {
        clip-path: url(#a4f3afcb-ecde-416d-8486-0c35accd299b);
      }

      .a7c92818-fab2-472d-a471-c2e6bedcc8d2 {
        opacity: 0.5;
      }

      .bc4f6be4-4fcd-4175-a72f-30a42b26bd47 {
        fill: #a0be21;
      }
    </style>
    <clipPath id="a4f3afcb-ecde-416d-8486-0c35accd299b">
      <path class="a1f12dd4-5325-4ea4-9b7b-cefb5df3441a" d="M99.94,153.52c2.63-.07,4.8,0,4.8,0S61.28,16.06,48.5,16.06c-7.69,0-20.55,57.7-24.67,70.57s-8.68,26.19-12.28,36.5h0l-2.92,8.22,0,0c-2.07,5.84-3.4,9.49-3.4,9.49s.8,3.89,13.53,3.44a5.8,5.8,0,0,1,.91.05l-2.88,16.92h0a4.93,4.93,0,0,0,.07,2.43c1,3.7,15.16,5.55,21.31,6.47a12.24,12.24,0,0,0,2.06.48l.78,8.1c2,.89,10.3,9.38,39.79,2.6,2.16-.5,2.78-1.44,2.52-2.6h0l-.54-10.83c5.41,1.25,11.61,3.33,14.2,2.33,5.38-2.07,8-6,4.24-10.7Z"/>
    </clipPath>
  </defs>
  <g id="b2b94a92-af8b-40d1-a3fe-baf5bd79af73" data-name="Layer 12">
    <g>
      <path class="b999f44b-d326-46bb-a04f-58ec36645df9" d="M60.67,187.34c-1.83,0-3.62-.08-5.32-.25-.92-.08-1.79-.19-2.61-.32-.53-.08-1.05-.18-1.55-.27a31.66,31.66,0,0,1-8.11-2.67l-.2-.1c-.4-.21-.84-.44-1.22-.66s-.84-.5-1.13-.69l-.92-.58a3.27,3.27,0,0,1-1.92-2.74l-.55-5.63-3-.44-1.9-.3-1.78-.29-1.22-.22-2.38-.46-.43-.09-1.81-.4-.3-.08c-.64-.15-1.11-.28-1.57-.4l-1.2-.35L20.28,170l-.47-.16-1-.41c-.33-.14-.64-.29-.94-.44l-.59-.3-.52-.3-.32-.22-.56-.39a7.85,7.85,0,0,1-.88-.83,4.25,4.25,0,0,1-.42-.47,4.81,4.81,0,0,1-.27-.41c-.05-.08-.11-.17-.16-.27a4.71,4.71,0,0,1-.52-1.24,9,9,0,0,1-.29-1.87c0-.1,0-.2,0-.29a1.48,1.48,0,0,1,0-.21,7.49,7.49,0,0,1,.09-1.14,1.86,1.86,0,0,1,0-.33l2.2-13-1.43-.06a34.37,34.37,0,0,1-3.47-.35l-.4-.08a19.75,19.75,0,0,1-2.46-.58,9.79,9.79,0,0,1-5-3.12,5.12,5.12,0,0,1-.95-2,3.4,3.4,0,0,1,.14-1.87l1.85-5.14,3.27.95L4,134.34l1.29-3.66a4.34,4.34,0,0,1,.14-.48L8.33,122l.09-.22,3.06-8.85,1-3c1.1-3.22,2.23-6.55,3.37-10l1.59-4.8,3.29.9L17.52,95s3-9.31,3-9.32c.29-.9.57-1.85.88-2.94.25-.86.52-1.84.8-2.86l.24-.91,3.35.66-3.29-.89,3.25-12.24c.65-2.43,1.32-5,2-7.56l.33-1.22c.55-2,1.11-4.06,1.68-6.1l.18-.61q.87-3.12,1.77-6.17.69-2.33,1.38-4.59l.43-1.38c.46-1.47.92-2.9,1.38-4.3.38-1.15.76-2.29,1.14-3.38.24-.7.48-1.37.72-2,.37-1,.74-2,1.11-3,.28-.71.56-1.39.83-2l.07-.16c.25-.6.53-1.24.8-1.85l.17-.38c.29-.64.6-1.28.9-1.87a29,29,0,0,1,1.9-3.28,12.73,12.73,0,0,1,2.08-2.41,5.82,5.82,0,0,1,3.83-1.58,6.43,6.43,0,0,1,3.82,1.41,12.79,12.79,0,0,1,1.31,1.11l.36.38c.33.36.57.63.81.91s.5.59.75.93l.21.29c.4.54.73,1,1.07,1.51S57.6,20.38,58,21s.93,1.54,1.42,2.38c.66,1.18,1.34,2.44,2,3.79s1.4,2.76,2.12,4.26l.48,1c.57,1.18,1.14,2.4,1.72,3.68l1.12,2.48,1.53,3.51q.94,2.2,1.92,4.51l.07.17c.91,2.19,1.84,4.46,2.77,6.77l1.89,4.74s1.61,4.14,2.08,5.37l2.44,6.4,2.64,7.07,2.08,5.7,2.32,6.44,4,11.38,1.2,3.42,2.7,7.85,1,2.83c7.2,21.17,12.4,37.6,12.45,37.76a3.41,3.41,0,0,1-3.25,4.43l-.53,0,.26,1.12a9.23,9.23,0,0,1,1.79,7.65c-.72,3-3.07,5.49-6.8,7.2-.38.17-.77.34-1.18.49a7.41,7.41,0,0,1-1.93.44l-.59,0H94.49l-.76-.07-1-.12-.84-.14-1-.19-1-.2-.94-.22-2.35-.58-.12,0,.3,6.1c0,.22,0,.43.06.64a5,5,0,0,1-.11,1.19,1.14,1.14,0,0,1-.06.25,5.11,5.11,0,0,1-.34.93,2.48,2.48,0,0,1-.18.31,3.68,3.68,0,0,1-.55.77c-.08.1-.21.23-.31.33a6.21,6.21,0,0,1-.57.49l-.45.29a5.63,5.63,0,0,1-.56.31,3.82,3.82,0,0,1-.53.23,3.78,3.78,0,0,1-.49.19,8.68,8.68,0,0,1-1.06.3c-1,.23-1.91.43-2.84.62l-2.41.48L75,186c-.58.11-1.16.21-1.72.29-2.31.36-4.57.64-6.73.82S62.51,187.34,60.67,187.34Z"/>
      <g>
        <g>
          <g>
            <path class="f3683964-d188-46e2-991c-e35efd02e193" d="M97.84,144.23l-12.2,1.55s.53,16.17,1.59,15.48,14.06-1.73,14.06-1.73Z"/>
            <polygon class="f3683964-d188-46e2-991c-e35efd02e193" points="82.19 154.34 38.51 152.27 41.07 178.73 83.39 178.73 82.19 154.34"/>
            <polygon class="f3683964-d188-46e2-991c-e35efd02e193" points="21.71 132.55 16.82 161.26 35.59 154.86 36.26 142.41 21.71 132.55"/>
            <path class="fecbad75-464a-43fd-b1ee-996a95a254c8" d="M48.5,16.06c-7.69,0-20.55,57.7-24.67,70.57-8.22,25.69-18.57,54.22-18.57,54.22s.8,3.89,13.53,3.44c4.2-.15,14.25,5.24,7.49,10.12-3.35,2.43-10.89,3.44-9.36,9.27C18,167.8,35.51,169.63,40,170.43c3.92.69,8-1.72,7.7,2.85-.2,3-7.13,2.36-6.64,5.45,2,.89,10.3,9.38,39.79,2.6,9-2.08-8.64-11.79-6.63-13.5,3.65-3.1,18.42,4.1,22.82,2.4,5.38-2.07,8-6,4.24-10.7-1.11-1.4-11.38-1.43-10.61-3.63,1.06-3,14.06-2.34,14.06-2.34S61.28,16.06,48.5,16.06Z"/>
            <path class="e4327eb9-56a0-41c6-afc6-df7176d080b9" d="M28.5,150.92s4.35-36.79,9.13-60.14S49.3,24.63,47.71,25.14,38.82,70.63,35.92,84.37c-4.63,21.86-14.17,60.49-14.17,60.49a16.09,16.09,0,0,1,3.9,2.07c1.6,1.25,2.74,1.88,3,3.78Z"/>
            <path class="e4327eb9-56a0-41c6-afc6-df7176d080b9" d="M47.62,172s1.43-119.32.43-120.29-2.59,47.47-2.59,57.2-7.83,61-7.83,61a12.59,12.59,0,0,0,7.78.52A1.79,1.79,0,0,1,47.62,172Z"/>
            <path class="a00deabe-7149-464d-9910-c6a2755be472" d="M74.08,168.18S68.14,139.43,67.15,133,64,81.06,62.57,76.19,58.4,64.33,59.79,64.33s9.09,59.7,11.08,65.54,4.89,24.73,5.48,27.85,5.75,10.2,5.75,10.2a34.23,34.23,0,0,0-4.69-.78A4,4,0,0,0,74.08,168.18Z"/>
            <path class="a00deabe-7149-464d-9910-c6a2755be472" d="M90.68,155.9s-2-10.24-4-19.29S82.81,114.93,81,107.77,75.56,91.35,75.29,89s-2.15-11-1.85-11.16c.79-.52,3.89,6.7,5.57,16.34s5.83,20.38,8.84,29.93,1.59,10.84,3.36,17.6,3.45,11.93,3.45,11.93a8.94,8.94,0,0,0-2.57,1C90.68,155.4,90.68,155.9,90.68,155.9Z"/>
            <path class="a00deabe-7149-464d-9910-c6a2755be472" d="M96.42,128.14a12.44,12.44,0,0,1-3.8.87c-2.47.17-4.51-1.65-6.54.34a3.4,3.4,0,0,0-.62,2.86l.5,2.41a9.76,9.76,0,0,1-6,1c-4.16-.34-6.64-1.33-9.73-.6-2.92.69-1.94,4.67-1.94,4.67l.74,3.43c-.39.66-1.81,1.94-7.11,2.45a55.79,55.79,0,0,1-13.8-.57l.1-2.46s0-2.76-1.6-3.46-5.12.44-8-.43-7.94-2.15-8.29-2.24l.33-2.77c.76-3.69-.37-5.48-1.77-6.06-5.39-2.25-9.07.14-12.45-1.42a17.93,17.93,0,0,1-4.88-3.07l-2.92,8.21a47,47,0,0,0,8.93,2.77c3.51.66,8.23-.35,9.64,1.12a8.86,8.86,0,0,1,2.47,6.2l-.43,3.4s.08,1,2.56,1.82,10.73.56,12.82.95c2.44.46,3.14,1.86,3.31,3v.64l0,.73,0-.1,0,2.18s2.2,1.43,8.93,1.64A36.23,36.23,0,0,0,71,153.39l-1-6,.3,1.38s-.35-4,2.12-5.27,6.28.43,10.17.6a18.3,18.3,0,0,0,5.57-.34l-.74-3.37c.1-1.06.41-2.92,1.36-3.81,2-1.9,3.45.86,7.61.43,2.46-.25,2.56-1.12,2.56-1.12Z"/>
          </g>
          <g>
            <g class="b7a49130-f446-4f39-b302-032d63bf5e6e">
              <g class="a7c92818-fab2-472d-a471-c2e6bedcc8d2">
                <g>
                  <path class="ec41f3ba-573d-4451-a037-2e98a4f58894" d="M16.61,26.57a14.46,14.46,0,0,0-3.8-9.76H-8.43V37.43a15.07,15.07,0,0,0,10.06,3.8A14.82,14.82,0,0,0,16.61,26.57Z"/>
                  <path class="bc4f6be4-4fcd-4175-a72f-30a42b26bd47" d="M1.63,39.38A13,13,0,0,0,14.71,26.57a12.65,12.65,0,0,0-4.62-9.76H-6.83a12.57,12.57,0,0,0-1.6,1.58V34.75A13.14,13.14,0,0,0,1.63,39.38Z"/>
                  <path class="ec41f3ba-573d-4451-a037-2e98a4f58894" d="M1.63,38A11.54,11.54,0,0,0,13.29,26.57a11.36,11.36,0,0,0-5.62-9.76H-4.41a11.6,11.6,0,0,0-4,4V32.33A11.69,11.69,0,0,0,1.63,38Z"/>
                  <ellipse class="bc4f6be4-4fcd-4175-a72f-30a42b26bd47" cx="1.63" cy="26.57" rx="9.44" ry="9.24"/>
                  <ellipse class="ec41f3ba-573d-4451-a037-2e98a4f58894" cx="1.63" cy="26.57" rx="7.65" ry="7.48"/>
                  <ellipse class="bc4f6be4-4fcd-4175-a72f-30a42b26bd47" cx="1.63" cy="26.57" rx="6.2" ry="6.06"/>
                  <ellipse class="ec41f3ba-573d-4451-a037-2e98a4f58894" cx="1.63" cy="26.57" rx="4.47" ry="4.38"/>
                  <ellipse class="bc4f6be4-4fcd-4175-a72f-30a42b26bd47" cx="1.63" cy="26.57" rx="3.26" ry="3.19"/>
                </g>
                <g>
                  <ellipse class="bc4f6be4-4fcd-4175-a72f-30a42b26bd47" cx="19.57" cy="116.64" rx="6.88" ry="6.74"/>
                  <ellipse class="ec41f3ba-573d-4451-a037-2e98a4f58894" cx="19.57" cy="116.64" rx="5.58" ry="5.46"/>
                  <ellipse class="bc4f6be4-4fcd-4175-a72f-30a42b26bd47" cx="19.57" cy="116.64" rx="4.52" ry="4.42"/>
                  <ellipse class="ec41f3ba-573d-4451-a037-2e98a4f58894" cx="19.57" cy="116.64" rx="3.26" ry="3.19"/>
                  <ellipse class="bc4f6be4-4fcd-4175-a72f-30a42b26bd47" cx="19.57" cy="116.64" rx="2.38" ry="2.33"/>
                </g>
                <g>
                  <path class="ec41f3ba-573d-4451-a037-2e98a4f58894" d="M43,28.82a14.91,14.91,0,0,0,14.73-12H28.29A14.91,14.91,0,0,0,43,28.82Z"/>
                  <path class="bc4f6be4-4fcd-4175-a72f-30a42b26bd47" d="M43,27a13,13,0,0,0,12.8-10.15H30.22A13,13,0,0,0,43,27Z"/>
                  <path class="ec41f3ba-573d-4451-a037-2e98a4f58894" d="M43,25.56a11.6,11.6,0,0,0,11.33-8.75H31.69A11.6,11.6,0,0,0,43,25.56Z"/>
                  <path class="bc4f6be4-4fcd-4175-a72f-30a42b26bd47" d="M43,23.4a9.42,9.42,0,0,0,9-6.59H34A9.43,9.43,0,0,0,43,23.4Z"/>
                  <path class="ec41f3ba-573d-4451-a037-2e98a4f58894" d="M43,21.64a7.66,7.66,0,0,0,7.15-4.83H35.87A7.67,7.67,0,0,0,43,21.64Z"/>
                  <path class="bc4f6be4-4fcd-4175-a72f-30a42b26bd47" d="M43,20.22a6.22,6.22,0,0,0,5.57-3.41H37.46A6.2,6.2,0,0,0,43,20.22Z"/>
                  <path class="ec41f3ba-573d-4451-a037-2e98a4f58894" d="M43,18.53a4.49,4.49,0,0,0,3.55-1.72H39.47A4.5,4.5,0,0,0,43,18.53Z"/>
                  <path class="bc4f6be4-4fcd-4175-a72f-30a42b26bd47" d="M44.83,16.81H41.22a3.29,3.29,0,0,0,3.61,0Z"/>
                </g>
                <g>
                  <path class="ec41f3ba-573d-4451-a037-2e98a4f58894" d="M86.39,39.84a14.83,14.83,0,0,0,15-14.66,14.39,14.39,0,0,0-2.68-8.37H74.09a14.4,14.4,0,0,0-2.69,8.37A14.83,14.83,0,0,0,86.39,39.84Z"/>
                  <path class="bc4f6be4-4fcd-4175-a72f-30a42b26bd47" d="M86.39,38a12.94,12.94,0,0,0,13.08-12.8,12.62,12.62,0,0,0-3.18-8.37H76.49a12.58,12.58,0,0,0-3.19,8.37A13,13,0,0,0,86.39,38Z"/>
                  <path class="ec41f3ba-573d-4451-a037-2e98a4f58894" d="M74.73,25.18a11.66,11.66,0,0,0,23.32,0,11.27,11.27,0,0,0-3.74-8.37H78.46A11.3,11.3,0,0,0,74.73,25.18Z"/>
                  <path class="bc4f6be4-4fcd-4175-a72f-30a42b26bd47" d="M76.94,25.18a9.45,9.45,0,0,0,18.89,0,9.24,9.24,0,0,0-5.43-8.37h-8A9.25,9.25,0,0,0,76.94,25.18Z"/>
                  <ellipse class="ec41f3ba-573d-4451-a037-2e98a4f58894" cx="86.39" cy="25.18" rx="7.65" ry="7.48"/>
                  <ellipse class="bc4f6be4-4fcd-4175-a72f-30a42b26bd47" cx="86.39" cy="25.18" rx="6.2" ry="6.06"/>
                  <ellipse class="ec41f3ba-573d-4451-a037-2e98a4f58894" cx="86.39" cy="25.18" rx="4.47" ry="4.38"/>
                  <ellipse class="bc4f6be4-4fcd-4175-a72f-30a42b26bd47" cx="86.39" cy="25.18" rx="3.26" ry="3.19"/>
                </g>
                <g>
                  <path class="ec41f3ba-573d-4451-a037-2e98a4f58894" d="M8.88,102a14.82,14.82,0,0,0-15-14.66,16.17,16.17,0,0,0-2.33.17v29a14.86,14.86,0,0,0,2.33.18A14.83,14.83,0,0,0,8.88,102Z"/>
                  <path class="bc4f6be4-4fcd-4175-a72f-30a42b26bd47" d="M7,102A13,13,0,0,0-6.1,89.17a13.64,13.64,0,0,0-2.33.21v25.19a12.7,12.7,0,0,0,2.33.21A12.94,12.94,0,0,0,7,102Z"/>
                  <path class="ec41f3ba-573d-4451-a037-2e98a4f58894" d="M5.56,102A11.54,11.54,0,0,0-6.1,90.57a11.88,11.88,0,0,0-2.33.23v22.36a12.7,12.7,0,0,0,2.33.22A11.53,11.53,0,0,0,5.56,102Z"/>
                  <path class="bc4f6be4-4fcd-4175-a72f-30a42b26bd47" d="M3.34,102A9.34,9.34,0,0,0-6.1,92.74,9.85,9.85,0,0,0-8.43,93v17.91a9.35,9.35,0,0,0,2.33.29A9.35,9.35,0,0,0,3.34,102Z"/>
                  <path class="ec41f3ba-573d-4451-a037-2e98a4f58894" d="M1.55,102A7.57,7.57,0,0,0-6.1,94.49a7.73,7.73,0,0,0-2.33.36v14.26a7.73,7.73,0,0,0,2.33.35A7.57,7.57,0,0,0,1.55,102Z"/>
                  <path class="bc4f6be4-4fcd-4175-a72f-30a42b26bd47" d="M.09,102A6.13,6.13,0,0,0-6.1,95.91a6.2,6.2,0,0,0-2.33.45v11.23A6.2,6.2,0,0,0-6.1,108,6.13,6.13,0,0,0,.09,102Z"/>
                </g>
                <g>
                  <ellipse class="ec41f3ba-573d-4451-a037-2e98a4f58894" cx="20.09" cy="52.71" rx="13.22" ry="12.93"/>
                  <ellipse class="bc4f6be4-4fcd-4175-a72f-30a42b26bd47" cx="20.09" cy="52.71" rx="11.54" ry="11.29"/>
                  <ellipse class="ec41f3ba-573d-4451-a037-2e98a4f58894" cx="20.09" cy="52.71" rx="10.28" ry="10.06"/>
                  <ellipse class="bc4f6be4-4fcd-4175-a72f-30a42b26bd47" cx="20.09" cy="52.71" rx="8.33" ry="8.15"/>
                  <ellipse class="ec41f3ba-573d-4451-a037-2e98a4f58894" cx="20.09" cy="52.71" rx="6.75" ry="6.6"/>
                  <ellipse class="bc4f6be4-4fcd-4175-a72f-30a42b26bd47" cx="20.09" cy="52.71" rx="5.47" ry="5.35"/>
                  <ellipse class="ec41f3ba-573d-4451-a037-2e98a4f58894" cx="20.09" cy="52.71" rx="3.94" ry="3.86"/>
                  <ellipse class="bc4f6be4-4fcd-4175-a72f-30a42b26bd47" cx="20.09" cy="52.71" rx="2.88" ry="2.81"/>
                </g>
                <g>
                  <ellipse class="ec41f3ba-573d-4451-a037-2e98a4f58894" cx="56.94" cy="76.37" rx="11.9" ry="11.64"/>
                  <ellipse class="bc4f6be4-4fcd-4175-a72f-30a42b26bd47" cx="56.94" cy="76.37" rx="10.39" ry="10.16"/>
                  <ellipse class="ec41f3ba-573d-4451-a037-2e98a4f58894" cx="56.94" cy="76.37" rx="9.26" ry="9.06"/>
                  <ellipse class="bc4f6be4-4fcd-4175-a72f-30a42b26bd47" cx="56.94" cy="76.37" rx="7.5" ry="7.34"/>
                  <ellipse class="ec41f3ba-573d-4451-a037-2e98a4f58894" cx="56.94" cy="76.37" rx="6.07" ry="5.94"/>
                  <ellipse class="bc4f6be4-4fcd-4175-a72f-30a42b26bd47" cx="56.94" cy="76.37" rx="4.92" ry="4.81"/>
                  <ellipse class="ec41f3ba-573d-4451-a037-2e98a4f58894" cx="56.94" cy="76.37" rx="3.55" ry="3.47"/>
                  <ellipse class="bc4f6be4-4fcd-4175-a72f-30a42b26bd47" cx="56.94" cy="76.37" rx="2.59" ry="2.53"/>
                </g>
                <g>
                  <ellipse class="ec41f3ba-573d-4451-a037-2e98a4f58894" cx="46.21" cy="104.03" rx="10.92" ry="10.69"/>
                  <ellipse class="bc4f6be4-4fcd-4175-a72f-30a42b26bd47" cx="46.21" cy="104.03" rx="9.54" ry="9.33"/>
                  <ellipse class="ec41f3ba-573d-4451-a037-2e98a4f58894" cx="46.21" cy="104.03" rx="8.5" ry="8.32"/>
                  <ellipse class="bc4f6be4-4fcd-4175-a72f-30a42b26bd47" cx="46.21" cy="104.03" rx="6.88" ry="6.74"/>
                  <ellipse class="ec41f3ba-573d-4451-a037-2e98a4f58894" cx="46.21" cy="104.03" rx="5.58" ry="5.46"/>
                  <ellipse class="bc4f6be4-4fcd-4175-a72f-30a42b26bd47" cx="46.21" cy="104.03" rx="4.52" ry="4.42"/>
                  <ellipse class="ec41f3ba-573d-4451-a037-2e98a4f58894" cx="46.21" cy="104.03" rx="3.26" ry="3.19"/>
                  <ellipse class="bc4f6be4-4fcd-4175-a72f-30a42b26bd47" cx="46.21" cy="104.03" rx="2.38" ry="2.33"/>
                </g>
                <g>
                  <ellipse class="ec41f3ba-573d-4451-a037-2e98a4f58894" cx="52.47" cy="45.97" rx="14.98" ry="14.66"/>
                  <ellipse class="bc4f6be4-4fcd-4175-a72f-30a42b26bd47" cx="52.47" cy="45.97" rx="13.08" ry="12.8"/>
                  <ellipse class="ec41f3ba-573d-4451-a037-2e98a4f58894" cx="52.47" cy="45.97" rx="11.66" ry="11.41"/>
                  <ellipse class="bc4f6be4-4fcd-4175-a72f-30a42b26bd47" cx="52.47" cy="45.97" rx="9.44" ry="9.24"/>
                  <ellipse class="ec41f3ba-573d-4451-a037-2e98a4f58894" cx="52.47" cy="45.97" rx="7.65" ry="7.48"/>
                  <ellipse class="bc4f6be4-4fcd-4175-a72f-30a42b26bd47" cx="52.47" cy="45.97" rx="6.2" ry="6.06"/>
                  <ellipse class="ec41f3ba-573d-4451-a037-2e98a4f58894" cx="52.47" cy="45.97" rx="4.47" ry="4.38"/>
                  <ellipse class="bc4f6be4-4fcd-4175-a72f-30a42b26bd47" cx="52.47" cy="45.97" rx="3.26" ry="3.19"/>
                </g>
                <g>
                  <ellipse class="ec41f3ba-573d-4451-a037-2e98a4f58894" cx="80.8" cy="56.57" rx="10.92" ry="10.69"/>
                  <ellipse class="bc4f6be4-4fcd-4175-a72f-30a42b26bd47" cx="80.8" cy="56.57" rx="9.54" ry="9.33"/>
                  <ellipse class="ec41f3ba-573d-4451-a037-2e98a4f58894" cx="80.8" cy="56.57" rx="8.5" ry="8.32"/>
                  <ellipse class="bc4f6be4-4fcd-4175-a72f-30a42b26bd47" cx="80.8" cy="56.57" rx="6.88" ry="6.74"/>
                  <ellipse class="ec41f3ba-573d-4451-a037-2e98a4f58894" cx="80.8" cy="56.57" rx="5.58" ry="5.46"/>
                  <ellipse class="bc4f6be4-4fcd-4175-a72f-30a42b26bd47" cx="80.8" cy="56.57" rx="4.52" ry="4.42"/>
                  <ellipse class="ec41f3ba-573d-4451-a037-2e98a4f58894" cx="80.8" cy="56.57" rx="3.26" ry="3.19"/>
                  <ellipse class="bc4f6be4-4fcd-4175-a72f-30a42b26bd47" cx="80.8" cy="56.57" rx="2.38" ry="2.33"/>
                </g>
                <g>
                  <ellipse class="ec41f3ba-573d-4451-a037-2e98a4f58894" cx="73.3" cy="116.96" rx="11.9" ry="11.64"/>
                  <ellipse class="bc4f6be4-4fcd-4175-a72f-30a42b26bd47" cx="73.3" cy="116.96" rx="10.39" ry="10.16"/>
                  <ellipse class="ec41f3ba-573d-4451-a037-2e98a4f58894" cx="73.3" cy="116.96" rx="9.26" ry="9.06"/>
                  <ellipse class="bc4f6be4-4fcd-4175-a72f-30a42b26bd47" cx="73.3" cy="116.96" rx="7.5" ry="7.34"/>
                  <ellipse class="ec41f3ba-573d-4451-a037-2e98a4f58894" cx="73.3" cy="116.96" rx="6.07" ry="5.94"/>
                  <ellipse class="bc4f6be4-4fcd-4175-a72f-30a42b26bd47" cx="73.3" cy="116.96" rx="4.92" ry="4.81"/>
                  <ellipse class="ec41f3ba-573d-4451-a037-2e98a4f58894" cx="73.3" cy="116.96" rx="3.55" ry="3.47"/>
                  <ellipse class="bc4f6be4-4fcd-4175-a72f-30a42b26bd47" cx="73.3" cy="116.96" rx="2.59" ry="2.53"/>
                </g>
                <g>
                  <ellipse class="ec41f3ba-573d-4451-a037-2e98a4f58894" cx="24.61" cy="83.86" rx="14.98" ry="14.66"/>
                  <ellipse class="bc4f6be4-4fcd-4175-a72f-30a42b26bd47" cx="24.61" cy="83.86" rx="13.08" ry="12.8"/>
                  <ellipse class="ec41f3ba-573d-4451-a037-2e98a4f58894" cx="24.61" cy="83.86" rx="11.66" ry="11.41"/>
                  <ellipse class="bc4f6be4-4fcd-4175-a72f-30a42b26bd47" cx="24.61" cy="83.86" rx="9.44" ry="9.24"/>
                  <ellipse class="ec41f3ba-573d-4451-a037-2e98a4f58894" cx="24.61" cy="83.86" rx="7.65" ry="7.48"/>
                  <ellipse class="bc4f6be4-4fcd-4175-a72f-30a42b26bd47" cx="24.61" cy="83.86" rx="6.2" ry="6.06"/>
                  <ellipse class="ec41f3ba-573d-4451-a037-2e98a4f58894" cx="24.61" cy="83.86" rx="4.47" ry="4.38"/>
                  <ellipse class="bc4f6be4-4fcd-4175-a72f-30a42b26bd47" cx="24.61" cy="83.86" rx="3.26" ry="3.19"/>
                </g>
                <g>
                  <ellipse class="ec41f3ba-573d-4451-a037-2e98a4f58894" cx="86.39" cy="87.19" rx="14.98" ry="14.66"/>
                  <ellipse class="bc4f6be4-4fcd-4175-a72f-30a42b26bd47" cx="86.39" cy="87.19" rx="13.08" ry="12.8"/>
                  <ellipse class="ec41f3ba-573d-4451-a037-2e98a4f58894" cx="86.39" cy="87.19" rx="11.66" ry="11.41"/>
                  <ellipse class="bc4f6be4-4fcd-4175-a72f-30a42b26bd47" cx="86.39" cy="87.19" rx="9.44" ry="9.24"/>
                  <ellipse class="ec41f3ba-573d-4451-a037-2e98a4f58894" cx="86.39" cy="87.19" rx="7.65" ry="7.48"/>
                  <ellipse class="bc4f6be4-4fcd-4175-a72f-30a42b26bd47" cx="86.39" cy="87.19" rx="6.2" ry="6.06"/>
                  <ellipse class="ec41f3ba-573d-4451-a037-2e98a4f58894" cx="86.39" cy="87.19" rx="4.47" ry="4.38"/>
                  <ellipse class="bc4f6be4-4fcd-4175-a72f-30a42b26bd47" cx="86.39" cy="87.19" rx="3.26" ry="3.19"/>
                </g>
                <ellipse class="ec41f3ba-573d-4451-a037-2e98a4f58894" cx="103.85" cy="124.5" rx="7.84" ry="7.67"/>
                <ellipse class="ec41f3ba-573d-4451-a037-2e98a4f58894" cx="92.83" cy="109.78" rx="6.29" ry="6.15"/>
                <ellipse class="ec41f3ba-573d-4451-a037-2e98a4f58894" cx="1.92" cy="81.12" rx="5.72" ry="5.59"/>
                <ellipse class="ec41f3ba-573d-4451-a037-2e98a4f58894" cx="64.25" cy="23.78" rx="5.2" ry="5.09"/>
                <ellipse class="ec41f3ba-573d-4451-a037-2e98a4f58894" cx="73.51" cy="41.04" rx="4.58" ry="4.49"/>
                <ellipse class="ec41f3ba-573d-4451-a037-2e98a4f58894" cx="24.85" cy="104.8" rx="3.44" ry="3.37"/>
                <ellipse class="ec41f3ba-573d-4451-a037-2e98a4f58894" cx="55.73" cy="117.15" rx="3.44" ry="3.37"/>
                <ellipse class="ec41f3ba-573d-4451-a037-2e98a4f58894" cx="35.29" cy="114.78" rx="3.04" ry="2.97"/>
                <path class="ec41f3ba-573d-4451-a037-2e98a4f58894" d="M105.28,21.78a3.27,3.27,0,0,0,3.31-3.24,3.19,3.19,0,0,0-.51-1.73h-5.6a3.19,3.19,0,0,0-.51,1.73A3.27,3.27,0,0,0,105.28,21.78Z"/>
                <path class="ec41f3ba-573d-4451-a037-2e98a4f58894" d="M105.28,134.48a3.33,3.33,0,0,0-2.8,1.52h5.6A3.33,3.33,0,0,0,105.28,134.48Z"/>
                <ellipse class="ec41f3ba-573d-4451-a037-2e98a4f58894" cx="62.21" cy="130.63" rx="3.44" ry="3.37"/>
                <ellipse class="ec41f3ba-573d-4451-a037-2e98a4f58894" cx="14.71" cy="101.85" rx="3.44" ry="3.37"/>
                <ellipse class="ec41f3ba-573d-4451-a037-2e98a4f58894" cx="35.72" cy="63.29" rx="3.44" ry="3.37"/>
                <ellipse class="ec41f3ba-573d-4451-a037-2e98a4f58894" cx="73.1" cy="70.43" rx="3.44" ry="3.37"/>
                <ellipse class="ec41f3ba-573d-4451-a037-2e98a4f58894" cx="91.67" cy="68.25" rx="3.44" ry="3.37"/>
                <ellipse class="ec41f3ba-573d-4451-a037-2e98a4f58894" cx="106.09" cy="83.71" rx="3.44" ry="3.37"/>
                <ellipse class="ec41f3ba-573d-4451-a037-2e98a4f58894" cx="64.99" cy="60.99" rx="3.44" ry="3.37"/>
                <ellipse class="ec41f3ba-573d-4451-a037-2e98a4f58894" cx="9.62" cy="69.03" rx="3.44" ry="3.37"/>
                <ellipse class="ec41f3ba-573d-4451-a037-2e98a4f58894" cx="1.92" cy="47.23" rx="3.44" ry="3.37"/>
                <ellipse class="ec41f3ba-573d-4451-a037-2e98a4f58894" cx="33.58" cy="38.49" rx="3.44" ry="3.37"/>
                <ellipse class="ec41f3ba-573d-4451-a037-2e98a4f58894" cx="91.72" cy="44.02" rx="3.44" ry="3.37"/>
                <ellipse class="ec41f3ba-573d-4451-a037-2e98a4f58894" cx="24.6" cy="28.86" rx="6.92" ry="6.77"/>
                <ellipse class="ec41f3ba-573d-4451-a037-2e98a4f58894" cx="0.94" cy="123.3" rx="6.29" ry="6.15"/>
                <ellipse class="ec41f3ba-573d-4451-a037-2e98a4f58894" cx="103.73" cy="41.23" rx="6.29" ry="6.15"/>
                <ellipse class="ec41f3ba-573d-4451-a037-2e98a4f58894" cx="64.99" cy="97.13" rx="6.92" ry="6.77"/>
                <g>
                  <path class="ec41f3ba-573d-4451-a037-2e98a4f58894" d="M3.74,63A14.76,14.76,0,0,0-8.43,48.59v28.8A14.74,14.74,0,0,0,3.74,63Z"/>
                  <path class="bc4f6be4-4fcd-4175-a72f-30a42b26bd47" d="M1.84,63A12.88,12.88,0,0,0-8.43,50.49v25A12.88,12.88,0,0,0,1.84,63Z"/>
                  <path class="ec41f3ba-573d-4451-a037-2e98a4f58894" d="M.42,63A11.46,11.46,0,0,0-8.43,51.92V74.07A11.47,11.47,0,0,0,.42,63Z"/>
                </g>
                <g>
                  <path class="ec41f3ba-573d-4451-a037-2e98a4f58894" d="M112.26,16.81a14.43,14.43,0,0,0,1.11,20.62V16.81Z"/>
                  <path class="bc4f6be4-4fcd-4175-a72f-30a42b26bd47" d="M110.35,26.57a12.6,12.6,0,0,0,3,8.18V18.39A12.62,12.62,0,0,0,110.35,26.57Z"/>
                </g>
                <g>
                  <path class="ec41f3ba-573d-4451-a037-2e98a4f58894" d="M1.63,131.1a15.07,15.07,0,0,0-10.06,3.8V136H12.81A15.1,15.1,0,0,0,1.63,131.1Z"/>
                  <path class="bc4f6be4-4fcd-4175-a72f-30a42b26bd47" d="M-6.83,136H10.09A13.17,13.17,0,0,0,1.63,133,13.17,13.17,0,0,0-6.83,136Z"/>
                  <path class="ec41f3ba-573d-4451-a037-2e98a4f58894" d="M-4.41,136H7.67a11.76,11.76,0,0,0-6-1.65A11.76,11.76,0,0,0-4.41,136Z"/>
                </g>
                <g>
                  <path class="ec41f3ba-573d-4451-a037-2e98a4f58894" d="M43,118.68a14.82,14.82,0,0,0-15,14.66,14.62,14.62,0,0,0,.25,2.66H57.76a14.62,14.62,0,0,0,.25-2.66A14.82,14.82,0,0,0,43,118.68Z"/>
                  <path class="bc4f6be4-4fcd-4175-a72f-30a42b26bd47" d="M43,120.54A12.8,12.8,0,0,0,30.22,136H55.83A12.8,12.8,0,0,0,43,120.54Z"/>
                  <path class="ec41f3ba-573d-4451-a037-2e98a4f58894" d="M43,121.93a11.54,11.54,0,0,0-11.66,11.41,11.2,11.2,0,0,0,.32,2.66H54.36a11.2,11.2,0,0,0,.32-2.66A11.54,11.54,0,0,0,43,121.93Z"/>
                  <path class="bc4f6be4-4fcd-4175-a72f-30a42b26bd47" d="M43,124.1a9.35,9.35,0,0,0-9.45,9.24A9.07,9.07,0,0,0,34,136H52.07a9.07,9.07,0,0,0,.4-2.66A9.35,9.35,0,0,0,43,124.1Z"/>
                  <path class="ec41f3ba-573d-4451-a037-2e98a4f58894" d="M43,125.86a7.56,7.56,0,0,0-7.65,7.48,7.35,7.35,0,0,0,.49,2.66H50.18a7.35,7.35,0,0,0,.49-2.66A7.56,7.56,0,0,0,43,125.86Z"/>
                  <path class="bc4f6be4-4fcd-4175-a72f-30a42b26bd47" d="M43,127.28a6.13,6.13,0,0,0-6.2,6.06,5.86,5.86,0,0,0,.63,2.66H48.6a6,6,0,0,0,.62-2.66A6.12,6.12,0,0,0,43,127.28Z"/>
                  <path class="ec41f3ba-573d-4451-a037-2e98a4f58894" d="M43,129a4.43,4.43,0,0,0-4.48,4.38,4.35,4.35,0,0,0,.92,2.66h7.11a4.35,4.35,0,0,0,.92-2.66A4.43,4.43,0,0,0,43,129Z"/>
                  <path class="bc4f6be4-4fcd-4175-a72f-30a42b26bd47" d="M46.29,133.34a3.26,3.26,0,0,0-6.52,0A3.16,3.16,0,0,0,41.22,136h3.61A3.17,3.17,0,0,0,46.29,133.34Z"/>
                </g>
                <g>
                  <path class="ec41f3ba-573d-4451-a037-2e98a4f58894" d="M100.72,102a14.76,14.76,0,0,0,12.65,14.48v-29A14.77,14.77,0,0,0,100.72,102Z"/>
                  <path class="bc4f6be4-4fcd-4175-a72f-30a42b26bd47" d="M102.62,102a12.87,12.87,0,0,0,10.75,12.59V89.38A12.89,12.89,0,0,0,102.62,102Z"/>
                  <path class="ec41f3ba-573d-4451-a037-2e98a4f58894" d="M104.05,102a11.48,11.48,0,0,0,9.32,11.18V90.8A11.47,11.47,0,0,0,104.05,102Z"/>
                  <path class="bc4f6be4-4fcd-4175-a72f-30a42b26bd47" d="M106.26,102a9.27,9.27,0,0,0,7.11,9V93A9.28,9.28,0,0,0,106.26,102Z"/>
                  <path class="ec41f3ba-573d-4451-a037-2e98a4f58894" d="M108.06,102a7.52,7.52,0,0,0,5.31,7.13V94.85A7.5,7.5,0,0,0,108.06,102Z"/>
                  <path class="bc4f6be4-4fcd-4175-a72f-30a42b26bd47" d="M109.51,102a6.06,6.06,0,0,0,3.86,5.61V96.36A6.07,6.07,0,0,0,109.51,102Z"/>
                </g>
                <g>
                  <path class="ec41f3ba-573d-4451-a037-2e98a4f58894" d="M110.57,48.33a14.66,14.66,0,1,0,0,29.32,15.19,15.19,0,0,0,2.8-.26V48.59A15.19,15.19,0,0,0,110.57,48.33Z"/>
                  <path class="bc4f6be4-4fcd-4175-a72f-30a42b26bd47" d="M110.57,50.19a12.81,12.81,0,1,0,0,25.61,13.57,13.57,0,0,0,2.8-.3v-25A13.57,13.57,0,0,0,110.57,50.19Z"/>
                  <path class="ec41f3ba-573d-4451-a037-2e98a4f58894" d="M110.57,51.59a11.41,11.41,0,1,0,0,22.81,12.33,12.33,0,0,0,2.8-.33V51.92A11.79,11.79,0,0,0,110.57,51.59Z"/>
                  <path class="bc4f6be4-4fcd-4175-a72f-30a42b26bd47" d="M110.57,53.75a9.24,9.24,0,1,0,0,18.48,9.58,9.58,0,0,0,2.8-.41V54.17A9.58,9.58,0,0,0,110.57,53.75Z"/>
                  <path class="ec41f3ba-573d-4451-a037-2e98a4f58894" d="M110.57,55.51a7.49,7.49,0,1,0,0,15,7.87,7.87,0,0,0,2.8-.52V56A7.87,7.87,0,0,0,110.57,55.51Z"/>
                  <path class="bc4f6be4-4fcd-4175-a72f-30a42b26bd47" d="M110.57,56.93a6.07,6.07,0,1,0,0,12.13,6.24,6.24,0,0,0,2.8-.66V57.59A6.24,6.24,0,0,0,110.57,56.93Z"/>
                  <path class="ec41f3ba-573d-4451-a037-2e98a4f58894" d="M110.57,58.62a4.38,4.38,0,1,0,0,8.75,4.54,4.54,0,0,0,2.8-1V59.59A4.48,4.48,0,0,0,110.57,58.62Z"/>
                  <path class="bc4f6be4-4fcd-4175-a72f-30a42b26bd47" d="M110.57,59.8a3.19,3.19,0,1,0,0,6.38,3.27,3.27,0,0,0,2.8-1.57V61.38A3.28,3.28,0,0,0,110.57,59.8Z"/>
                </g>
              </g>
              <g class="a7c92818-fab2-472d-a471-c2e6bedcc8d2">
                <g>
                  <path class="ec41f3ba-573d-4451-a037-2e98a4f58894" d="M16.61,145.74a14.44,14.44,0,0,0-3.8-9.76H-8.43V156.6a15.12,15.12,0,0,0,10.06,3.8A14.83,14.83,0,0,0,16.61,145.74Z"/>
                  <path class="bc4f6be4-4fcd-4175-a72f-30a42b26bd47" d="M1.63,158.54a12.94,12.94,0,0,0,13.08-12.8A12.65,12.65,0,0,0,10.09,136H-6.83a12.57,12.57,0,0,0-1.6,1.58v16.36A13.17,13.17,0,0,0,1.63,158.54Z"/>
                  <path class="ec41f3ba-573d-4451-a037-2e98a4f58894" d="M1.63,157.15a11.54,11.54,0,0,0,11.66-11.41A11.35,11.35,0,0,0,7.67,136H-4.41a11.49,11.49,0,0,0-4,4v11.51A11.7,11.7,0,0,0,1.63,157.15Z"/>
                  <ellipse class="bc4f6be4-4fcd-4175-a72f-30a42b26bd47" cx="1.63" cy="145.74" rx="9.44" ry="9.24"/>
                  <ellipse class="ec41f3ba-573d-4451-a037-2e98a4f58894" cx="1.63" cy="145.74" rx="7.65" ry="7.48"/>
                  <ellipse class="bc4f6be4-4fcd-4175-a72f-30a42b26bd47" cx="1.63" cy="145.74" rx="6.2" ry="6.06"/>
                  <ellipse class="ec41f3ba-573d-4451-a037-2e98a4f58894" cx="1.63" cy="145.74" rx="4.47" ry="4.38"/>
                  <ellipse class="bc4f6be4-4fcd-4175-a72f-30a42b26bd47" cx="1.63" cy="145.74" rx="3.26" ry="3.19"/>
                </g>
                <g>
                  <path class="ec41f3ba-573d-4451-a037-2e98a4f58894" d="M43,148a14.9,14.9,0,0,0,14.73-12H28.29A14.9,14.9,0,0,0,43,148Z"/>
                  <path class="bc4f6be4-4fcd-4175-a72f-30a42b26bd47" d="M43,146.12A13,13,0,0,0,55.83,136H30.22A13,13,0,0,0,43,146.12Z"/>
                  <path class="ec41f3ba-573d-4451-a037-2e98a4f58894" d="M43,144.73A11.6,11.6,0,0,0,54.36,136H31.69A11.6,11.6,0,0,0,43,144.73Z"/>
                  <path class="bc4f6be4-4fcd-4175-a72f-30a42b26bd47" d="M43,142.56a9.43,9.43,0,0,0,9-6.58H34A9.43,9.43,0,0,0,43,142.56Z"/>
                  <path class="ec41f3ba-573d-4451-a037-2e98a4f58894" d="M43,140.8A7.65,7.65,0,0,0,50.18,136H35.87A7.66,7.66,0,0,0,43,140.8Z"/>
                  <path class="bc4f6be4-4fcd-4175-a72f-30a42b26bd47" d="M43,139.38A6.23,6.23,0,0,0,48.6,136H37.46A6.21,6.21,0,0,0,43,139.38Z"/>
                  <path class="ec41f3ba-573d-4451-a037-2e98a4f58894" d="M43,137.7A4.52,4.52,0,0,0,46.58,136H39.47A4.53,4.53,0,0,0,43,137.7Z"/>
                  <path class="bc4f6be4-4fcd-4175-a72f-30a42b26bd47" d="M44.83,136H41.22a3.34,3.34,0,0,0,3.61,0Z"/>
                </g>
                <g>
                  <ellipse class="ec41f3ba-573d-4451-a037-2e98a4f58894" cx="20.09" cy="171.87" rx="13.22" ry="12.93"/>
                  <ellipse class="bc4f6be4-4fcd-4175-a72f-30a42b26bd47" cx="20.09" cy="171.87" rx="11.54" ry="11.29"/>
                  <ellipse class="ec41f3ba-573d-4451-a037-2e98a4f58894" cx="20.09" cy="171.87" rx="10.28" ry="10.06"/>
                  <ellipse class="bc4f6be4-4fcd-4175-a72f-30a42b26bd47" cx="20.09" cy="171.87" rx="8.33" ry="8.15"/>
                  <ellipse class="ec41f3ba-573d-4451-a037-2e98a4f58894" cx="20.09" cy="171.87" rx="6.75" ry="6.6"/>
                  <ellipse class="bc4f6be4-4fcd-4175-a72f-30a42b26bd47" cx="20.09" cy="171.87" rx="5.47" ry="5.35"/>
                  <ellipse class="ec41f3ba-573d-4451-a037-2e98a4f58894" cx="20.09" cy="171.87" rx="3.94" ry="3.86"/>
                  <ellipse class="bc4f6be4-4fcd-4175-a72f-30a42b26bd47" cx="20.09" cy="171.87" rx="2.88" ry="2.81"/>
                </g>
                <g>
                  <ellipse class="ec41f3ba-573d-4451-a037-2e98a4f58894" cx="56.94" cy="195.53" rx="11.9" ry="11.64"/>
                  <ellipse class="bc4f6be4-4fcd-4175-a72f-30a42b26bd47" cx="56.94" cy="195.53" rx="10.39" ry="10.16"/>
                  <ellipse class="ec41f3ba-573d-4451-a037-2e98a4f58894" cx="56.94" cy="195.53" rx="9.26" ry="9.06"/>
                  <ellipse class="bc4f6be4-4fcd-4175-a72f-30a42b26bd47" cx="56.94" cy="195.53" rx="7.5" ry="7.34"/>
                  <ellipse class="ec41f3ba-573d-4451-a037-2e98a4f58894" cx="56.94" cy="195.53" rx="6.07" ry="5.94"/>
                  <ellipse class="bc4f6be4-4fcd-4175-a72f-30a42b26bd47" cx="56.94" cy="195.53" rx="4.92" ry="4.81"/>
                  <ellipse class="ec41f3ba-573d-4451-a037-2e98a4f58894" cx="56.94" cy="195.53" rx="3.55" ry="3.47"/>
                  <ellipse class="bc4f6be4-4fcd-4175-a72f-30a42b26bd47" cx="56.94" cy="195.53" rx="2.59" ry="2.53"/>
                </g>
                <g>
                  <ellipse class="ec41f3ba-573d-4451-a037-2e98a4f58894" cx="52.47" cy="165.14" rx="14.98" ry="14.66"/>
                  <ellipse class="bc4f6be4-4fcd-4175-a72f-30a42b26bd47" cx="52.47" cy="165.14" rx="13.08" ry="12.8"/>
                  <ellipse class="ec41f3ba-573d-4451-a037-2e98a4f58894" cx="52.47" cy="165.14" rx="11.66" ry="11.41"/>
                  <ellipse class="bc4f6be4-4fcd-4175-a72f-30a42b26bd47" cx="52.47" cy="165.14" rx="9.44" ry="9.24"/>
                  <ellipse class="ec41f3ba-573d-4451-a037-2e98a4f58894" cx="52.47" cy="165.14" rx="7.65" ry="7.48"/>
                  <ellipse class="bc4f6be4-4fcd-4175-a72f-30a42b26bd47" cx="52.47" cy="165.14" rx="6.2" ry="6.06"/>
                  <ellipse class="ec41f3ba-573d-4451-a037-2e98a4f58894" cx="52.47" cy="165.14" rx="4.47" ry="4.38"/>
                  <ellipse class="bc4f6be4-4fcd-4175-a72f-30a42b26bd47" cx="52.47" cy="165.14" rx="3.26" ry="3.19"/>
                </g>
                <g>
                  <ellipse class="ec41f3ba-573d-4451-a037-2e98a4f58894" cx="80.8" cy="175.73" rx="10.92" ry="10.69"/>
                  <ellipse class="bc4f6be4-4fcd-4175-a72f-30a42b26bd47" cx="80.8" cy="175.73" rx="9.54" ry="9.33"/>
                  <ellipse class="ec41f3ba-573d-4451-a037-2e98a4f58894" cx="80.8" cy="175.73" rx="8.5" ry="8.32"/>
                  <ellipse class="bc4f6be4-4fcd-4175-a72f-30a42b26bd47" cx="80.8" cy="175.73" rx="6.88" ry="6.74"/>
                  <ellipse class="ec41f3ba-573d-4451-a037-2e98a4f58894" cx="80.8" cy="175.73" rx="5.58" ry="5.46"/>
                  <ellipse class="bc4f6be4-4fcd-4175-a72f-30a42b26bd47" cx="80.8" cy="175.73" rx="4.52" ry="4.42"/>
                  <ellipse class="ec41f3ba-573d-4451-a037-2e98a4f58894" cx="80.8" cy="175.73" rx="3.26" ry="3.19"/>
                  <ellipse class="bc4f6be4-4fcd-4175-a72f-30a42b26bd47" cx="80.8" cy="175.73" rx="2.38" ry="2.33"/>
                </g>
                <g>
                  <ellipse class="ec41f3ba-573d-4451-a037-2e98a4f58894" cx="24.61" cy="203.03" rx="14.98" ry="14.66"/>
                  <ellipse class="bc4f6be4-4fcd-4175-a72f-30a42b26bd47" cx="24.61" cy="203.03" rx="13.08" ry="12.8"/>
                  <ellipse class="ec41f3ba-573d-4451-a037-2e98a4f58894" cx="24.61" cy="203.03" rx="11.66" ry="11.41"/>
                  <ellipse class="bc4f6be4-4fcd-4175-a72f-30a42b26bd47" cx="24.61" cy="203.03" rx="9.44" ry="9.24"/>
                  <ellipse class="ec41f3ba-573d-4451-a037-2e98a4f58894" cx="24.61" cy="203.03" rx="7.65" ry="7.48"/>
                  <ellipse class="bc4f6be4-4fcd-4175-a72f-30a42b26bd47" cx="24.61" cy="203.03" rx="6.2" ry="6.06"/>
                  <ellipse class="ec41f3ba-573d-4451-a037-2e98a4f58894" cx="24.61" cy="203.03" rx="4.47" ry="4.38"/>
                  <ellipse class="bc4f6be4-4fcd-4175-a72f-30a42b26bd47" cx="24.61" cy="203.03" rx="3.26" ry="3.19"/>
                </g>
                <g>
                  <ellipse class="ec41f3ba-573d-4451-a037-2e98a4f58894" cx="86.39" cy="206.35" rx="14.98" ry="14.66"/>
                  <ellipse class="bc4f6be4-4fcd-4175-a72f-30a42b26bd47" cx="86.39" cy="206.35" rx="13.08" ry="12.8"/>
                  <ellipse class="ec41f3ba-573d-4451-a037-2e98a4f58894" cx="86.39" cy="206.35" rx="11.66" ry="11.41"/>
                  <ellipse class="bc4f6be4-4fcd-4175-a72f-30a42b26bd47" cx="86.39" cy="206.35" rx="9.44" ry="9.24"/>
                  <ellipse class="ec41f3ba-573d-4451-a037-2e98a4f58894" cx="86.39" cy="206.35" rx="7.65" ry="7.48"/>
                  <ellipse class="bc4f6be4-4fcd-4175-a72f-30a42b26bd47" cx="86.39" cy="206.35" rx="6.2" ry="6.06"/>
                </g>
                <ellipse class="ec41f3ba-573d-4451-a037-2e98a4f58894" cx="1.92" cy="200.29" rx="5.72" ry="5.59"/>
                <path class="ec41f3ba-573d-4451-a037-2e98a4f58894" d="M105.28,140.94a3.27,3.27,0,0,0,3.31-3.24,3.18,3.18,0,0,0-.51-1.72h-5.6a3.18,3.18,0,0,0-.51,1.72A3.27,3.27,0,0,0,105.28,140.94Z"/>
                <ellipse class="ec41f3ba-573d-4451-a037-2e98a4f58894" cx="73.1" cy="189.59" rx="3.44" ry="3.37"/>
                <ellipse class="ec41f3ba-573d-4451-a037-2e98a4f58894" cx="91.67" cy="187.41" rx="3.44" ry="3.37"/>
                <ellipse class="ec41f3ba-573d-4451-a037-2e98a4f58894" cx="106.09" cy="202.87" rx="3.44" ry="3.37"/>
                <ellipse class="ec41f3ba-573d-4451-a037-2e98a4f58894" cx="64.99" cy="180.15" rx="3.44" ry="3.37"/>
                <ellipse class="ec41f3ba-573d-4451-a037-2e98a4f58894" cx="9.62" cy="188.2" rx="3.44" ry="3.37"/>
                <ellipse class="ec41f3ba-573d-4451-a037-2e98a4f58894" cx="1.92" cy="166.4" rx="3.44" ry="3.37"/>
                <ellipse class="ec41f3ba-573d-4451-a037-2e98a4f58894" cx="33.58" cy="157.65" rx="3.44" ry="3.37"/>
                <ellipse class="ec41f3ba-573d-4451-a037-2e98a4f58894" cx="91.72" cy="163.18" rx="3.44" ry="3.37"/>
                <ellipse class="ec41f3ba-573d-4451-a037-2e98a4f58894" cx="38.7" cy="184.28" rx="6.92" ry="6.77"/>
                <g>
                  <path class="ec41f3ba-573d-4451-a037-2e98a4f58894" d="M3.74,182.16a14.74,14.74,0,0,0-12.17-14.4v28.8A14.75,14.75,0,0,0,3.74,182.16Z"/>
                  <path class="bc4f6be4-4fcd-4175-a72f-30a42b26bd47" d="M1.84,182.16A12.88,12.88,0,0,0-8.43,169.65v25A12.87,12.87,0,0,0,1.84,182.16Z"/>
                  <path class="ec41f3ba-573d-4451-a037-2e98a4f58894" d="M.42,182.16a11.45,11.45,0,0,0-8.85-11.07v22.14A11.46,11.46,0,0,0,.42,182.16Z"/>
                </g>
                <g>
                  <path class="ec41f3ba-573d-4451-a037-2e98a4f58894" d="M112.26,136a14.43,14.43,0,0,0,1.11,20.62V136Z"/>
                  <path class="bc4f6be4-4fcd-4175-a72f-30a42b26bd47" d="M110.35,145.74a12.62,12.62,0,0,0,3,8.18V137.56A12.6,12.6,0,0,0,110.35,145.74Z"/>
                </g>
                <g>
                  <path class="ec41f3ba-573d-4451-a037-2e98a4f58894" d="M110.57,167.5a14.66,14.66,0,1,0,0,29.32,15.19,15.19,0,0,0,2.8-.26v-28.8A15.19,15.19,0,0,0,110.57,167.5Z"/>
                  <path class="bc4f6be4-4fcd-4175-a72f-30a42b26bd47" d="M110.57,169.35a12.81,12.81,0,1,0,2.8,25.31v-25A13.57,13.57,0,0,0,110.57,169.35Z"/>
                  <path class="ec41f3ba-573d-4451-a037-2e98a4f58894" d="M110.57,170.75a11.41,11.41,0,1,0,0,22.82,11.79,11.79,0,0,0,2.8-.34V171.09A11.79,11.79,0,0,0,110.57,170.75Z"/>
                  <path class="bc4f6be4-4fcd-4175-a72f-30a42b26bd47" d="M110.57,172.92a9.24,9.24,0,1,0,0,18.48,9.58,9.58,0,0,0,2.8-.42V173.33A9.58,9.58,0,0,0,110.57,172.92Z"/>
                  <path class="ec41f3ba-573d-4451-a037-2e98a4f58894" d="M110.57,174.67a7.49,7.49,0,1,0,0,15,7.66,7.66,0,0,0,2.8-.52V175.2A7.66,7.66,0,0,0,110.57,174.67Z"/>
                  <path class="bc4f6be4-4fcd-4175-a72f-30a42b26bd47" d="M110.57,176.1a6.06,6.06,0,1,0,0,12.12,6.24,6.24,0,0,0,2.8-.66V176.75A6.24,6.24,0,0,0,110.57,176.1Z"/>
                  <path class="ec41f3ba-573d-4451-a037-2e98a4f58894" d="M110.57,177.78a4.38,4.38,0,1,0,0,8.75,4.48,4.48,0,0,0,2.8-1v-6.81A4.54,4.54,0,0,0,110.57,177.78Z"/>
                  <path class="bc4f6be4-4fcd-4175-a72f-30a42b26bd47" d="M110.57,179a3.19,3.19,0,1,0,0,6.38,3.28,3.28,0,0,0,2.8-1.58v-3.23A3.27,3.27,0,0,0,110.57,179Z"/>
                </g>
              </g>
            </g>
            <path class="a1f12dd4-5325-4ea4-9b7b-cefb5df3441a" d="M99.94,153.52c2.63-.07,4.8,0,4.8,0S61.28,16.06,48.5,16.06c-7.69,0-20.55,57.7-24.67,70.57s-8.68,26.19-12.28,36.5h0l-2.92,8.22,0,0c-2.07,5.84-3.4,9.49-3.4,9.49s.8,3.89,13.53,3.44a5.8,5.8,0,0,1,.91.05l-2.88,16.92h0a4.93,4.93,0,0,0,.07,2.43c1,3.7,15.16,5.55,21.31,6.47a12.24,12.24,0,0,0,2.06.48l.78,8.1c2,.89,10.3,9.38,39.79,2.6,2.16-.5,2.78-1.44,2.52-2.6h0l-.54-10.83c5.41,1.25,11.61,3.33,14.2,2.33,5.38-2.07,8-6,4.24-10.7Z"/>
          </g>
        </g>
        <g>
          <path class="a163f2ed-30df-4f42-a41f-f618f5d68adc" d="M97.84,144.23l-12.2,1.55s.53,16.17,1.59,15.48,14.06-1.73,14.06-1.73Z"/>
          <polygon class="a163f2ed-30df-4f42-a41f-f618f5d68adc" points="82.19 154.34 38.51 152.27 41.07 178.73 83.39 178.73 82.19 154.34"/>
          <polygon class="a163f2ed-30df-4f42-a41f-f618f5d68adc" points="21.71 132.55 16.82 161.26 35.59 154.86 36.26 142.41 21.71 132.55"/>
          <path class="b1354cbd-f153-4d10-afbd-e2ed6e9ebb12" d="M48.5,16.06c-7.69,0-20.55,57.7-24.67,70.57-8.22,25.69-18.57,54.22-18.57,54.22s.8,3.89,13.53,3.44c4.2-.15,14.25,5.24,7.49,10.12-3.35,2.43-10.89,3.44-9.36,9.27C18,167.8,35.51,169.63,40,170.43c3.92.69,8-1.72,7.7,2.85-.2,3-7.13,2.36-6.64,5.45,2,.89,10.3,9.38,39.79,2.6,9-2.08-8.64-11.79-6.63-13.5,3.65-3.1,18.42,4.1,22.82,2.4,5.38-2.07,8-6,4.24-10.7-1.11-1.4-11.38-1.43-10.61-3.63,1.06-3,14.06-2.34,14.06-2.34S61.28,16.06,48.5,16.06Z"/>
          <path class="f3c46450-0ef2-4ca6-ac07-1405b10d1199" d="M28.5,150.92s4.35-36.79,9.13-60.14S49.3,24.63,47.71,25.14,38.82,70.63,35.92,84.37c-4.63,21.86-14.17,60.49-14.17,60.49a16.09,16.09,0,0,1,3.9,2.07c1.6,1.25,2.74,1.88,3,3.78Z"/>
          <path class="f3c46450-0ef2-4ca6-ac07-1405b10d1199" d="M47.62,172s1.43-119.32.43-120.29-2.59,47.47-2.59,57.2-7.83,61-7.83,61a12.59,12.59,0,0,0,7.78.52A1.79,1.79,0,0,1,47.62,172Z"/>
          <path class="fa7f17f2-1a8f-43fe-b0b5-8db171b0c82e" d="M74.08,168.18S68.14,139.43,67.15,133,64,81.06,62.57,76.19,58.4,64.33,59.79,64.33s9.09,59.7,11.08,65.54,4.89,24.73,5.48,27.85,5.75,10.2,5.75,10.2a34.23,34.23,0,0,0-4.69-.78A4,4,0,0,0,74.08,168.18Z"/>
          <path class="fa7f17f2-1a8f-43fe-b0b5-8db171b0c82e" d="M90.68,155.9s-2-10.24-4-19.29S82.81,114.93,81,107.77,75.56,91.35,75.29,89s-2.15-11-1.85-11.16c.79-.52,3.89,6.7,5.57,16.34s5.83,20.38,8.84,29.93,1.59,10.84,3.36,17.6,3.45,11.93,3.45,11.93a8.94,8.94,0,0,0-2.57,1C90.68,155.4,90.68,155.9,90.68,155.9Z"/>
          <path class="fa7f17f2-1a8f-43fe-b0b5-8db171b0c82e" d="M96.42,128.14a12.44,12.44,0,0,1-3.8.87c-2.47.17-4.51-1.65-6.54.34a3.4,3.4,0,0,0-.62,2.86l.5,2.41a9.76,9.76,0,0,1-6,1c-4.16-.34-6.64-1.33-9.73-.6-2.92.69-1.94,4.67-1.94,4.67l.74,3.43c-.39.66-1.81,1.94-7.11,2.45a55.79,55.79,0,0,1-13.8-.57l.1-2.46s0-2.76-1.6-3.46-5.12.44-8-.43-7.94-2.15-8.29-2.24l.33-2.77c.76-3.69-.37-5.48-1.77-6.06-5.39-2.25-9.07.14-12.45-1.42a17.93,17.93,0,0,1-4.88-3.07l-2.92,8.21a47,47,0,0,0,8.93,2.77c3.51.66,8.23-.35,9.64,1.12a8.86,8.86,0,0,1,2.47,6.2l-.43,3.4s.08,1,2.56,1.82,10.73.56,12.82.95c2.44.46,3.14,1.86,3.31,3v.64l0,.73,0-.1,0,2.18s2.2,1.43,8.93,1.64A36.23,36.23,0,0,0,71,153.39l-1-6,.3,1.38s-.35-4,2.12-5.27,6.28.43,10.17.6a18.3,18.3,0,0,0,5.57-.34l-.74-3.37c.1-1.06.41-2.92,1.36-3.81,2-1.9,3.45.86,7.61.43,2.46-.25,2.56-1.12,2.56-1.12Z"/>
        </g>
      </g>
    </g>
  </g>
</svg>
