<svg xmlns="http://www.w3.org/2000/svg" width="550" height="86" viewBox="0 0 550 86">
  <defs>
    <style>
      .ea90acb7-dac6-4afc-871f-189beb3c337f {
        fill: #fff;
      }
    </style>
  </defs>
  <g id="bb1e41f3-cc13-4254-a6fa-ffcdff0cbe40" data-name="Layer 3">
    <g>
      <rect class="ea90acb7-dac6-4afc-871f-189beb3c337f" y="0.5" width="550" height="85" rx="12"/>
      <g>
        <path d="M97.76,56.53c-1.68.84-5.46,1.74-10.38,1.74-14,0-21.18-8.7-21.18-20.22,0-13.8,9.84-21.48,22.08-21.48a23.84,23.84,0,0,1,10,1.8l-1.86,7.26a19.75,19.75,0,0,0-7.68-1.5c-7.26,0-12.9,4.38-12.9,13.38,0,8.1,4.8,13.2,13,13.2a22.85,22.85,0,0,0,7.62-1.32Z"/>
        <path d="M131.3,42.67c0,10.74-7.62,15.66-15.48,15.66-8.58,0-15.18-5.64-15.18-15.12s6.24-15.54,15.66-15.54C125.3,27.67,131.3,33.85,131.3,42.67Zm-21.24.3c0,5,2.1,8.82,6,8.82,3.54,0,5.82-3.54,5.82-8.82,0-4.38-1.68-8.82-5.82-8.82C111.68,34.15,110.06,38.65,110.06,43Z"/>
        <path d="M136.94,37.69c0-3.66-.12-6.78-.24-9.36h7.68l.42,4H145a10.17,10.17,0,0,1,8.88-4.62,8.31,8.31,0,0,1,8,5H162a13.13,13.13,0,0,1,3.78-3.54,10.59,10.59,0,0,1,5.58-1.44c5.64,0,9.9,4,9.9,12.72V57.67H172.4v-16c0-4.26-1.38-6.72-4.32-6.72a4.46,4.46,0,0,0-4.2,3.18,7.63,7.63,0,0,0-.36,2.34V57.67h-8.88V41.23c0-3.72-1.32-6.24-4.2-6.24a4.64,4.64,0,0,0-4.26,3.3,6,6,0,0,0-.36,2.28v17.1h-8.88Z"/>
        <path d="M188.3,57.67c.12-1.92.24-5.46.24-8.76V15.07h9.12V31.81h.12c1.74-2.52,4.8-4.14,8.88-4.14,7,0,12.18,5.82,12.12,14.82,0,10.56-6.72,15.84-13.44,15.84a9.74,9.74,0,0,1-8.82-4.74h-.12L196,57.67Zm9.36-12.48a6.69,6.69,0,0,0,.18,1.62,5.52,5.52,0,0,0,5.34,4.32c3.9,0,6.3-3,6.3-8.28,0-4.56-2-8.16-6.3-8.16a5.65,5.65,0,0,0-5.34,4.5,7.59,7.59,0,0,0-.18,1.68Z"/>
        <path d="M243.38,28.33l4.38,14.4c.48,1.74,1.08,3.9,1.44,5.46h.18c.42-1.56.9-3.78,1.32-5.46l3.6-14.4h9.78l-6.84,19.32c-4.2,11.64-7,16.32-10.32,19.26a16.81,16.81,0,0,1-8.82,4l-1.92-7.74a11.5,11.5,0,0,0,4-1.56A10.48,10.48,0,0,0,243.92,58a2.38,2.38,0,0,0,.48-1.32,3.31,3.31,0,0,0-.42-1.5L233.24,28.33Z"/>
        <path d="M296,42.67c0,10.74-7.62,15.66-15.48,15.66-8.58,0-15.18-5.64-15.18-15.12S271.58,27.67,281,27.67C290,27.67,296,33.85,296,42.67Zm-21.24.3c0,5,2.1,8.82,6,8.82,3.54,0,5.82-3.54,5.82-8.82,0-4.38-1.68-8.82-5.82-8.82C276.38,34.15,274.76,38.65,274.76,43Z"/>
        <path d="M329.3,48.25c0,3.84.12,7,.24,9.42h-7.92l-.42-4.14H321a10.47,10.47,0,0,1-9.18,4.8c-5.94,0-10.32-3.72-10.32-12.78V28.33h9.18V44.11c0,4.26,1.38,6.84,4.56,6.84a4.91,4.91,0,0,0,4.56-3.18,5.09,5.09,0,0,0,.3-2V28.33h9.18Z"/>
        <path d="M336.62,38c0-4.32-.12-7.14-.24-9.66h7.86l.3,5.4h.24a8.62,8.62,0,0,1,7.92-6.06,9.4,9.4,0,0,1,1.92.12v8.58a13.07,13.07,0,0,0-2.46-.24c-3.36,0-5.64,1.8-6.24,4.62a10.75,10.75,0,0,0-.18,2V57.67h-9.12Z"/>
        <path d="M371.54,15.07h9.12V31.81h.12a11,11,0,0,1,3.6-3,10.24,10.24,0,0,1,4.74-1.14c5.82,0,10.26,4,10.26,12.84V57.67h-9.12V41.53c0-3.84-1.32-6.48-4.74-6.48A4.85,4.85,0,0,0,381,38.23a5.8,5.8,0,0,0-.3,2v17.4h-9.12Z"/>
        <path d="M423.38,57.67l-.54-2.94h-.18a10.57,10.57,0,0,1-8.4,3.6c-5.94,0-9.48-4.32-9.48-9,0-7.62,6.84-11.28,17.22-11.22v-.42c0-1.56-.84-3.78-5.34-3.78a16.5,16.5,0,0,0-8.1,2.22l-1.68-5.88a24.22,24.22,0,0,1,11.4-2.58c9.78,0,12.9,5.76,12.9,12.66v10.2a45.46,45.46,0,0,0,.42,7.14ZM422.3,43.81c-4.8-.06-8.52,1.08-8.52,4.62a3.28,3.28,0,0,0,3.6,3.48,5,5,0,0,0,4.74-3.36A6.54,6.54,0,0,0,422.3,47Z"/>
        <path d="M447.8,20.17a4.58,4.58,0,0,1-4.92,4.56,4.46,4.46,0,0,1-4.74-4.56,4.46,4.46,0,0,1,4.8-4.62A4.57,4.57,0,0,1,447.8,20.17Zm-9.42,37.5V28.33h9.12V57.67Z"/>
        <path d="M454.82,38c0-4.32-.12-7.14-.24-9.66h7.86l.3,5.4H463a8.62,8.62,0,0,1,7.92-6.06,9.4,9.4,0,0,1,1.92.12v8.58a13.07,13.07,0,0,0-2.46-.24c-3.36,0-5.64,1.8-6.24,4.62a10.75,10.75,0,0,0-.18,2V57.67h-9.12Z"/>
        <path d="M473.06,52.81a5.28,5.28,0,0,1,5.4-5.58c3.18,0,5.34,2.28,5.34,5.58a5.37,5.37,0,1,1-10.74,0Z"/>
      </g>
    </g>
  </g>
</svg>
