<svg xmlns="http://www.w3.org/2000/svg" xmlns:xlink="http://www.w3.org/1999/xlink" width="278" height="201.24" viewBox="0 0 278 201.24">
  <defs>
    <style>
      .aed60881-8d93-4970-802b-e8ed74bd8986 {
        fill: none;
      }

      .aed60881-8d93-4970-802b-e8ed74bd8986, .bd49f0a9-8912-4831-b762-38cb65b06e62 {
        stroke: #323232;
      }

      .aed60881-8d93-4970-802b-e8ed74bd8986, .b88c2730-11c4-4395-821a-e7d5075a6061, .ba392ebc-3439-4e8e-ba57-abdc26f768dc, .bd49f0a9-8912-4831-b762-38cb65b06e62, .e9857487-8861-4558-817d-7eb28af38c99 {
        stroke-miterlimit: 10;
      }

      .b377d1e0-0a33-4de2-84e8-71bb2ae958a4, .bb8b13e1-37b5-4a6b-bcda-4595824c5b95, .fd213aaa-97b1-4403-9b39-2162c42d9c3a, .ff4bdf58-e847-4078-a901-eb8f922e4899 {
        fill: #fff;
      }

      .b88c2730-11c4-4395-821a-e7d5075a6061, .ba392ebc-3439-4e8e-ba57-abdc26f768dc, .e9857487-8861-4558-817d-7eb28af38c99 {
        fill: #48aaa3;
      }

      .ba392ebc-3439-4e8e-ba57-abdc26f768dc, .e9857487-8861-4558-817d-7eb28af38c99 {
        stroke: #000;
      }

      .e9857487-8861-4558-817d-7eb28af38c99 {
        stroke-width: 0.75px;
      }

      .b88c2730-11c4-4395-821a-e7d5075a6061 {
        stroke: #424242;
        stroke-width: 0.5px;
      }

      .b61aaddb-c18b-4b05-9b68-0c017b8c270c {
        fill: #969dbc;
      }

      .bb8b13e1-37b5-4a6b-bcda-4595824c5b95 {
        opacity: 0.8;
      }

      .e87ec5bc-8334-4531-ac62-01cc890d7c99 {
        fill: #d5d5ef;
      }

      .ff4bdf58-e847-4078-a901-eb8f922e4899 {
        opacity: 0.6;
      }

      .f3846122-f139-41a1-9812-f792bf60f871 {
        fill: #adadad;
      }

      .a3342830-c0cb-4f1d-98d1-fc9fbfdd6935 {
        fill: #6e7f99;
      }

      .fd213aaa-97b1-4403-9b39-2162c42d9c3a {
        opacity: 0.5;
      }

      .b4a02e1c-5aa4-455d-a625-750784642caa {
        fill: #03fff2;
      }

      .ecc24485-0237-4dba-85a8-5d02ce2e41ae {
        clip-path: url(#b45cd98e-8384-4aed-813b-981d6021d1cf);
      }

      .bd49f0a9-8912-4831-b762-38cb65b06e62 {
        fill: #ffb6b6;
      }
    </style>
    <clipPath id="b45cd98e-8384-4aed-813b-981d6021d1cf">
      <path class="aed60881-8d93-4970-802b-e8ed74bd8986" d="M71.79,340.31l-2.42-4.95-1.82-3.83-.14-.18c-8.44-17.3-26.76-55-33.55-69.8-8.93-19.55-9-37.34-22.3-34.8-3.92.75-12.33,20-15.28,34.59s-16.88,47-21.38,60.14c-2.32,6.8-4.78,15-6.62,21.37l-.12,0-.95,3.73c-1.14,4-1.86,6.64-1.86,6.64s8.09-.27,20.08,3l-.3,0-2,23s0-.11,0-.26l0,.26s-2.24,6.84,22.3,4.71c4.81-.42,9-.75,12.63-1,.79,9.7,1.84,22.33,2.29,26.82.75,7.57-.25,20.28-.25,20.28s13-7.23,22-17.1c8-8.75,12.92-13.88,11.74-19l0,.06,0-.12v0l0-.1c-.21-1.26-.89-5.36-1.82-10.84L51.12,377s-.06-.13-.19-.35c-.32-1.85-.65-3.77-1-5.74l-1.45-9-.12,0c-.42-2.41-.83-4.77-1.23-7,6.51-.92,14.85-2.25,18.4-3.5C71.8,349.12,74.05,344.72,71.79,340.31Z"/>
    </clipPath>
  </defs>
  <g id="b06fd24f-c9b3-4c16-9574-5fb2b8c682c6" data-name="Layer 11">
    <g>
      <g>
        <path class="b377d1e0-0a33-4de2-84e8-71bb2ae958a4" d="M130.36,47.67A5.16,5.16,0,0,0,132,49a5.19,5.19,0,0,0,4.72,0l6.81-3.53a5.52,5.52,0,0,0,1.14-.83A5.09,5.09,0,0,0,146,39.05a5,5,0,0,0-.3-.68,5.24,5.24,0,0,0-7-2.12l-6.81,3.53a5,5,0,0,0-.87.57,5.12,5.12,0,0,0-1.26,6.44A4.77,4.77,0,0,0,130.36,47.67Z"/>
        <path class="b377d1e0-0a33-4de2-84e8-71bb2ae958a4" d="M77.34,75.9a4.84,4.84,0,0,0,2.08,1.15,5.3,5.3,0,0,0,3.79-.39l13.38-6.94a5.1,5.1,0,0,0,2.74-5,4.91,4.91,0,0,0-.61-2,5.23,5.23,0,0,0-3.18-2.51A5.34,5.34,0,0,0,93.72,60a5.14,5.14,0,0,0-2,.56L78.37,67.52a5.13,5.13,0,0,0-2.13,7A4.88,4.88,0,0,0,77.34,75.9Z"/>
        <path class="b377d1e0-0a33-4de2-84e8-71bb2ae958a4" d="M19.08,106.51a5.93,5.93,0,0,0-.1-.72,4.85,4.85,0,0,0-.52-1.47,5.19,5.19,0,0,0-1.94-2l-.31-.17a5.36,5.36,0,0,0-.94-.36,5.22,5.22,0,0,0-3.78.38l-6.81,3.53a5.15,5.15,0,0,0-1.6,1.3,5.08,5.08,0,0,0-.94,4.74,4.94,4.94,0,0,0,.41,1,5.06,5.06,0,0,0,.61.87,5.16,5.16,0,0,0,1.42,1.15,4.93,4.93,0,0,0,1.15.48,5,5,0,0,0,.94.17,5.09,5.09,0,0,0,1.9-.19,5,5,0,0,0,.95-.37l6.8-3.53A5.15,5.15,0,0,0,19.08,106.51Z"/>
        <path class="b377d1e0-0a33-4de2-84e8-71bb2ae958a4" d="M118.84,82.25a5.13,5.13,0,0,0,.22,2.58l.09.25s.08.19.09.2a5.15,5.15,0,0,0,.48.83,3.56,3.56,0,0,0,.55.61,5.13,5.13,0,0,0,6.64.66l13-8.89a5.12,5.12,0,0,0,2.1-5.36,5.31,5.31,0,0,0-.84-1.86,5.21,5.21,0,0,0-6.26-1.77A4.82,4.82,0,0,0,134,70L121,78.9A5.06,5.06,0,0,0,118.84,82.25Z"/>
        <path class="b377d1e0-0a33-4de2-84e8-71bb2ae958a4" d="M93.18,99.08a5,5,0,0,0-.27,1,5.11,5.11,0,0,0,.38,3,4.8,4.8,0,0,0,.51.89,5.2,5.2,0,0,0,7.19,1.27l13-8.9a5,5,0,0,0,1.92-5.93,4.89,4.89,0,0,0-.65-1.27,5,5,0,0,0-1.49-1.4,4.73,4.73,0,0,0-.9-.45,4.11,4.11,0,0,0-.46-.15,5.31,5.31,0,0,0-3.43.22,5.71,5.71,0,0,0-.91.5l-13,8.9A5.07,5.07,0,0,0,93.18,99.08Z"/>
        <path class="b377d1e0-0a33-4de2-84e8-71bb2ae958a4" d="M51.55,107.15a5.34,5.34,0,0,0-1.55-.72l-.24-.06a5.19,5.19,0,0,0-3.89.65l-13.28,8.25a5.08,5.08,0,0,0-1.5,1.42,4.92,4.92,0,0,0-.8,1.83,5.11,5.11,0,0,0,.11,2.6,4.72,4.72,0,0,0,.16.45,5.13,5.13,0,0,0,.45.87A5.23,5.23,0,0,0,38.12,124l13.28-8.25a5.23,5.23,0,0,0,.83-.64,5.3,5.3,0,0,0,1.16-1.65A5.12,5.12,0,0,0,53,108.6a5.07,5.07,0,0,0-1.42-1.45Z"/>
        <path class="b377d1e0-0a33-4de2-84e8-71bb2ae958a4" d="M103.11,73.45a5.64,5.64,0,0,0-1.21-.19A5.21,5.21,0,0,0,99,74L85.69,82.29a5.12,5.12,0,0,0-1.57,7.16A5,5,0,0,0,85.72,91a5,5,0,0,0,4.51.51,4.84,4.84,0,0,0,1-.48l13.28-8.25a5,5,0,0,0,2.29-3.24,5.09,5.09,0,0,0-.72-3.92A5.2,5.2,0,0,0,103.11,73.45Z"/>
        <path class="b377d1e0-0a33-4de2-84e8-71bb2ae958a4" d="M132.64,59.13a5.21,5.21,0,0,0-3-2.17l-.25-.06a5.18,5.18,0,0,0-3.89.65L112.24,65.8a5.65,5.65,0,0,0-.82.64,4.94,4.94,0,0,0-.67.77,5.19,5.19,0,0,0,7,7.32l13.28-8.25a5.1,5.1,0,0,0,1.58-7.15Z"/>
        <path class="b377d1e0-0a33-4de2-84e8-71bb2ae958a4" d="M79.45,97.86a5.06,5.06,0,0,0,.49-.88,4.68,4.68,0,0,0,.31-1,5.36,5.36,0,0,0,.12-1,5.09,5.09,0,0,0-.84-2.92,5.23,5.23,0,0,0-1.43-1.46,5.37,5.37,0,0,0-1.54-.7l-.25-.07a5.21,5.21,0,0,0-3.89.65L59.14,98.78a5.57,5.57,0,0,0-.83.64,5.13,5.13,0,0,0-1.39,2.33s-.07.22-.08.28a5.06,5.06,0,0,0,.73,3.91,5.21,5.21,0,0,0,1.31,1.38,5.24,5.24,0,0,0,5.79.2L78,99.27A5.18,5.18,0,0,0,79.45,97.86Z"/>
        <path class="b377d1e0-0a33-4de2-84e8-71bb2ae958a4" d="M26.42,125.08a6.26,6.26,0,0,0-.45-.57,5.23,5.23,0,0,0-6.65-1l-6.51,4a5.12,5.12,0,0,0-2.3,3.24,5.18,5.18,0,0,0,0,2,5.26,5.26,0,0,0,.28,1,4.91,4.91,0,0,0,.48.94,5.27,5.27,0,0,0,3,2.17,5.21,5.21,0,0,0,4.13-.6l6.51-4a5,5,0,0,0,1.19-1A5.16,5.16,0,0,0,27.15,129a1.18,1.18,0,0,0,0-.2A5.12,5.12,0,0,0,26.42,125.08Z"/>
        <path class="b377d1e0-0a33-4de2-84e8-71bb2ae958a4" d="M153.79,79.09a5.2,5.2,0,0,0,4.26,2,5,5,0,0,0,1.91-.42A5.22,5.22,0,0,0,161,80l6.1-4.63.36-.31a5.22,5.22,0,0,0,1.39-2.15,5,5,0,0,0,.24-1.37,4.81,4.81,0,0,0-.07-1.13,5.21,5.21,0,0,0-1-2.3A5.44,5.44,0,0,0,166.75,67a3.38,3.38,0,0,0-.41-.24,4.91,4.91,0,0,0-1-.4,5.26,5.26,0,0,0-4.53.85l-6.09,4.62a5.06,5.06,0,0,0-1.76,2.48,5.1,5.1,0,0,0,.85,4.79Z"/>
        <path class="b377d1e0-0a33-4de2-84e8-71bb2ae958a4" d="M104.47,116.49a3.29,3.29,0,0,0,.44.46,5.15,5.15,0,0,0,6.8.47L124,108.07a5.13,5.13,0,0,0,.91-7.27A5.19,5.19,0,0,0,122.26,99a5.31,5.31,0,0,0-2.38-.09,5.17,5.17,0,0,0-2.16.94l-12.33,9.36a5.12,5.12,0,0,0-1.85,5.43A5.2,5.2,0,0,0,104.47,116.49Z"/>
        <path class="b377d1e0-0a33-4de2-84e8-71bb2ae958a4" d="M79.25,134.32a5.1,5.1,0,0,0,.57.88,5.22,5.22,0,0,0,7.23.93l12.33-9.36a5.06,5.06,0,0,0,2-4.9,4.94,4.94,0,0,0-.47-1.48,2.39,2.39,0,0,0-.12-.22,5.22,5.22,0,0,0-.45-.67,5.66,5.66,0,0,0-.72-.75,5.39,5.39,0,0,0-2-1,5.24,5.24,0,0,0-4.53.87l-12.33,9.35a5.25,5.25,0,0,0-1.63,2.14c0,.11-.1.23-.14.34a5,5,0,0,0,.15,3.57C79.15,134.1,79.21,134.22,79.25,134.32Z"/>
        <path class="b377d1e0-0a33-4de2-84e8-71bb2ae958a4" d="M51,156.92a5.15,5.15,0,0,0-2.7-1.8,5.23,5.23,0,0,0-3.65.32,5.33,5.33,0,0,0-.88.54l-6.09,4.62a5.1,5.1,0,0,0-1.36,1.56,5,5,0,0,0-.41.91,5.1,5.1,0,0,0,.29,3.91,4.93,4.93,0,0,0,.57.88,5.15,5.15,0,0,0,2.7,1.8,5.24,5.24,0,0,0,4.53-.87l6.09-4.62a5.12,5.12,0,0,0,.76-.71,5.12,5.12,0,0,0,.15-6.54Z"/>
        <path class="b377d1e0-0a33-4de2-84e8-71bb2ae958a4" d="M135.11,112.5a5.21,5.21,0,0,0-7.29-.42l-11.36,10a5.66,5.66,0,0,0-.71.76,5.06,5.06,0,0,0-.87,1.83,5.13,5.13,0,0,0-.1,2,5.22,5.22,0,0,0,.68,1.9,5.14,5.14,0,0,0,.61.82,5.15,5.15,0,0,0,3.71,1.7,5.16,5.16,0,0,0,3.58-1.28l11.35-10a5.1,5.1,0,0,0,.71-.77,4.9,4.9,0,0,0,.88-1.84A5.11,5.11,0,0,0,135.11,112.5Z"/>
        <path class="b377d1e0-0a33-4de2-84e8-71bb2ae958a4" d="M112.41,132.47a5.22,5.22,0,0,0-7.3-.42L93.78,142a4.19,4.19,0,0,0-.73.78,4.38,4.38,0,0,0-.53.88,4.48,4.48,0,0,0-.34.95,5,5,0,0,0,0,2.54,3.77,3.77,0,0,0,.18.57,5.17,5.17,0,0,0,1,1.59,5.31,5.31,0,0,0,2.47,1.52,5.18,5.18,0,0,0,4.82-1.1l11.35-10a5.06,5.06,0,0,0,1.73-3.6A5.11,5.11,0,0,0,112.41,132.47Z"/>
        <path class="b377d1e0-0a33-4de2-84e8-71bb2ae958a4" d="M89.7,152.43a5.23,5.23,0,0,0-7.29-.41L71.07,162a5.08,5.08,0,0,0-1.45,5.56,5.18,5.18,0,0,0,3.52,3.26,5.18,5.18,0,0,0,4.82-1.1l11.35-10A4.61,4.61,0,0,0,90,159,5.12,5.12,0,0,0,89.7,152.43Z"/>
        <path class="b377d1e0-0a33-4de2-84e8-71bb2ae958a4" d="M67,172.41a5,5,0,0,0-1-.85,5.5,5.5,0,0,0-1.46-.66,5.32,5.32,0,0,0-1.82-.17,5.17,5.17,0,0,0-3,1.27L54,177a4.5,4.5,0,0,0-.73.78,5.94,5.94,0,0,0-.53.87,5.11,5.11,0,0,0,.86,5.67,5.54,5.54,0,0,0,.89.76c.14.09.27.18.42.26a5.13,5.13,0,0,0,4.86.14l.33-.19a5.4,5.4,0,0,0,.79-.56l5.72-5a5.13,5.13,0,0,0,.39-7.31Z"/>
        <path class="b377d1e0-0a33-4de2-84e8-71bb2ae958a4" d="M276,180.22l-4.63-26a3.22,3.22,0,0,0-.61-1.39.36.36,0,0,1,0-.09l-9.58-15.35-.13-.31L221.39,52.49A43.33,43.33,0,0,0,208,13.43l-.12-.11c-.46-.42-.93-.83-1.4-1.23l-.25-.21c-.44-.36-.89-.73-1.34-1.07l-.39-.29c-.43-.32-.85-.63-1.29-.94l-.52-.34c-.4-.27-.8-.54-1.21-.8L200.67,8c-.33-.21-.67-.41-1-.6l-.56-.3-.46-.25-.86-.45L197.11,6l-.53-.25-.75-.34c-.28-.13-.57-.25-.87-.37l-.5-.2-.64-.26c-.37-.15-.74-.28-1.12-.41l-.43-.15-.52-.18c-.7-.23-1.41-.45-2.13-.65A43.61,43.61,0,0,0,183.46,2c-.47-.06-.94-.1-1.41-.13l-.41,0-.39,0-.87-.08c-.47,0-.95,0-1.42,0h-.77c-.28,0-.57,0-.85,0s-.64,0-1,0l-.84.05c-.41,0-.82,0-1.22.07-.22,0-.43,0-.64.07l-.51.06c-.61.07-1.23.13-1.83.23l-1.07.2-.41.08-.42.08-1,.2c-.44.1-.86.22-1.29.34l-.76.2-.82.22c-.47.14-.93.3-1.39.46l-.68.24-.73.25c-.52.19-1,.41-1.53.62l-.57.24-.62.26c-.7.32-1.38.66-2.05,1l-.16.07-.43.22c-.67.36-1.32.74-2,1.13l-.15.09-.42.24c-.72.45-1.41.92-2.15,1.44l-.29.19a44.6,44.6,0,0,0-6.43,5.6,3.27,3.27,0,0,0-.88,1.33L141,28.76a3.26,3.26,0,0,0,.47,3l40,53A3.23,3.23,0,0,0,183.17,86a3.18,3.18,0,0,0,1.41.07l9.34-1.57,48.72,63.67,9.8,15.69a3.17,3.17,0,0,0,.61.7C259.1,175,265.35,197,265.41,197.2a3.27,3.27,0,0,0,2.27,2.26,3.58,3.58,0,0,0,.87.11,3.26,3.26,0,0,0,3.13-2.38L276,181.65A3.28,3.28,0,0,0,276,180.22Z"/>
        <path class="b377d1e0-0a33-4de2-84e8-71bb2ae958a4" d="M106.18,63.18a5.23,5.23,0,0,0,3.78-.39l13.38-6.94a5.51,5.51,0,0,0,.88-.57,5.15,5.15,0,0,0,1.26-6.45,5.21,5.21,0,0,0-3-2.47l-.15,0a5.66,5.66,0,0,0-.82-.16,5.1,5.1,0,0,0-1.8.12l-.2,0a5.33,5.33,0,0,0-1,.38l-13.39,6.94a5.26,5.26,0,0,0-1.79,1.56,5.37,5.37,0,0,0-.67,1.27c0,.07,0,.15-.08.22a5.15,5.15,0,0,0,.41,4A5.25,5.25,0,0,0,106.18,63.18Z"/>
        <path class="b377d1e0-0a33-4de2-84e8-71bb2ae958a4" d="M49.49,88.41a5.22,5.22,0,0,0,6,2.49,4.62,4.62,0,0,0,.93-.37l13.38-6.94a5.51,5.51,0,0,0,.88-.57A5.15,5.15,0,0,0,72,76.57a5.28,5.28,0,0,0-3.19-2.51,5.22,5.22,0,0,0-3.78.39L51.62,81.39a5.18,5.18,0,0,0-1.6,1.3,4.83,4.83,0,0,0-.56.83,5.49,5.49,0,0,0-.38.93,4.78,4.78,0,0,0-.2,1A5.06,5.06,0,0,0,49.49,88.41Z"/>
        <path class="b377d1e0-0a33-4de2-84e8-71bb2ae958a4" d="M22.41,101.55a5,5,0,0,0,1.69,2.33,5.16,5.16,0,0,0,.86.54,5,5,0,0,0,.95.37,5.23,5.23,0,0,0,3.2-.14,4.35,4.35,0,0,0,.59-.25l13.38-6.94a5,5,0,0,0,.87-.57,5.13,5.13,0,0,0,1.29-1.56,5.38,5.38,0,0,0,.38-.92,5,5,0,0,0-.07-3.19,4.74,4.74,0,0,0-.34-.78,5.12,5.12,0,0,0-1.59-1.75A5.26,5.26,0,0,0,42,87.94a5.12,5.12,0,0,0-3.76.39L24.9,95.24l-.26.15a5,5,0,0,0-2.53,4.17A4.94,4.94,0,0,0,22.41,101.55Z"/>
        <path class="b377d1e0-0a33-4de2-84e8-71bb2ae958a4" d="M161.23,59.91a5.21,5.21,0,0,0-2.08-3.09l-.42-.27a5.74,5.74,0,0,0-1.2-.5,5.19,5.19,0,0,0-3.41.23,4.47,4.47,0,0,0-.91.5l-6.3,4.32a5.11,5.11,0,0,0-1.26,7.21,4.33,4.33,0,0,0,.8.86,4.86,4.86,0,0,0,1.19.78,3.53,3.53,0,0,0,.86.35,5.26,5.26,0,0,0,3.3-.17,5.34,5.34,0,0,0,1-.55l6.3-4.33A5.14,5.14,0,0,0,161,62.87a5,5,0,0,0,.33-1.95A4.29,4.29,0,0,0,161.23,59.91Z"/>
        <path class="b377d1e0-0a33-4de2-84e8-71bb2ae958a4" d="M48.58,141.1a4,4,0,0,0,.56-.32l13-8.9a5.11,5.11,0,0,0,1.25-7.22,5.24,5.24,0,0,0-1.18-1.17,5,5,0,0,0-1.68-.8,5.2,5.2,0,0,0-4.32.71l-13,8.9a5.09,5.09,0,0,0-.79.67,5.56,5.56,0,0,0-.64.81,5.17,5.17,0,0,0,.18,5.74,5.2,5.2,0,0,0,2.84,2A5.14,5.14,0,0,0,48.58,141.1Z"/>
        <path class="b377d1e0-0a33-4de2-84e8-71bb2ae958a4" d="M67,119.43a5.09,5.09,0,0,0,.24,1c0,.13.1.29.15.41a.67.67,0,0,0,.06.12,5.31,5.31,0,0,0,.45.78A5.55,5.55,0,0,0,69.16,123a5.09,5.09,0,0,0,1.57.72,5.21,5.21,0,0,0,4.33-.72l13-8.9a5.14,5.14,0,0,0,.8-.68,5,5,0,0,0,1.09-1.71,4.71,4.71,0,0,0,.26-1,5.05,5.05,0,0,0-.88-3.85A5.19,5.19,0,0,0,86.9,105a4.26,4.26,0,0,0-.47-.15,5.25,5.25,0,0,0-3.41.22,4.83,4.83,0,0,0-.92.5l-13,8.9A5.06,5.06,0,0,0,67,118.05,5.31,5.31,0,0,0,67,119.43Z"/>
        <path class="b377d1e0-0a33-4de2-84e8-71bb2ae958a4" d="M37.44,142.47a5.24,5.24,0,0,0-2.85-2,5.31,5.31,0,0,0-3.43.22,6.73,6.73,0,0,0-.91.5L24,145.53a5,5,0,0,0-1.89,2.39,5,5,0,0,0-.34,1.75,4.58,4.58,0,0,0,.06.8c0,.13,0,.29.06.41a5.31,5.31,0,0,0,.84,1.86,5.21,5.21,0,0,0,2.85,2,5.07,5.07,0,0,0,1.09.18,5.2,5.2,0,0,0,3.25-.9l6.29-4.33A5.1,5.1,0,0,0,38,143.37,5.25,5.25,0,0,0,37.44,142.47Z"/>
        <path class="b377d1e0-0a33-4de2-84e8-71bb2ae958a4" d="M152.42,46.84a5.2,5.2,0,0,0-3-2.17,5.26,5.26,0,0,0-4.13.59l-6.51,4a5.14,5.14,0,0,0-2.3,3.27c0,.08,0,.16,0,.25a5.13,5.13,0,0,0,.77,3.65,3,3,0,0,0,.35.45,5.11,5.11,0,0,0,2.62,1.71,5.23,5.23,0,0,0,4.14-.59l6.5-4a5.14,5.14,0,0,0,2.42-4.24A5.17,5.17,0,0,0,152.42,46.84Z"/>
        <path class="b377d1e0-0a33-4de2-84e8-71bb2ae958a4" d="M129.13,97.79a4.93,4.93,0,0,0,1.24,1.13,5,5,0,0,0,1.47.66,4.94,4.94,0,0,0,1.15.19,5,5,0,0,0,1.16-.08,5.16,5.16,0,0,0,2.22-1l12.32-9.35a3.68,3.68,0,0,0,.37-.32,5.34,5.34,0,0,0,.81-1c.09-.13.17-.26.25-.4a5.14,5.14,0,0,0,.57-1.79,5.46,5.46,0,0,0,0-1,5,5,0,0,0-1.1-2.82,5.19,5.19,0,0,0-2.7-1.79,5.72,5.72,0,0,0-.72-.14,5.18,5.18,0,0,0-3.81,1l-12.33,9.36a5.19,5.19,0,0,0-.77.71A5.13,5.13,0,0,0,129.13,97.79Z"/>
        <path class="b377d1e0-0a33-4de2-84e8-71bb2ae958a4" d="M62.39,154.83l12.33-9.35a5.86,5.86,0,0,0,.77-.72,5.3,5.3,0,0,0,.87-1.42c0-.11.09-.23.13-.34a5.13,5.13,0,0,0-.85-4.79,5.74,5.74,0,0,0-.73-.75,5.1,5.1,0,0,0-2-1,5.24,5.24,0,0,0-4.53.86l-12.33,9.36a5.1,5.1,0,0,0-.91,7.26,5.24,5.24,0,0,0,2.7,1.79,5.2,5.2,0,0,0,2.32.11A5.12,5.12,0,0,0,62.39,154.83Z"/>
        <path class="b377d1e0-0a33-4de2-84e8-71bb2ae958a4" d="M176.05,79.67a5.24,5.24,0,0,0-.55-1.35,5.6,5.6,0,0,0-.62-.83,5.2,5.2,0,0,0-7-.6l-.25.19-5.72,5a5.14,5.14,0,0,0-.39,7.31,5.23,5.23,0,0,0,7.29.41l5.7-5a2.57,2.57,0,0,0,.33-.33,5.08,5.08,0,0,0,1.4-3.95A4.53,4.53,0,0,0,176.05,79.67Z"/>
        <path class="b377d1e0-0a33-4de2-84e8-71bb2ae958a4" d="M157.81,92.52a5.29,5.29,0,0,0-1.66-1.22,6,6,0,0,0-.8-.3l-.12,0a5.23,5.23,0,0,0-4.71,1.13l-11.34,10a5.37,5.37,0,0,0-.72.78,5.13,5.13,0,0,0,1.63,7.57,4.76,4.76,0,0,0,1.16.48,5.18,5.18,0,0,0,4.82-1.1l11.34-10A5.07,5.07,0,0,0,159,94.61,5.21,5.21,0,0,0,157.81,92.52Z"/>
      </g>
      <g>
        <g>
          <path class="e9857487-8861-4558-817d-7eb28af38c99" d="M268,154.42l-10-15.95.06,0L218,52.9c-.07.31-.15.61-.22.91,4.69-20.64-8-41.63-29-47.44A40.83,40.83,0,0,0,148.17,18h0L144,29.83l40,53L195.32,81l50,65.29h0l9.92,15.88ZM216.87,57.06c-.15.47-.31.94-.47,1.4C216.56,58,216.72,57.53,216.87,57.06Zm-1.73,4.42c-.2.42-.39.84-.6,1.25C214.75,62.32,214.94,61.9,215.14,61.48Zm-1.61,3.12c-.29.5-.6,1-.91,1.45C212.93,65.57,213.24,65.09,213.53,64.6Zm-2.59,3.87c-.1.14-.21.26-.31.39C210.73,68.73,210.84,68.61,210.94,68.47Zm-29.7-6.42,14.13,18.83h0Z"/>
          <path class="ba392ebc-3439-4e8e-ba57-abdc26f768dc" d="M133.8,46.17a2,2,0,0,0,1.42-.14L142,42.5a1.87,1.87,0,0,0,.79-2.56,2,2,0,0,0-2.62-.8l-6.8,3.53a1.87,1.87,0,0,0-.79,2.56A2,2,0,0,0,133.8,46.17Z"/>
          <path class="ba392ebc-3439-4e8e-ba57-abdc26f768dc" d="M53.53,87.78A2,2,0,0,0,55,87.64L68.33,80.7a1.87,1.87,0,0,0,.79-2.56,2,2,0,0,0-2.62-.8L53.12,84.28a1.86,1.86,0,0,0-.78,2.56A1.92,1.92,0,0,0,53.53,87.78Z"/>
          <path class="ba392ebc-3439-4e8e-ba57-abdc26f768dc" d="M107,60a2,2,0,0,0,1.42-.14L121.84,53a1.87,1.87,0,0,0,.79-2.56,2,2,0,0,0-2.62-.8l-13.38,6.94a1.87,1.87,0,0,0-.79,2.56A2,2,0,0,0,107,60Z"/>
          <path class="ba392ebc-3439-4e8e-ba57-abdc26f768dc" d="M80.29,73.91a2,2,0,0,0,1.42-.14l13.38-6.94a1.86,1.86,0,0,0,.78-2.56,2,2,0,0,0-2.62-.8L79.88,70.41A1.87,1.87,0,0,0,79.09,73,1.91,1.91,0,0,0,80.29,73.91Z"/>
          <path class="ba392ebc-3439-4e8e-ba57-abdc26f768dc" d="M26.78,101.65a2,2,0,0,0,1.42-.14l13.38-6.93A1.87,1.87,0,0,0,42.36,92a2,2,0,0,0-2.62-.8L26.37,98.15a1.86,1.86,0,0,0-.79,2.56A1.91,1.91,0,0,0,26.78,101.65Z"/>
          <path class="ba392ebc-3439-4e8e-ba57-abdc26f768dc" d="M13,105.08l-6.81,3.53a1.87,1.87,0,0,0-.78,2.56,2,2,0,0,0,1.2,1A2,2,0,0,0,8,112l6.8-3.53a1.86,1.86,0,0,0,.78-2.56A2,2,0,0,0,13,105.08Z"/>
          <path class="ba392ebc-3439-4e8e-ba57-abdc26f768dc" d="M151,66.9l6.3-4.33a1.86,1.86,0,0,0,.45-2.64,2,2,0,0,0-2.69-.47l-6.3,4.33a1.84,1.84,0,0,0-.45,2.63,1.94,1.94,0,0,0,2.69.48Z"/>
          <path class="ba392ebc-3439-4e8e-ba57-abdc26f768dc" d="M58,126.08l-13,8.9a1.87,1.87,0,0,0-.46,2.64,2,2,0,0,0,1.07.75,2,2,0,0,0,1.62-.27l13-8.9a1.87,1.87,0,0,0,.46-2.64A2,2,0,0,0,58,126.08Z"/>
          <path class="ba392ebc-3439-4e8e-ba57-abdc26f768dc" d="M83.94,108.28l-13,8.91a1.85,1.85,0,0,0-.45,2.63,1.95,1.95,0,0,0,2.69.48l13-8.9a1.86,1.86,0,0,0,.45-2.64A2,2,0,0,0,83.94,108.28Z"/>
          <path class="ba392ebc-3439-4e8e-ba57-abdc26f768dc" d="M122.37,84.23a2,2,0,0,0,2.7.47l13-8.9a1.86,1.86,0,0,0,.45-2.64,2,2,0,0,0-2.69-.47l-13,8.9A1.86,1.86,0,0,0,122.37,84.23Z"/>
          <path class="ba392ebc-3439-4e8e-ba57-abdc26f768dc" d="M97.52,102.77a1.93,1.93,0,0,0,1.62-.27l13-8.9a1.87,1.87,0,0,0,.46-2.64,2,2,0,0,0-2.7-.47l-13,8.9a1.86,1.86,0,0,0-.45,2.64A2,2,0,0,0,97.52,102.77Z"/>
          <path class="ba392ebc-3439-4e8e-ba57-abdc26f768dc" d="M32.09,143.89l-6.3,4.32a1.86,1.86,0,0,0-.45,2.64,2,2,0,0,0,1.07.75,2,2,0,0,0,1.62-.27l6.3-4.33a1.87,1.87,0,0,0,.46-2.64A2,2,0,0,0,32.09,143.89Z"/>
          <path class="ba392ebc-3439-4e8e-ba57-abdc26f768dc" d="M147,48l-6.5,4a1.86,1.86,0,0,0-.57,2.61,2,2,0,0,0,2.67.6l6.5-4a1.88,1.88,0,0,0,.58-2.62A2,2,0,0,0,147,48Z"/>
          <path class="ba392ebc-3439-4e8e-ba57-abdc26f768dc" d="M47.58,109.79,34.31,118a1.87,1.87,0,0,0-.58,2.62,2,2,0,0,0,1.12.82,1.94,1.94,0,0,0,1.55-.23L49.68,113a1.88,1.88,0,0,0,.58-2.62A2,2,0,0,0,47.58,109.79Z"/>
          <path class="ba392ebc-3439-4e8e-ba57-abdc26f768dc" d="M103.36,77.4a2,2,0,0,0-2.67-.6L87.41,85.05a1.86,1.86,0,0,0-.57,2.61,1.91,1.91,0,0,0,1.12.82,1.94,1.94,0,0,0,1.55-.22L102.79,80A1.86,1.86,0,0,0,103.36,77.4Z"/>
          <path class="ba392ebc-3439-4e8e-ba57-abdc26f768dc" d="M113.39,71.17a2,2,0,0,0,1.12.82,1.93,1.93,0,0,0,1.55-.22l13.28-8.25a1.86,1.86,0,0,0,.58-2.61,2,2,0,0,0-2.67-.6L114,68.56A1.86,1.86,0,0,0,113.39,71.17Z"/>
          <path class="ba392ebc-3439-4e8e-ba57-abdc26f768dc" d="M74.14,93.3l-13.28,8.24a1.88,1.88,0,0,0-.58,2.62,2,2,0,0,0,1.12.81,2,2,0,0,0,1.56-.22l13.27-8.24a1.87,1.87,0,0,0,.58-2.62A2,2,0,0,0,74.14,93.3Z"/>
          <path class="ba392ebc-3439-4e8e-ba57-abdc26f768dc" d="M21,126.28l-6.5,4a1.87,1.87,0,0,0-.57,2.62,2,2,0,0,0,2.67.59l6.5-4a1.86,1.86,0,0,0,.57-2.61A2,2,0,0,0,21,126.28Z"/>
          <path class="ba392ebc-3439-4e8e-ba57-abdc26f768dc" d="M162.76,69.8l-6.08,4.61a1.9,1.9,0,0,0,.68,3.33,2,2,0,0,0,1.7-.31l6.08-4.62a1.87,1.87,0,0,0,.33-2.66A2,2,0,0,0,162.76,69.8Z"/>
          <path class="ba392ebc-3439-4e8e-ba57-abdc26f768dc" d="M131.69,95.78a2,2,0,0,0,1,.67,1.94,1.94,0,0,0,1.7-.32l12.33-9.35a1.87,1.87,0,0,0,.33-2.66,2,2,0,0,0-2.72-.36L132,93.12A1.87,1.87,0,0,0,131.69,95.78Z"/>
          <path class="ba392ebc-3439-4e8e-ba57-abdc26f768dc" d="M119.68,102.47l-12.32,9.35a1.87,1.87,0,0,0-.33,2.66,2,2,0,0,0,1,.67,1.92,1.92,0,0,0,1.69-.32l12.33-9.35a1.87,1.87,0,0,0,.33-2.66A2,2,0,0,0,119.68,102.47Z"/>
          <path class="ba392ebc-3439-4e8e-ba57-abdc26f768dc" d="M95,121.17,82.7,130.52a1.87,1.87,0,0,0-.33,2.66,1.91,1.91,0,0,0,1,.67,1.94,1.94,0,0,0,1.69-.31l12.33-9.36a1.87,1.87,0,0,0,.33-2.66A2,2,0,0,0,95,121.17Z"/>
          <path class="ba392ebc-3439-4e8e-ba57-abdc26f768dc" d="M73.08,140.23a2,2,0,0,0-2.71-.36L58,149.22a1.87,1.87,0,0,0-.33,2.66,2,2,0,0,0,1,.68,1.94,1.94,0,0,0,1.69-.32l12.33-9.35A1.87,1.87,0,0,0,73.08,140.23Z"/>
          <path class="ba392ebc-3439-4e8e-ba57-abdc26f768dc" d="M45.71,158.57l-6.08,4.62a1.87,1.87,0,0,0-.33,2.66,2,2,0,0,0,1,.67A1.91,1.91,0,0,0,42,166.2l6.09-4.61a1.88,1.88,0,0,0,.33-2.66A2,2,0,0,0,45.71,158.57Z"/>
          <path class="ba392ebc-3439-4e8e-ba57-abdc26f768dc" d="M172.47,79.68a2,2,0,0,0-2.73-.15l-5.72,5a1.9,1.9,0,0,0,.79,3.24,2,2,0,0,0,1.81-.4l5.72-5A1.87,1.87,0,0,0,172.47,79.68Z"/>
          <path class="ba392ebc-3439-4e8e-ba57-abdc26f768dc" d="M155.4,94.71a2,2,0,0,0-2.73-.16l-11.35,10a1.87,1.87,0,0,0-.13,2.68,2,2,0,0,0,.92.57,1.94,1.94,0,0,0,1.81-.41l11.35-10A1.87,1.87,0,0,0,155.4,94.71Z"/>
          <path class="ba392ebc-3439-4e8e-ba57-abdc26f768dc" d="M132.7,114.68a2,2,0,0,0-2.73-.16l-11.36,10a1.9,1.9,0,0,0,.8,3.24,1.93,1.93,0,0,0,1.8-.41l11.36-10A1.88,1.88,0,0,0,132.7,114.68Z"/>
          <path class="ba392ebc-3439-4e8e-ba57-abdc26f768dc" d="M110,134.65a2,2,0,0,0-2.73-.16l-11.35,10a1.88,1.88,0,0,0-.13,2.68,2,2,0,0,0,2.73.15l11.35-10A1.87,1.87,0,0,0,110,134.65Z"/>
          <path class="ba392ebc-3439-4e8e-ba57-abdc26f768dc" d="M87.29,154.62a2,2,0,0,0-2.73-.15l-11.35,10a1.87,1.87,0,0,0-.13,2.68,2,2,0,0,0,.93.57,2,2,0,0,0,1.8-.41l11.35-10A1.87,1.87,0,0,0,87.29,154.62Z"/>
          <path class="ba392ebc-3439-4e8e-ba57-abdc26f768dc" d="M64.59,174.6a2,2,0,0,0-2.73-.16l-5.72,5a1.9,1.9,0,0,0,.79,3.24,2,2,0,0,0,1.81-.41l5.72-5A1.86,1.86,0,0,0,64.59,174.6Z"/>
          <path class="b88c2730-11c4-4395-821a-e7d5075a6061" d="M268.21,154.75l-12.65,7.66c6.44,10.74,13,33.91,13,33.91l4.29-15.53Z"/>
        </g>
        <polygon class="b61aaddb-c18b-4b05-9b68-0c017b8c270c" points="195.42 80.95 184.04 82.87 144.02 29.83 148.16 17.98 195.42 80.95"/>
        <polygon class="bb8b13e1-37b5-4a6b-bcda-4595824c5b95" points="150.59 28.71 148.37 33.53 145.8 30.13 148.04 25.32 150.59 28.71"/>
        <path class="e87ec5bc-8334-4531-ac62-01cc890d7c99" d="M195.43,81a39.92,39.92,0,0,0,21.95-25.39c5.85-21.19-7-43.22-28.62-49.2A40.83,40.83,0,0,0,148.16,18h0l47.27,63Z"/>
        <path class="ff4bdf58-e847-4078-a901-eb8f922e4899" d="M155.94,23.51l.18.35c7.9-8.42,19.58-11.67,31.63-8.34,17.15,4.73,26.85,21.37,23.78,36.21h0c4.93-17.83-5.85-36.36-24.07-41.39a34.33,34.33,0,0,0-34.15,9.78h0l2.81,3.74"/>
        <polygon class="f3846122-f139-41a1-9812-f792bf60f871" points="268 154.42 255.2 162.14 245.2 146.13 258 138.41 268 154.42"/>
        <polygon class="bb8b13e1-37b5-4a6b-bcda-4595824c5b95" points="265.99 154.35 264.12 155.48 256.7 143.77 258.57 142.64 265.99 154.35"/>
        <path class="a3342830-c0cb-4f1d-98d1-fc9fbfdd6935" d="M258.1,138.43h0l-12.83,7.83h0l-50-65.33c10.3-4.74,19.82-14.09,22.71-28Z"/>
        <path class="fd213aaa-97b1-4403-9b39-2162c42d9c3a" d="M222.14,63.88l33.4,73.84h0l-2,1.21h0L219.23,70.15h0a24.35,24.35,0,0,0,2.91-6.27Z"/>
        <path class="b4a02e1c-5aa4-455d-a625-750784642caa" d="M133.8,46.17a2,2,0,0,1-1.2-.94,1.87,1.87,0,0,1,.79-2.56l6.8-3.53a2,2,0,0,1,2.62.8A1.87,1.87,0,0,1,142,42.5L135.22,46A2,2,0,0,1,133.8,46.17Z"/>
        <path class="b4a02e1c-5aa4-455d-a625-750784642caa" d="M26.78,101.65a1.91,1.91,0,0,1-1.2-.94,1.86,1.86,0,0,1,.79-2.56l13.37-6.94a2,2,0,0,1,2.62.8,1.87,1.87,0,0,1-.78,2.57L28.2,101.51A2,2,0,0,1,26.78,101.65ZM53.53,87.78a1.92,1.92,0,0,1-1.19-.94,1.86,1.86,0,0,1,.78-2.56L66.5,77.34a2,2,0,0,1,2.62.8,1.87,1.87,0,0,1-.79,2.56L55,87.64A2,2,0,0,1,53.53,87.78ZM80.29,73.91a1.91,1.91,0,0,1-1.2-.94,1.87,1.87,0,0,1,.79-2.56l13.37-6.94a2,2,0,0,1,2.62.8,1.86,1.86,0,0,1-.78,2.56L81.71,73.77A2,2,0,0,1,80.29,73.91ZM107,60a2,2,0,0,1-1.2-.94,1.87,1.87,0,0,1,.79-2.56L120,49.6a2,2,0,0,1,2.62.8,1.87,1.87,0,0,1-.79,2.56L108.46,59.9A2,2,0,0,1,107,60Z"/>
        <path class="b4a02e1c-5aa4-455d-a625-750784642caa" d="M6.6,112.12a2,2,0,0,1-1.2-1,1.87,1.87,0,0,1,.78-2.56L13,105.08a2,2,0,0,1,2.61.8,1.86,1.86,0,0,1-.78,2.56L8,112A2,2,0,0,1,6.6,112.12Z"/>
        <path class="b4a02e1c-5aa4-455d-a625-750784642caa" d="M149.36,67.17a1.94,1.94,0,0,1-1.06-.75,1.84,1.84,0,0,1,.45-2.63l6.3-4.33a2,2,0,0,1,2.69.47,1.86,1.86,0,0,1-.45,2.64L151,66.9A1.94,1.94,0,0,1,149.36,67.17Z"/>
        <path class="b4a02e1c-5aa4-455d-a625-750784642caa" d="M45.67,138.37a2,2,0,0,1-1.07-.75,1.87,1.87,0,0,1,.46-2.64l13-8.9a2,2,0,0,1,2.69.48,1.87,1.87,0,0,1-.46,2.64l-13,8.9A2,2,0,0,1,45.67,138.37Zm25.93-17.8a1.92,1.92,0,0,1-1.07-.75,1.85,1.85,0,0,1,.45-2.63l13-8.91a2,2,0,0,1,2.69.48,1.86,1.86,0,0,1-.45,2.64l-13,8.9A1.93,1.93,0,0,1,71.6,120.57Zm25.92-17.8a2,2,0,0,1-1.07-.74,1.86,1.86,0,0,1,.45-2.64l13-8.9a2,2,0,0,1,2.7.47,1.87,1.87,0,0,1-.46,2.64l-13,8.9A1.93,1.93,0,0,1,97.52,102.77ZM123.44,85a1.94,1.94,0,0,1-1.07-.74,1.86,1.86,0,0,1,.46-2.64l13-8.9a2,2,0,0,1,2.69.47A1.86,1.86,0,0,1,138,75.8l-13,8.9A1.94,1.94,0,0,1,123.44,85Z"/>
        <path class="b4a02e1c-5aa4-455d-a625-750784642caa" d="M26.41,151.6a2,2,0,0,1-1.07-.75,1.86,1.86,0,0,1,.45-2.64l6.3-4.32a2,2,0,0,1,2.7.47,1.87,1.87,0,0,1-.46,2.64L28,151.33A2,2,0,0,1,26.41,151.6Z"/>
        <path class="b4a02e1c-5aa4-455d-a625-750784642caa" d="M141.07,55.5a2,2,0,0,1-1.12-.82,1.86,1.86,0,0,1,.57-2.61l6.5-4a2,2,0,0,1,2.68.59,1.88,1.88,0,0,1-.58,2.62l-6.5,4A2,2,0,0,1,141.07,55.5Z"/>
        <path class="b4a02e1c-5aa4-455d-a625-750784642caa" d="M34.85,121.47a2,2,0,0,1-1.12-.82,1.87,1.87,0,0,1,.58-2.62l13.27-8.24a2,2,0,0,1,2.68.59,1.88,1.88,0,0,1-.58,2.62L36.4,121.24A1.94,1.94,0,0,1,34.85,121.47ZM61.4,105a2,2,0,0,1-1.12-.81,1.88,1.88,0,0,1,.58-2.62L74.14,93.3a2,2,0,0,1,2.67.59,1.87,1.87,0,0,1-.58,2.62L63,104.75A2,2,0,0,1,61.4,105ZM88,88.48a1.91,1.91,0,0,1-1.12-.82,1.86,1.86,0,0,1,.57-2.61l13.28-8.25a2,2,0,0,1,2.67.6,1.86,1.86,0,0,1-.57,2.61L89.51,88.26A1.94,1.94,0,0,1,88,88.48ZM114.51,72a2,2,0,0,1-1.12-.82,1.86,1.86,0,0,1,.58-2.61l13.28-8.25a2,2,0,0,1,2.67.6,1.86,1.86,0,0,1-.58,2.61l-13.28,8.25A1.93,1.93,0,0,1,114.51,72Z"/>
        <path class="b4a02e1c-5aa4-455d-a625-750784642caa" d="M15.08,133.75a1.93,1.93,0,0,1-1.12-.81,1.87,1.87,0,0,1,.57-2.62l6.5-4a2,2,0,0,1,2.67.6,1.86,1.86,0,0,1-.57,2.61l-6.5,4A1.94,1.94,0,0,1,15.08,133.75Z"/>
        <path class="b4a02e1c-5aa4-455d-a625-750784642caa" d="M157.36,77.74a1.9,1.9,0,0,1-.68-3.33l6.08-4.61a2,2,0,0,1,2.71.35,1.87,1.87,0,0,1-.33,2.66l-6.08,4.62A2,2,0,0,1,157.36,77.74Z"/>
        <path class="b4a02e1c-5aa4-455d-a625-750784642caa" d="M58.73,152.56a2,2,0,0,1-1-.68,1.87,1.87,0,0,1,.33-2.66l12.33-9.35a2,2,0,0,1,2.71.36,1.87,1.87,0,0,1-.33,2.66l-12.33,9.35A1.94,1.94,0,0,1,58.73,152.56Zm24.66-18.71a1.91,1.91,0,0,1-1-.67,1.87,1.87,0,0,1,.33-2.66L95,121.17a2,2,0,0,1,2.71.35,1.87,1.87,0,0,1-.33,2.66l-12.33,9.36A1.94,1.94,0,0,1,83.39,133.85Zm24.66-18.7a2,2,0,0,1-1-.67,1.87,1.87,0,0,1,.33-2.66l12.32-9.35a2,2,0,0,1,2.72.35,1.87,1.87,0,0,1-.33,2.66l-12.33,9.35A1.92,1.92,0,0,1,108.05,115.15Zm24.65-18.7a2,2,0,0,1-1-.67,1.87,1.87,0,0,1,.33-2.66l12.32-9.36a2,2,0,0,1,2.72.36,1.87,1.87,0,0,1-.33,2.66L134.4,96.13A1.94,1.94,0,0,1,132.7,96.45Z"/>
        <path class="b4a02e1c-5aa4-455d-a625-750784642caa" d="M40.32,166.52a2,2,0,0,1-1-.67,1.87,1.87,0,0,1,.33-2.66l6.08-4.62a2,2,0,0,1,2.72.36,1.88,1.88,0,0,1-.33,2.66L42,166.2A1.91,1.91,0,0,1,40.32,166.52Z"/>
        <path class="b4a02e1c-5aa4-455d-a625-750784642caa" d="M164.81,87.8a1.9,1.9,0,0,1-.79-3.24l5.72-5a2,2,0,0,1,2.73.15,1.87,1.87,0,0,1-.13,2.68l-5.72,5A2,2,0,0,1,164.81,87.8Z"/>
        <path class="b4a02e1c-5aa4-455d-a625-750784642caa" d="M74,167.7a2,2,0,0,1-.93-.57,1.87,1.87,0,0,1,.13-2.68l11.35-10a2,2,0,0,1,2.73.15,1.87,1.87,0,0,1-.13,2.68l-11.35,10A2,2,0,0,1,74,167.7Zm22.7-20a1.92,1.92,0,0,1-.93-.56,1.88,1.88,0,0,1,.13-2.68l11.35-10a2,2,0,0,1,2.73.16,1.87,1.87,0,0,1-.13,2.68l-11.35,10A1.93,1.93,0,0,1,96.71,147.72Zm22.7-20a1.9,1.9,0,0,1-.8-3.24l11.36-10a2,2,0,0,1,2.73.16,1.88,1.88,0,0,1-.13,2.68l-11.36,10A1.93,1.93,0,0,1,119.41,127.75Zm22.7-20a2,2,0,0,1-.92-.57,1.87,1.87,0,0,1,.13-2.68l11.35-10a2,2,0,0,1,2.73.16,1.87,1.87,0,0,1-.13,2.67l-11.35,10A2,2,0,0,1,142.11,107.78Z"/>
        <path class="b4a02e1c-5aa4-455d-a625-750784642caa" d="M56.93,182.72a1.9,1.9,0,0,1-.79-3.24l5.72-5a2,2,0,0,1,2.73.16,1.86,1.86,0,0,1-.13,2.67l-5.72,5A2,2,0,0,1,56.93,182.72Z"/>
      </g>
    </g>
  </g>
  <g id="a8deb527-cf5d-49ee-874a-b0f62301b39f" data-name="Layer 12">
    <g>
      <g class="ecc24485-0237-4dba-85a8-5d02ce2e41ae">
        <g>
          <g>
            <g>
              <path class="bd49f0a9-8912-4831-b762-38cb65b06e62" d="M7.94,99.86a1.89,1.89,0,0,0,.53-.27H6.26a1.86,1.86,0,0,0,1.1.36A2,2,0,0,0,7.94,99.86Z"/>
              <path class="bd49f0a9-8912-4831-b762-38cb65b06e62" d="M5,114.65a1.88,1.88,0,0,0-2.62.22l-.1.12a1.79,1.79,0,0,0,.19,2.57A1.9,1.9,0,0,0,3.7,118a1.87,1.87,0,0,0,1.41-.63c0-.05.09-.1.13-.16A1.78,1.78,0,0,0,5,114.65Z"/>
              <path class="bd49f0a9-8912-4831-b762-38cb65b06e62" d="M7.81,108.7a1.88,1.88,0,0,0-2.39,1.08l-.06.16a1.8,1.8,0,0,0,1.09,2.34,1.82,1.82,0,0,0,.65.12,1.86,1.86,0,0,0,1.74-1.18c0-.06.05-.12.07-.19A1.8,1.8,0,0,0,7.81,108.7Z"/>
              <path class="bd49f0a9-8912-4831-b762-38cb65b06e62" d="M8.32,102.17A1.84,1.84,0,0,0,6.46,104v.17A1.84,1.84,0,0,0,8.3,106h0a1.84,1.84,0,0,0,1.86-1.8V104A1.84,1.84,0,0,0,8.32,102.17Z"/>
              <path class="bd49f0a9-8912-4831-b762-38cb65b06e62" d="M-2.21,118.64l-.15.08a1.8,1.8,0,0,0-.71,2.47,1.85,1.85,0,0,0,1.62.93,1.86,1.86,0,0,0,.91-.23l.18-.1a1.79,1.79,0,0,0,.68-2.48A1.87,1.87,0,0,0-2.21,118.64Z"/>
            </g>
            <g>
              <path class="bd49f0a9-8912-4831-b762-38cb65b06e62" d="M1,100.17a1.33,1.33,0,0,0,1.27.9,1.23,1.23,0,0,0,.42-.07,1.3,1.3,0,0,0,.91-1.41H.93a1.58,1.58,0,0,0,.07.47S1,100.13,1,100.17Z"/>
              <path class="bd49f0a9-8912-4831-b762-38cb65b06e62" d="M2.63,107.39a1.35,1.35,0,0,0-1.72.78l0,.11A1.3,1.3,0,0,0,1.65,110a1.36,1.36,0,0,0,.48.09,1.34,1.34,0,0,0,1.25-.85.78.78,0,0,0,.05-.14A1.29,1.29,0,0,0,2.63,107.39Z"/>
              <path class="bd49f0a9-8912-4831-b762-38cb65b06e62" d="M-1.27,111.84l-.07.09a1.29,1.29,0,0,0,.13,1.85,1.4,1.4,0,0,0,.88.32,1.37,1.37,0,0,0,1-.46l.1-.11a1.3,1.3,0,0,0-.17-1.85A1.35,1.35,0,0,0-1.27,111.84Z"/>
              <path class="bd49f0a9-8912-4831-b762-38cb65b06e62" d="M3,102.68A1.33,1.33,0,0,0,1.66,104v.12A1.33,1.33,0,0,0,3,105.43H3a1.33,1.33,0,0,0,1.34-1.3V104A1.32,1.32,0,0,0,3,102.68Z"/>
              <path class="bd49f0a9-8912-4831-b762-38cb65b06e62" d="M1.81,110.16a1.73,1.73,0,0,0,.32,0v-.27a1.15,1.15,0,0,1-.26,0Z"/>
              <path class="bd49f0a9-8912-4831-b762-38cb65b06e62" d="M2,101.18a1.63,1.63,0,0,0,.31,0v-.28l-.25,0Z"/>
              <path class="bd49f0a9-8912-4831-b762-38cb65b06e62" d="M2.75,105.27l-.06.27a1.53,1.53,0,0,0,.3,0H3v-.28Z"/>
              <path class="bd49f0a9-8912-4831-b762-38cb65b06e62" d="M-.64,114.2a1.1,1.1,0,0,0,.31,0V114a1.07,1.07,0,0,1-.25,0Z"/>
            </g>
          </g>
          <g>
            <path class="bd49f0a9-8912-4831-b762-38cb65b06e62" d="M68.93,161.32a1.81,1.81,0,0,1-.29-3.61l.16,0A1.86,1.86,0,0,1,71,159.17a1.83,1.83,0,0,1-1.52,2.1l-.2,0A1.51,1.51,0,0,1,68.93,161.32Zm-6.47-.06a1.84,1.84,0,0,1-.33,0l-.21,0a1.83,1.83,0,0,1-1.47-2.13,1.86,1.86,0,0,1,2.18-1.44l.16,0a1.83,1.83,0,0,1,1.5,2.11A1.85,1.85,0,0,1,62.46,161.26Zm12.76-2.08a1.85,1.85,0,0,1-1.62-.93,1.78,1.78,0,0,1,.71-2.47l.14-.08a1.88,1.88,0,0,1,2.54.67,1.79,1.79,0,0,1-.68,2.48l-.18.1A1.86,1.86,0,0,1,75.22,159.18Zm-19-.19a1.87,1.87,0,0,1-.94-.25l-.18-.1a1.8,1.8,0,0,1-.63-2.5,1.88,1.88,0,0,1,2.55-.62l.14.08a1.8,1.8,0,0,1,.66,2.49A1.87,1.87,0,0,1,56.22,159Zm24.15-3.93a1.9,1.9,0,0,1-1.22-.45,1.79,1.79,0,0,1-.19-2.56l.11-.12a1.88,1.88,0,0,1,2.62-.22,1.79,1.79,0,0,1,.22,2.56l-.13.16A1.91,1.91,0,0,1,80.37,155.06Zm-29.22-.3a1.86,1.86,0,0,1-1.43-.66l-.13-.15a1.8,1.8,0,0,1,.28-2.56,1.88,1.88,0,0,1,2.61.27l.11.13a1.8,1.8,0,0,1-.25,2.56A1.89,1.89,0,0,1,51.15,154.76Zm32.62-5.3a1.92,1.92,0,0,1-.66-.12A1.8,1.8,0,0,1,82,147l.06-.16a1.86,1.86,0,0,1,2.38-1.08,1.8,1.8,0,0,1,1.11,2.33l-.07.19A1.86,1.86,0,0,1,83.77,149.46Zm-35.9-.37a1.85,1.85,0,0,1-1.75-1.21,1.46,1.46,0,0,0-.07-.19,1.82,1.82,0,0,1,1.16-2.31,1.88,1.88,0,0,1,2.36,1.14l.06.15A1.82,1.82,0,0,1,48.49,149,1.87,1.87,0,0,1,47.87,149.09Zm37.12-6h0a1.84,1.84,0,0,1-1.84-1.83v-.17a1.86,1.86,0,0,1,3.72,0v.2A1.84,1.84,0,0,1,85,143.05Zm-38.2-.38h0a1.84,1.84,0,0,1-1.84-1.84v-.2a1.84,1.84,0,0,1,1.86-1.78h0a1.83,1.83,0,0,1,1.82,1.85v.17A1.84,1.84,0,0,1,46.79,142.67ZM84,137a1.87,1.87,0,0,1-1.77-1.26.88.88,0,0,0-.05-.15,1.82,1.82,0,0,1,1.16-2.31,1.88,1.88,0,0,1,2.36,1.14l.07.19a1.82,1.82,0,0,1-1.19,2.3A2,2,0,0,1,84,137Zm-36-.74a1.87,1.87,0,0,1-.65-.12,1.81,1.81,0,0,1-1.08-2.35,1.34,1.34,0,0,1,.07-.18,1.88,1.88,0,0,1,2.41-1,1.8,1.8,0,0,1,1.05,2.35l-.06.16A1.85,1.85,0,0,1,48,136.27Zm32.86-5a1.86,1.86,0,0,1-1.46-.69l-.1-.12a1.79,1.79,0,0,1,.28-2.56,1.89,1.89,0,0,1,2.61.27l.13.16a1.79,1.79,0,0,1-.31,2.55A1.82,1.82,0,0,1,80.87,131.27Zm-29.45-.6a1.9,1.9,0,0,1-1.21-.44,1.8,1.8,0,0,1-.2-2.57l.14-.15a1.87,1.87,0,0,1,2.62-.16,1.79,1.79,0,0,1,.17,2.57l-.11.12A1.91,1.91,0,0,1,51.42,130.67ZM75.89,127a1.9,1.9,0,0,1-1-.27l-.14-.09a1.8,1.8,0,0,1-.64-2.5,1.89,1.89,0,0,1,2.55-.62l.18.11a1.79,1.79,0,0,1,.61,2.5A1.87,1.87,0,0,1,75.89,127Zm-19.31-.4a1.89,1.89,0,0,1-1.63-.93,1.8,1.8,0,0,1,.72-2.48l.17-.09a1.88,1.88,0,0,1,2.53.72,1.81,1.81,0,0,1-.74,2.47l-.15.08A1.91,1.91,0,0,1,56.58,126.55Zm13.12-2-.37,0-.16,0a1.83,1.83,0,0,1-1.48-2.13,1.87,1.87,0,0,1,2.18-1.44l.2,0a1.81,1.81,0,0,1,1.45,2.15A1.84,1.84,0,0,1,69.7,124.55Zm-6.84-.14a1.81,1.81,0,0,1-.29-3.61l.21,0a1.85,1.85,0,0,1,2.11,1.53,1.83,1.83,0,0,1-1.57,2.07l-.16,0A1.51,1.51,0,0,1,62.86,124.41Z"/>
            <g>
              <path class="bd49f0a9-8912-4831-b762-38cb65b06e62" d="M68.08,155.68a1.34,1.34,0,0,1-1.32-1.11,1.31,1.31,0,0,1,1.11-1.5l.12,0a1.34,1.34,0,0,1,1.55,1.07,1.32,1.32,0,0,1-1.1,1.52l-.14,0Zm-4.66-.05-.25,0-.14,0A1.32,1.32,0,0,1,62,154a1.36,1.36,0,0,1,1.58-1l.11,0a1.3,1.3,0,0,1,1.08,1.52A1.32,1.32,0,0,1,63.42,155.63Zm9.2-1.5a1.35,1.35,0,0,1-1.17-.67,1.3,1.3,0,0,1,.52-1.79l.1,0a1.35,1.35,0,0,1,1.83.48,1.29,1.29,0,0,1-.49,1.79l-.13.07A1.3,1.3,0,0,1,72.62,154.13ZM58.91,154a1.38,1.38,0,0,1-.68-.18l-.13-.07a1.3,1.3,0,0,1-.46-1.8,1.37,1.37,0,0,1,1.85-.45l.1.06a1.3,1.3,0,0,1,.48,1.8A1.36,1.36,0,0,1,58.91,154Zm17.43-2.84a1.35,1.35,0,0,1-.88-.32,1.3,1.3,0,0,1-.14-1.85l.08-.08a1.35,1.35,0,0,1,1.89-.16,1.29,1.29,0,0,1,.16,1.85l-.1.11A1.32,1.32,0,0,1,76.34,151.15Zm-21.08-.21a1.35,1.35,0,0,1-1-.48l-.09-.11a1.28,1.28,0,0,1,.2-1.84,1.35,1.35,0,0,1,1.88.19l.08.09a1.3,1.3,0,0,1-.18,1.85A1.36,1.36,0,0,1,55.26,150.94Zm23.53-3.83a1.33,1.33,0,0,1-.47-.08,1.31,1.31,0,0,1-.78-1.69l0-.12a1.35,1.35,0,0,1,1.72-.78,1.31,1.31,0,0,1,.8,1.69s0,.09,0,.13A1.33,1.33,0,0,1,78.79,147.11Zm-25.9-.26a1.34,1.34,0,0,1-1.27-.87.58.58,0,0,0,0-.14,1.31,1.31,0,0,1,.84-1.67,1.35,1.35,0,0,1,1.7.82.49.49,0,0,1,0,.11,1.32,1.32,0,0,1-.81,1.68A1.41,1.41,0,0,1,52.89,146.85Zm26.78-4.36h0a1.33,1.33,0,0,1-1.33-1.32v-.12a1.35,1.35,0,0,1,2.69,0v.14A1.32,1.32,0,0,1,79.67,142.49Zm-27.56-.28h0a1.32,1.32,0,0,1-1.33-1.32v-.15a1.32,1.32,0,0,1,1.34-1.28h0a1.32,1.32,0,0,1,1.32,1.34v.12A1.32,1.32,0,0,1,52.11,142.21ZM79,138.13a1.33,1.33,0,0,1-1.27-.91l0-.11a1.3,1.3,0,0,1,.84-1.66,1.34,1.34,0,0,1,1.7.82s0,.09.05.14a1.3,1.3,0,0,1-.86,1.65A1.23,1.23,0,0,1,79,138.13Zm-26-.54a1.26,1.26,0,0,1-.47-.08,1.31,1.31,0,0,1-.79-1.69l.06-.14a1.35,1.35,0,0,1,1.73-.75,1.31,1.31,0,0,1,.77,1.7l0,.11A1.33,1.33,0,0,1,53,137.59ZM76.7,134a1.34,1.34,0,0,1-1-.5l-.08-.09a1.31,1.31,0,0,1,.2-1.85,1.37,1.37,0,0,1,1.89.2l.09.11a1.3,1.3,0,0,1-.22,1.85A1.34,1.34,0,0,1,76.7,134Zm-21.25-.44a1.33,1.33,0,0,1-.88-.32,1.3,1.3,0,0,1-.14-1.85l.1-.11a1.36,1.36,0,0,1,1.89-.11,1.29,1.29,0,0,1,.12,1.85l-.08.09A1.34,1.34,0,0,1,55.45,133.55Zm17.66-2.68a1.38,1.38,0,0,1-.7-.2l-.11-.06a1.29,1.29,0,0,1-.45-1.8,1.36,1.36,0,0,1,1.84-.45l.12.08a1.29,1.29,0,0,1,.44,1.8A1.33,1.33,0,0,1,73.11,130.87Zm-13.94-.29a1.33,1.33,0,0,1-1.17-.67,1.3,1.3,0,0,1,.51-1.79l.13-.07a1.36,1.36,0,0,1,1.82.52,1.29,1.29,0,0,1-.53,1.78l-.11.06A1.26,1.26,0,0,1,59.17,130.58Zm9.47-1.44-.27,0-.11,0a1.32,1.32,0,0,1-1.07-1.54,1.34,1.34,0,0,1,1.57-1l.15,0a1.33,1.33,0,0,1,1,1.55A1.34,1.34,0,0,1,68.64,129.14ZM63.7,129a1.34,1.34,0,0,1-1.32-1.11,1.31,1.31,0,0,1,1.12-1.5l.14,0a1.34,1.34,0,0,1,1.53,1.1A1.32,1.32,0,0,1,64,129l-.11,0Z"/>
              <path class="bd49f0a9-8912-4831-b762-38cb65b06e62" d="M68.08,155.82a1.65,1.65,0,0,1-.31,0l.06-.27a1.07,1.07,0,0,0,.25,0Zm-4.66,0-.27,0v-.28h0a.78.78,0,0,0,.22,0Zm9.2-1.5a1.63,1.63,0,0,1-.31,0l.06-.27.25,0Zm-13.71-.14a1.55,1.55,0,0,1-.31,0l.06-.27a1,1,0,0,0,.25,0Zm17.43-2.84a1.55,1.55,0,0,1-.31,0l.06-.27a1,1,0,0,0,.25,0Zm-21.08-.21a1.73,1.73,0,0,1-.32,0l.06-.27.26,0Zm23.53-3.83a1.63,1.63,0,0,1-.31,0l.06-.27a1.06,1.06,0,0,0,.25,0ZM52.89,147a1.55,1.55,0,0,1-.31,0l.06-.27.25,0Zm26.78-4.36h0a1.53,1.53,0,0,1-.3,0l.06-.27.24,0Zm-27.56-.28h0a1.53,1.53,0,0,1-.3,0l.06-.27.24,0ZM79,138.27a1.1,1.1,0,0,1-.31,0l.06-.27a1.07,1.07,0,0,0,.25,0Zm-26-.54a1.55,1.55,0,0,1-.31,0l.06-.27a1,1,0,0,0,.25,0Zm23.71-3.6a1.63,1.63,0,0,1-.31,0l.06-.27.25,0Zm-21.25-.44a1.55,1.55,0,0,1-.31,0l.06-.27a1,1,0,0,0,.25,0ZM73.11,131a1.55,1.55,0,0,1-.31,0l.06-.27a1,1,0,0,0,.25,0Zm-13.94-.29a1.55,1.55,0,0,1-.31,0l.06-.28a1,1,0,0,0,.25,0Zm9.47-1.44a1.36,1.36,0,0,1-.29,0l0-.28.25,0Zm-4.94-.1-.31,0,.06-.28.25,0Z"/>
            </g>
            <path class="bd49f0a9-8912-4831-b762-38cb65b06e62" d="M66.34,144.05a.28.28,0,0,1-.27-.23.27.27,0,0,1,.23-.31h0a.27.27,0,0,1,.32.22.26.26,0,0,1-.22.31h-.08Zm-1,0H65.3a.27.27,0,0,1-.22-.32.28.28,0,0,1,.32-.21h0a.27.27,0,0,1,.22.32A.27.27,0,0,1,65.38,144Zm1.9-.31a.3.3,0,0,1-.25-.14.27.27,0,0,1,.11-.36l0,0a.29.29,0,0,1,.38.1.27.27,0,0,1-.1.37l0,0A.31.31,0,0,1,67.28,143.73Zm-2.83,0a.35.35,0,0,1-.14,0l0,0a.27.27,0,0,1-.1-.37.28.28,0,0,1,.38-.09h0a.27.27,0,0,1,.1.37A.26.26,0,0,1,64.45,143.7Zm3.59-.58a.26.26,0,0,1-.18-.07.26.26,0,0,1,0-.38l0,0a.28.28,0,0,1,.39,0,.27.27,0,0,1,0,.38l0,0A.25.25,0,0,1,68,143.12Zm-4.34-.05a.27.27,0,0,1-.21-.09l0,0a.26.26,0,0,1,0-.38.29.29,0,0,1,.39,0v0a.27.27,0,0,1,0,.38A.32.32,0,0,1,63.7,143.07Zm4.85-.78-.1,0a.27.27,0,0,1-.16-.35v0a.27.27,0,0,1,.35-.16.27.27,0,0,1,.17.34l0,0A.27.27,0,0,1,68.55,142.29Zm-5.34-.06a.28.28,0,0,1-.26-.18v0a.27.27,0,0,1,.17-.34.27.27,0,0,1,.35.17v0a.27.27,0,0,1-.17.35Zm5.52-.9h0a.27.27,0,0,1-.27-.27v0a.28.28,0,0,1,.55,0v0A.26.26,0,0,1,68.73,141.33Zm-5.68-.05h0a.27.27,0,0,1-.27-.28v0a.27.27,0,0,1,.27-.26h0a.28.28,0,0,1,.27.28v0A.28.28,0,0,1,63.05,141.28Zm5.53-.84a.29.29,0,0,1-.26-.19v0a.29.29,0,0,1,.18-.35.29.29,0,0,1,.35.17v0a.27.27,0,0,1-.18.34Zm-5.35-.11-.09,0A.27.27,0,0,1,63,140l0,0a.27.27,0,0,1,.51.2v0A.28.28,0,0,1,63.23,140.33Zm4.89-.75a.26.26,0,0,1-.22-.1l0,0a.28.28,0,0,1,0-.38.29.29,0,0,1,.39,0l0,0a.26.26,0,0,1-.21.43Zm-4.38-.09a.3.3,0,0,1-.18-.06.26.26,0,0,1,0-.38l0,0a.28.28,0,0,1,.39,0,.26.26,0,0,1,0,.38v0A.29.29,0,0,1,63.74,139.49Zm3.64-.55a.28.28,0,0,1-.15,0h0a.27.27,0,1,1,.28-.46h0a.27.27,0,0,1,.09.37A.26.26,0,0,1,67.38,138.94Zm-2.87-.06a.3.3,0,0,1-.25-.14.27.27,0,0,1,.11-.36l0,0a.28.28,0,0,1,.37.11.26.26,0,0,1-.11.37h0A.31.31,0,0,1,64.51,138.88Zm1.95-.29h-.08a.27.27,0,0,1-.22-.32.28.28,0,0,1,.32-.22h0a.27.27,0,0,1,.22.32A.29.29,0,0,1,66.46,138.59Zm-1,0a.28.28,0,0,1-.27-.23.27.27,0,0,1,.23-.31h0a.27.27,0,0,1,.08.54h-.07Z"/>
            <path class="bd49f0a9-8912-4831-b762-38cb65b06e62" d="M66.75,146.76a.51.51,0,0,1-.08-1h0a.52.52,0,0,1,.61.42.52.52,0,0,1-.43.59h-.14Zm-1.83,0h-.15a.51.51,0,1,1,.2-1h0a.52.52,0,0,1,.43.59A.53.53,0,0,1,64.92,146.75Zm3.6-.59a.5.5,0,0,1-.45-.26.5.5,0,0,1,.2-.7l0,0a.52.52,0,0,1,.71.18.51.51,0,0,1-.19.71l0,0A.48.48,0,0,1,68.52,146.16Zm-5.36,0a.56.56,0,0,1-.27-.08l0,0a.51.51,0,0,1-.18-.71.53.53,0,0,1,.72-.17l0,0a.5.5,0,0,1,.19.7A.52.52,0,0,1,63.16,146.11ZM70,145a.53.53,0,0,1-.34-.13.5.5,0,0,1-.06-.72l0,0a.53.53,0,0,1,.74-.06.5.5,0,0,1,.06.72l0,0A.57.57,0,0,1,70,145Zm-8.25-.09a.53.53,0,0,1-.41-.19l0,0a.5.5,0,0,1,.07-.72.52.52,0,0,1,.74.08l0,0a.49.49,0,0,1-.07.72A.52.52,0,0,1,61.73,144.91Zm9.21-1.5a.63.63,0,0,1-.19,0,.51.51,0,0,1-.3-.66v-.05a.54.54,0,0,1,.68-.3.51.51,0,0,1,.31.66l0,.05A.52.52,0,0,1,70.94,143.41Zm-10.14-.1a.52.52,0,0,1-.49-.34l0-.06a.51.51,0,0,1,.32-.65.53.53,0,0,1,.67.32l0,0a.51.51,0,0,1-.32.65A.57.57,0,0,1,60.8,143.31Zm10.48-1.71h0a.51.51,0,0,1-.52-.51V141a.51.51,0,0,1,.52-.51.52.52,0,0,1,.53.51v.06A.51.51,0,0,1,71.28,141.6Zm-10.78-.1h0A.53.53,0,0,1,60,141v-.06a.52.52,0,0,1,.53-.5h0a.51.51,0,0,1,.51.52V141A.52.52,0,0,1,60.5,141.5ZM71,139.9a.53.53,0,0,1-.5-.36v0a.51.51,0,0,1,.33-.65.52.52,0,0,1,.66.32l0,.05a.52.52,0,0,1-.33.65A.51.51,0,0,1,71,139.9Zm-10.17-.21a.39.39,0,0,1-.18,0,.5.5,0,0,1-.31-.66l0-.05a.53.53,0,0,1,.68-.29.51.51,0,0,1,.3.66l0,.05A.53.53,0,0,1,60.84,139.69Zm9.28-1.41a.53.53,0,0,1-.41-.2l0,0a.51.51,0,0,1,.08-.73.55.55,0,0,1,.74.08l0,0a.51.51,0,0,1-.08.72A.59.59,0,0,1,70.12,138.28Zm-8.32-.17a.52.52,0,0,1-.39-.85l0,0a.53.53,0,0,1,.74,0,.5.5,0,0,1,0,.72l0,0A.52.52,0,0,1,61.8,138.11Zm6.91-1.05a.56.56,0,0,1-.27-.08l0,0a.51.51,0,0,1-.18-.71.53.53,0,0,1,.72-.17l0,0a.51.51,0,0,1,.17.71A.53.53,0,0,1,68.71,137.06Zm-5.45-.12a.53.53,0,0,1-.46-.26.51.51,0,0,1,.2-.7l0,0a.55.55,0,0,1,.72.21.52.52,0,0,1-.21.7l0,0A.62.62,0,0,1,63.26,136.94Zm3.71-.56h-.15a.51.51,0,0,1-.42-.6.52.52,0,0,1,.61-.41h.06a.51.51,0,0,1,.41.61A.52.52,0,0,1,67,136.38Zm-1.94,0a.51.51,0,0,1-.08-1H65a.52.52,0,1,1,.15,1H65Z"/>
            <path class="bd49f0a9-8912-4831-b762-38cb65b06e62" d="M67.33,150.64a.87.87,0,0,1-.87-.72.86.86,0,0,1,.73-1h.08a.86.86,0,1,1,.29,1.7h-.23Zm-3.06,0h-.16l-.1,0a.86.86,0,0,1-.7-1,.89.89,0,0,1,1-.68h.07a.87.87,0,0,1,.71,1A.88.88,0,0,1,64.27,150.61Zm6-1a.89.89,0,0,1-.77-.44.85.85,0,0,1,.34-1.18l.06,0a.9.9,0,0,1,1.21.31.86.86,0,0,1-.33,1.18l-.08.05A1,1,0,0,1,70.31,149.63Zm-9-.09a.92.92,0,0,1-.45-.12l-.08,0a.85.85,0,0,1-.3-1.18.9.9,0,0,1,1.21-.3l.07,0a.85.85,0,0,1,.31,1.18A.91.91,0,0,1,61.31,149.54Zm11.44-1.87a.85.85,0,0,1-.58-.21.84.84,0,0,1-.09-1.21l0-.06a.89.89,0,0,1,1.24-.1.85.85,0,0,1,.11,1.21l-.07.08A.89.89,0,0,1,72.75,147.67Zm-13.84-.14a.89.89,0,0,1-.68-.31l-.06-.07a.85.85,0,0,1,.13-1.21.9.9,0,0,1,1.24.13l.05.06a.84.84,0,0,1-.12,1.21A.88.88,0,0,1,58.91,147.53ZM74.36,145a1.06,1.06,0,0,1-.31-.05.86.86,0,0,1-.52-1.11l0-.08a.89.89,0,0,1,1.13-.51.86.86,0,0,1,.52,1.11l0,.09A.88.88,0,0,1,74.36,145Zm-17-.17a.89.89,0,0,1-.83-.57l0-.09a.87.87,0,0,1,.55-1.1.88.88,0,0,1,1.11.54l0,.07a.86.86,0,0,1-.54,1.1A.71.71,0,0,1,57.36,144.85ZM74.93,142h0a.87.87,0,0,1-.88-.87V141a.88.88,0,0,1,1.76,0v.1A.86.86,0,0,1,74.93,142Zm-18.08-.18h0a.87.87,0,0,1-.87-.87v-.1a.87.87,0,0,1,.88-.84h0a.87.87,0,0,1,.87.88V141A.88.88,0,0,1,56.85,141.81Zm17.63-2.68a.88.88,0,0,1-.84-.6l0-.07a.85.85,0,0,1,.55-1.09.88.88,0,0,1,1.11.54.36.36,0,0,1,0,.09.85.85,0,0,1-.57,1.08A.86.86,0,0,1,74.48,139.13Zm-17.05-.35a.91.91,0,0,1-.32-.06.86.86,0,0,1-.51-1.11l0-.09a.89.89,0,0,1,1.14-.49.86.86,0,0,1,.5,1.12l0,.07A.89.89,0,0,1,57.43,138.78ZM73,136.41a.9.9,0,0,1-.69-.32l-.05-.06a.87.87,0,0,1,.13-1.22.9.9,0,0,1,1.24.13l.06.08a.85.85,0,0,1-.14,1.21A.93.93,0,0,1,73,136.41ZM59,136.13a.9.9,0,0,1-.58-.21.86.86,0,0,1-.09-1.22l.07-.07a.89.89,0,0,1,1.24-.08.86.86,0,0,1,.08,1.22l-.06.06A.91.91,0,0,1,59,136.13Zm11.59-1.77a.93.93,0,0,1-.46-.12l-.07,0a.86.86,0,0,1-.3-1.19.89.89,0,0,1,1.21-.29l.08.05a.85.85,0,0,1,.29,1.18A.88.88,0,0,1,70.63,134.36Zm-9.15-.18a.87.87,0,0,1-.77-.45.85.85,0,0,1,.34-1.17l.08,0a.89.89,0,0,1,1.2.34A.85.85,0,0,1,62,134l-.07,0A1,1,0,0,1,61.48,134.18Zm6.22-1-.18,0h-.08a.86.86,0,0,1-.7-1,.88.88,0,0,1,1-.68l.1,0a.86.86,0,0,1,.69,1A.88.88,0,0,1,67.7,133.23Zm-3.24-.07a.86.86,0,0,1-.14-1.71h.1a.87.87,0,0,1,1,.72.86.86,0,0,1-.74,1h-.21Z"/>
          </g>
          <g>
            <path class="bd49f0a9-8912-4831-b762-38cb65b06e62" d="M16.51,158.67a1.66,1.66,0,0,1-1.65-1.38,1.63,1.63,0,0,1,1.38-1.87l.15,0a1.67,1.67,0,0,1,1.93,1.34A1.64,1.64,0,0,1,17,158.62l-.18,0Zm-5.83-.06-.3,0-.18,0a1.64,1.64,0,0,1-1.33-1.91,1.68,1.68,0,0,1,2-1.3l.15,0a1.64,1.64,0,0,1,1.35,1.9A1.66,1.66,0,0,1,10.68,158.61Zm11.49-1.87a1.67,1.67,0,0,1-1.46-.83,1.61,1.61,0,0,1,.64-2.23l.13-.07a1.69,1.69,0,0,1,2.28.6,1.63,1.63,0,0,1-.62,2.24l-.16.09A1.7,1.7,0,0,1,22.17,156.74Zm-17.11-.17a1.7,1.7,0,0,1-.84-.22l-.16-.1A1.61,1.61,0,0,1,3.49,154a1.68,1.68,0,0,1,2.29-.56l.13.07a1.62,1.62,0,0,1,.6,2.24A1.68,1.68,0,0,1,5.06,156.57ZM26.8,153a1.65,1.65,0,0,1-1.09-.4,1.61,1.61,0,0,1-.17-2.31l.09-.1A1.7,1.7,0,0,1,28,150a1.63,1.63,0,0,1,.2,2.31l-.12.14A1.7,1.7,0,0,1,26.8,153ZM.51,152.77a1.7,1.7,0,0,1-1.29-.6L-.9,152a1.61,1.61,0,0,1,.25-2.3A1.7,1.7,0,0,1,1.7,150l.1.12a1.61,1.61,0,0,1-.23,2.3A1.7,1.7,0,0,1,.51,152.77ZM29.86,148a1.7,1.7,0,0,1-.59-.1,1.64,1.64,0,0,1-1-2.11l.06-.14a1.68,1.68,0,0,1,2.14-1,1.63,1.63,0,0,1,1,2.1l-.06.17A1.68,1.68,0,0,1,29.86,148Zm-32.31-.32A1.67,1.67,0,0,1-4,146.58l-.06-.18a1.64,1.64,0,0,1,1-2.08,1.68,1.68,0,0,1,2.12,1s0,.09.05.13a1.63,1.63,0,0,1-1,2.09A1.54,1.54,0,0,1-2.45,147.67ZM31,142.23h0a1.67,1.67,0,0,1-1.66-1.65v-.15a1.67,1.67,0,0,1,3.34,0v.17A1.66,1.66,0,0,1,31,142.23Zm-34.38-.35h0a1.65,1.65,0,0,1-1.65-1.65v-.18a1.66,1.66,0,0,1,1.67-1.61h0a1.64,1.64,0,0,1,1.63,1.67v.14A1.66,1.66,0,0,1-3.42,141.88Zm33.52-5.09a1.67,1.67,0,0,1-1.59-1.13.78.78,0,0,1-.05-.14,1.64,1.64,0,0,1,1-2.08,1.69,1.69,0,0,1,2.13,1l.06.17a1.65,1.65,0,0,1-1.07,2.07A1.93,1.93,0,0,1,30.1,136.79Zm-32.42-.67a1.58,1.58,0,0,1-.59-.11,1.62,1.62,0,0,1-1-2.11l.06-.16a1.7,1.7,0,0,1,2.17-.94,1.62,1.62,0,0,1,1,2.12l-.05.14A1.68,1.68,0,0,1-2.32,136.12Zm29.57-4.49a1.68,1.68,0,0,1-1.31-.62l-.1-.12a1.61,1.61,0,0,1,.26-2.3,1.7,1.7,0,0,1,2.35.24l.11.14a1.61,1.61,0,0,1-.27,2.3A1.68,1.68,0,0,1,27.25,131.63Zm-26.5-.55a1.7,1.7,0,0,1-1.1-.4,1.6,1.6,0,0,1-.17-2.3l.12-.14A1.7,1.7,0,0,1,2,128.09a1.61,1.61,0,0,1,.15,2.31.52.52,0,0,1-.1.11A1.65,1.65,0,0,1,.75,131.08Zm22-3.35a1.7,1.7,0,0,1-.87-.24l-.13-.08a1.61,1.61,0,0,1-.57-2.24,1.68,1.68,0,0,1,2.29-.56l.16.09A1.62,1.62,0,0,1,24.2,127,1.68,1.68,0,0,1,22.77,127.73Zm-17.38-.36a1.67,1.67,0,0,1-1.46-.83,1.62,1.62,0,0,1,.64-2.23l.16-.09a1.7,1.7,0,0,1,2.27.65,1.62,1.62,0,0,1-.66,2.22l-.14.08A1.68,1.68,0,0,1,5.39,127.37Zm11.81-1.79a1.84,1.84,0,0,1-.33,0l-.15,0a1.64,1.64,0,0,1-1.33-1.92,1.67,1.67,0,0,1,2-1.3l.18,0a1.64,1.64,0,0,1,1.31,1.93A1.67,1.67,0,0,1,17.2,125.58ZM11,125.45a1.66,1.66,0,0,1-1.65-1.38,1.64,1.64,0,0,1,1.39-1.87l.19,0a1.68,1.68,0,0,1,1.9,1.38,1.65,1.65,0,0,1-1.41,1.86l-.15,0A1.23,1.23,0,0,1,11,125.45Z"/>
            <g>
              <path class="bd49f0a9-8912-4831-b762-38cb65b06e62" d="M15.74,153.59a1.18,1.18,0,0,1-.19-2.35l.11,0a1.21,1.21,0,0,1,1.39,1,1.17,1.17,0,0,1-1,1.36l-.13,0Zm-4.2,0-.21,0-.14,0a1.18,1.18,0,1,1,.46-2.32h.11a1.2,1.2,0,0,1,1,1.38A1.21,1.21,0,0,1,11.54,153.55Zm8.29-1.35a1.24,1.24,0,0,1-1.06-.6,1.18,1.18,0,0,1,.47-1.61l.09-.05a1.22,1.22,0,0,1,1.65.43,1.16,1.16,0,0,1-.45,1.61.41.41,0,0,1-.11.07A1.26,1.26,0,0,1,19.83,152.2Zm-12.34-.12a1.29,1.29,0,0,1-.62-.17l-.11-.06a1.17,1.17,0,0,1-.41-1.63,1.22,1.22,0,0,1,1.66-.4l.09.05a1.18,1.18,0,0,1,.43,1.62A1.21,1.21,0,0,1,7.49,152.08Zm15.68-2.56a1.19,1.19,0,0,1-.79-.29,1.16,1.16,0,0,1-.12-1.66l.07-.08a1.22,1.22,0,0,1,1.7-.14,1.16,1.16,0,0,1,.15,1.66l-.09.1A1.23,1.23,0,0,1,23.17,149.52Zm-19-.19a1.21,1.21,0,0,1-.93-.43l-.09-.1a1.16,1.16,0,0,1,.18-1.66,1.23,1.23,0,0,1,1.7.17l.07.09A1.17,1.17,0,0,1,5,149.06,1.25,1.25,0,0,1,4.2,149.33Zm21.18-3.45a1.23,1.23,0,0,1-.42-.07,1.19,1.19,0,0,1-.71-1.53l0-.1a1.22,1.22,0,0,1,1.55-.7,1.17,1.17,0,0,1,.72,1.52l0,.12A1.2,1.2,0,0,1,25.38,145.88Zm-23.31-.23a1.2,1.2,0,0,1-1.14-.79l-.05-.12a1.18,1.18,0,0,1,.76-1.5,1.21,1.21,0,0,1,1.53.73l0,.1a1.17,1.17,0,0,1-.73,1.51A1.12,1.12,0,0,1,2.07,145.65Zm24.1-3.93h0A1.19,1.19,0,0,1,25,140.53v-.11a1.21,1.21,0,0,1,2.41,0v.13A1.19,1.19,0,0,1,26.17,141.72Zm-24.81-.25h0a1.18,1.18,0,0,1-1.19-1.19v-.13A1.2,1.2,0,0,1,1.36,139h0a1.19,1.19,0,0,1,1.18,1.21v.11A1.2,1.2,0,0,1,1.36,141.47Zm24.19-3.67A1.21,1.21,0,0,1,24.4,137l0-.1a1.18,1.18,0,0,1,.75-1.5,1.22,1.22,0,0,1,1.54.74s0,.08,0,.13a1.18,1.18,0,0,1-.77,1.49A1.26,1.26,0,0,1,25.55,137.8Zm-23.39-.49a1.29,1.29,0,0,1-.43-.07,1.17,1.17,0,0,1-.7-1.52.69.69,0,0,1,.05-.13,1.22,1.22,0,0,1,1.56-.67,1.18,1.18,0,0,1,.69,1.53l0,.1A1.2,1.2,0,0,1,2.16,137.31Zm21.34-3.24a1.2,1.2,0,0,1-.95-.45l-.07-.08a1.17,1.17,0,0,1,.19-1.66,1.21,1.21,0,0,1,1.69.18l.09.1a1.17,1.17,0,0,1-.2,1.66A1.23,1.23,0,0,1,23.5,134.07Zm-19.13-.39a1.24,1.24,0,0,1-.79-.29,1.16,1.16,0,0,1-.12-1.66l.08-.1a1.24,1.24,0,0,1,1.71-.11,1.17,1.17,0,0,1,.11,1.67l-.07.08A1.23,1.23,0,0,1,4.37,133.68Zm15.9-2.42a1.23,1.23,0,0,1-.64-.17l-.09-.06a1.17,1.17,0,0,1-.41-1.62,1.22,1.22,0,0,1,1.66-.4l.11.06a1.17,1.17,0,0,1,.4,1.63A1.23,1.23,0,0,1,20.27,131.26ZM7.72,131a1.22,1.22,0,0,1-1-.6,1.17,1.17,0,0,1,.46-1.61l.11-.06a1.21,1.21,0,0,1,1.64.47,1.17,1.17,0,0,1-.47,1.6l-.1,0A1.26,1.26,0,0,1,7.72,131Zm8.53-1.29-.25,0-.1,0a1.18,1.18,0,0,1-1-1.38,1.22,1.22,0,0,1,1.42-.94l.13,0a1.18,1.18,0,0,1,.94,1.39A1.21,1.21,0,0,1,16.25,129.71Zm-4.45-.09a1.21,1.21,0,0,1-1.19-1,1.19,1.19,0,0,1,1-1.35l.14,0a1.21,1.21,0,0,1,1.37,1,1.19,1.19,0,0,1-1,1.35H12Z"/>
              <path class="bd49f0a9-8912-4831-b762-38cb65b06e62" d="M15.74,153.73a1.1,1.1,0,0,1-.31,0l.07-.27a1,1,0,0,0,.24,0Zm-4.2,0-.24,0-.07,0,.06-.27h.06l.19,0Zm8.29-1.35a1.06,1.06,0,0,1-.31,0l.06-.27a1.07,1.07,0,0,0,.25,0Zm-12.34-.13a1.66,1.66,0,0,1-.32,0l.07-.27a1,1,0,0,0,.25,0Zm15.68-2.55a1.1,1.1,0,0,1-.31,0l.07-.27a1,1,0,0,0,.24,0Zm-19-.19a1.17,1.17,0,0,1-.32,0l.07-.27a1,1,0,0,0,.25,0ZM25.38,146a1.63,1.63,0,0,1-.31,0l.06-.27.25,0Zm-23.31-.23a1.75,1.75,0,0,1-.32,0l.07-.27a1,1,0,0,0,.25,0Zm24.1-3.93h0a1,1,0,0,1-.3,0l.07-.26.23,0Zm-24.81-.25h0l-.29,0,.06-.27.24,0Zm24.19-3.68a1.63,1.63,0,0,1-.31,0l.06-.27a1.07,1.07,0,0,0,.25,0Zm-23.39-.48a1.73,1.73,0,0,1-.32,0l.07-.27a1.07,1.07,0,0,0,.25,0Zm21.34-3.24a1.55,1.55,0,0,1-.31,0l.06-.27.25,0Zm-19.13-.39a1.55,1.55,0,0,1-.31,0l.06-.27a1.07,1.07,0,0,0,.25,0Zm15.9-2.42a1.12,1.12,0,0,1-.32,0l.07-.27a1,1,0,0,0,.25,0Zm-12.55-.26a1.63,1.63,0,0,1-.31,0l.06-.27.25,0Zm8.53-1.29a1.18,1.18,0,0,1-.27,0h0l.05-.27h0l.22,0Zm-4.45-.1a1.63,1.63,0,0,1-.31,0l.06-.27.25,0Z"/>
            </g>
            <path class="bd49f0a9-8912-4831-b762-38cb65b06e62" d="M14.18,143.13a.26.26,0,0,1-.25-.21.25.25,0,0,1,.21-.28h0a.26.26,0,0,1,.29.2.25.25,0,0,1-.21.28h-.06Zm-.87,0h-.07a.24.24,0,1,1,.09-.48h0a.25.25,0,0,1,0,.49Zm1.71-.28a.27.27,0,0,1-.22-.12.25.25,0,0,1,.09-.34h0a.26.26,0,0,1,.34.09.25.25,0,0,1-.09.34h0A.27.27,0,0,1,15,142.84Zm-2.54,0a.28.28,0,0,1-.13,0h0a.25.25,0,0,1-.09-.34.25.25,0,0,1,.34-.08h0a.24.24,0,0,1,.09.33A.25.25,0,0,1,12.48,142.81Zm3.23-.52a.27.27,0,0,1-.17-.06.24.24,0,0,1,0-.34v0a.25.25,0,0,1,.35,0,.23.23,0,0,1,0,.34l0,0A.24.24,0,0,1,15.71,142.29Zm-3.91,0a.25.25,0,0,1-.19-.09l0,0a.23.23,0,0,1,0-.34.25.25,0,0,1,.35,0v0a.24.24,0,0,1,0,.34A.27.27,0,0,1,11.8,142.25Zm4.36-.71-.09,0a.23.23,0,0,1-.14-.31v0a.25.25,0,0,1,.31-.15.25.25,0,0,1,.15.32v0A.25.25,0,0,1,16.16,141.54Zm-4.8,0a.24.24,0,0,1-.23-.16v0a.24.24,0,0,1,.15-.31.26.26,0,0,1,.32.16v0a.24.24,0,0,1-.15.31Zm5-.81h0a.25.25,0,0,1-.25-.24v0a.25.25,0,0,1,.25-.24.25.25,0,0,1,.25.24v0A.25.25,0,0,1,16.32,140.68Zm-5.11-.05h0a.23.23,0,0,1-.24-.25v0a.24.24,0,0,1,.24-.24h0a.23.23,0,0,1,.24.25v0A.25.25,0,0,1,11.21,140.63Zm5-.76a.24.24,0,0,1-.23-.16v0a.25.25,0,0,1,.16-.31.23.23,0,0,1,.31.15v0a.25.25,0,0,1-.16.31Zm-4.81-.1h-.09a.24.24,0,0,1-.14-.31v0a.25.25,0,0,1,.32-.14.24.24,0,0,1,.14.32v0A.25.25,0,0,1,11.38,139.77Zm4.39-.66a.23.23,0,0,1-.19-.1h0a.24.24,0,0,1,0-.34.25.25,0,0,1,.35,0l0,0a.25.25,0,0,1,0,.34A.25.25,0,0,1,15.77,139.11ZM11.83,139a.27.27,0,0,1-.16-.06.25.25,0,0,1,0-.35v0a.25.25,0,0,1,.35,0,.24.24,0,0,1,0,.35h0A.25.25,0,0,1,11.83,139Zm3.28-.5a.2.2,0,0,1-.13,0h0a.24.24,0,0,1-.09-.33.25.25,0,0,1,.34-.09l0,0a.24.24,0,0,1,.08.33A.25.25,0,0,1,15.11,138.53Zm-2.59-.05a.24.24,0,0,1-.21-.13.24.24,0,0,1,.09-.33h0a.24.24,0,0,1,.33.09.24.24,0,0,1-.1.33h0A.17.17,0,0,1,12.52,138.48Zm1.76-.27h-.07a.24.24,0,0,1-.2-.29.26.26,0,0,1,.29-.19h0a.23.23,0,0,1,.19.28A.25.25,0,0,1,14.28,138.21Zm-.92,0a.25.25,0,0,1-.24-.21.24.24,0,0,1,.21-.27h0a.24.24,0,0,1,.28.21.24.24,0,0,1-.2.27h-.07Z"/>
            <path class="bd49f0a9-8912-4831-b762-38cb65b06e62" d="M14.54,145.57a.46.46,0,0,1-.07-.92h0a.47.47,0,0,1,.16.92h-.13Zm-1.64,0h-.14a.46.46,0,1,1,.18-.91h0a.45.45,0,0,1,.38.53A.46.46,0,0,1,12.9,145.55Zm3.24-.52a.47.47,0,0,1-.41-.24.45.45,0,0,1,.18-.63l0,0a.47.47,0,0,1,.64.17.46.46,0,0,1-.17.63l-.05,0A.46.46,0,0,1,16.14,145ZM11.31,145a.44.44,0,0,1-.24-.07l0,0a.46.46,0,0,1-.17-.64.48.48,0,0,1,.65-.16l0,0a.45.45,0,0,1,.17.63A.5.5,0,0,1,11.31,145Zm6.14-1a.47.47,0,0,1-.31-.12.45.45,0,0,1-.05-.65l0,0a.47.47,0,0,1,.66-.05.45.45,0,0,1,.06.65l0,0A.52.52,0,0,1,17.45,144ZM10,143.9a.48.48,0,0,1-.36-.17l0,0A.45.45,0,0,1,9.7,143a.47.47,0,0,1,.66.07l0,0a.46.46,0,0,1-.37.75Zm8.29-1.35a.47.47,0,0,1-.44-.62l0,0a.48.48,0,0,1,.6-.28.46.46,0,0,1,.28.6v0A.49.49,0,0,1,18.31,142.55Zm-9.12-.09a.48.48,0,0,1-.45-.31v-.05a.44.44,0,0,1,.29-.58.47.47,0,0,1,.6.29v0a.47.47,0,0,1-.44.62Zm9.43-1.53h0a.48.48,0,0,1-.47-.47v0a.47.47,0,0,1,.47-.47.48.48,0,0,1,.48.47v.05A.48.48,0,0,1,18.62,140.93Zm-9.71-.1h0a.48.48,0,0,1-.47-.47v-.05a.47.47,0,0,1,.47-.45h0a.46.46,0,0,1,.47.47v0A.48.48,0,0,1,8.91,140.83Zm9.47-1.44a.48.48,0,0,1-.45-.32v0a.47.47,0,0,1,.29-.59.48.48,0,0,1,.6.29l0,.05a.47.47,0,0,1-.3.59Zm-9.15-.19a.47.47,0,0,1-.45-.63l0,0a.48.48,0,0,1,.61-.27.45.45,0,0,1,.27.6v0A.46.46,0,0,1,9.23,139.2Zm8.35-1.27a.48.48,0,0,1-.37-.17l0,0a.46.46,0,0,1,.07-.65.47.47,0,0,1,.66.07l0,0a.47.47,0,0,1-.37.75Zm-7.49-.15a.47.47,0,0,1-.31-.12.45.45,0,0,1,0-.65l0,0a.47.47,0,0,1,.66,0,.46.46,0,0,1,.05.66l0,0A.5.5,0,0,1,10.09,137.78Zm6.22-.95a.47.47,0,0,1-.25-.07l0,0a.44.44,0,0,1-.16-.63.48.48,0,0,1,.65-.16l0,0a.45.45,0,0,1,.15.63A.46.46,0,0,1,16.31,136.83Zm-4.91-.1a.49.49,0,0,1-.41-.24.46.46,0,0,1,.18-.63l.05,0a.48.48,0,0,1,.64.18.46.46,0,0,1-.19.63l0,0A.46.46,0,0,1,11.4,136.73Zm3.34-.51H14.6a.47.47,0,0,1-.37-.55.46.46,0,0,1,.55-.36h.05a.46.46,0,0,1,.37.54A.46.46,0,0,1,14.74,136.22Zm-1.74,0a.46.46,0,0,1-.07-.92H13a.46.46,0,0,1,.53.39.47.47,0,0,1-.39.53H13Z"/>
            <path class="bd49f0a9-8912-4831-b762-38cb65b06e62" d="M15.06,149.06a.79.79,0,0,1-.78-.65.78.78,0,0,1,.66-.89H15a.79.79,0,0,1,.91.63.76.76,0,0,1-.64.89l-.09,0Zm-2.75,0h-.14l-.09,0a.78.78,0,0,1-.63-.91.79.79,0,0,1,.93-.61h.07a.78.78,0,0,1-.14,1.54Zm5.44-.88a.82.82,0,0,1-.7-.4.78.78,0,0,1,.31-1.06l.06,0a.81.81,0,0,1,1.08.29.75.75,0,0,1-.29,1.05l-.08.05A.86.86,0,0,1,17.75,148.15Zm-8.1-.09a.79.79,0,0,1-.4-.1l-.08-.05a.76.76,0,0,1-.27-1.06.8.8,0,0,1,1.09-.27l.06,0a.76.76,0,0,1,.28,1.06A.78.78,0,0,1,9.65,148.06Zm10.29-1.67a.8.8,0,0,1-.52-.19.76.76,0,0,1-.08-1.09l.05-.06A.81.81,0,0,1,20.5,145a.76.76,0,0,1,.1,1.09l-.06.07A.8.8,0,0,1,19.94,146.39Zm-12.45-.13a.77.77,0,0,1-.61-.28l-.06-.07a.77.77,0,0,1,.12-1.09.81.81,0,0,1,1.11.12l0,.05a.77.77,0,0,1-.11,1.1A.82.82,0,0,1,7.49,146.26ZM21.39,144a.69.69,0,0,1-.28-.05.77.77,0,0,1-.46-1l0-.06a.79.79,0,0,1,1-.46.76.76,0,0,1,.47,1l0,.08A.79.79,0,0,1,21.39,144Zm-15.3-.15a.8.8,0,0,1-.75-.52.24.24,0,0,1,0-.08.77.77,0,0,1,.49-1,.8.8,0,0,1,1,.49l0,.06a.77.77,0,0,1-.48,1A.86.86,0,0,1,6.09,143.85Zm15.82-2.58h0a.77.77,0,0,1-.78-.78v-.07a.79.79,0,0,1,1.58,0v.08A.78.78,0,0,1,21.91,141.27Zm-16.28-.16h0a.78.78,0,0,1-.78-.79v-.08a.79.79,0,0,1,.79-.76h0a.78.78,0,0,1,.77.79v.07A.78.78,0,0,1,5.63,141.11ZM21.5,138.7a.79.79,0,0,1-.75-.54l0-.06a.78.78,0,0,1,.5-1,.8.8,0,0,1,1,.49l0,.08a.77.77,0,0,1-.5,1A1.18,1.18,0,0,1,21.5,138.7Zm-15.35-.32a.92.92,0,0,1-.28,0,.77.77,0,0,1-.46-1l0-.08a.8.8,0,0,1,1-.44.77.77,0,0,1,.45,1l0,.07A.79.79,0,0,1,6.15,138.38Zm14-2.13a.81.81,0,0,1-.62-.29l0-.06a.76.76,0,0,1,.12-1.09.81.81,0,0,1,1.11.12l.05.07a.75.75,0,0,1-.13,1.09A.78.78,0,0,1,20.15,136.25ZM7.6,136a.79.79,0,0,1-.51-.18.77.77,0,0,1-.09-1.1l.06-.06a.81.81,0,0,1,1.12-.07.76.76,0,0,1,.07,1.09l-.05.06A.81.81,0,0,1,7.6,136ZM18,134.41a.78.78,0,0,1-.41-.12l-.06,0a.76.76,0,0,1-.27-1.07.8.8,0,0,1,1.08-.26l.08,0a.77.77,0,0,1,.26,1.07A.8.8,0,0,1,18,134.41Zm-8.23-.17a.77.77,0,0,1-.69-.4.76.76,0,0,1,.3-1.05l.08,0a.79.79,0,0,1,1.07.3.78.78,0,0,1-.31,1.06l-.06,0A.81.81,0,0,1,9.8,134.24Zm5.59-.85-.15,0h-.07a.78.78,0,0,1-.63-.91.79.79,0,0,1,.93-.61h.08a.78.78,0,0,1,.62.92A.79.79,0,0,1,15.39,133.39Zm-2.91-.06a.78.78,0,0,1-.78-.65.77.77,0,0,1,.66-.89h.08a.78.78,0,0,1,.9.65.77.77,0,0,1-.67.88h-.19Z"/>
          </g>
          <g>
            <path class="bd49f0a9-8912-4831-b762-38cb65b06e62" d="M32.15,203.51A1.86,1.86,0,0,1,30.32,202a1.83,1.83,0,0,1,1.54-2.09l.17,0a1.82,1.82,0,1,1,.62,3.58l-.2,0A1.53,1.53,0,0,1,32.15,203.51Zm-6.47-.07a1.84,1.84,0,0,1-.33,0l-.2,0a1.83,1.83,0,0,1-1.48-2.13,1.86,1.86,0,0,1,2.18-1.45l.16,0a1.82,1.82,0,0,1-.33,3.61Zm12.76-2.07a1.87,1.87,0,0,1-1.62-.93,1.81,1.81,0,0,1,.71-2.48l.15-.08a1.87,1.87,0,0,1,2.53.67,1.79,1.79,0,0,1-.68,2.48l-.18.1A1.88,1.88,0,0,1,38.44,201.37Zm-19-.2a1.87,1.87,0,0,1-.94-.25l-.18-.1a1.79,1.79,0,0,1-.63-2.49,1.88,1.88,0,0,1,2.55-.63l.14.09a1.79,1.79,0,0,1,.66,2.49A1.86,1.86,0,0,1,19.44,201.17Zm24.15-3.93a1.84,1.84,0,0,1-1.21-.44,1.79,1.79,0,0,1-.19-2.57l.1-.12a1.89,1.89,0,0,1,2.62-.22,1.79,1.79,0,0,1,.22,2.57l-.13.15A1.87,1.87,0,0,1,43.59,197.24ZM14.38,197a1.9,1.9,0,0,1-1.44-.66,1,1,0,0,0-.13-.16,1.8,1.8,0,0,1,.28-2.56,1.88,1.88,0,0,1,2.61.27l.11.13a1.8,1.8,0,0,1-.25,2.56A1.89,1.89,0,0,1,14.38,197ZM47,191.64a1.85,1.85,0,0,1-1.74-2.46l.06-.15a1.88,1.88,0,0,1,2.39-1.09,1.81,1.81,0,0,1,1.1,2.34,1.34,1.34,0,0,1-.07.18A1.86,1.86,0,0,1,47,191.64Zm-35.89-.36a1.87,1.87,0,0,1-1.76-1.21l-.06-.2a1.79,1.79,0,0,1,1.16-2.3,1.85,1.85,0,0,1,2.35,1.13l.06.15a1.81,1.81,0,0,1-1.13,2.32A1.73,1.73,0,0,1,11.1,191.28Zm37.11-6h0a1.84,1.84,0,0,1-1.84-1.84v-.16a1.86,1.86,0,0,1,3.72,0v.19A1.85,1.85,0,0,1,48.21,185.24ZM10,184.85h0A1.84,1.84,0,0,1,8.15,183v-.19A1.84,1.84,0,0,1,10,181h0a1.84,1.84,0,0,1,1.82,1.86v.17A1.84,1.84,0,0,1,10,184.85Zm37.24-5.66a1.85,1.85,0,0,1-1.76-1.25l-.06-.15a1.81,1.81,0,0,1,1.16-2.31A1.86,1.86,0,0,1,49,176.61a1.59,1.59,0,0,1,.07.2,1.8,1.8,0,0,1-1.19,2.29A2,2,0,0,1,47.25,179.19Zm-36-.74a1.92,1.92,0,0,1-.66-.12A1.8,1.8,0,0,1,9.5,176l.07-.19a1.87,1.87,0,0,1,2.41-1A1.81,1.81,0,0,1,13,177.12l-.06.15A1.86,1.86,0,0,1,11.24,178.45Zm32.85-5a1.87,1.87,0,0,1-1.45-.69l-.11-.13a1.79,1.79,0,0,1,.28-2.56,1.88,1.88,0,0,1,2.61.28l.13.15a1.8,1.8,0,0,1-.3,2.56A1.91,1.91,0,0,1,44.09,173.46Zm-29.45-.61a1.84,1.84,0,0,1-1.21-.44,1.79,1.79,0,0,1-.19-2.57l.13-.15a1.9,1.9,0,0,1,2.63-.16,1.79,1.79,0,0,1,.16,2.57l-.11.12A1.87,1.87,0,0,1,14.64,172.85Zm24.48-3.72a1.93,1.93,0,0,1-1-.27l-.14-.08a1.8,1.8,0,0,1-.63-2.5,1.88,1.88,0,0,1,2.55-.62l.17.1a1.8,1.8,0,0,1,.61,2.51A1.88,1.88,0,0,1,39.12,169.13Zm-19.32-.4a1.85,1.85,0,0,1-1.62-.93,1.8,1.8,0,0,1,.71-2.47l.18-.1a1.88,1.88,0,0,1,2.52.72,1.79,1.79,0,0,1-.73,2.47l-.15.08A1.86,1.86,0,0,1,19.8,168.73Zm13.13-2a1.64,1.64,0,0,1-.38,0l-.16,0a1.81,1.81,0,0,1-1.47-2.13,1.85,1.85,0,0,1,2.17-1.44l.21,0a1.82,1.82,0,0,1,1.45,2.14A1.86,1.86,0,0,1,32.93,166.74Zm-6.85-.14a1.86,1.86,0,0,1-1.83-1.54A1.83,1.83,0,0,1,25.8,163l.2,0a1.85,1.85,0,0,1,2.11,1.54,1.82,1.82,0,0,1-1.57,2.06l-.16,0Z"/>
            <g>
              <path class="bd49f0a9-8912-4831-b762-38cb65b06e62" d="M31.31,197.86a1.34,1.34,0,0,1-1.33-1.1,1.33,1.33,0,0,1,1.12-1.51l.12,0a1.33,1.33,0,0,1,1.54,1.08,1.3,1.3,0,0,1-1.1,1.51l-.14,0A.75.75,0,0,1,31.31,197.86Zm-4.67,0a1,1,0,0,1-.24,0l-.15,0a1.32,1.32,0,0,1-1.06-1.54,1.34,1.34,0,0,1,1.57-1l.12,0A1.32,1.32,0,0,1,28,196.74,1.35,1.35,0,0,1,26.64,197.82Zm9.21-1.5a1.38,1.38,0,0,1-1.18-.67,1.3,1.3,0,0,1,.52-1.79l.1-.06a1.36,1.36,0,0,1,1.83.48,1.31,1.31,0,0,1-.49,1.8l-.13.07A1.4,1.4,0,0,1,35.85,196.32Zm-13.72-.14a1.41,1.41,0,0,1-.68-.18l-.12-.08a1.29,1.29,0,0,1-.46-1.8,1.36,1.36,0,0,1,1.84-.45l.1.06a1.31,1.31,0,0,1,.48,1.8A1.34,1.34,0,0,1,22.13,196.18Zm17.43-2.84a1.36,1.36,0,0,1-.87-.32,1.28,1.28,0,0,1-.14-1.85l.07-.09a1.37,1.37,0,0,1,1.89-.16,1.3,1.3,0,0,1,.17,1.85l-.1.12A1.36,1.36,0,0,1,39.56,193.34Zm-21.08-.21a1.38,1.38,0,0,1-1-.48l-.09-.11a1.29,1.29,0,0,1,.2-1.85,1.37,1.37,0,0,1,1.89.2l.07.09a1.3,1.3,0,0,1-.18,1.85A1.36,1.36,0,0,1,18.48,193.13ZM42,189.3a1.36,1.36,0,0,1-.48-.09,1.3,1.3,0,0,1-.78-1.69l0-.11a1.35,1.35,0,0,1,1.72-.78,1.29,1.29,0,0,1,.8,1.68.78.78,0,0,1,0,.14A1.34,1.34,0,0,1,42,189.3ZM16.11,189a1.34,1.34,0,0,1-1.26-.88.58.58,0,0,1,0-.14,1.3,1.3,0,0,1,.83-1.66,1.35,1.35,0,0,1,1.71.82l0,.1a1.3,1.3,0,0,1-.81,1.68A1.42,1.42,0,0,1,16.11,189Zm26.79-4.37h0a1.32,1.32,0,0,1-1.33-1.32v-.12a1.35,1.35,0,0,1,2.69,0v.14A1.33,1.33,0,0,1,42.9,184.67Zm-27.57-.27h0A1.32,1.32,0,0,1,14,183.07v-.14a1.32,1.32,0,0,1,1.34-1.29h0A1.33,1.33,0,0,1,16.67,183v.12A1.33,1.33,0,0,1,15.33,184.4Zm26.87-4.09a1.33,1.33,0,0,1-1.27-.9s0-.08,0-.11a1.31,1.31,0,0,1,.84-1.67,1.36,1.36,0,0,1,1.7.82l0,.14a1.31,1.31,0,0,1-.86,1.66A1.52,1.52,0,0,1,42.2,180.31Zm-26-.53a1.27,1.27,0,0,1-.47-.09A1.3,1.3,0,0,1,15,178a.69.69,0,0,1,0-.13,1.36,1.36,0,0,1,1.74-.75,1.3,1.3,0,0,1,.76,1.7l0,.11A1.37,1.37,0,0,1,16.21,179.78Zm23.71-3.6a1.39,1.39,0,0,1-1.05-.5l-.07-.1a1.28,1.28,0,0,1,.2-1.84,1.34,1.34,0,0,1,1.88.2l.09.11a1.28,1.28,0,0,1-.21,1.84A1.38,1.38,0,0,1,39.92,176.18Zm-21.25-.44a1.4,1.4,0,0,1-.88-.32,1.3,1.3,0,0,1-.14-1.85l.1-.11a1.36,1.36,0,0,1,1.9-.12,1.29,1.29,0,0,1,.11,1.85l-.07.09A1.37,1.37,0,0,1,18.67,175.74Zm17.66-2.69a1.37,1.37,0,0,1-.7-.19l-.1-.06a1.31,1.31,0,0,1-.46-1.81,1.35,1.35,0,0,1,1.84-.44l.13.07a1.31,1.31,0,0,1,.44,1.81A1.37,1.37,0,0,1,36.33,173.05Zm-13.94-.29a1.35,1.35,0,0,1-1.17-.67,1.29,1.29,0,0,1,.52-1.78l.12-.07a1.35,1.35,0,0,1,1.82.52,1.29,1.29,0,0,1-.53,1.78l-.1.06A1.43,1.43,0,0,1,22.39,172.76Zm9.48-1.44a1.23,1.23,0,0,1-.27,0l-.12,0a1.32,1.32,0,0,1-1.07-1.54,1.35,1.35,0,0,1,1.58-1l.14,0a1.3,1.3,0,0,1,1,1.54A1.33,1.33,0,0,1,31.87,171.32Zm-4.94-.1a1.31,1.31,0,0,1-.21-2.61l.14,0a1.35,1.35,0,0,1,1.53,1.11,1.32,1.32,0,0,1-1.13,1.49l-.12,0Z"/>
              <path class="bd49f0a9-8912-4831-b762-38cb65b06e62" d="M31.31,198a1.55,1.55,0,0,1-.31,0l.06-.27.25,0ZM26.64,198a1.23,1.23,0,0,1-.27,0v-.28h0l.22,0Zm9.21-1.5a1.55,1.55,0,0,1-.31,0l.05-.27a1.15,1.15,0,0,0,.26,0Zm-13.72-.13a1.1,1.1,0,0,1-.31,0l.06-.27a1.07,1.07,0,0,0,.25,0Zm17.43-2.84a1.63,1.63,0,0,1-.31,0l.06-.28a1.07,1.07,0,0,0,.25,0Zm-21.08-.21a1.55,1.55,0,0,1-.31,0l.06-.27a1,1,0,0,0,.25,0ZM42,189.44a1.17,1.17,0,0,1-.32,0l.06-.27a1.15,1.15,0,0,0,.26,0Zm-25.91-.26a1.65,1.65,0,0,1-.31,0l.06-.27a1.07,1.07,0,0,0,.25,0Zm26.78-4.37h0a1.53,1.53,0,0,1-.3,0l.06-.27a1,1,0,0,0,.25,0v.27Zm-27.56-.27h0a1.36,1.36,0,0,1-.29,0l.06-.28a.85.85,0,0,0,.23,0Zm26.87-4.09a1.63,1.63,0,0,1-.31,0l.06-.27a1.06,1.06,0,0,0,.25,0Zm-26-.53a1.1,1.1,0,0,1-.31,0l.06-.27a1.07,1.07,0,0,0,.25,0Zm23.71-3.61-.31,0,.06-.27a1.07,1.07,0,0,0,.25,0Zm-21.25-.43a1.06,1.06,0,0,1-.31,0l.06-.27a1,1,0,0,0,.25,0Zm17.66-2.69a1.63,1.63,0,0,1-.31,0l.06-.27.25,0Zm-13.94-.29a1.63,1.63,0,0,1-.31,0l.06-.27a1.07,1.07,0,0,0,.25,0Zm9.48-1.44-.3,0,0-.27a1.15,1.15,0,0,0,.26,0Zm-4.94-.1a1.55,1.55,0,0,1-.31,0l.06-.27a1,1,0,0,0,.25,0Z"/>
            </g>
            <path class="bd49f0a9-8912-4831-b762-38cb65b06e62" d="M29.56,186.23a.27.27,0,0,1-.27-.22.27.27,0,0,1,.23-.31h0a.27.27,0,0,1,.09.54h-.08Zm-1,0h-.08a.26.26,0,0,1-.22-.31.29.29,0,0,1,.33-.22h0a.27.27,0,0,1,0,.53Zm1.9-.3a.27.27,0,0,1-.24-.14.27.27,0,0,1,.1-.37h0a.27.27,0,0,1,.38.1.27.27,0,0,1-.1.37h0A.22.22,0,0,1,30.5,185.92Zm-2.83,0a.27.27,0,0,1-.14,0h0a.29.29,0,0,1-.1-.38.29.29,0,0,1,.38-.09h0a.26.26,0,0,1,.1.37A.27.27,0,0,1,27.67,185.89Zm3.59-.59a.32.32,0,0,1-.18-.06.27.27,0,0,1,0-.38l0,0a.27.27,0,0,1,.39,0,.26.26,0,0,1,0,.38l0,0A.27.27,0,0,1,31.26,185.3Zm-4.34,0a.25.25,0,0,1-.21-.1l0,0a.26.26,0,0,1,0-.38.27.27,0,0,1,.39,0l0,0a.27.27,0,0,1,0,.38A.3.3,0,0,1,26.92,185.26Zm4.85-.79a.18.18,0,0,1-.1,0,.26.26,0,0,1-.16-.34v0a.27.27,0,0,1,.35-.16.27.27,0,0,1,.17.35v0A.29.29,0,0,1,31.77,184.47Zm-5.34-.05a.28.28,0,0,1-.26-.18v0a.27.27,0,0,1,.18-.34.27.27,0,0,1,.35.16v0a.27.27,0,0,1-.17.34Zm5.52-.9h0a.27.27,0,0,1-.28-.27v0a.28.28,0,0,1,.56,0v0A.28.28,0,0,1,32,183.52Zm-5.68-.06h0a.27.27,0,0,1-.27-.27v0a.27.27,0,0,1,.27-.27h0a.28.28,0,0,1,.27.28v0A.28.28,0,0,1,26.27,183.46Zm5.54-.84a.26.26,0,0,1-.26-.19v0a.27.27,0,0,1,.17-.34.28.28,0,0,1,.35.17v0a.27.27,0,0,1-.18.34Zm-5.35-.11a.16.16,0,0,1-.1,0,.26.26,0,0,1-.16-.34v0a.28.28,0,0,1,.36-.16.26.26,0,0,1,.15.35v0A.27.27,0,0,1,26.46,182.51Zm4.88-.74a.32.32,0,0,1-.22-.1v0a.26.26,0,0,1,0-.38.27.27,0,0,1,.39,0v0a.26.26,0,0,1,0,.38A.27.27,0,0,1,31.34,181.77ZM27,181.68a.26.26,0,0,1-.18-.07.27.27,0,0,1,0-.38l0,0a.28.28,0,0,1,.39,0,.26.26,0,0,1,0,.38l0,0A.27.27,0,0,1,27,181.68Zm3.64-.55a.42.42,0,0,1-.15,0l0,0a.26.26,0,0,1-.09-.37.28.28,0,0,1,.38-.09l0,0a.26.26,0,0,1,.09.37A.28.28,0,0,1,30.6,181.13Zm-2.87-.06a.27.27,0,0,1-.24-.14.27.27,0,0,1,.1-.37h0a.27.27,0,1,1,.27.47h0A.22.22,0,0,1,27.73,181.07Zm1.95-.3H29.6a.27.27,0,1,1,.1-.53h0a.27.27,0,0,1,.22.31A.28.28,0,0,1,29.68,180.77Zm-1,0a.27.27,0,0,1,0-.54h0a.27.27,0,0,1,.31.23.26.26,0,0,1-.23.3h-.07Z"/>
            <path class="bd49f0a9-8912-4831-b762-38cb65b06e62" d="M30,189a.53.53,0,0,1-.52-.43.52.52,0,0,1,.44-.59h.05a.52.52,0,0,1,.6.42.5.5,0,0,1-.43.59H30Zm-1.83,0H28a.51.51,0,0,1-.41-.6.52.52,0,0,1,.61-.41h0a.52.52,0,0,1,.42.6A.53.53,0,0,1,28.14,188.93Zm3.61-.59a.52.52,0,0,1-.46-.26.51.51,0,0,1,.2-.7l0,0a.53.53,0,0,1,.72.19.5.5,0,0,1-.2.7l0,0A.57.57,0,0,1,31.75,188.34Zm-5.37-.05a.54.54,0,0,1-.27-.07l-.05,0a.51.51,0,0,1-.17-.7.52.52,0,0,1,.72-.18l0,0a.52.52,0,0,1-.27,1Zm6.82-1.11a.52.52,0,0,1-.4-.85l0,0a.53.53,0,0,1,.74-.07.51.51,0,0,1,.07.73l0,0A.53.53,0,0,1,33.2,187.18ZM25,187.1a.53.53,0,0,1-.4-.19l0,0a.51.51,0,0,1,.08-.73.55.55,0,0,1,.74.08l0,0a.5.5,0,0,1-.08.72A.5.5,0,0,1,25,187.1Zm9.21-1.5a.57.57,0,0,1-.18,0,.52.52,0,0,1-.31-.67l0,0a.53.53,0,0,1,.67-.31.52.52,0,0,1,.31.66l0,.06A.53.53,0,0,1,34.16,185.6ZM24,185.5a.54.54,0,0,1-.49-.35l0-.05a.51.51,0,0,1,.33-.65.52.52,0,0,1,.66.32l0,0a.52.52,0,0,1-.32.66A.57.57,0,0,1,24,185.5Zm10.49-1.71h0a.52.52,0,0,1-.52-.52v-.05a.52.52,0,0,1,.53-.51.51.51,0,0,1,.52.51v.06A.52.52,0,0,1,34.51,183.79Zm-10.79-.11h0a.52.52,0,0,1-.52-.52v0a.53.53,0,0,1,.53-.51h0a.52.52,0,0,1,.51.53v0A.51.51,0,0,1,23.72,183.68Zm10.52-1.6a.52.52,0,0,1-.5-.35l0,0a.53.53,0,0,1,.33-.66.55.55,0,0,1,.67.32v.06a.52.52,0,0,1-.33.65Zm-10.18-.21a.57.57,0,0,1-.18,0,.52.52,0,0,1-.31-.66l0-.06a.54.54,0,0,1,.68-.29.51.51,0,0,1,.3.67l0,0A.5.5,0,0,1,24.06,181.87Zm9.28-1.41a.52.52,0,0,1-.41-.19l0,0a.5.5,0,0,1,.08-.72.53.53,0,0,1,.74.08l0,0a.51.51,0,0,1-.41.83ZM25,180.29a.55.55,0,0,1-.35-.12.51.51,0,0,1-.05-.73l0,0a.54.54,0,0,1,.74-.05.51.51,0,0,1,0,.73l0,0A.51.51,0,0,1,25,180.29Zm6.91-1a.48.48,0,0,1-.28-.08l0,0a.5.5,0,0,1-.18-.7.52.52,0,0,1,.72-.18l.05,0a.5.5,0,0,1,.17.71A.52.52,0,0,1,31.94,179.24Zm-5.46-.11a.55.55,0,0,1-.46-.26.5.5,0,0,1,.21-.7l.05,0a.52.52,0,0,1,.71.2.52.52,0,0,1-.21.7l0,0A.48.48,0,0,1,26.48,179.13Zm3.71-.57H30a.52.52,0,1,1,.2-1h.05a.5.5,0,0,1,.41.6A.51.51,0,0,1,30.19,178.56Zm-1.93,0a.53.53,0,0,1-.52-.44.52.52,0,0,1,.44-.59h.05a.51.51,0,1,1,.16,1h-.13Z"/>
            <path class="bd49f0a9-8912-4831-b762-38cb65b06e62" d="M30.55,192.83a.89.89,0,0,1-.87-.73.87.87,0,0,1,.73-1h.08a.88.88,0,0,1,1,.71.86.86,0,0,1-.72,1l-.1,0Zm-3.06,0-.16,0-.1,0a.85.85,0,0,1-.69-1,.88.88,0,0,1,1-.69l.07,0a.86.86,0,0,1,.71,1A.87.87,0,0,1,27.49,192.8Zm6-1a.89.89,0,0,1-.77-.44.84.84,0,0,1,.34-1.17l.07,0a.89.89,0,0,1,1.2.32.85.85,0,0,1-.33,1.18l-.08,0A.84.84,0,0,1,33.53,191.81Zm-9-.09a.88.88,0,0,1-.44-.12l-.09,0a.85.85,0,0,1-.3-1.18.89.89,0,0,1,1.21-.29l.07,0a.85.85,0,0,1,.31,1.18A.88.88,0,0,1,24.53,191.72ZM36,189.86a.9.9,0,0,1-.58-.21.86.86,0,0,1-.09-1.22l.05-.05a.89.89,0,0,1,1.24-.11.86.86,0,0,1,.11,1.22l-.07.07A.87.87,0,0,1,36,189.86Zm-13.83-.14a.89.89,0,0,1-.68-.31l-.07-.08a.85.85,0,0,1,.14-1.21.88.88,0,0,1,1.23.13l0,.06a.84.84,0,0,1-.12,1.21A.83.83,0,0,1,22.14,189.72Zm15.44-2.51a.81.81,0,0,1-.31-.06.86.86,0,0,1-.52-1.11l0-.07a.88.88,0,0,1,1.13-.51.85.85,0,0,1,.53,1.1l0,.09A.89.89,0,0,1,37.58,187.21Zm-17-.17a.88.88,0,0,1-.83-.58l0-.09a.85.85,0,0,1,.55-1.09.89.89,0,0,1,1.12.54l0,.07a.86.86,0,0,1-.53,1.1A1,1,0,0,1,20.58,187Zm17.58-2.87h0a.86.86,0,0,1-.87-.86v-.08a.88.88,0,0,1,1.76,0v.09A.88.88,0,0,1,38.16,184.17ZM20.07,184h0a.86.86,0,0,1-.87-.87V183a.88.88,0,0,1,.88-.85h0a.88.88,0,0,1,.86.88v.08A.88.88,0,0,1,20.07,184Zm17.63-2.68a.87.87,0,0,1-.83-.59l0-.07a.87.87,0,0,1,.55-1.1.89.89,0,0,1,1.12.54l0,.09a.86.86,0,0,1-.56,1.09A1,1,0,0,1,37.7,181.31ZM20.65,181a1.06,1.06,0,0,1-.31-.05.86.86,0,0,1-.52-1.11l0-.09a.88.88,0,0,1,1.14-.49.85.85,0,0,1,.5,1.11l0,.07A.87.87,0,0,1,20.65,181Zm15.56-2.36a.87.87,0,0,1-.69-.33l-.05-.06A.84.84,0,0,1,35.6,177a.9.9,0,0,1,1.24.13l.06.07a.87.87,0,0,1-.69,1.4Zm-13.95-.29a.87.87,0,0,1-.57-.21.85.85,0,0,1-.1-1.21l.07-.08a.89.89,0,0,1,1.24-.07A.84.84,0,0,1,23,178l-.05.06A.89.89,0,0,1,22.26,178.31Zm11.59-1.76a.84.84,0,0,1-.46-.13l-.07,0a.85.85,0,0,1-.3-1.18.9.9,0,0,1,1.21-.3l.08,0a.86.86,0,0,1,.29,1.19A.91.91,0,0,1,33.85,176.55Zm-9.15-.19a.9.9,0,0,1-.77-.44.86.86,0,0,1,.34-1.17l.09-.05a.89.89,0,0,1,1.19.34.85.85,0,0,1-.35,1.17l-.07,0A.92.92,0,0,1,24.7,176.36Zm6.22-.94-.18,0-.08,0a.86.86,0,0,1-.69-1,.88.88,0,0,1,1-.68l.09,0a.86.86,0,0,1,.69,1A.88.88,0,0,1,30.92,175.42Zm-3.24-.07a.87.87,0,0,1-.87-.73.85.85,0,0,1,.73-1l.1,0a.88.88,0,0,1,1,.73.87.87,0,0,1-.74,1h-.22Z"/>
          </g>
          <g>
            <g>
              <path class="bd49f0a9-8912-4831-b762-38cb65b06e62" d="M89.69,100.45a1.87,1.87,0,0,0,1.22.44,1.83,1.83,0,0,0,1.4-.63l.11-.12a1.68,1.68,0,0,0,.34-.55H89.13A1.77,1.77,0,0,0,89.69,100.45Z"/>
              <path class="bd49f0a9-8912-4831-b762-38cb65b06e62" d="M89.11,116.89l0-.15a1.86,1.86,0,0,0-2.36-1.13,1.81,1.81,0,0,0-1.16,2.31,1.46,1.46,0,0,0,.07.19,1.84,1.84,0,0,0,1.75,1.21,1.87,1.87,0,0,0,.62-.1A1.82,1.82,0,0,0,89.11,116.89Z"/>
              <path class="bd49f0a9-8912-4831-b762-38cb65b06e62" d="M94,126.37a1.79,1.79,0,0,0,.64,2.49l0,0v-3.15A1.79,1.79,0,0,0,94,126.37Z"/>
              <path class="bd49f0a9-8912-4831-b762-38cb65b06e62" d="M86.84,106.37a1.92,1.92,0,0,0,.66.12,1.87,1.87,0,0,0,1.74-1.17l.06-.16a1.8,1.8,0,0,0-1.06-2.35,1.86,1.86,0,0,0-2.4,1c0,.07,0,.13-.08.19A1.8,1.8,0,0,0,86.84,106.37Z"/>
              <path class="bd49f0a9-8912-4831-b762-38cb65b06e62" d="M92,121.88a1.9,1.9,0,0,0-2.62-.27,1.8,1.8,0,0,0-.27,2.56,1.83,1.83,0,0,0,.13.16,1.88,1.88,0,0,0,1.43.66,1.85,1.85,0,0,0,1.18-.42,1.78,1.78,0,0,0,.25-2.56Z"/>
              <path class="bd49f0a9-8912-4831-b762-38cb65b06e62" d="M86.28,112.89a1.83,1.83,0,0,0,1.85-1.79v-.17a1.84,1.84,0,0,0-1.82-1.85h0a1.84,1.84,0,0,0-1.86,1.79v.19a1.83,1.83,0,0,0,1.83,1.84Z"/>
            </g>
            <g>
              <path class="bd49f0a9-8912-4831-b762-38cb65b06e62" d="M93.81,118.73a1.31,1.31,0,0,0-.2,1.85l.1.11a1.3,1.3,0,0,0,.91.46v-2.7A1.35,1.35,0,0,0,93.81,118.73Z"/>
              <path class="bd49f0a9-8912-4831-b762-38cb65b06e62" d="M93.92,101.61a1.29,1.29,0,0,0,.14,1.85,1.35,1.35,0,0,0,.56.28v-2.62a1.24,1.24,0,0,0-.6.38A.52.52,0,0,0,93.92,101.61Z"/>
              <path class="bd49f0a9-8912-4831-b762-38cb65b06e62" d="M93.6,115.22a1.34,1.34,0,0,0-1.7-.82,1.3,1.3,0,0,0-.84,1.66s0,.1,0,.14a1.34,1.34,0,0,0,1.26.88,1.42,1.42,0,0,0,.45-.08,1.3,1.3,0,0,0,.82-1.67A.76.76,0,0,1,93.6,115.22Z"/>
              <path class="bd49f0a9-8912-4831-b762-38cb65b06e62" d="M93,105.16a1.36,1.36,0,0,0-1.74.75.69.69,0,0,1,0,.13,1.3,1.3,0,0,0,.78,1.69,1.36,1.36,0,0,0,.48.09,1.33,1.33,0,0,0,1.25-.85l0-.11A1.3,1.3,0,0,0,93,105.16Z"/>
              <path class="bd49f0a9-8912-4831-b762-38cb65b06e62" d="M91.59,112.44a1.33,1.33,0,0,0,1.34-1.3V111a1.33,1.33,0,0,0-1.31-1.34h0A1.33,1.33,0,0,0,90.25,111v.14a1.32,1.32,0,0,0,1.33,1.33Z"/>
              <path class="bd49f0a9-8912-4831-b762-38cb65b06e62" d="M91.34,112.28l-.06.27.29,0h0v-.28Z"/>
              <path class="bd49f0a9-8912-4831-b762-38cb65b06e62" d="M92.06,117.18a1.1,1.1,0,0,0,.31,0v-.28a1.07,1.07,0,0,1-.25,0Z"/>
              <path class="bd49f0a9-8912-4831-b762-38cb65b06e62" d="M94.49,121l-.06.27a.58.58,0,0,0,.19,0V121Z"/>
              <path class="bd49f0a9-8912-4831-b762-38cb65b06e62" d="M92.16,107.93a1.73,1.73,0,0,0,.32,0v-.28a1.15,1.15,0,0,1-.26,0Z"/>
            </g>
          </g>
          <g>
            <g>
              <path class="bd49f0a9-8912-4831-b762-38cb65b06e62" d="M76,197.71a1.9,1.9,0,0,0-2.62-.27,1.8,1.8,0,0,0-.27,2.56l.13.15a1.89,1.89,0,0,0,2.61.25,1.78,1.78,0,0,0,.25-2.56Z"/>
              <path class="bd49f0a9-8912-4831-b762-38cb65b06e62" d="M73.14,192.72l0-.15a1.88,1.88,0,0,0-2.36-1.14,1.82,1.82,0,0,0-1.16,2.31,1.07,1.07,0,0,0,.07.19,1.86,1.86,0,0,0,1.75,1.22A1.88,1.88,0,0,0,72,195,1.8,1.8,0,0,0,73.14,192.72Z"/>
              <path class="bd49f0a9-8912-4831-b762-38cb65b06e62" d="M76.29,173.4a1.88,1.88,0,0,0-2.62.16l-.14.15a1.8,1.8,0,0,0,.19,2.57,1.93,1.93,0,0,0,1.22.44,1.87,1.87,0,0,0,1.41-.63l.1-.12A1.79,1.79,0,0,0,76.29,173.4Z"/>
              <path class="bd49f0a9-8912-4831-b762-38cb65b06e62" d="M70.31,188.72a1.85,1.85,0,0,0,1.86-1.8v-.16a1.84,1.84,0,0,0-1.82-1.86h0a1.84,1.84,0,0,0-1.86,1.78v.2a1.84,1.84,0,0,0,1.83,1.84Z"/>
              <path class="bd49f0a9-8912-4831-b762-38cb65b06e62" d="M70.88,182.2a1.82,1.82,0,0,0,.65.12,1.86,1.86,0,0,0,1.74-1.18l.06-.15a1.81,1.81,0,0,0-1.06-2.36,1.87,1.87,0,0,0-2.4,1c0,.06-.05.12-.08.19A1.8,1.8,0,0,0,70.88,182.2Z"/>
              <path class="bd49f0a9-8912-4831-b762-38cb65b06e62" d="M86.29,166.82l-.2,0a1.83,1.83,0,0,0-1.55,2.08,1.86,1.86,0,0,0,1.84,1.54,1.43,1.43,0,0,0,.29,0l.17,0a1.83,1.83,0,0,0,1.56-2.07A1.85,1.85,0,0,0,86.29,166.82Z"/>
              <path class="bd49f0a9-8912-4831-b762-38cb65b06e62" d="M93.59,167l-.2,0a1.86,1.86,0,0,0-2.18,1.45,1.83,1.83,0,0,0,1.48,2.13l.16,0a2.31,2.31,0,0,0,.37,0,1.91,1.91,0,0,0,1.4-.61v-2.4A1.94,1.94,0,0,0,93.59,167Z"/>
              <path class="bd49f0a9-8912-4831-b762-38cb65b06e62" d="M80.68,201.65l-.15-.08a1.88,1.88,0,0,0-2.55.62,1.8,1.8,0,0,0,.64,2.5l.17.1a1.89,1.89,0,0,0,.94.25,1.87,1.87,0,0,0,1.61-.9A1.8,1.8,0,0,0,80.68,201.65Z"/>
              <path class="bd49f0a9-8912-4831-b762-38cb65b06e62" d="M79.36,169.1l-.17.09a1.8,1.8,0,0,0-.72,2.48,1.89,1.89,0,0,0,2.53.7l.15-.08a1.81,1.81,0,0,0,.74-2.47A1.88,1.88,0,0,0,79.36,169.1Z"/>
            </g>
            <g>
              <path class="bd49f0a9-8912-4831-b762-38cb65b06e62" d="M91.6,201.73l.21,0,.15,0a1.32,1.32,0,0,0,1.1-1.52,1.35,1.35,0,0,0-1.55-1.07l-.12,0a1.31,1.31,0,0,0-1.11,1.5A1.32,1.32,0,0,0,91.6,201.73Z"/>
              <path class="bd49f0a9-8912-4831-b762-38cb65b06e62" d="M79.73,194.75a1.36,1.36,0,0,0-1.89-.19,1.31,1.31,0,0,0-.2,1.85l.1.11a1.35,1.35,0,0,0,1,.47,1.33,1.33,0,0,0,.86-.3,1.29,1.29,0,0,0,.18-1.84Z"/>
              <path class="bd49f0a9-8912-4831-b762-38cb65b06e62" d="M91.77,175.14l.12,0,.27,0a1.34,1.34,0,0,0,1.31-1.05,1.32,1.32,0,0,0-1-1.55l-.15,0a1.34,1.34,0,0,0-1.57,1A1.31,1.31,0,0,0,91.77,175.14Z"/>
              <path class="bd49f0a9-8912-4831-b762-38cb65b06e62" d="M77.67,191.15s0-.07,0-.11a1.36,1.36,0,0,0-1.7-.82,1.31,1.31,0,0,0-.84,1.67l0,.14a1.33,1.33,0,0,0,1.26.87,1.41,1.41,0,0,0,.45-.07A1.31,1.31,0,0,0,77.67,191.15Z"/>
              <path class="bd49f0a9-8912-4831-b762-38cb65b06e62" d="M75.61,188.27h0A1.33,1.33,0,0,0,77,187v-.12a1.33,1.33,0,0,0-1.32-1.34h0a1.34,1.34,0,0,0-1.34,1.28v.15A1.33,1.33,0,0,0,75.61,188.27Z"/>
              <path class="bd49f0a9-8912-4831-b762-38cb65b06e62" d="M79,179.6a1.36,1.36,0,0,0,1-.45l.08-.09a1.29,1.29,0,0,0-.12-1.85,1.36,1.36,0,0,0-1.89.11l-.1.11a1.3,1.3,0,0,0,.14,1.86A1.35,1.35,0,0,0,79,179.6Z"/>
              <path class="bd49f0a9-8912-4831-b762-38cb65b06e62" d="M76,183.56a1.38,1.38,0,0,0,1.73-.76l0-.12A1.29,1.29,0,0,0,77,181a1.35,1.35,0,0,0-1.74.74.78.78,0,0,1,0,.14A1.31,1.31,0,0,0,76,183.56Z"/>
              <path class="bd49f0a9-8912-4831-b762-38cb65b06e62" d="M87.22,175.09a.75.75,0,0,0,.21,0h.12a1.31,1.31,0,1,0-.39-2.6l-.15,0a1.31,1.31,0,0,0,.21,2.61Z"/>
              <path class="bd49f0a9-8912-4831-b762-38cb65b06e62" d="M81.62,199.79l.13.07a1.27,1.27,0,0,0,.68.19,1.35,1.35,0,0,0,1.15-.65,1.29,1.29,0,0,0-.47-1.8l-.11-.06a1.36,1.36,0,0,0-1.84.45A1.29,1.29,0,0,0,81.62,199.79Z"/>
              <path class="bd49f0a9-8912-4831-b762-38cb65b06e62" d="M82.69,176.63a1.29,1.29,0,0,0,.65-.17l.11-.05a1.31,1.31,0,0,0,.53-1.79,1.37,1.37,0,0,0-1.82-.52l-.13.07a1.3,1.3,0,0,0-.52,1.79A1.36,1.36,0,0,0,82.69,176.63Z"/>
              <path class="bd49f0a9-8912-4831-b762-38cb65b06e62" d="M86.54,201.63l.15,0a1,1,0,0,0,.24,0,1.33,1.33,0,0,0,1.32-1.08,1.31,1.31,0,0,0-1.08-1.52l-.12,0a1.33,1.33,0,0,0-1.57,1A1.31,1.31,0,0,0,86.54,201.63Z"/>
              <path class="bd49f0a9-8912-4831-b762-38cb65b06e62" d="M86.93,201.54a.75.75,0,0,1-.21,0h0v.28l.26,0Z"/>
              <path class="bd49f0a9-8912-4831-b762-38cb65b06e62" d="M87.22,175l-.25,0-.06.27a1.63,1.63,0,0,0,.31,0Z"/>
              <path class="bd49f0a9-8912-4831-b762-38cb65b06e62" d="M91.6,201.59a1.07,1.07,0,0,1-.25,0l-.06.27a1.1,1.1,0,0,0,.31,0Z"/>
              <path class="bd49f0a9-8912-4831-b762-38cb65b06e62" d="M92.16,175.05a1.23,1.23,0,0,1-.26,0l0,.27.3,0Z"/>
              <path class="bd49f0a9-8912-4831-b762-38cb65b06e62" d="M82.69,176.49l-.26,0-.05.27a1.55,1.55,0,0,0,.31,0Z"/>
              <path class="bd49f0a9-8912-4831-b762-38cb65b06e62" d="M76.4,192.77l-.25,0-.06.27.31,0Z"/>
              <path class="bd49f0a9-8912-4831-b762-38cb65b06e62" d="M76.51,183.51a1.15,1.15,0,0,1-.26,0l-.06.27a1.73,1.73,0,0,0,.32,0Z"/>
              <path class="bd49f0a9-8912-4831-b762-38cb65b06e62" d="M82.43,199.91a1.15,1.15,0,0,1-.26,0l-.06.27a1.73,1.73,0,0,0,.32,0Z"/>
              <path class="bd49f0a9-8912-4831-b762-38cb65b06e62" d="M75.62,188.4v-.27a1,1,0,0,1-.24,0l-.06.27.29,0Z"/>
              <path class="bd49f0a9-8912-4831-b762-38cb65b06e62" d="M78.77,196.86a1.07,1.07,0,0,1-.25,0l-.06.27a1.63,1.63,0,0,0,.31,0Z"/>
              <path class="bd49f0a9-8912-4831-b762-38cb65b06e62" d="M79,179.47a1.07,1.07,0,0,1-.25,0l-.06.27a1.63,1.63,0,0,0,.31,0Z"/>
            </g>
            <path class="bd49f0a9-8912-4831-b762-38cb65b06e62" d="M89.86,190.1a.26.26,0,0,1-.27-.23.27.27,0,0,1,.22-.31h0a.28.28,0,0,1,.32.22.27.27,0,0,1-.23.31h-.07Zm-1,0h-.08a.27.27,0,0,1-.22-.31.27.27,0,0,1,.32-.22h0a.26.26,0,0,1,.22.31A.28.28,0,0,1,88.9,190.09Zm1.89-.31a.29.29,0,0,1-.24-.13.27.27,0,0,1,.11-.37h0a.29.29,0,0,1,.38.09.27.27,0,0,1-.11.37l0,0A.35.35,0,0,1,90.79,189.78Zm-2.82,0a.32.32,0,0,1-.14,0l0,0a.26.26,0,0,1-.09-.37.28.28,0,0,1,.38-.09h0a.28.28,0,0,1,.1.37A.27.27,0,0,1,88,189.75Zm3.59-.58a.24.24,0,0,1-.18-.07.26.26,0,0,1,0-.38h0a.28.28,0,0,1,.39,0,.26.26,0,0,1,0,.38l0,0A.29.29,0,0,1,91.56,189.17Zm-4.34,0A.32.32,0,0,1,87,189l0,0a.27.27,0,0,1,0-.38.26.26,0,0,1,.38,0h0a.26.26,0,0,1,0,.38A.23.23,0,0,1,87.22,189.13Zm4.84-.79-.09,0a.27.27,0,0,1-.17-.35v0a.29.29,0,0,1,.36-.16.27.27,0,0,1,.16.35v0A.28.28,0,0,1,92.06,188.34Zm-5.33-.06a.27.27,0,0,1-.26-.18v0a.28.28,0,0,1,.52-.18v0a.27.27,0,0,1-.17.35Zm5.51-.89h0a.28.28,0,0,1-.27-.28v0a.28.28,0,0,1,.55,0v0A.27.27,0,0,1,92.24,187.39Zm-5.67-.06h0a.27.27,0,0,1-.27-.27v0a.28.28,0,0,1,.28-.27h0a.27.27,0,0,1,.27.28v0A.27.27,0,0,1,86.57,187.33Zm5.53-.84a.28.28,0,0,1-.26-.19v0a.27.27,0,0,1,.52-.17v0a.26.26,0,0,1-.17.34Zm-5.35-.11-.1,0a.27.27,0,0,1-.16-.35v0a.29.29,0,0,1,.36-.15.27.27,0,0,1,.16.35v0A.28.28,0,0,1,86.75,186.38Zm4.88-.74a.26.26,0,0,1-.21-.11l0,0a.26.26,0,0,1,0-.38.28.28,0,0,1,.39.05l0,0a.28.28,0,0,1-.22.44Zm-4.37-.09a.29.29,0,0,1-.18-.07.26.26,0,0,1,0-.38l0,0a.27.27,0,0,1,.39,0,.27.27,0,0,1,0,.38v0A.32.32,0,0,1,87.26,185.55Zm3.63-.56a.23.23,0,0,1-.14,0h0a.27.27,0,0,1-.1-.37.28.28,0,0,1,.38-.09h0a.27.27,0,0,1,.09.37A.26.26,0,0,1,90.89,185ZM88,184.93a.29.29,0,0,1-.24-.13.27.27,0,0,1,.11-.37l0,0a.29.29,0,0,1,.38.11.28.28,0,0,1-.11.37h0A.35.35,0,0,1,88,184.93Zm2-.29h-.08a.28.28,0,0,1-.22-.32.28.28,0,0,1,.33-.21h0a.27.27,0,0,1-.06.54Zm-1,0a.29.29,0,0,1-.28-.23.27.27,0,0,1,.23-.31h0a.28.28,0,0,1,.32.22.27.27,0,0,1-.24.31H89Z"/>
            <g>
              <path class="bd49f0a9-8912-4831-b762-38cb65b06e62" d="M85.62,190.09a.53.53,0,0,0-.74-.08.51.51,0,0,0-.08.72l0,.05a.52.52,0,0,0,.4.18.53.53,0,0,0,.34-.11.52.52,0,0,0,.07-.73Z"/>
              <path class="bd49f0a9-8912-4831-b762-38cb65b06e62" d="M84.81,188.68v0a.54.54,0,0,0-.67-.33.53.53,0,0,0-.33.66l0,.05a.53.53,0,0,0,.5.34.47.47,0,0,0,.17,0A.5.5,0,0,0,84.81,188.68Z"/>
              <path class="bd49f0a9-8912-4831-b762-38cb65b06e62" d="M85,183.27l0,0a.52.52,0,0,0,.4.85.53.53,0,0,0,.4-.18l0,0a.51.51,0,0,0,0-.73A.52.52,0,0,0,85,183.27Z"/>
              <path class="bd49f0a9-8912-4831-b762-38cb65b06e62" d="M94,188.73l0,0a.51.51,0,0,0,.31.66.58.58,0,0,0,.19,0l.16,0v-1A.53.53,0,0,0,94,188.73Z"/>
              <path class="bd49f0a9-8912-4831-b762-38cb65b06e62" d="M94.34,184.9a.5.5,0,0,0-.32.65v0a.53.53,0,0,0,.5.36h.09v-1.06A.67.67,0,0,0,94.34,184.9Z"/>
              <path class="bd49f0a9-8912-4831-b762-38cb65b06e62" d="M86.94,191.2l0,0a.53.53,0,0,0-.72.17.51.51,0,0,0,.18.71l0,0a.59.59,0,0,0,.26.07.53.53,0,0,0,.46-.26A.51.51,0,0,0,86.94,191.2Z"/>
              <path class="bd49f0a9-8912-4831-b762-38cb65b06e62" d="M84,187.55a.53.53,0,0,0,.53-.51v0a.53.53,0,0,0-.52-.52h0a.51.51,0,0,0-.52.5V187a.52.52,0,0,0,.52.52Z"/>
              <path class="bd49f0a9-8912-4831-b762-38cb65b06e62" d="M84.17,185.71a.63.63,0,0,0,.19,0,.53.53,0,0,0,.49-.33l0,0a.51.51,0,0,0-.3-.66.53.53,0,0,0-.68.29l0,0A.51.51,0,0,0,84.17,185.71Z"/>
              <path class="bd49f0a9-8912-4831-b762-38cb65b06e62" d="M86.57,182l0,0a.51.51,0,0,0-.2.7.52.52,0,0,0,.46.27.59.59,0,0,0,.25-.07l0,0a.51.51,0,0,0,.21-.7A.52.52,0,0,0,86.57,182Z"/>
              <path class="bd49f0a9-8912-4831-b762-38cb65b06e62" d="M93.13,190.16l0,0a.5.5,0,0,0,.05.72.52.52,0,0,0,.74,0l0,0a.51.51,0,0,0-.06-.73A.54.54,0,0,0,93.13,190.16Z"/>
              <path class="bd49f0a9-8912-4831-b762-38cb65b06e62" d="M94.05,183.5l0-.05a.53.53,0,0,0-.74-.07.5.5,0,0,0-.07.72l0,0a.53.53,0,0,0,.41.19.54.54,0,0,0,.32-.11A.5.5,0,0,0,94.05,183.5Z"/>
              <path class="bd49f0a9-8912-4831-b762-38cb65b06e62" d="M92.51,182.16l-.05,0a.53.53,0,0,0-.72.17.51.51,0,0,0,.18.71l0,0a.52.52,0,0,0,.72-.17A.51.51,0,0,0,92.51,182.16Z"/>
              <path class="bd49f0a9-8912-4831-b762-38cb65b06e62" d="M94.28,187.09v0a.5.5,0,0,0,.34.48v-1A.52.52,0,0,0,94.28,187.09Z"/>
              <path class="bd49f0a9-8912-4831-b762-38cb65b06e62" d="M90.59,181.41h-.06a.52.52,0,0,0-.61.41.51.51,0,0,0,.41.6h.15A.53.53,0,0,0,91,182,.52.52,0,0,0,90.59,181.41Z"/>
              <path class="bd49f0a9-8912-4831-b762-38cb65b06e62" d="M91.82,191.23l0,0a.51.51,0,0,0-.2.7.53.53,0,0,0,.46.26.58.58,0,0,0,.26-.06l0,0a.5.5,0,0,0,.19-.7A.53.53,0,0,0,91.82,191.23Z"/>
              <path class="bd49f0a9-8912-4831-b762-38cb65b06e62" d="M90.23,191.79h0a.5.5,0,0,0-.43.58.52.52,0,0,0,.51.44h.15a.51.51,0,1,0-.18-1Z"/>
              <path class="bd49f0a9-8912-4831-b762-38cb65b06e62" d="M88.53,181.36h-.06a.51.51,0,0,0,.08,1h.13a.5.5,0,0,0,.44-.58A.52.52,0,0,0,88.53,181.36Z"/>
              <path class="bd49f0a9-8912-4831-b762-38cb65b06e62" d="M88.53,191.78h0a.53.53,0,0,0-.62.41.51.51,0,0,0,.42.6h.15a.52.52,0,0,0,.51-.42A.51.51,0,0,0,88.53,191.78Z"/>
            </g>
            <g>
              <path class="bd49f0a9-8912-4831-b762-38cb65b06e62" d="M81.7,189.75l0-.07a.88.88,0,0,0-1.12-.53.86.86,0,0,0-.55,1.09.36.36,0,0,0,0,.09.87.87,0,0,0,.83.57.77.77,0,0,0,.29-.05A.85.85,0,0,0,81.7,189.75Z"/>
              <path class="bd49f0a9-8912-4831-b762-38cb65b06e62" d="M80.36,187.86a.87.87,0,0,0,.88-.85v-.08a.86.86,0,0,0-.86-.88h0a.88.88,0,0,0-.88.85V187a.88.88,0,0,0,.87.87Z"/>
              <path class="bd49f0a9-8912-4831-b762-38cb65b06e62" d="M83.06,192.12a.9.9,0,0,0-1.24-.13.84.84,0,0,0-.13,1.21l.06.07a.88.88,0,0,0,.68.32.91.91,0,0,0,.56-.2.85.85,0,0,0,.12-1.21Z"/>
              <path class="bd49f0a9-8912-4831-b762-38cb65b06e62" d="M80.63,184.77a.85.85,0,0,0,.31.06.89.89,0,0,0,.83-.56l0-.07a.85.85,0,0,0-.5-1.12.89.89,0,0,0-1.14.49l0,.09A.86.86,0,0,0,80.63,184.77Z"/>
              <path class="bd49f0a9-8912-4831-b762-38cb65b06e62" d="M93.46,194l-.07,0a.85.85,0,0,0-.33,1.17.88.88,0,0,0,.76.44.92.92,0,0,0,.43-.11l.09,0a1,1,0,0,0,.28-.25v-1A.9.9,0,0,0,93.46,194Z"/>
              <path class="bd49f0a9-8912-4831-b762-38cb65b06e62" d="M87.94,195h-.08a.88.88,0,0,0-1,.68.86.86,0,0,0,.7,1l.09,0h.16a.86.86,0,0,0,.16-1.71Z"/>
              <path class="bd49f0a9-8912-4831-b762-38cb65b06e62" d="M90.79,195h-.08a.86.86,0,0,0,.14,1.71h.23a.86.86,0,1,0-.29-1.7Z"/>
              <path class="bd49f0a9-8912-4831-b762-38cb65b06e62" d="M91.39,177.58l-.1,0a.87.87,0,0,0-1,.68.86.86,0,0,0,.7,1H91a.5.5,0,0,0,.17,0,.87.87,0,0,0,.86-.69A.85.85,0,0,0,91.39,177.58Z"/>
              <path class="bd49f0a9-8912-4831-b762-38cb65b06e62" d="M82,180.68l-.06.07A.85.85,0,0,0,82,182a.89.89,0,0,0,.57.21.87.87,0,0,0,.67-.3l0-.06a.85.85,0,0,0-.07-1.21A.89.89,0,0,0,82,180.68Z"/>
              <path class="bd49f0a9-8912-4831-b762-38cb65b06e62" d="M94.6,178.82l-.08,0a.9.9,0,0,0-1.21.3.86.86,0,0,0,.3,1.18l.07,0a1,1,0,0,0,.46.13,1,1,0,0,0,.48-.14v-1.45Z"/>
              <path class="bd49f0a9-8912-4831-b762-38cb65b06e62" d="M85.27,194l-.07,0a.89.89,0,0,0-1.2.3.84.84,0,0,0,.3,1.18l.08.05a.89.89,0,0,0,.45.12.88.88,0,0,0,.76-.43A.86.86,0,0,0,85.27,194Z"/>
              <path class="bd49f0a9-8912-4831-b762-38cb65b06e62" d="M84.65,178.57l-.08,0a.85.85,0,0,0-.34,1.18.89.89,0,0,0,.77.44,1,1,0,0,0,.43-.11l.07,0a.85.85,0,0,0,.34-1.17A.88.88,0,0,0,84.65,178.57Z"/>
              <path class="bd49f0a9-8912-4831-b762-38cb65b06e62" d="M87.93,177.49h-.09a.86.86,0,0,0,.13,1.72h.14l.08,0a.86.86,0,0,0,.74-1A.88.88,0,0,0,87.93,177.49Z"/>
            </g>
          </g>
          <g>
            <g>
              <path class="bd49f0a9-8912-4831-b762-38cb65b06e62" d="M62.47,109.49a1.88,1.88,0,0,0-2.62.22l-.11.12a1.8,1.8,0,0,0,.19,2.57,2,2,0,0,0,1.22.44,1.91,1.91,0,0,0,1.41-.63s.09-.1.13-.16A1.79,1.79,0,0,0,62.47,109.49Z"/>
              <path class="bd49f0a9-8912-4831-b762-38cb65b06e62" d="M55.23,113.48l-.14.08a1.78,1.78,0,0,0-.71,2.47,1.89,1.89,0,0,0,2.53.7l.18-.1a1.79,1.79,0,0,0,.68-2.48A1.88,1.88,0,0,0,55.23,113.48Z"/>
              <path class="bd49f0a9-8912-4831-b762-38cb65b06e62" d="M65.25,103.54a1.86,1.86,0,0,0-2.38,1.08l-.06.16a1.8,1.8,0,0,0,1.08,2.34,1.92,1.92,0,0,0,.66.12,1.86,1.86,0,0,0,1.74-1.18c0-.06,0-.12.07-.19A1.81,1.81,0,0,0,65.25,103.54Z"/>
              <path class="bd49f0a9-8912-4831-b762-38cb65b06e62" d="M49.59,115.46l-.17,0a1.81,1.81,0,0,0,.29,3.61,1.51,1.51,0,0,0,.3,0l.2,0a1.83,1.83,0,0,0,1.52-2.1A1.86,1.86,0,0,0,49.59,115.46Z"/>
              <path class="bd49f0a9-8912-4831-b762-38cb65b06e62" d="M27.55,100.45h0a1.86,1.86,0,0,0,1.58-.86H26A1.88,1.88,0,0,0,27.55,100.45Z"/>
              <path class="bd49f0a9-8912-4831-b762-38cb65b06e62" d="M65.75,100.83h0a1.85,1.85,0,0,0,1.76-1.24H64A1.83,1.83,0,0,0,65.75,100.83Z"/>
              <path class="bd49f0a9-8912-4831-b762-38cb65b06e62" d="M30.41,104.45l-.06-.15A1.87,1.87,0,0,0,28,103.16a1.82,1.82,0,0,0-1.16,2.31c0,.07.05.13.07.19a1.86,1.86,0,0,0,1.75,1.22,1.88,1.88,0,0,0,.62-.11A1.81,1.81,0,0,0,30.41,104.45Z"/>
              <path class="bd49f0a9-8912-4831-b762-38cb65b06e62" d="M33.26,109.44a1.88,1.88,0,0,0-2.61-.27,1.8,1.8,0,0,0-.28,2.56l.13.15a1.9,1.9,0,0,0,2.62.25,1.8,1.8,0,0,0,.25-2.56Z"/>
              <path class="bd49f0a9-8912-4831-b762-38cb65b06e62" d="M37.94,113.38l-.14-.08a1.88,1.88,0,0,0-2.55.62,1.8,1.8,0,0,0,.63,2.5l.18.1a1.88,1.88,0,0,0,2.54-.65A1.8,1.8,0,0,0,37.94,113.38Z"/>
              <path class="bd49f0a9-8912-4831-b762-38cb65b06e62" d="M43.57,115.43l-.16,0a1.87,1.87,0,0,0-2.18,1.44A1.83,1.83,0,0,0,42.7,119l.21,0a1.82,1.82,0,1,0,.66-3.58Z"/>
            </g>
            <g>
              <path class="bd49f0a9-8912-4831-b762-38cb65b06e62" d="M52.85,109.4l-.1,0a1.3,1.3,0,0,0-.52,1.79,1.35,1.35,0,0,0,1.17.67,1.4,1.4,0,0,0,.66-.16l.13-.08a1.29,1.29,0,0,0,.49-1.79A1.36,1.36,0,0,0,52.85,109.4Z"/>
              <path class="bd49f0a9-8912-4831-b762-38cb65b06e62" d="M56.18,106.68l-.07.08a1.3,1.3,0,0,0,.13,1.86,1.4,1.4,0,0,0,.88.32,1.37,1.37,0,0,0,1-.46l.09-.11a1.29,1.29,0,0,0-.16-1.85A1.35,1.35,0,0,0,56.18,106.68Z"/>
              <path class="bd49f0a9-8912-4831-b762-38cb65b06e62" d="M60.08,102.23a1.35,1.35,0,0,0-1.72.78l0,.11a1.31,1.31,0,0,0,.78,1.69,1.37,1.37,0,0,0,1.73-.77s0-.09.05-.13A1.29,1.29,0,0,0,60.08,102.23Z"/>
              <path class="bd49f0a9-8912-4831-b762-38cb65b06e62" d="M48.77,110.83l-.12,0a1.31,1.31,0,0,0-1.11,1.5,1.34,1.34,0,0,0,1.32,1.11l.22,0,.14,0a1.32,1.32,0,0,0,1.1-1.52A1.34,1.34,0,0,0,48.77,110.83Z"/>
              <path class="bd49f0a9-8912-4831-b762-38cb65b06e62" d="M40.37,109.33l-.1-.06a1.37,1.37,0,0,0-1.85.45,1.3,1.3,0,0,0,.46,1.8l.13.07a1.29,1.29,0,0,0,.68.18,1.36,1.36,0,0,0,1.16-.64A1.3,1.3,0,0,0,40.37,109.33Z"/>
              <path class="bd49f0a9-8912-4831-b762-38cb65b06e62" d="M32.87,100h0a1.33,1.33,0,0,0,1-.41H31.92A1.34,1.34,0,0,0,32.87,100Z"/>
              <path class="bd49f0a9-8912-4831-b762-38cb65b06e62" d="M34.93,102.88a.76.76,0,0,0,0-.11,1.36,1.36,0,0,0-1.7-.82,1.31,1.31,0,0,0-.84,1.67.78.78,0,0,1,0,.14,1.35,1.35,0,0,0,1.27.87,1.41,1.41,0,0,0,.45-.07A1.31,1.31,0,0,0,34.93,102.88Z"/>
              <path class="bd49f0a9-8912-4831-b762-38cb65b06e62" d="M60.44,100.27h0a1.35,1.35,0,0,0,1.17-.68H59.28A1.34,1.34,0,0,0,60.44,100.27Z"/>
              <path class="bd49f0a9-8912-4831-b762-38cb65b06e62" d="M37,106.48a1.35,1.35,0,0,0-1.88-.19,1.28,1.28,0,0,0-.2,1.84l.09.12a1.37,1.37,0,0,0,1.89.17,1.29,1.29,0,0,0,.18-1.84Z"/>
              <path class="bd49f0a9-8912-4831-b762-38cb65b06e62" d="M44.43,110.81l-.11,0a1.34,1.34,0,0,0-1.58,1,1.31,1.31,0,0,0,1.07,1.53l.14,0,.25,0a1.32,1.32,0,0,0,1.31-1.08A1.3,1.3,0,0,0,44.43,110.81Z"/>
              <path class="bd49f0a9-8912-4831-b762-38cb65b06e62" d="M59.26,105a1.63,1.63,0,0,0,.31,0v-.27a1.07,1.07,0,0,1-.25,0Z"/>
              <path class="bd49f0a9-8912-4831-b762-38cb65b06e62" d="M56.81,109a1.55,1.55,0,0,0,.31,0v-.27a1,1,0,0,1-.25,0Z"/>
              <path class="bd49f0a9-8912-4831-b762-38cb65b06e62" d="M60.2,100.11l-.06.27a1.53,1.53,0,0,0,.3,0h0v-.28Z"/>
              <path class="bd49f0a9-8912-4831-b762-38cb65b06e62" d="M53.09,112l.31,0v-.28a1.06,1.06,0,0,1-.25,0Z"/>
              <path class="bd49f0a9-8912-4831-b762-38cb65b06e62" d="M48.55,113.56a1.15,1.15,0,0,0,.31,0v-.28a1.07,1.07,0,0,1-.25,0Z"/>
              <path class="bd49f0a9-8912-4831-b762-38cb65b06e62" d="M32.63,99.83l-.06.27a1.53,1.53,0,0,0,.3,0h0l0-.27A1,1,0,0,1,32.63,99.83Z"/>
              <path class="bd49f0a9-8912-4831-b762-38cb65b06e62" d="M33.36,104.74a1.55,1.55,0,0,0,.31,0v-.28a1,1,0,0,1-.25,0Z"/>
              <path class="bd49f0a9-8912-4831-b762-38cb65b06e62" d="M35.73,108.83a1.55,1.55,0,0,0,.31,0v-.28a1.14,1.14,0,0,1-.26,0Z"/>
              <path class="bd49f0a9-8912-4831-b762-38cb65b06e62" d="M43.94,113.25v.28l.27,0v-.28a.78.78,0,0,1-.22,0Z"/>
              <path class="bd49f0a9-8912-4831-b762-38cb65b06e62" d="M39.38,111.88a1.55,1.55,0,0,0,.31,0v-.27a1,1,0,0,1-.25,0Z"/>
            </g>
            <g>
              <path class="bd49f0a9-8912-4831-b762-38cb65b06e62" d="M47.1,101.29h0a.28.28,0,0,0-.23.31.27.27,0,0,0,.27.23h.08a.26.26,0,0,0,.22-.31A.28.28,0,0,0,47.1,101.29Z"/>
              <path class="bd49f0a9-8912-4831-b762-38cb65b06e62" d="M47.94,101l0,0a.27.27,0,0,0-.11.36.3.3,0,0,0,.25.14.31.31,0,0,0,.13,0l0,0a.27.27,0,0,0,.1-.37A.3.3,0,0,0,47.94,101Z"/>
              <path class="bd49f0a9-8912-4831-b762-38cb65b06e62" d="M46.21,101.29h0a.28.28,0,0,0-.33.21.27.27,0,0,0,.22.32h.08a.27.27,0,0,0,.27-.22A.26.26,0,0,0,46.21,101.29Z"/>
              <path class="bd49f0a9-8912-4831-b762-38cb65b06e62" d="M48.63,100.43l0,0a.27.27,0,0,0,0,.38.26.26,0,0,0,.18.07.27.27,0,0,0,.21-.09l0,0a.27.27,0,0,0,0-.38A.29.29,0,0,0,48.63,100.43Z"/>
              <path class="bd49f0a9-8912-4831-b762-38cb65b06e62" d="M43.72,99.81v0A.28.28,0,0,0,44,100h.09a.27.27,0,0,0,.17-.35v0l0,0h-.48A.32.32,0,0,0,43.72,99.81Z"/>
              <path class="bd49f0a9-8912-4831-b762-38cb65b06e62" d="M45.37,101h0a.28.28,0,0,0-.38.09.27.27,0,0,0,.1.37l0,0a.35.35,0,0,0,.14,0,.26.26,0,0,0,.24-.13A.27.27,0,0,0,45.37,101Z"/>
              <path class="bd49f0a9-8912-4831-b762-38cb65b06e62" d="M49.07,99.7a.27.27,0,0,0,.16.35l.1,0a.27.27,0,0,0,.25-.18l0,0a.31.31,0,0,0-.06-.28h-.41a.19.19,0,0,0-.05.09Z"/>
              <path class="bd49f0a9-8912-4831-b762-38cb65b06e62" d="M44.68,100.39a.29.29,0,0,0-.39,0,.26.26,0,0,0,0,.38l0,0a.28.28,0,0,0,.21.1.27.27,0,0,0,.18-.07.27.27,0,0,0,0-.38Z"/>
            </g>
            <g>
              <path class="bd49f0a9-8912-4831-b762-38cb65b06e62" d="M49.09,103l0,0a.5.5,0,0,0-.2.7.5.5,0,0,0,.45.26.58.58,0,0,0,.26-.06l0,0a.51.51,0,0,0,.2-.7A.53.53,0,0,0,49.09,103Z"/>
              <path class="bd49f0a9-8912-4831-b762-38cb65b06e62" d="M47.49,103.52h0a.5.5,0,0,0-.44.58.52.52,0,0,0,.52.44h.14a.52.52,0,0,0,.43-.59A.52.52,0,0,0,47.49,103.52Z"/>
              <path class="bd49f0a9-8912-4831-b762-38cb65b06e62" d="M42.08,100.41l0,0a.54.54,0,0,0-.67-.32.52.52,0,0,0-.32.66l0,0a.52.52,0,0,0,.49.34.57.57,0,0,0,.18,0A.51.51,0,0,0,42.08,100.41Z"/>
              <path class="bd49f0a9-8912-4831-b762-38cb65b06e62" d="M51.92,100.15a.53.53,0,0,0-.68.31v0a.51.51,0,0,0,.3.66.72.72,0,0,0,.19,0,.53.53,0,0,0,.49-.34l0,0A.51.51,0,0,0,51.92,100.15Z"/>
              <path class="bd49f0a9-8912-4831-b762-38cb65b06e62" d="M50.39,101.89l0,0a.52.52,0,0,0,.4.85.53.53,0,0,0,.4-.18l0,0a.5.5,0,0,0-.06-.72A.54.54,0,0,0,50.39,101.89Z"/>
              <path class="bd49f0a9-8912-4831-b762-38cb65b06e62" d="M45.79,103.51h0a.53.53,0,0,0-.62.41.52.52,0,0,0,.42.6h.15a.54.54,0,0,0,.52-.42A.52.52,0,0,0,45.79,103.51Z"/>
              <path class="bd49f0a9-8912-4831-b762-38cb65b06e62" d="M42.88,101.82a.53.53,0,0,0-.74-.08.5.5,0,0,0-.07.72l0,.05a.55.55,0,0,0,.41.18.57.57,0,0,0,.33-.11.5.5,0,0,0,.07-.73Z"/>
              <path class="bd49f0a9-8912-4831-b762-38cb65b06e62" d="M44.2,102.93l0,0a.53.53,0,0,0-.72.17.51.51,0,0,0,.18.71l.05,0a.68.68,0,0,0,.27.07.52.52,0,0,0,.45-.26A.5.5,0,0,0,44.2,102.93Z"/>
            </g>
            <g>
              <path class="bd49f0a9-8912-4831-b762-38cb65b06e62" d="M50.72,105.76l-.06,0a.84.84,0,0,0-.34,1.17.89.89,0,0,0,.77.44,1,1,0,0,0,.43-.11l.08,0a.85.85,0,0,0,.33-1.17A.89.89,0,0,0,50.72,105.76Z"/>
              <path class="bd49f0a9-8912-4831-b762-38cb65b06e62" d="M52.91,104l0,.06a.85.85,0,0,0,.09,1.22.89.89,0,0,0,1.24-.09l.07-.08a.85.85,0,0,0-.11-1.21A.89.89,0,0,0,52.91,104Z"/>
              <path class="bd49f0a9-8912-4831-b762-38cb65b06e62" d="M55.71,99.77a.9.9,0,0,0,.54-.18H55.18a.87.87,0,0,0,.53.18Z"/>
              <path class="bd49f0a9-8912-4831-b762-38cb65b06e62" d="M55.47,101.05a.89.89,0,0,0-1.13.52l0,.07a.86.86,0,0,0,.52,1.11.81.81,0,0,0,.31,0,.88.88,0,0,0,.82-.55l0-.09A.86.86,0,0,0,55.47,101.05Z"/>
              <path class="bd49f0a9-8912-4831-b762-38cb65b06e62" d="M48.05,106.7H48a.86.86,0,0,0,.14,1.71h.23a.86.86,0,1,0-.29-1.7Z"/>
              <polygon class="bd49f0a9-8912-4831-b762-38cb65b06e62" points="37.63 99.59 37.63 99.59 37.61 99.59 37.62 99.59 37.63 99.59"/>
              <path class="bd49f0a9-8912-4831-b762-38cb65b06e62" d="M45.2,106.68h-.07a.89.89,0,0,0-1,.68.86.86,0,0,0,.7,1l.1,0h.16a.88.88,0,0,0,.86-.71A.87.87,0,0,0,45.2,106.68Z"/>
              <path class="bd49f0a9-8912-4831-b762-38cb65b06e62" d="M40.32,103.85a.89.89,0,0,0-1.24-.13.85.85,0,0,0-.13,1.21L39,105a.88.88,0,0,0,1.24.12.84.84,0,0,0,.12-1.21Z"/>
              <path class="bd49f0a9-8912-4831-b762-38cb65b06e62" d="M39,101.48l0-.07a.88.88,0,0,0-1.11-.54.87.87,0,0,0-.55,1.1l0,.09a.89.89,0,0,0,.83.57.71.71,0,0,0,.29,0A.86.86,0,0,0,39,101.48Z"/>
              <path class="bd49f0a9-8912-4831-b762-38cb65b06e62" d="M42.54,105.71l-.07,0a.9.9,0,0,0-1.21.3.84.84,0,0,0,.3,1.18l.08,0a.92.92,0,0,0,.45.12.87.87,0,0,0,.76-.43A.85.85,0,0,0,42.54,105.71Z"/>
            </g>
          </g>
          <ellipse class="bd49f0a9-8912-4831-b762-38cb65b06e62" cx="-7.66" cy="164.77" rx="9.86" ry="9.64"/>
          <ellipse class="bd49f0a9-8912-4831-b762-38cb65b06e62" cx="39.12" cy="129.79" rx="3.51" ry="3.43"/>
          <path class="bd49f0a9-8912-4831-b762-38cb65b06e62" d="M91.21,149.77a4.17,4.17,0,0,0,3.41,4.07V145.7A4.17,4.17,0,0,0,91.21,149.77Z"/>
          <ellipse class="bd49f0a9-8912-4831-b762-38cb65b06e62" cx="59.98" cy="175.74" rx="7.33" ry="7.17"/>
          <ellipse class="bd49f0a9-8912-4831-b762-38cb65b06e62" cx="74.93" cy="112.57" rx="4.33" ry="4.24"/>
          <ellipse class="bd49f0a9-8912-4831-b762-38cb65b06e62" cx="37.69" cy="155.26" rx="4.33" ry="4.24"/>
          <ellipse class="bd49f0a9-8912-4831-b762-38cb65b06e62" cx="8.51" cy="205.77" rx="4.33" ry="4.24"/>
          <ellipse class="bd49f0a9-8912-4831-b762-38cb65b06e62" cx="20.95" cy="113.23" rx="4.33" ry="4.24"/>
        </g>
      </g>
      <path class="aed60881-8d93-4970-802b-e8ed74bd8986" d="M71.79,340.31l-2.42-4.95-1.82-3.83-.14-.18c-8.44-17.3-26.76-55-33.55-69.8-8.93-19.55-9-37.34-22.3-34.8-3.92.75-12.33,20-15.28,34.59s-16.88,47-21.38,60.14c-2.32,6.8-4.78,15-6.62,21.37l-.12,0-.95,3.73c-1.14,4-1.86,6.64-1.86,6.64s8.09-.27,20.08,3l-.3,0-2,23s0-.11,0-.26l0,.26s-2.24,6.84,22.3,4.71c4.81-.42,9-.75,12.63-1,.79,9.7,1.84,22.33,2.29,26.82.75,7.57-.25,20.28-.25,20.28s13-7.23,22-17.1c8-8.75,12.92-13.88,11.74-19l0,.06,0-.12v0l0-.1c-.21-1.26-.89-5.36-1.82-10.84L51.12,377s-.06-.13-.19-.35c-.32-1.85-.65-3.77-1-5.74l-1.45-9-.12,0c-.42-2.41-.83-4.77-1.23-7,6.51-.92,14.85-2.25,18.4-3.5C71.8,349.12,74.05,344.72,71.79,340.31Z"/>
    </g>
  </g>
</svg>
