<svg xmlns="http://www.w3.org/2000/svg" width="147" height="214" viewBox="0 0 147 214">
  <defs>
    <style>
      .b9122ec3-f443-41cf-a16d-3cfc33d102f6 {
        fill: #26221a;
      }

      .bc8d63e1-7bc0-4d0f-8a08-8cc3eb8552e7 {
        fill: #a0e044;
        stroke: #3caf28;
      }

      .b1101289-6a58-415e-b1b9-0652014b116b, .bc8d63e1-7bc0-4d0f-8a08-8cc3eb8552e7, .bd75c436-c062-404a-bee2-8d07acc0642a, .e192bbae-3081-4742-8ce0-1c919c74dadd {
        stroke-miterlimit: 10;
      }

      .b01fa492-5caa-4a47-b689-f61bb1d50882, .f0da500f-bb01-48b8-adc6-d504a1041486 {
        fill: #3caf28;
      }

      .f0da500f-bb01-48b8-adc6-d504a1041486, .fa06ea3e-6204-4e2d-b9b4-e52c279d2a60 {
        opacity: 0.54;
      }

      .fcd665f7-0326-4a94-af54-5a0eaec808d3 {
        fill: #317c15;
        opacity: 0.15;
      }

      .a200fc35-4f09-460d-9d81-672b83667fdd, .b1101289-6a58-415e-b1b9-0652014b116b {
        fill: #55c935;
      }

      .a62708b2-cadb-4549-b5d7-74d138879c45 {
        fill: #898c20;
      }

      .a01f62f1-51fd-443c-8adf-fc2f74e8f284, .bd75c436-c062-404a-bee2-8d07acc0642a {
        fill: #f1e91a;
      }

      .a321563a-f1ed-4645-99c5-da6df6eef752 {
        fill: #db961d;
      }

      .fe4056a5-6c80-4c0a-974e-69b126f2689b {
        fill: #fff;
      }

      .b1101289-6a58-415e-b1b9-0652014b116b {
        stroke: #898c20;
      }

      .bd75c436-c062-404a-bee2-8d07acc0642a {
        stroke: #db961d;
      }

      .e192bbae-3081-4742-8ce0-1c919c74dadd {
        fill: #dc7d2f;
        stroke: #8d4d21;
      }

      .fada89a2-e29c-4f46-ba51-ed6312b40377 {
        fill: #8d4d21;
      }
    </style>
  </defs>
  <g id="b033a71d-7811-4a8a-842b-32fac81c8c77" data-name="Layer 21">
    <g>
      <path class="b9122ec3-f443-41cf-a16d-3cfc33d102f6" d="M65.22,1.46a6.08,6.08,0,0,1,3.92,1.45s.1,0,.16,0A14.57,14.57,0,0,1,71.38,3,7.61,7.61,0,0,0,57.61,7.43,7.58,7.58,0,0,0,65.22,15V13.4a6,6,0,0,1-6-6,6,6,0,0,1,6-6"/>
      <rect class="b9122ec3-f443-41cf-a16d-3cfc33d102f6" x="63.91" y="13.57" width="1.57" height="6.4"/>
      <polygon class="b9122ec3-f443-41cf-a16d-3cfc33d102f6" points="93.31 32.48 64.02 21.55 65.2 21.56 32.85 34.44 32.39 33.13 64.05 18.33 64.64 18.06 65.23 18.34 93.8 31.17 93.31 32.48"/>
      <path class="bc8d63e1-7bc0-4d0f-8a08-8cc3eb8552e7" d="M30.19,104.23S3.17,161.09,1.56,203c1.8,4.08,5.32,4.73,11.29,2.42,1.57,4.48,7.69,4.38,12.9,2.42,7.12-2,7.5-.59,15.33,3.23,4,2.54,11,2.22,14.52-.81,2.64,3.34,8.32,4.57,11.64,2.64a18.18,18.18,0,0,1,4-1.84c6-1.73,8.54-1.92,14.2,1.62,3.49,1.64,12.5.56,13.71-2.42,2.34,3.11,6.52,1.59,10.48,0,4.4-4.25,6.46-5.65,11.3-4.84.6.1,2.64.66,3.22.81,3.23.8,8,.74,8.88-1.62,3.5.45,6.62-.43,6.45-2.42,4.4,1.11,6.86-2.82,5.65-5.64,0,0-22.59-79.86-40.74-95.59Z"/>
      <path class="f0da500f-bb01-48b8-adc6-d504a1041486" d="M105.61,114.31c3.59,6.73,6.84,13.62,9.94,20.57,1.56,3.47,3,7,4.51,10.49s2.85,7.06,4.26,10.59c2.72,7.12,5.31,14.29,7.57,21.57l1.64,5.48,1.46,5.54c.46,1.85.83,3.74,1.23,5.6s.58,3.78.85,5.66l-.83-2.73c-.27-.91-.5-1.83-.83-2.72-.63-1.8-1.17-3.61-1.83-5.39l-1.92-5.35-2-5.33c-1.38-3.53-2.65-7.1-4.06-10.63s-2.71-7.08-4.09-10.62l-4.1-10.62c-1.33-3.56-2.73-7.08-4-10.65-2.69-7.11-5.33-14.24-7.78-21.46"/>
      <path class="f0da500f-bb01-48b8-adc6-d504a1041486" d="M132.23,203.85c-3.15-7.4-6.06-14.88-8.88-22.39-1.44-3.75-2.79-7.52-4.19-11.28l-4.07-11.31c-2.65-7.57-5.3-15.13-7.88-22.71l-3.9-11.37c-.65-1.89-1.28-3.8-2-5.67l-1-2.83-1.14-2.79,1.55,2.6c.48.89.92,1.79,1.38,2.69.93,1.79,1.73,3.63,2.59,5.45,1.64,3.67,3.23,7.37,4.72,11.1s2.93,7.47,4.39,11.22l4.13,11.31,3.92,11.38c1.24,3.81,2.54,7.61,3.71,11.45,2.41,7.65,4.7,15.35,6.68,23.15"/>
      <path class="f0da500f-bb01-48b8-adc6-d504a1041486" d="M90.29,113.5c1.18,7.84,2.11,15.69,2.94,23.55.45,3.93.8,7.86,1.2,11.79l1.07,11.8,1,11.8c.28,3.94.62,7.87.88,11.81l.84,11.82q.18,3,.44,5.9c.12,2,.34,3.93.53,5.91L98.42,205c-.25-1-.41-1.94-.62-2.91-.41-1.94-.74-3.9-1.07-5.85-.65-3.91-1.21-7.83-1.71-11.75s-.93-7.86-1.38-11.79l-1.12-11.81c-.66-7.87-1.23-15.76-1.61-23.66s-.67-15.8-.62-23.73"/>
      <path class="f0da500f-bb01-48b8-adc6-d504a1041486" d="M85.45,211.91c-1-8.17-1.66-16.36-2.19-24.55-.3-4.1-.47-8.2-.69-12.3l-.47-12.31-.23-12.32c0-4.11-.06-8.21.06-12.33s.22-8.22.44-12.33c.18-2,.24-4.11.51-6.16l.35-3.07.6-3-.15,3.08,0,3.07c0,2,.09,4.1.14,6.15l.42,12.28.83,24.59c.2,8.19.42,16.39.49,24.6s.1,16.42-.14,24.64"/>
      <path class="f0da500f-bb01-48b8-adc6-d504a1041486" d="M54.79,208.69c-.78-7.81-1.16-15.63-1.37-23.45s-.18-15.66,0-23.48c.13-3.92.29-7.83.51-11.74.11-2,.27-3.91.41-5.87l.22-2.93.3-2.92a134.88,134.88,0,0,1,4-23.18c-.92,7.78-1.28,15.56-1.63,23.34-.18,3.9-.31,7.79-.44,11.69s-.27,7.79-.34,11.69l-.67,23.4c-.23,7.81-.5,15.62-1,23.45"/>
      <path class="f0da500f-bb01-48b8-adc6-d504a1041486" d="M95.13,112.7c2,7.86,3.68,15.78,5.23,23.72.8,4,1.49,8,2.21,11.94l2,12c1.23,8,2.38,16,3.25,24.07q.68,6,1.09,12.11c.11,2,.23,4.06.26,6.09a30.24,30.24,0,0,1-.33,6.09,19,19,0,0,0-.14-3c-.09-1-.22-2-.36-3-.27-2-.57-4-.89-6l-2-12-2-12-1.92-12c-1.22-8-2.46-16-3.55-24s-2.15-16-2.93-24.1"/>
      <path class="f0da500f-bb01-48b8-adc6-d504a1041486" d="M64.47,211.91c-.88-8.12-1.36-16.26-1.68-24.41s-.41-16.31-.36-24.47.38-16.32,1-24.46a148.14,148.14,0,0,1,3.45-24.26c-.73,8.13-.93,16.25-1.12,24.37-.07,4.06-.17,8.13-.2,12.19l-.1,6.1,0,6.09-.31,24.41c-.12,8.14-.29,16.28-.65,24.44"/>
      <path class="f0da500f-bb01-48b8-adc6-d504a1041486" d="M32,206.09c.09-7.83.61-15.63,1.33-23.42.33-3.89.8-7.77,1.25-11.66s1-7.75,1.61-11.62,1.29-7.72,2-11.56,1.58-7.68,2.58-11.47,2.07-7.58,3.38-11.29a45.27,45.27,0,0,1,5.15-10.58,58.42,58.42,0,0,0-3.74,11c-1,3.75-1.75,7.55-2.51,11.36S41.66,144.5,41,148.34s-1.29,7.67-1.87,11.52c-1.23,7.68-2.34,15.39-3.52,23.09S33.33,198.37,32,206.09"/>
      <path class="f0da500f-bb01-48b8-adc6-d504a1041486" d="M13.66,203.85c.62-7.88,1.68-15.7,2.93-23.48.6-3.9,1.34-7.77,2.05-11.65s1.58-7.73,2.41-11.59,1.82-7.68,2.82-11.5S26,138,27.22,134.25s2.58-7.49,4.13-11.14a51.28,51.28,0,0,1,5.7-10.41,70,70,0,0,0-4.32,10.92c-1.21,3.73-2.25,7.5-3.26,11.29q-3,11.37-5.5,22.88c-1.75,7.65-3.38,15.34-5.09,23s-3.37,15.37-5.22,23"/>
      <path class="bc8d63e1-7bc0-4d0f-8a08-8cc3eb8552e7" d="M6.64,65.47C6.76,39.83,19.58,28.89,34.9,31.23,55,38.76,74,38.79,91.36,31.23c26.25-2.58,31.43,16.48,33,31.39l-17.55-1.94s-4.61,23.2-2.1,28.22c0,0,7.26,8.07,3.23,12.91-1.62,7.26-49.1,18.29-79.86,2.42,0,0-6.45,0-.81-13.72,0,0,3-8.54-.07-21.12A124.33,124.33,0,0,1,6.64,65.47Z"/>
      <path class="fcd665f7-0326-4a94-af54-5a0eaec808d3" d="M82.46,111.24l1.9,102.62s11.57,1.62,13.51-3.56S89,110,89,110Z"/>
      <path class="fcd665f7-0326-4a94-af54-5a0eaec808d3" d="M96.64,108.43s36.22,90.29,36.4,96.22c0,0,8.09.75,5.65-3.41s-31.24-89.3-36.54-93.71Z"/>
      <path class="fcd665f7-0326-4a94-af54-5a0eaec808d3" d="M58.83,112.35s-8.14,87.6-3.23,98c0,0-7.19,6.86-22.58-3,0,0,8.95-88.58,17.34-96.18Z"/>
      <path class="fcd665f7-0326-4a94-af54-5a0eaec808d3" d="M12.85,205.46s-7.29,4.4-8,1,17.85-91.49,31.35-98.9l2.57.86s-22.07,63.43-25.15,96.32"/>
      <path class="fcd665f7-0326-4a94-af54-5a0eaec808d3" d="M93.6,62.71c2.46,21.17,1.17,49.45-18.09,48.37,0,0,15.5-1.08,19.62-3.55S94.13,63.5,93.6,62.71Z"/>
      <path class="fcd665f7-0326-4a94-af54-5a0eaec808d3" d="M43.14,62.62C40.25,83.74,41,112,60.25,111.35c0,0-15.48-1.39-19.55-3.94S42.6,63.41,43.14,62.62Z"/>
      <g>
        <path class="a200fc35-4f09-460d-9d81-672b83667fdd" d="M5.79,57.2S12.72,67,28,67l1.88,9.91s-16.42-.78-24-7.1C5.79,69.84,3.72,57.2,5.79,57.2Z"/>
        <path class="a62708b2-cadb-4549-b5d7-74d138879c45" d="M5.79,57.2a23.51,23.51,0,0,0,4.63,4.17,29,29,0,0,0,5.44,3A28,28,0,0,0,21.8,66c1,.23,2,.27,3.06.41s2.06.09,3.09.14l.37,0,.06.34,1.93,9.9.12.62-.63,0a58.45,58.45,0,0,1-6.35-.71,63.94,63.94,0,0,1-6.27-1.29,39.06,39.06,0,0,1-6.07-2.05A23.59,23.59,0,0,1,5.6,70.07L5.51,70l0-.11c-.31-2.16-.55-4.33-.67-6.51-.05-1.09-.09-2.18-.05-3.27A11.29,11.29,0,0,1,5,58.48a3.61,3.61,0,0,1,.24-.79C5.3,57.45,5.51,57.19,5.79,57.2Zm0,0c-.28,0-.46.27-.55.52a3.4,3.4,0,0,0-.18.78A12.32,12.32,0,0,0,5,60.11c0,1.09.1,2.17.21,3.24.24,2.16.55,4.31.91,6.44L6,69.6a23,23,0,0,0,5.43,3.05,44.76,44.76,0,0,0,6,1.92,73,73,0,0,0,12.45,1.88l-.5.59-1.83-9.93.43.36c-1.06-.06-2.11-.06-3.17-.17a30.37,30.37,0,0,1-3.13-.49,29.54,29.54,0,0,1-6-1.93,25.85,25.85,0,0,1-5.42-3.24A21.63,21.63,0,0,1,5.79,57.2Z"/>
      </g>
      <g>
        <path class="a200fc35-4f09-460d-9d81-672b83667fdd" d="M125.36,50.55A21.93,21.93,0,0,1,107,60.38l-1.56,9.91s13.63-.78,20-7.1C125.36,63.19,127.08,50.55,125.36,50.55Z"/>
        <path class="a62708b2-cadb-4549-b5d7-74d138879c45" d="M125.36,50.55a19.83,19.83,0,0,1-3.42,4.23,20.17,20.17,0,0,1-4.4,3.26,22.31,22.31,0,0,1-7.81,2.59c-.91.13-1.84.12-2.76.19l.43-.37-1.5,9.92-.52-.57a50.55,50.55,0,0,0,10.47-1.93A24,24,0,0,0,125.13,63l-.1.18c.32-2.12.57-4.26.78-6.4.1-1.07.18-2.14.2-3.22a14.43,14.43,0,0,0-.05-1.61,4.1,4.1,0,0,0-.13-.78C125.75,50.89,125.64,50.58,125.36,50.55Zm0,0c.29,0,.43.32.53.56a5.06,5.06,0,0,1,.19.79,14.78,14.78,0,0,1,.15,1.62c0,1.08,0,2.16,0,3.25-.08,2.16-.29,4.31-.53,6.46v.11l-.08.08a19.73,19.73,0,0,1-4.43,3.23,30.83,30.83,0,0,1-5,2.08,45.11,45.11,0,0,1-5.27,1.32,44.35,44.35,0,0,1-5.4.73l-.61,0,.1-.6,1.61-9.91.06-.36H107a25.45,25.45,0,0,0,5.29-.59,20.06,20.06,0,0,0,5-1.82,22.13,22.13,0,0,0,4.45-3A21.86,21.86,0,0,0,125.36,50.55Z"/>
      </g>
      <g>
        <path class="a200fc35-4f09-460d-9d81-672b83667fdd" d="M44.56,25.12s-.9,6.05,21.11,9.42c0,0-11.65,10.79-8.41,18.2,0,0-22.78-1-24.08-13.81C33.18,38.93,30.32,30.51,44.56,25.12Z"/>
        <path class="a62708b2-cadb-4549-b5d7-74d138879c45" d="M44.56,25.12A3.91,3.91,0,0,0,46,27.68a11.59,11.59,0,0,0,2.43,1.74A28.28,28.28,0,0,0,54,31.67a77.21,77.21,0,0,0,11.77,2.49l.78.11-.57.56a49.44,49.44,0,0,0-3.51,3.86,34.74,34.74,0,0,0-3,4.27,17.53,17.53,0,0,0-2,4.71,7.7,7.7,0,0,0,.26,4.87l.31.73-.78,0a48.34,48.34,0,0,1-7.5-1A39.27,39.27,0,0,1,42.51,50a20.26,20.26,0,0,1-6.4-4.13A10.92,10.92,0,0,1,32.82,39v.08a8.29,8.29,0,0,1,.39-5,11.47,11.47,0,0,1,2.83-4.1A23.81,23.81,0,0,1,44.56,25.12Zm0,0a34.84,34.84,0,0,0-4.37,2.17,19.33,19.33,0,0,0-3.82,3,11.15,11.15,0,0,0-2.58,4,7.67,7.67,0,0,0-.26,4.58v.08a10.41,10.41,0,0,0,3.17,6.32,19.44,19.44,0,0,0,6.15,3.9,38.42,38.42,0,0,0,7.07,2.13,55.34,55.34,0,0,0,7.34,1l-.47.68a8.73,8.73,0,0,1-.28-5.48,18.83,18.83,0,0,1,2.14-5,35.24,35.24,0,0,1,3.09-4.35,40.67,40.67,0,0,1,3.65-3.89l.2.67A78.81,78.81,0,0,1,53.8,32.15a29,29,0,0,1-5.54-2.49,12.1,12.1,0,0,1-2.4-1.87A4,4,0,0,1,44.56,25.12Z"/>
      </g>
      <g>
        <path class="a200fc35-4f09-460d-9d81-672b83667fdd" d="M84.8,25.12s1.91,6.05-20.1,9.42c0,0,11.65,10.79,8.41,18.2,0,0,22-.68,23.31-13.48C96.42,39.26,99,30.51,84.8,25.12Z"/>
        <path class="a62708b2-cadb-4549-b5d7-74d138879c45" d="M84.8,25.12a3.36,3.36,0,0,1-.94,2.71,10.1,10.1,0,0,1-2.26,1.91,27.23,27.23,0,0,1-5.37,2.48,74,74,0,0,1-11.48,2.71l.21-.67a39.34,39.34,0,0,1,3.64,3.89,34.29,34.29,0,0,1,3.1,4.35,18.83,18.83,0,0,1,2.14,5,8.73,8.73,0,0,1-.28,5.48l-.46-.68a52.61,52.61,0,0,0,7.14-.91,36.38,36.38,0,0,0,6.88-2.07,18.06,18.06,0,0,0,5.93-3.85,10.45,10.45,0,0,0,3-6.2v0l0,0a8.39,8.39,0,0,0-.35-4.69,11.77,11.77,0,0,0-2.61-4.08,19.08,19.08,0,0,0-3.86-3.05A34.18,34.18,0,0,0,84.8,25.12Zm0,0a23.5,23.5,0,0,1,8.64,4.95,12,12,0,0,1,2.85,4.19,8.87,8.87,0,0,1,.48,5.11V39.3A11,11,0,0,1,93.67,46a19,19,0,0,1-6.19,4.09,36.59,36.59,0,0,1-7,2.17,45.87,45.87,0,0,1-7.3.95l-.78,0,.31-.72a7.7,7.7,0,0,0,.26-4.87,17.86,17.86,0,0,0-2-4.71,34.74,34.74,0,0,0-3-4.27,49.44,49.44,0,0,0-3.51-3.86l-.57-.56.78-.11a74.11,74.11,0,0,0,11.44-2.42,26.66,26.66,0,0,0,5.38-2.23,10.15,10.15,0,0,0,2.28-1.78A3.3,3.3,0,0,0,84.8,25.12Z"/>
      </g>
      <g>
        <ellipse class="a01f62f1-51fd-443c-8adf-fc2f74e8f284" cx="66.67" cy="41.28" rx="6.47" ry="6.74"/>
        <path class="a321563a-f1ed-4645-99c5-da6df6eef752" d="M73.15,41.28A7.16,7.16,0,0,1,71.35,46a6.53,6.53,0,0,1-4.68,2.23,6.63,6.63,0,0,1-4.93-2,7.17,7.17,0,0,1,0-10,6.63,6.63,0,0,1,4.93-2,6.53,6.53,0,0,1,4.68,2.23A7.16,7.16,0,0,1,73.15,41.28Zm0,0a6.67,6.67,0,0,0-1.91-4.66,6.11,6.11,0,0,0-4.57-1.83,6,6,0,0,0-4.3,2.07,6.7,6.7,0,0,0,0,8.84,6,6,0,0,0,4.31,2.07A6.13,6.13,0,0,0,71.24,46,6.71,6.71,0,0,0,73.15,41.28Z"/>
      </g>
      <ellipse class="fe4056a5-6c80-4c0a-974e-69b126f2689b" cx="69.26" cy="39.26" rx="1.94" ry="2.02"/>
      <path class="b1101289-6a58-415e-b1b9-0652014b116b" d="M107.79,108.6C81.54,116.78,57,115.8,32,110.3c-1-.23-3.88-.51-4-1.31l.75-2.52c-.11-.8.05-1.73,1.12-1.59,24.7,3.28,50.23,4,77.17-2.35,1.1-.26,1.2.57,1.19,1.42l.64,2.64C108.88,107.42,108.84,108.28,107.79,108.6Z"/>
      <g>
        <path class="bd75c436-c062-404a-bee2-8d07acc0642a" d="M45.59,96.22c.59,4.61-.81,8.61-3.11,8.92s-4.65-3.16-5.23-7.77,1.89-2.64,4.2-3S45,91.61,45.59,96.22Z"/>
        <path class="bd75c436-c062-404a-bee2-8d07acc0642a" d="M33.64,101.19c4.19,1.63,6.93,4.78,6.11,7s-4.86,2.79-9,1.16-1.35-3-.54-5.24S29.45,99.57,33.64,101.19Z"/>
        <path class="bd75c436-c062-404a-bee2-8d07acc0642a" d="M54.68,106.44c-3.76,2.51-7.83,2.9-9.08.86s.77-5.72,4.53-8.23,3.1.65,4.36,2.69S58.44,103.92,54.68,106.44Z"/>
        <path class="bd75c436-c062-404a-bee2-8d07acc0642a" d="M33.56,115.86c2.25-4,5.71-6.29,7.71-5.07s1.82,5.46-.43,9.48-3.05.88-5.06-.33S31.31,119.88,33.56,115.86Z"/>
        <path class="bd75c436-c062-404a-bee2-8d07acc0642a" d="M46.76,119.28c-2.9-3.53-3.83-7.67-2.06-9.25s5.55,0,8.46,3.56-.21,3.28-2,4.85S49.67,122.82,46.76,119.28Z"/>
        <ellipse class="e192bbae-3081-4742-8ce0-1c919c74dadd" cx="42.09" cy="107.89" rx="4.53" ry="4.72"/>
        <g>
          <path class="a01f62f1-51fd-443c-8adf-fc2f74e8f284" d="M40.8,97.11s1.94,2,1.29,6.06"/>
          <path class="fada89a2-e29c-4f46-ba51-ed6312b40377" d="M40.8,97.11A3.16,3.16,0,0,1,42,98.31a5.35,5.35,0,0,1,.59,1.59,4.94,4.94,0,0,1-.48,3.27c-.13-.56-.19-1.08-.26-1.59s-.15-1-.24-1.5A20.2,20.2,0,0,0,40.8,97.11Z"/>
        </g>
        <g>
          <path class="a01f62f1-51fd-443c-8adf-fc2f74e8f284" d="M32,106.69s2.43-1.33,6,.51"/>
          <path class="fada89a2-e29c-4f46-ba51-ed6312b40377" d="M32,106.69a3,3,0,0,1,1.43-.8A4.62,4.62,0,0,1,38,107.2c-.56,0-1.05-.15-1.54-.23L35,106.76A17,17,0,0,0,32,106.69Z"/>
        </g>
        <g>
          <path class="a01f62f1-51fd-443c-8adf-fc2f74e8f284" d="M46.5,106s1.64-2.29,5.58-2.19"/>
          <path class="fada89a2-e29c-4f46-ba51-ed6312b40377" d="M46.5,106a3,3,0,0,1,.94-1.35,4.63,4.63,0,0,1,4.64-.84c-.52.2-1,.33-1.49.48s-.93.29-1.39.46A18.4,18.4,0,0,0,46.5,106Z"/>
        </g>
        <g>
          <path class="a01f62f1-51fd-443c-8adf-fc2f74e8f284" d="M45.72,111a4.32,4.32,0,0,0,3.75,3.51"/>
          <path class="fada89a2-e29c-4f46-ba51-ed6312b40377" d="M45.72,111a12.48,12.48,0,0,0,1.64,2,5.44,5.44,0,0,0,.94.77c.35.25.74.44,1.17.72a2.66,2.66,0,0,1-1.48,0,3.07,3.07,0,0,1-1.33-.76,3.31,3.31,0,0,1-.82-1.27A2.64,2.64,0,0,1,45.72,111Z"/>
        </g>
        <g>
          <path class="a01f62f1-51fd-443c-8adf-fc2f74e8f284" d="M39.78,112s.69,2.77-1.84,5.91"/>
          <path class="fada89a2-e29c-4f46-ba51-ed6312b40377" d="M39.78,112a3.24,3.24,0,0,1,.44,1.63,5.24,5.24,0,0,1-.25,1.67,4.85,4.85,0,0,1-2,2.61c.17-.55.37-1,.56-1.51s.36-.94.52-1.41A22.11,22.11,0,0,0,39.78,112Z"/>
        </g>
        <ellipse class="fe4056a5-6c80-4c0a-974e-69b126f2689b" cx="43.18" cy="106.95" rx="1.94" ry="2.02"/>
      </g>
      <g class="fa06ea3e-6204-4e2d-b9b4-e52c279d2a60">
        <path class="b01fa492-5caa-4a47-b689-f61bb1d50882" d="M103,48.3a11.09,11.09,0,0,1,3.71,5.6,13.49,13.49,0,0,1,.27,6.73,41.44,41.44,0,0,0-1.22-6.44A23.37,23.37,0,0,0,103,48.3Z"/>
      </g>
      <g class="fa06ea3e-6204-4e2d-b9b4-e52c279d2a60">
        <path class="b01fa492-5caa-4a47-b689-f61bb1d50882" d="M28.47,55.3c-.25,2-.56,3.92-.65,5.86A42.93,42.93,0,0,0,28,67a11.84,11.84,0,0,1-1.13-5.93A13.48,13.48,0,0,1,28.47,55.3Z"/>
      </g>
      <g class="fa06ea3e-6204-4e2d-b9b4-e52c279d2a60">
        <path class="b01fa492-5caa-4a47-b689-f61bb1d50882" d="M103,81.35a35.59,35.59,0,0,1-8.14,2.53,75,75,0,0,1-8.44,1.26q-4.25.4-8.51.46H73.61c-1.42-.07-2.84-.1-4.26-.2,2.83-.22,5.66-.36,8.48-.55s5.64-.4,8.45-.7,5.6-.61,8.39-1c1.4-.2,2.79-.46,4.17-.74A36.91,36.91,0,0,0,103,81.35Z"/>
      </g>
      <g class="fa06ea3e-6204-4e2d-b9b4-e52c279d2a60">
        <path class="b01fa492-5caa-4a47-b689-f61bb1d50882" d="M103,84a35.61,35.61,0,0,1-8.14,2.54,75,75,0,0,1-8.44,1.25c-2.83.28-5.67.43-8.51.47H73.61c-1.42-.07-2.84-.11-4.26-.2,2.83-.23,5.66-.37,8.48-.56s5.64-.4,8.45-.69,5.6-.61,8.39-1c1.4-.19,2.79-.45,4.17-.73A34.88,34.88,0,0,0,103,84Z"/>
      </g>
      <g class="fa06ea3e-6204-4e2d-b9b4-e52c279d2a60">
        <path class="b01fa492-5caa-4a47-b689-f61bb1d50882" d="M100.27,67.23A91.49,91.49,0,0,1,83.08,70c-5.8.47-11.62.64-17.43.65S54,70.39,48.24,70.05l-8.69-.64c-2.89-.3-5.78-.57-8.66-.9,2.9.1,5.8.27,8.69.41l8.69.37,8.69.25c2.9,0,5.8.12,8.7.07,5.79.08,11.58-.11,17.36-.41,2.9-.14,5.78-.39,8.66-.68A77.72,77.72,0,0,0,100.27,67.23Z"/>
      </g>
      <g class="fa06ea3e-6204-4e2d-b9b4-e52c279d2a60">
        <path class="b01fa492-5caa-4a47-b689-f61bb1d50882" d="M102.86,69.93a92.54,92.54,0,0,1-17.2,2.73c-5.8.47-11.61.64-17.42.65s-11.62-.23-17.42-.56l-8.69-.65c-2.89-.3-5.78-.56-8.66-.9,2.9.11,5.8.28,8.7.41l8.69.37,8.69.26c2.9,0,5.79.11,8.69.07,5.79.07,11.59-.11,17.37-.42,2.89-.13,5.78-.38,8.66-.67A77.72,77.72,0,0,0,102.86,69.93Z"/>
      </g>
    </g>
  </g>
</svg>
