<svg xmlns="http://www.w3.org/2000/svg" width="160" height="162" viewBox="0 0 160 162">
  <defs>
    <style>
      .a7571a18-9388-48c6-b9bb-f7bf62e7017e, .b5292866-1971-44b3-8457-a4697a519bf1, .fd4f750d-16c0-481e-b7b3-fbfc630b3ace {
        fill: #fff;
      }

      .a7571a18-9388-48c6-b9bb-f7bf62e7017e {
        stroke: #323232;
        stroke-miterlimit: 10;
      }

      .b1d88729-1eba-4da7-90fd-1d6e2e86328d {
        fill: #5858db;
      }

      .b5292866-1971-44b3-8457-a4697a519bf1 {
        opacity: 0.4;
      }
    </style>
  </defs>
  <g id="f30a813a-1c9a-4080-899b-b8e671c1a4ef" data-name="Layer 12">
    <g>
      <path class="fd4f750d-16c0-481e-b7b3-fbfc630b3ace" d="M110.88,154.62a7.24,7.24,0,0,1-5.15-2.14,7.42,7.42,0,0,1-2.2-5.19,7.16,7.16,0,0,1,.44-2.57l-.3.14a4.74,4.74,0,0,1-4-.12,4.49,4.49,0,0,1-1.18-.84,4.54,4.54,0,0,1-1-1.59,4.69,4.69,0,0,1-.11-3.07l-.37.1a5,5,0,0,1-1,.1,4.63,4.63,0,0,1-4.62-4.72,5.28,5.28,0,0,1,.1-.9c0-.13.07-.26.1-.38a5,5,0,0,1-1.38.2,4.62,4.62,0,0,1-3.27-1.34,4.56,4.56,0,0,1-1-1.6,4.66,4.66,0,0,1-.11-3.06,4.9,4.9,0,0,1-1.38.2,4.77,4.77,0,0,1-1.68-.31,4.43,4.43,0,0,1-1.59-1A4.52,4.52,0,0,1,79.82,124a5.49,5.49,0,0,1-.07-.91,4.56,4.56,0,0,1,.21-1.27,4.65,4.65,0,0,1-3.9-.53,4.08,4.08,0,0,1-.75-.61,4.45,4.45,0,0,1-1-1.6,4.73,4.73,0,0,1-.24-.88,4.58,4.58,0,0,1,.14-2.18,5,5,0,0,1-1.39.2,4.6,4.6,0,0,1-4.62-4.73,5,5,0,0,1,.2-1.27l-.39.1a4.82,4.82,0,0,1-.87.1h0a4.61,4.61,0,0,1-4.67-3.82,5.16,5.16,0,0,1,0-1.81c0-.13.06-.25.1-.38a2.79,2.79,0,0,1-.39.1,4.64,4.64,0,0,1-1,.11,4.8,4.8,0,0,1-1.67-.31,4.43,4.43,0,0,1-1.59-1,4.52,4.52,0,0,1-1.29-2.48,4.73,4.73,0,0,1,.14-2.18l-.37.1a5.05,5.05,0,0,1-1,.11,5.14,5.14,0,0,1-.78-.07,4.56,4.56,0,0,1-1.73-.67,4.08,4.08,0,0,1-.75-.61,4.64,4.64,0,0,1-1.16-4.66,4.85,4.85,0,0,1-1.38.2,4.6,4.6,0,0,1-4.62-4.73,5,5,0,0,1,.2-1.27l-.37.09a5,5,0,0,1-1,.11,4.93,4.93,0,0,1-.78-.06,4.67,4.67,0,0,1-1.75-.68,4.29,4.29,0,0,1-.74-.61,4.55,4.55,0,0,1-.84-1.15,4.71,4.71,0,0,1-.3-3.51l-.38.1a4.72,4.72,0,0,1-.92.11h0a5.14,5.14,0,0,1-.86-.07,4.57,4.57,0,0,1-2.49-1.28,5,5,0,0,1-.61-.75,4.69,4.69,0,0,1-.67-1.73,4.74,4.74,0,0,1,0-1.8c0-.13.06-.26.1-.39l-.08,0a4.68,4.68,0,0,1-3.83-.54,4.77,4.77,0,0,1-.75-.61,4.59,4.59,0,0,1-1.35-3.38,5,5,0,0,1,.2-1.28,4.9,4.9,0,0,1-1.38.2,4.62,4.62,0,0,1-3.27-1.34,4.66,4.66,0,0,1-1-1.59,4.79,4.79,0,0,1-.11-3.08,4.49,4.49,0,0,1-1.26.21h0A4.62,4.62,0,0,1,16,58.38a5.48,5.48,0,0,1,.47-1.28,5.77,5.77,0,0,1-1.26.37,7.34,7.34,0,0,1-1.34.12A7.46,7.46,0,0,1,8.64,55.4a7.28,7.28,0,0,1-2.15-5.18,7.73,7.73,0,0,1,1.92-5.06L32.91,13.7a18,18,0,0,1,1.41-1.62,15.28,15.28,0,0,1,1.51-1.31l.41-.29.12-.08c.36-.25.73-.5,1.11-.72.18-.11.36-.2.53-.29l.14-.07c.36-.19.73-.36,1.1-.52s.5-.2.75-.29.74-.26,1.13-.37l.78-.21c.4-.09.8-.17,1.21-.24l.2,0a5.62,5.62,0,0,1,.57-.09c.45-.06.91-.1,1.38-.13h.18l.5,0h.93L48,7.4c.75,0,1.54.11,2.36.22s1.49.21,2.26.36l.54.12.38.09c.48.1,1,.21,1.45.34l.68.19.52.15,1.23.36,1.07.36.29.1,1.12.39.86.33.41.16c.42.16.83.32,1.25.5l.88.38.47.2,1.22.54,1.24.59,1.38.67,1.19.62,1.46.77c.44.24.88.48,1.31.73l1.38.77,1.28.76,1.44.86,1.37.86,1.36.86,1.42.94,1.34.89,1.45,1q.66.45,1.32.93l1.48,1.06c.44.31.87.63,1.3.95l1.52,1.13,1.27,1,1.55,1.2,1.24,1L93.89,31l1.18,1c.55.45,1.09.89,1.63,1.35l1.14,1,1.67,1.44,1.07.94,1.72,1.52,1,.91c.59.53,1.18,1.06,1.76,1.6l.92.86c.61.57,1.22,1.14,1.82,1.72l.81.78,1.9,1.84,2.33,2.31.81.83c.72.74,1.45,1.48,2.17,2.23l.15.15c.69.73,1.38,1.45,2,2.17l.36.39c1.54,1.65,3.08,3.35,4.59,5.06,1.07,1.21,2.13,2.44,3.16,3.66,1.32,1.57,2.63,3.16,3.89,4.73.81,1,1.6,2,2.38,3l0,0,.65.85c.77,1,1.47,1.94,2.15,2.88l.22.3c.65.89,1.28,1.77,1.9,2.65l.47.68c.52.75,1,1.5,1.54,2.25l.44.67c.52.79,1,1.51,1.46,2.23l.49.78q.66,1,1.29,2.1l.52.87c.39.66.78,1.32,1.15,2l.52.94c.35.63.69,1.25,1,1.87.17.33.35.65.51,1,.31.6.61,1.2.9,1.79.17.34.33.67.49,1,.28.58.54,1.14.79,1.71.15.34.31.69.46,1,.23.55.46,1.09.67,1.63,0,0,.32.78.42,1.06q.3.78.57,1.56s.28.79.36,1.05.21.63.3.94l.25.85c.08.26.16.52.23.77.13.49.24,1,.35,1.44l.08.34c.06.24.12.47.17.71.1.46.17.92.25,1.37l.06.39c0,.22.08.44.11.66.07.49.11,1,.15,1.45l0,.35c0,.19,0,.37.05.55,0,.75.06,1.49,0,2.19a.91.91,0,0,1,0,.17,1.17,1.17,0,0,1,0,.25,20.89,20.89,0,0,1-.22,2.18v0c-.09.56-.18,1.12-.32,1.65a16.23,16.23,0,0,1-.61,2,14.83,14.83,0,0,1-4.92,6.57L116,152.72a7.8,7.8,0,0,1-2.63,1.5A7.62,7.62,0,0,1,110.88,154.62Z"/>
      <g>
        <path class="a7571a18-9388-48c6-b9bb-f7bf62e7017e" d="M147.3,125a12,12,0,0,0,1.77-2.34,14.94,14.94,0,0,0,1.89-6.92l0-.31c.33-10.94-7.8-26.65-20-42.61l-.58-.77C107.91,42.77,72.07,12.9,50,10.1c-.71-.09-1.41-.15-2.1-.19-4.79-.23-8.83,1-11.8,3.95a14.57,14.57,0,0,0-1.21,1.38l0,.06L10.34,46.76a5,5,0,0,0,.08,6.86,4.85,4.85,0,0,0,6.86.08L41.66,29.32c1.46-1.2,3.69-1.34,6.48-.65l-29,29.08a2.17,2.17,0,1,0,3.06,3.06L52.66,30.27c1.16.52,2.38,1.12,3.66,1.82L24.92,63.56a2.17,2.17,0,1,0,3.07,3L60.18,34.35c1.08.67,2.19,1.39,3.32,2.16L30.73,69.36a2.17,2.17,0,1,0,3.06,3.06L67.09,39c1,.74,2.08,1.53,3.14,2.34L36.53,75.16a2.17,2.17,0,1,0,3.06,3.06L73.67,44.06c1,.8,2,1.62,3,2.47L42.33,81A2.17,2.17,0,1,0,45.39,84L80,49.33c1,.83,1.95,1.69,2.93,2.55L48.13,86.77a2.17,2.17,0,1,0,3.07,3l35-35q1.43,1.3,2.85,2.64L53.94,92.57A2.17,2.17,0,1,0,57,95.63L92.15,60.39c.93.9,1.86,1.8,2.78,2.71L59.74,98.37a2.17,2.17,0,1,0,3.06,3.06L98,66.16c.91.92,1.81,1.85,2.71,2.78L65.54,104.17a2.17,2.17,0,1,0,3.06,3.06l35.08-35.15c.89,1,1.77,1.9,2.63,2.85L71.34,110a2.17,2.17,0,1,0,3.07,3l34.8-34.88c.87,1,1.72,2,2.56,2.93l-34.62,34.7a2.17,2.17,0,1,0,3.06,3.06L114.57,84.4c.84,1,1.67,2,2.46,3L83,121.58A2.17,2.17,0,1,0,86,124.64l33.71-33.78c.81,1.06,1.6,2.11,2.35,3.14L88.75,127.39a2.17,2.17,0,1,0,3.07,3l32.77-32.85c.77,1.14,1.49,2.24,2.16,3.33L94.56,133.19a2.16,2.16,0,1,0,3.06,3.05L129,104.77q1,1.92,1.83,3.66L100.36,139a2.17,2.17,0,1,0,3.06,3.06l29-29.1c.7,2.81.56,5-.64,6.52l-24.38,24.38a4.86,4.86,0,0,0,.07,6.86,5,5,0,0,0,6.86.07l30.8-24h0l.72-.56a11.77,11.77,0,0,0,1.34-1.18Z"/>
        <g>
          <path class="b1d88729-1eba-4da7-90fd-1d6e2e86328d" d="M34.89,15.24,10.34,46.76a5,5,0,0,0,.08,6.86,4.85,4.85,0,0,0,6.86.08L41.66,29.32c1.46-1.2,3.69-1.34,6.48-.65l-29,29.08a2.17,2.17,0,1,0,3.06,3.06L52.66,30.27c1.16.52,2.38,1.12,3.66,1.82L24.92,63.56a2.17,2.17,0,1,0,3.07,3L60.18,34.35c1.08.67,2.19,1.39,3.32,2.16L30.73,69.36a2.17,2.17,0,1,0,3.06,3.06L67.09,39c1,.74,2.08,1.53,3.14,2.34L36.53,75.16a2.17,2.17,0,1,0,3.06,3.06L73.67,44.06c1,.8,2,1.62,3,2.47L42.33,81A2.17,2.17,0,1,0,45.39,84L80,49.33c1,.83,1.95,1.69,2.93,2.55L48.13,86.77a2.17,2.17,0,1,0,3.07,3l35-35q1.43,1.3,2.85,2.64L53.94,92.57A2.17,2.17,0,1,0,57,95.63L92.15,60.39c.93.9,1.86,1.8,2.78,2.71L59.74,98.37a2.17,2.17,0,1,0,3.06,3.06L98,66.16c.91.92,1.81,1.85,2.71,2.78L65.54,104.17a2.17,2.17,0,1,0,3.06,3.06l35.08-35.15c.89,1,1.77,1.9,2.63,2.85L71.34,110a2.17,2.17,0,1,0,3.07,3l34.8-34.88c.87,1,1.72,2,2.56,2.93l-34.62,34.7a2.17,2.17,0,1,0,3.06,3.06L114.57,84.4c.84,1,1.66,2,2.46,3L83,121.58A2.17,2.17,0,1,0,86,124.64l33.71-33.78c.81,1.06,1.6,2.11,2.35,3.14L88.75,127.39a2.17,2.17,0,1,0,3.07,3l32.77-32.85c.77,1.14,1.49,2.24,2.16,3.33L94.56,133.19a2.16,2.16,0,1,0,3.06,3.05L129,104.77q1,1.92,1.83,3.66L100.36,139a2.17,2.17,0,1,0,3.06,3.06l29-29.1c.7,2.81.56,5-.64,6.52l-24.38,24.38a4.86,4.86,0,0,0,.07,6.86,5,5,0,0,0,6.86.07l31.52-24.54C176.69,102.69,59.2-16.56,34.89,15.24Z"/>
          <path class="b5292866-1971-44b3-8457-a4697a519bf1" d="M145.16,126.8l.72-.56c30.81-23.55-86.68-142.8-111-111l-.49.63C62.86-4,164.28,98.9,145.16,126.8Z"/>
        </g>
      </g>
    </g>
  </g>
</svg>
