<svg xmlns="http://www.w3.org/2000/svg" width="161" height="162" viewBox="0 0 161 162">
  <defs>
    <style>
      .b6f62699-9cc6-4e0e-a9cb-acb3dbdeb586 {
        isolation: isolate;
      }

      .b9e13447-b582-4457-8539-ab664d90c7c2, .bc9b00e4-6525-4393-8c6a-4aefb98c3746, .e4741692-abde-4762-9fe1-4a39181469e4 {
        fill: #fff;
      }

      .fce103c9-0559-4367-a70a-c312203d8e3e {
        stroke: #282828;
        stroke-miterlimit: 10;
      }

      .b51d41fa-bd8e-45ce-acad-d54d230b754d {
        fill: #ceebf4;
      }

      .a80a2e4b-1853-48d9-afc7-56de32ba065b, .b51d41fa-bd8e-45ce-acad-d54d230b754d, .bc9b00e4-6525-4393-8c6a-4aefb98c3746 {
        opacity: 0.5;
      }

      .e4741692-abde-4762-9fe1-4a39181469e4 {
        opacity: 0.7;
      }

      .e253731f-6366-4031-b73b-251bbf484402 {
        fill: #08dcf2;
      }

      .fa89f5c6-c9ef-4a4e-bc94-32cf6329f7d7 {
        opacity: 0.4;
      }

      .adbf603e-b603-438b-a4a4-62495b6a3f3e {
        opacity: 0.1;
        mix-blend-mode: multiply;
      }
    </style>
  </defs>
  <g class="b6f62699-9cc6-4e0e-a9cb-acb3dbdeb586">
    <g id="b4dd2448-d675-491f-87e8-8cb5aca3003e" data-name="Layer 9">
      <g>
        <path class="b9e13447-b582-4457-8539-ab664d90c7c2" d="M33.43,159.84A3.62,3.62,0,0,1,31,158.9l-2.25-2.07a3.78,3.78,0,0,1-1.2-2.48L18.63,6a3.6,3.6,0,0,1,3.22-3.79c.32,0,.65,0,1,0H138.08c.34,0,.67,0,1,0l.18,0A3.61,3.61,0,0,1,142.37,6l-8.92,148.33a3.54,3.54,0,0,1-1.15,2.42L130,158.9a3.62,3.62,0,0,1-2.43.94Z"/>
        <g>
          <path class="fce103c9-0559-4367-a70a-c312203d8e3e" d="M138.08,5.75H22.84a4.21,4.21,0,0,0-.62,0l0,.66.24,4.07h0l.13,2.09.42,6.94,7.45,124,.63,10.57,2.29,2.12h94.16l2.29-2.12,8.5-141.51.13-2.09h0l.24-4.07,0-.66C138.55,5.77,138.32,5.75,138.08,5.75Z"/>
          <g id="afd55c52-6237-4e1c-bc76-d24b26098da3" data-name="water glass full">
            <path class="b51d41fa-bd8e-45ce-acad-d54d230b754d" d="M138.78,5.79l0,.66-.24,4.07h0l-.13,2.09-8.5,141.51-2.29,2.12H33.42l-2.29-2.12-.63-10.57-7.45-124-.42-6.94-.13-2.09h0l-.24-4.07,0-.66a4.21,4.21,0,0,1,.62,0H138.08C138.32,5.75,138.55,5.77,138.78,5.79Z"/>
            <path class="e4741692-abde-4762-9fe1-4a39181469e4" d="M135.08,7.06,135,8.23l-.14,2.4-.07,1.17-.12,2.07-.15,2.64-.41,7.26L132,61.28,127.2,144,125,146H36l-2.16-2,0-.45L29,61.28,26.86,23.41l-.39-6.77-.15-2.77L26.2,11.8l-.07-1.14-.07-1.2L26,8.26l-.07-1.2Z"/>
            <path class="e253731f-6366-4031-b73b-251bbf484402" d="M134.53,16.51l-.41,7.26L132,61.28,127.2,144,125,146H36l-2.16-2,0-.45L29,61.28,26.86,23.41l-.39-6.77c12.45,2.21,24.83,7.5,37.32,4.6,14.65-3.41,16.56-9,40.2-6.92C109.2,14.79,118.35,18.91,134.53,16.51Z"/>
            <g class="fa89f5c6-c9ef-4a4e-bc94-32cf6329f7d7">
              <ellipse class="b9e13447-b582-4457-8539-ab664d90c7c2" cx="110.92" cy="102.52" rx="4.67" ry="4.57"/>
              <ellipse class="b9e13447-b582-4457-8539-ab664d90c7c2" cx="104.88" cy="122.51" rx="4.67" ry="4.57"/>
              <ellipse class="b9e13447-b582-4457-8539-ab664d90c7c2" cx="102.02" cy="84.2" rx="2.87" ry="2.81"/>
              <ellipse class="b9e13447-b582-4457-8539-ab664d90c7c2" cx="109.46" cy="71.37" rx="3.21" ry="3.14"/>
              <ellipse class="b9e13447-b582-4457-8539-ab664d90c7c2" cx="110.92" cy="139.21" rx="1.97" ry="1.93"/>
              <ellipse class="b9e13447-b582-4457-8539-ab664d90c7c2" cx="103.07" cy="54.9" rx="4.4" ry="4.31"/>
              <ellipse class="b9e13447-b582-4457-8539-ab664d90c7c2" cx="112.85" cy="39.94" rx="4" ry="3.92"/>
              <ellipse class="b9e13447-b582-4457-8539-ab664d90c7c2" cx="104.61" cy="24.27" rx="2.76" ry="2.7"/>
            </g>
            <path class="bc9b00e4-6525-4393-8c6a-4aefb98c3746" d="M123.18,152.58H38.44c-1.28,0-2.32-.54-2.32-1.21s1-1.21,2.32-1.21h84.74c1.28,0,2.32.54,2.32,1.21S124.46,152.58,123.18,152.58Z"/>
            <g class="a80a2e4b-1853-48d9-afc7-56de32ba065b">
              <path class="b9e13447-b582-4457-8539-ab664d90c7c2" d="M42.63,44.56a1.51,1.51,0,0,1-1.52-1.41L39.89,21.82A1.53,1.53,0,0,1,43,21.65L44.16,43a1.5,1.5,0,0,1-1.44,1.58Z"/>
              <path class="b9e13447-b582-4457-8539-ab664d90c7c2" d="M46.89,119.36a1.51,1.51,0,0,1-1.52-1.42L41.5,50.06a1.5,1.5,0,0,1,1.44-1.57,1.52,1.52,0,0,1,1.62,1.41l3.86,67.88A1.5,1.5,0,0,1,47,119.35Z"/>
              <path class="b9e13447-b582-4457-8539-ab664d90c7c2" d="M37.4,102.28a1.52,1.52,0,0,1-1.53-1.42L31.84,30a1.53,1.53,0,0,1,3.05-.16l4,70.85a1.5,1.5,0,0,1-1.44,1.57Z"/>
            </g>
            <path class="bc9b00e4-6525-4393-8c6a-4aefb98c3746" d="M121.78,8.27a1.43,1.43,0,0,1-1.58,1.21H62.35a1.43,1.43,0,0,1-1.58-1.21,1.43,1.43,0,0,1,1.58-1.21H120.2A1.43,1.43,0,0,1,121.78,8.27Z"/>
            <g class="adbf603e-b603-438b-a4a4-62495b6a3f3e">
              <path d="M138.78,5.79l0,.66-.24,4.07h0l-.13,2.09-8.5,141.51-2.29,2.12H33.42l-2.29-2.12-.63-10.57c1.08,0,2.17,0,3.27,0,15.44-.46,31.65-8.12,42.75-17,14.25-11.37,26.17-25.9,33.29-42.56a135.4,135.4,0,0,0,7.11-22.13c3.81-16.17,5.41-32.87,8.23-49.3l.36-2.09.21-1.18c.15-.81.3-1.61.46-2.42.07-.39.15-.78.23-1.18h11.67C138.32,5.75,138.55,5.77,138.78,5.79Z"/>
            </g>
          </g>
        </g>
      </g>
    </g>
  </g>
</svg>
