<svg xmlns="http://www.w3.org/2000/svg" width="222.64" height="200.48" viewBox="0 0 222.64 200.48">
  <defs>
    <style>
      .e11889da-0d47-48fc-a56f-554017f5bc0b {
        fill: #fff;
      }

      .af9fc45e-a7dd-4ce6-bcf4-6d1ffed513ab, .afbf47e5-5b39-47a9-ab51-977f99ab76e5, .b2961c83-4b02-464c-8a86-5e4fc91e4006, .b492b877-984e-4314-90a8-ba1aa9101c78, .b4ee9168-5d34-4504-9d03-5b356284b1d0, .b7a457c3-03f9-4215-be6b-d018047f54fe, .b7bc197e-fc0c-4243-b820-79fe19b20479, .b7cfd667-edcb-42f0-9121-c830fd508a8f, .bbe1b043-3760-42aa-bade-b3cc96e210d3, .bd755a11-6aba-4bce-b085-a68f61a3f46d, .bdd2ab8a-139d-47f2-979b-bcab08c8350f, .be22656e-1a81-4413-94ea-2c6a0c305b49, .e11889da-0d47-48fc-a56f-554017f5bc0b, .e330ef5d-53bf-4d91-92aa-56ac2dfc1552, .e5cf87c7-468b-4317-bbe6-344519096bf2, .e8081204-84fe-47a9-a88b-9436d1cc0a81, .ea02b494-f47b-495b-ad1f-2f760a364879, .eb4eafcb-9062-487a-8044-0124ed5f4a9d, .f35d5fba-5204-408f-a19d-24b16d8b39b0, .f65aaba6-4029-40d4-b7fe-889e020ccc1d, .f9116d5c-53ba-4c3a-890e-70dc9d669af1 {
        fill-rule: evenodd;
      }

      .be22656e-1a81-4413-94ea-2c6a0c305b49, .e5cf87c7-468b-4317-bbe6-344519096bf2 {
        fill: #c7ffff;
      }

      .be22656e-1a81-4413-94ea-2c6a0c305b49 {
        stroke: #6b6b6b;
        stroke-miterlimit: 10;
      }

      .a73b2c29-badd-474b-92b2-4797d3b1b565 {
        fill: #f5fbff;
      }

      .afbf47e5-5b39-47a9-ab51-977f99ab76e5 {
        fill: #76c5e0;
      }

      .e330ef5d-53bf-4d91-92aa-56ac2dfc1552 {
        fill: #5bb0c7;
      }

      .b2961c83-4b02-464c-8a86-5e4fc91e4006 {
        fill: #f60;
      }

      .bdd2ab8a-139d-47f2-979b-bcab08c8350f {
        fill: #c90e0e;
      }

      .b7cfd667-edcb-42f0-9121-c830fd508a8f {
        fill: #c75000;
      }

      .bd755a11-6aba-4bce-b085-a68f61a3f46d {
        fill: #2c6fb7;
      }

      .b4ee9168-5d34-4504-9d03-5b356284b1d0 {
        fill: #65a0c4;
      }

      .f65aaba6-4029-40d4-b7fe-889e020ccc1d {
        fill: #5787d3;
      }

      .ea02b494-f47b-495b-ad1f-2f760a364879 {
        fill: #6c9add;
      }

      .af9fc45e-a7dd-4ce6-bcf4-6d1ffed513ab {
        fill: #b500a8;
      }

      .b492b877-984e-4314-90a8-ba1aa9101c78 {
        fill: #ff00e1;
      }

      .b7bc197e-fc0c-4243-b820-79fe19b20479 {
        fill: #c61cae;
      }

      .f35d5fba-5204-408f-a19d-24b16d8b39b0 {
        fill: #cf5f14;
      }

      .b7a457c3-03f9-4215-be6b-d018047f54fe {
        fill: #e38a14;
      }

      .eb4eafcb-9062-487a-8044-0124ed5f4a9d {
        fill: #9ce0e0;
      }

      .f9116d5c-53ba-4c3a-890e-70dc9d669af1 {
        fill: #ff8726;
      }

      .e8081204-84fe-47a9-a88b-9436d1cc0a81 {
        fill: #ff4426;
      }

      .bbe1b043-3760-42aa-bade-b3cc96e210d3 {
        fill: #ffeccf;
      }
    </style>
  </defs>
  <g id="b4f17518-159f-41eb-8756-ffeab6a6015e" data-name="Layer 8">
    <g>
      <path class="e11889da-0d47-48fc-a56f-554017f5bc0b" d="M13.33,173a5.62,5.62,0,0,1-1.66-3.92,5.52,5.52,0,0,1,1.63-4l5.91-5.91A5.45,5.45,0,0,1,21,158a5.93,5.93,0,0,1,.78-.24,5.65,5.65,0,0,1,1.25-.18h0l3.58-3.66,4.27-4.24,5-4.91,5.81-5.57,8.35-7.86,6.57-6.08,5.46-5,4.4-4,6.36-5.58L75,109c.67-.58,1.34-1.15,2-1.7,1.27-1.07,2.5-2.09,3.7-3.08l.54-.45c1.12-.91,2.21-1.79,3.27-2.63l.7-.56,3-2.34.61-.47c.87-.67,1.74-1.32,2.57-1.94l3.07-2.28c.86-.66,1.73-1.31,2.6-2,.58-.42,1.17-.83,1.76-1.24.88-.61,1.78-1.22,2.69-1.81.59-.39,1.2-.78,1.81-1.16.92-.57,1.85-1.12,2.79-1.67l1.89-1c.83-.46,1.68-.9,2.54-1.33.46-.25.93-.48,1.35-.69,0,0,1.13-.55,1.13-.55l1.71,3.2L113.17,82l.87-.4c4-1.76,8-3.46,12-5.1l2.75-1.14a4.75,4.75,0,0,1,.49-.17l.66-.24.62-.21c.34-.1.7-.19,1.07-.27a5.06,5.06,0,0,1,.53-.11c.41-.07.79-.11,1.17-.14a3,3,0,0,1,.48,0l.53,0,10.07-9.57a3.73,3.73,0,0,1,.32-.36l10.07-9.58a2.73,2.73,0,0,1,.46-.38L182,28.82c0-.12,0-.27,0-.42v-.13l-6.17-5.68a3.62,3.62,0,0,1,0-5.12L190.4,2.9a3.64,3.64,0,0,1,5.12,0l.16.18,5.94,6.77h.07a5.59,5.59,0,0,1,1.13.37l.15.07a4.12,4.12,0,0,1,.47.25,4.84,4.84,0,0,1,.92.73l5.11,5.11a4.16,4.16,0,0,1,.57.7,3.68,3.68,0,0,1,.46.7c.58,1.14,2.12,4.16-7.1,13.38l-1,.94-1.27,1.18-.22.18-2.52-2.6,2.39,2.72-.76.66-1.11.92-1.13.86-1,.72-.69.45-.69.4-.7.36-.4.19-.36.14-.3.1-45.9,48.79v.24a13.46,13.46,0,0,1-.48,3.65l-.11.37c-.08.27-.17.53-.26.79a3.23,3.23,0,0,1-.31,1.17c-.26.56-.59,1.14-.94,1.73l-.3.47c-.29.45-.62.94-1,1.44l-.17.24q-.63.85-1.35,1.71l-.29.35c-.47.55-.89,1-1.34,1.52l-.32.35c-.54.6-1.11,1.19-1.7,1.79l-.27.27-1.65,1.63-.47.44c-.64.61-1.31,1.24-2,1.87l-.14.13c-.73.67-1.38,1.25-2,1.83l-.26.24-2.06,1.8L127.06,114l-2.78,2.31a7.77,7.77,0,0,0-.74.78l-.21.24c-.29.35-.58.73-.86,1.11l-1.28,1.77c-.35.48-.78,1-1.23,1.56a5.53,5.53,0,0,1-.41.46c-.23.26-.36.41-.5.55-.34.34-.71.68-1.09,1a16.19,16.19,0,0,1-4.67,2.48,10.43,10.43,0,0,0-2.74,1.35,3.89,3.89,0,0,0-.41.4,3.64,3.64,0,0,0-.36.41c-.06.08-.13.15-.2.23-.44.55-.9,1.22-1.36,1.88l-.28.39c-.31.45-.63.9-1,1.33l0,0c-.27.35-.54.69-.83,1a3.13,3.13,0,0,1-.41.49,8,8,0,0,1-.92.83,18,18,0,0,1-3.71,2.36l-1.07.53a13.87,13.87,0,0,0-3.24,1.93,11.73,11.73,0,0,0-1.06,1.14l-.15.18c-.38.47-.72.92-1,1.38l-3.08-1.89,3,2-1.12,1.66c-.36.54-.72,1.07-1.1,1.59l-.24.31a18.15,18.15,0,0,1-1.52,1.84c-.41.41-.8.78-1.21,1.13l-.49.4-.66.54-.11.08c-.45.34-1,.73-1.53,1.12l-1.71,1.19c-.42.3-.86.62-1.27.95s-.6.51-.85.73l-.23.21a4.27,4.27,0,0,0-.44.41c-1.87,2-3.7,3.93-5.49,5.89a3.6,3.6,0,0,1-.58.65L52.76,187.28a1.85,1.85,0,0,1,0,.23,5.14,5.14,0,0,1-.21,1.17,5.06,5.06,0,0,1-.26.74,5.47,5.47,0,0,1-1.14,1.66L45.23,197a5.61,5.61,0,0,1-7.93,0Z"/>
      <g>
        <path class="be22656e-1a81-4413-94ea-2c6a0c305b49" d="M48.91,186.17l24.54-27.94,0,0,.11-.17c.75-.82,1.5-1.63,2.26-2.44h0l.82-.89,2.6-2.77.51-.52a73.38,73.38,0,0,1,6.13-4.63h0a17.87,17.87,0,0,0,1.9-1.67c1.89-2,3.17-4.58,5-6.82a17.79,17.79,0,0,1,1.52-1.62c2.43-2.19,5.62-2.75,8.2-5a5,5,0,0,0,.61-.55l-.06,0c1.37-1.41,2.51-3.45,3.83-5.06v0a10.11,10.11,0,0,1,1.32-1.37c2.16-1.81,5.3-2.07,7.43-3.85a9.93,9.93,0,0,0,1.46-1.44c1.69-2,3-4.46,4.85-6,2.07-1.72,4.08-3.41,6-5l.27-.24c.37-.31.73-.63,1.09-1l.69-.59h0c6.45-5.69,11.42-10.79,13.36-14.85l-.12-.12a9.7,9.7,0,0,0,.79-5.83L191.85,35c1.25.26,5.38-2.82,9-6.42a37.65,37.65,0,0,0,6.29-9,.83.83,0,0,0-.22-.61l-.51-.51-4.57-4.57,0,0a1.48,1.48,0,0,0-.29-.22,1.86,1.86,0,0,0-1.57-.2l-7-8-.82.82-.29.3-.53.52-1,1-.82.82-.82.82-1,1-.82.82-.78.79-.88.88-.82.81-.79.79-1,1-.81.82-.82.82-1,1-.82.82-.08.09-.71.7,7.64,7a1.85,1.85,0,0,0,.13,2.48l.18.19-29,27.56,0,0-10.07,9.58,0,0-11.6,11c-.18,0-.37-.06-.55-.07l0,0a9.8,9.8,0,0,0-4.93.92l0,0c-4.91,2-9.86,4.06-14.71,6.23-.45.19-1.09.48-1.92.89A97.28,97.28,0,0,0,95.69,97.09c-4.61,3.36-10,7.6-16.39,13-20,16.89-49.71,45.53-55,51.47a2,2,0,0,0-2.55.2l-4.3,4.3-1.61,1.61a2,2,0,0,0,0,2.84l24,24a2,2,0,0,0,2.81,0l5.91-5.91A2,2,0,0,0,48.91,186.17Z"/>
        <g>
          <rect class="a73b2c29-badd-474b-92b2-4797d3b1b565" x="180.4" y="11.32" width="18.03" height="11.16" transform="translate(43.53 138.89) rotate(-45)"/>
          <path class="afbf47e5-5b39-47a9-ab51-977f99ab76e5" d="M199.65,14.79,191.32,7.1,193,5.46,200.47,14Zm-9.29-6.72,7.39,8.5-.76.76-8.27-7.62Zm-2.64,2.63,7.34,8.39-.76.76-8.18-7.54Z"/>
          <path class="e330ef5d-53bf-4d91-92aa-56ac2dfc1552" d="M199.65,14.79,191.32,7.1l.82-.82,7.92,8.16Zm-10.11-5.9L197.37,17l-.38.38-8.27-7.62Zm-2.64,2.63,7.78,8-.38.38-8.18-7.54Z"/>
          <path class="afbf47e5-5b39-47a9-ab51-977f99ab76e5" d="M185.24,13.19l7.42,8.47-.79.79-8.24-7.66Zm-2.61,2.6,7.31,8.42-.76.76L181,17.43ZM180,18.42l7.28,8.33-.79.73L178.39,20Z"/>
          <path class="e330ef5d-53bf-4d91-92aa-56ac2dfc1552" d="M184.42,14l7.83,8.07-.38.38-8.24-7.66Zm-2.6,2.61,7.74,8-.38.38L181,17.43Zm-2.64,2.63,7.69,7.86-.38.38L178.39,20Z"/>
          <path class="b2961c83-4b02-464c-8a86-5e4fc91e4006" d="M124.4,97.58c-3.92-3.92-3.05-11.12,1.89-16.06s11-4.7,15-.79,4.16,10-.81,14.92-12.15,5.81-16,1.93Z"/>
          <path class="bdd2ab8a-139d-47f2-979b-bcab08c8350f" d="M143.34,91.84,130.19,78.69c-4.91,2-9.86,4.06-14.71,6.23-24.77,11-42.79,34.77-59.66,51.47-12.4,12.28-25.88,18.28-32.21,26L48.21,187l25.37-28.9C75.42,156,77.35,154,79.25,152c2.43-2.61,6.08-4.28,8.56-6.83s3.78-5.93,6.53-8.44c2.43-2.19,5.62-2.75,8.2-5,2.08-1.78,3.55-5.16,5.69-6.94s5.3-2.07,7.43-3.85c2.47-2,4-5.49,6.31-7.44,10.17-8.44,18.69-16.06,21.37-21.68Z"/>
          <path class="b2961c83-4b02-464c-8a86-5e4fc91e4006" d="M73.47,158.25l.11-.17C75.45,156,77.35,154,79.25,152c2.43-2.61,6.08-4.28,8.56-6.83s3.78-5.93,6.53-8.44c2.43-2.19,5.62-2.75,8.2-5,2.08-1.78,3.55-5.16,5.69-6.94s5.3-2.07,7.43-3.85c2.47-2,4-5.49,6.31-7.44,2.81-2.34,5.54-4.64,8-6.83-19.17,7.33-59.84,30-57.87,48.24a4.72,4.72,0,0,0,1.34,3.32Z"/>
          <path class="b7cfd667-edcb-42f0-9121-c830fd508a8f" d="M75.83,155.65a22.42,22.42,0,0,1,1.1-2.83c1-2.32,1.7-3.62,2.82-4,2.45-.71,4.54-1.37,6.16-2-2.26,1.72-4.82,3.14-6.66,5.16-1.14,1.2-2.31,2.43-3.42,3.66Zm16.41-16.59c.2-.5.37-1,.6-1.62,1.64-4.8,6.28-4.36,9.55-5.89a4.78,4.78,0,0,1,.76-.35,5,5,0,0,1-.61.55c-2.58,2.22-5.77,2.78-8.2,5a19.22,19.22,0,0,0-2.1,2.34Zm14.67-12.88a7.34,7.34,0,0,1,4.86-4.79c2.33-.54,4.19-.84,5.65-2.25a10.15,10.15,0,0,1-1.76,1.82c-2.13,1.78-5.27,2-7.43,3.85a10.11,10.11,0,0,0-1.32,1.37Z"/>
          <path class="b2961c83-4b02-464c-8a86-5e4fc91e4006" d="M115.77,84.8l-.29.12c-3,1.3-14.12,6.53-36.18,25.12-21.36,18-53.68,49.38-55.69,52.34L34.73,173.5c7.13-18,41.86-43.95,62.51-60.9s24.1-21.77,18.53-27.8Z"/>
          <path class="bd755a11-6aba-4bce-b085-a68f61a3f46d" d="M192.77,34.05l-5.35-5.35-52,49.46a22.8,22.8,0,0,0,3.41,4.06,25.15,25.15,0,0,0,4.75,4.16Z"/>
          <path class="b4ee9168-5d34-4504-9d03-5b356284b1d0" d="M190.7,34l-3-3L137.16,80.45a21.71,21.71,0,0,0,1.64,1.77c1,1,1.74,1.79,2.93,2.87Z"/>
          <path class="f65aaba6-4029-40d4-b7fe-889e020ccc1d" d="M206.91,19l-5.08-5.08a1.85,1.85,0,0,0-2.6,0l-13.1,13.1a1.84,1.84,0,0,0,0,2.6l5.08,5.09c2.27,2.27,17.94-13.41,15.67-15.68Z"/>
          <path class="ea02b494-f47b-495b-ad1f-2f760a364879" d="M206.4,18.44l-4.6-4.6a1.36,1.36,0,0,0-.51-.33L194.8,20a1.4,1.4,0,0,0-.09,1.95l3.58,3.59a1.39,1.39,0,0,0,2-.1L206.73,19a1.36,1.36,0,0,0-.33-.51Z"/>
          <path class="af9fc45e-a7dd-4ce6-bcf4-6d1ffed513ab" d="M191.71,35c1.07.54,5.38-2.64,9.13-6.38s7-8.11,6.43-9.18Z"/>
          <path class="b492b877-984e-4314-90a8-ba1aa9101c78" d="M157.31,57.26l-10.07,9.58,2,2a1.16,1.16,0,0,0,1.69,0l8-8.28a1.28,1.28,0,0,0,0-1.75Z"/>
          <path class="b7bc197e-fc0c-4243-b820-79fe19b20479" d="M158.83,58.78l-10,9.68.39.39a1.47,1.47,0,0,0,1.81,0c3.4-2,6.57-4.48,8.16-8.22a1.71,1.71,0,0,0-.35-1.81Z"/>
          <path class="f35d5fba-5204-408f-a19d-24b16d8b39b0" d="M122.05,102.14a6.15,6.15,0,1,1,8.78.06,6.21,6.21,0,0,1-8.78-.06Z"/>
          <path class="b7a457c3-03f9-4215-be6b-d018047f54fe" d="M122.64,101.55a5.31,5.31,0,1,1,7.6,0,5.37,5.37,0,0,1-7.6,0Z"/>
          <path class="b2961c83-4b02-464c-8a86-5e4fc91e4006" d="M124.89,83.1a16.28,16.28,0,0,1,1.4-1.58c2.81-2.81,5.93-4,8.86-3.72-2.5,1.6-5.94,3.13-10.26,5.3Z"/>
          <path class="bdd2ab8a-139d-47f2-979b-bcab08c8350f" d="M131.39,79.89l-1.2-1.2c-4.91,2-9.86,4.06-14.71,6.23-24.77,11-42.79,34.77-59.66,51.47-12.4,12.28-25.88,18.28-32.21,26l3.26,3.26c12.92-13.16,49.56-50,67.87-63.21,8.59-6.2,18.22-13,25.21-16.78,4.56-2.47,8.41-4.23,11.44-5.76Z"/>
          <path class="b2961c83-4b02-464c-8a86-5e4fc91e4006" d="M115.77,84.8l-.29.12c-3,1.3-14.12,6.53-36.18,25.12-21.36,18-53.68,49.38-55.69,52.34l3.26,3.26c12.92-13.16,49.56-50,67.87-63.21,7.63-5.47,16-11.47,22.71-15.36a11.35,11.35,0,0,0-1.68-2.27Z"/>
          <path class="eb4eafcb-9062-487a-8044-0124ed5f4a9d" d="M27.66,164.79l-3.05-3a2,2,0,0,0-2.84,0l-4.3,4.3,4.75,4.4s2-2.14,5.44-5.62Z"/>
          <path class="f9116d5c-53ba-4c3a-890e-70dc9d669af1" d="M124.89,83.1a16.28,16.28,0,0,1,1.4-1.58c2.81-2.81,5.93-4,8.86-3.72-2.5,1.6-5.94,3.13-10.26,5.3Z"/>
          <path class="e8081204-84fe-47a9-a88b-9436d1cc0a81" d="M131.39,79.89l-1.2-1.2c-4.91,2-9.86,4.06-14.71,6.23-24.77,11-42.79,34.77-59.66,51.47-12.4,12.28-25.88,18.28-32.21,26l3.26,3.26c12.92-13.16,49.56-50,67.87-63.21,8.59-6.2,18.22-13,25.21-16.78,4.56-2.47,8.41-4.23,11.44-5.76Z"/>
          <path class="f9116d5c-53ba-4c3a-890e-70dc9d669af1" d="M115.77,84.8l-.29.12c-3,1.3-14.12,6.53-36.18,25.12-21.36,18-53.68,49.38-55.69,52.34l3.26,3.26c12.92-13.16,49.56-50,67.87-63.21,7.63-5.47,16-11.47,22.71-15.36a11.35,11.35,0,0,0-1.68-2.27Z"/>
          <path class="bbe1b043-3760-42aa-bade-b3cc96e210d3" d="M23.64,162.59c-1-.81-2,.12-1.62.66,1.9,3.07,3.92,1.11,1.62-.66Z"/>
          <path class="e5cf87c7-468b-4317-bbe6-344519096bf2" d="M48.58,185.71l-24-24a2,2,0,0,0-2.84,0l-5.91,5.91a2,2,0,0,0,0,2.84l24,24a2,2,0,0,0,2.81,0l5.91-5.91a2,2,0,0,0,0-2.81Z"/>
        </g>
      </g>
    </g>
  </g>
</svg>
