<svg xmlns="http://www.w3.org/2000/svg" xmlns:xlink="http://www.w3.org/1999/xlink" width="114" height="164" viewBox="0 0 114 164">
  <defs>
    <style>
      .a318381d-faf4-48fb-afd1-3ea9e918b41a {
        fill: none;
      }

      .a318381d-faf4-48fb-afd1-3ea9e918b41a, .a4c88a56-f956-4c31-acc4-8fa5f4983419, .b27a25e5-bceb-45b5-bda7-7a78b888197b {
        stroke: #323232;
      }

      .a318381d-faf4-48fb-afd1-3ea9e918b41a, .a4c88a56-f956-4c31-acc4-8fa5f4983419, .b1222669-db27-49b2-a025-0e8933214020, .b27a25e5-bceb-45b5-bda7-7a78b888197b {
        stroke-miterlimit: 10;
      }

      .f1b413d6-d3d7-4c26-ad75-6cf9d309622d {
        isolation: isolate;
      }

      .ac81ee98-fdf8-4174-b74e-4476bb240058 {
        clip-path: url(#af816e67-19c8-4e9e-9501-3797cba299d7);
      }

      .a7f70a9d-cbfc-41b5-b614-661069f8fd8c, .b6c0e559-8f0e-42fe-9307-353e4108b2fb, .b748ae54-fec6-4eaa-84df-fb1a3aed9346 {
        opacity: 0.5;
      }

      .a4c88a56-f956-4c31-acc4-8fa5f4983419, .e1809eb1-0077-452e-9ee3-0c8b63b69d79, .e3ddffe6-f113-4270-8931-d4cef7517231 {
        fill: #fff;
      }

      .b27a25e5-bceb-45b5-bda7-7a78b888197b {
        fill: #a0be21;
      }

      .a7f70a9d-cbfc-41b5-b614-661069f8fd8c, .aacdff84-8945-440d-b647-7f513fc81845, .e1809eb1-0077-452e-9ee3-0c8b63b69d79, .e3ddffe6-f113-4270-8931-d4cef7517231 {
        mix-blend-mode: screen;
      }

      .b1222669-db27-49b2-a025-0e8933214020 {
        fill: #fff6b2;
        stroke: #424242;
      }

      .a88a4812-75db-454f-96e3-8af72aa57799 {
        fill: #8e05c1;
      }

      .aacdff84-8945-440d-b647-7f513fc81845, .b6c0e559-8f0e-42fe-9307-353e4108b2fb, .baf7c0de-1638-4838-a84d-016a53c8b78f {
        fill: #a7a5a8;
      }

      .f499b49a-0f0c-4c01-9c06-7e081721ad5f {
        opacity: 0.3;
      }

      .b6c0e559-8f0e-42fe-9307-353e4108b2fb, .f499b49a-0f0c-4c01-9c06-7e081721ad5f {
        mix-blend-mode: multiply;
      }

      .a7f70a9d-cbfc-41b5-b614-661069f8fd8c {
        fill: #6a4a7f;
      }

      .aacdff84-8945-440d-b647-7f513fc81845, .e1809eb1-0077-452e-9ee3-0c8b63b69d79 {
        opacity: 0.2;
      }
    </style>
    <clipPath id="af816e67-19c8-4e9e-9501-3797cba299d7">
      <path class="a318381d-faf4-48fb-afd1-3ea9e918b41a" d="M110.21-67.21c2.93-.07,5.36,0,5.36,0S67-220.78,52.74-220.78c-8.59,0-23,64.46-27.56,78.84s-9.7,29.26-13.72,40.78h0L8.19-92l0,0c-2.32,6.53-3.8,10.61-3.8,10.61S5.32-77,19.55-77.52a7.39,7.39,0,0,1,1,0L17.35-58.56h0a5.65,5.65,0,0,0,.09,2.72c1.09,4.13,16.93,6.2,23.8,7.22a13.06,13.06,0,0,0,2.31.54L44.44-39c2.21,1,11.5,10.48,44.45,2.9,2.42-.56,3.11-1.6,2.81-2.9h0l-.59-12.1c6,1.39,13,3.73,15.86,2.61,6-2.32,9-6.68,4.74-12Z"/>
    </clipPath>
  </defs>
  <g class="f1b413d6-d3d7-4c26-ad75-6cf9d309622d">
    <g id="bcf6fa94-c13e-4e7d-b4e7-9c1c36b5429a" data-name="Layer 12">
      <g>
        <g class="ac81ee98-fdf8-4174-b74e-4476bb240058">
          <g class="b748ae54-fec6-4eaa-84df-fb1a3aed9346">
            <g>
              <ellipse class="a4c88a56-f956-4c31-acc4-8fa5f4983419" cx="20.42" cy="24.72" rx="12.2" ry="11.94"/>
              <ellipse class="b27a25e5-bceb-45b5-bda7-7a78b888197b" cx="20.42" cy="24.72" rx="10.66" ry="10.43"/>
              <ellipse class="a4c88a56-f956-4c31-acc4-8fa5f4983419" cx="20.42" cy="24.72" rx="9.5" ry="9.29"/>
              <ellipse class="b27a25e5-bceb-45b5-bda7-7a78b888197b" cx="20.42" cy="24.72" rx="7.69" ry="7.53"/>
              <ellipse class="a4c88a56-f956-4c31-acc4-8fa5f4983419" cx="20.42" cy="24.72" rx="6.23" ry="6.1"/>
              <ellipse class="b27a25e5-bceb-45b5-bda7-7a78b888197b" cx="20.42" cy="24.72" rx="5.05" ry="4.94"/>
              <ellipse class="a4c88a56-f956-4c31-acc4-8fa5f4983419" cx="20.42" cy="24.72" rx="3.64" ry="3.56"/>
              <ellipse class="b27a25e5-bceb-45b5-bda7-7a78b888197b" cx="20.42" cy="24.72" rx="2.65" ry="2.6"/>
            </g>
            <g>
              <path class="a4c88a56-f956-4c31-acc4-8fa5f4983419" d="M8.48,8.34A16.57,16.57,0,0,0-8.26-8a17.24,17.24,0,0,0-2.61.2V24.52a17.24,17.24,0,0,0,2.61.2A16.56,16.56,0,0,0,8.48,8.34Z"/>
              <path class="b27a25e5-bceb-45b5-bda7-7a78b888197b" d="M6.35,8.34A14.46,14.46,0,0,0-8.26-6a15,15,0,0,0-2.61.23V22.41a15,15,0,0,0,2.61.24A14.46,14.46,0,0,0,6.35,8.34Z"/>
              <path class="a4c88a56-f956-4c31-acc4-8fa5f4983419" d="M4.76,8.34A12.88,12.88,0,0,0-8.26-4.4a13.92,13.92,0,0,0-2.61.25v25a13.13,13.13,0,0,0,2.61.26A12.89,12.89,0,0,0,4.76,8.34Z"/>
              <path class="b27a25e5-bceb-45b5-bda7-7a78b888197b" d="M2.29,8.34A10.44,10.44,0,0,0-8.26-2a10.66,10.66,0,0,0-2.61.32v20a11.17,11.17,0,0,0,2.61.31A10.44,10.44,0,0,0,2.29,8.34Z"/>
              <path class="a4c88a56-f956-4c31-acc4-8fa5f4983419" d="M.28,8.34A8.45,8.45,0,0,0-8.26,0a8.64,8.64,0,0,0-2.61.4V16.31a9,9,0,0,0,2.61.39A8.45,8.45,0,0,0,.28,8.34Z"/>
            </g>
            <g>
              <ellipse class="a4c88a56-f956-4c31-acc4-8fa5f4983419" cx="50.18" cy="10.64" rx="12.2" ry="11.94"/>
              <ellipse class="b27a25e5-bceb-45b5-bda7-7a78b888197b" cx="50.18" cy="10.64" rx="10.66" ry="10.43"/>
              <ellipse class="a4c88a56-f956-4c31-acc4-8fa5f4983419" cx="50.18" cy="10.64" rx="9.5" ry="9.29"/>
              <ellipse class="b27a25e5-bceb-45b5-bda7-7a78b888197b" cx="50.18" cy="10.64" rx="7.69" ry="7.53"/>
              <ellipse class="a4c88a56-f956-4c31-acc4-8fa5f4983419" cx="50.18" cy="10.64" rx="6.23" ry="6.1"/>
              <ellipse class="b27a25e5-bceb-45b5-bda7-7a78b888197b" cx="50.18" cy="10.64" rx="5.05" ry="4.94"/>
              <ellipse class="a4c88a56-f956-4c31-acc4-8fa5f4983419" cx="50.18" cy="10.64" rx="3.64" ry="3.56"/>
              <ellipse class="b27a25e5-bceb-45b5-bda7-7a78b888197b" cx="50.18" cy="10.64" rx="2.65" ry="2.6"/>
            </g>
            <g>
              <ellipse class="a4c88a56-f956-4c31-acc4-8fa5f4983419" cx="80.45" cy="25.08" rx="13.29" ry="13"/>
              <ellipse class="b27a25e5-bceb-45b5-bda7-7a78b888197b" cx="80.45" cy="25.08" rx="11.61" ry="11.36"/>
              <ellipse class="a4c88a56-f956-4c31-acc4-8fa5f4983419" cx="80.45" cy="25.08" rx="10.34" ry="10.12"/>
              <ellipse class="b27a25e5-bceb-45b5-bda7-7a78b888197b" cx="80.45" cy="25.08" rx="8.38" ry="8.2"/>
              <ellipse class="a4c88a56-f956-4c31-acc4-8fa5f4983419" cx="80.45" cy="25.08" rx="6.78" ry="6.64"/>
              <ellipse class="b27a25e5-bceb-45b5-bda7-7a78b888197b" cx="80.45" cy="25.08" rx="5.5" ry="5.38"/>
              <ellipse class="a4c88a56-f956-4c31-acc4-8fa5f4983419" cx="80.45" cy="25.08" rx="3.97" ry="3.88"/>
              <ellipse class="b27a25e5-bceb-45b5-bda7-7a78b888197b" cx="80.45" cy="25.08" rx="2.89" ry="2.83"/>
            </g>
            <g>
              <ellipse class="a4c88a56-f956-4c31-acc4-8fa5f4983419" cx="26.04" cy="-11.89" rx="16.74" ry="16.38"/>
              <ellipse class="b27a25e5-bceb-45b5-bda7-7a78b888197b" cx="26.04" cy="-11.89" rx="14.62" ry="14.3"/>
              <ellipse class="a4c88a56-f956-4c31-acc4-8fa5f4983419" cx="26.04" cy="-11.89" rx="13.03" ry="12.74"/>
            </g>
            <g>
              <ellipse class="a4c88a56-f956-4c31-acc4-8fa5f4983419" cx="95.07" cy="-8.18" rx="16.74" ry="16.38"/>
              <ellipse class="b27a25e5-bceb-45b5-bda7-7a78b888197b" cx="95.07" cy="-8.18" rx="14.62" ry="14.3"/>
              <ellipse class="a4c88a56-f956-4c31-acc4-8fa5f4983419" cx="95.07" cy="-8.18" rx="13.03" ry="12.74"/>
              <ellipse class="b27a25e5-bceb-45b5-bda7-7a78b888197b" cx="95.07" cy="-8.18" rx="10.55" ry="10.32"/>
              <ellipse class="a4c88a56-f956-4c31-acc4-8fa5f4983419" cx="95.07" cy="-8.18" rx="8.55" ry="8.36"/>
            </g>
            <ellipse class="a4c88a56-f956-4c31-acc4-8fa5f4983419" cx="114.57" cy="33.5" rx="8.76" ry="8.57"/>
            <ellipse class="a4c88a56-f956-4c31-acc4-8fa5f4983419" cx="102.27" cy="17.06" rx="7.03" ry="6.87"/>
            <ellipse class="a4c88a56-f956-4c31-acc4-8fa5f4983419" cx="31.08" cy="10.49" rx="3.85" ry="3.77"/>
            <ellipse class="a4c88a56-f956-4c31-acc4-8fa5f4983419" cx="60.81" cy="25.29" rx="3.85" ry="3.77"/>
            <ellipse class="a4c88a56-f956-4c31-acc4-8fa5f4983419" cx="21.26" cy="41.39" rx="2.81" ry="2.74"/>
            <ellipse class="a4c88a56-f956-4c31-acc4-8fa5f4983419" cx="37.97" cy="22.65" rx="3.39" ry="3.32"/>
            <path class="a4c88a56-f956-4c31-acc4-8fa5f4983419" d="M116.18,44.66a3.73,3.73,0,0,0-3.13,1.69h6.25A3.71,3.71,0,0,0,116.18,44.66Z"/>
            <ellipse class="a4c88a56-f956-4c31-acc4-8fa5f4983419" cx="98.03" cy="33.12" rx="4.11" ry="4.02"/>
            <ellipse class="a4c88a56-f956-4c31-acc4-8fa5f4983419" cx="69.75" cy="40.43" rx="3.85" ry="3.77"/>
            <ellipse class="a4c88a56-f956-4c31-acc4-8fa5f4983419" cx="14.99" cy="8.2" rx="3.85" ry="3.77"/>
            <ellipse class="a4c88a56-f956-4c31-acc4-8fa5f4983419" cx="-0.4" cy="32.16" rx="7.03" ry="6.87"/>
            <ellipse class="a4c88a56-f956-4c31-acc4-8fa5f4983419" cx="71.17" cy="2.93" rx="7.73" ry="7.56"/>
            <g>
              <path class="a4c88a56-f956-4c31-acc4-8fa5f4983419" d="M.37,40.87a16.86,16.86,0,0,0-11.24,4.25v1.23H12.86A16.84,16.84,0,0,0,.37,40.87Z"/>
              <path class="b27a25e5-bceb-45b5-bda7-7a78b888197b" d="M-9.08,46.35H9.83A14.75,14.75,0,0,0,.37,43,14.74,14.74,0,0,0-9.08,46.35Z"/>
              <path class="a4c88a56-f956-4c31-acc4-8fa5f4983419" d="M-6.37,46.35H7.12A13.18,13.18,0,0,0,.37,44.51,13.11,13.11,0,0,0-6.37,46.35Z"/>
            </g>
            <g>
              <path class="a4c88a56-f956-4c31-acc4-8fa5f4983419" d="M46.62,27A16.57,16.57,0,0,0,29.88,43.38a16.08,16.08,0,0,0,.28,3H63.08a16.08,16.08,0,0,0,.28-3A16.56,16.56,0,0,0,46.62,27Z"/>
              <path class="b27a25e5-bceb-45b5-bda7-7a78b888197b" d="M46.62,29.08A14.46,14.46,0,0,0,32,43.38a13.86,13.86,0,0,0,.32,3h28.6a13.86,13.86,0,0,0,.32-3A14.46,14.46,0,0,0,46.62,29.08Z"/>
              <path class="a4c88a56-f956-4c31-acc4-8fa5f4983419" d="M46.62,30.64a12.88,12.88,0,0,0-13,12.74,12.14,12.14,0,0,0,.36,3H59.29a12.64,12.64,0,0,0,.36-3A12.88,12.88,0,0,0,46.62,30.64Z"/>
              <path class="b27a25e5-bceb-45b5-bda7-7a78b888197b" d="M46.62,33.06A10.43,10.43,0,0,0,36.07,43.38a10.07,10.07,0,0,0,.45,3H56.73a10.07,10.07,0,0,0,.44-3A10.43,10.43,0,0,0,46.62,33.06Z"/>
              <path class="a4c88a56-f956-4c31-acc4-8fa5f4983419" d="M46.62,35a8.45,8.45,0,0,0-8.54,8.36,8.12,8.12,0,0,0,.55,3h16a8.13,8.13,0,0,0,.56-3A8.46,8.46,0,0,0,46.62,35Z"/>
              <path class="b27a25e5-bceb-45b5-bda7-7a78b888197b" d="M46.62,36.61a6.85,6.85,0,0,0-6.92,6.77,6.59,6.59,0,0,0,.7,3H52.84a6.59,6.59,0,0,0,.7-3A6.85,6.85,0,0,0,46.62,36.61Z"/>
              <path class="a4c88a56-f956-4c31-acc4-8fa5f4983419" d="M46.62,38.49a4.94,4.94,0,0,0-5,4.89,4.81,4.81,0,0,0,1,3h7.94a4.82,4.82,0,0,0,1-3A5,5,0,0,0,46.62,38.49Z"/>
              <path class="b27a25e5-bceb-45b5-bda7-7a78b888197b" d="M50.26,43.38a3.64,3.64,0,0,0-7.28,0,3.55,3.55,0,0,0,1.63,3h4A3.54,3.54,0,0,0,50.26,43.38Z"/>
            </g>
            <g>
              <path class="a4c88a56-f956-4c31-acc4-8fa5f4983419" d="M95.07,39.32a16.83,16.83,0,0,0-13.75,7h27.49A16.81,16.81,0,0,0,95.07,39.32Z"/>
              <path class="b27a25e5-bceb-45b5-bda7-7a78b888197b" d="M95.07,41.39a14.7,14.7,0,0,0-11.06,5h22.12A14.7,14.7,0,0,0,95.07,41.39Z"/>
              <path class="a4c88a56-f956-4c31-acc4-8fa5f4983419" d="M86.21,46.35h17.71a13.23,13.23,0,0,0-17.71,0Z"/>
              <path class="b27a25e5-bceb-45b5-bda7-7a78b888197b" d="M90.58,46.35h9a10.75,10.75,0,0,0-9,0Z"/>
            </g>
            <g>
              <path class="a4c88a56-f956-4c31-acc4-8fa5f4983419" d="M111.08,8.34a16.49,16.49,0,0,0,14.13,16.18V-7.84A16.5,16.5,0,0,0,111.08,8.34Z"/>
              <path class="b27a25e5-bceb-45b5-bda7-7a78b888197b" d="M113.2,8.34a14.4,14.4,0,0,0,12,14.07V-5.73A14.4,14.4,0,0,0,113.2,8.34Z"/>
            </g>
          </g>
        </g>
        <path class="a318381d-faf4-48fb-afd1-3ea9e918b41a" d="M110.21-67.21c2.93-.07,5.36,0,5.36,0S67-220.78,52.74-220.78c-8.59,0-23,64.46-27.56,78.84s-9.7,29.26-13.72,40.78h0L8.19-92l0,0c-2.32,6.53-3.8,10.61-3.8,10.61S5.32-77,19.55-77.52a7.39,7.39,0,0,1,1,0L17.35-58.56h0a5.65,5.65,0,0,0,.09,2.72c1.09,4.13,16.93,6.2,23.8,7.22a13.06,13.06,0,0,0,2.31.54L44.44-39c2.21,1,11.5,10.48,44.45,2.9,2.42-.56,3.11-1.6,2.81-2.9h0l-.59-12.1c6,1.39,13,3.73,15.86,2.61,6-2.32,9-6.68,4.74-12Z"/>
      </g>
      <g>
        <path class="e3ddffe6-f113-4270-8931-d4cef7517231" d="M32.07,159.82a10.07,10.07,0,0,1-2.94-.44,10,10,0,0,1-5.28-3.84,9.64,9.64,0,0,1-1.71-5.49V86.2c0-.64,0-1.27.07-1.91l0-.53c0-.5.1-1,.17-1.51l0-.41c.09-.6.21-1.2.33-1.79l.14-.58c.1-.41.2-.82.32-1.23l.19-.65c.17-.54.34-1.07.54-1.59l.28-.7c.13-.32.26-.64.4-1l.39-.83c.12-.25.25-.5.37-.74.29-.55.58-1.06.88-1.56l.08-.14.26-.43.62-.93.33-.45a26.92,26.92,0,0,1,2.45-3l.31-.32c.29-.3.59-.6.9-.89l.3-.26c.47-.43,1-.84,1.46-1.24l.52-.39c.46-.34.92-.66,1.39-1l.63-.41c.49-.3,1-.57,1.49-.84l.18-.1.45-.24c.77-.38,1.49-.71,2.2-1l.39-.16V44.8a2.41,2.41,0,0,1,2.41-2.41h1.89V36.55A2.41,2.41,0,0,1,47,34.14h4.91V25.42A2.4,2.4,0,0,1,49.58,23V14.76H32.65a2.41,2.41,0,0,1-2.21-1.45L28,7.55a2.41,2.41,0,0,1,2.21-3.37H68.69A2.41,2.41,0,0,1,70.9,7.55l-2.49,5.76a2.41,2.41,0,0,1-2.21,1.45H64.42V23a2.4,2.4,0,0,1-2.31,2.41v8.72H67a2.41,2.41,0,0,1,2.41,2.41v5.84h1.89a2.41,2.41,0,0,1,2.41,2.41V59.51l.39.15c.72.29,1.42.6,2.15,1l.28.15c.67.35,1.24.67,1.8,1l.22.14c.59.36,1.16.75,1.72,1.16l.09.07c.62.46,1.2.93,1.76,1.42l.06.05c.53.47,1.06,1,1.57,1.5l.33.35c.3.32.59.63.86,1h0l.37.45.76,1,.17.24h0l.07.09c.47.64.91,1.32,1.33,2l.35.57.46.85,0,.08c.13.26.27.51.39.77s.28.59.42.89.26.6.38.91l.06.15.27.67c.16.44.31.89.46,1.35.08.25.22.72.22.72.14.49.27,1,.39,1.5l.14.69c.09.42.17.83.23,1.25,0,.22.11.7.11.71.06.44.11.88.14,1.33,0,0,0,.45.06.62,0,.64.07,1.3.07,2v63.85a9.62,9.62,0,0,1-2.29,6.23,9.29,9.29,0,0,1-1.34,1.32,10.06,10.06,0,0,1-6.3,2.22Z"/>
        <g>
          <path class="b1222669-db27-49b2-a025-0e8933214020" d="M89.38,84.41c0-.19,0-.38,0-.57,0-.41-.08-.82-.13-1.22,0-.22-.06-.43-.1-.65-.06-.39-.13-.77-.21-1.15,0-.21-.08-.41-.13-.62-.11-.47-.23-.93-.36-1.39-.07-.22-.13-.43-.2-.64-.13-.42-.27-.84-.42-1.25s-.2-.5-.3-.75-.23-.56-.36-.84-.24-.54-.37-.81-.24-.48-.37-.71-.29-.57-.45-.85l-.32-.52c-.38-.63-.79-1.25-1.22-1.84l-.21-.3c-.23-.31-.48-.62-.73-.92-.1-.13-.21-.26-.32-.38-.25-.3-.52-.6-.79-.88L82,67.8A24.81,24.81,0,0,0,79,65.1l0,0c-.52-.38-1.06-.75-1.62-1.1l-.19-.12c-.51-.32-1-.61-1.57-.88l-.33-.18c-.64-.31-1.29-.61-2-.87s-1.26-.47-1.92-.69V44.8H67V36.55H59.7V23H62V12.35H66.2l2.49-5.76H30.16l2.49,5.76H52V23H54.3V36.55H47V44.8h-4.3V61.22q-1,.33-1.92.69t-2,.9l-.57.31c-.46.24-.91.49-1.35.76l-.58.38c-.43.28-.85.57-1.26.88l-.48.36c-.46.36-.9.74-1.33,1.13l-.28.24A26.48,26.48,0,0,0,24.55,86.2v63.85a7.45,7.45,0,0,0,7.52,7.36H81.93a7.45,7.45,0,0,0,7.52-7.36V86.2C89.45,85.6,89.42,85,89.38,84.41Z"/>
          <g>
            <path class="a88a4812-75db-454f-96e3-8af72aa57799" d="M73.24,61.91q-.93-.36-1.92-.69H42.68q-1,.33-1.92.69A26,26,0,0,0,24.55,86.2v63.85a7.45,7.45,0,0,0,7.52,7.36H81.93a7.45,7.45,0,0,0,7.52-7.36V86.2A26,26,0,0,0,73.24,61.91Z"/>
            <polygon class="baf7c0de-1638-4838-a84d-016a53c8b78f" points="57 44.8 42.68 44.8 42.68 61.22 57 61.22 71.32 61.22 71.32 44.8 57 44.8"/>
            <polygon class="baf7c0de-1638-4838-a84d-016a53c8b78f" points="57 36.55 46.98 36.55 46.98 44.8 57 44.8 67.02 44.8 67.02 36.55 57 36.55"/>
            <polygon class="baf7c0de-1638-4838-a84d-016a53c8b78f" points="57 23.01 54.3 23.01 54.3 36.55 57 36.55 59.7 36.55 59.7 23.01 57 23.01"/>
            <polygon class="baf7c0de-1638-4838-a84d-016a53c8b78f" points="57 12.35 51.99 12.35 51.99 23.01 57 23.01 62.01 23.01 62.01 12.35 57 12.35"/>
            <polygon class="baf7c0de-1638-4838-a84d-016a53c8b78f" points="30.16 6.59 68.69 6.59 66.2 12.35 32.65 12.35 30.16 6.59"/>
            <path class="f499b49a-0f0c-4c01-9c06-7e081721ad5f" d="M78.76,64.94c4.79,12.32,5.27,26.1,4,39.32-.92,9.42-2.89,19.22-9,26.56C65.49,140.72,50,144,38.28,138.29A28.56,28.56,0,0,1,25.9,126.23a21.3,21.3,0,0,1-1.35-4.34v28.16a7.45,7.45,0,0,0,7.52,7.36H81.93a7.45,7.45,0,0,0,7.52-7.36V86.2A26.32,26.32,0,0,0,78.76,64.94Z"/>
            <path class="a7f70a9d-cbfc-41b5-b614-661069f8fd8c" d="M71.32,61.22H42.68q-1,.33-1.92.69A25.32,25.32,0,0,0,27.54,74a60,60,0,0,1,53.05-7.53,24.7,24.7,0,0,0-7.35-4.51Q72.31,61.55,71.32,61.22Z"/>
            <path class="e1809eb1-0077-452e-9ee3-0c8b63b69d79" d="M44.75,61.22a32.51,32.51,0,0,0-4.11,5.34,47.63,47.63,0,0,0-7,17.26c-1.91,9.46-1.52,19.21-.92,28.83A36.09,36.09,0,0,0,34.45,123a13.12,13.12,0,0,0,6.83,7.78c3.3,1.38,7.63.66,9.72-2.2,1.32-1.82,1.6-4.15,1.78-6.37,1.7-20.29-.8-40.83,1.6-61Z"/>
            <path class="b6c0e559-8f0e-42fe-9307-353e4108b2fb" d="M71.32,61.22V51.37a17.49,17.49,0,0,1-8.34,5c-5.5,1.46-11.33.74-17-.12a23.89,23.89,0,0,1-3.34-1.13v6.09H71.32Z"/>
            <path class="b6c0e559-8f0e-42fe-9307-353e4108b2fb" d="M67,44.8V39.45a6.54,6.54,0,0,1-.74.56,12.05,12.05,0,0,1-4.19,1.48,28.71,28.71,0,0,1-8.38.38c-2.23-.22-4.45-1-6.7-1.09,0,0,0,4,0,4H67Z"/>
            <path class="b6c0e559-8f0e-42fe-9307-353e4108b2fb" d="M54.3,23v2.73a2.84,2.84,0,0,1,2-.06,4,4,0,0,1,2.37,3.1,8.86,8.86,0,0,1-.42,4,3.28,3.28,0,0,1-1.67,2.37,2.14,2.14,0,0,1-2.27-.64v2h5.4V23H54.3Z"/>
            <path class="b6c0e559-8f0e-42fe-9307-353e4108b2fb" d="M62,23V12.35H52v1.53a12.81,12.81,0,0,1,3.6-.21,5.18,5.18,0,0,1,3.79,2.08,4.07,4.07,0,0,1-.69,5,5,5,0,0,1-5.16.93A3.4,3.4,0,0,1,52,20.4V23H62Z"/>
            <path class="b6c0e559-8f0e-42fe-9307-353e4108b2fb" d="M32.65,12.35H66.2l2.49-5.76H62.34A2.58,2.58,0,0,1,61.11,9.3a7.34,7.34,0,0,1-3.45.85,168.17,168.17,0,0,1-20.08.28,29.67,29.67,0,0,1-5.24-.55l-.85-.21Z"/>
            <path class="aacdff84-8945-440d-b647-7f513fc81845" d="M43.82,47.49a2.86,2.86,0,0,0,1.68.57c4.48.51,9.06.91,13.49.07a3.67,3.67,0,0,0,1.42-.51A1.3,1.3,0,0,0,61,46.35c-.17-.83-1.23-1.08-2.09-1.14a67.88,67.88,0,0,0-9.46,0c-1.54.1-3.09.23-4.62.46C44,45.77,42.75,46.5,43.82,47.49Z"/>
            <path class="aacdff84-8945-440d-b647-7f513fc81845" d="M49.4,39.68a18.36,18.36,0,0,0,8.9.23c.51-.11,1.11-.35,1.19-.86a.9.9,0,0,0-.43-.84,2.64,2.64,0,0,0-1-.34,30.29,30.29,0,0,0-7.42-.59c-.68,0-2-.11-2.53.46C47.32,38.68,48.62,39.45,49.4,39.68Z"/>
            <path class="aacdff84-8945-440d-b647-7f513fc81845" d="M52.43,19.67A2.2,2.2,0,0,0,53,20.79a1,1,0,0,0,1.16.25,1.32,1.32,0,0,0,.57-.93,5.77,5.77,0,0,0,0-2.8c-.21-.81-1.18-2-2-1.09C51.94,16.93,52.24,18.83,52.43,19.67Z"/>
            <path class="aacdff84-8945-440d-b647-7f513fc81845" d="M55.19,34c.05.25.17.55.43.55s.39-.32.43-.58a27.26,27.26,0,0,0,.26-5.78A2.34,2.34,0,0,0,56,26.92c-1.36-1.84-1.34,1.77-1.33,2.29A25.54,25.54,0,0,0,55.19,34Z"/>
            <path class="e1809eb1-0077-452e-9ee3-0c8b63b69d79" d="M34.23,9.09a61.38,61.38,0,0,0,17,.37,2.46,2.46,0,0,0,1.11-.31.83.83,0,0,0,.36-1c-.17-.37-.65-.47-1.06-.52a91.37,91.37,0,0,0-11.81-.77,47.52,47.52,0,0,0-6,.2C31.86,7.31,32.64,8.83,34.23,9.09Z"/>
          </g>
        </g>
      </g>
    </g>
  </g>
</svg>
