<svg xmlns="http://www.w3.org/2000/svg" xmlns:xlink="http://www.w3.org/1999/xlink" width="422" height="593" viewBox="0 0 422 593">
  <defs>
    <style>
      .a3404a7d-89c1-41bd-8fc0-ed258c619f8b {
        fill: none;
      }

      .af41c2a0-1504-46bb-a971-86570d4f6e46 {
        fill: #152a35;
        stroke: #06202d;
      }

      .aa5c55b3-7050-4ffe-93b8-cccc4d4a49fb, .af41c2a0-1504-46bb-a971-86570d4f6e46, .b42eedf1-eb1f-477e-ba49-ff4cf81fc12e, .bf836158-a2fa-4f89-8d53-34afe4f729aa, .f54d3193-3d15-4232-bf0b-5119f0349acf, .f773dbb0-3730-4d88-b79d-c2a2dd6d1aef, .f8bcb6c1-9de6-420b-8dea-2931828a15f9, .fb3a7353-51ac-4c87-ba52-654873db33e2 {
        stroke-miterlimit: 10;
      }

      .aa5c55b3-7050-4ffe-93b8-cccc4d4a49fb, .af41c2a0-1504-46bb-a971-86570d4f6e46, .bf836158-a2fa-4f89-8d53-34afe4f729aa, .f54d3193-3d15-4232-bf0b-5119f0349acf, .f8bcb6c1-9de6-420b-8dea-2931828a15f9, .fb3a7353-51ac-4c87-ba52-654873db33e2 {
        stroke-width: 2px;
      }

      .b129a636-ce55-4695-95b1-0e14b317b0c0 {
        fill: #38505b;
      }

      .bf836158-a2fa-4f89-8d53-34afe4f729aa {
        fill: #f4a4cc;
        stroke: #c142b8;
      }

      .e4ef5d78-998f-490d-99d9-c704934d8a79 {
        opacity: 0.25;
      }

      .f8bcb6c1-9de6-420b-8dea-2931828a15f9 {
        fill: #957453;
      }

      .aa5c55b3-7050-4ffe-93b8-cccc4d4a49fb, .f8bcb6c1-9de6-420b-8dea-2931828a15f9 {
        stroke: #603917;
      }

      .aa5c55b3-7050-4ffe-93b8-cccc4d4a49fb {
        fill: #c49a6c;
      }

      .f773dbb0-3730-4d88-b79d-c2a2dd6d1aef {
        fill: #d4eadc;
        stroke: #000;
      }

      .b42eedf1-eb1f-477e-ba49-ff4cf81fc12e, .f54d3193-3d15-4232-bf0b-5119f0349acf {
        fill: #f8cfba;
        stroke: #93614c;
      }

      .fb3a7353-51ac-4c87-ba52-654873db33e2 {
        fill: #f9e4ea;
        stroke: #ed8aa6;
      }

      .e1ba12b5-efed-4750-90f3-67ba0b7d50ec {
        fill: #e0b7a4;
      }

      .b08bf13a-6f09-4870-adf0-fb031539cb7e {
        fill: #93614c;
      }

      .a8aa700c-e207-4a68-b305-8d7406bd7835 {
        opacity: 0.49;
      }

      .fb50b8ae-3f47-4169-871b-0823dfbc7458 {
        fill: #9b1010;
      }

      .a56f7af2-613d-4f70-adf3-5376619c334b {
        fill: #1f2335;
      }

      .b0ff4e78-90af-4076-b932-a69ce5a6781d {
        fill: #ff9a99;
        opacity: 0.29;
      }

      .acd58667-223e-463f-ba32-d386b02dd80c {
        fill: #1d2647;
      }

      .bff7a72d-19d7-48c0-a302-8a0b263f11c3 {
        fill: #fff;
        opacity: 0.85;
      }

      .bc0f5964-240e-4af8-b5aa-675e24325d43 {
        clip-path: url(#f33ef1d5-3ba1-4a51-a786-e6fd38d07a69);
      }
    </style>
    <clipPath id="f33ef1d5-3ba1-4a51-a786-e6fd38d07a69">
      <path class="a3404a7d-89c1-41bd-8fc0-ed258c619f8b" d="M218.7,69.58C218.28,57,204,1.67,184.57,7.36l-.13-.08C117.78-8.46,71.79,49.56,60.73,92.36c-.19.38-.39.76-.58,1.15,0,0-29.28,110.25,40.64,159.84C60.09,276.73,84.24,354,65.27,374.67c10.44,3.1,100.82-64.73,77.89-111.64,17.14-3.76,40.26-11.46,42.46-25.91l51.66,1.16S221.05,70.74,218.7,69.58Z"/>
    </clipPath>
  </defs>
  <g id="ae6b442b-cc3d-43cc-a7cb-9d275d65aeef" data-name="Layer 25">
    <g>
      <g>
        <path class="af41c2a0-1504-46bb-a971-86570d4f6e46" d="M326.71,358.15c-22-24.3,26.68-98.37-51-99.53C215.34,303.76,315.11,361.62,326.71,358.15Z"/>
        <g>
          <path class="b129a636-ce55-4695-95b1-0e14b317b0c0" d="M292.42,275c1.41,6,2.9,11.95,4.4,17.9.77,3,1.52,5.94,2.35,8.89s1.62,5.91,2.53,8.83,1.78,5.85,2.78,8.74,2,5.76,3.17,8.6,2.37,5.62,3.79,8.32a41.78,41.78,0,0,0,5,7.69c-4.53-4.24-7.61-9.81-10.21-15.39a133.89,133.89,0,0,1-6.43-17.39q-2.64-8.87-4.48-17.94C294.06,287.21,293.07,281.12,292.42,275Z"/>
          <path class="b129a636-ce55-4695-95b1-0e14b317b0c0" d="M296.59,273.76a19.24,19.24,0,0,1,4.25,4.34,39,39,0,0,1,3.22,5.19,58.92,58.92,0,0,1,4.44,11.34c.6,1.95,1,3.94,1.45,5.91s.73,4,1,6,.44,4,.6,6,.17,4,.16,6.05c-.44-2-.78-4-1.14-5.93l-1.16-5.88c-.46-2-.85-3.9-1.32-5.84s-.9-3.88-1.52-5.77A87.16,87.16,0,0,0,302.66,284,38.26,38.26,0,0,0,296.59,273.76Z"/>
          <path class="b129a636-ce55-4695-95b1-0e14b317b0c0" d="M299.87,270.22a18.12,18.12,0,0,1,7.65,5.1,28.53,28.53,0,0,1,5.07,7.8,36.14,36.14,0,0,1,2.59,8.88c.24,1.52.34,3.06.48,4.58s0,3.06-.09,4.58c-.36-1.49-.62-3-.88-4.46l-1-4.38c-.22-.71-.43-1.43-.62-2.15l-.3-1.07-.38-1-.72-2.1-.88-2a36.81,36.81,0,0,0-4.43-7.6A26.31,26.31,0,0,0,299.87,270.22Z"/>
          <path class="b129a636-ce55-4695-95b1-0e14b317b0c0" d="M289.07,275.06a50.52,50.52,0,0,0-1.34,12.34,76.75,76.75,0,0,0,1.14,12.29l.57,3c.19,1,.49,2,.72,3,.4,2,1.09,4,1.63,6,.25,1,.64,2,1,3l1,3c.72,2,1.5,3.89,2.17,5.89q-1.61-2.7-3.07-5.51c-.85-1.92-1.8-3.81-2.52-5.79A66.82,66.82,0,0,1,286.9,300a56.11,56.11,0,0,1-.72-12.68,41.71,41.71,0,0,1,.88-6.3A26.07,26.07,0,0,1,289.07,275.06Z"/>
        </g>
        <path class="af41c2a0-1504-46bb-a971-86570d4f6e46" d="M66.18,374.35c22-24.3-26.68-98.37,51-99.53C177.55,320,77.78,377.82,66.18,374.35Z"/>
        <ellipse class="bf836158-a2fa-4f89-8d53-34afe4f729aa" cx="121.86" cy="267.88" rx="17.36" ry="24.36" transform="translate(-167.36 322.31) rotate(-76.2)"/>
        <ellipse class="bf836158-a2fa-4f89-8d53-34afe4f729aa" cx="277.31" cy="258.62" rx="24.36" ry="17.36" transform="translate(-28.89 34.95) rotate(-6.86)"/>
        <path class="af41c2a0-1504-46bb-a971-86570d4f6e46" d="M61.12,94h0s-35,132.76,63.64,172.1c0,0,56.85-5.78,60.33-28.93l51,1.16s7,13.89,20.3,15.62c0,0,17.4,2.32,37.12-6.94,0,0,56.44-18.59,44.46-128.5-5.86-53.78-52.76-86.19-104.78-94.86C163.34,12,83.58,46.84,61.12,94Z"/>
        <g>
          <path class="b129a636-ce55-4695-95b1-0e14b317b0c0" d="M116.9,290.92c-1.69,5.92-3.71,11.75-6,17.48s-4.75,11.39-7.51,16.92a133.33,133.33,0,0,1-9.33,16c-3.52,5.06-7.51,10-12.7,13.42A42.6,42.6,0,0,0,87.61,348c1.86-2.42,3.54-5,5.17-7.55s3.15-5.24,4.6-7.93,2.89-5.39,4.25-8.13,2.71-5.49,4-8.27,2.58-5.56,3.85-8.35C112,302.19,114.48,296.58,116.9,290.92Z"/>
          <path class="b129a636-ce55-4695-95b1-0e14b317b0c0" d="M113,289a38.3,38.3,0,0,0-7.74,9,87,87,0,0,0-5.79,10.38c-.93,1.76-1.65,3.62-2.5,5.42s-1.51,3.69-2.3,5.53l-2.16,5.6c-.69,1.88-1.37,3.77-2.15,5.64.35-2,.78-4,1.21-5.93s1.06-3.9,1.63-5.84,1.32-3.82,2-5.72,1.53-3.76,2.45-5.57A58.57,58.57,0,0,1,104,297.09a40,40,0,0,1,4.06-4.56A19.73,19.73,0,0,1,113,289Z"/>
          <path class="b129a636-ce55-4695-95b1-0e14b317b0c0" d="M110.39,284.93a26.41,26.41,0,0,0-7.42,4.91,37.26,37.26,0,0,0-5.67,6.73l-1.22,1.85L95,300.36l-.55,1-.48,1c-.31.68-.64,1.34-1,2l-1.77,4.14c-.52,1.41-1,2.83-1.64,4.24.18-1.51.44-3,.7-4.53s.76-3,1.26-4.43a36.4,36.4,0,0,1,4.09-8.3,28.35,28.35,0,0,1,6.34-6.82A18.28,18.28,0,0,1,110.39,284.93Z"/>
          <path class="b129a636-ce55-4695-95b1-0e14b317b0c0" d="M120.19,291.56a25.68,25.68,0,0,1,1,6.25,40.86,40.86,0,0,1-.22,6.35,55.49,55.49,0,0,1-2.9,12.37A66.7,66.7,0,0,1,112.56,328c-1,1.83-2.31,3.53-3.48,5.28s-2.6,3.3-4,4.89c1-1.85,2.1-3.63,3.15-5.43l1.48-2.75c.48-.92,1-1.8,1.46-2.75.87-1.88,1.89-3.69,2.64-5.62.39-.95.86-1.87,1.22-2.84l1.08-2.9a75.42,75.42,0,0,0,3.24-11.91A49.74,49.74,0,0,0,120.19,291.56Z"/>
        </g>
        <path class="b129a636-ce55-4695-95b1-0e14b317b0c0" d="M130.58,263a26.38,26.38,0,0,0,8-4,37.07,37.07,0,0,0,6.46-6l1.43-1.68,1.31-1.8.67-.89.59-.94c.4-.63.8-1.25,1.22-1.87l2.26-3.89c.69-1.34,1.38-2.69,2.15-4-.35,1.48-.8,2.94-1.25,4.41s-1.12,2.86-1.79,4.24a36.54,36.54,0,0,1-5.08,7.74,28.48,28.48,0,0,1-7.13,6A18.14,18.14,0,0,1,130.58,263Z"/>
        <path class="b129a636-ce55-4695-95b1-0e14b317b0c0" d="M276.92,250.45a14,14,0,0,1-6.35-1.94,22,22,0,0,1-5.25-4.2,25.73,25.73,0,0,1-3.78-5.5,31.44,31.44,0,0,1-1.33-3c-.34-1.05-.64-2.11-.88-3.19.65.91,1.19,1.85,1.76,2.76s1.17,1.8,1.79,2.67,1.19,1.75,1.89,2.55c.34.4.63.84,1,1.23L266.8,243a34.38,34.38,0,0,0,4.62,4.24A26.13,26.13,0,0,0,276.92,250.45Z"/>
        <path class="b129a636-ce55-4695-95b1-0e14b317b0c0" d="M270.37,252.32a16.12,16.12,0,0,1-6.21-.52,17.78,17.78,0,0,1-5.75-2.69,14.2,14.2,0,0,1-4.28-4.74,13.31,13.31,0,0,1-1.76-6,27.92,27.92,0,0,0,3.06,5.14,18.88,18.88,0,0,0,4.15,4,27.61,27.61,0,0,0,5.08,2.84A47.37,47.37,0,0,0,270.37,252.32Z"/>
        <path class="b129a636-ce55-4695-95b1-0e14b317b0c0" d="M123.65,260.57a95.23,95.23,0,0,1-6.73-12.66c-1-2.18-1.87-4.42-2.72-6.66s-1.57-4.53-2.26-6.84a71.55,71.55,0,0,1-2.67-14.18A34.26,34.26,0,0,1,110.84,206a45.73,45.73,0,0,0,0,14.11,97.58,97.58,0,0,0,3.05,13.79c1.29,4.54,2.84,9,4.49,13.46S121.8,256.17,123.65,260.57Z"/>
        <path class="b129a636-ce55-4695-95b1-0e14b317b0c0" d="M127.37,262.13A38.05,38.05,0,0,0,133,251.68a86.1,86.1,0,0,0,3.44-11.37c.54-1.92.84-3.89,1.28-5.83s.69-3.92,1.07-5.88l.91-5.94c.27-2,.54-4,.89-6,.09,2,.09,4,.09,6.06s-.2,4-.34,6-.47,4-.75,6-.69,4-1.21,6a58.71,58.71,0,0,1-3.95,11.52,39.8,39.8,0,0,1-3,5.33A19.68,19.68,0,0,1,127.37,262.13Z"/>
        <path class="b129a636-ce55-4695-95b1-0e14b317b0c0" d="M121.16,262.81a26.79,26.79,0,0,1-5.57-3,41.13,41.13,0,0,1-4.94-4,55.51,55.51,0,0,1-8.14-9.76,66.06,66.06,0,0,1-5.86-11.25c-.83-1.94-1.43-4-2.13-6s-1.07-4.07-1.52-6.12c.87,1.92,1.63,3.87,2.44,5.79l1.31,2.83c.45.94.81,1.91,1.32,2.82,1,1.83,1.81,3.73,2.91,5.49.52.89,1,1.82,1.53,2.69l1.67,2.61a76,76,0,0,0,7.57,9.76A50.42,50.42,0,0,0,121.16,262.81Z"/>
        <path class="b129a636-ce55-4695-95b1-0e14b317b0c0" d="M278.35,249c1.11-2.58,2.2-5.12,3.25-7.67s2.07-5.11,2.89-7.72c.25-.64.44-1.29.63-1.94s.41-1.31.57-2l.52-2c.12-.66.26-1.33.4-2a33.87,33.87,0,0,0,.56-8.2,19.69,19.69,0,0,1,1,8.4,35.15,35.15,0,0,1-1.77,8.32A48.89,48.89,0,0,1,283,242,41,41,0,0,1,278.35,249Z"/>
        <path class="b129a636-ce55-4695-95b1-0e14b317b0c0" d="M280.34,251.2a35.64,35.64,0,0,0,8-5.44,52.48,52.48,0,0,0,6.49-7l1.45-1.91c.46-.64.87-1.33,1.33-2,1-1.29,1.68-2.73,2.55-4.08.45-.68.76-1.42,1.17-2.12l1.17-2.13c.73-1.45,1.42-2.92,2.23-4.36-.39,1.59-.84,3.17-1.33,4.75s-1.14,3.09-1.86,4.58a45.68,45.68,0,0,1-5.13,8.49,37.31,37.31,0,0,1-7.1,7A23,23,0,0,1,280.34,251.2Z"/>
      </g>
      <path class="e4ef5d78-998f-490d-99d9-c704934d8a79" d="M57.46,557l28.06,13.61,46.43.48,40.82-7s34.44,24.69,81.09,26.06l2.58.06c48,.51-5.1-40.82-5.1-40.82l51.53-4.08s38.26,23.13,79.59,25.34-23-35.55-23-35.55l59.7-4.82L326.72,511,34.83,541.2Z"/>
      <g>
        <path class="f8bcb6c1-9de6-420b-8dea-2931828a15f9" d="M126.23,576.1l32-102.19H145.81L108.67,582.45l15-3.72A3.74,3.74,0,0,0,126.23,576.1Z"/>
        <path class="f8bcb6c1-9de6-420b-8dea-2931828a15f9" d="M81.65,537.92,74.5,553.07a2.79,2.79,0,0,1-2.17,1.69L60.26,556l10.13-25Z"/>
        <path class="aa5c55b3-7050-4ffe-93b8-cccc4d4a49fb" d="M69.71,451.48,37.62,539.37a3.4,3.4,0,0,0,1.19,4L60.26,556l9.05-22.37a2.27,2.27,0,0,1,3.27-1.39L92,543.66a3.36,3.36,0,0,1,1.24,3.86L87,567.22a3.37,3.37,0,0,0,1.29,3.89l20.38,11.34,36-106.66c.58-1.72-.22-3.68-1.68-4.14L72.56,449.77A2.37,2.37,0,0,0,69.71,451.48Z"/>
        <path class="f8bcb6c1-9de6-420b-8dea-2931828a15f9" d="M392.42,533.88,362.1,440.23a1.51,1.51,0,0,1,1.65-2l16.93,2.12a1.52,1.52,0,0,1,1.25,1l31.57,89.1a1.51,1.51,0,0,1-1.34,2Z"/>
        <path class="aa5c55b3-7050-4ffe-93b8-cccc4d4a49fb" d="M367.84,458.32l25.09,75.42-40.23-6.82a1.51,1.51,0,0,1-1.13-.85l-9.21-19.4a1.51,1.51,0,0,0-1.2-.86l-19.49-2.4a1.51,1.51,0,0,0-1.66,1.91l5,17.29-25.94-5.37a1.52,1.52,0,0,1-1.17-1.12l-12.7-51.66a1.51,1.51,0,0,1,1.38-1.85l79.68-5.32A1.53,1.53,0,0,1,367.84,458.32Z"/>
        <path class="f8bcb6c1-9de6-420b-8dea-2931828a15f9" d="M63.31,437.73s-11.32,8.35,0,16.68l65.29,27.21a14.16,14.16,0,0,0,7,1l257.32-28.2s11.93-7,1-16.7L134,468.34Z"/>
        <path class="aa5c55b3-7050-4ffe-93b8-cccc4d4a49fb" d="M392.38,440.15,136.51,469.29a15.07,15.07,0,0,1-7.48-1.06L64.78,441.31a2.39,2.39,0,0,1,.69-4.59l228.57-25a21.85,21.85,0,0,1,8.09.63l90.52,24.39A1.73,1.73,0,0,1,392.38,440.15Z"/>
        <path class="f773dbb0-3730-4d88-b79d-c2a2dd6d1aef" d="M318.63,501.6l6.4,18.89h13.44a1.51,1.51,0,0,0,1.45-2l-6.06-17.87a1.52,1.52,0,0,0-1.45-1H320.08A1.51,1.51,0,0,0,318.63,501.6Z"/>
      </g>
      <g>
        <g>
          <path class="f54d3193-3d15-4232-bf0b-5119f0349acf" d="M389.81,549.3c-3.18-3.66-13.57-14.89-26-20.65a8.16,8.16,0,0,1-4.7-7.29c-.36-19.9-3.46-87.8-4.78-91.05-.6-1.5-.43-11.25-5.81-15.69-4.61-3.43-39.71-31.92-85.17-48.14L264.46,339l-1.15,27.51L290.93,378l-2.3-43.56s0-47-29.05-58.75c0,0-19.29-6.08-21-16.08a2.47,2.47,0,0,0-.17-.57l-5.58-18.91H183.32L181,255c-.92,5.44-6.59,20.16-19.72,22-13.72,2-31.05,10-32.26,50.89-.39,5.33-3.16,31-3.26,31.38-1.69,5.76-12.12,43.06-15,68.77-.15,1.43-7.9,6.26-9.2,6.88-3.7,1.75-12.48,4-18.42,5.73-8,2.29,1.73,4.58,1.73,4.58a135.17,135.17,0,0,0,29.56,2.29,18.76,18.76,0,0,1-7,2.46,2.15,2.15,0,0,0-1.92,1.81c-.13,1.29,1,2.71,7.47,1.7,0,0,14.22-.87,17.89-8.84h0a4.31,4.31,0,0,0,.62-1.16c3.21-9.34,31.25-98.75,31.25-98.75s3,8.88,2.27,15.88S124.3,434,187.48,446.69c0,0,9,5.33,9.65,10,1,7.15,2.05,70.85-1.82,101.61a14,14,0,0,0,8.1,14.5c14,6.36,41,15.68,65.08,7.68,0,0,5.07-.84,5.07-5.42a6.44,6.44,0,0,0-1.42-3.88c-3-4-13-16.15-25.42-22.88a8.34,8.34,0,0,1-4.45-7.68c.89-20.3,3.14-90.34,2.62-93.93-2.3-16.05-5.75-28.66,6.91-22.93s31.41,10.77,48.34,14.91a28.08,28.08,0,0,0,5.35,1c1.8,0,4.31.55,4.9,3.36,1.42,6.87,6.23,68.42,4.33,98.4a13.56,13.56,0,0,0,8.7,13.54c14,5.31,40.57,12.73,63.41,3.55,0,0,4.86-1.11,4.58-5.53A6.3,6.3,0,0,0,389.81,549.3Zm-125.35-231c.22,6.55.17,14,0,21.78"/>
          <path class="fb3a7353-51ac-4c87-ba52-654873db33e2" d="M166.73,274.89c7.72,32.15,72.31,44.2,84.54-2.72,5.16,3,13,4.43,15,7.17-.07-.12-3.66,65.86-5.47,84.33-.19,1.9,4,4.08,5.76,4.8,13.94,5.68,71,29.69,80.41,45.62,0,0-42.95-1.73-49.45,22.75,0,0-33-3-51.91-13.51,0,0-1.43,14.16-2,22.87a.52.52,0,0,1-1,.11c-2.58-8.49-13.14-33.34-50.47,1.45,0,0-.42.59-4.44-.32s-32.18-3.24-35.1-31.34c-2.08-20,5.23-39.25,9.62-48.69a24.34,24.34,0,0,0,2.06-13.66c-2.68-19.46-10.19-69.53-16.78-71.58C153.94,277.27,163.13,277.32,166.73,274.89Z"/>
        </g>
        <g>
          <path class="b42eedf1-eb1f-477e-ba49-ff4cf81fc12e" d="M115.42,162.13c-33.38-13.75-23,47,12,38.18C115.42,175.89,115.42,162.13,115.42,162.13Z"/>
          <g>
            <path class="e1ba12b5-efed-4750-90f3-67ba0b7d50ec" d="M118,176.09c-7.14-10.52-22.1.95,1.61,7.08,0,0-8.75,5.33.46,12.21"/>
            <path class="b08bf13a-6f09-4870-adf0-fb031539cb7e" d="M118,176.09a11.71,11.71,0,0,0-2.72-2.59,8.55,8.55,0,0,0-3.42-1.32,5.33,5.33,0,0,0-3.44.66,2.34,2.34,0,0,0-1.11,2.78,5.83,5.83,0,0,0,2.16,2.72,19.42,19.42,0,0,0,3.18,1.88,42.13,42.13,0,0,0,7.07,2.52l1,.26-.84.54a10.17,10.17,0,0,0-2.61,2.46,5.2,5.2,0,0,0-1.05,3.32,6.93,6.93,0,0,0,1.29,3.35c.38.49.8,1,1.21,1.42l1.39,1.29-1.52-1.15c-.45-.43-.92-.88-1.34-1.35a6.74,6.74,0,0,1-1.62-3.51,5.88,5.88,0,0,1,1-3.8,9.69,9.69,0,0,1,2.78-2.78l.12.8a42.48,42.48,0,0,1-7.28-2.47,19.69,19.69,0,0,1-3.33-2,6.77,6.77,0,0,1-2.43-3.21,3.13,3.13,0,0,1,.11-2.15,3.49,3.49,0,0,1,1.45-1.54,6,6,0,0,1,3.92-.57A9.24,9.24,0,0,1,118,176.09Z"/>
          </g>
          <path class="b42eedf1-eb1f-477e-ba49-ff4cf81fc12e" d="M301.86,162.13c29.93-11.46,19.57,42.41-10.35,37.83C303.52,175.54,301.86,162.13,301.86,162.13Z"/>
          <g>
            <path class="e1ba12b5-efed-4750-90f3-67ba0b7d50ec" d="M299.56,175.89c7.14-10.51,22.56.75-1.15,6.88,0,0,6.66,5.73-2.55,12.61"/>
            <path class="b08bf13a-6f09-4870-adf0-fb031539cb7e" d="M299.56,175.89a9.3,9.3,0,0,1,6.06-4.5,6.39,6.39,0,0,1,3.94.42,3.55,3.55,0,0,1,1.58,1.4,3,3,0,0,1,.34,2.14,6.18,6.18,0,0,1-2.34,3.3,17.63,17.63,0,0,1-3.32,2.06,41.88,41.88,0,0,1-7.3,2.48l.18-.76a7.73,7.73,0,0,1,2.09,3.35,6.49,6.49,0,0,1,0,3.9,8.63,8.63,0,0,1-2,3.27,16.4,16.4,0,0,1-2.9,2.43,19.44,19.44,0,0,0,2.64-2.65,9.15,9.15,0,0,0,1.69-3.22,5.77,5.77,0,0,0-.13-3.49,7.56,7.56,0,0,0-1.94-2.92l-.59-.55.77-.21a40.28,40.28,0,0,0,7.08-2.53,16.58,16.58,0,0,0,3.18-1.89,5.38,5.38,0,0,0,2.06-2.75,2.43,2.43,0,0,0-1.41-2.68,5.71,5.71,0,0,0-3.5-.52,8.5,8.5,0,0,0-3.42,1.32A11.41,11.41,0,0,0,299.56,175.89Z"/>
          </g>
          <path class="b42eedf1-eb1f-477e-ba49-ff4cf81fc12e" d="M303,157.55c0,51.91-48.36,90.37-81.71,91.7-57.54,2.29-107-39.79-107-91.7s42.25-94,94.37-94S303,105.64,303,157.55Z"/>
          <g class="a8aa700c-e207-4a68-b305-8d7406bd7835">
            <path class="fb50b8ae-3f47-4169-871b-0823dfbc7458" d="M200.75,202.76a7,7,0,0,1,.22,3.39,8.3,8.3,0,0,1-1.24,3.22,7.36,7.36,0,0,1-2.47,2.46,6.39,6.39,0,0,1-3.26,1c.82-.82,1.62-1.45,2.27-2.22a14.52,14.52,0,0,0,1.78-2.31A35.72,35.72,0,0,0,200.75,202.76Z"/>
            <path class="fb50b8ae-3f47-4169-871b-0823dfbc7458" d="M251,201.68a33.9,33.9,0,0,0,1.33,5.91,13.45,13.45,0,0,0,1.19,2.59c.46.88,1.1,1.64,1.73,2.6a6.17,6.17,0,0,1-3-1.61,7.39,7.39,0,0,1-1.85-2.91,8.56,8.56,0,0,1-.45-3.39A6.92,6.92,0,0,1,251,201.68Z"/>
            <path class="fb50b8ae-3f47-4169-871b-0823dfbc7458" d="M251.2,207.46a17.44,17.44,0,0,1-4.89,5.31,28.24,28.24,0,0,1-6.43,3.45,40.53,40.53,0,0,1-28.62-.1A30.73,30.73,0,0,1,199.39,208a39.16,39.16,0,0,0,12.4,6.67,46.83,46.83,0,0,0,27.57.11C243.78,213.32,248.1,211.15,251.2,207.46Z"/>
          </g>
          <path class="a56f7af2-613d-4f70-adf3-5376619c334b" d="M219,189.64a19.4,19.4,0,0,1,3-6.48,12.84,12.84,0,0,1,2.56-2.71,7,7,0,0,1,3.72-1.48,6.25,6.25,0,0,1,3.87,1.28,11.28,11.28,0,0,1,2.53,2.79,20.85,20.85,0,0,1,2.73,6.6,60.09,60.09,0,0,0-4-5.67c-1.43-1.67-3.2-3.12-5.05-3a5.29,5.29,0,0,0-2.72,1,14.53,14.53,0,0,0-2.46,2.15A48.87,48.87,0,0,0,219,189.64Z"/>
          <ellipse class="b0ff4e78-90af-4076-b932-a69ce5a6781d" cx="277.6" cy="187.43" rx="13.92" ry="17.67" transform="translate(-56.81 206.52) rotate(-37.29)"/>
          <ellipse class="b0ff4e78-90af-4076-b932-a69ce5a6781d" cx="172.87" cy="188.58" rx="17.67" ry="13.92" transform="translate(-81.89 211.84) rotate(-52.71)"/>
          <ellipse class="acd58667-223e-463f-ba32-d386b02dd80c" cx="194.73" cy="157.13" rx="10.48" ry="14.9" transform="translate(-29.48 46.06) rotate(-12.55)"/>
          <ellipse class="acd58667-223e-463f-ba32-d386b02dd80c" cx="255.72" cy="157.13" rx="14.9" ry="10.48" transform="translate(41.17 367.01) rotate(-75.94)"/>
          <g class="a8aa700c-e207-4a68-b305-8d7406bd7835">
            <path class="fb50b8ae-3f47-4169-871b-0823dfbc7458" d="M219,226.32a9.86,9.86,0,0,0,3.66,1.78,11,11,0,0,0,3.84.21,24.67,24.67,0,0,0,3.94-.77c.65-.23,1.33-.4,2-.61a20.47,20.47,0,0,1,2.09-.61,19.46,19.46,0,0,1-1.65,1.49c-.59.42-1.23.81-1.87,1.18a12.11,12.11,0,0,1-4.33,1.31,8.54,8.54,0,0,1-4.58-.74A6,6,0,0,1,219,226.32Z"/>
          </g>
          <ellipse class="bff7a72d-19d7-48c0-a302-8a0b263f11c3" cx="196.79" cy="149.76" rx="3.98" ry="5.72" transform="translate(-41.6 84.01) rotate(-21.85)"/>
          <ellipse class="bff7a72d-19d7-48c0-a302-8a0b263f11c3" cx="260.19" cy="149.76" rx="3.98" ry="5.72" transform="translate(-37.05 107.61) rotate(-21.85)"/>
          <g>
            <path class="a56f7af2-613d-4f70-adf3-5376619c334b" d="M192.39,129.24a14.52,14.52,0,0,0-2.66-.05,17.49,17.49,0,0,0-2.76.4,17,17,0,0,0-5.22,2.11,9.52,9.52,0,0,0-1.19.8,9.62,9.62,0,0,0-1.14.88l-1.08,1-1,1.09a22.87,22.87,0,0,0-1.78,2.34c-.53.83-1,1.71-1.48,2.58.39-.92.72-1.86,1.16-2.76a22.71,22.71,0,0,1,1.5-2.62l.87-1.25,1-1.15a10.21,10.21,0,0,1,1.08-1.1,11.31,11.31,0,0,1,1.17-1,19,19,0,0,1,5.44-3,21,21,0,0,1,3.06-.85,17.58,17.58,0,0,1,3.27-.33Z"/>
            <path class="a56f7af2-613d-4f70-adf3-5376619c334b" d="M254.54,126.25a17.77,17.77,0,0,1,3.28.33,21.19,21.19,0,0,1,3.05.85,19.16,19.16,0,0,1,5.45,3,12.34,12.34,0,0,1,1.16,1,9.44,9.44,0,0,1,1.09,1.1l1,1.15.86,1.25a22.78,22.78,0,0,1,1.51,2.62c.43.9.77,1.84,1.15,2.76-.5-.87-.94-1.75-1.48-2.58a21.43,21.43,0,0,0-1.77-2.34l-1-1.09-1.08-1a8.77,8.77,0,0,0-1.13-.88,10.31,10.31,0,0,0-1.19-.8,17.65,17.65,0,0,0-8-2.51,14.52,14.52,0,0,0-2.66.05Z"/>
          </g>
        </g>
      </g>
      <g class="bc0f5964-240e-4af8-b5aa-675e24325d43">
        <g>
          <path class="af41c2a0-1504-46bb-a971-86570d4f6e46" d="M332,80.9C290.74-13.61,209.32-1.93,184.57,7.36l-.13-.08C105.78-11.3,55.88,72.86,58.23,113.49S98.15,151.8,108,153.22,118.69,171,118.69,171c-4.69-70.81,101.56-65.59,99.21-112-.17-1.59-.42-3.13-.71-4.66.48.82.75,1.3.75,1.3,9.36,41.67,93.89,19.61,91.54,99.71,11.74-5.8,17.12,2.86,17.12,2.86C336.42,150,338.94,142,340,129.2A99.67,99.67,0,0,0,332,80.9Z"/>
          <g>
            <path class="b129a636-ce55-4695-95b1-0e14b317b0c0" d="M204.38,28.17A35,35,0,0,1,204,38.69a36.8,36.8,0,0,1-1.25,5.15,36.84,36.84,0,0,1-1.92,5,42.26,42.26,0,0,1-13.66,16.12A53.42,53.42,0,0,1,178,70.27c-3.27,1.45-6.53,2.66-9.76,4C161.75,77,155.36,79.81,149.13,83c-12.48,6.21-24.55,13.55-34.54,23.26a67.28,67.28,0,0,0-6.9,7.8,50.84,50.84,0,0,0-5.45,8.85,44.06,44.06,0,0,0-3.51,9.8,49.77,49.77,0,0,0-1.14,10.41,43.48,43.48,0,0,1,3.77-20.62,50.59,50.59,0,0,1,5.31-9.19,69.92,69.92,0,0,1,6.83-8.14,100.36,100.36,0,0,1,16.43-13.37,173.67,173.67,0,0,1,18.31-10.59c6.31-3.13,12.77-6,19.29-8.58,3.26-1.33,6.59-2.54,9.74-3.91a58.27,58.27,0,0,0,9-5A41.12,41.12,0,0,0,200,48.37,39.5,39.5,0,0,0,204.38,28.17Z"/>
            <path class="b129a636-ce55-4695-95b1-0e14b317b0c0" d="M205.57,44.42a28.57,28.57,0,0,1-.36,9.31,32.1,32.1,0,0,1-3.07,8.87,37,37,0,0,1-12.69,13.77c-5.26,3.52-11.31,5.65-17,7.87S161,88.88,155.37,91.53A162.56,162.56,0,0,0,139,100.22c-2.64,1.59-5.2,3.31-7.7,5.1s-4.88,3.74-7.17,5.78a54,54,0,0,0-11.51,14.25,35.41,35.41,0,0,0-3.37,8.55,38.85,38.85,0,0,0-1.12,9.19,35.7,35.7,0,0,1,3.62-18.19,46.11,46.11,0,0,1,5-8,64.3,64.3,0,0,1,6.34-7c9.16-8.63,20.18-14.89,31.42-20.24,5.65-2.64,11.41-5,17.23-7.25s11.66-4.15,16.85-7.41a36.94,36.94,0,0,0,12.69-12.92,31.44,31.44,0,0,0,3.4-8.52,32,32,0,0,0,.78-4.56A24.8,24.8,0,0,0,205.57,44.42Z"/>
            <path class="b129a636-ce55-4695-95b1-0e14b317b0c0" d="M210.26,52.55a28.87,28.87,0,0,1-.33,9.36,33.52,33.52,0,0,1-3,9,37.1,37.1,0,0,1-12.66,14,52.25,52.25,0,0,1-8.34,4.55c-2.95,1.22-5.84,2.27-8.74,3.43-5.79,2.3-11.53,4.71-17.13,7.41A162.28,162.28,0,0,0,143.66,109c-2.65,1.61-5.21,3.36-7.72,5.18s-4.87,3.8-7.17,5.87a54.19,54.19,0,0,0-11.46,14.42,35.86,35.86,0,0,0-3.35,8.62,40.43,40.43,0,0,0-1.11,9.25,36.46,36.46,0,0,1,3.58-18.31A53.06,53.06,0,0,1,127.7,119c9.16-8.75,20.21-15.12,31.48-20.55,5.67-2.68,11.46-5.11,17.3-7.36,2.92-1.11,5.91-2.15,8.75-3.28a56.46,56.46,0,0,0,8.17-4.24A37,37,0,0,0,206.05,70.4,32.87,32.87,0,0,0,210.26,52.55Z"/>
            <path class="b129a636-ce55-4695-95b1-0e14b317b0c0" d="M200.88,27a36.55,36.55,0,0,1-5.28,9.29,68,68,0,0,1-7.15,8,99,99,0,0,1-17.2,12.86A139.81,139.81,0,0,1,152,66.67a207.87,207.87,0,0,0-18.93,9.65A135.73,135.73,0,0,0,115.43,88.1a84.61,84.61,0,0,0-14.81,15A55.12,55.12,0,0,0,91.36,122a57.63,57.63,0,0,0-1.42,21.11,55.55,55.55,0,0,1,.47-21.34,56.27,56.27,0,0,1,9-19.53A66.08,66.08,0,0,1,106.32,94a92.94,92.94,0,0,1,8-7.27,137.07,137.07,0,0,1,17.78-12.09A211.2,211.2,0,0,1,151.29,65c3.32-1.32,6.56-2.73,9.76-4.25s6.35-3.14,9.43-4.89a99.38,99.38,0,0,0,17.3-12.26,65.76,65.76,0,0,0,7.4-7.62,49.23,49.23,0,0,0,3.15-4.29A27.44,27.44,0,0,0,200.88,27Z"/>
            <path class="b129a636-ce55-4695-95b1-0e14b317b0c0" d="M190.9,21.79c-2.24,6.08-6.74,11.16-11.92,15A91.15,91.15,0,0,1,162,46.3c-5.88,2.69-11.91,5-17.85,7.44s-11.84,5-17.52,7.92a101.59,101.59,0,0,0-16.26,10A72.64,72.64,0,0,0,97,85.15c-7.75,10.16-12.1,22.61-14.07,35.31a84.34,84.34,0,0,1,4-18.94,66.12,66.12,0,0,1,22.46-31.26,103.43,103.43,0,0,1,16.47-10.38c11.6-5.84,23.84-10,35.67-15a92,92,0,0,0,17-8.87,39.46,39.46,0,0,0,7.23-6.24A31.49,31.49,0,0,0,190.9,21.79Z"/>
            <path class="b129a636-ce55-4695-95b1-0e14b317b0c0" d="M182.68,17.14a1.33,1.33,0,0,1,.34,1.14,2.2,2.2,0,0,1-.64,1,9,9,0,0,1-2,1.44A38.51,38.51,0,0,1,176,22.85c-3,1.25-6,2.36-9.08,3.48-6.1,2.18-12.19,4.35-18.2,6.72-12,4.72-23.83,10-34.65,17A109.06,109.06,0,0,0,98.69,61.58,81.37,81.37,0,0,0,86.1,76a67.5,67.5,0,0,0-11.43,36.3A66.4,66.4,0,0,1,76.85,93a65.35,65.35,0,0,1,8-17.84A76,76,0,0,1,97.46,60.24,111.18,111.18,0,0,1,113,48.34a158.76,158.76,0,0,1,17.17-9.28c5.9-2.75,11.9-5.26,18-7.44s12.27-4.22,18.43-6.21c3.08-1,6.17-1.95,9.2-3.05a40.62,40.62,0,0,0,4.46-1.85,9,9,0,0,0,2-1.29,2.15,2.15,0,0,0,.67-1A1.31,1.31,0,0,0,182.68,17.14Z"/>
          </g>
          <g>
            <path class="b129a636-ce55-4695-95b1-0e14b317b0c0" d="M212.62,28.17a104.43,104.43,0,0,0,13,15,81.14,81.14,0,0,0,15.68,12,63.18,63.18,0,0,0,8.85,4.27c3,1.15,6.29,2.07,9.44,3.18a137.4,137.4,0,0,1,18.56,7.68,85.88,85.88,0,0,1,16.72,11.24A66.85,66.85,0,0,1,302,88.76a61.67,61.67,0,0,1,6,8.13,72.15,72.15,0,0,1,4.72,8.9c.62,1.57,1.34,3.08,1.86,4.68l.84,2.37c.25.8.48,1.6.71,2.41A90.56,90.56,0,0,1,319.46,135a99.38,99.38,0,0,0-4.22-19.44,82.05,82.05,0,0,0-3.63-9.22,71.94,71.94,0,0,0-4.86-8.6,69,69,0,0,0-6-7.81,65.53,65.53,0,0,0-7-6.91,83.89,83.89,0,0,0-16.45-10.84A141.59,141.59,0,0,0,259,64.43c-3.13-1.13-6.28-2.05-9.47-3.28a56.51,56.51,0,0,1-9-4.54A89.51,89.51,0,0,1,212.62,28.17Z"/>
            <path class="b129a636-ce55-4695-95b1-0e14b317b0c0" d="M217.32,38.62a85.73,85.73,0,0,0,9.76,13.8,67.81,67.81,0,0,0,12.35,11.36,48.88,48.88,0,0,0,7.22,4.15,41.36,41.36,0,0,0,3.86,1.54c1.3.43,2.66.82,4,1.22a155.5,155.5,0,0,1,16.11,5.67,93.64,93.64,0,0,1,15.14,8,63.24,63.24,0,0,1,13,11.24,53.92,53.92,0,0,1,5.08,6.94,51.82,51.82,0,0,1,3.82,7.68,50.28,50.28,0,0,1,2.43,8.19,54.58,54.58,0,0,1,1.15,8.43,58.41,58.41,0,0,0-4.5-16.23,52.37,52.37,0,0,0-9.16-14A64.47,64.47,0,0,0,284.75,86a94.74,94.74,0,0,0-14.88-7.77c-5.17-2.2-10.49-4-15.87-5.72-1.35-.42-2.7-.83-4.08-1.31s-2.7-1-4-1.67A46.53,46.53,0,0,1,238.54,65a64.1,64.1,0,0,1-12.19-12A78.35,78.35,0,0,1,217.32,38.62Z"/>
            <path class="b129a636-ce55-4695-95b1-0e14b317b0c0" d="M218.49,47.9A68.27,68.27,0,0,0,227,61.32a56.38,56.38,0,0,0,11.39,10.87,44,44,0,0,0,6.78,3.91c1.18.55,2.39,1,3.62,1.46s2.49.79,3.78,1.18a128,128,0,0,1,15,5.74c9.73,4.49,19,10.2,26.71,17.8a62.7,62.7,0,0,1,5.35,6,55.59,55.59,0,0,1,4.41,6.76,49.21,49.21,0,0,1,3.15,7.41,43.82,43.82,0,0,1,1.7,7.82,52.63,52.63,0,0,0-2.21-7.64,48.68,48.68,0,0,0-3.51-7.09,57.9,57.9,0,0,0-10-12.17,84,84,0,0,0-12.52-9.6,113.85,113.85,0,0,0-13.92-7.53A139.16,139.16,0,0,0,252,80.51c-1.25-.4-2.52-.81-3.82-1.27a39.93,39.93,0,0,1-3.76-1.59,42.24,42.24,0,0,1-6.93-4.23A53.84,53.84,0,0,1,226.25,61.9a68.69,68.69,0,0,1-4.33-6.77A53.69,53.69,0,0,1,218.49,47.9Z"/>
            <path class="b129a636-ce55-4695-95b1-0e14b317b0c0" d="M212.62,22.37a200.52,200.52,0,0,0,18.55,12.49A185.62,185.62,0,0,0,250.88,45.3L256,47.55l5.17,2.07,5.26,1.88c1.76.66,3.53,1.42,5.23,2.21a91.54,91.54,0,0,1,19.2,11.87,90.35,90.35,0,0,1,26.8,35.85c.76,1.72,1.36,3.51,2,5.27s1.2,3.56,1.68,5.38a98.29,98.29,0,0,1,2.49,11,120.64,120.64,0,0,1,1.52,22.36c-.4-14.91-3.07-29.82-9.06-43.4a92.75,92.75,0,0,0-5-9.88,85,85,0,0,0-6.16-9.22,89.28,89.28,0,0,0-15.46-15.8A95.26,95.26,0,0,0,270.84,55.4c-1.68-.79-3.34-1.52-5.07-2.19l-5.27-1.93-5.2-2.15-5.12-2.34A179.81,179.81,0,0,1,212.62,22.37Z"/>
            <path class="b129a636-ce55-4695-95b1-0e14b317b0c0" d="M212.62,14.24A64.58,64.58,0,0,0,221.36,20c3.08,1.64,6.22,3.15,9.45,4.48,6.4,2.77,13,5.16,19.51,7.67,13.06,5,26,10.75,37.65,18.81a100,100,0,0,1,28.64,30.77,113.5,113.5,0,0,1,9,19.07l1.72,5,1.45,5c.24.85.5,1.68.72,2.53l.59,2.56L331.2,121,329.76,116l-.71-2.52c-.25-.84-.54-1.66-.81-2.49l-1.67-5-1.91-4.87a113.87,113.87,0,0,0-9.37-18.62,105.49,105.49,0,0,0-12.68-16.45,100,100,0,0,0-15.78-13.48A132.15,132.15,0,0,0,268.88,42c-6.23-3.1-12.68-5.77-19.13-8.46s-13-5.24-19.34-8.21S217.84,19,212.62,14.24Z"/>
            <path class="b129a636-ce55-4695-95b1-0e14b317b0c0" d="M217.32,6.12a1.31,1.31,0,0,0,.2,1.15,3.51,3.51,0,0,0,.92.8,11.87,11.87,0,0,0,2.22,1c1.53.59,3.11,1.06,4.7,1.51,3.18.89,6.39,1.68,9.59,2.52,6.39,1.72,12.76,3.57,19,5.76a145.09,145.09,0,0,1,35.55,17.86,99.8,99.8,0,0,1,36.4,46.54,114.41,114.41,0,0,1,5.27,19.15,113.86,113.86,0,0,0-15.46-36.14,104.14,104.14,0,0,0-12.37-15.25,108,108,0,0,0-15-12.67c-10.66-7.67-22.61-13.41-34.92-18C247.29,18,241,16,234.68,14.09c-3.15-1-6.33-1.92-9.47-3-1.57-.52-3.14-1.06-4.67-1.73a13.32,13.32,0,0,1-2.19-1.2,4.13,4.13,0,0,1-.89-.88A1.38,1.38,0,0,1,217.32,6.12Z"/>
          </g>
        </g>
      </g>
      <g>
        <path class="af41c2a0-1504-46bb-a971-86570d4f6e46" d="M329.49,81.34c-40.67-94.07-121-82.45-145.41-73.2L184,8.06C106.35-10.43,57.12,73.34,59.44,113.78s39.38,38.13,49.13,39.55S119.09,171,119.09,171C114.45,100.5,219.28,105.69,217,59.48c-.17-1.59-.42-3.13-.71-4.64l.75,1.28c9.23,41.49,89,24.3,86.71,104,11.59-5.78,16.41,6.09,16.41,6.09,9.68-8.08,16.24-24.09,17.33-36.82A100.07,100.07,0,0,0,329.49,81.34Z"/>
        <g>
          <path class="b129a636-ce55-4695-95b1-0e14b317b0c0" d="M203.62,28.85a35.43,35.43,0,0,1-.32,10.43,40,40,0,0,1-3.1,10,41.81,41.81,0,0,1-13.44,16.06,51.5,51.5,0,0,1-9.12,5.35c-3.23,1.46-6.46,2.66-9.66,4-6.4,2.68-12.72,5.53-18.89,8.68C136.75,89.62,124.82,97,115,106.63a66,66,0,0,0-6.8,7.77c-1.05,1.36-2,2.81-2.9,4.26s-1.73,3-2.45,4.54a44.53,44.53,0,0,0-3.45,9.73,50.25,50.25,0,0,0-1.11,10.32,43.47,43.47,0,0,1,3.67-20.46c.68-1.62,1.54-3.16,2.37-4.71s1.81-3,2.85-4.42a66,66,0,0,1,6.72-8.11,98.68,98.68,0,0,1,16.21-13.34,167.89,167.89,0,0,1,18.1-10.57c6.25-3.13,12.64-5.94,19.1-8.58,3.22-1.32,6.51-2.53,9.63-3.9a57.29,57.29,0,0,0,9-5,40.85,40.85,0,0,0,13.45-15.25A39.59,39.59,0,0,0,203.62,28.85Z"/>
          <path class="b129a636-ce55-4695-95b1-0e14b317b0c0" d="M204.79,45a28.63,28.63,0,0,1-.34,9.23,32.46,32.46,0,0,1-3,8.8A36.9,36.9,0,0,1,189,76.79c-5.19,3.52-11.17,5.65-16.83,7.87s-11.36,4.63-16.88,7.28a162.57,162.57,0,0,0-16.15,8.67c-2.61,1.59-5.13,3.3-7.6,5.09s-4.82,3.74-7.08,5.77a53.5,53.5,0,0,0-11.32,14.18,35.81,35.81,0,0,0-3.31,8.49,39.77,39.77,0,0,0-1.1,9.11,35.85,35.85,0,0,1,3.53-18,52.17,52.17,0,0,1,11.13-14.87c9-8.61,19.93-14.87,31-20.21,5.59-2.64,11.29-5,17.05-7.23s11.54-4.16,16.67-7.41A36.71,36.71,0,0,0,200.6,62.6,32.3,32.3,0,0,0,204.79,45Z"/>
          <path class="b129a636-ce55-4695-95b1-0e14b317b0c0" d="M209.42,53.12a29.22,29.22,0,0,1-.31,9.28,34.09,34.09,0,0,1-3,8.88A36.77,36.77,0,0,1,193.7,85.2a50.87,50.87,0,0,1-8.24,4.55c-2.92,1.23-5.79,2.28-8.66,3.43-5.72,2.3-11.4,4.71-16.94,7.4a161.35,161.35,0,0,0-16.2,8.81c-2.62,1.61-5.14,3.36-7.61,5.17s-4.82,3.79-7.08,5.86a53.73,53.73,0,0,0-11.28,14.35,36.07,36.07,0,0,0-3.28,8.56,40.76,40.76,0,0,0-1.09,9.16,36.64,36.64,0,0,1,3.49-18.16,52.72,52.72,0,0,1,11.08-15c9-8.73,20-15.09,31.1-20.52,5.61-2.67,11.34-5.1,17.12-7.34,2.89-1.12,5.85-2.15,8.66-3.29a53.87,53.87,0,0,0,8.07-4.23,36.64,36.64,0,0,0,12.45-13.08A33,33,0,0,0,209.42,53.12Z"/>
          <path class="b129a636-ce55-4695-95b1-0e14b317b0c0" d="M200.16,27.7A36.36,36.36,0,0,1,195,36.93a65.78,65.78,0,0,1-7.05,8,97.82,97.82,0,0,1-17,12.83,137.21,137.21,0,0,1-19,9.47,207,207,0,0,0-18.73,9.65,133.15,133.15,0,0,0-17.41,11.76,83.37,83.37,0,0,0-14.58,15,54.75,54.75,0,0,0-9.07,18.73,57.75,57.75,0,0,0-1.39,20.93,52.93,52.93,0,0,1,9.21-40.56,66.54,66.54,0,0,1,6.82-8.25,91.21,91.21,0,0,1,7.86-7.24,134.71,134.71,0,0,1,17.56-12.08,204.91,204.91,0,0,1,19-9.59c3.28-1.33,6.49-2.72,9.66-4.24s6.28-3.14,9.32-4.89a97.51,97.51,0,0,0,17.09-12.21,64.64,64.64,0,0,0,7.3-7.59,46.3,46.3,0,0,0,3.1-4.26A28.07,28.07,0,0,0,200.16,27.7Z"/>
          <path class="b129a636-ce55-4695-95b1-0e14b317b0c0" d="M190.32,22.5a34.48,34.48,0,0,1-11.75,15,92,92,0,0,1-16.73,9.46c-5.82,2.69-11.78,5-17.66,7.43s-11.7,5-17.32,7.91a99.82,99.82,0,0,0-16,10A71.55,71.55,0,0,0,97.6,85.71a68.9,68.9,0,0,0-9.06,16.57,99.93,99.93,0,0,0-4.78,18.44A90.85,90.85,0,0,1,87.62,102,69.73,69.73,0,0,1,96.36,84.8a67.31,67.31,0,0,1,13.33-14A100.69,100.69,0,0,1,126,60.47c11.46-5.84,23.57-10,35.27-15A91.71,91.71,0,0,0,178,36.66,35.11,35.11,0,0,0,190.32,22.5Z"/>
          <path class="b129a636-ce55-4695-95b1-0e14b317b0c0" d="M182.21,17.88a1.32,1.32,0,0,1,.34,1.13,2.36,2.36,0,0,1-.62,1,9.42,9.42,0,0,1-2,1.44,41.44,41.44,0,0,1-4.36,2.08c-3,1.24-6,2.35-9,3.47-6,2.17-12.06,4.34-18,6.71-11.87,4.71-23.56,10-34.24,17A106.75,106.75,0,0,0,99.23,62.24,81.22,81.22,0,0,0,86.85,76.62a67.86,67.86,0,0,0-11.2,36A67.22,67.22,0,0,1,77.77,93.5a65.14,65.14,0,0,1,7.79-17.71A75.48,75.48,0,0,1,98,60.9,108.43,108.43,0,0,1,113.3,49a154.25,154.25,0,0,1,17-9.28C136.1,37,142,34.5,148.08,32.32s12.13-4.22,18.23-6.21c3.05-1,6.1-1.94,9.11-3a42.81,42.81,0,0,0,4.41-1.86,9.25,9.25,0,0,0,2-1.28,2,2,0,0,0,.65-1A1.29,1.29,0,0,0,182.21,17.88Z"/>
        </g>
        <g>
          <path class="b129a636-ce55-4695-95b1-0e14b317b0c0" d="M211.75,28.85a103.11,103.11,0,0,0,12.84,15,79.75,79.75,0,0,0,15.48,12,62.66,62.66,0,0,0,8.76,4.26c3,1.14,6.23,2.07,9.34,3.17a136.86,136.86,0,0,1,18.37,7.68A85.23,85.23,0,0,1,293,82.16a66.66,66.66,0,0,1,7,7.13c1.11,1.25,2.11,2.59,3.11,3.92.49.68.95,1.38,1.42,2.07s.92,1.38,1.35,2.1a70.85,70.85,0,0,1,4.62,8.85c.61,1.55,1.31,3.06,1.82,4.64l.83,2.35.7,2.39a92.19,92.19,0,0,1,3.23,19.55A99.94,99.94,0,0,0,313,115.89l-.77-2.33-.88-2.3c-.54-1.54-1.27-3-1.91-4.52a71.44,71.44,0,0,0-4.77-8.55,69.77,69.77,0,0,0-5.9-7.78,64.22,64.22,0,0,0-6.92-6.88,82.82,82.82,0,0,0-16.23-10.85A141.84,141.84,0,0,0,257.56,65c-3.1-1.13-6.22-2-9.37-3.27a54.8,54.8,0,0,1-8.94-4.54A88.7,88.7,0,0,1,211.75,28.85Z"/>
          <path class="b129a636-ce55-4695-95b1-0e14b317b0c0" d="M216.38,39.25A85.34,85.34,0,0,0,226,53a66.93,66.93,0,0,0,12.18,11.31,46.59,46.59,0,0,0,7.13,4.14A40.63,40.63,0,0,0,249.13,70c1.28.42,2.63.82,4,1.22a155.06,155.06,0,0,1,15.95,5.66,93.17,93.17,0,0,1,15,8,62.66,62.66,0,0,1,12.78,11.22,54.51,54.51,0,0,1,5,6.9,52.32,52.32,0,0,1,3.74,7.63,51.46,51.46,0,0,1,2.38,8.13,56.2,56.2,0,0,1,1.12,8.35A58.82,58.82,0,0,0,304.62,111a52.21,52.21,0,0,0-9-13.88A63.7,63.7,0,0,0,283,86.43a92.85,92.85,0,0,0-14.7-7.76c-5.11-2.2-10.38-4-15.7-5.72-1.33-.42-2.67-.82-4-1.31a40.38,40.38,0,0,1-4-1.66,46.38,46.38,0,0,1-7.29-4.47,63.76,63.76,0,0,1-12-11.94A77.91,77.91,0,0,1,216.38,39.25Z"/>
          <path class="b129a636-ce55-4695-95b1-0e14b317b0c0" d="M217.54,48.5a68,68,0,0,0,8.37,13.32,55.56,55.56,0,0,0,11.22,10.82,43.23,43.23,0,0,0,6.7,3.91A38.35,38.35,0,0,0,247.41,78c1.2.4,2.46.79,3.74,1.17A127.36,127.36,0,0,1,266,84.92c9.62,4.48,18.82,10.19,26.38,17.76a61.55,61.55,0,0,1,5.26,6,54.53,54.53,0,0,1,4.33,6.72,50.81,50.81,0,0,1,3.09,7.35,43.25,43.25,0,0,1,1.65,7.76,51.7,51.7,0,0,0-2.16-7.58,49.34,49.34,0,0,0-3.45-7,57.83,57.83,0,0,0-9.83-12.11,82.51,82.51,0,0,0-12.35-9.57,112.3,112.3,0,0,0-13.75-7.51A136.72,136.72,0,0,0,250.58,81c-1.24-.39-2.49-.81-3.78-1.26s-2.5-1-3.71-1.59a41.79,41.79,0,0,1-6.85-4.23,53.13,53.13,0,0,1-11.08-11.48,64.41,64.41,0,0,1-4.25-6.72A52,52,0,0,1,217.54,48.5Z"/>
          <path class="b129a636-ce55-4695-95b1-0e14b317b0c0" d="M211.75,23.08a197.52,197.52,0,0,0,18.33,12.45,182.33,182.33,0,0,0,19.5,10.41l5,2.25,5.11,2.06L265,52.12c1.75.68,3.49,1.44,5.17,2.22a89.57,89.57,0,0,1,45.3,47.6A94,94,0,0,1,319,112.51a98.77,98.77,0,0,1,2.43,10.88,121.17,121.17,0,0,1,1.48,22.17c-.4-14.78-3-29.55-8.88-43a94,94,0,0,0-4.95-9.82,85.92,85.92,0,0,0-6.05-9.17,88.39,88.39,0,0,0-15.21-15.77A94.78,94.78,0,0,0,269.33,56c-1.67-.79-3.31-1.52-5-2.2l-5.22-1.92-5.16-2.14c-1.69-.77-3.38-1.54-5.06-2.34A177,177,0,0,1,211.75,23.08Z"/>
          <path class="b129a636-ce55-4695-95b1-0e14b317b0c0" d="M211.75,15a64.27,64.27,0,0,0,8.63,5.73c3,1.63,6.15,3.14,9.34,4.47,6.34,2.76,12.84,5.14,19.31,7.65,12.92,5,25.75,10.74,37.22,18.79a99,99,0,0,1,28.17,30.66,114,114,0,0,1,8.79,18.93l1.69,4.94,1.42,5c.23.84.49,1.67.7,2.51l.58,2.54,1.13,5.07a166.91,166.91,0,0,0-6.43-19.72,113.78,113.78,0,0,0-9.2-18.49,106.15,106.15,0,0,0-12.46-16.37,100.19,100.19,0,0,0-15.55-13.45,130.43,130.43,0,0,0-17.71-10.54c-6.16-3.1-12.54-5.76-18.92-8.46S235.61,29,229.32,26.08,216.89,19.67,211.75,15Z"/>
          <path class="b129a636-ce55-4695-95b1-0e14b317b0c0" d="M216.38,6.9a1.37,1.37,0,0,0,.2,1.15,3.83,3.83,0,0,0,.9.8,13.36,13.36,0,0,0,2.19,1.05c1.52.58,3.09,1,4.66,1.5,3.15.88,6.32,1.68,9.49,2.52,6.32,1.71,12.63,3.56,18.83,5.75a150.71,150.71,0,0,1,18.16,7.7,129.43,129.43,0,0,1,17,10.15,99.23,99.23,0,0,1,35.79,46.31,112.88,112.88,0,0,1,5.16,19A113.71,113.71,0,0,0,313.54,67a103.28,103.28,0,0,0-12.15-15.18,106.08,106.08,0,0,0-14.78-12.64c-10.5-7.66-22.32-13.39-34.49-18-6.09-2.34-12.31-4.34-18.57-6.25-3.12-1-6.26-1.92-9.37-2.95-1.56-.52-3.11-1.06-4.62-1.73A12,12,0,0,1,217.4,9a3.5,3.5,0,0,1-.88-.88A1.39,1.39,0,0,1,216.38,6.9Z"/>
        </g>
      </g>
    </g>
  </g>
</svg>
