<svg xmlns="http://www.w3.org/2000/svg" width="422" height="593" viewBox="0 0 422 593">
  <defs>
    <style>
      .abb5bd25-bf4f-419c-8195-5d26db2cea17 {
        fill: #957453;
      }

      .abb5bd25-bf4f-419c-8195-5d26db2cea17, .fff4cf30-d78e-44b7-bff4-32401012676e {
        stroke: #603917;
      }

      .a5245f8a-4863-4354-b552-ba87cc7eb1c0, .abb5bd25-bf4f-419c-8195-5d26db2cea17, .ad58b19d-bd63-4794-b29a-d69d26a0384a, .b41fb417-2d6f-4176-9497-7ba68452157f, .b4d118c1-8749-4e50-8eff-97145c2181a9, .b6428386-9631-467d-ae87-83160a2998b3, .fff4cf30-d78e-44b7-bff4-32401012676e {
        stroke-miterlimit: 10;
      }

      .abb5bd25-bf4f-419c-8195-5d26db2cea17, .b41fb417-2d6f-4176-9497-7ba68452157f, .b4d118c1-8749-4e50-8eff-97145c2181a9, .b6428386-9631-467d-ae87-83160a2998b3, .fff4cf30-d78e-44b7-bff4-32401012676e {
        stroke-width: 2px;
      }

      .fff4cf30-d78e-44b7-bff4-32401012676e {
        fill: #c49a6c;
      }

      .ad58b19d-bd63-4794-b29a-d69d26a0384a {
        fill: #d4eadc;
        stroke: #000;
      }

      .a8c22ac6-300c-494d-98c0-d5dd0a210659 {
        opacity: 0.25;
      }

      .b4d118c1-8749-4e50-8eff-97145c2181a9 {
        fill: #142a35;
        stroke: #0a202c;
      }

      .a5245f8a-4863-4354-b552-ba87cc7eb1c0, .b41fb417-2d6f-4176-9497-7ba68452157f {
        fill: #f8cfba;
        stroke: #93614c;
      }

      .b6428386-9631-467d-ae87-83160a2998b3 {
        fill: #f9e4ea;
        stroke: #ed8aa6;
      }

      .a5c2d664-7df0-4567-b6f9-75610220e6f1 {
        fill: #e0b7a4;
      }

      .b0912b13-92b6-4869-ad7d-bc944087834c {
        fill: #93614c;
      }

      .e2a85890-6f52-40df-9d8d-cec0779e5d86 {
        opacity: 0.49;
      }

      .e84b8f85-4df8-4bb2-bc32-43ba590d35c9 {
        fill: #9b1010;
      }

      .beb5ab54-9838-4f8c-9745-68769550eea5 {
        fill: #1f2335;
      }

      .e715ecc4-0471-4a3a-8c70-1b0184606859 {
        fill: #ff9a99;
        opacity: 0.29;
      }

      .e9a66999-6296-4a67-91da-357ca30f4088 {
        fill: #1d2647;
      }

      .bd67aa6f-a302-4610-837b-0dea3217edfb {
        fill: #fff;
        opacity: 0.85;
      }

      .bd1eb232-8fbc-40bd-a1d1-2d5ab88cae98 {
        fill: #38505b;
      }
    </style>
  </defs>
  <g id="a36e51c8-e849-48ee-8234-db9e0b9fd601" data-name="Layer 16">
    <path class="abb5bd25-bf4f-419c-8195-5d26db2cea17" d="M126.23,576.1l32-102.19H145.81L108.67,582.45l15-3.72A3.74,3.74,0,0,0,126.23,576.1Z"/>
    <path class="abb5bd25-bf4f-419c-8195-5d26db2cea17" d="M81.65,537.92,74.5,553.07a2.79,2.79,0,0,1-2.17,1.69L60.26,556l10.13-25Z"/>
    <path class="fff4cf30-d78e-44b7-bff4-32401012676e" d="M69.71,451.48,37.62,539.37a3.4,3.4,0,0,0,1.19,4L60.26,556l9.05-22.37a2.27,2.27,0,0,1,3.27-1.39L92,543.66a3.36,3.36,0,0,1,1.24,3.86L87,567.22a3.37,3.37,0,0,0,1.29,3.89l20.38,11.34,36-106.66c.58-1.72-.22-3.68-1.68-4.14L72.56,449.77A2.37,2.37,0,0,0,69.71,451.48Z"/>
    <path class="abb5bd25-bf4f-419c-8195-5d26db2cea17" d="M392.42,533.88,362.1,440.23a1.51,1.51,0,0,1,1.65-2l16.93,2.12a1.52,1.52,0,0,1,1.25,1l31.57,89.1a1.51,1.51,0,0,1-1.34,2Z"/>
    <path class="fff4cf30-d78e-44b7-bff4-32401012676e" d="M367.84,458.32l25.09,75.42-40.23-6.82a1.51,1.51,0,0,1-1.13-.85l-9.21-19.4a1.51,1.51,0,0,0-1.2-.86l-19.49-2.4a1.51,1.51,0,0,0-1.66,1.91l5,17.29-25.94-5.37a1.52,1.52,0,0,1-1.17-1.12l-12.7-51.66a1.51,1.51,0,0,1,1.38-1.85l79.68-5.32A1.53,1.53,0,0,1,367.84,458.32Z"/>
    <path class="abb5bd25-bf4f-419c-8195-5d26db2cea17" d="M63.31,437.73s-11.32,8.35,0,16.68l65.29,27.21a14.16,14.16,0,0,0,7,1l257.32-28.2s11.93-7,1-16.7L134,468.34Z"/>
    <path class="fff4cf30-d78e-44b7-bff4-32401012676e" d="M392.38,440.15,136.51,469.29a15.07,15.07,0,0,1-7.48-1.06L64.78,441.31a2.39,2.39,0,0,1,.69-4.59l228.57-25a21.85,21.85,0,0,1,8.09.63l90.52,24.39A1.73,1.73,0,0,1,392.38,440.15Z"/>
    <path class="ad58b19d-bd63-4794-b29a-d69d26a0384a" d="M318.63,501.6l6.4,18.89h13.44a1.51,1.51,0,0,0,1.45-2l-6.06-17.87a1.52,1.52,0,0,0-1.45-1H320.08A1.51,1.51,0,0,0,318.63,501.6Z"/>
    <path class="abb5bd25-bf4f-419c-8195-5d26db2cea17" d="M126.23,576.1l32-102.19H145.81L108.67,582.45l15-3.72A3.74,3.74,0,0,0,126.23,576.1Z"/>
    <path class="abb5bd25-bf4f-419c-8195-5d26db2cea17" d="M81.65,537.92,74.5,553.07a2.79,2.79,0,0,1-2.17,1.69L60.26,556l10.13-25Z"/>
    <path class="fff4cf30-d78e-44b7-bff4-32401012676e" d="M69.71,451.48,37.62,539.37a3.4,3.4,0,0,0,1.19,4L60.26,556l9.05-22.37a2.27,2.27,0,0,1,3.27-1.39L92,543.66a3.36,3.36,0,0,1,1.24,3.86L87,567.22a3.37,3.37,0,0,0,1.29,3.89l20.38,11.34,36-106.66c.58-1.72-.22-3.68-1.68-4.14L72.56,449.77A2.37,2.37,0,0,0,69.71,451.48Z"/>
    <path class="abb5bd25-bf4f-419c-8195-5d26db2cea17" d="M392.42,533.88,362.1,440.23a1.51,1.51,0,0,1,1.65-2l16.93,2.12a1.52,1.52,0,0,1,1.25,1l31.57,89.1a1.51,1.51,0,0,1-1.34,2Z"/>
    <path class="fff4cf30-d78e-44b7-bff4-32401012676e" d="M367.84,458.32l25.09,75.42-40.23-6.82a1.51,1.51,0,0,1-1.13-.85l-9.21-19.4a1.51,1.51,0,0,0-1.2-.86l-19.49-2.4a1.51,1.51,0,0,0-1.66,1.91l5,17.29-25.94-5.37a1.52,1.52,0,0,1-1.17-1.12l-12.7-51.66a1.51,1.51,0,0,1,1.38-1.85l79.68-5.32A1.53,1.53,0,0,1,367.84,458.32Z"/>
    <path class="abb5bd25-bf4f-419c-8195-5d26db2cea17" d="M63.31,437.73s-11.32,8.35,0,16.68l65.29,27.21a14.16,14.16,0,0,0,7,1l257.32-28.2s11.93-7,1-16.7L134,468.34Z"/>
    <path class="fff4cf30-d78e-44b7-bff4-32401012676e" d="M392.38,440.15,136.51,469.29a15.07,15.07,0,0,1-7.48-1.06L64.78,441.31a2.39,2.39,0,0,1,.69-4.59l228.57-25a21.85,21.85,0,0,1,8.09.63l90.52,24.39A1.73,1.73,0,0,1,392.38,440.15Z"/>
    <path class="ad58b19d-bd63-4794-b29a-d69d26a0384a" d="M318.63,501.6l6.4,18.89h13.44a1.51,1.51,0,0,0,1.45-2l-6.06-17.87a1.52,1.52,0,0,0-1.45-1H320.08A1.51,1.51,0,0,0,318.63,501.6Z"/>
  </g>
  <g id="af316ac5-3ba7-49f3-8247-c35fec61e718" data-name="Layer 23">
    <g>
      <path class="a8c22ac6-300c-494d-98c0-d5dd0a210659" d="M57.46,557l28.06,13.61,46.43.48,40.82-7s34.44,24.69,81.09,26.06l2.58.06c48,.51-5.1-40.82-5.1-40.82l51.53-4.08s38.26,23.13,79.59,25.34-23-35.55-23-35.55l59.7-4.82L326.72,511,34.83,541.2Z"/>
      <g>
        <path class="abb5bd25-bf4f-419c-8195-5d26db2cea17" d="M126.23,576.1l32-102.19H145.81L108.67,582.45l15-3.72A3.74,3.74,0,0,0,126.23,576.1Z"/>
        <path class="abb5bd25-bf4f-419c-8195-5d26db2cea17" d="M81.65,537.92,74.5,553.07a2.79,2.79,0,0,1-2.17,1.69L60.26,556l10.13-25Z"/>
        <path class="fff4cf30-d78e-44b7-bff4-32401012676e" d="M69.71,451.48,37.62,539.37a3.4,3.4,0,0,0,1.19,4L60.26,556l9.05-22.37a2.27,2.27,0,0,1,3.27-1.39L92,543.66a3.36,3.36,0,0,1,1.24,3.86L87,567.22a3.37,3.37,0,0,0,1.29,3.89l20.38,11.34,36-106.66c.58-1.72-.22-3.68-1.68-4.14L72.56,449.77A2.37,2.37,0,0,0,69.71,451.48Z"/>
        <path class="abb5bd25-bf4f-419c-8195-5d26db2cea17" d="M392.42,533.88,362.1,440.23a1.51,1.51,0,0,1,1.65-2l16.93,2.12a1.52,1.52,0,0,1,1.25,1l31.57,89.1a1.51,1.51,0,0,1-1.34,2Z"/>
        <path class="fff4cf30-d78e-44b7-bff4-32401012676e" d="M367.84,458.32l25.09,75.42-40.23-6.82a1.51,1.51,0,0,1-1.13-.85l-9.21-19.4a1.51,1.51,0,0,0-1.2-.86l-19.49-2.4a1.51,1.51,0,0,0-1.66,1.91l5,17.29-25.94-5.37a1.52,1.52,0,0,1-1.17-1.12l-12.7-51.66a1.51,1.51,0,0,1,1.38-1.85l79.68-5.32A1.53,1.53,0,0,1,367.84,458.32Z"/>
        <path class="abb5bd25-bf4f-419c-8195-5d26db2cea17" d="M63.31,437.73s-11.32,8.35,0,16.68l65.29,27.21a14.16,14.16,0,0,0,7,1l257.32-28.2s11.93-7,1-16.7L134,468.34Z"/>
        <path class="fff4cf30-d78e-44b7-bff4-32401012676e" d="M392.38,440.15,136.51,469.29a15.07,15.07,0,0,1-7.48-1.06L64.78,441.31a2.39,2.39,0,0,1,.69-4.59l228.57-25a21.85,21.85,0,0,1,8.09.63l90.52,24.39A1.73,1.73,0,0,1,392.38,440.15Z"/>
        <path class="ad58b19d-bd63-4794-b29a-d69d26a0384a" d="M318.63,501.6l6.4,18.89h13.44a1.51,1.51,0,0,0,1.45-2l-6.06-17.87a1.52,1.52,0,0,0-1.45-1H320.08A1.51,1.51,0,0,0,318.63,501.6Z"/>
      </g>
      <g>
        <path class="b4d118c1-8749-4e50-8eff-97145c2181a9" d="M123.7,26c-17.26,11.46-4.78,25.77-17.26,29.8C102.63,57.06,65.07,50.8,57,73c-3.17,8.68,1.15,11.46-3.45,14.9s-15,4.58-17.27,16,11.51,11.47,8.06,22.93-20.72,16-21.87,28.65,9.21,14.91,9.21,26.37-15,16.05-15,28.65,16.11,8,18.41,17.2S28.18,245,37.39,253s16.11,2.3,20.71,8-6.9,20.63,3.45,25.21,15-3.43,20.72,4.59-5.75,22.92,9.21,27.51S111,309.15,120.25,316s2.3,10.31,16.11,17.19,57.55-4.58,57.55-4.58l78.26,2.29S286,333.22,299.79,316s33.38-8,41.43-20.64,4.61-17.19,11.51-25.21,18.42-10.32,16.12-19.49-9.21-4.58-10.36-12.61,18.41-16,19.56-28.65-4.6-11.46-3.45-19.49,17.26-9.17,15-22.92-23-16.05-26.47-25.22,6.91-19.49,2.3-29.8-17.26-8-20.71-13.76,6.9-6.87,4.6-14.9S338.92,82.2,332,78.76s4.6-20.63-8.06-30.95-18.41-3.44-26.47-6.88,6.9-16-4.6-22.92-13.82,4.58-24.17,4.58-9.21-16-25.32-17.19-20.72,11.46-28.78,10.31S211.17,2,192.76,2,176.64,18,167.44,23.74,141,14.57,123.7,26Z"/>
        <g>
          <path class="b41fb417-2d6f-4176-9497-7ba68452157f" d="M389.81,549.3c-3.18-3.66-13.57-14.89-26-20.65a8.16,8.16,0,0,1-4.7-7.29c-.36-19.9-3.46-87.8-4.78-91.05-.6-1.5-.43-11.25-5.81-15.69-4.61-3.43-39.71-31.92-85.17-48.14L264.46,339l-1.15,27.51L290.93,378l-2.3-43.56s0-47-29.05-58.75c0,0-19.29-6.08-21-16.08a2.47,2.47,0,0,0-.17-.57l-5.58-18.91H183.32L181,255c-.92,5.44-6.59,20.16-19.72,22-13.72,2-31.05,10-32.26,50.89-.39,5.33-3.16,31-3.26,31.38-1.69,5.76-12.12,43.06-15,68.77-.15,1.43-7.9,6.26-9.2,6.88-3.7,1.75-12.48,4-18.42,5.73-8,2.29,1.73,4.58,1.73,4.58a135.17,135.17,0,0,0,29.56,2.29,18.76,18.76,0,0,1-7,2.46,2.15,2.15,0,0,0-1.92,1.81c-.13,1.29,1,2.71,7.47,1.7,0,0,14.22-.87,17.89-8.84h0a4.31,4.31,0,0,0,.62-1.16c3.21-9.34,31.25-98.75,31.25-98.75s3,8.88,2.27,15.88S124.3,434,187.48,446.69c0,0,9,5.33,9.65,10,1,7.15,2.05,70.85-1.82,101.61a14,14,0,0,0,8.1,14.5c14,6.36,41,15.68,65.08,7.68,0,0,5.07-.84,5.07-5.42a6.44,6.44,0,0,0-1.42-3.88c-3-4-13-16.15-25.42-22.88a8.34,8.34,0,0,1-4.45-7.68c.89-20.3,3.14-90.34,2.62-93.93-2.3-16.05-5.75-28.66,6.91-22.93s31.41,10.77,48.34,14.91a28.08,28.08,0,0,0,5.35,1c1.8,0,4.31.55,4.9,3.36,1.42,6.87,6.23,68.42,4.33,98.4a13.56,13.56,0,0,0,8.7,13.54c14,5.31,40.57,12.73,63.41,3.55,0,0,4.86-1.11,4.58-5.53A6.3,6.3,0,0,0,389.81,549.3Zm-125.35-231c.22,6.55.17,14,0,21.78"/>
          <path class="b6428386-9631-467d-ae87-83160a2998b3" d="M166.73,274.89c7.72,32.15,72.31,44.2,84.54-2.72,5.16,3,13,4.43,15,7.17-.07-.12-3.66,65.86-5.47,84.33-.19,1.9,4,4.08,5.76,4.8,13.94,5.68,71,29.69,80.41,45.62,0,0-42.95-1.73-49.45,22.75,0,0-33-3-51.91-13.51,0,0-1.43,14.16-2,22.87a.52.52,0,0,1-1,.11c-2.58-8.49-13.14-33.34-50.47,1.45,0,0-.42.59-4.44-.32s-32.18-3.24-35.1-31.34c-2.08-20,5.23-39.25,9.62-48.69a24.34,24.34,0,0,0,2.06-13.66c-2.68-19.46-10.19-69.53-16.78-71.58C153.94,277.27,163.13,277.32,166.73,274.89Z"/>
        </g>
        <g>
          <path class="a5245f8a-4863-4354-b552-ba87cc7eb1c0" d="M115.42,162.13c-33.38-13.75-23,47,12,38.18C115.42,175.89,115.42,162.13,115.42,162.13Z"/>
          <g>
            <path class="a5c2d664-7df0-4567-b6f9-75610220e6f1" d="M118,176.09c-7.14-10.52-22.1.95,1.61,7.08,0,0-8.75,5.33.46,12.21"/>
            <path class="b0912b13-92b6-4869-ad7d-bc944087834c" d="M118,176.09a11.71,11.71,0,0,0-2.72-2.59,8.55,8.55,0,0,0-3.42-1.32,5.33,5.33,0,0,0-3.44.66,2.34,2.34,0,0,0-1.11,2.78,5.83,5.83,0,0,0,2.16,2.72,19.42,19.42,0,0,0,3.18,1.88,42.13,42.13,0,0,0,7.07,2.52l1,.26-.84.54a10.17,10.17,0,0,0-2.61,2.46,5.2,5.2,0,0,0-1.05,3.32,6.93,6.93,0,0,0,1.29,3.35c.38.49.8,1,1.21,1.42l1.39,1.29-1.52-1.15c-.45-.43-.92-.88-1.34-1.35a6.74,6.74,0,0,1-1.62-3.51,5.88,5.88,0,0,1,1-3.8,9.69,9.69,0,0,1,2.78-2.78l.12.8a42.48,42.48,0,0,1-7.28-2.47,19.69,19.69,0,0,1-3.33-2,6.77,6.77,0,0,1-2.43-3.21,3.13,3.13,0,0,1,.11-2.15,3.49,3.49,0,0,1,1.45-1.54,6,6,0,0,1,3.92-.57A9.24,9.24,0,0,1,118,176.09Z"/>
          </g>
          <path class="a5245f8a-4863-4354-b552-ba87cc7eb1c0" d="M301.86,162.13c29.93-11.46,19.57,42.41-10.35,37.83C303.52,175.54,301.86,162.13,301.86,162.13Z"/>
          <g>
            <path class="a5c2d664-7df0-4567-b6f9-75610220e6f1" d="M299.56,175.89c7.14-10.51,22.56.75-1.15,6.88,0,0,6.66,5.73-2.55,12.61"/>
            <path class="b0912b13-92b6-4869-ad7d-bc944087834c" d="M299.56,175.89a9.3,9.3,0,0,1,6.06-4.5,6.39,6.39,0,0,1,3.94.42,3.55,3.55,0,0,1,1.58,1.4,3,3,0,0,1,.34,2.14,6.18,6.18,0,0,1-2.34,3.3,17.63,17.63,0,0,1-3.32,2.06,41.88,41.88,0,0,1-7.3,2.48l.18-.76a7.73,7.73,0,0,1,2.09,3.35,6.49,6.49,0,0,1,0,3.9,8.63,8.63,0,0,1-2,3.27,16.4,16.4,0,0,1-2.9,2.43,19.44,19.44,0,0,0,2.64-2.65,9.15,9.15,0,0,0,1.69-3.22,5.77,5.77,0,0,0-.13-3.49,7.56,7.56,0,0,0-1.94-2.92l-.59-.55.77-.21a40.28,40.28,0,0,0,7.08-2.53,16.58,16.58,0,0,0,3.18-1.89,5.38,5.38,0,0,0,2.06-2.75,2.43,2.43,0,0,0-1.41-2.68,5.71,5.71,0,0,0-3.5-.52,8.5,8.5,0,0,0-3.42,1.32A11.41,11.41,0,0,0,299.56,175.89Z"/>
          </g>
          <path class="a5245f8a-4863-4354-b552-ba87cc7eb1c0" d="M303,157.55c0,51.91-48.36,90.37-81.71,91.7-57.54,2.29-107-39.79-107-91.7s42.25-94,94.37-94S303,105.64,303,157.55Z"/>
          <g class="e2a85890-6f52-40df-9d8d-cec0779e5d86">
            <path class="e84b8f85-4df8-4bb2-bc32-43ba590d35c9" d="M200.75,202.76a7,7,0,0,1,.22,3.39,8.3,8.3,0,0,1-1.24,3.22,7.36,7.36,0,0,1-2.47,2.46,6.39,6.39,0,0,1-3.26,1c.82-.82,1.62-1.45,2.27-2.22a14.52,14.52,0,0,0,1.78-2.31A35.72,35.72,0,0,0,200.75,202.76Z"/>
            <path class="e84b8f85-4df8-4bb2-bc32-43ba590d35c9" d="M251,201.68a33.9,33.9,0,0,0,1.33,5.91,13.45,13.45,0,0,0,1.19,2.59c.46.88,1.1,1.64,1.73,2.6a6.17,6.17,0,0,1-3-1.61,7.39,7.39,0,0,1-1.85-2.91,8.56,8.56,0,0,1-.45-3.39A6.92,6.92,0,0,1,251,201.68Z"/>
            <path class="e84b8f85-4df8-4bb2-bc32-43ba590d35c9" d="M251.2,207.46a17.44,17.44,0,0,1-4.89,5.31,28.24,28.24,0,0,1-6.43,3.45,40.53,40.53,0,0,1-28.62-.1A30.73,30.73,0,0,1,199.39,208a39.16,39.16,0,0,0,12.4,6.67,46.83,46.83,0,0,0,27.57.11C243.78,213.32,248.1,211.15,251.2,207.46Z"/>
          </g>
          <path class="beb5ab54-9838-4f8c-9745-68769550eea5" d="M219,189.64a19.4,19.4,0,0,1,3-6.48,12.84,12.84,0,0,1,2.56-2.71,7,7,0,0,1,3.72-1.48,6.25,6.25,0,0,1,3.87,1.28,11.28,11.28,0,0,1,2.53,2.79,20.85,20.85,0,0,1,2.73,6.6,60.09,60.09,0,0,0-4-5.67c-1.43-1.67-3.2-3.12-5.05-3a5.29,5.29,0,0,0-2.72,1,14.53,14.53,0,0,0-2.46,2.15A48.87,48.87,0,0,0,219,189.64Z"/>
          <ellipse class="e715ecc4-0471-4a3a-8c70-1b0184606859" cx="277.6" cy="187.43" rx="13.92" ry="17.67" transform="translate(-56.81 206.52) rotate(-37.29)"/>
          <ellipse class="e715ecc4-0471-4a3a-8c70-1b0184606859" cx="172.87" cy="188.58" rx="17.67" ry="13.92" transform="translate(-81.89 211.84) rotate(-52.71)"/>
          <ellipse class="e9a66999-6296-4a67-91da-357ca30f4088" cx="194.73" cy="157.13" rx="10.48" ry="14.9" transform="translate(-29.48 46.06) rotate(-12.55)"/>
          <ellipse class="e9a66999-6296-4a67-91da-357ca30f4088" cx="255.72" cy="157.13" rx="14.9" ry="10.48" transform="translate(41.17 367.01) rotate(-75.94)"/>
          <g class="e2a85890-6f52-40df-9d8d-cec0779e5d86">
            <path class="e84b8f85-4df8-4bb2-bc32-43ba590d35c9" d="M219,226.32a9.86,9.86,0,0,0,3.66,1.78,11,11,0,0,0,3.84.21,24.67,24.67,0,0,0,3.94-.77c.65-.23,1.33-.4,2-.61a20.47,20.47,0,0,1,2.09-.61,19.46,19.46,0,0,1-1.65,1.49c-.59.42-1.23.81-1.87,1.18a12.11,12.11,0,0,1-4.33,1.31,8.54,8.54,0,0,1-4.58-.74A6,6,0,0,1,219,226.32Z"/>
          </g>
          <ellipse class="bd67aa6f-a302-4610-837b-0dea3217edfb" cx="196.79" cy="149.76" rx="3.98" ry="5.72" transform="translate(-41.6 84.01) rotate(-21.85)"/>
          <ellipse class="bd67aa6f-a302-4610-837b-0dea3217edfb" cx="260.19" cy="149.76" rx="3.98" ry="5.72" transform="translate(-37.05 107.61) rotate(-21.85)"/>
          <g>
            <path class="beb5ab54-9838-4f8c-9745-68769550eea5" d="M192.39,129.24a14.52,14.52,0,0,0-2.66-.05,17.49,17.49,0,0,0-2.76.4,17,17,0,0,0-5.22,2.11,9.52,9.52,0,0,0-1.19.8,9.62,9.62,0,0,0-1.14.88l-1.08,1-1,1.09a22.87,22.87,0,0,0-1.78,2.34c-.53.83-1,1.71-1.48,2.58.39-.92.72-1.86,1.16-2.76a22.71,22.71,0,0,1,1.5-2.62l.87-1.25,1-1.15a10.21,10.21,0,0,1,1.08-1.1,11.31,11.31,0,0,1,1.17-1,19,19,0,0,1,5.44-3,21,21,0,0,1,3.06-.85,17.58,17.58,0,0,1,3.27-.33Z"/>
            <path class="beb5ab54-9838-4f8c-9745-68769550eea5" d="M254.54,126.25a17.77,17.77,0,0,1,3.28.33,21.19,21.19,0,0,1,3.05.85,19.16,19.16,0,0,1,5.45,3,12.34,12.34,0,0,1,1.16,1,9.44,9.44,0,0,1,1.09,1.1l1,1.15.86,1.25a22.78,22.78,0,0,1,1.51,2.62c.43.9.77,1.84,1.15,2.76-.5-.87-.94-1.75-1.48-2.58a21.43,21.43,0,0,0-1.77-2.34l-1-1.09-1.08-1a8.77,8.77,0,0,0-1.13-.88,10.31,10.31,0,0,0-1.19-.8,17.65,17.65,0,0,0-8-2.51,14.52,14.52,0,0,0-2.66.05Z"/>
          </g>
        </g>
        <g>
          <path class="b4d118c1-8749-4e50-8eff-97145c2181a9" d="M335.24,116.94c1.17-9.74,15.19-6.09,10.52-18.25S323.55,95,318.87,86.52s8.19-20.68,0-26.76-14,6.08-18.7,2.43S299,43.94,290.82,41.51s-14,9.73-21,6.08,1.17-12.16-7-15.81-21,10.95-25.71,8.51-1.17-9.73-8.18-8.51c-3.34.58-8.14,12-7.93,9.72.33-3.46-13.27-17.28-24.16-4.58-6.23,7.26-5.33-13.18-15.38-13.18S176.94,37.49,168,38.64s-23.47-13.76-31.29-9.17,0,21.78-12.3,26.36S90.89,45.52,84.18,52.39,86.42,74.17,82,78.76s-21.23-2.3-24.59,9.17,7.83,17.19,5.59,25.21-14.53,9.17-13.41,20.64,22.35,10.31,24.59,16-12.3,8-5.59,18.34,22.35,2.3,22.35,2.3-1.12-14.91,13.41-16.05,14.53,13.75,14.53,13.75S130,159,128.88,151s-6.7-17.19,0-22.92,13.41,2.29,17.88-2.3-6.7-18.34,3.36-24.07,16.76,3.44,21.23,0,2.23-19.48,11.17-20.63,7.83,2.29,12.3,0,1.11-5.73,6.7-6.88,7.82,5.73,14.53,3.44a9.57,9.57,0,0,0,4.53-3.8c1.13,2.49,2.72,4.87,4.79,5.41,4.68,1.22,5.85-4.86,8.19-4.86s1.16,4.86,5.84,4.86,7-6.08,12.86-2.43-2.34,10.95,3.5,14.6,10.52-2.43,14,2.43-2.34,8.52,2.33,14.6,14,4.87,16.37,11-7,6.08-3.51,12.17,12.86,4.86,12.86,9.73-2,4.58-5.85,9.73c-7.51,10,4.49,21,8.18,18.25,0,0,1-20.47,15.16-13.12,9.65,5,5.2,16.32,6.9,19.48,1.5,2.79,1.32,4.59,6,.94s1.17-17,1.17-17,2.34,4.86,9.35,4.86,11.69-8.51,11.69-21.9S334.07,126.67,335.24,116.94Z"/>
          <path class="bd1eb232-8fbc-40bd-a1d1-2d5ab88cae98" d="M116.57,236.49a15.41,15.41,0,0,0,9.94,8.33,11.36,11.36,0,0,1,3.38,1.46,6.05,6.05,0,0,1,2.25,3.27c.67,2.51.31,4.85.72,6.91a6.51,6.51,0,0,0,6.28,5.35,8.68,8.68,0,0,0,3-.65c2-.79,4-2.13,6.27-2.86a9.42,9.42,0,0,1,3.54-.43,5,5,0,0,1,3.16,1.42,4.93,4.93,0,0,0-3.18-.86,9.07,9.07,0,0,0-3.19.79c-2,.86-3.79,2.35-6,3.37a9.21,9.21,0,0,1-3.6,1,8,8,0,0,1-3.77-.79,8.5,8.5,0,0,1-3-2.41,9,9,0,0,1-1-1.69,9.52,9.52,0,0,1-.54-1.86c-.4-2.47-.07-4.8-.57-6.76a4.18,4.18,0,0,0-1.47-2.36,11.3,11.3,0,0,0-2.85-1.4,16,16,0,0,1-3.22-1.53,14.66,14.66,0,0,1-2.77-2.25A13.92,13.92,0,0,1,116.57,236.49Z"/>
          <path class="bd1eb232-8fbc-40bd-a1d1-2d5ab88cae98" d="M160.46,32.26A52.51,52.51,0,0,1,173,25.83a22.18,22.18,0,0,1,14.33-.06,16.15,16.15,0,0,1,3.3,1.71,19,19,0,0,1,2.8,2.36c1.66,1.67,3.21,3.25,5.22,3.93a4.87,4.87,0,0,0,3,.12c.94-.26,1.89-1.17,3.25-1.4a4.62,4.62,0,0,1,3.56,1,12.91,12.91,0,0,1,2.44,2.57A15.36,15.36,0,0,0,208.14,34a3.92,3.92,0,0,0-3-.55c-1,.23-1.75,1.12-3,1.66a6,6,0,0,1-3.89.16,9.55,9.55,0,0,1-3.38-1.71,35.19,35.19,0,0,1-2.71-2.35,18.63,18.63,0,0,0-2.58-2.11,15,15,0,0,0-2.91-1.46,18.59,18.59,0,0,0-6.51-1.14,25.82,25.82,0,0,0-6.69.83C169,28.43,164.76,30.43,160.46,32.26Z"/>
          <path class="bd1eb232-8fbc-40bd-a1d1-2d5ab88cae98" d="M82.35,208.24a21.44,21.44,0,0,0,5,12.42,20.52,20.52,0,0,0,5,4.36,63.71,63.71,0,0,0,6,3.13,42.89,42.89,0,0,1,6.14,3.36,15.06,15.06,0,0,1,4.93,5.28,19.68,19.68,0,0,1,2,6.88c.32,2.33.42,4.64.62,6.9a24.93,24.93,0,0,0,1.17,6.48,9.65,9.65,0,0,0,3.73,4.87,27.47,27.47,0,0,0,6.12,2.54,22.74,22.74,0,0,1,3.29,1.38,11.4,11.4,0,0,1,2.93,2.25,19,19,0,0,1,3.45,6.21,35.35,35.35,0,0,0,2.68,6.22,8,8,0,0,0,4.95,4.05,6.44,6.44,0,0,0,3.29-.08,5,5,0,0,0,1.5-.74,4.41,4.41,0,0,0,1.11-1.28,4.64,4.64,0,0,1-1,1.4,5.33,5.33,0,0,1-1.5.91,7.11,7.11,0,0,1-6.75-1.12,11.53,11.53,0,0,1-2.42-2.61,36.91,36.91,0,0,1-3.07-6.25,18.25,18.25,0,0,0-3.36-5.64,13.39,13.39,0,0,0-5.65-3,29.07,29.07,0,0,1-6.58-2.61,11.43,11.43,0,0,1-4.54-5.79,26.9,26.9,0,0,1-1.34-7c-.18-2.31-.27-4.59-.55-6.8a18.57,18.57,0,0,0-1.78-6.25,13.28,13.28,0,0,0-4.27-4.75,47.51,47.51,0,0,0-5.83-3.39,56,56,0,0,1-6-3.43,20.73,20.73,0,0,1-5.08-4.85A21.06,21.06,0,0,1,82.35,208.24Z"/>
          <path class="bd1eb232-8fbc-40bd-a1d1-2d5ab88cae98" d="M66.33,248.69a15.74,15.74,0,0,0,2,4.34,15.94,15.94,0,0,0,11.46,7.1,8.48,8.48,0,0,1-5.09.22A11.13,11.13,0,0,1,70,258a11.32,11.32,0,0,1-3.1-4.21A8.36,8.36,0,0,1,66.33,248.69Z"/>
          <path class="bd1eb232-8fbc-40bd-a1d1-2d5ab88cae98" d="M286.11,307.51a14.52,14.52,0,0,0,10.23-3.8c2.67-2.48,4.38-6.13,7.81-8.63a13.94,13.94,0,0,1,5.74-2.18c2-.31,3.89-.44,5.74-.71a12.75,12.75,0,0,0,5.13-1.83,6.23,6.23,0,0,0,3.08-4.42,5.18,5.18,0,0,1-.58,2.87,8,8,0,0,1-1.91,2.34,13,13,0,0,1-5.43,2.58c-3.84.87-7.78.89-10.62,3s-4.76,5.6-7.94,8.17A13.24,13.24,0,0,1,286.11,307.51Z"/>
          <g>
            <path class="bd1eb232-8fbc-40bd-a1d1-2d5ab88cae98" d="M70.08,138.78a8.8,8.8,0,0,0,8.12-5.05,8.64,8.64,0,0,0,.77-2.35,7.14,7.14,0,0,0,0-2.44,22.78,22.78,0,0,0-1.84-4.69,9.5,9.5,0,0,1-.74-5.3,11.51,11.51,0,0,1,2.09-5,12.14,12.14,0,0,1,4-3.55,9.92,9.92,0,0,1,5.33-1.23A19.42,19.42,0,0,1,93,110.49a20.52,20.52,0,0,0,2.37.65,8.53,8.53,0,0,0,2.31.07,10,10,0,0,0,7.35-5.3,9.23,9.23,0,0,0,1.14-4.47A9.74,9.74,0,0,0,104.78,97a16.18,16.18,0,0,1-1.07-2.52,6.05,6.05,0,0,1-.18-3A5.63,5.63,0,0,1,105,88.71a8.13,8.13,0,0,1,2.48-1.61,13.55,13.55,0,0,1,5.45-.84,16.56,16.56,0,0,1,2.71.32c.92.2,1.71.43,2.54.64a31.71,31.71,0,0,0,4.89,1,12.61,12.61,0,0,0,2.38,0,7.4,7.4,0,0,0,2.17-.58,5.56,5.56,0,0,0,1.71-1.34,6.3,6.3,0,0,0,1-2,18.8,18.8,0,0,0,.58-4.85,17.61,17.61,0,0,1,.76-5.33,7.28,7.28,0,0,1,1.5-2.46,6.71,6.71,0,0,1,2.42-1.59,11.25,11.25,0,0,1,5.43-.39c1.74.23,3.42.58,5.09.82a15.06,15.06,0,0,0,4.92.05,9.38,9.38,0,0,0,4.31-2.14,30.35,30.35,0,0,0,3.53-3.63A29.38,29.38,0,0,1,162.44,61,12.94,12.94,0,0,1,167,58.55a6.22,6.22,0,0,1,5,.58,6.1,6.1,0,0,0-4.93-.29,12.51,12.51,0,0,0-4.29,2.6c-2.5,2.26-4.19,5.34-6.83,7.7a10.35,10.35,0,0,1-4.72,2.51,16.08,16.08,0,0,1-5.31.09c-1.73-.2-3.42-.51-5.09-.67a9.65,9.65,0,0,0-4.7.42,5.19,5.19,0,0,0-1.81,1.26,5.58,5.58,0,0,0-1.1,1.93,16.47,16.47,0,0,0-.61,4.81,20.3,20.3,0,0,1-.61,5.33,8.18,8.18,0,0,1-1.33,2.57,7.31,7.31,0,0,1-2.3,1.83,9.23,9.23,0,0,1-2.76.79,14.88,14.88,0,0,1-2.75,0,32.49,32.49,0,0,1-5.2-1c-.83-.2-1.69-.44-2.45-.6a16,16,0,0,0-2.39-.25,11.75,11.75,0,0,0-4.64.73,5.94,5.94,0,0,0-1.82,1.15,3.43,3.43,0,0,0-.92,1.74c-.32,1.33.29,2.77,1,4.29a17.12,17.12,0,0,1,1.06,2.48,9.18,9.18,0,0,1,.46,2.8,11,11,0,0,1-1.41,5.37,11.73,11.73,0,0,1-8.76,6.15,10.15,10.15,0,0,1-2.81-.12,18.81,18.81,0,0,1-2.58-.74,18.51,18.51,0,0,0-4.74-1.33,9.68,9.68,0,0,0-8.26,4,10.24,10.24,0,0,0-2,4.37,8.43,8.43,0,0,0,.54,4.77,23.25,23.25,0,0,1,1.67,4.93,7.72,7.72,0,0,1-.07,2.67,9.25,9.25,0,0,1-.93,2.48,9.8,9.8,0,0,1-3.61,3.73A8.09,8.09,0,0,1,70.08,138.78Z"/>
            <g>
              <path class="bd1eb232-8fbc-40bd-a1d1-2d5ab88cae98" d="M94.33,153.82a19.49,19.49,0,0,0,5.08-2,10.62,10.62,0,0,0,2.14-1.63,4.88,4.88,0,0,0,1.37-2.2,4.07,4.07,0,0,0-.17-2.51,6.9,6.9,0,0,0-1.54-2.1c-.63-.65-1.32-1.27-1.93-2a8.42,8.42,0,0,1-1.36-2.56,9.46,9.46,0,0,1,1.41-8.34,8.27,8.27,0,0,1,2.17-2,11.53,11.53,0,0,1,5.52-1.66,37.26,37.26,0,0,1,5.61.16,28.3,28.3,0,0,0,5.34.14,13,13,0,0,0,4.93-1.39,5.68,5.68,0,0,0,3-3.5,5.54,5.54,0,0,0,0-2.33,10.08,10.08,0,0,0-.87-2.36c-.78-1.56-1.84-3-2.71-4.77a11.08,11.08,0,0,1-1-2.81,6.55,6.55,0,0,1,.08-3.17,6,6,0,0,1,1.65-2.75,7.48,7.48,0,0,1,2.66-1.63,15.1,15.1,0,0,1,5.8-.81,19.71,19.71,0,0,1,2.87.33c.94.17,1.79.36,2.69.5a21.77,21.77,0,0,0,5.24.37,6.83,6.83,0,0,0,4.42-1.71,6.12,6.12,0,0,0,1.7-4.35,37.35,37.35,0,0,0-.47-5.34,15.36,15.36,0,0,1,.12-5.8,7.27,7.27,0,0,1,.56-1.44,6.42,6.42,0,0,1,.37-.68l.45-.63a7.59,7.59,0,0,1,2.41-1.93,12.35,12.35,0,0,1,5.74-1.07,28.07,28.07,0,0,1,5.59.75,34.9,34.9,0,0,0,5.32.87,12.08,12.08,0,0,0,5.17-.59,6.32,6.32,0,0,0,3.59-3.42c.76-1.58,1.14-3.45,2.2-5.09a7.67,7.67,0,0,1,4.6-3.2,15.22,15.22,0,0,1,5.54-.25,34.1,34.1,0,0,1,5.4,1.14,34.49,34.49,0,0,0-5.42-.84,14.86,14.86,0,0,0-5.37.46,7,7,0,0,0-4.11,3.09c-.9,1.51-1.2,3.33-1.94,5.09a7.34,7.34,0,0,1-4.07,4.06,9.92,9.92,0,0,1-2.81.71,16,16,0,0,1-2.85.1,36.38,36.38,0,0,1-5.54-.76,27.6,27.6,0,0,0-5.32-.59,10.93,10.93,0,0,0-5,1,6.21,6.21,0,0,0-1.83,1.5l-.35.49c-.11.16-.18.35-.28.53a6,6,0,0,0-.42,1.12,14,14,0,0,0,0,5.13,38.55,38.55,0,0,1,.53,5.61,8,8,0,0,1-2.21,5.63,8.73,8.73,0,0,1-5.58,2.29,24.55,24.55,0,0,1-5.71-.35c-.91-.14-1.86-.34-2.72-.48a19,19,0,0,0-2.6-.28,13.13,13.13,0,0,0-5,.63,4.74,4.74,0,0,0-3.17,3.09,6.36,6.36,0,0,0,.79,4.61c.77,1.56,1.83,3.08,2.68,4.81a12.16,12.16,0,0,1,1,2.81,7.15,7.15,0,0,1-.08,3.12,6.74,6.74,0,0,1-1.51,2.75,8.5,8.5,0,0,1-2.42,1.83,14.57,14.57,0,0,1-5.6,1.54,18.44,18.44,0,0,1-2.88,0c-.93-.07-1.85-.17-2.76-.27a36.23,36.23,0,0,0-5.38-.29,10.23,10.23,0,0,0-4.94,1.34c-2.94,1.7-4.24,5.68-3.31,9A7.7,7.7,0,0,0,100,140.8c.52.7,1.17,1.34,1.8,2a7.72,7.72,0,0,1,1.58,2.39,4.61,4.61,0,0,1,.09,2.89,5.47,5.47,0,0,1-1.59,2.35,11,11,0,0,1-2.29,1.6A19.49,19.49,0,0,1,94.33,153.82Z"/>
              <path class="bd1eb232-8fbc-40bd-a1d1-2d5ab88cae98" d="M58.25,202a15,15,0,0,0,4.22,15.34c4.16,3.72,10.23,4.43,14.86,8.4a12.16,12.16,0,0,1,2.82,3.55,16.93,16.93,0,0,1,1.49,4.23,72.15,72.15,0,0,1,1,8.59,21.75,21.75,0,0,0,2,7.85,8.19,8.19,0,0,0,5.79,4.62c1.29.29,2.7.4,4.16.62a10.38,10.38,0,0,1,4.4,1.58,7.2,7.2,0,0,1,2.75,4,11.69,11.69,0,0,1,.29,4.62c-.38,3.07-1.73,5.68-2.56,8.32a15.34,15.34,0,0,0-.81,4,9.44,9.44,0,0,0,.62,3.85,11.16,11.16,0,0,0,5.25,5.83,9.71,9.71,0,0,0,3.84,1.06,18.11,18.11,0,0,0,4.12-.34c1.39-.24,2.8-.54,4.24-.7a15.84,15.84,0,0,1,2.18-.1,8.81,8.81,0,0,1,2.18.38,8,8,0,0,1,3.64,2.35,4.16,4.16,0,0,1,.93,4,4,4,0,0,0-1.15-3.84,7.83,7.83,0,0,0-5.6-2.29,16.29,16.29,0,0,0-2.08.21c-1.38.22-2.74.59-4.15.91a18.37,18.37,0,0,1-4.35.53,10.91,10.91,0,0,1-4.38-1A12.45,12.45,0,0,1,97.89,282a11,11,0,0,1-.84-4.5,16.94,16.94,0,0,1,.81-4.41c.85-2.79,2.08-5.38,2.34-8a10.14,10.14,0,0,0-.25-3.86,5.3,5.3,0,0,0-2-2.91,8.4,8.4,0,0,0-3.59-1.22c-1.35-.21-2.8-.31-4.29-.63a9.76,9.76,0,0,1-4.23-2A11.2,11.2,0,0,1,83,250.82a23.2,23.2,0,0,1-2.19-8.59,68.33,68.33,0,0,0-.84-8.38,12.45,12.45,0,0,0-3.64-7c-4-3.69-10.14-4.7-14.48-8.83A15.22,15.22,0,0,1,58.25,202Z"/>
              <path class="bd1eb232-8fbc-40bd-a1d1-2d5ab88cae98" d="M44,209.06c0,1.34,0,2.58.07,3.81a30.73,30.73,0,0,0,.4,3.6,31.45,31.45,0,0,0,.79,3.53c.33,1.18.74,2.36,1.16,3.63a8.89,8.89,0,0,1-2.6-3,12,12,0,0,1-1.3-7.85A9,9,0,0,1,44,209.06Z"/>
              <path class="bd1eb232-8fbc-40bd-a1d1-2d5ab88cae98" d="M45,184a7.2,7.2,0,0,1-.54-3,9.71,9.71,0,0,1,2-5.67,7.06,7.06,0,0,1,2.3-2c-.28,1-.62,1.89-.93,2.77l-.92,2.57L46,181.23C45.64,182.11,45.36,183,45,184Z"/>
              <path class="bd1eb232-8fbc-40bd-a1d1-2d5ab88cae98" d="M261.88,265a21.19,21.19,0,0,1,6.05-7c2.45-1.93,5-3.62,7.39-5.52a15.35,15.35,0,0,0,5.27-6.79,16.06,16.06,0,0,0,.44-2.06,19.62,19.62,0,0,0,.09-2.2,18.62,18.62,0,0,1,.4-4.85,8.73,8.73,0,0,1,2.82-4.28,14.61,14.61,0,0,1,4.25-2.48c3-1.14,6.09-1.58,8.87-2.61a14.1,14.1,0,0,0,9-14.09,13.91,13.91,0,0,1-1.41,9.14,14.54,14.54,0,0,1-2.93,3.79,14.18,14.18,0,0,1-4.07,2.6c-2.94,1.29-6.05,1.78-8.75,2.93s-5.18,2.92-5.85,5.53a17,17,0,0,0-.38,4.33,19.94,19.94,0,0,1-.12,2.41,14.65,14.65,0,0,1-.57,2.44,13.18,13.18,0,0,1-2.55,4.23,19.6,19.6,0,0,1-1.7,1.71c-.61.51-1.23,1-1.86,1.48-2.54,1.86-5.23,3.37-7.76,5.08A22.6,22.6,0,0,0,261.88,265Z"/>
              <path class="bd1eb232-8fbc-40bd-a1d1-2d5ab88cae98" d="M322.31,203.94a5.29,5.29,0,0,1,2.55,2.9,8.86,8.86,0,0,1,.41,4,13.39,13.39,0,0,1-1,3.86,18.66,18.66,0,0,1-2,3.41A45.93,45.93,0,0,0,318,224.3a10.18,10.18,0,0,0-1,3.33,18,18,0,0,0,.11,3.64,15.58,15.58,0,0,1-.07,4.08,8.77,8.77,0,0,1-1.79,3.87,16,16,0,0,1-6.63,4.54c-2.46,1-4.93,1.57-7.29,2.49a14.65,14.65,0,0,0-6.29,4.07,13.45,13.45,0,0,1,5.9-5c2.33-1.15,4.81-2,7.05-3a15.31,15.31,0,0,0,5.76-4.27,7,7,0,0,0,1.36-3.05,13.8,13.8,0,0,0,0-3.58,19.83,19.83,0,0,1-.06-4,11.38,11.38,0,0,1,1.28-4,39.9,39.9,0,0,1,4.63-6.32,18.84,18.84,0,0,0,2.11-3,12.64,12.64,0,0,0,1.24-3.44,8.33,8.33,0,0,0,0-3.65A5.34,5.34,0,0,0,322.31,203.94Z"/>
              <path class="bd1eb232-8fbc-40bd-a1d1-2d5ab88cae98" d="M283.67,283.52a21.6,21.6,0,0,1,7.28-3.41,68.82,68.82,0,0,0,7.52-2.4,13.66,13.66,0,0,0,3.16-2,9,9,0,0,0,2.12-2.89c1-2.23,1.2-5,2.39-7.64a13.17,13.17,0,0,1,6.12-5.87,44.27,44.27,0,0,1,7.66-2.76,29.54,29.54,0,0,0,7.23-2.95,10.47,10.47,0,0,0,5-5.83,8.56,8.56,0,0,1-1.5,3.75,13.12,13.12,0,0,1-2.91,2.9,27.79,27.79,0,0,1-7.3,3.62,49.2,49.2,0,0,0-7.26,2.95,11.25,11.25,0,0,0-5.18,5c-1.07,2.19-1.27,4.94-2.5,7.58a10.73,10.73,0,0,1-2.69,3.43,13.61,13.61,0,0,1-3.71,2.07C293.84,281.06,288.4,280.88,283.67,283.52Z"/>
              <path class="bd1eb232-8fbc-40bd-a1d1-2d5ab88cae98" d="M337.21,220.12c2.24-1.25,4.58-2.51,6.07-4.47s2-4.62.61-6.41c-.66-.94-1.68-1.77-2.47-3a7.68,7.68,0,0,1-1.17-4.16,13.33,13.33,0,0,1,3-7.65,43.67,43.67,0,0,1,5.68-5.49,21.51,21.51,0,0,0,4.9-5.53,13.32,13.32,0,0,0,1.44-7.12,49.91,49.91,0,0,0-1.1-7.6,35.38,35.38,0,0,1,2.08,7.51,13.75,13.75,0,0,1-1,7.92,21.46,21.46,0,0,1-5,6.23,43.38,43.38,0,0,0-5.36,5.3,11.7,11.7,0,0,0-2.68,6.47,5.91,5.91,0,0,0,.77,3.2c.57,1,1.53,1.86,2.29,3.08a5.66,5.66,0,0,1,.74,4.23,7.74,7.74,0,0,1-1.91,3.66A16.62,16.62,0,0,1,337.21,220.12Z"/>
              <path class="bd1eb232-8fbc-40bd-a1d1-2d5ab88cae98" d="M360.55,216.39A15.92,15.92,0,0,1,356,230.18a68.74,68.74,0,0,1-5.79,4.59c-1.85,1.44-3.36,3.17-3.66,5.27s.42,4.41.88,6.88a15.21,15.21,0,0,1,.2,3.88,13.35,13.35,0,0,1-.91,3.76,14.94,14.94,0,0,1-4.42,6.13,13.08,13.08,0,0,1-6.76,2.95,14.77,14.77,0,0,0,9.71-9.6,13.92,13.92,0,0,0,.63-3.37,13,13,0,0,0-.31-3.39c-.24-1.15-.56-2.33-.8-3.58a11.62,11.62,0,0,1-.19-4,8.39,8.39,0,0,1,1.66-3.75,13.76,13.76,0,0,1,2.81-2.7c2-1.51,4.14-2.71,5.89-4.23A17,17,0,0,0,360.55,216.39Z"/>
              <path class="bd1eb232-8fbc-40bd-a1d1-2d5ab88cae98" d="M248.93,74.43a16.88,16.88,0,0,1,11.5-.19,17.66,17.66,0,0,1,5.21,2.85,18.79,18.79,0,0,1,3.93,4.48A25.16,25.16,0,0,0,273,86a6.45,6.45,0,0,0,4.51,2,7.14,7.14,0,0,0,2.44-.69,14.75,14.75,0,0,1,1.43-.54,7.61,7.61,0,0,1,1.64-.28,8.8,8.8,0,0,1,6,2,9.72,9.72,0,0,1,3.45,5.29,7.36,7.36,0,0,1,.06,3.27,9.78,9.78,0,0,1-1.13,2.94c-1,1.76-2.14,3.3-2.56,4.92s-.23,3.52,1,4.34,3.19.46,5.08.17a10.37,10.37,0,0,1,3.06-.1,7.58,7.58,0,0,1,2.88,1.13,9.26,9.26,0,0,1,2.18,2.1,9.9,9.9,0,0,1,1.35,2.65,8.87,8.87,0,0,1,.37,2.93,7.15,7.15,0,0,1-.88,2.77,6.89,6.89,0,0,0,.57-2.78,8.26,8.26,0,0,0-.56-2.74,9.45,9.45,0,0,0-1.44-2.36,8.34,8.34,0,0,0-2.11-1.74,6.68,6.68,0,0,0-2.51-.82,9.25,9.25,0,0,0-2.68.25,22.71,22.71,0,0,1-2.92.51,5.14,5.14,0,0,1-3.24-.66,4.43,4.43,0,0,1-1.94-2.82,7.41,7.41,0,0,1,.06-3.25c.53-2.15,1.76-3.75,2.58-5.39a6.49,6.49,0,0,0,.85-4.87A7.87,7.87,0,0,0,287.77,90a6.94,6.94,0,0,0-4.67-1.6,6.37,6.37,0,0,0-1.21.2c-.4.12-.82.28-1.27.46a8.51,8.51,0,0,1-3.1.8,8.23,8.23,0,0,1-5.77-2.59,24.14,24.14,0,0,1-3.49-4.84,17.64,17.64,0,0,0-3.46-4.32,16.8,16.8,0,0,0-4.72-2.94A17.16,17.16,0,0,0,248.93,74.43Z"/>
              <path class="bd1eb232-8fbc-40bd-a1d1-2d5ab88cae98" d="M313.68,139.71a9.13,9.13,0,0,1,3.79,0,12,12,0,0,1,3.57,1.34,11.88,11.88,0,0,1,3,2.38A9.15,9.15,0,0,1,326,146.7c-1.06-.72-2-1.43-3-2.08s-1.94-1.26-2.94-1.82-2-1.1-3.06-1.59S314.84,140.25,313.68,139.71Z"/>
              <path class="bd1eb232-8fbc-40bd-a1d1-2d5ab88cae98" d="M320.12,123.42a7.4,7.4,0,0,1,2.75,1,10.75,10.75,0,0,1,4,4.06,7.68,7.68,0,0,1,.92,2.77,21.21,21.21,0,0,1-2.17-1.81c-.66-.62-1.29-1.23-1.9-1.86s-1.23-1.27-1.83-1.94A21.38,21.38,0,0,1,320.12,123.42Z"/>
              <path class="bd1eb232-8fbc-40bd-a1d1-2d5ab88cae98" d="M286.07,72.32c4.78,2,10,1.73,14.95,4a14.31,14.31,0,0,1,3.41,2.18,10.64,10.64,0,0,1,2.63,3.23,8.33,8.33,0,0,1,.9,4.19,18.64,18.64,0,0,1-.74,4,14.89,14.89,0,0,0-.68,3.54,5.54,5.54,0,0,0,.73,3.12,3,3,0,0,0,2.5,1.36,15,15,0,0,0,3.55-.56,9.79,9.79,0,0,1,4.1-.29A7.07,7.07,0,0,1,321,99a7.92,7.92,0,0,1,2,3.46,6.16,6.16,0,0,1-.2,3.87,6.76,6.76,0,0,0-2.47-6.6,5.86,5.86,0,0,0-3.15-1.41,8.74,8.74,0,0,0-3.5.5,14.12,14.12,0,0,1-4,.8,4.82,4.82,0,0,1-4-2c-1.74-2.68-1.09-5.84-.41-8.23a17.3,17.3,0,0,0,.72-3.56,6.66,6.66,0,0,0-.65-3.25,11.59,11.59,0,0,0-5-4.87C296,75.38,290.52,75,286.07,72.32Z"/>
              <path class="bd1eb232-8fbc-40bd-a1d1-2d5ab88cae98" d="M239.67,68.14a16.15,16.15,0,0,1,6.54-4.3,20.56,20.56,0,0,1,15.61.64A16.13,16.13,0,0,1,268,69.32a26.49,26.49,0,0,0-6.74-3.39A26,26,0,0,0,254,64.62a26.3,26.3,0,0,0-7.33.7A26.84,26.84,0,0,0,239.67,68.14Z"/>
              <path class="bd1eb232-8fbc-40bd-a1d1-2d5ab88cae98" d="M215.5,38.39a52.4,52.4,0,0,1,6.55-5.69,28.66,28.66,0,0,1,3.79-2.25A19.06,19.06,0,0,1,230.07,29a14.28,14.28,0,0,1,4.57-.15A17.48,17.48,0,0,1,239,30.13a30.1,30.1,0,0,0,3.9,1.44,7.72,7.72,0,0,0,3.79,0c2.53-.64,4.81-2.36,7.18-4a32.33,32.33,0,0,1,3.78-2.32A11.11,11.11,0,0,1,262.05,24a10,10,0,0,1,4.52.76,22,22,0,0,1,3.88,2.14c2.39,1.63,4.66,3.38,7.4,4.34-2.88-.52-5.4-2.18-7.91-3.5s-5.13-2.55-7.75-2.19-5,1.93-7.25,3.6-4.69,3.56-7.79,4.4a9.67,9.67,0,0,1-4.75-.07,27.23,27.23,0,0,1-4.16-1.59,15.62,15.62,0,0,0-3.87-1.3,13.94,13.94,0,0,0-4-.05,22.67,22.67,0,0,0-7.76,3c-1.24.71-2.43,1.49-3.61,2.31S216.65,37.53,215.5,38.39Z"/>
              <path class="bd1eb232-8fbc-40bd-a1d1-2d5ab88cae98" d="M207.28,23a11.66,11.66,0,0,1,2.9-.58,19.32,19.32,0,0,1,5.68.4,11.65,11.65,0,0,1,2.79,1,11.66,11.66,0,0,1-2.9.58,18.21,18.21,0,0,1-2.86,0,18.11,18.11,0,0,1-2.82-.42A11.61,11.61,0,0,1,207.28,23Z"/>
              <path class="bd1eb232-8fbc-40bd-a1d1-2d5ab88cae98" d="M20.48,125.83a19.36,19.36,0,0,1,5.38-3,24.92,24.92,0,0,1,6-1.45,24.35,24.35,0,0,1,6.21.11,19.34,19.34,0,0,1,5.9,1.77c-2.06-.11-4-.22-6-.22s-3.92.13-5.87.33a58.09,58.09,0,0,0-5.81,1C24.38,124.73,22.46,125.27,20.48,125.83Z"/>
              <path class="bd1eb232-8fbc-40bd-a1d1-2d5ab88cae98" d="M92.72,44a16.77,16.77,0,0,1,3.9,1.47,25.3,25.3,0,0,1,3.51,2.17,24.25,24.25,0,0,1,3.1,2.72,16.8,16.8,0,0,1,2.53,3.3,32.87,32.87,0,0,1-3.53-2.1c-1.13-.75-2.22-1.52-3.29-2.31s-2.13-1.62-3.17-2.48A31.41,31.41,0,0,1,92.72,44Z"/>
              <path class="bd1eb232-8fbc-40bd-a1d1-2d5ab88cae98" d="M336.46,78A22,22,0,0,1,340,73.88a31.16,31.16,0,0,1,4.29-3.3,30.48,30.48,0,0,1,4.82-2.48,21.41,21.41,0,0,1,5.22-1.45c-1.51,1-3,1.93-4.52,2.85l-4.44,2.77L341,75.11C339.49,76.07,338,77.05,336.46,78Z"/>
              <path class="bd1eb232-8fbc-40bd-a1d1-2d5ab88cae98" d="M345.39,281.85a26.67,26.67,0,0,1,6.43.42,34.16,34.16,0,0,1,12,4.58,25.67,25.67,0,0,1,5.08,4l-5.8-2.59c-1.92-.83-3.84-1.64-5.79-2.37s-3.9-1.42-5.89-2.08Z"/>
              <path class="bd1eb232-8fbc-40bd-a1d1-2d5ab88cae98" d="M91.89,314.21c-1.32,1.81-2.57,3.58-3.69,5.42a48.93,48.93,0,0,0-3,5.69,48.17,48.17,0,0,0-2.23,6c-.62,2.06-1.11,4.17-1.56,6.36a20.7,20.7,0,0,1,0-6.71,26.92,26.92,0,0,1,1.93-6.49,26.45,26.45,0,0,1,3.54-5.77A20.89,20.89,0,0,1,91.89,314.21Z"/>
              <path class="bd1eb232-8fbc-40bd-a1d1-2d5ab88cae98" d="M35.83,243c-4,3-8.6,5.26-12.59,8.24a28,28,0,0,0-5.42,5,19,19,0,0,0-3.42,6.35,13.7,13.7,0,0,0-.62,3.51,10.3,10.3,0,0,0,.35,3.46A9.33,9.33,0,0,0,18,275a9.7,9.7,0,0,0,6.5,1.66,9.94,9.94,0,0,0,6-3,8.16,8.16,0,0,0,1.82-2.79,5.65,5.65,0,0,0,.32-3.15,3.37,3.37,0,0,0-1.69-2.3,8.18,8.18,0,0,0-3.22-.83,26.28,26.28,0,0,0-14.09,2.87,18.26,18.26,0,0,0-9.2,10.8,16,16,0,0,0,2.05,14.16,14.12,14.12,0,0,1-3.23-6.79A17.92,17.92,0,0,1,3.55,278,18.19,18.19,0,0,1,7,271.08a21,21,0,0,1,5.94-5,27.33,27.33,0,0,1,15-3.38,9.33,9.33,0,0,1,4,1,5.34,5.34,0,0,1,2.66,3.56A8.81,8.81,0,0,1,32,275.05a11.91,11.91,0,0,1-7.23,3.54,11.45,11.45,0,0,1-7.78-2A11.21,11.21,0,0,1,12.43,270a12.09,12.09,0,0,1-.32-4,15.33,15.33,0,0,1,.81-3.87,18.21,18.21,0,0,1,1.63-3.56,19.6,19.6,0,0,1,2.27-3.16,29,29,0,0,1,5.86-4.94C27,247.66,31.53,245.59,35.83,243Z"/>
              <path class="bd1eb232-8fbc-40bd-a1d1-2d5ab88cae98" d="M290.1,38.31a35.14,35.14,0,0,1,18.77-23.4,8.74,8.74,0,0,1,4.09-.8,9.69,9.69,0,0,1,3.94,1.32,14.35,14.35,0,0,1,5.71,5.67,10.31,10.31,0,0,1,.73,8.16,8.76,8.76,0,0,1-2.3,3.59,8,8,0,0,1-3.85,1.93,10.78,10.78,0,0,1-10.84-5,12,12,0,0,1-1.48-3.85,16.6,16.6,0,0,1,.53-8,20.6,20.6,0,0,1,3.73-7,25.16,25.16,0,0,1,13-8.34,23.7,23.7,0,0,1,15.14.89c-9.74-3.25-20.93.59-26.9,8.41a20,20,0,0,0-3.28,6.51,14.81,14.81,0,0,0-.36,7.11A11,11,0,0,0,308,28.8a8.46,8.46,0,0,0,2.34,2.47,8.65,8.65,0,0,0,6.47,1.55,6,6,0,0,0,2.89-1.42,6.75,6.75,0,0,0,1.79-2.78,8.49,8.49,0,0,0-.55-6.65,12.76,12.76,0,0,0-4.91-5,8.14,8.14,0,0,0-3.22-1.16,7.11,7.11,0,0,0-3.35.57,31.39,31.39,0,0,0-6.4,3.76,37,37,0,0,0-13,18.2Z"/>
              <path class="bd1eb232-8fbc-40bd-a1d1-2d5ab88cae98" d="M365.05,154.8a15,15,0,0,1,1.56-10.44,22.7,22.7,0,0,1,7.24-8,19.31,19.31,0,0,1,4.95-2.43,16.06,16.06,0,0,1,5.53-.87,11.16,11.16,0,0,1,5.51,1.65,6.67,6.67,0,0,1,3.32,5,3.69,3.69,0,0,1-1.46,3.15,3.82,3.82,0,0,1-1.64.69,5.62,5.62,0,0,1-1.64,0,7.15,7.15,0,0,1-2.82-1.18,6.57,6.57,0,0,1-1.16-1,10.83,10.83,0,0,1-.89-1.16,11.27,11.27,0,0,1-1.85-5.39,13.79,13.79,0,0,1,3.45-10.37,16.36,16.36,0,0,1,4.31-3.38,21.66,21.66,0,0,1,10.35-2.47,27.21,27.21,0,0,0-5.16,1.09,20.18,20.18,0,0,0-4.69,2.22,13.88,13.88,0,0,0-6.11,7.81,11.13,11.13,0,0,0,1.26,9.42c.21.34.5.61.74.93a5.8,5.8,0,0,0,.84.72,5.17,5.17,0,0,0,2,.84,2.36,2.36,0,0,0,1.79-.33,1.78,1.78,0,0,0,.65-1.48,4,4,0,0,0-.73-1.93,5.85,5.85,0,0,0-.74-.83c-.28-.24-.62-.47-.92-.71a9.61,9.61,0,0,0-4.54-1.4,17.16,17.16,0,0,0-9.54,2.72,22.66,22.66,0,0,0-7.24,7.21A15.2,15.2,0,0,0,365.05,154.8Z"/>
              <path class="bd1eb232-8fbc-40bd-a1d1-2d5ab88cae98" d="M24.41,69.32A11.68,11.68,0,0,0,27.6,80.45a9.64,9.64,0,0,0,5.13,2.63,11.1,11.1,0,0,0,5.71-.58A10,10,0,0,0,41,81.13a8.74,8.74,0,0,0,2-2,9.36,9.36,0,0,0,1.73-5.29,9.77,9.77,0,0,0-1.39-5.37,5.33,5.33,0,0,0-1.78-1.89,3.1,3.1,0,0,0-2.27-.29A4.53,4.53,0,0,0,37,67.5a5.29,5.29,0,0,0-1.3,2.23,11,11,0,0,0,.05,5.61A17.34,17.34,0,0,0,42.12,85c6.25,5,16.12,4.41,22.25-1.21a17.79,17.79,0,0,1-11,5.55A17.26,17.26,0,0,1,41.2,86.24a18.57,18.57,0,0,1-7.27-10.45,12.62,12.62,0,0,1-.08-6.63,7.25,7.25,0,0,1,1.78-3.07,6.52,6.52,0,0,1,3.15-1.75,5,5,0,0,1,3.71.54,7.28,7.28,0,0,1,2.44,2.57,11.41,11.41,0,0,1,1.62,6.46,11.28,11.28,0,0,1-2.21,6.26A11.06,11.06,0,0,1,39,84a12.24,12.24,0,0,1-6.49.4,10.78,10.78,0,0,1-5.57-3.23A11.89,11.89,0,0,1,24.41,69.32Z"/>
            </g>
          </g>
        </g>
      </g>
    </g>
  </g>
</svg>
