<svg xmlns="http://www.w3.org/2000/svg" width="552" height="86" viewBox="0 0 552 86">
  <defs>
    <style>
      .bf997777-a1fd-4e96-915d-9321b1f17c2d {
        fill: #fff;
      }
    </style>
  </defs>
  <g id="f38c1a7c-2743-47ec-a90d-c342fa1763b9" data-name="Layer 2">
    <g>
      <rect class="bf997777-a1fd-4e96-915d-9321b1f17c2d" x="1" y="0.5" width="550" height="85" rx="12"/>
      <g>
        <path d="M48.9,17.77a72.86,72.86,0,0,1,11.82-.84c5.58,0,9,.54,11.94,2.28a8.8,8.8,0,0,1,4.86,7.92c0,3.6-2.1,7-6.66,8.64v.12c4.62,1.26,8,4.74,8,10a10.77,10.77,0,0,1-4.2,8.58c-2.94,2.34-7.86,3.66-15.9,3.66a70.75,70.75,0,0,1-9.9-.6ZM58,33.25h3c4.8,0,7.38-2,7.38-5S66,23.59,61.86,23.59a25,25,0,0,0-3.9.24Zm0,17.94a28.85,28.85,0,0,0,3.54.12c4.14,0,7.8-1.56,7.8-5.82,0-4.08-3.66-5.7-8.22-5.7H58Z"/>
        <path d="M84.84,38c0-4.32-.12-7.14-.24-9.66h7.86l.3,5.4H93a8.62,8.62,0,0,1,7.92-6.06,9.4,9.4,0,0,1,1.92.12v8.58a13.07,13.07,0,0,0-2.46-.24c-3.36,0-5.64,1.8-6.24,4.62a10.75,10.75,0,0,0-.18,2V57.67H84.84Z"/>
        <path d="M135.12,48.25c0,3.84.12,7,.24,9.42h-7.92L127,53.53h-.18a10.47,10.47,0,0,1-9.18,4.8c-5.94,0-10.32-3.72-10.32-12.78V28.33h9.18V44.11c0,4.26,1.38,6.84,4.56,6.84a4.91,4.91,0,0,0,4.56-3.18,5.09,5.09,0,0,0,.3-2V28.33h9.18Z"/>
        <path d="M142.38,49.69a17.83,17.83,0,0,0,7.86,2.22c2.76,0,3.9-1,3.9-2.46s-.9-2.22-4.32-3.36c-6.06-2-8.4-5.34-8.34-8.82,0-5.46,4.68-9.6,11.94-9.6a19.68,19.68,0,0,1,8.28,1.68l-1.62,6.3A14.4,14.4,0,0,0,153.72,34c-2.22,0-3.48.9-3.48,2.4s1.14,2.1,4.74,3.36c5.58,1.92,7.92,4.74,8,9.06,0,5.46-4.32,9.48-12.72,9.48a20.77,20.77,0,0,1-9.48-2Z"/>
        <path d="M168.48,15.07h9.12V31.81h.12a11,11,0,0,1,3.6-3,10.24,10.24,0,0,1,4.74-1.14c5.82,0,10.26,4,10.26,12.84V57.67H187.2V41.53c0-3.84-1.32-6.48-4.74-6.48a4.85,4.85,0,0,0-4.56,3.18,5.8,5.8,0,0,0-.3,2v17.4h-9.12Z"/>
        <path d="M222.6,28.33,227,42.73c.48,1.74,1.08,3.9,1.44,5.46h.18c.42-1.56.9-3.78,1.32-5.46l3.6-14.4h9.78l-6.84,19.32c-4.2,11.64-7,16.32-10.32,19.26a16.81,16.81,0,0,1-8.82,4l-1.92-7.74a11.5,11.5,0,0,0,4-1.56A10.48,10.48,0,0,0,223.14,58a2.38,2.38,0,0,0,.48-1.32,3.31,3.31,0,0,0-.42-1.5L212.46,28.33Z"/>
        <path d="M275.22,42.67c0,10.74-7.62,15.66-15.48,15.66-8.58,0-15.18-5.64-15.18-15.12s6.24-15.54,15.66-15.54C269.22,27.67,275.22,33.85,275.22,42.67ZM254,43c0,5,2.1,8.82,6,8.82,3.54,0,5.82-3.54,5.82-8.82,0-4.38-1.68-8.82-5.82-8.82C255.6,34.15,254,38.65,254,43Z"/>
        <path d="M308.52,48.25c0,3.84.12,7,.24,9.42h-7.92l-.42-4.14h-.18a10.47,10.47,0,0,1-9.18,4.8c-5.94,0-10.32-3.72-10.32-12.78V28.33h9.18V44.11c0,4.26,1.38,6.84,4.56,6.84A4.91,4.91,0,0,0,299,47.77a5.09,5.09,0,0,0,.3-2V28.33h9.18Z"/>
        <path d="M315.84,38c0-4.32-.12-7.14-.24-9.66h7.86l.3,5.4H324a8.62,8.62,0,0,1,7.92-6.06,9.4,9.4,0,0,1,1.92.12v8.58a13.07,13.07,0,0,0-2.46-.24c-3.36,0-5.64,1.8-6.24,4.62a10.75,10.75,0,0,0-.18,2V57.67h-9.12Z"/>
        <path d="M361,19.93v8.4h6.54v6.72H361V45.67c0,3.54.84,5.16,3.6,5.16a14.89,14.89,0,0,0,2.7-.24l.06,6.9a17.89,17.89,0,0,1-5.94.78,9.49,9.49,0,0,1-6.84-2.52C352.86,54,352,51.19,352,47.05v-12h-3.9V28.33H352V22Z"/>
        <path d="M379.5,45.91c.3,3.78,4,5.58,8.28,5.58a25.84,25.84,0,0,0,8.1-1.2l1.2,6.18a29,29,0,0,1-10.62,1.8c-10,0-15.66-5.76-15.66-14.94,0-7.44,4.62-15.66,14.82-15.66,9.48,0,13.08,7.38,13.08,14.64a21.67,21.67,0,0,1-.3,3.6Zm10.74-6.24c0-2.22-1-5.94-5.16-5.94-3.84,0-5.4,3.48-5.64,5.94Z"/>
        <path d="M411.18,45.91c.3,3.78,4,5.58,8.28,5.58a25.84,25.84,0,0,0,8.1-1.2l1.2,6.18a29,29,0,0,1-10.62,1.8c-10,0-15.66-5.76-15.66-14.94,0-7.44,4.62-15.66,14.82-15.66,9.48,0,13.08,7.38,13.08,14.64a21.67,21.67,0,0,1-.3,3.6Zm10.74-6.24c0-2.22-1-5.94-5.16-5.94-3.84,0-5.4,3.48-5.64,5.94Z"/>
        <path d="M446,19.93v8.4h6.54v6.72H446V45.67c0,3.54.84,5.16,3.6,5.16a14.89,14.89,0,0,0,2.7-.24l.06,6.9a17.89,17.89,0,0,1-5.94.78,9.49,9.49,0,0,1-6.84-2.52c-1.68-1.74-2.52-4.56-2.52-8.7v-12h-3.9V28.33h3.9V22Z"/>
        <path d="M457.86,15.07H467V31.81h.12a11,11,0,0,1,3.6-3,10.24,10.24,0,0,1,4.74-1.14c5.82,0,10.26,4,10.26,12.84V57.67h-9.12V41.53c0-3.84-1.32-6.48-4.74-6.48a4.85,4.85,0,0,0-4.56,3.18,5.8,5.8,0,0,0-.3,2v17.4h-9.12Z"/>
        <path d="M492.36,52.81a5.28,5.28,0,0,1,5.4-5.58c3.18,0,5.34,2.28,5.34,5.58a5.37,5.37,0,1,1-10.74,0Z"/>
      </g>
    </g>
  </g>
</svg>
