<svg xmlns="http://www.w3.org/2000/svg" xmlns:xlink="http://www.w3.org/1999/xlink" width="198.99" height="136.69" viewBox="0 0 198.99 136.69">
  <defs>
    <style>
      .a097210c-f495-41d2-9f35-c9ca364a6703 {
        fill: none;
      }

      .a097210c-f495-41d2-9f35-c9ca364a6703, .e84fa32d-acf6-436b-b306-1e184bde5a46 {
        stroke: #323232;
      }

      .a097210c-f495-41d2-9f35-c9ca364a6703, .b465ec66-c787-4711-a2f7-94dec1e1a774, .e84fa32d-acf6-436b-b306-1e184bde5a46 {
        stroke-miterlimit: 10;
      }

      .ba4312a7-43e7-4d9f-8493-705a392151c7 {
        isolation: isolate;
      }

      .e0ecb40e-c33c-497d-a7a4-225975aec971 {
        fill: #fff;
      }

      .b465ec66-c787-4711-a2f7-94dec1e1a774, .b65d6f7a-4309-42de-a208-3776cd195644 {
        fill: #ff9d83;
      }

      .b465ec66-c787-4711-a2f7-94dec1e1a774 {
        stroke: #8e8e8e;
      }

      .ad710ba9-73e0-4ceb-92f8-18c2a38a60be, .bb5dd8fe-5115-44c3-a0d9-133d5cdf8adf {
        fill: #f9f7f4;
      }

      .ea6928b6-8e3a-425b-aaf6-2b49456175a9 {
        fill: #ede8e4;
        opacity: 0.6;
      }

      .aee5ad41-baaf-4340-9c7c-e7ec12836856, .ea6928b6-8e3a-425b-aaf6-2b49456175a9 {
        mix-blend-mode: multiply;
      }

      .aee5ad41-baaf-4340-9c7c-e7ec12836856 {
        fill: #e5e4e3;
      }

      .f45e5c09-04d1-47c0-9878-c956dba91491 {
        fill: #ff5b22;
      }

      .bb5dd8fe-5115-44c3-a0d9-133d5cdf8adf {
        opacity: 0.5;
        mix-blend-mode: screen;
      }

      .ed63e978-d4e6-4832-97af-6df5fe09ab14 {
        fill: red;
      }

      .bccab7fb-fc9a-4b99-a0b2-10d4f3a6f517 {
        fill: #ffd2d2;
      }

      .e981632d-e564-43ac-b42f-6b1d5f966c7e {
        fill: #fff0f0;
      }

      .bf4b712f-3ecf-43ad-867e-ea7ba005c02e {
        fill: #d10000;
      }

      .a8fc5b6c-88cc-4ad5-a435-ba08450ae06e {
        clip-path: url(#b8e8675c-464c-49ec-a5e8-f16d3e7be442);
      }

      .e84fa32d-acf6-436b-b306-1e184bde5a46 {
        fill: #ffb6b6;
      }
    </style>
    <clipPath id="b8e8675c-464c-49ec-a5e8-f16d3e7be442">
      <path class="a097210c-f495-41d2-9f35-c9ca364a6703" d="M238.92,323.12l-2.17-4.43-1.62-3.42-.13-.16c-7.56-15.49-24-49.2-30-62.48-8-17.5-8.09-33.43-20-31.15-3.52.67-11,17.86-13.68,31s-15.11,42-19.13,53.83c-2.08,6.08-4.28,13.43-5.93,19.12h-.11l-.85,3.34c-1,3.57-1.66,5.94-1.66,5.94s7.24-.24,18,2.72l-.27,0-1.79,20.55s0-.09,0-.23l0,.23s-2,6.12,20,4.22c4.31-.37,8-.67,11.3-.89.71,8.68,1.66,20,2.05,24,.67,6.78-.22,18.15-.22,18.15s11.64-6.47,19.67-15.3c7.12-7.84,11.57-12.42,10.52-17,0,0,0,0,0,.06l0-.11v0l0-.1c-.18-1.12-.79-4.79-1.62-9.69l-.77-5.29s-.06-.12-.18-.31c-.28-1.66-.57-3.38-.87-5.14l-1.3-8.08-.1,0c-.38-2.15-.75-4.27-1.11-6.28,5.83-.82,13.29-2,16.48-3.13C238.93,331,240.94,327.07,238.92,323.12Z"/>
    </clipPath>
  </defs>
  <g class="ba4312a7-43e7-4d9f-8493-705a392151c7">
    <g id="a84c3bd0-47d5-4c8a-bde3-3d9eaee6c632" data-name="Layer 5">
      <g>
        <path class="e0ecb40e-c33c-497d-a7a4-225975aec971" d="M9.27,134.77c-1.67,0-4.67-.68-6.11-5.23C1,122.75,9,116.2,10.82,114.79c4.52-5.41,4.62-9.61,4.59-10.45-2.18-8.66.83-13.55,3.77-15.71A3.72,3.72,0,0,1,21.24,86l.24-.11a3.13,3.13,0,0,1,.8-.49,3.22,3.22,0,0,1,.6-.19l.14-.06a3,3,0,0,1,.84-.52,2.88,2.88,0,0,1,.65-.2l.48-.23a3.16,3.16,0,0,1,1-.69,2.9,2.9,0,0,1,.91-.23l.5-.24a3,3,0,0,1,.73-.44,3.74,3.74,0,0,1,.54-.17l5.93-2.83c-.9-3.71-1.7-9.57,2.27-11.33L164.65,5.36a2.65,2.65,0,0,1,.55-.3l6.94-2.92a2.7,2.7,0,0,1,1.07-.22,2.75,2.75,0,0,1,2.53,1.67L196,50.82a2.75,2.75,0,0,1-1.47,3.62l-6.94,2.92-.15.06L52.57,104.94a4.55,4.55,0,0,1-1.64.31c-2.56,0-5.23-2.16-8.11-6.58l-4.56,1.66a2.8,2.8,0,0,1-.3.15,3,3,0,0,1-.6.18l-1,.36a3.18,3.18,0,0,1-1.88.69h0a3.29,3.29,0,0,1-1,.65,3.08,3.08,0,0,1-1,.24,3.11,3.11,0,0,1-1.19.88,3.5,3.5,0,0,1-.68.2,3.26,3.26,0,0,1-.91.57,2.7,2.7,0,0,1-.4.14c.59,8.16-3.19,14.3-5.39,16.09a9.38,9.38,0,0,0-1.46,1.45,9.86,9.86,0,0,1-1.3,1.33c-.45.37-1.38,1.3-2.15,2.1a10.65,10.65,0,0,1-4.28,7.26,13.67,13.67,0,0,1-1.43.94,8.73,8.73,0,0,1-2,.87l-.21.06A6.94,6.94,0,0,1,9.27,134.77Z"/>
        <path class="b465ec66-c787-4711-a2f7-94dec1e1a774" d="M166.26,7.6l7,16.43-7-16.4L38.06,70.74c-2,.84-1.67,5.14-.17,10.33l-.13.06h0l-8.3,4a.42.42,0,0,0-.22,0,.41.41,0,0,0-.2.19l-1.58.75a.44.44,0,0,0-.37,0,.39.39,0,0,0-.24.33l-1.65.78a.4.4,0,0,0-.5.24l-1.1.53a.43.43,0,0,0-.25,0,.41.41,0,0,0-.22.21l-.7.34A1,1,0,0,0,22,89.7l2.36,5.51c-1.09-2.5-2.21-5.1-2.19-5.07s-6.94,2.4-4,13.76c0,0,.72,5.72-5.41,12.91,0,0-8.7,6.35-6.94,11.9,1.07,3.37,3.09,3.61,4.78,3.08h0a6.56,6.56,0,0,0,1.38-.62,13.36,13.36,0,0,0,1.14-.75,7.67,7.67,0,0,0,3.22-6.22s2.15-2.26,3.11-3.06,1.09-1.42,2.78-2.8,6.14-8.3,3.74-17.61a.72.72,0,0,1,.3-1l.39.92a1,1,0,0,0,1.24.53l.12,0,.14.36a.4.4,0,0,0,.54.22h0a.4.4,0,0,0,.22-.51l-.13-.35.87-.32.08.19a.4.4,0,0,0,.75-.29l-.06-.18,1.53-.56a.41.41,0,0,0,.48.13.4.4,0,0,0,.24-.39l1.53-.56a.42.42,0,0,0,.38,0h0a.41.41,0,0,0,.22-.26l1.92-.7a.29.29,0,0,0,.18,0,.41.41,0,0,0,.13-.08l7-2.54c2.72,4.66,5.63,7.88,7.61,7L186.49,54.82l6.94-2.92L183.32,28.29,173.21,4.68Z"/>
        <g>
          <g>
            <path class="ad710ba9-73e0-4ceb-92f8-18c2a38a60be" d="M44.72,95l-16.84,6.15a1,1,0,0,1-1.24-.53L22,89.7a1,1,0,0,1,.48-1.24l16.16-7.73a1,1,0,0,1,1.33.48l5.37,12.55A1,1,0,0,1,44.72,95Z"/>
            <path class="ea6928b6-8e3a-425b-aaf6-2b49456175a9" d="M41,95.53,36,82.46a.41.41,0,0,1,.23-.51h0a.4.4,0,0,1,.53.22l5,13.07a.39.39,0,0,1-.22.51h0A.4.4,0,0,1,41,95.53Z"/>
            <path class="ea6928b6-8e3a-425b-aaf6-2b49456175a9" d="M38.69,96.73l-5-13.08a.4.4,0,0,1,.22-.51h0a.41.41,0,0,1,.54.23l5,13.07a.41.41,0,0,1-.23.51h0A.4.4,0,0,1,38.69,96.73Z"/>
            <path class="ea6928b6-8e3a-425b-aaf6-2b49456175a9" d="M36.36,97.71l-5-13.07a.4.4,0,0,1,.23-.51h0a.4.4,0,0,1,.53.22l5,13.08a.39.39,0,0,1-.23.5h0A.4.4,0,0,1,36.36,97.71Z"/>
            <path class="ea6928b6-8e3a-425b-aaf6-2b49456175a9" d="M34,98.7,29,85.62a.41.41,0,0,1,.23-.51h0a.4.4,0,0,1,.53.22l5,13.08a.4.4,0,0,1-.22.51h0A.4.4,0,0,1,34,98.7Z"/>
            <path class="ea6928b6-8e3a-425b-aaf6-2b49456175a9" d="M31.88,99.61l-5-13.08a.41.41,0,0,1,.23-.51h0a.4.4,0,0,1,.53.22l5,13.08a.4.4,0,0,1-.22.51h0A.4.4,0,0,1,31.88,99.61Z"/>
            <path class="ea6928b6-8e3a-425b-aaf6-2b49456175a9" d="M29.72,100.73l-5-13.08a.4.4,0,0,1,.22-.51h0a.41.41,0,0,1,.54.22l5,13.08a.4.4,0,0,1-.22.51h0A.4.4,0,0,1,29.72,100.73Z"/>
            <path class="ea6928b6-8e3a-425b-aaf6-2b49456175a9" d="M28.14,101.5l-5-13.08a.41.41,0,0,1,.23-.51h0a.4.4,0,0,1,.53.22l5,13.08a.4.4,0,0,1-.22.51h0A.4.4,0,0,1,28.14,101.5Z"/>
            <path class="aee5ad41-baaf-4340-9c7c-e7ec12836856" d="M26.64,100.66l-.4-.94,12-7.08-.44-11.51.83-.4a1,1,0,0,1,1.33.48l5.37,12.55A1,1,0,0,1,44.72,95l-16.84,6.15A1,1,0,0,1,26.64,100.66Z"/>
            <path class="ad710ba9-73e0-4ceb-92f8-18c2a38a60be" d="M186.49,54.82,51.6,102.36c-5.74,2.41-19.28-29.2-13.54-31.62L166.28,7.63Z"/>
            <polygon class="ad710ba9-73e0-4ceb-92f8-18c2a38a60be" points="173.21 4.68 183.32 28.29 193.43 51.9 186.49 54.82 176.38 31.21 166.26 7.6 173.21 4.68"/>
            <polygon class="f45e5c09-04d1-47c0-9878-c956dba91491" points="174.73 53.25 56.55 95.77 46.28 71.79 159.25 17.11 174.73 53.25"/>
            <polygon class="aee5ad41-baaf-4340-9c7c-e7ec12836856" points="176.38 31.21 166.26 7.6 186.7 47.9 193.43 51.9 193.43 51.9 186.49 54.82 176.38 31.21"/>
            <path class="aee5ad41-baaf-4340-9c7c-e7ec12836856" d="M148.68,50a44.08,44.08,0,0,0,18.41-26.26l12.75,29.79L53.06,98.65c-2,.84-5-2.75-7.77-7.71C58.85,86.32,134.09,59.57,148.68,50Z"/>
            <ellipse class="bb5dd8fe-5115-44c3-a0d9-133d5cdf8adf" cx="103.15" cy="49.52" rx="57.36" ry="2.19" transform="translate(-11.27 50.22) rotate(-26)"/>
          </g>
          <g>
            <path class="ed63e978-d4e6-4832-97af-6df5fe09ab14" d="M22.12,90.14s-6.94,2.4-4,13.76c0,0,.72,5.72-5.41,12.91,0,0-8.7,6.35-6.94,11.9s6.08,2.65,7.31,1.72a7.67,7.67,0,0,0,3.22-6.22s2.15-2.26,3.11-3.06,1.09-1.42,2.78-2.8,6.14-8.3,3.74-17.61a.72.72,0,0,1,.31-1S22.09,90.09,22.12,90.14Z"/>
            <path class="bccab7fb-fc9a-4b99-a0b2-10d4f3a6f517" d="M20.22,91.91s-3,2.6-2.06,7.74.38,7.65-.31,8.65c0,0,2.49-4.75,1.6-9.11A11.21,11.21,0,0,1,20.22,91.91Z"/>
            <path class="e981632d-e564-43ac-b42f-6b1d5f966c7e" d="M9.33,120.52s-5.3,5.35-2.4,9.12C6.93,129.64,4.63,126.51,9.33,120.52Z"/>
            <path class="bf4b712f-3ecf-43ad-867e-ea7ba005c02e" d="M15.73,124.34a8,8,0,0,1-6.34,6.82A11.6,11.6,0,0,0,15.73,124.34Z"/>
            <path class="bf4b712f-3ecf-43ad-867e-ea7ba005c02e" d="M11.93,123.84s2.68-1.73,4.24-1.29,4-2.28,4.15-2.4-2.28,2.16-4.07,2.09S11.93,123.84,11.93,123.84Z"/>
            <path class="bf4b712f-3ecf-43ad-867e-ea7ba005c02e" d="M21,118.91S25.6,116,26.36,107C26.36,107,25.43,114.51,21,118.91Z"/>
            <path class="b65d6f7a-4309-42de-a208-3776cd195644" d="M23.83,94.14s-3.16.61-1.74,11.12c1,7.2-11.45,18.23-12.42,20.1s.06,6,2.53,5.67a6.29,6.29,0,0,1-1.62.77,4.54,4.54,0,0,1-2.14-6.64c2.39-4.77,10.43-9,12.52-19.67.52-2.68-3.05-8.21,2.16-12.94Z"/>
          </g>
        </g>
      </g>
    </g>
    <g id="a8f53356-aa3a-4db6-be9f-6b97d222c7ba" data-name="Layer 12">
      <g>
        <g class="a8fc5b6c-88cc-4ad5-a435-ba08450ae06e">
          <g>
            <g>
              <g>
                <path class="e84fa32d-acf6-436b-b306-1e184bde5a46" d="M108.15,134.18a1.69,1.69,0,0,0,1.44-.8,1.61,1.61,0,0,0-.59-2.23l-.13-.08a1.7,1.7,0,0,0-1.69,0v2.82l.13.07A1.64,1.64,0,0,0,108.15,134.18Z"/>
                <path class="e84fa32d-acf6-436b-b306-1e184bde5a46" d="M133.45,122.34a1.68,1.68,0,0,0-2.14,1l-.05.14a1.61,1.61,0,0,0,1,2.1,1.71,1.71,0,0,0,.59.11,1.66,1.66,0,0,0,1.55-1.06l.07-.16A1.63,1.63,0,0,0,133.45,122.34Z"/>
                <path class="e84fa32d-acf6-436b-b306-1e184bde5a46" d="M131,127.66a1.68,1.68,0,0,0-2.34.2l-.1.11a1.6,1.6,0,0,0,.17,2.29,1.69,1.69,0,0,0,2.35-.16l.12-.14A1.6,1.6,0,0,0,131,127.66Z"/>
                <path class="e84fa32d-acf6-436b-b306-1e184bde5a46" d="M124.48,131.23l-.13.07a1.61,1.61,0,0,0-.64,2.22,1.68,1.68,0,0,0,1.45.83,1.72,1.72,0,0,0,.82-.21l.16-.09a1.61,1.61,0,0,0,.61-2.22A1.68,1.68,0,0,0,124.48,131.23Z"/>
                <path class="e84fa32d-acf6-436b-b306-1e184bde5a46" d="M128.92,108.75a1.68,1.68,0,0,0,2.33.27,1.6,1.6,0,0,0,.63-1.36h-3.42a1.52,1.52,0,0,0,.36,1Z"/>
                <path class="e84fa32d-acf6-436b-b306-1e184bde5a46" d="M133.91,116.49a1.65,1.65,0,0,0-1.67,1.63v.15a1.64,1.64,0,0,0,1.65,1.64h0a1.65,1.65,0,0,0,1.66-1.61v-.18A1.64,1.64,0,0,0,133.91,116.49Z"/>
                <path class="e84fa32d-acf6-436b-b306-1e184bde5a46" d="M131.47,113.38a1.65,1.65,0,0,0,1.58,1.12,1.57,1.57,0,0,0,.52-.08,1.62,1.62,0,0,0,1.06-2l-.06-.17a1.66,1.66,0,0,0-2.11-1,1.62,1.62,0,0,0-1,2.06C131.44,113.29,131.45,113.34,131.47,113.38Z"/>
                <path class="e84fa32d-acf6-436b-b306-1e184bde5a46" d="M119.42,133l-.15,0a1.63,1.63,0,0,0,.26,3.24l.27,0,.18,0a1.63,1.63,0,1,0-.56-3.21Z"/>
                <path class="e84fa32d-acf6-436b-b306-1e184bde5a46" d="M114,133l-.15,0a1.67,1.67,0,0,0-2,1.29,1.64,1.64,0,0,0,1.32,1.91l.18,0,.3,0a1.66,1.66,0,0,0,1.64-1.34A1.64,1.64,0,0,0,114,133Z"/>
              </g>
              <g>
                <path class="e84fa32d-acf6-436b-b306-1e184bde5a46" d="M110.8,108.75a1.19,1.19,0,0,0,.58-.15l.1,0a1.19,1.19,0,0,0,.61-.89H109.6a1.12,1.12,0,0,0,.15.49A1.22,1.22,0,0,0,110.8,108.75Z"/>
                <path class="e84fa32d-acf6-436b-b306-1e184bde5a46" d="M122.55,108.78l.1,0a1.17,1.17,0,0,0,.62.18,1.21,1.21,0,0,0,1-.56,1.17,1.17,0,0,0,.16-.79H122A1.16,1.16,0,0,0,122.55,108.78Z"/>
                <path class="e84fa32d-acf6-436b-b306-1e184bde5a46" d="M128.82,121.16a1.21,1.21,0,0,0-1.54.7l0,.1a1.16,1.16,0,0,0,.7,1.51,1.25,1.25,0,0,0,.42.08,1.21,1.21,0,0,0,1.13-.76s0-.08,0-.12A1.17,1.17,0,0,0,128.82,121.16Z"/>
                <path class="e84fa32d-acf6-436b-b306-1e184bde5a46" d="M122.34,127.58l-.09,0a1.16,1.16,0,0,0-.46,1.6,1.22,1.22,0,0,0,1,.6,1.26,1.26,0,0,0,.59-.15l.11-.06A1.16,1.16,0,0,0,124,128,1.22,1.22,0,0,0,122.34,127.58Z"/>
                <path class="e84fa32d-acf6-436b-b306-1e184bde5a46" d="M127.36,114.6l0,.1a1.21,1.21,0,0,0,1.14.81,1.19,1.19,0,0,0,.37-.06,1.17,1.17,0,0,0,.77-1.48s0-.09,0-.13a1.21,1.21,0,0,0-1.52-.73A1.16,1.16,0,0,0,127.36,114.6Z"/>
                <path class="e84fa32d-acf6-436b-b306-1e184bde5a46" d="M125.55,111.36a1.22,1.22,0,0,0,.94.44,1.2,1.2,0,0,0,.74-.25,1.16,1.16,0,0,0,.2-1.65l-.08-.1a1.21,1.21,0,0,0-1.69-.18,1.15,1.15,0,0,0-.18,1.65Z"/>
                <path class="e84fa32d-acf6-436b-b306-1e184bde5a46" d="M129.15,116.94a1.19,1.19,0,0,0-1.2,1.18v.11a1.18,1.18,0,0,0,1.19,1.18h0a1.19,1.19,0,0,0,1.2-1.16v-.13A1.19,1.19,0,0,0,129.15,116.94Z"/>
                <path class="e84fa32d-acf6-436b-b306-1e184bde5a46" d="M125.33,125.14l-.07.08a1.16,1.16,0,0,0,.12,1.66,1.24,1.24,0,0,0,.79.29,1.19,1.19,0,0,0,.9-.41l.09-.1A1.16,1.16,0,0,0,127,125,1.23,1.23,0,0,0,125.33,125.14Z"/>
                <path class="e84fa32d-acf6-436b-b306-1e184bde5a46" d="M114.81,128.84l-.1,0a1.2,1.2,0,0,0-1.41.93,1.17,1.17,0,0,0,1,1.38l.13,0a.82.82,0,0,0,.22,0,1.2,1.2,0,0,0,1.18-1A1.19,1.19,0,0,0,114.81,128.84Z"/>
                <path class="e84fa32d-acf6-436b-b306-1e184bde5a46" d="M108.06,126.71a1.17,1.17,0,0,0,.16-1.66l-.07-.08a1.19,1.19,0,0,0-1-.43V127l.11,0A1.25,1.25,0,0,0,108.06,126.71Z"/>
                <path class="e84fa32d-acf6-436b-b306-1e184bde5a46" d="M118.7,128.86l-.11,0a1.17,1.17,0,0,0-1,1.34,1.2,1.2,0,0,0,1.19,1H119l.13,0a1.18,1.18,0,1,0-.4-2.32Z"/>
                <path class="e84fa32d-acf6-436b-b306-1e184bde5a46" d="M111.17,127.52l-.09-.06a1.22,1.22,0,0,0-1.65.41,1.16,1.16,0,0,0,.41,1.61l.12.06a1.2,1.2,0,0,0,1.64-.41A1.15,1.15,0,0,0,111.17,127.52Z"/>
                <path class="e84fa32d-acf6-436b-b306-1e184bde5a46" d="M108.37,111a.46.46,0,0,0,.07-.07,1.16,1.16,0,0,0-.1-1.66,1.21,1.21,0,0,0-1.16-.24v2.34a.92.92,0,0,0,.29,0A1.19,1.19,0,0,0,108.37,111Z"/>
                <path class="e84fa32d-acf6-436b-b306-1e184bde5a46" d="M107.19,111.51a1.27,1.27,0,0,0,.28,0v-.25a.85.85,0,0,1-.23,0Z"/>
                <path class="e84fa32d-acf6-436b-b306-1e184bde5a46" d="M107.29,126.85h-.11v.25h.11Z"/>
                <path class="e84fa32d-acf6-436b-b306-1e184bde5a46" d="M110.29,129.8l.27,0v-.25a.82.82,0,0,1-.22,0Z"/>
                <path class="e84fa32d-acf6-436b-b306-1e184bde5a46" d="M123,109.1a1.24,1.24,0,0,0,.27,0v-.25a.82.82,0,0,1-.22,0Z"/>
                <path class="e84fa32d-acf6-436b-b306-1e184bde5a46" d="M128.08,123.64a1.33,1.33,0,0,0,.28,0v-.25a.82.82,0,0,1-.22,0Z"/>
                <path class="e84fa32d-acf6-436b-b306-1e184bde5a46" d="M128.25,115.6a1.33,1.33,0,0,0,.28,0v-.25l-.22,0Z"/>
                <path class="e84fa32d-acf6-436b-b306-1e184bde5a46" d="M128.92,119.26l0,.25.27,0h0v-.24A.83.83,0,0,1,128.92,119.26Z"/>
                <path class="e84fa32d-acf6-436b-b306-1e184bde5a46" d="M110.52,108.85l.28,0v-.24a.91.91,0,0,1-.23,0Z"/>
                <path class="e84fa32d-acf6-436b-b306-1e184bde5a46" d="M126.21,111.9a1.33,1.33,0,0,0,.28,0v-.25l-.23,0Z"/>
                <path class="e84fa32d-acf6-436b-b306-1e184bde5a46" d="M118.5,131.31a1.27,1.27,0,0,0,.28,0v-.25l-.23,0Z"/>
                <path class="e84fa32d-acf6-436b-b306-1e184bde5a46" d="M114.37,131l-.05.25h0l.24,0v-.25l-.19,0Z"/>
                <path class="e84fa32d-acf6-436b-b306-1e184bde5a46" d="M125.89,127.26a1.27,1.27,0,0,0,.28,0V127l-.23,0Z"/>
                <path class="e84fa32d-acf6-436b-b306-1e184bde5a46" d="M122.56,129.93a1.32,1.32,0,0,0,.28,0v-.24a.91.91,0,0,1-.23,0Z"/>
              </g>
              <path class="e84fa32d-acf6-436b-b306-1e184bde5a46" d="M117.22,120.81a.26.26,0,0,1-.25-.21.24.24,0,0,1,.21-.27h0a.26.26,0,0,1,.29.2.25.25,0,0,1-.21.28h-.06Zm-.86,0h-.08a.24.24,0,0,1-.19-.28.24.24,0,0,1,.29-.2h0a.24.24,0,0,1,0,.48Zm1.69-.28a.24.24,0,0,1-.12-.45h0a.25.25,0,0,1,.34.09.24.24,0,0,1-.09.33h0A.24.24,0,0,1,118.05,120.52Zm-2.52,0a.2.2,0,0,1-.13,0h0a.24.24,0,0,1-.09-.33.26.26,0,0,1,.34-.09l0,0a.23.23,0,0,1,.09.33A.27.27,0,0,1,115.53,120.5Zm3.21-.53a.23.23,0,0,1-.16-.06.23.23,0,0,1,0-.34h0a.24.24,0,1,1,.37.31v0A.24.24,0,0,1,118.74,120Zm-3.89,0a.27.27,0,0,1-.19-.08l0,0a.25.25,0,0,1,0-.34.25.25,0,0,1,.35,0v0a.24.24,0,0,1,0,.34A.24.24,0,0,1,114.85,119.93Zm4.34-.7-.09,0a.24.24,0,0,1-.14-.31v0a.24.24,0,0,1,.31-.14.23.23,0,0,1,.15.31v0A.25.25,0,0,1,119.19,119.23Zm-4.77,0a.25.25,0,0,1-.24-.16v0a.24.24,0,0,1,.16-.3.23.23,0,0,1,.31.15v0a.25.25,0,0,1-.15.31Zm4.93-.8h0a.23.23,0,0,1-.24-.25v0a.25.25,0,0,1,.49,0v0A.25.25,0,0,1,119.35,118.38Zm-5.08,0h0a.26.26,0,0,1-.25-.25v0a.23.23,0,0,1,.24-.23h0a.24.24,0,0,1,.24.24v0A.25.25,0,0,1,114.27,118.33Zm5-.76a.24.24,0,0,1-.23-.16v0a.25.25,0,0,1,.16-.31.24.24,0,0,1,.31.15v0a.24.24,0,0,1-.16.3Zm-4.79-.1h-.08a.25.25,0,0,1-.15-.31v0a.27.27,0,0,1,.32-.14.24.24,0,0,1,.14.32v0A.27.27,0,0,1,114.43,117.47Zm4.37-.66a.25.25,0,0,1-.19-.09v0a.24.24,0,0,1,0-.34.25.25,0,0,1,.35,0l0,0a.24.24,0,0,1,0,.34A.3.3,0,0,1,118.8,116.81Zm-3.91-.08a.23.23,0,0,1-.16-.06.23.23,0,0,1,0-.34l0,0a.25.25,0,0,1,.35,0,.24.24,0,0,1,0,.34v0A.27.27,0,0,1,114.89,116.73Zm3.25-.5a.31.31,0,0,1-.13,0h0a.24.24,0,0,1-.08-.33.25.25,0,0,1,.34-.09l0,0a.24.24,0,0,1-.13.44Zm-2.57,0a.24.24,0,0,1-.12-.45h0a.23.23,0,0,1,.33.09.24.24,0,0,1-.1.33h0A.24.24,0,0,1,115.57,116.18Zm1.75-.26h-.07a.25.25,0,0,1-.2-.29.26.26,0,0,1,.29-.19h0a.23.23,0,0,1,.19.28A.25.25,0,0,1,117.32,115.92Zm-.91,0a.24.24,0,0,1-.24-.21.23.23,0,0,1,.2-.27h0a.25.25,0,0,1,.28.21.24.24,0,0,1-.21.27h-.06Z"/>
              <path class="e84fa32d-acf6-436b-b306-1e184bde5a46" d="M117.58,123.24a.45.45,0,0,1-.46-.39.46.46,0,0,1,.39-.53h0a.45.45,0,0,1,.54.37.46.46,0,0,1-.38.53h-.13Zm-1.63,0h-.14a.45.45,0,0,1-.37-.53.47.47,0,0,1,.55-.37h0a.46.46,0,0,1-.08.91Zm3.22-.52a.49.49,0,0,1-.41-.24.46.46,0,0,1,.18-.63l0,0a.48.48,0,0,1,.64.17.46.46,0,0,1-.17.63l0,0A.46.46,0,0,1,119.17,122.7Zm-4.8,0a.42.42,0,0,1-.24-.07l0,0a.46.46,0,0,1-.16-.63.48.48,0,0,1,.65-.16l0,0a.46.46,0,0,1-.24.86Zm6.1-1a.41.41,0,0,1-.3-.11.45.45,0,0,1,0-.65l0,0a.48.48,0,0,1,.67,0,.45.45,0,0,1,0,.64l0,0A.46.46,0,0,1,120.47,121.65Zm-7.38-.07a.5.5,0,0,1-.37-.17l0,0a.45.45,0,0,1,.07-.64.48.48,0,0,1,.66.06l0,0a.45.45,0,0,1-.06.64A.5.5,0,0,1,113.09,121.58Zm8.24-1.34a.47.47,0,0,1-.44-.62l0,0a.48.48,0,0,1,.6-.28.46.46,0,0,1,.28.59l0,0A.48.48,0,0,1,121.33,120.24Zm-9.07-.09a.48.48,0,0,1-.45-.31v0a.45.45,0,0,1,.29-.58.48.48,0,0,1,.6.28v0a.46.46,0,0,1-.29.59A.4.4,0,0,1,112.26,120.15Zm9.38-1.53h0a.47.47,0,0,1-.47-.47v0a.47.47,0,0,1,.94,0v0A.47.47,0,0,1,121.64,118.62Zm-9.66-.1h0a.47.47,0,0,1-.47-.46v0a.47.47,0,0,1,.47-.45h0a.45.45,0,0,1,.46.47v0A.46.46,0,0,1,112,118.52Zm9.42-1.43a.47.47,0,0,1-.45-.32v0a.45.45,0,0,1,.29-.58.48.48,0,0,1,.6.29v0a.45.45,0,0,1-.3.58Zm-9.11-.19a.47.47,0,0,1-.44-.62l0,0a.49.49,0,0,1,.61-.26.47.47,0,0,1,.27.6l0,0A.47.47,0,0,1,112.29,116.9Zm8.31-1.26a.48.48,0,0,1-.37-.17l0,0a.45.45,0,0,1,.07-.64.49.49,0,0,1,.67.07l0,0a.45.45,0,0,1-.08.64A.46.46,0,0,1,120.6,115.64Zm-7.45-.15a.5.5,0,0,1-.3-.11.45.45,0,0,1,0-.65l0,0a.48.48,0,0,1,.67,0,.46.46,0,0,1,0,.65l0,0A.48.48,0,0,1,113.15,115.49Zm6.19-.94a.51.51,0,0,1-.24-.07l0,0a.45.45,0,0,1-.16-.63.47.47,0,0,1,.64-.16l0,0a.45.45,0,0,1,.15.63A.47.47,0,0,1,119.34,114.55Zm-4.88-.1a.46.46,0,0,1-.41-.24.46.46,0,0,1,.18-.63l0,0a.48.48,0,0,1,.64.18.45.45,0,0,1-.19.63l0,0A.49.49,0,0,1,114.46,114.45Zm3.32-.51h-.14a.45.45,0,0,1-.37-.53.47.47,0,0,1,.55-.37h.05a.46.46,0,0,1,.37.54A.47.47,0,0,1,117.78,113.94Zm-1.73,0A.46.46,0,0,1,116,113H116a.48.48,0,0,1,.53.39.46.46,0,0,1-.4.52h-.11Z"/>
              <path class="e84fa32d-acf6-436b-b306-1e184bde5a46" d="M118.1,126.71a.77.77,0,0,1-.12-1.54h.07a.79.79,0,0,1,.91.63.78.78,0,0,1-.65.89l-.08,0Zm-2.74,0h-.14l-.09,0a.76.76,0,0,1-.62-.9.78.78,0,0,1,.92-.61h.07a.77.77,0,0,1,.63.9A.78.78,0,0,1,115.36,126.68Zm5.41-.88a.78.78,0,0,1-.69-.39.76.76,0,0,1,.3-1l.06,0a.81.81,0,0,1,1.08.29.77.77,0,0,1-.29,1l-.08,0A.75.75,0,0,1,120.77,125.8Zm-8.06-.08a.86.86,0,0,1-.4-.11l-.07,0a.77.77,0,0,1-.27-1.06.8.8,0,0,1,1.08-.26l.06,0a.76.76,0,0,1,.28,1.06A.79.79,0,0,1,112.71,125.72ZM123,124.05a.8.8,0,0,1-.52-.19.75.75,0,0,1-.08-1.08l.05-.06a.81.81,0,0,1,1.11-.09.77.77,0,0,1,.09,1.09l0,.06A.8.8,0,0,1,123,124.05Zm-12.38-.12a.8.8,0,0,1-.61-.28l-.06-.07a.76.76,0,0,1,.12-1.08.8.8,0,0,1,1.11.11l0,0a.77.77,0,0,1-.1,1.09A.81.81,0,0,1,110.57,123.93Zm13.82-2.25a.92.92,0,0,1-.28-.05.77.77,0,0,1-.46-1l0-.06a.79.79,0,0,1,1-.46.77.77,0,0,1,.47,1l0,.08A.79.79,0,0,1,124.39,121.68Zm-15.21-.16a.79.79,0,0,1-.75-.51l0-.08a.77.77,0,0,1,.5-1,.79.79,0,0,1,1,.48l0,.07a.77.77,0,0,1-.48,1A.82.82,0,0,1,109.18,121.52ZM124.91,119h0a.77.77,0,0,1-.78-.77v-.08a.79.79,0,0,1,1.58,0v.09A.77.77,0,0,1,124.91,119Zm-16.19-.16h0a.77.77,0,0,1-.78-.78v-.08a.79.79,0,0,1,.79-.76h0a.79.79,0,0,1,.78.79V118A.77.77,0,0,1,108.72,118.8Zm15.78-2.4a.8.8,0,0,1-.75-.53l0-.06a.76.76,0,0,1,.49-1,.79.79,0,0,1,1,.48l0,.08a.78.78,0,0,1-.75,1Zm-15.26-.31a.87.87,0,0,1-.28,0,.77.77,0,0,1-.46-1l0-.08a.79.79,0,0,1,1-.43.75.75,0,0,1,.45,1l0,.07A.79.79,0,0,1,109.24,116.09ZM123.16,114a.81.81,0,0,1-.62-.29l0-.06a.76.76,0,0,1,.12-1.08.79.79,0,0,1,1.11.12l0,.06a.78.78,0,0,1-.62,1.25Zm-12.48-.26a.79.79,0,0,1-.51-.18.77.77,0,0,1-.09-1.09l.06-.06a.8.8,0,0,1,1.11-.07.76.76,0,0,1,.07,1.09l0,0A.83.83,0,0,1,110.68,113.71Zm10.37-1.57a.78.78,0,0,1-.41-.12l-.06,0a.77.77,0,0,1-.27-1.06.79.79,0,0,1,1.08-.26l.08,0a.76.76,0,0,1,.25,1.06A.78.78,0,0,1,121.05,112.14Zm-8.18-.17a.77.77,0,0,1-.69-.4.76.76,0,0,1,.3-1l.08,0a.79.79,0,0,1,1.06.31.77.77,0,0,1-.31,1l-.06,0A.75.75,0,0,1,112.87,112Zm5.56-.85h-.16l-.07,0a.76.76,0,0,1-.62-.9.78.78,0,0,1,.92-.61l.09,0a.77.77,0,0,1,.61.91A.78.78,0,0,1,118.43,111.12Zm-2.9-.06a.78.78,0,0,1-.78-.65.78.78,0,0,1,.66-.88h.08a.8.8,0,0,1,.9.65.78.78,0,0,1-.67.87h-.19Z"/>
            </g>
            <g>
              <g>
                <path class="e84fa32d-acf6-436b-b306-1e184bde5a46" d="M181.77,107.9a1.61,1.61,0,0,0,.47-.24h-2a1.65,1.65,0,0,0,1,.32A1.57,1.57,0,0,0,181.77,107.9Z"/>
                <path class="e84fa32d-acf6-436b-b306-1e184bde5a46" d="M150.46,116.63a.69.69,0,0,1-.05-.13,1.67,1.67,0,0,0-2.11-1,1.62,1.62,0,0,0-1,2.07l.06.17a1.65,1.65,0,0,0,1.57,1.08,1.76,1.76,0,0,0,.55-.09A1.63,1.63,0,0,0,150.46,116.63Z"/>
                <path class="e84fa32d-acf6-436b-b306-1e184bde5a46" d="M179.15,121.14a1.68,1.68,0,0,0-2.34.2l-.09.11a1.58,1.58,0,0,0,.17,2.29,1.64,1.64,0,0,0,1.08.4,1.68,1.68,0,0,0,1.26-.56l.12-.14A1.6,1.6,0,0,0,179.15,121.14Z"/>
                <path class="e84fa32d-acf6-436b-b306-1e184bde5a46" d="M181.65,115.82a1.68,1.68,0,0,0-2.14,1l0,.13a1.62,1.62,0,0,0,1,2.1,1.71,1.71,0,0,0,.59.11,1.65,1.65,0,0,0,1.55-1.06,1.11,1.11,0,0,0,.07-.16A1.63,1.63,0,0,0,181.65,115.82Z"/>
                <path class="e84fa32d-acf6-436b-b306-1e184bde5a46" d="M182.11,110a1.65,1.65,0,0,0-1.67,1.63v.15a1.64,1.64,0,0,0,1.65,1.64h0a1.65,1.65,0,0,0,1.66-1.61v-.18A1.64,1.64,0,0,0,182.11,110Z"/>
                <path class="e84fa32d-acf6-436b-b306-1e184bde5a46" d="M172.68,124.71l-.13.07a1.61,1.61,0,0,0-.64,2.22,1.68,1.68,0,0,0,1.45.83,1.72,1.72,0,0,0,.82-.21l.16-.09a1.61,1.61,0,0,0,.61-2.22A1.68,1.68,0,0,0,172.68,124.71Z"/>
                <path class="e84fa32d-acf6-436b-b306-1e184bde5a46" d="M153,121.1a1.68,1.68,0,0,0-2.34-.24,1.62,1.62,0,0,0-.25,2.29l.12.13a1.67,1.67,0,0,0,2.34.22,1.61,1.61,0,0,0,.23-2.29Z"/>
                <path class="e84fa32d-acf6-436b-b306-1e184bde5a46" d="M167.62,126.49l-.15,0a1.63,1.63,0,0,0,.26,3.24l.27,0,.18,0a1.62,1.62,0,0,0,1.36-1.88A1.65,1.65,0,0,0,167.62,126.49Z"/>
                <path class="e84fa32d-acf6-436b-b306-1e184bde5a46" d="M157.2,124.63l-.13-.08a1.68,1.68,0,0,0-2.28.56,1.6,1.6,0,0,0,.57,2.23l.15.1a1.74,1.74,0,0,0,.85.22,1.67,1.67,0,0,0,1.43-.8A1.61,1.61,0,0,0,157.2,124.63Z"/>
                <path class="e84fa32d-acf6-436b-b306-1e184bde5a46" d="M147.92,113.05a1.65,1.65,0,0,0,1.66-1.61v-.15a1.64,1.64,0,0,0-1.63-1.66h0a1.65,1.65,0,0,0-1.66,1.6v.17a1.65,1.65,0,0,0,1.65,1.65Z"/>
                <path class="e84fa32d-acf6-436b-b306-1e184bde5a46" d="M162.24,126.46l-.14,0a1.66,1.66,0,0,0-1.95,1.29,1.62,1.62,0,0,0,1.31,1.91l.19,0,.29,0a1.66,1.66,0,0,0,1.64-1.34A1.64,1.64,0,0,0,162.24,126.46Z"/>
              </g>
              <g>
                <path class="e84fa32d-acf6-436b-b306-1e184bde5a46" d="M175.59,108.18a1.21,1.21,0,0,0,1.14.81,1.26,1.26,0,0,0,.38-.06,1.18,1.18,0,0,0,.81-1.27H175.5a1,1,0,0,0,.06.42Z"/>
                <path class="e84fa32d-acf6-436b-b306-1e184bde5a46" d="M153,108.43a1.31,1.31,0,0,0,.43.08,1.2,1.2,0,0,0,1.12-.76l0-.09h-2.3A1.17,1.17,0,0,0,153,108.43Z"/>
                <path class="e84fa32d-acf6-436b-b306-1e184bde5a46" d="M159.37,121l-.09,0a1.21,1.21,0,0,0-1.65.4A1.17,1.17,0,0,0,158,123l.12.07a1.22,1.22,0,0,0,1.64-.42A1.15,1.15,0,0,0,159.37,121Z"/>
                <path class="e84fa32d-acf6-436b-b306-1e184bde5a46" d="M177,114.64a1.21,1.21,0,0,0-1.54.7l0,.1a1.17,1.17,0,0,0,.7,1.51,1,1,0,0,0,.42.08,1.2,1.2,0,0,0,1.13-.76s0-.08,0-.12A1.17,1.17,0,0,0,177,114.64Z"/>
                <path class="e84fa32d-acf6-436b-b306-1e184bde5a46" d="M173.53,118.63l-.07.07a1.16,1.16,0,0,0,.12,1.66,1.24,1.24,0,0,0,.79.29,1.23,1.23,0,0,0,.91-.41l.08-.1a1.16,1.16,0,0,0-.14-1.66A1.22,1.22,0,0,0,173.53,118.63Z"/>
                <path class="e84fa32d-acf6-436b-b306-1e184bde5a46" d="M170.55,121.06l-.1,0a1.16,1.16,0,0,0-.46,1.6,1.2,1.2,0,0,0,1,.6,1.26,1.26,0,0,0,.59-.15l.11-.06a1.15,1.15,0,0,0,.44-1.61A1.21,1.21,0,0,0,170.55,121.06Z"/>
                <path class="e84fa32d-acf6-436b-b306-1e184bde5a46" d="M177.35,110.42a1.19,1.19,0,0,0-1.2,1.18v.11a1.18,1.18,0,0,0,1.19,1.18h0a1.18,1.18,0,0,0,1.2-1.16v-.13A1.19,1.19,0,0,0,177.35,110.42Z"/>
                <path class="e84fa32d-acf6-436b-b306-1e184bde5a46" d="M163,122.32l-.1,0a1.21,1.21,0,0,0-1.41.93,1.17,1.17,0,0,0,.95,1.38l.13,0a.86.86,0,0,0,.22,0,1.17,1.17,0,0,0,.21-2.33Z"/>
                <path class="e84fa32d-acf6-436b-b306-1e184bde5a46" d="M156.35,118.45a1.22,1.22,0,0,0-1.69-.17,1.17,1.17,0,0,0-.18,1.65l.09.1a1.22,1.22,0,0,0,.92.43,1.25,1.25,0,0,0,.77-.27,1.17,1.17,0,0,0,.16-1.66Z"/>
                <path class="e84fa32d-acf6-436b-b306-1e184bde5a46" d="M166.9,122.34l-.11,0a1.17,1.17,0,0,0-1,1.34,1.2,1.2,0,0,0,1.19,1h.19l.13,0a1.18,1.18,0,1,0-.4-2.32Z"/>
                <path class="e84fa32d-acf6-436b-b306-1e184bde5a46" d="M154.51,115.23l0-.1a1.2,1.2,0,0,0-1.52-.73,1.17,1.17,0,0,0-.75,1.49l0,.12a1.22,1.22,0,0,0,1.14.79,1.46,1.46,0,0,0,.4-.07A1.18,1.18,0,0,0,154.51,115.23Z"/>
                <path class="e84fa32d-acf6-436b-b306-1e184bde5a46" d="M152.68,112.64a1.19,1.19,0,0,0,1.2-1.16v-.1a1.19,1.19,0,0,0-1.18-1.2h0a1.18,1.18,0,0,0-1.2,1.15v.13a1.19,1.19,0,0,0,1.19,1.18Z"/>
                <path class="e84fa32d-acf6-436b-b306-1e184bde5a46" d="M153.1,116.89a1.27,1.27,0,0,0,.28,0v-.25l-.23,0Z"/>
                <path class="e84fa32d-acf6-436b-b306-1e184bde5a46" d="M153.19,108.6a1.27,1.27,0,0,0,.28,0v-.25a.9.9,0,0,1-.23,0Z"/>
                <path class="e84fa32d-acf6-436b-b306-1e184bde5a46" d="M152.45,112.5l0,.24a1.09,1.09,0,0,0,.26,0h0l0-.25Z"/>
                <path class="e84fa32d-acf6-436b-b306-1e184bde5a46" d="M170.76,123.41a1.33,1.33,0,0,0,.28,0v-.25a.83.83,0,0,1-.22,0Z"/>
                <path class="e84fa32d-acf6-436b-b306-1e184bde5a46" d="M155.22,120.55a1.24,1.24,0,0,0,.27,0v-.25l-.22,0Z"/>
                <path class="e84fa32d-acf6-436b-b306-1e184bde5a46" d="M176.28,117.12l.28,0v-.24a.83.83,0,0,1-.22,0Z"/>
                <path class="e84fa32d-acf6-436b-b306-1e184bde5a46" d="M176.45,109.08a1.33,1.33,0,0,0,.28,0v-.25l-.22,0Z"/>
                <path class="e84fa32d-acf6-436b-b306-1e184bde5a46" d="M177.13,112.74l-.06.25a2.48,2.48,0,0,0,.27,0h0v-.25A.76.76,0,0,1,177.13,112.74Z"/>
                <path class="e84fa32d-acf6-436b-b306-1e184bde5a46" d="M174.09,120.74a1.27,1.27,0,0,0,.28,0v-.25l-.23,0Z"/>
                <path class="e84fa32d-acf6-436b-b306-1e184bde5a46" d="M158.49,123.28a1.24,1.24,0,0,0,.27,0v-.25a.82.82,0,0,1-.22,0Z"/>
                <path class="e84fa32d-acf6-436b-b306-1e184bde5a46" d="M162.57,124.51l0,.24h0l.24,0v-.25l-.19,0Z"/>
                <path class="e84fa32d-acf6-436b-b306-1e184bde5a46" d="M166.7,124.79a1.27,1.27,0,0,0,.28,0v-.25l-.23,0Z"/>
              </g>
              <path class="e84fa32d-acf6-436b-b306-1e184bde5a46" d="M165.42,114.29a.26.26,0,0,1-.25-.21.24.24,0,0,1,.21-.27h0a.26.26,0,0,1,.29.2.25.25,0,0,1-.21.28h-.06Zm-.86,0h-.07a.24.24,0,0,1-.2-.28.26.26,0,0,1,.29-.2h0a.24.24,0,0,1,.2.28A.25.25,0,0,1,164.56,114.28Zm1.69-.28a.24.24,0,0,1-.12-.45h0a.25.25,0,0,1,.34.09.24.24,0,0,1-.09.33h0A.21.21,0,0,1,166.25,114Zm-2.52,0a.2.2,0,0,1-.13,0h0a.24.24,0,0,1-.09-.33.25.25,0,0,1,.34-.08h0a.23.23,0,0,1,.09.33A.27.27,0,0,1,163.73,114Zm3.21-.53a.28.28,0,0,1-.16,0,.24.24,0,0,1,0-.35h0a.24.24,0,0,1,.34,0,.23.23,0,0,1,0,.34v0A.24.24,0,0,1,166.94,113.45Zm-3.89,0a.27.27,0,0,1-.19-.08v0a.24.24,0,0,1,0-.34.25.25,0,0,1,.35,0v0a.23.23,0,0,1,0,.34A.24.24,0,0,1,163.05,113.41Zm4.34-.7-.09,0a.24.24,0,0,1-.14-.31v0a.24.24,0,0,1,.31-.14.23.23,0,0,1,.15.31v0A.24.24,0,0,1,167.39,112.71Zm-4.77,0a.26.26,0,0,1-.24-.16v0a.24.24,0,0,1,.16-.3.23.23,0,0,1,.31.15v0a.24.24,0,0,1-.15.31Zm4.93-.8h0a.23.23,0,0,1-.24-.25v0a.25.25,0,0,1,.49,0v0A.25.25,0,0,1,167.55,111.86Zm-5.08,0h0a.24.24,0,0,1-.24-.25v0a.24.24,0,0,1,.24-.24h0a.25.25,0,0,1,.24.25v0A.25.25,0,0,1,162.47,111.81Zm5-.76a.24.24,0,0,1-.24-.16v0a.25.25,0,0,1,.16-.31.24.24,0,0,1,.31.15v0a.24.24,0,0,1-.16.3Zm-4.79-.1h-.09a.25.25,0,0,1-.15-.31v0a.27.27,0,0,1,.32-.14.26.26,0,0,1,.15.32v0A.24.24,0,0,1,162.64,111Zm4.37-.66a.25.25,0,0,1-.2-.09v0a.24.24,0,0,1,0-.34.25.25,0,0,1,.35,0l0,0a.24.24,0,0,1,0,.34A.3.3,0,0,1,167,110.29Zm-3.92-.08a.23.23,0,0,1-.16-.06.23.23,0,0,1,0-.34l0,0a.25.25,0,0,1,.35,0,.24.24,0,0,1,0,.34v0A.27.27,0,0,1,163.09,110.21Zm3.25-.49a.33.33,0,0,1-.13,0h0a.24.24,0,0,1-.09-.33.25.25,0,0,1,.34-.09l0,0a.23.23,0,0,1,.08.33A.24.24,0,0,1,166.34,109.72Zm-2.57-.06a.24.24,0,0,1-.12-.45h0a.24.24,0,0,1,.33.09.24.24,0,0,1-.1.33h0A.28.28,0,0,1,163.77,109.66Zm1.75-.26h-.07a.24.24,0,1,1,.09-.48h0a.23.23,0,0,1,.19.28A.24.24,0,0,1,165.52,109.4Zm-.91,0a.25.25,0,0,1-.24-.21.24.24,0,0,1,.2-.27h0a.25.25,0,0,1,.28.21.24.24,0,0,1-.21.27h-.06Z"/>
              <g>
                <path class="e84fa32d-acf6-436b-b306-1e184bde5a46" d="M160.33,110.35a.45.45,0,0,0,.16,0,.47.47,0,0,0,.44-.29l0,0a.47.47,0,0,0-.27-.6.49.49,0,0,0-.61.26l0,.05A.46.46,0,0,0,160.33,110.35Z"/>
                <path class="e84fa32d-acf6-436b-b306-1e184bde5a46" d="M160.18,112a.46.46,0,0,0,.47-.45v0a.47.47,0,0,0-.46-.47h0a.46.46,0,0,0-.47.45v.05a.47.47,0,0,0,.47.46Z"/>
                <path class="e84fa32d-acf6-436b-b306-1e184bde5a46" d="M160.9,113v0a.48.48,0,0,0-.6-.28.45.45,0,0,0-.29.58l0,0a.46.46,0,0,0,.44.31l.16,0A.46.46,0,0,0,160.9,113Z"/>
                <path class="e84fa32d-acf6-436b-b306-1e184bde5a46" d="M167.26,107.94l0,0a.42.42,0,0,0,.24.07.47.47,0,0,0,.46-.37h-.95A.48.48,0,0,0,167.26,107.94Z"/>
                <path class="e84fa32d-acf6-436b-b306-1e184bde5a46" d="M161.62,114.27a.48.48,0,0,0-.66-.06.45.45,0,0,0-.07.64l0,0a.46.46,0,0,0,.36.17.5.5,0,0,0,.3-.11.44.44,0,0,0,.06-.64Z"/>
                <path class="e84fa32d-acf6-436b-b306-1e184bde5a46" d="M162.66,107.93a.46.46,0,0,0,.23-.06l0,0a.47.47,0,0,0,.18-.19h-.87a0,0,0,0,0,0,0A.46.46,0,0,0,162.66,107.93Z"/>
                <path class="e84fa32d-acf6-436b-b306-1e184bde5a46" d="M168.43,109a.48.48,0,0,0,.37.17.46.46,0,0,0,.37-.74l0,0a.47.47,0,0,0-.66-.07.43.43,0,0,0-.07.64Z"/>
                <path class="e84fa32d-acf6-436b-b306-1e184bde5a46" d="M169.71,112.78a.48.48,0,0,0-.6.28l0,0a.47.47,0,0,0,.44.62.48.48,0,0,0,.44-.3l0,0A.46.46,0,0,0,169.71,112.78Z"/>
                <path class="e84fa32d-acf6-436b-b306-1e184bde5a46" d="M161,108.17l0,0a.45.45,0,0,0,.05.65.51.51,0,0,0,.31.11.48.48,0,0,0,.35-.16l0,0a.46.46,0,0,0,0-.65A.48.48,0,0,0,161,108.17Z"/>
                <path class="e84fa32d-acf6-436b-b306-1e184bde5a46" d="M168.34,114.34l0,0a.45.45,0,0,0,.05.65.43.43,0,0,0,.3.11A.45.45,0,0,0,169,115l0,0a.45.45,0,0,0-.05-.65A.48.48,0,0,0,168.34,114.34Z"/>
                <path class="e84fa32d-acf6-436b-b306-1e184bde5a46" d="M169.84,111.13a.47.47,0,0,0-.47.46v0a.47.47,0,0,0,.47.47h0a.46.46,0,0,0,.47-.46v0A.47.47,0,0,0,169.84,111.13Z"/>
                <path class="e84fa32d-acf6-436b-b306-1e184bde5a46" d="M169.14,110.22v0a.47.47,0,0,0,.45.32l.15,0a.46.46,0,0,0,.3-.58l0,0a.48.48,0,0,0-.6-.29A.47.47,0,0,0,169.14,110.22Z"/>
                <path class="e84fa32d-acf6-436b-b306-1e184bde5a46" d="M167.18,115.3l0,0a.45.45,0,0,0-.18.62.49.49,0,0,0,.41.24.46.46,0,0,0,.23-.06l.05,0a.46.46,0,0,0,.17-.63A.47.47,0,0,0,167.18,115.3Z"/>
                <path class="e84fa32d-acf6-436b-b306-1e184bde5a46" d="M162.81,115.27l0,0a.47.47,0,0,0-.64.16.44.44,0,0,0,.16.63l0,0a.42.42,0,0,0,.24.07.46.46,0,0,0,.24-.86Z"/>
                <path class="e84fa32d-acf6-436b-b306-1e184bde5a46" d="M164.23,115.79h0a.47.47,0,0,0-.55.37.45.45,0,0,0,.37.53h.14a.46.46,0,0,0,.46-.38A.46.46,0,0,0,164.23,115.79Z"/>
                <path class="e84fa32d-acf6-436b-b306-1e184bde5a46" d="M165.75,115.8h0a.46.46,0,0,0,.07.92h.13a.46.46,0,1,0-.16-.9Z"/>
              </g>
              <g>
                <path class="e84fa32d-acf6-436b-b306-1e184bde5a46" d="M157.16,109.52a.87.87,0,0,0,.28,0,.77.77,0,0,0,.73-.5l0-.07a.75.75,0,0,0-.45-1,.79.79,0,0,0-1,.43l0,.08A.77.77,0,0,0,157.16,109.52Z"/>
                <path class="e84fa32d-acf6-436b-b306-1e184bde5a46" d="M172,109.35a.78.78,0,0,0,.75.53.73.73,0,0,0,.25,0,.76.76,0,0,0,.5-1l0-.08a.79.79,0,0,0-1-.48.76.76,0,0,0-.49,1Z"/>
                <path class="e84fa32d-acf6-436b-b306-1e184bde5a46" d="M156.92,112.28a.79.79,0,0,0,.79-.76v-.07a.78.78,0,0,0-.77-.79h0a.79.79,0,0,0-.79.76v.08a.77.77,0,0,0,.78.78Z"/>
                <path class="e84fa32d-acf6-436b-b306-1e184bde5a46" d="M172.89,113.59a.79.79,0,0,0-1,.46l0,.07a.77.77,0,0,0,.46,1,.92.92,0,0,0,.28,0,.79.79,0,0,0,.74-.5l0-.08A.77.77,0,0,0,172.89,113.59Z"/>
                <path class="e84fa32d-acf6-436b-b306-1e184bde5a46" d="M170.6,116.21l0,.05a.76.76,0,0,0,.08,1.08.8.8,0,0,0,.52.19.83.83,0,0,0,.6-.26l.05-.07a.77.77,0,0,0-.09-1.09A.8.8,0,0,0,170.6,116.21Z"/>
                <path class="e84fa32d-acf6-436b-b306-1e184bde5a46" d="M173.11,110.82a.78.78,0,0,0-.79.78v.07a.78.78,0,0,0,.78.77h0a.79.79,0,0,0,.79-.76v-.08A.79.79,0,0,0,173.11,110.82Z"/>
                <path class="e84fa32d-acf6-436b-b306-1e184bde5a46" d="M168.64,117.8l-.06,0a.76.76,0,0,0-.3,1,.78.78,0,0,0,.69.39.75.75,0,0,0,.38-.1l.08,0a.75.75,0,0,0,.29-1A.81.81,0,0,0,168.64,117.8Z"/>
                <path class="e84fa32d-acf6-436b-b306-1e184bde5a46" d="M158.12,114l0-.07a.79.79,0,0,0-1-.48.77.77,0,0,0-.49,1l0,.08a.8.8,0,0,0,.75.52.85.85,0,0,0,.26-.05A.76.76,0,0,0,158.12,114Z"/>
                <path class="e84fa32d-acf6-436b-b306-1e184bde5a46" d="M159.33,116.09a.8.8,0,0,0-1.11-.11.75.75,0,0,0-.11,1.08l0,.07a.8.8,0,0,0,1.11.1.77.77,0,0,0,.11-1.08Z"/>
                <path class="e84fa32d-acf6-436b-b306-1e184bde5a46" d="M161.31,117.76l-.06,0a.8.8,0,0,0-1.08.26.77.77,0,0,0,.27,1.06l.07,0a.86.86,0,0,0,.4.11.79.79,0,0,0,.68-.38A.76.76,0,0,0,161.31,117.76Z"/>
                <path class="e84fa32d-acf6-436b-b306-1e184bde5a46" d="M166.25,118.64l-.07,0a.78.78,0,0,0-.66.88.79.79,0,0,0,.78.65h.13l.08,0a.77.77,0,0,0,.65-.88A.8.8,0,0,0,166.25,118.64Z"/>
                <path class="e84fa32d-acf6-436b-b306-1e184bde5a46" d="M163.7,118.63h-.07a.78.78,0,0,0-.92.61.77.77,0,0,0,.62.9l.09,0h.14a.77.77,0,0,0,.14-1.53Z"/>
              </g>
            </g>
            <g>
              <path class="e84fa32d-acf6-436b-b306-1e184bde5a46" d="M189.43,160.54a1.46,1.46,0,0,1-.23-2.91l.13,0a1.5,1.5,0,0,1,1.73,1.2,1.47,1.47,0,0,1-1.23,1.69l-.16,0Zm-5.21,0-.27,0-.16,0a1.48,1.48,0,0,1-1.19-1.72,1.51,1.51,0,0,1,1.76-1.16l.13,0a1.47,1.47,0,0,1-.27,2.91Zm10.28-1.67a1.52,1.52,0,0,1-1.31-.75,1.45,1.45,0,0,1,.58-2l.11-.07a1.53,1.53,0,0,1,2.05.54,1.45,1.45,0,0,1-.55,2l-.15.08A1.47,1.47,0,0,1,194.5,158.82Zm-15.31-.16a1.49,1.49,0,0,1-.76-.2l-.14-.08a1.45,1.45,0,0,1-.51-2,1.52,1.52,0,0,1,2.06-.5l.11.07a1.43,1.43,0,0,1,.53,2A1.47,1.47,0,0,1,179.19,158.66Zm19.46-3.16a1.5,1.5,0,0,1-1-.36,1.44,1.44,0,0,1-.15-2.07l.08-.09a1.52,1.52,0,0,1,2.11-.18,1.44,1.44,0,0,1,.18,2.06.69.69,0,0,1-.11.13A1.51,1.51,0,0,1,198.65,155.5Zm-23.54-.24a1.51,1.51,0,0,1-1.15-.53l-.1-.13a1.43,1.43,0,0,1,.22-2.06,1.51,1.51,0,0,1,2.1.22l.09.1a1.44,1.44,0,0,1-.2,2.06A1.5,1.5,0,0,1,175.11,155.26ZM201.39,151a1.61,1.61,0,0,1-.53-.1A1.45,1.45,0,0,1,200,149l0-.12A1.52,1.52,0,0,1,202,148a1.46,1.46,0,0,1,.89,1.88l-.06.15A1.52,1.52,0,0,1,201.39,151Zm-28.92-.3a1.5,1.5,0,0,1-1.41-1l-.06-.16a1.47,1.47,0,0,1,.94-1.86,1.51,1.51,0,0,1,1.9.92s0,.08,0,.12a1.45,1.45,0,0,1-.91,1.87A1.42,1.42,0,0,1,172.47,150.69Zm29.9-4.86h0a1.49,1.49,0,0,1-1.49-1.48v-.14a1.5,1.5,0,0,1,3,0v.16A1.49,1.49,0,0,1,202.37,145.83Zm-30.77-.31h0A1.49,1.49,0,0,1,170.1,144v-.16a1.49,1.49,0,0,1,1.5-1.43h0a1.49,1.49,0,0,1,1.47,1.5v.13A1.49,1.49,0,0,1,171.6,145.52Zm30-4.56a1.52,1.52,0,0,1-1.43-1,.5.5,0,0,0,0-.13,1.47,1.47,0,0,1,.94-1.86,1.51,1.51,0,0,1,1.9.92c0,.05,0,.1.05.15a1.46,1.46,0,0,1-1,1.85A1.48,1.48,0,0,1,201.6,141Zm-29-.6a1.39,1.39,0,0,1-.53-.1,1.45,1.45,0,0,1-.88-1.88l.06-.15a1.51,1.51,0,0,1,1.94-.84,1.47,1.47,0,0,1,.86,1.9l0,.12A1.5,1.5,0,0,1,172.59,140.36Zm26.46-4a1.48,1.48,0,0,1-1.17-.56l-.09-.1a1.44,1.44,0,0,1,.23-2.06,1.51,1.51,0,0,1,2.1.22l.11.12A1.45,1.45,0,0,1,200,136,1.52,1.52,0,0,1,199.05,136.34Zm-23.72-.49a1.5,1.5,0,0,1-1-.36,1.43,1.43,0,0,1-.16-2.06l.11-.13a1.54,1.54,0,0,1,2.12-.13,1.44,1.44,0,0,1,.13,2.07l-.09.1A1.48,1.48,0,0,1,175.33,135.85Zm19.71-3a1.46,1.46,0,0,1-.78-.22l-.12-.06a1.46,1.46,0,0,1-.51-2,1.53,1.53,0,0,1,2.06-.5l.14.09a1.45,1.45,0,0,1,.49,2A1.5,1.5,0,0,1,195,132.85Zm-15.56-.32a1.52,1.52,0,0,1-1.31-.75,1.45,1.45,0,0,1,.58-2l.14-.08a1.52,1.52,0,0,1,2,.58,1.45,1.45,0,0,1-.6,2l-.12.06A1.47,1.47,0,0,1,179.48,132.53Zm10.58-1.61a1.53,1.53,0,0,1-.3,0l-.13,0a1.46,1.46,0,0,1-1.19-1.72,1.49,1.49,0,0,1,1.75-1.16l.16,0a1.46,1.46,0,0,1,1.17,1.73A1.49,1.49,0,0,1,190.06,130.92Zm-5.51-.11a1.46,1.46,0,0,1-.24-2.91l.17,0a1.51,1.51,0,0,1,1.7,1.24,1.47,1.47,0,0,1-1.27,1.66l-.13,0A.93.93,0,0,1,184.55,130.81Z"/>
              <g>
                <path class="e84fa32d-acf6-436b-b306-1e184bde5a46" d="M188.75,156a1.06,1.06,0,0,1-.17-2.11h.1a1.08,1.08,0,0,1,1.25.86A1.06,1.06,0,0,1,189,156l-.12,0ZM185,156l-.19,0-.12,0a1.06,1.06,0,0,1-.86-1.24,1.09,1.09,0,0,1,1.27-.84l.09,0a1.06,1.06,0,0,1,.87,1.23A1.07,1.07,0,0,1,185,156Zm7.42-1.21a1.06,1.06,0,0,1-.94-.54,1,1,0,0,1,.41-1.44l.08-.05a1.11,1.11,0,0,1,1.48.39,1,1,0,0,1-.4,1.45l-.1.06A1.12,1.12,0,0,1,192.41,154.75Zm-11-.11a1.11,1.11,0,0,1-.55-.15l-.1-.06a1.05,1.05,0,0,1-.37-1.45,1.1,1.1,0,0,1,1.49-.36l.08,0a1,1,0,0,1,.38,1.45A1.09,1.09,0,0,1,181.36,154.64Zm14-2.29a1.07,1.07,0,0,1-.7-.25,1,1,0,0,1-.11-1.5l.06-.07a1.1,1.1,0,0,1,1.52-.12,1,1,0,0,1,.13,1.49l-.08.09A1.08,1.08,0,0,1,195.4,152.35Zm-17-.17a1.12,1.12,0,0,1-.84-.38l-.07-.09a1,1,0,0,1,.16-1.49,1.09,1.09,0,0,1,1.52.16l.06.07a1,1,0,0,1-.14,1.49A1.13,1.13,0,0,1,178.42,152.18Zm19-3.08A1,1,0,0,1,197,149a1.05,1.05,0,0,1-.63-1.36l0-.09a1.09,1.09,0,0,1,1.39-.63,1,1,0,0,1,.64,1.35l0,.11A1.07,1.07,0,0,1,197.38,149.1Zm-20.87-.21a1.09,1.09,0,0,1-1-.71s0-.07,0-.11a1.05,1.05,0,0,1,.68-1.34,1.09,1.09,0,0,1,1.37.66l0,.09a1.06,1.06,0,0,1-.66,1.35A1.13,1.13,0,0,1,176.51,148.89Zm21.58-3.52h0a1.06,1.06,0,0,1-1.07-1.06v-.1a1.08,1.08,0,0,1,2.16,0v.11A1.07,1.07,0,0,1,198.09,145.37Zm-22.21-.22h0a1.07,1.07,0,0,1-1.07-1.07V144a1.07,1.07,0,0,1,1.08-1h0A1.07,1.07,0,0,1,177,144v.1A1.07,1.07,0,0,1,175.88,145.15Zm21.65-3.29a1.08,1.08,0,0,1-1-.73l0-.09a1.05,1.05,0,0,1,.68-1.34,1.09,1.09,0,0,1,1.37.66s0,.07,0,.11a1.07,1.07,0,0,1-.69,1.34A1.33,1.33,0,0,1,197.53,141.86Zm-20.94-.43a1.07,1.07,0,0,1-1-1.43.76.76,0,0,0,0-.11,1.08,1.08,0,0,1,1.4-.6,1,1,0,0,1,.62,1.36l0,.09A1.07,1.07,0,0,1,176.59,141.43Zm19.1-2.9a1.09,1.09,0,0,1-.84-.4l-.06-.08a1,1,0,0,1,.16-1.49,1.11,1.11,0,0,1,1.52.16l.07.09a1,1,0,0,1-.18,1.49A1.09,1.09,0,0,1,195.69,138.53Zm-17.12-.36a1.07,1.07,0,0,1-.7-.25,1,1,0,0,1-.12-1.49l.08-.09a1.11,1.11,0,0,1,1.53-.1,1,1,0,0,1,.09,1.5l-.06.07A1.08,1.08,0,0,1,178.57,138.17ZM192.8,136a1.1,1.1,0,0,1-.57-.16l-.08,0a1,1,0,0,1-.37-1.45,1.1,1.1,0,0,1,1.49-.36l.1.06a1.05,1.05,0,0,1,.35,1.46A1.09,1.09,0,0,1,192.8,136Zm-11.23-.23a1.08,1.08,0,0,1-.94-.54,1,1,0,0,1,.41-1.44l.1-.06a1.1,1.1,0,0,1,1.47.42,1,1,0,0,1-.43,1.44l-.08,0A1,1,0,0,1,181.57,135.78Zm7.63-1.16-.21,0-.1,0a1.06,1.06,0,0,1-.86-1.24,1.09,1.09,0,0,1,1.27-.84l.12,0a1.06,1.06,0,0,1-.22,2.1Zm-4-.08a1.07,1.07,0,0,1-1.06-.89,1.05,1.05,0,0,1,.9-1.21l.11,0a1.08,1.08,0,0,1,1.23.89,1.06,1.06,0,0,1-.91,1.2h-.09Z"/>
                <path class="e84fa32d-acf6-436b-b306-1e184bde5a46" d="M188.75,156.12a1.33,1.33,0,0,1-.28,0l.06-.24.22,0Zm-3.76,0a.86.86,0,0,1-.22,0h-.05l0-.24H185Zm7.42-1.2a1.26,1.26,0,0,1-.28,0l.06-.24a.78.78,0,0,0,.22,0Zm-11-.12a1.33,1.33,0,0,1-.28,0l.06-.24a.83.83,0,0,0,.22,0Zm14-2.28a.9.9,0,0,1-.28,0l.06-.24a.83.83,0,0,0,.22,0Zm-17-.17a1.26,1.26,0,0,1-.28,0l.06-.24a.78.78,0,0,0,.22,0Zm19-3.09a1.27,1.27,0,0,1-.28,0l.06-.24.22,0ZM176.51,149a1.33,1.33,0,0,1-.28,0l.06-.24.22,0Zm21.58-3.51h0a1.24,1.24,0,0,1-.27,0l.06-.25a.76.76,0,0,0,.21,0Zm-22.21-.23h0l-.26,0,.06-.24a.76.76,0,0,0,.21,0ZM197.53,142a1.33,1.33,0,0,1-.28,0l.06-.24a.82.82,0,0,0,.22,0Zm-20.94-.43a1.33,1.33,0,0,1-.28,0l.06-.24a.82.82,0,0,0,.22,0Zm19.1-2.9-.28,0,.06-.24.22,0Zm-17.12-.35a1.33,1.33,0,0,1-.28,0l.06-.25a.83.83,0,0,0,.22,0Zm14.23-2.17a1.33,1.33,0,0,1-.28,0l.06-.24a.83.83,0,0,0,.22,0Zm-11.23-.23a1.33,1.33,0,0,1-.28,0l.06-.24a.82.82,0,0,0,.22,0Zm7.63-1.16-.24,0h0l0-.24h.22Zm-4-.08-.28,0,.06-.24.22,0Z"/>
              </g>
              <path class="e84fa32d-acf6-436b-b306-1e184bde5a46" d="M188.14,151.94a.69.69,0,0,1-.11-1.38h.07a.7.7,0,0,1,.81.57.69.69,0,0,1-.58.8h-.19Zm-2.46,0-.13,0h-.08a.69.69,0,1,1,.27-1.36h.06a.69.69,0,0,1,.57.81A.71.71,0,0,1,185.68,151.92Zm4.86-.8a.71.71,0,0,1-.62-.35.69.69,0,0,1,.28-1l.05,0a.73.73,0,0,1,1,.26.69.69,0,0,1-.26.95l-.07,0A.73.73,0,0,1,190.54,151.12Zm-7.25-.07a.64.64,0,0,1-.35-.1l-.07,0a.68.68,0,0,1-.24-1,.71.71,0,0,1,1-.23l.05,0a.68.68,0,0,1,.26,1A.72.72,0,0,1,183.29,151.05Zm9.22-1.5a.75.75,0,0,1-.47-.17.7.7,0,0,1-.07-1l0,0a.72.72,0,0,1,1-.09.69.69,0,0,1,.09,1l-.06.06A.69.69,0,0,1,192.51,149.55Zm-11.15-.11a.7.7,0,0,1-.54-.26l0-.05a.69.69,0,0,1,.1-1,.73.73,0,0,1,1,.1l0,.05a.68.68,0,0,1-.1,1A.69.69,0,0,1,181.36,149.44Zm12.44-2a.77.77,0,0,1-.25,0,.7.7,0,0,1-.41-.9l0-.05a.72.72,0,0,1,.91-.42.69.69,0,0,1,.43.89l0,.07A.71.71,0,0,1,193.8,147.41Zm-13.69-.13a.72.72,0,0,1-.67-.47l0-.07a.69.69,0,0,1,.44-.88.72.72,0,0,1,.9.43l0,.06a.69.69,0,0,1-.43.89A1,1,0,0,1,180.11,147.28ZM194.27,145h0a.7.7,0,0,1-.7-.7v-.06a.71.71,0,0,1,1.42,0v.07A.7.7,0,0,1,194.27,145Zm-14.57-.15h0a.7.7,0,0,1-.7-.7v-.07a.7.7,0,0,1,.71-.68h0a.69.69,0,0,1,.7.71v.06A.7.7,0,0,1,179.7,144.82Zm14.2-2.16a.71.71,0,0,1-.67-.47l0-.06a.69.69,0,0,1,.44-.88.71.71,0,0,1,.9.43l0,.07a.69.69,0,0,1-.46.88A.78.78,0,0,1,193.9,142.66Zm-13.73-.28a.7.7,0,0,1-.67-.94l0-.07a.71.71,0,0,1,.92-.39.68.68,0,0,1,.4.89l0,.06A.71.71,0,0,1,180.17,142.38Zm12.53-1.9a.71.71,0,0,1-.56-.27l0,0a.69.69,0,0,1,.11-1,.73.73,0,0,1,1,.1l0,.06a.68.68,0,0,1-.11,1A.73.73,0,0,1,192.7,140.48Zm-11.23-.23a.75.75,0,0,1-.47-.17.69.69,0,0,1-.07-1l0-.06a.72.72,0,0,1,1-.06.69.69,0,0,1,.06,1l0,0A.75.75,0,0,1,181.47,140.25Zm9.33-1.42a.72.72,0,0,1-.37-.11l-.06,0a.69.69,0,0,1-.24-.95.72.72,0,0,1,1-.24l.06,0a.68.68,0,0,1,.23,1A.7.7,0,0,1,190.8,138.83Zm-7.37-.15a.71.71,0,0,1-.62-.36.68.68,0,0,1,.28-.94l.06,0a.72.72,0,0,1,1,.27.7.7,0,0,1-.29.95l-.05,0A.73.73,0,0,1,183.43,138.68Zm5-.77h-.2a.69.69,0,1,1,.26-1.36h.08a.69.69,0,0,1-.14,1.37Zm-2.61,0a.71.71,0,0,1-.7-.58.7.7,0,0,1,.59-.8h.08a.71.71,0,0,1,.8.58.69.69,0,0,1-.6.79h-.17Z"/>
            </g>
            <g>
              <path class="e84fa32d-acf6-436b-b306-1e184bde5a46" d="M199.32,108.43h0a1.67,1.67,0,0,0,1.41-.77h-2.83A1.68,1.68,0,0,0,199.32,108.43Z"/>
              <path class="e84fa32d-acf6-436b-b306-1e184bde5a46" d="M201.88,112a.69.69,0,0,1,0-.13,1.68,1.68,0,0,0-2.11-1,1.62,1.62,0,0,0-1,2.07l.06.17a1.65,1.65,0,0,0,1.57,1.08,1.76,1.76,0,0,0,.55-.09A1.63,1.63,0,0,0,201.88,112Z"/>
            </g>
            <ellipse class="e84fa32d-acf6-436b-b306-1e184bde5a46" cx="160.19" cy="140" rx="4.31" ry="4.21"/>
            <ellipse class="e84fa32d-acf6-436b-b306-1e184bde5a46" cx="142.95" cy="128.05" rx="4.31" ry="4.21"/>
            <ellipse class="e84fa32d-acf6-436b-b306-1e184bde5a46" cx="193.41" cy="119.88" rx="3.87" ry="3.79"/>
          </g>
        </g>
        <path class="a097210c-f495-41d2-9f35-c9ca364a6703" d="M238.92,323.12l-2.17-4.43-1.62-3.42-.13-.16c-7.56-15.49-24-49.2-30-62.48-8-17.5-8.09-33.43-20-31.15-3.52.67-11,17.86-13.68,31s-15.11,42-19.13,53.83c-2.08,6.08-4.28,13.43-5.93,19.12h-.11l-.85,3.34c-1,3.57-1.66,5.94-1.66,5.94s7.24-.24,18,2.72l-.27,0-1.79,20.55s0-.09,0-.23l0,.23s-2,6.12,20,4.22c4.31-.37,8-.67,11.3-.89.71,8.68,1.66,20,2.05,24,.67,6.78-.22,18.15-.22,18.15s11.64-6.47,19.67-15.3c7.12-7.84,11.57-12.42,10.52-17,0,0,0,0,0,.06l0-.11v0l0-.1c-.18-1.12-.79-4.79-1.62-9.69l-.77-5.29s-.06-.12-.18-.31c-.28-1.66-.57-3.38-.87-5.14l-1.3-8.08-.1,0c-.38-2.15-.75-4.27-1.11-6.28,5.83-.82,13.29-2,16.48-3.13C238.93,331,240.94,327.07,238.92,323.12Z"/>
      </g>
    </g>
  </g>
</svg>
